<svg xmlns="http://www.w3.org/2000/svg" width="51.871" height="43.333" viewBox="0 0 51.871 43.333">
  <g id="_4" data-name="4" transform="translate(-2678.862 -248.786)">
    <g id="Grupo_87544" data-name="Grupo 87544" transform="translate(2693.212 258.325)">
      <path id="Trazado_101531" data-name="Trazado 101531" d="M2838.78,333.8h-.365v12.869a8.232,8.232,0,0,1-8.223,8.223h-17.883c-1.718,1.506-3.709,3.134-5.548,4.536a5.45,5.45,0,0,0,2.548.633h17.368c3.787,3.392,9.3,7.533,10.218,7.533.84,0,.8-.7.8-.7v-6.836h1.084a5.519,5.519,0,0,0,5.5-5.5V339.308A5.52,5.52,0,0,0,2838.78,333.8Z" transform="translate(-2806.761 -333.805)" fill="#ef6c00"/>
    </g>
    <path id="Trazado_101532" data-name="Trazado 101532" d="M2716.616,248.786H2684.8a5.959,5.959,0,0,0-5.941,5.941v16.467a5.959,5.959,0,0,0,5.941,5.941h1.17v7.431s-.043.753.865.753c.99,0,6.941-4.522,11.03-8.184h18.749a5.958,5.958,0,0,0,5.941-5.941V254.727A5.958,5.958,0,0,0,2716.616,248.786ZM2690.786,269.8a2.282,2.282,0,1,1,2.282-2.282A2.282,2.282,0,0,1,2690.786,269.8Zm9.61,0a2.282,2.282,0,1,1,2.282-2.282A2.282,2.282,0,0,1,2700.4,269.8Zm9.655,0a2.282,2.282,0,1,1,2.282-2.282A2.282,2.282,0,0,1,2710.051,269.8Z" fill="#ef6c00"/>
  </g>
</svg>
