<svg xmlns="http://www.w3.org/2000/svg" width="40" height="38.77" viewBox="0 0 40 38.77">
  <g id="_1" data-name="1" transform="translate(-150.879 -158.99)">
    <path id="Trazado_101524" data-name="Trazado 101524" d="M180.893,429.252l-4.483-1.7.275,2.04s1.739,1.044,1.739,1.4-6.007,8.173-6.007,8.173l-.706-4.125a16.918,16.918,0,0,0,2.056-2.056,16.29,16.29,0,0,0-2.889-2.889,16.475,16.475,0,0,0-2.889,2.889,17.315,17.315,0,0,0,2.056,2.056l-.706,4.125s-6.007-7.843-6.007-8.173,1.739-1.4,1.739-1.4l.275-1.964-4.483,1.627a10.118,10.118,0,0,0-9.986,9.986v6.283h40v-6.283A10.142,10.142,0,0,0,180.893,429.252Z" transform="translate(0 -247.761)" fill="#dad6f7"/>
    <path id="Trazado_101525" data-name="Trazado 101525" d="M293.406,168.875c0-5.973-3.753-9.885-9.2-9.885-5.3,0-9.1,4.173-9.305,9.411-.012,0-.023,0-.035,0-.634,0-1.147,1.1-1.147,2.448s.514,2.448,1.147,2.448a.861.861,0,0,0,.679-.479,7.825,7.825,0,0,0,5,4.793,2.449,2.449,0,0,0,2.187.885c1.242,0,2.249-.514,2.249-1.147s-1.007-1.147-2.249-1.147a3.449,3.449,0,0,0-1.694.394,6.615,6.615,0,0,1-4.488-4.167c.132-.1.325-.118.395-.308s-.03-1.289.039-1.93c.1-.945-.048-1.8.563-2.525a3.7,3.7,0,0,1,2.961-1.129,4.1,4.1,0,0,1,1.01.362,10.84,10.84,0,0,0,4.885,1.5c.6-.007,1.636-.751,2.205-.93a1.644,1.644,0,0,1,1.558.013,1.873,1.873,0,0,1,.826,1.239,14.485,14.485,0,0,1,.274,3.832.58.58,0,0,0,.478.724l.008,0a2.186,2.186,0,0,0,1.113-.135A21.027,21.027,0,0,0,293.406,168.875Z" transform="translate(-113.326 0)" fill="#dad6f7"/>
  </g>
</svg>
