<svg xmlns="http://www.w3.org/2000/svg" xmlns:xlink="http://www.w3.org/1999/xlink" width="974.177" height="517.266" viewBox="0 0 974.177 517.266">
  <defs>
    <linearGradient id="linear-gradient" x1="0.199" y1="0.189" x2="0.906" y2="1.608" gradientUnits="objectBoundingBox">
      <stop offset="0" stop-color="#fff"/>
      <stop offset="0.87" stop-color="#f5f4f3"/>
    </linearGradient>
    <filter id="Trazado_102603" x="250.073" y="277.29" width="457.492" height="239.976" filterUnits="userSpaceOnUse">
      <feOffset dy="3" input="SourceAlpha"/>
      <feGaussianBlur stdDeviation="4" result="blur"/>
      <feFlood flood-opacity="0.161"/>
      <feComposite operator="in" in2="blur"/>
      <feComposite in="SourceGraphic"/>
    </filter>
  </defs>
  <g id="Grupo_88006" data-name="Grupo 88006" transform="translate(-321.28 -547.906)">
    <g id="Grupo_87934" data-name="Grupo 87934" transform="translate(1031.14 -1604.806)">
      <path id="Trazado_102598" data-name="Trazado 102598" d="M-690.6,2841.308h447.323l-358.6-268.6A457.376,457.376,0,0,0-690.6,2841.308Z" transform="translate(0 -188.638)" fill="#fcecdf"/>
      <path id="Trazado_102599" data-name="Trazado 102599" d="M710.4,2841.541a457.374,457.374,0,0,0-88.555-268.367L271.959,2841.541Z" transform="translate(-482.084 -188.871)" fill="#fcecdf"/>
      <path id="Trazado_102600" data-name="Trazado 102600" d="M259.3,2674.012l349.888-268.367a460.357,460.357,0,0,0-232.34-166.968L246.674,2674.012Z" transform="translate(-469.421 -21.343)" fill="#dad6f7"/>
      <path id="Trazado_102601" data-name="Trazado 102601" d="M-283.393,2240.4a460.405,460.405,0,0,0-229.46,165.877l358.6,268.6h12.67Z" transform="translate(-89.02 -22.204)" fill="#dad6f7"/>
      <path id="Trazado_102602" data-name="Trazado 102602" d="M96.5,2652.669l130.169-435.335a461.971,461.971,0,0,0-279.837.859L88.648,2652.669Z" transform="translate(-319.251)" fill="#fcecdf"/>
      <g id="Grupo_87933" data-name="Grupo 87933" transform="translate(-447.787 2435.002)">
        <g transform="matrix(1, 0, 0, 1, -262.07, -282.29)" filter="url(#Trazado_102603)">
          <path id="Trazado_102603-2" data-name="Trazado 102603" d="M229.33,2890.719c-.418-119.351-97.3-215.976-216.746-215.976s-216.328,96.625-216.746,215.976Z" transform="translate(466.24 -2388.45)" fill="url(#linear-gradient)"/>
        </g>
      </g>
    </g>
    <path id="Trazado_144283" data-name="Trazado 144283" d="M28.333,5.583H24.22V17H22.541V5.583h-4.1V4.2h9.9Zm5.581,3.366a4.873,4.873,0,0,0-.8-.062,2.143,2.143,0,0,0-2.171,1.362V17H29.317V7.49H30.9l.026,1.1a2.532,2.532,0,0,1,2.268-1.274,1.661,1.661,0,0,1,.721.123ZM40.928,17a3.416,3.416,0,0,1-.229-1,3.628,3.628,0,0,1-2.707,1.178,3.357,3.357,0,0,1-2.307-.8,2.573,2.573,0,0,1-.9-2.017,2.688,2.688,0,0,1,1.129-2.307,5.325,5.325,0,0,1,3.177-.822h1.582v-.747a1.826,1.826,0,0,0-.51-1.358,2.049,2.049,0,0,0-1.5-.505,2.371,2.371,0,0,0-1.459.439,1.3,1.3,0,0,0-.589,1.063H34.978a2.244,2.244,0,0,1,.505-1.375A3.449,3.449,0,0,1,36.854,7.7a4.613,4.613,0,0,1,1.9-.387,3.759,3.759,0,0,1,2.575.822A2.964,2.964,0,0,1,42.3,10.4v4.377a5.351,5.351,0,0,0,.334,2.083V17Zm-2.7-1.239a2.858,2.858,0,0,0,1.45-.4,2.392,2.392,0,0,0,.993-1.028V12.386H39.4q-2.988,0-2.988,1.749a1.48,1.48,0,0,0,.51,1.2A1.959,1.959,0,0,0,38.229,15.761ZM52.9,12.351a5.654,5.654,0,0,1-1,3.5,3.2,3.2,0,0,1-2.689,1.323A3.315,3.315,0,0,1,46.421,15.9L46.342,17H44.848V3.5h1.626V8.536a3.3,3.3,0,0,1,2.716-1.222,3.221,3.221,0,0,1,2.72,1.31A5.824,5.824,0,0,1,52.9,12.21Zm-1.626-.185A4.394,4.394,0,0,0,50.631,9.6a2.124,2.124,0,0,0-1.846-.905,2.387,2.387,0,0,0-2.312,1.494V14.3A2.454,2.454,0,0,0,48.8,15.8a2.112,2.112,0,0,0,1.819-.905A4.672,4.672,0,0,0,51.272,12.166ZM60.817,17a3.416,3.416,0,0,1-.229-1,3.628,3.628,0,0,1-2.707,1.178,3.357,3.357,0,0,1-2.307-.8,2.573,2.573,0,0,1-.9-2.017A2.688,2.688,0,0,1,55.8,12.056a5.325,5.325,0,0,1,3.177-.822h1.582v-.747a1.826,1.826,0,0,0-.51-1.358,2.049,2.049,0,0,0-1.5-.505,2.371,2.371,0,0,0-1.459.439,1.3,1.3,0,0,0-.589,1.063H54.867a2.244,2.244,0,0,1,.505-1.375A3.449,3.449,0,0,1,56.744,7.7a4.613,4.613,0,0,1,1.9-.387,3.759,3.759,0,0,1,2.575.822,2.964,2.964,0,0,1,.967,2.263v4.377a5.351,5.351,0,0,0,.334,2.083V17Zm-2.7-1.239a2.858,2.858,0,0,0,1.45-.4,2.392,2.392,0,0,0,.993-1.028V12.386H59.288q-2.988,0-2.988,1.749a1.48,1.48,0,0,0,.51,1.2A1.959,1.959,0,0,0,58.119,15.761Zm8.3-8.271V18.1q0,2.742-2.487,2.742a3.034,3.034,0,0,1-.993-.157V19.391a3.144,3.144,0,0,0,.738.07,1.1,1.1,0,0,0,.831-.295,1.457,1.457,0,0,0,.286-1.025V7.49ZM64.623,4.968a.975.975,0,0,1,.242-.664.889.889,0,0,1,.708-.277.922.922,0,0,1,.721.272.96.96,0,0,1,.246.668.929.929,0,0,1-.246.659.938.938,0,0,1-.721.264.909.909,0,0,1-.712-.264A.949.949,0,0,1,64.623,4.968ZM68.6,12.157a5.617,5.617,0,0,1,.549-2.514,4.1,4.1,0,0,1,1.529-1.723,4.163,4.163,0,0,1,2.237-.606,4.01,4.01,0,0,1,3.142,1.345,5.174,5.174,0,0,1,1.2,3.577v.114a5.666,5.666,0,0,1-.532,2.492,4.038,4.038,0,0,1-1.521,1.718,4.211,4.211,0,0,1-2.272.615A4,4,0,0,1,69.8,15.831a5.147,5.147,0,0,1-1.2-3.56Zm1.635.193a4.068,4.068,0,0,0,.734,2.54,2.487,2.487,0,0,0,3.933-.013,4.449,4.449,0,0,0,.729-2.72,4.061,4.061,0,0,0-.743-2.536A2.361,2.361,0,0,0,72.92,8.65a2.335,2.335,0,0,0-1.942.958A4.416,4.416,0,0,0,70.239,12.351ZM87.7,17.176a4.155,4.155,0,0,1-3.146-1.27,4.714,4.714,0,0,1-1.213-3.4v-.3a5.707,5.707,0,0,1,.541-2.527A4.217,4.217,0,0,1,85.4,7.943a3.8,3.8,0,0,1,2.1-.628,3.562,3.562,0,0,1,2.883,1.222,5.289,5.289,0,0,1,1.028,3.5v.677H84.97a3.38,3.38,0,0,0,.822,2.272,2.583,2.583,0,0,0,2,.866A2.832,2.832,0,0,0,89.25,15.5a3.666,3.666,0,0,0,1.046-.932l.993.773A3.993,3.993,0,0,1,87.7,17.176ZM87.5,8.65a2.169,2.169,0,0,0-1.652.716,3.482,3.482,0,0,0-.826,2.008h4.764v-.123a3.1,3.1,0,0,0-.668-1.92A2.042,2.042,0,0,0,87.5,8.65Zm7.33-1.16.053,1.2a3.465,3.465,0,0,1,2.848-1.371q3.015,0,3.041,3.4V17H99.146V10.707a2.189,2.189,0,0,0-.47-1.521,1.884,1.884,0,0,0-1.437-.492,2.347,2.347,0,0,0-1.389.422,2.865,2.865,0,0,0-.932,1.107V17H93.293V7.49ZM37.966,42.176a4.155,4.155,0,0,1-3.146-1.27,4.714,4.714,0,0,1-1.213-3.4v-.3a5.707,5.707,0,0,1,.541-2.527,4.217,4.217,0,0,1,1.512-1.74,3.8,3.8,0,0,1,2.1-.628,3.562,3.562,0,0,1,2.883,1.222,5.289,5.289,0,0,1,1.028,3.5v.677H35.232a3.38,3.38,0,0,0,.822,2.272,2.583,2.583,0,0,0,2,.866,2.832,2.832,0,0,0,1.459-.352,3.666,3.666,0,0,0,1.046-.932l.993.773A3.993,3.993,0,0,1,37.966,42.176Zm-.2-8.525a2.169,2.169,0,0,0-1.652.716,3.482,3.482,0,0,0-.826,2.008h4.764v-.123a3.1,3.1,0,0,0-.668-1.92A2.042,2.042,0,0,0,37.764,33.65Zm5.4,3.516a5.582,5.582,0,0,1,1.028-3.546,3.629,3.629,0,0,1,5.423-.171l.07-.958h1.494V45.656H49.55V41.121a3.412,3.412,0,0,1-2.619,1.055,3.28,3.28,0,0,1-2.747-1.34A5.706,5.706,0,0,1,43.16,37.28Zm1.626.185a4.231,4.231,0,0,0,.69,2.566,2.195,2.195,0,0,0,1.859.932,2.435,2.435,0,0,0,2.215-1.283V34.907a2.442,2.442,0,0,0-2.2-1.257,2.211,2.211,0,0,0-1.872.936A4.606,4.606,0,0,0,44.786,37.351ZM59.657,41.06a3.454,3.454,0,0,1-2.786,1.116,2.956,2.956,0,0,1-2.316-.883,3.823,3.823,0,0,1-.8-2.615V32.49h1.626v6.144q0,2.162,1.758,2.162a2.434,2.434,0,0,0,2.479-1.389V32.49h1.626V42H59.692Zm5.818.94H63.85V32.49h1.626ZM63.718,29.968a.971.971,0,0,1,.242-.668.907.907,0,0,1,.716-.272.922.922,0,0,1,.721.272.96.96,0,0,1,.246.668.929.929,0,0,1-.246.659.938.938,0,0,1-.721.264.924.924,0,0,1-.716-.264A.938.938,0,0,1,63.718,29.968ZM76.11,37.351a5.694,5.694,0,0,1-.993,3.5,3.183,3.183,0,0,1-2.689,1.327,3.488,3.488,0,0,1-2.725-1.1v4.579H68.077V32.49h1.485l.079,1.055a3.35,3.35,0,0,1,2.76-1.23,3.243,3.243,0,0,1,2.711,1.292,5.756,5.756,0,0,1,1,3.595Zm-1.626-.185a4.2,4.2,0,0,0-.686-2.54,2.208,2.208,0,0,0-1.881-.932A2.39,2.39,0,0,0,69.7,35v4.544a2.4,2.4,0,0,0,2.232,1.3,2.2,2.2,0,0,0,1.859-.927A4.587,4.587,0,0,0,74.484,37.166Zm3.261-.009a5.617,5.617,0,0,1,.549-2.514,4.1,4.1,0,0,1,1.529-1.723,4.163,4.163,0,0,1,2.237-.606A4.01,4.01,0,0,1,85.2,33.659a5.174,5.174,0,0,1,1.2,3.577v.114a5.666,5.666,0,0,1-.532,2.492,4.038,4.038,0,0,1-1.521,1.718,4.211,4.211,0,0,1-2.272.615,4,4,0,0,1-3.133-1.345,5.147,5.147,0,0,1-1.2-3.56Zm1.635.193a4.068,4.068,0,0,0,.734,2.54,2.487,2.487,0,0,0,3.933-.013,4.449,4.449,0,0,0,.729-2.72,4.061,4.061,0,0,0-.743-2.536,2.361,2.361,0,0,0-1.973-.971,2.335,2.335,0,0,0-1.942.958A4.416,4.416,0,0,0,79.38,37.351Z" transform="translate(426.438 927.863)" fill="#12263f"/>
    <path id="Trazado_144284" data-name="Trazado 144284" d="M33.673,11.99V17H31.986V4.2h4.72A4.742,4.742,0,0,1,40,5.275a3.635,3.635,0,0,1,1.191,2.839,3.587,3.587,0,0,1-1.165,2.87,4.954,4.954,0,0,1-3.335,1.006Zm0-1.38h3.032a3.032,3.032,0,0,0,2.074-.638A2.334,2.334,0,0,0,39.5,8.127,2.411,2.411,0,0,0,38.78,6.3,2.84,2.84,0,0,0,36.8,5.583H33.673Zm14.01-1.661a4.873,4.873,0,0,0-.8-.062,2.143,2.143,0,0,0-2.171,1.362V17H43.086V7.49h1.582l.026,1.1a2.532,2.532,0,0,1,2.268-1.274,1.661,1.661,0,0,1,.721.123Zm.888,3.208a5.617,5.617,0,0,1,.549-2.514,4.1,4.1,0,0,1,1.529-1.723,4.163,4.163,0,0,1,2.237-.606,4.01,4.01,0,0,1,3.142,1.345,5.174,5.174,0,0,1,1.2,3.577v.114a5.666,5.666,0,0,1-.532,2.492,4.038,4.038,0,0,1-1.521,1.718,4.211,4.211,0,0,1-2.272.615,4,4,0,0,1-3.133-1.345,5.147,5.147,0,0,1-1.2-3.56Zm1.635.193a4.068,4.068,0,0,0,.734,2.54,2.487,2.487,0,0,0,3.933-.013,4.449,4.449,0,0,0,.729-2.72,4.061,4.061,0,0,0-.743-2.536,2.361,2.361,0,0,0-1.973-.971,2.335,2.335,0,0,0-1.942.958A4.416,4.416,0,0,0,50.206,12.351Zm12.041,2.268L64.461,7.49H66.2L62.378,18.468q-.888,2.373-2.821,2.373l-.308-.026-.606-.114V19.382l.439.035a2.164,2.164,0,0,0,1.288-.334,2.417,2.417,0,0,0,.76-1.222l.36-.967L58.1,7.49h1.775Zm9.237,2.558a4.155,4.155,0,0,1-3.146-1.27,4.714,4.714,0,0,1-1.213-3.4v-.3a5.707,5.707,0,0,1,.541-2.527,4.217,4.217,0,0,1,1.512-1.74,3.8,3.8,0,0,1,2.1-.628,3.562,3.562,0,0,1,2.883,1.222,5.289,5.289,0,0,1,1.028,3.5v.677H68.75a3.38,3.38,0,0,0,.822,2.272,2.583,2.583,0,0,0,2,.866,2.832,2.832,0,0,0,1.459-.352,3.666,3.666,0,0,0,1.046-.932l.993.773A3.993,3.993,0,0,1,71.484,17.176Zm-.2-8.525a2.169,2.169,0,0,0-1.652.716,3.482,3.482,0,0,0-.826,2.008h4.764v-.123a3.1,3.1,0,0,0-.668-1.92A2.042,2.042,0,0,0,71.282,8.65Zm9.606,7.2a2.342,2.342,0,0,0,1.521-.527A1.855,1.855,0,0,0,83.129,14h1.538a2.949,2.949,0,0,1-.562,1.556,3.7,3.7,0,0,1-1.384,1.178,3.994,3.994,0,0,1-1.833.439,3.918,3.918,0,0,1-3.089-1.3,5.163,5.163,0,0,1-1.147-3.546v-.272a5.725,5.725,0,0,1,.51-2.47,3.883,3.883,0,0,1,1.463-1.679,4.157,4.157,0,0,1,2.254-.6,3.814,3.814,0,0,1,2.659.958,3.424,3.424,0,0,1,1.129,2.487H83.129a2.241,2.241,0,0,0-.7-1.516,2.174,2.174,0,0,0-1.551-.593,2.276,2.276,0,0,0-1.92.892,4.19,4.19,0,0,0-.681,2.58v.308a4.106,4.106,0,0,0,.677,2.531A2.287,2.287,0,0,0,80.888,15.849Zm9.422,0a2.342,2.342,0,0,0,1.521-.527A1.855,1.855,0,0,0,92.551,14h1.538a2.949,2.949,0,0,1-.562,1.556,3.7,3.7,0,0,1-1.384,1.178,3.994,3.994,0,0,1-1.833.439,3.918,3.918,0,0,1-3.089-1.3,5.163,5.163,0,0,1-1.147-3.546v-.272a5.725,5.725,0,0,1,.51-2.47,3.883,3.883,0,0,1,1.463-1.679,4.157,4.157,0,0,1,2.254-.6,3.814,3.814,0,0,1,2.659.958,3.424,3.424,0,0,1,1.129,2.487H92.551a2.241,2.241,0,0,0-.7-1.516A2.174,2.174,0,0,0,90.3,8.65a2.276,2.276,0,0,0-1.92.892,4.19,4.19,0,0,0-.681,2.58v.308a4.106,4.106,0,0,0,.677,2.531A2.287,2.287,0,0,0,90.31,15.849ZM97.684,17H96.058V7.49h1.626ZM95.926,4.968a.971.971,0,0,1,.242-.668.907.907,0,0,1,.716-.272A.922.922,0,0,1,97.6,4.3a.96.96,0,0,1,.246.668.929.929,0,0,1-.246.659.938.938,0,0,1-.721.264.924.924,0,0,1-.716-.264A.938.938,0,0,1,95.926,4.968Zm3.929,7.189a5.617,5.617,0,0,1,.549-2.514,4.1,4.1,0,0,1,1.529-1.723,4.163,4.163,0,0,1,2.237-.606,4.01,4.01,0,0,1,3.142,1.345,5.174,5.174,0,0,1,1.2,3.577v.114a5.666,5.666,0,0,1-.532,2.492,4.038,4.038,0,0,1-1.521,1.718,4.211,4.211,0,0,1-2.272.615,4,4,0,0,1-3.133-1.345,5.147,5.147,0,0,1-1.2-3.56Zm1.635.193a4.068,4.068,0,0,0,.734,2.54,2.487,2.487,0,0,0,3.933-.013,4.449,4.449,0,0,0,.729-2.72,4.061,4.061,0,0,0-.743-2.536,2.361,2.361,0,0,0-1.973-.971,2.335,2.335,0,0,0-1.942.958A4.416,4.416,0,0,0,101.49,12.351Zm3.419-8.833h1.969L104.522,6.1l-1.31,0Zm7.181,3.973.053,1.2a3.465,3.465,0,0,1,2.848-1.371q3.015,0,3.041,3.4V17H116.4V10.707a2.189,2.189,0,0,0-.47-1.521,1.884,1.884,0,0,0-1.437-.492,2.347,2.347,0,0,0-1.389.422,2.865,2.865,0,0,0-.932,1.107V17h-1.626V7.49ZM130.81,17a3.416,3.416,0,0,1-.229-1,3.628,3.628,0,0,1-2.707,1.178,3.357,3.357,0,0,1-2.307-.8,2.573,2.573,0,0,1-.9-2.017,2.688,2.688,0,0,1,1.129-2.307,5.325,5.325,0,0,1,3.177-.822h1.582v-.747a1.826,1.826,0,0,0-.51-1.358,2.049,2.049,0,0,0-1.5-.505,2.371,2.371,0,0,0-1.459.439,1.3,1.3,0,0,0-.589,1.063H124.86a2.244,2.244,0,0,1,.505-1.375,3.449,3.449,0,0,1,1.371-1.05,4.613,4.613,0,0,1,1.9-.387,3.759,3.759,0,0,1,2.575.822,2.964,2.964,0,0,1,.967,2.263v4.377a5.351,5.351,0,0,0,.334,2.083V17Zm-2.7-1.239a2.858,2.858,0,0,0,1.45-.4,2.392,2.392,0,0,0,.993-1.028V12.386h-1.274q-2.988,0-2.988,1.749a1.48,1.48,0,0,0,.51,1.2A1.959,1.959,0,0,0,128.112,15.761ZM45.626,33.949a4.873,4.873,0,0,0-.8-.062,2.143,2.143,0,0,0-2.171,1.362V42H41.03V32.49h1.582l.026,1.1a2.532,2.532,0,0,1,2.268-1.274,1.661,1.661,0,0,1,.721.123ZM50.9,42.176a4.155,4.155,0,0,1-3.146-1.27,4.714,4.714,0,0,1-1.213-3.4v-.3a5.707,5.707,0,0,1,.541-2.527,4.217,4.217,0,0,1,1.512-1.74,3.8,3.8,0,0,1,2.1-.628,3.562,3.562,0,0,1,2.883,1.222,5.289,5.289,0,0,1,1.028,3.5v.677H48.167a3.38,3.38,0,0,0,.822,2.272,2.583,2.583,0,0,0,2,.866,2.832,2.832,0,0,0,1.459-.352,3.666,3.666,0,0,0,1.046-.932l.993.773A3.993,3.993,0,0,1,50.9,42.176Zm-.2-8.525a2.169,2.169,0,0,0-1.652.716,3.482,3.482,0,0,0-.826,2.008h4.764v-.123a3.1,3.1,0,0,0-.668-1.92A2.042,2.042,0,0,0,50.7,33.65Zm11.329,5.827a1.2,1.2,0,0,0-.5-1.024,4.78,4.78,0,0,0-1.731-.628,8.186,8.186,0,0,1-1.96-.633,2.788,2.788,0,0,1-1.072-.879,2.1,2.1,0,0,1-.347-1.213,2.467,2.467,0,0,1,.989-1.978,3.861,3.861,0,0,1,2.527-.809,3.974,3.974,0,0,1,2.624.835,2.652,2.652,0,0,1,1.006,2.136H61.93a1.468,1.468,0,0,0-.567-1.151,2.124,2.124,0,0,0-1.428-.483,2.223,2.223,0,0,0-1.389.387,1.217,1.217,0,0,0-.5,1.011.986.986,0,0,0,.466.888,5.731,5.731,0,0,0,1.683.571,8.77,8.77,0,0,1,1.973.65,2.878,2.878,0,0,1,1.121.91,2.237,2.237,0,0,1,.365,1.3,2.434,2.434,0,0,1-1.02,2.043,4.277,4.277,0,0,1-2.646.769,4.789,4.789,0,0,1-2.021-.4,3.288,3.288,0,0,1-1.375-1.129,2.722,2.722,0,0,1-.5-1.569H57.72a1.683,1.683,0,0,0,.655,1.3,2.54,2.54,0,0,0,1.613.479,2.622,2.622,0,0,0,1.481-.374A1.148,1.148,0,0,0,62.027,39.478Zm9.615,1.582a3.454,3.454,0,0,1-2.786,1.116,2.956,2.956,0,0,1-2.316-.883,3.823,3.823,0,0,1-.8-2.615V32.49h1.626v6.144q0,2.162,1.758,2.162A2.434,2.434,0,0,0,71.6,39.407V32.49h1.626V42H71.677ZM77.46,42H75.834V28.5H77.46Zm4.808-11.812v2.3h1.775v1.257H82.268v5.9a1.32,1.32,0,0,0,.237.858,1,1,0,0,0,.809.286,3.937,3.937,0,0,0,.773-.105V42a4.742,4.742,0,0,1-1.248.175,2.025,2.025,0,0,1-1.644-.659,2.832,2.832,0,0,1-.554-1.872v-5.9H78.911V32.49h1.731v-2.3ZM91.813,42a3.416,3.416,0,0,1-.229-1,3.628,3.628,0,0,1-2.707,1.178,3.357,3.357,0,0,1-2.307-.8,2.573,2.573,0,0,1-.9-2.017A2.688,2.688,0,0,1,86.8,37.056a5.325,5.325,0,0,1,3.177-.822h1.582v-.747a1.826,1.826,0,0,0-.51-1.358,2.049,2.049,0,0,0-1.5-.505,2.371,2.371,0,0,0-1.459.439,1.3,1.3,0,0,0-.589,1.063H85.863a2.244,2.244,0,0,1,.505-1.375,3.449,3.449,0,0,1,1.371-1.05,4.613,4.613,0,0,1,1.9-.387,3.759,3.759,0,0,1,2.575.822,2.964,2.964,0,0,1,.967,2.263v4.377a5.351,5.351,0,0,0,.334,2.083V42Zm-2.7-1.239a2.858,2.858,0,0,0,1.45-.4,2.392,2.392,0,0,0,.993-1.028V37.386H90.284q-2.988,0-2.988,1.749a1.48,1.48,0,0,0,.51,1.2A1.959,1.959,0,0,0,89.115,40.761Zm6.223-3.595a5.571,5.571,0,0,1,1.037-3.52,3.529,3.529,0,0,1,5.361-.189V28.5h1.626V42h-1.494l-.079-1.02a3.311,3.311,0,0,1-2.716,1.2,3.248,3.248,0,0,1-2.694-1.354,5.634,5.634,0,0,1-1.042-3.533Zm1.626.185a4.218,4.218,0,0,0,.668,2.531,2.159,2.159,0,0,0,1.846.914,2.372,2.372,0,0,0,2.259-1.389V35.039a2.39,2.39,0,0,0-2.241-1.345,2.17,2.17,0,0,0-1.863.923A4.644,4.644,0,0,0,96.963,37.351Zm8.49-.193A5.617,5.617,0,0,1,106,34.644a4.1,4.1,0,0,1,1.529-1.723,4.163,4.163,0,0,1,2.237-.606,4.01,4.01,0,0,1,3.142,1.345,5.174,5.174,0,0,1,1.2,3.577v.114a5.666,5.666,0,0,1-.532,2.492,4.038,4.038,0,0,1-1.521,1.718,4.211,4.211,0,0,1-2.272.615,4,4,0,0,1-3.133-1.345,5.147,5.147,0,0,1-1.2-3.56Zm1.635.193a4.068,4.068,0,0,0,.734,2.54,2.487,2.487,0,0,0,3.933-.013,4.449,4.449,0,0,0,.729-2.72,4.061,4.061,0,0,0-.743-2.536,2.361,2.361,0,0,0-1.973-.971,2.335,2.335,0,0,0-1.942.958A4.416,4.416,0,0,0,107.088,37.351Zm14.6,2.127a1.2,1.2,0,0,0-.5-1.024,4.78,4.78,0,0,0-1.731-.628,8.186,8.186,0,0,1-1.96-.633,2.788,2.788,0,0,1-1.072-.879,2.1,2.1,0,0,1-.347-1.213,2.467,2.467,0,0,1,.989-1.978,3.861,3.861,0,0,1,2.527-.809,3.974,3.974,0,0,1,2.624.835,2.652,2.652,0,0,1,1.006,2.136H121.59a1.468,1.468,0,0,0-.567-1.151,2.124,2.124,0,0,0-1.428-.483,2.223,2.223,0,0,0-1.389.387,1.217,1.217,0,0,0-.5,1.011.986.986,0,0,0,.466.888,5.731,5.731,0,0,0,1.683.571,8.77,8.77,0,0,1,1.973.65,2.878,2.878,0,0,1,1.121.91,2.237,2.237,0,0,1,.365,1.3,2.434,2.434,0,0,1-1.02,2.043,4.277,4.277,0,0,1-2.646.769,4.789,4.789,0,0,1-2.021-.4,3.288,3.288,0,0,1-1.375-1.129,2.722,2.722,0,0,1-.5-1.569h1.626a1.683,1.683,0,0,0,.655,1.3,2.54,2.54,0,0,0,1.613.479,2.622,2.622,0,0,0,1.481-.374A1.148,1.148,0,0,0,121.687,39.478Z" transform="translate(515.05 758.635)" fill="#12263f"/>
    <path id="Trazado_144285" data-name="Trazado 144285" d="M20.535,12.939a4.708,4.708,0,0,1-1.5,3.133,4.911,4.911,0,0,1-3.353,1.1,4.509,4.509,0,0,1-3.634-1.626A6.542,6.542,0,0,1,10.682,11.2V9.969a7.291,7.291,0,0,1,.637-3.138,4.76,4.76,0,0,1,1.806-2.079,5.029,5.029,0,0,1,2.707-.725A4.624,4.624,0,0,1,19.1,5.166a4.765,4.765,0,0,1,1.433,3.151h-1.7a3.677,3.677,0,0,0-.954-2.222,2.885,2.885,0,0,0-2.052-.688A3.019,3.019,0,0,0,13.3,6.6a5.492,5.492,0,0,0-.918,3.4v1.24a5.645,5.645,0,0,0,.87,3.316A2.812,2.812,0,0,0,15.683,15.8a3.247,3.247,0,0,0,2.158-.637,3.536,3.536,0,0,0,1-2.219Zm1.617-.782A5.617,5.617,0,0,1,22.7,9.644,4.1,4.1,0,0,1,24.23,7.921a4.163,4.163,0,0,1,2.237-.606,4.01,4.01,0,0,1,3.142,1.345,5.174,5.174,0,0,1,1.2,3.577v.114a5.666,5.666,0,0,1-.532,2.492,4.038,4.038,0,0,1-1.521,1.718,4.211,4.211,0,0,1-2.272.615,4,4,0,0,1-3.133-1.345,5.147,5.147,0,0,1-1.2-3.56Zm1.635.193a4.068,4.068,0,0,0,.734,2.54,2.487,2.487,0,0,0,3.933-.013,4.449,4.449,0,0,0,.729-2.72,4.061,4.061,0,0,0-.743-2.536,2.361,2.361,0,0,0-1.973-.971,2.335,2.335,0,0,0-1.942.958A4.416,4.416,0,0,0,23.787,12.351ZM34.377,7.49l.044,1.055a3.512,3.512,0,0,1,2.821-1.23,2.719,2.719,0,0,1,2.716,1.529,3.6,3.6,0,0,1,1.235-1.107,3.647,3.647,0,0,1,1.8-.422q3.129,0,3.182,3.313V17H44.546V10.725A2.184,2.184,0,0,0,44.081,9.2a2.051,2.051,0,0,0-1.564-.505,2.156,2.156,0,0,0-1.5.541,2.193,2.193,0,0,0-.694,1.455V17H38.684V10.769a1.814,1.814,0,0,0-2.03-2.074,2.175,2.175,0,0,0-2.188,1.362V17H32.839V7.49Zm22.28,4.86a5.694,5.694,0,0,1-.993,3.5,3.183,3.183,0,0,1-2.689,1.327,3.488,3.488,0,0,1-2.725-1.1v4.579H48.625V7.49H50.11l.079,1.055a3.35,3.35,0,0,1,2.76-1.23A3.243,3.243,0,0,1,55.66,8.606a5.756,5.756,0,0,1,1,3.595Zm-1.626-.185a4.2,4.2,0,0,0-.686-2.54,2.208,2.208,0,0,0-1.881-.932A2.39,2.39,0,0,0,50.25,10v4.544a2.4,2.4,0,0,0,2.232,1.3,2.2,2.2,0,0,0,1.859-.927A4.587,4.587,0,0,0,55.032,12.166ZM63.32,8.949a4.873,4.873,0,0,0-.8-.062,2.143,2.143,0,0,0-2.171,1.362V17H58.723V7.49h1.582l.026,1.1A2.532,2.532,0,0,1,62.6,7.314a1.661,1.661,0,0,1,.721.123Zm.888,3.208a5.617,5.617,0,0,1,.549-2.514,4.1,4.1,0,0,1,1.529-1.723,4.163,4.163,0,0,1,2.237-.606,4.01,4.01,0,0,1,3.142,1.345,5.174,5.174,0,0,1,1.2,3.577v.114a5.666,5.666,0,0,1-.532,2.492,4.038,4.038,0,0,1-1.521,1.718,4.211,4.211,0,0,1-2.272.615,4,4,0,0,1-3.133-1.345,5.147,5.147,0,0,1-1.2-3.56Zm1.635.193a4.068,4.068,0,0,0,.734,2.54,2.487,2.487,0,0,0,3.933-.013,4.449,4.449,0,0,0,.729-2.72A4.061,4.061,0,0,0,70.5,9.622a2.361,2.361,0,0,0-1.973-.971,2.335,2.335,0,0,0-1.942.958A4.416,4.416,0,0,0,65.842,12.351ZM76.433,7.49l.044,1.055A3.512,3.512,0,0,1,79.3,7.314a2.719,2.719,0,0,1,2.716,1.529,3.6,3.6,0,0,1,1.235-1.107,3.647,3.647,0,0,1,1.8-.422q3.129,0,3.182,3.313V17H86.6V10.725A2.184,2.184,0,0,0,86.136,9.2a2.051,2.051,0,0,0-1.564-.505,2.156,2.156,0,0,0-1.5.541,2.193,2.193,0,0,0-.694,1.455V17H80.74V10.769a1.814,1.814,0,0,0-2.03-2.074,2.175,2.175,0,0,0-2.188,1.362V17H74.9V7.49ZM92.447,17H90.821V7.49h1.626ZM90.689,4.968a.971.971,0,0,1,.242-.668.907.907,0,0,1,.716-.272.922.922,0,0,1,.721.272.96.96,0,0,1,.246.668.929.929,0,0,1-.246.659.938.938,0,0,1-.721.264.924.924,0,0,1-.716-.264A.938.938,0,0,1,90.689,4.968Zm9.9,9.51a1.2,1.2,0,0,0-.5-1.024,4.78,4.78,0,0,0-1.731-.628,8.186,8.186,0,0,1-1.96-.633,2.788,2.788,0,0,1-1.072-.879,2.1,2.1,0,0,1-.347-1.213,2.467,2.467,0,0,1,.989-1.978,3.861,3.861,0,0,1,2.527-.809,3.974,3.974,0,0,1,2.624.835,2.652,2.652,0,0,1,1.006,2.136h-1.635a1.468,1.468,0,0,0-.567-1.151,2.124,2.124,0,0,0-1.428-.483,2.223,2.223,0,0,0-1.389.387,1.217,1.217,0,0,0-.5,1.011.986.986,0,0,0,.466.888,5.731,5.731,0,0,0,1.683.571,8.77,8.77,0,0,1,1.973.65,2.878,2.878,0,0,1,1.121.91,2.237,2.237,0,0,1,.365,1.3,2.434,2.434,0,0,1-1.02,2.043,4.277,4.277,0,0,1-2.646.769,4.789,4.789,0,0,1-2.021-.4,3.288,3.288,0,0,1-1.375-1.129,2.722,2.722,0,0,1-.5-1.569h1.626a1.683,1.683,0,0,0,.655,1.3,2.54,2.54,0,0,0,1.613.479,2.622,2.622,0,0,0,1.481-.374A1.148,1.148,0,0,0,100.585,14.478Zm3.313-2.32a5.617,5.617,0,0,1,.549-2.514,4.1,4.1,0,0,1,1.529-1.723,4.163,4.163,0,0,1,2.237-.606,4.01,4.01,0,0,1,3.142,1.345,5.174,5.174,0,0,1,1.2,3.577v.114a5.666,5.666,0,0,1-.532,2.492,4.038,4.038,0,0,1-1.521,1.718,4.211,4.211,0,0,1-2.272.615,4,4,0,0,1-3.133-1.345,5.147,5.147,0,0,1-1.2-3.56Zm1.635.193a4.068,4.068,0,0,0,.734,2.54,2.487,2.487,0,0,0,3.933-.013,4.449,4.449,0,0,0,.729-2.72,4.061,4.061,0,0,0-.743-2.536,2.361,2.361,0,0,0-1.973-.971,2.335,2.335,0,0,0-1.942.958A4.416,4.416,0,0,0,105.534,12.351ZM46.941,42.176a4.155,4.155,0,0,1-3.146-1.27,4.714,4.714,0,0,1-1.213-3.4v-.3a5.707,5.707,0,0,1,.541-2.527,4.217,4.217,0,0,1,1.512-1.74,3.8,3.8,0,0,1,2.1-.628,3.562,3.562,0,0,1,2.883,1.222,5.289,5.289,0,0,1,1.028,3.5v.677H44.208a3.38,3.38,0,0,0,.822,2.272,2.583,2.583,0,0,0,2,.866,2.832,2.832,0,0,0,1.459-.352,3.666,3.666,0,0,0,1.046-.932l.993.773A3.993,3.993,0,0,1,46.941,42.176Zm-.2-8.525a2.169,2.169,0,0,0-1.652.716,3.482,3.482,0,0,0-.826,2.008h4.764v-.123a3.1,3.1,0,0,0-.668-1.92A2.042,2.042,0,0,0,46.739,33.65Zm.791-5.133H49.5L47.144,31.1l-1.31,0Zm7.207,1.67v2.3h1.775v1.257H54.737v5.9a1.32,1.32,0,0,0,.237.858,1,1,0,0,0,.809.286,3.937,3.937,0,0,0,.773-.105V42a4.742,4.742,0,0,1-1.248.175,2.025,2.025,0,0,1-1.644-.659,2.832,2.832,0,0,1-.554-1.872v-5.9H51.38V32.49h1.731v-2.3ZM60.178,42H58.552V32.49h1.626ZM58.42,29.968a.971.971,0,0,1,.242-.668.907.907,0,0,1,.716-.272.922.922,0,0,1,.721.272.96.96,0,0,1,.246.668.929.929,0,0,1-.246.659.938.938,0,0,1-.721.264.924.924,0,0,1-.716-.264A.938.938,0,0,1,58.42,29.968Zm8.174,10.881a2.342,2.342,0,0,0,1.521-.527A1.855,1.855,0,0,0,68.835,39h1.538a2.949,2.949,0,0,1-.562,1.556,3.7,3.7,0,0,1-1.384,1.178,3.994,3.994,0,0,1-1.833.439,3.918,3.918,0,0,1-3.089-1.3,5.163,5.163,0,0,1-1.147-3.546v-.272a5.725,5.725,0,0,1,.51-2.47,3.883,3.883,0,0,1,1.463-1.679,4.157,4.157,0,0,1,2.254-.6,3.814,3.814,0,0,1,2.659.958,3.424,3.424,0,0,1,1.129,2.487H68.835a2.241,2.241,0,0,0-.7-1.516,2.174,2.174,0,0,0-1.551-.593,2.276,2.276,0,0,0-1.92.892,4.19,4.19,0,0,0-.681,2.58v.308a4.106,4.106,0,0,0,.677,2.531A2.287,2.287,0,0,0,66.594,40.849Zm5.177-3.691a5.617,5.617,0,0,1,.549-2.514,4.1,4.1,0,0,1,1.529-1.723,4.163,4.163,0,0,1,2.237-.606,4.01,4.01,0,0,1,3.142,1.345,5.174,5.174,0,0,1,1.2,3.577v.114a5.666,5.666,0,0,1-.532,2.492,4.038,4.038,0,0,1-1.521,1.718,4.211,4.211,0,0,1-2.272.615,4,4,0,0,1-3.133-1.345,5.147,5.147,0,0,1-1.2-3.56Zm1.635.193a4.068,4.068,0,0,0,.734,2.54,2.487,2.487,0,0,0,3.933-.013,4.449,4.449,0,0,0,.729-2.72,4.061,4.061,0,0,0-.743-2.536,2.361,2.361,0,0,0-1.973-.971,2.335,2.335,0,0,0-1.942.958A4.416,4.416,0,0,0,73.405,37.351Z" transform="translate(738.5 716.635)" fill="#12263f"/>
    <path id="Trazado_144287" data-name="Trazado 144287" d="M45.952,17h-1.7V11.085H37.8V17H36.117V4.2H37.8v5.5h6.451V4.2h1.7Zm8.613,0a3.416,3.416,0,0,1-.229-1,3.628,3.628,0,0,1-2.707,1.178,3.357,3.357,0,0,1-2.307-.8,2.573,2.573,0,0,1-.9-2.017,2.688,2.688,0,0,1,1.129-2.307,5.325,5.325,0,0,1,3.177-.822H54.31v-.747a1.826,1.826,0,0,0-.51-1.358,2.049,2.049,0,0,0-1.5-.505,2.371,2.371,0,0,0-1.459.439,1.3,1.3,0,0,0-.589,1.063H48.615a2.244,2.244,0,0,1,.505-1.375A3.449,3.449,0,0,1,50.491,7.7a4.613,4.613,0,0,1,1.9-.387,3.759,3.759,0,0,1,2.575.822,2.964,2.964,0,0,1,.967,2.263v4.377a5.351,5.351,0,0,0,.334,2.083V17Zm-2.7-1.239a2.858,2.858,0,0,0,1.45-.4,2.392,2.392,0,0,0,.993-1.028V12.386H53.036q-2.988,0-2.988,1.749a1.48,1.48,0,0,0,.51,1.2A1.959,1.959,0,0,0,51.867,15.761Zm14.669-3.41a5.654,5.654,0,0,1-1,3.5,3.2,3.2,0,0,1-2.689,1.323A3.315,3.315,0,0,1,60.058,15.9L59.979,17H58.485V3.5h1.626V8.536a3.3,3.3,0,0,1,2.716-1.222,3.221,3.221,0,0,1,2.72,1.31,5.824,5.824,0,0,1,.989,3.586Zm-1.626-.185A4.394,4.394,0,0,0,64.268,9.6a2.124,2.124,0,0,0-1.846-.905,2.387,2.387,0,0,0-2.312,1.494V14.3A2.454,2.454,0,0,0,62.44,15.8a2.112,2.112,0,0,0,1.819-.905A4.672,4.672,0,0,0,64.91,12.166ZM70.35,17H68.724V7.49H70.35ZM68.592,4.968a.971.971,0,0,1,.242-.668.907.907,0,0,1,.716-.272.922.922,0,0,1,.721.272.96.96,0,0,1,.246.668.929.929,0,0,1-.246.659.938.938,0,0,1-.721.264.924.924,0,0,1-.716-.264A.938.938,0,0,1,68.592,4.968ZM74.718,17H73.092V3.5h1.626Zm4.368,0H77.46V7.49h1.626ZM77.329,4.968A.971.971,0,0,1,77.57,4.3a.907.907,0,0,1,.716-.272.922.922,0,0,1,.721.272.96.96,0,0,1,.246.668.929.929,0,0,1-.246.659.938.938,0,0,1-.721.264.924.924,0,0,1-.716-.264A.938.938,0,0,1,77.329,4.968Zm3.964,7.2a5.571,5.571,0,0,1,1.037-3.52,3.529,3.529,0,0,1,5.361-.189V3.5h1.626V17H87.823l-.079-1.02a3.311,3.311,0,0,1-2.716,1.2,3.248,3.248,0,0,1-2.694-1.354,5.634,5.634,0,0,1-1.042-3.533Zm1.626.185a4.218,4.218,0,0,0,.668,2.531,2.159,2.159,0,0,0,1.846.914,2.372,2.372,0,0,0,2.259-1.389V10.039A2.39,2.39,0,0,0,85.45,8.694a2.17,2.17,0,0,0-1.863.923A4.644,4.644,0,0,0,82.918,12.351ZM97.71,17a3.416,3.416,0,0,1-.229-1,3.628,3.628,0,0,1-2.707,1.178,3.357,3.357,0,0,1-2.307-.8,2.573,2.573,0,0,1-.9-2.017A2.688,2.688,0,0,1,92.7,12.056a5.325,5.325,0,0,1,3.177-.822h1.582v-.747a1.826,1.826,0,0,0-.51-1.358,2.049,2.049,0,0,0-1.5-.505,2.371,2.371,0,0,0-1.459.439,1.3,1.3,0,0,0-.589,1.063H91.76a2.244,2.244,0,0,1,.505-1.375A3.449,3.449,0,0,1,93.637,7.7a4.613,4.613,0,0,1,1.9-.387,3.759,3.759,0,0,1,2.575.822,2.964,2.964,0,0,1,.967,2.263v4.377a5.351,5.351,0,0,0,.334,2.083V17Zm-2.7-1.239a2.858,2.858,0,0,0,1.45-.4,2.392,2.392,0,0,0,.993-1.028V12.386H96.181q-2.988,0-2.988,1.749a1.48,1.48,0,0,0,.51,1.2A1.959,1.959,0,0,0,95.012,15.761Zm6.223-3.595a5.571,5.571,0,0,1,1.037-3.52,3.529,3.529,0,0,1,5.361-.189V3.5h1.626V17h-1.494l-.079-1.02a3.311,3.311,0,0,1-2.716,1.2,3.248,3.248,0,0,1-2.694-1.354,5.634,5.634,0,0,1-1.042-3.533Zm1.626.185a4.218,4.218,0,0,0,.668,2.531,2.159,2.159,0,0,0,1.846.914,2.372,2.372,0,0,0,2.259-1.389V10.039a2.39,2.39,0,0,0-2.241-1.345,2.17,2.17,0,0,0-1.863.923A4.644,4.644,0,0,0,102.861,12.351Zm12.867,4.825a4.155,4.155,0,0,1-3.146-1.27,4.714,4.714,0,0,1-1.213-3.4v-.3a5.707,5.707,0,0,1,.541-2.527,4.217,4.217,0,0,1,1.512-1.74,3.8,3.8,0,0,1,2.1-.628,3.562,3.562,0,0,1,2.883,1.222,5.289,5.289,0,0,1,1.028,3.5v.677h-6.442a3.38,3.38,0,0,0,.822,2.272,2.583,2.583,0,0,0,2,.866,2.832,2.832,0,0,0,1.459-.352,3.666,3.666,0,0,0,1.046-.932l.993.773A3.993,3.993,0,0,1,115.728,17.176Zm-.2-8.525a2.169,2.169,0,0,0-1.652.716,3.482,3.482,0,0,0-.826,2.008h4.764v-.123a3.1,3.1,0,0,0-.668-1.92A2.042,2.042,0,0,0,115.526,8.65Zm11.329,5.827a1.2,1.2,0,0,0-.5-1.024,4.78,4.78,0,0,0-1.731-.628,8.186,8.186,0,0,1-1.96-.633,2.788,2.788,0,0,1-1.072-.879,2.1,2.1,0,0,1-.347-1.213,2.467,2.467,0,0,1,.989-1.978,3.861,3.861,0,0,1,2.527-.809,3.974,3.974,0,0,1,2.624.835,2.652,2.652,0,0,1,1.006,2.136h-1.635a1.468,1.468,0,0,0-.567-1.151,2.124,2.124,0,0,0-1.428-.483,2.223,2.223,0,0,0-1.389.387,1.217,1.217,0,0,0-.5,1.011.986.986,0,0,0,.466.888,5.731,5.731,0,0,0,1.683.571,8.77,8.77,0,0,1,1.973.65,2.878,2.878,0,0,1,1.121.91,2.237,2.237,0,0,1,.365,1.3,2.434,2.434,0,0,1-1.02,2.043,4.277,4.277,0,0,1-2.646.769,4.789,4.789,0,0,1-2.021-.4,3.288,3.288,0,0,1-1.375-1.129,2.722,2.722,0,0,1-.5-1.569h1.626a1.683,1.683,0,0,0,.655,1.3,2.54,2.54,0,0,0,1.613.479,2.622,2.622,0,0,0,1.481-.374A1.148,1.148,0,0,0,126.855,14.478ZM28.642,40.849a2.342,2.342,0,0,0,1.521-.527A1.855,1.855,0,0,0,30.883,39h1.538a2.949,2.949,0,0,1-.562,1.556,3.7,3.7,0,0,1-1.384,1.178,3.994,3.994,0,0,1-1.833.439,3.918,3.918,0,0,1-3.089-1.3,5.163,5.163,0,0,1-1.147-3.546v-.272a5.725,5.725,0,0,1,.51-2.47,3.883,3.883,0,0,1,1.463-1.679,4.157,4.157,0,0,1,2.254-.6,3.814,3.814,0,0,1,2.659.958,3.424,3.424,0,0,1,1.129,2.487H30.883a2.241,2.241,0,0,0-.7-1.516,2.174,2.174,0,0,0-1.551-.593,2.276,2.276,0,0,0-1.92.892,4.19,4.19,0,0,0-.681,2.58v.308a4.106,4.106,0,0,0,.677,2.531A2.287,2.287,0,0,0,28.642,40.849Zm5.177-3.691a5.617,5.617,0,0,1,.549-2.514A4.1,4.1,0,0,1,35.9,32.921a4.163,4.163,0,0,1,2.237-.606,4.01,4.01,0,0,1,3.142,1.345,5.174,5.174,0,0,1,1.2,3.577v.114a5.666,5.666,0,0,1-.532,2.492,4.038,4.038,0,0,1-1.521,1.718,4.211,4.211,0,0,1-2.272.615,4,4,0,0,1-3.133-1.345,5.147,5.147,0,0,1-1.2-3.56Zm1.635.193a4.068,4.068,0,0,0,.734,2.54,2.487,2.487,0,0,0,3.933-.013,4.449,4.449,0,0,0,.729-2.72,4.061,4.061,0,0,0-.743-2.536,2.361,2.361,0,0,0-1.973-.971,2.335,2.335,0,0,0-1.942.958A4.416,4.416,0,0,0,35.453,37.351Zm10.591-4.86.044,1.055a3.512,3.512,0,0,1,2.821-1.23,2.719,2.719,0,0,1,2.716,1.529,3.6,3.6,0,0,1,1.235-1.107,3.647,3.647,0,0,1,1.8-.422q3.129,0,3.182,3.313V42H56.213V35.725a2.184,2.184,0,0,0-.466-1.525,2.051,2.051,0,0,0-1.564-.505,2.156,2.156,0,0,0-1.5.541,2.193,2.193,0,0,0-.694,1.455V42H50.351V35.769a1.814,1.814,0,0,0-2.03-2.074,2.175,2.175,0,0,0-2.188,1.362V42H44.506V32.49ZM66.162,41.06a3.454,3.454,0,0,1-2.786,1.116,2.956,2.956,0,0,1-2.316-.883,3.823,3.823,0,0,1-.8-2.615V32.49h1.626v6.144q0,2.162,1.758,2.162a2.434,2.434,0,0,0,2.479-1.389V32.49h1.626V42H66.2Zm5.59-8.569.053,1.2a3.465,3.465,0,0,1,2.848-1.371q3.015,0,3.041,3.4V42H76.067V35.707a2.189,2.189,0,0,0-.47-1.521,1.884,1.884,0,0,0-1.437-.492,2.347,2.347,0,0,0-1.389.422,2.865,2.865,0,0,0-.932,1.107V42H70.214V32.49ZM81.912,42H80.286V32.49h1.626ZM80.154,29.968A.971.971,0,0,1,80.4,29.3a.907.907,0,0,1,.716-.272.922.922,0,0,1,.721.272.96.96,0,0,1,.246.668.929.929,0,0,1-.246.659.938.938,0,0,1-.721.264.924.924,0,0,1-.716-.264A.938.938,0,0,1,80.154,29.968Zm8.174,10.881a2.342,2.342,0,0,0,1.521-.527A1.855,1.855,0,0,0,90.569,39h1.538a2.949,2.949,0,0,1-.562,1.556,3.7,3.7,0,0,1-1.384,1.178,3.994,3.994,0,0,1-1.833.439,3.918,3.918,0,0,1-3.089-1.3,5.163,5.163,0,0,1-1.147-3.546v-.272a5.725,5.725,0,0,1,.51-2.47,3.883,3.883,0,0,1,1.463-1.679,4.157,4.157,0,0,1,2.254-.6,3.814,3.814,0,0,1,2.659.958,3.424,3.424,0,0,1,1.129,2.487H90.569a2.241,2.241,0,0,0-.7-1.516,2.174,2.174,0,0,0-1.551-.593,2.276,2.276,0,0,0-1.92.892,4.19,4.19,0,0,0-.681,2.58v.308a4.106,4.106,0,0,0,.677,2.531A2.287,2.287,0,0,0,88.328,40.849ZM99.807,42a3.416,3.416,0,0,1-.229-1,3.628,3.628,0,0,1-2.707,1.178,3.357,3.357,0,0,1-2.307-.8,2.573,2.573,0,0,1-.9-2.017,2.688,2.688,0,0,1,1.129-2.307,5.325,5.325,0,0,1,3.177-.822h1.582v-.747a1.826,1.826,0,0,0-.51-1.358,2.049,2.049,0,0,0-1.5-.505,2.371,2.371,0,0,0-1.459.439,1.3,1.3,0,0,0-.589,1.063H93.856a2.244,2.244,0,0,1,.505-1.375,3.449,3.449,0,0,1,1.371-1.05,4.613,4.613,0,0,1,1.9-.387,3.759,3.759,0,0,1,2.575.822,2.964,2.964,0,0,1,.967,2.263v4.377a5.351,5.351,0,0,0,.334,2.083V42Zm-2.7-1.239a2.858,2.858,0,0,0,1.45-.4,2.392,2.392,0,0,0,.993-1.028V37.386H98.277q-2.988,0-2.988,1.749a1.48,1.48,0,0,0,.51,1.2A1.959,1.959,0,0,0,97.108,40.761Zm8.824-10.573v2.3h1.775v1.257h-1.775v5.9a1.32,1.32,0,0,0,.237.858,1,1,0,0,0,.809.286,3.937,3.937,0,0,0,.773-.105V42a4.742,4.742,0,0,1-1.248.175,2.025,2.025,0,0,1-1.644-.659,2.832,2.832,0,0,1-.554-1.872v-5.9h-1.731V32.49h1.731v-2.3ZM111.373,42h-1.626V32.49h1.626Zm-1.758-12.032a.971.971,0,0,1,.242-.668.907.907,0,0,1,.716-.272.922.922,0,0,1,.721.272.96.96,0,0,1,.246.668.929.929,0,0,1-.246.659.938.938,0,0,1-.721.264.924.924,0,0,1-.716-.264A.938.938,0,0,1,109.615,29.968Zm7.5,9.826,2.355-7.3h1.661L117.719,42h-1.239l-3.445-9.51H114.7ZM128.433,42a3.416,3.416,0,0,1-.229-1,3.628,3.628,0,0,1-2.707,1.178,3.357,3.357,0,0,1-2.307-.8,2.573,2.573,0,0,1-.9-2.017,2.688,2.688,0,0,1,1.129-2.307,5.325,5.325,0,0,1,3.177-.822h1.582v-.747a1.826,1.826,0,0,0-.51-1.358,2.049,2.049,0,0,0-1.5-.505,2.371,2.371,0,0,0-1.459.439,1.3,1.3,0,0,0-.589,1.063h-1.635a2.244,2.244,0,0,1,.505-1.375,3.449,3.449,0,0,1,1.371-1.05,4.613,4.613,0,0,1,1.9-.387,3.759,3.759,0,0,1,2.575.822A2.964,2.964,0,0,1,129.8,35.4v4.377a5.351,5.351,0,0,0,.334,2.083V42Zm-2.7-1.239a2.858,2.858,0,0,0,1.45-.4,2.392,2.392,0,0,0,.993-1.028V37.386H126.9q-2.988,0-2.988,1.749a1.48,1.48,0,0,0,.51,1.2A1.959,1.959,0,0,0,125.734,40.761Zm12.155-1.283a1.2,1.2,0,0,0-.5-1.024,4.78,4.78,0,0,0-1.731-.628,8.186,8.186,0,0,1-1.96-.633,2.788,2.788,0,0,1-1.072-.879,2.1,2.1,0,0,1-.347-1.213,2.467,2.467,0,0,1,.989-1.978,3.861,3.861,0,0,1,2.527-.809,3.974,3.974,0,0,1,2.624.835,2.652,2.652,0,0,1,1.006,2.136h-1.635a1.468,1.468,0,0,0-.567-1.151,2.124,2.124,0,0,0-1.428-.483,2.223,2.223,0,0,0-1.389.387,1.217,1.217,0,0,0-.5,1.011.986.986,0,0,0,.466.888,5.731,5.731,0,0,0,1.683.571,8.77,8.77,0,0,1,1.973.65,2.878,2.878,0,0,1,1.121.91,2.237,2.237,0,0,1,.365,1.3,2.434,2.434,0,0,1-1.02,2.043,4.277,4.277,0,0,1-2.646.769,4.789,4.789,0,0,1-2.021-.4,3.288,3.288,0,0,1-1.375-1.129,2.722,2.722,0,0,1-.5-1.569h1.626a1.683,1.683,0,0,0,.655,1.3,2.54,2.54,0,0,0,1.613.479,2.622,2.622,0,0,0,1.481-.374A1.148,1.148,0,0,0,137.89,39.478Z" transform="translate(918 758.635)" fill="#12263f"/>
    <path id="Trazado_144288" data-name="Trazado 144288" d="M49.335,11.349h-5.37V17H42.278V4.2h7.928v1.38h-6.24V9.969h5.37ZM57.65,16.06a3.454,3.454,0,0,1-2.786,1.116,2.956,2.956,0,0,1-2.316-.883,3.823,3.823,0,0,1-.8-2.615V7.49H53.37v6.144q0,2.162,1.758,2.162a2.434,2.434,0,0,0,2.479-1.389V7.49h1.626V17H57.685ZM63.24,7.49l.053,1.2A3.465,3.465,0,0,1,66.14,7.314q3.015,0,3.041,3.4V17H67.555V10.707a2.189,2.189,0,0,0-.47-1.521,1.884,1.884,0,0,0-1.437-.492,2.347,2.347,0,0,0-1.389.422,2.865,2.865,0,0,0-.932,1.107V17H61.7V7.49Zm12.208,8.358a2.342,2.342,0,0,0,1.521-.527A1.855,1.855,0,0,0,77.689,14h1.538a2.949,2.949,0,0,1-.562,1.556,3.7,3.7,0,0,1-1.384,1.178,3.994,3.994,0,0,1-1.833.439,3.918,3.918,0,0,1-3.089-1.3,5.163,5.163,0,0,1-1.147-3.546v-.272a5.725,5.725,0,0,1,.51-2.47,3.883,3.883,0,0,1,1.463-1.679,4.157,4.157,0,0,1,2.254-.6,3.814,3.814,0,0,1,2.659.958,3.424,3.424,0,0,1,1.129,2.487H77.689a2.241,2.241,0,0,0-.7-1.516,2.174,2.174,0,0,0-1.551-.593,2.276,2.276,0,0,0-1.92.892,4.19,4.19,0,0,0-.681,2.58v.308a4.106,4.106,0,0,0,.677,2.531A2.287,2.287,0,0,0,75.448,15.849ZM82.822,17H81.2V7.49h1.626ZM81.064,4.968a.971.971,0,0,1,.242-.668.907.907,0,0,1,.716-.272.922.922,0,0,1,.721.272.96.96,0,0,1,.246.668.929.929,0,0,1-.246.659.938.938,0,0,1-.721.264.924.924,0,0,1-.716-.264A.938.938,0,0,1,81.064,4.968Zm3.929,7.189a5.617,5.617,0,0,1,.549-2.514,4.1,4.1,0,0,1,1.529-1.723,4.163,4.163,0,0,1,2.237-.606A4.01,4.01,0,0,1,92.45,8.659a5.174,5.174,0,0,1,1.2,3.577v.114a5.666,5.666,0,0,1-.532,2.492A4.038,4.038,0,0,1,91.6,16.561a4.211,4.211,0,0,1-2.272.615,4,4,0,0,1-3.133-1.345,5.147,5.147,0,0,1-1.2-3.56Zm1.635.193a4.068,4.068,0,0,0,.734,2.54,2.487,2.487,0,0,0,3.933-.013,4.449,4.449,0,0,0,.729-2.72,4.061,4.061,0,0,0-.743-2.536,2.361,2.361,0,0,0-1.973-.971,2.335,2.335,0,0,0-1.942.958A4.416,4.416,0,0,0,86.627,12.351Zm10.6-4.86.053,1.2a3.465,3.465,0,0,1,2.848-1.371q3.015,0,3.041,3.4V17h-1.626V10.707a2.189,2.189,0,0,0-.47-1.521,1.884,1.884,0,0,0-1.437-.492,2.347,2.347,0,0,0-1.389.422,2.865,2.865,0,0,0-.932,1.107V17H95.689V7.49Zm12.34,9.686a4.155,4.155,0,0,1-3.146-1.27,4.714,4.714,0,0,1-1.213-3.4v-.3a5.707,5.707,0,0,1,.541-2.527,4.217,4.217,0,0,1,1.512-1.74,3.8,3.8,0,0,1,2.1-.628,3.562,3.562,0,0,1,2.883,1.222,5.289,5.289,0,0,1,1.028,3.5v.677h-6.442a3.38,3.38,0,0,0,.822,2.272,2.583,2.583,0,0,0,2,.866,2.832,2.832,0,0,0,1.459-.352,3.666,3.666,0,0,0,1.046-.932l.993.773A3.993,3.993,0,0,1,109.567,17.176Zm-.2-8.525a2.169,2.169,0,0,0-1.652.716,3.482,3.482,0,0,0-.826,2.008h4.764v-.123a3.1,3.1,0,0,0-.668-1.92A2.042,2.042,0,0,0,109.365,8.65Zm11.329,5.827a1.2,1.2,0,0,0-.5-1.024,4.78,4.78,0,0,0-1.731-.628,8.186,8.186,0,0,1-1.96-.633,2.788,2.788,0,0,1-1.072-.879,2.1,2.1,0,0,1-.347-1.213,2.467,2.467,0,0,1,.989-1.978,3.861,3.861,0,0,1,2.527-.809,3.974,3.974,0,0,1,2.624.835,2.652,2.652,0,0,1,1.006,2.136H120.6a1.468,1.468,0,0,0-.567-1.151A2.124,2.124,0,0,0,118.6,8.65a2.223,2.223,0,0,0-1.389.387,1.217,1.217,0,0,0-.5,1.011.986.986,0,0,0,.466.888,5.731,5.731,0,0,0,1.683.571,8.77,8.77,0,0,1,1.973.65,2.878,2.878,0,0,1,1.121.91,2.237,2.237,0,0,1,.365,1.3,2.434,2.434,0,0,1-1.02,2.043,4.277,4.277,0,0,1-2.646.769,4.789,4.789,0,0,1-2.021-.4,3.288,3.288,0,0,1-1.375-1.129,2.722,2.722,0,0,1-.5-1.569h1.626a1.683,1.683,0,0,0,.655,1.3,2.54,2.54,0,0,0,1.613.479,2.622,2.622,0,0,0,1.481-.374A1.148,1.148,0,0,0,120.694,14.478ZM44.141,32.49l.044,1.055a3.512,3.512,0,0,1,2.821-1.23,2.719,2.719,0,0,1,2.716,1.529,3.6,3.6,0,0,1,1.235-1.107,3.647,3.647,0,0,1,1.8-.422q3.129,0,3.182,3.313V42H54.31V35.725a2.184,2.184,0,0,0-.466-1.525,2.051,2.051,0,0,0-1.564-.505,2.156,2.156,0,0,0-1.5.541,2.193,2.193,0,0,0-.694,1.455V42H48.448V35.769a1.814,1.814,0,0,0-2.03-2.074,2.175,2.175,0,0,0-2.188,1.362V42H42.6V32.49ZM64.259,41.06a3.454,3.454,0,0,1-2.786,1.116,2.956,2.956,0,0,1-2.316-.883,3.823,3.823,0,0,1-.8-2.615V32.49h1.626v6.144q0,2.162,1.758,2.162a2.434,2.434,0,0,0,2.479-1.389V32.49h1.626V42H64.294Zm5.818.94H68.452V28.5h1.626Zm4.808-11.812v2.3h1.775v1.257H74.885v5.9a1.32,1.32,0,0,0,.237.858,1,1,0,0,0,.809.286,3.937,3.937,0,0,0,.773-.105V42a4.742,4.742,0,0,1-1.248.175,2.025,2.025,0,0,1-1.644-.659,2.832,2.832,0,0,1-.554-1.872v-5.9H71.528V32.49h1.731v-2.3ZM80.326,42H78.7V32.49h1.626ZM78.568,29.968a.971.971,0,0,1,.242-.668.907.907,0,0,1,.716-.272.922.922,0,0,1,.721.272.96.96,0,0,1,.246.668.929.929,0,0,1-.246.659.938.938,0,0,1-.721.264.924.924,0,0,1-.716-.264A.938.938,0,0,1,78.568,29.968Zm6.565.22v2.3h1.775v1.257H85.133v5.9a1.32,1.32,0,0,0,.237.858,1,1,0,0,0,.809.286,3.937,3.937,0,0,0,.773-.105V42a4.742,4.742,0,0,1-1.248.175,2.025,2.025,0,0,1-1.644-.659,2.832,2.832,0,0,1-.554-1.872v-5.9H81.776V32.49h1.731v-2.3ZM94.678,42a3.416,3.416,0,0,1-.229-1,3.628,3.628,0,0,1-2.707,1.178,3.357,3.357,0,0,1-2.307-.8,2.573,2.573,0,0,1-.9-2.017,2.688,2.688,0,0,1,1.129-2.307,5.325,5.325,0,0,1,3.177-.822h1.582v-.747a1.826,1.826,0,0,0-.51-1.358,2.049,2.049,0,0,0-1.5-.505,2.371,2.371,0,0,0-1.459.439,1.3,1.3,0,0,0-.589,1.063H88.728a2.244,2.244,0,0,1,.505-1.375A3.449,3.449,0,0,1,90.6,32.7a4.613,4.613,0,0,1,1.9-.387,3.759,3.759,0,0,1,2.575.822,2.964,2.964,0,0,1,.967,2.263v4.377a5.351,5.351,0,0,0,.334,2.083V42Zm-2.7-1.239a2.858,2.858,0,0,0,1.45-.4,2.392,2.392,0,0,0,.993-1.028V37.386H93.149q-2.988,0-2.988,1.749a1.48,1.48,0,0,0,.51,1.2A1.959,1.959,0,0,0,91.98,40.761Zm11.215-6.812a4.873,4.873,0,0,0-.8-.062,2.143,2.143,0,0,0-2.171,1.362V42H98.6V32.49h1.582l.026,1.1a2.532,2.532,0,0,1,2.268-1.274,1.661,1.661,0,0,1,.721.123Zm5.273,8.227a4.155,4.155,0,0,1-3.146-1.27,4.714,4.714,0,0,1-1.213-3.4v-.3a5.707,5.707,0,0,1,.541-2.527,4.217,4.217,0,0,1,1.512-1.74,3.8,3.8,0,0,1,2.1-.628,3.562,3.562,0,0,1,2.883,1.222,5.289,5.289,0,0,1,1.028,3.5v.677h-6.442a3.38,3.38,0,0,0,.822,2.272,2.583,2.583,0,0,0,2,.866,2.832,2.832,0,0,0,1.459-.352,3.666,3.666,0,0,0,1.046-.932l.993.773A3.993,3.993,0,0,1,108.468,42.176Zm-.2-8.525a2.169,2.169,0,0,0-1.652.716,3.482,3.482,0,0,0-.826,2.008h4.764v-.123a3.1,3.1,0,0,0-.668-1.92A2.042,2.042,0,0,0,108.266,33.65ZM119.929,42a3.416,3.416,0,0,1-.229-1,3.628,3.628,0,0,1-2.707,1.178,3.357,3.357,0,0,1-2.307-.8,2.573,2.573,0,0,1-.9-2.017,2.688,2.688,0,0,1,1.129-2.307,5.325,5.325,0,0,1,3.177-.822h1.582v-.747a1.826,1.826,0,0,0-.51-1.358,2.049,2.049,0,0,0-1.5-.505,2.371,2.371,0,0,0-1.459.439,1.3,1.3,0,0,0-.589,1.063h-1.635a2.244,2.244,0,0,1,.505-1.375,3.449,3.449,0,0,1,1.371-1.05,4.613,4.613,0,0,1,1.9-.387,3.759,3.759,0,0,1,2.575.822A2.964,2.964,0,0,1,121.3,35.4v4.377a5.351,5.351,0,0,0,.334,2.083V42Zm-2.7-1.239a2.858,2.858,0,0,0,1.45-.4,2.392,2.392,0,0,0,.993-1.028V37.386H118.4q-2.988,0-2.988,1.749a1.48,1.48,0,0,0,.51,1.2A1.959,1.959,0,0,0,117.231,40.761Z" transform="translate(1038.229 928.27)" fill="#12263f"/>
    <circle id="Elipse_4810" data-name="Elipse 4810" cx="58.229" cy="58.229" r="58.229" transform="translate(321.28 856.906)" fill="#fcecdf"/>
    <circle id="Elipse_4811" data-name="Elipse 4811" cx="58.229" cy="58.229" r="58.229" transform="translate(488.209 634.906)" fill="#dad6f7"/>
    <circle id="Elipse_4812" data-name="Elipse 4812" cx="58.229" cy="58.229" r="58.229" transform="translate(741.771 547.906)" fill="#fcecdf"/>
    <circle id="Elipse_4813" data-name="Elipse 4813" cx="58.229" cy="58.229" r="58.229" transform="translate(1003.771 649.406)" fill="#dad6f7"/>
    <circle id="Elipse_4814" data-name="Elipse 4814" cx="58.229" cy="58.229" r="58.229" transform="translate(1179 855.543)" fill="#fcecdf"/>
    <path id="Trazado_144286" data-name="Trazado 144286" d="M18.24,17H15.172V11.656H10.628V17H7.543V4.2h3.085v5.08h4.544V4.2H18.24Zm7.172,0a3.344,3.344,0,0,1-.281-.853,2.754,2.754,0,0,1-2.285,1.028,3.374,3.374,0,0,1-2.285-.813,2.588,2.588,0,0,1-.94-2.043,2.66,2.66,0,0,1,1.143-2.338,5.821,5.821,0,0,1,3.322-.791H25v-.5q0-1.316-1.134-1.316a.927.927,0,0,0-1.055,1.042H19.848a2.655,2.655,0,0,1,1.173-2.239,4.931,4.931,0,0,1,2.993-.86,4.323,4.323,0,0,1,2.874.888,3.086,3.086,0,0,1,1.081,2.435v4.21a4.311,4.311,0,0,0,.4,2V17Zm-1.854-1.934a1.652,1.652,0,0,0,.918-.237A1.487,1.487,0,0,0,25,14.293V12.772h-.861q-1.547,0-1.547,1.389a.848.848,0,0,0,.272.655A.986.986,0,0,0,23.557,15.066Zm14.88-2.742a5.8,5.8,0,0,1-.967,3.595,3.238,3.238,0,0,1-2.725,1.257,2.81,2.81,0,0,1-2.338-1.151L32.285,17H29.63V3.5h2.962V8.255a2.711,2.711,0,0,1,2.136-.94A3.239,3.239,0,0,1,37.47,8.589a5.826,5.826,0,0,1,.967,3.586Zm-2.971-.189a3.866,3.866,0,0,0-.365-1.952A1.229,1.229,0,0,0,33.981,9.6a1.418,1.418,0,0,0-1.389.763v3.773A1.426,1.426,0,0,0,34,14.891a1.258,1.258,0,0,0,1.327-1.018A7.309,7.309,0,0,0,35.466,12.135ZM42.867,17H39.9V7.49h2.971ZM39.72,5.029a1.334,1.334,0,0,1,.457-1.043,1.934,1.934,0,0,1,2.373,0,1.334,1.334,0,0,1,.457,1.043,1.334,1.334,0,0,1-.457,1.043,1.934,1.934,0,0,1-2.373,0A1.334,1.334,0,0,1,39.72,5.029ZM47.815,17H44.844V3.5h2.971Zm4.948,0H49.792V7.49h2.971ZM49.617,5.029a1.334,1.334,0,0,1,.457-1.043,1.934,1.934,0,0,1,2.373,0A1.334,1.334,0,0,1,52.9,5.029a1.334,1.334,0,0,1-.457,1.043,1.934,1.934,0,0,1-2.373,0A1.334,1.334,0,0,1,49.617,5.029Zm4.6,7.146a5.809,5.809,0,0,1,.976-3.56,3.211,3.211,0,0,1,2.725-1.3,2.731,2.731,0,0,1,2.145,1V3.5h2.971V17H60.366l-.149-1.02a2.8,2.8,0,0,1-2.32,1.2,3.205,3.205,0,0,1-2.689-1.3A5.993,5.993,0,0,1,54.213,12.175Zm2.962.185q0,2.531,1.477,2.531a1.458,1.458,0,0,0,1.406-.826V10.443A1.419,1.419,0,0,0,58.669,9.6q-1.371,0-1.485,2.215ZM70.069,17a3.344,3.344,0,0,1-.281-.853A2.754,2.754,0,0,1,67.5,17.176a3.374,3.374,0,0,1-2.285-.813,2.588,2.588,0,0,1-.94-2.043,2.66,2.66,0,0,1,1.143-2.338,5.821,5.821,0,0,1,3.322-.791h.914v-.5q0-1.316-1.134-1.316a.927.927,0,0,0-1.055,1.042H64.505a2.655,2.655,0,0,1,1.173-2.239,4.931,4.931,0,0,1,2.993-.86,4.323,4.323,0,0,1,2.874.888,3.086,3.086,0,0,1,1.081,2.435v4.21a4.311,4.311,0,0,0,.4,2V17Zm-1.854-1.934a1.652,1.652,0,0,0,.918-.237,1.487,1.487,0,0,0,.523-.536V12.772h-.861q-1.547,0-1.547,1.389a.848.848,0,0,0,.272.655A.986.986,0,0,0,68.214,15.066Zm5.678-2.892a5.809,5.809,0,0,1,.976-3.56,3.211,3.211,0,0,1,2.725-1.3,2.731,2.731,0,0,1,2.145,1V3.5h2.971V17H80.044L79.9,15.98a2.8,2.8,0,0,1-2.32,1.2,3.205,3.205,0,0,1-2.689-1.3A5.993,5.993,0,0,1,73.892,12.175Zm2.962.185q0,2.531,1.477,2.531a1.458,1.458,0,0,0,1.406-.826V10.443A1.419,1.419,0,0,0,78.348,9.6q-1.371,0-1.485,2.215Zm12.138,4.816a4.889,4.889,0,0,1-3.542-1.305,4.507,4.507,0,0,1-1.354-3.4v-.246a5.84,5.84,0,0,1,.541-2.575,3.955,3.955,0,0,1,1.578-1.727,4.763,4.763,0,0,1,2.461-.611,4.117,4.117,0,0,1,3.164,1.244A4.887,4.887,0,0,1,93,12.025v1.151H87.111a2.135,2.135,0,0,0,.694,1.257,2.066,2.066,0,0,0,1.389.457,2.662,2.662,0,0,0,2.2-.984l1.354,1.6a3.784,3.784,0,0,1-1.569,1.217A5.3,5.3,0,0,1,88.992,17.176ZM88.658,9.6q-1.3,0-1.547,1.723H90.1v-.229a1.467,1.467,0,0,0-.36-1.1A1.434,1.434,0,0,0,88.658,9.6Zm10.512,4.729a.684.684,0,0,0-.4-.606,6.016,6.016,0,0,0-1.5-.475,6.853,6.853,0,0,1-1.828-.646,3.062,3.062,0,0,1-1.1-.971,2.319,2.319,0,0,1-.378-1.31,2.628,2.628,0,0,1,1.081-2.158,4.453,4.453,0,0,1,2.83-.848,4.934,4.934,0,0,1,3.023.853,2.666,2.666,0,0,1,1.143,2.241H99.073q0-1.143-1.2-1.143a1.194,1.194,0,0,0-.782.259.8.8,0,0,0-.316.646.737.737,0,0,0,.387.642,3.654,3.654,0,0,0,1.235.4,10.671,10.671,0,0,1,1.49.378,2.706,2.706,0,0,1,2.145,2.646,2.491,2.491,0,0,1-1.156,2.118,5.068,5.068,0,0,1-2.993.817,5.172,5.172,0,0,1-2.18-.439,3.645,3.645,0,0,1-1.494-1.2,2.707,2.707,0,0,1-.536-1.591h2.769a1.145,1.145,0,0,0,.439.962,1.808,1.808,0,0,0,1.081.3,1.422,1.422,0,0,0,.91-.246A.787.787,0,0,0,99.169,14.328Zm13.324,2.848a4.889,4.889,0,0,1-3.542-1.305,4.507,4.507,0,0,1-1.354-3.4v-.246a5.84,5.84,0,0,1,.541-2.575,3.955,3.955,0,0,1,1.578-1.727,4.763,4.763,0,0,1,2.461-.611,4.117,4.117,0,0,1,3.164,1.244,4.887,4.887,0,0,1,1.16,3.467v1.151h-5.889a2.135,2.135,0,0,0,.694,1.257,2.066,2.066,0,0,0,1.389.457,2.662,2.662,0,0,0,2.2-.984l1.354,1.6a3.784,3.784,0,0,1-1.569,1.217A5.3,5.3,0,0,1,112.494,17.176ZM112.16,9.6q-1.3,0-1.547,1.723H113.6v-.229a1.467,1.467,0,0,0-.36-1.1A1.434,1.434,0,0,0,112.16,9.6Zm10.512,4.729a.684.684,0,0,0-.4-.606,6.016,6.016,0,0,0-1.5-.475,6.853,6.853,0,0,1-1.828-.646,3.062,3.062,0,0,1-1.1-.971,2.319,2.319,0,0,1-.378-1.31,2.628,2.628,0,0,1,1.081-2.158,4.453,4.453,0,0,1,2.83-.848,4.934,4.934,0,0,1,3.023.853,2.666,2.666,0,0,1,1.143,2.241h-2.971q0-1.143-1.2-1.143a1.194,1.194,0,0,0-.782.259.8.8,0,0,0-.316.646.737.737,0,0,0,.387.642,3.654,3.654,0,0,0,1.235.4,10.671,10.671,0,0,1,1.49.378,2.706,2.706,0,0,1,2.145,2.646,2.491,2.491,0,0,1-1.156,2.118,5.068,5.068,0,0,1-2.993.817,5.172,5.172,0,0,1-2.18-.439,3.645,3.645,0,0,1-1.494-1.2,2.707,2.707,0,0,1-.536-1.591h2.769a1.145,1.145,0,0,0,.439.962,1.808,1.808,0,0,0,1.081.3,1.422,1.422,0,0,0,.91-.246A.787.787,0,0,0,122.671,14.328Zm13.069-2.013a5.735,5.735,0,0,1-1,3.538,3.2,3.2,0,0,1-2.694,1.323,2.742,2.742,0,0,1-2.153-.958v4.438h-2.962V7.49H129.7l.088.879a2.742,2.742,0,0,1,2.241-1.055,3.224,3.224,0,0,1,2.733,1.3,5.805,5.805,0,0,1,.976,3.564Zm-2.962-.185q0-2.531-1.477-2.531a1.394,1.394,0,0,0-1.406.756V14.1a1.439,1.439,0,0,0,1.424.791q1.415,0,1.459-2.443Zm8.868,5.045a4.889,4.889,0,0,1-3.542-1.305,4.507,4.507,0,0,1-1.354-3.4v-.246a5.84,5.84,0,0,1,.541-2.575,3.955,3.955,0,0,1,1.578-1.727,4.763,4.763,0,0,1,2.461-.611,4.117,4.117,0,0,1,3.164,1.244,4.887,4.887,0,0,1,1.16,3.467v1.151h-5.889a2.135,2.135,0,0,0,.694,1.257,2.066,2.066,0,0,0,1.389.457,2.662,2.662,0,0,0,2.2-.984l1.354,1.6a3.784,3.784,0,0,1-1.569,1.217A5.3,5.3,0,0,1,141.647,17.176ZM141.313,9.6q-1.3,0-1.547,1.723h2.988v-.229a1.467,1.467,0,0,0-.36-1.1A1.434,1.434,0,0,0,141.313,9.6Zm9.554,5.291a1.317,1.317,0,0,0,.967-.338,1.241,1.241,0,0,0,.334-.945h2.777a3.288,3.288,0,0,1-1.121,2.566,4.168,4.168,0,0,1-2.887,1,4.22,4.22,0,0,1-3.27-1.3,5.125,5.125,0,0,1-1.2-3.6v-.123A5.792,5.792,0,0,1,147,9.6a3.872,3.872,0,0,1,1.534-1.7,4.573,4.573,0,0,1,2.373-.593,4.116,4.116,0,0,1,2.944,1.028,3.647,3.647,0,0,1,1.09,2.786h-2.777a1.626,1.626,0,0,0-.36-1.134,1.244,1.244,0,0,0-.967-.4q-1.151,0-1.345,1.468a10.357,10.357,0,0,0-.062,1.283,4.068,4.068,0,0,0,.343,1.986A1.187,1.187,0,0,0,150.867,14.891ZM159.427,17h-2.979V7.49h2.979ZM158.32,3.676h3.129l-2.443,2.76-2.417,0ZM162.02,17V9.547h-1.38V7.49h1.38V7.174a3.631,3.631,0,0,1,1.248-2.909,4.987,4.987,0,0,1,3.243-.949,11.509,11.509,0,0,1,3.094.51l-.4,2.338-.492-.132a7.832,7.832,0,0,0-2.021-.255q-1.7,0-1.7,1.547V7.49h1.863V9.547h-1.863V17Zm8.947,0h-2.979V7.49h2.979Zm5.827-2.109a1.317,1.317,0,0,0,.967-.338,1.241,1.241,0,0,0,.334-.945h2.777a3.288,3.288,0,0,1-1.121,2.566,4.168,4.168,0,0,1-2.887,1,4.22,4.22,0,0,1-3.27-1.3,5.125,5.125,0,0,1-1.2-3.6v-.123a5.792,5.792,0,0,1,.532-2.544,3.872,3.872,0,0,1,1.534-1.7,4.573,4.573,0,0,1,2.373-.593,4.116,4.116,0,0,1,2.944,1.028,3.647,3.647,0,0,1,1.09,2.786H178.1a1.626,1.626,0,0,0-.36-1.134,1.244,1.244,0,0,0-.967-.4q-1.151,0-1.345,1.468a10.357,10.357,0,0,0-.062,1.283,4.068,4.068,0,0,0,.343,1.986A1.187,1.187,0,0,0,176.794,14.891ZM187.482,17a3.344,3.344,0,0,1-.281-.853,2.754,2.754,0,0,1-2.285,1.028,3.374,3.374,0,0,1-2.285-.813,2.588,2.588,0,0,1-.94-2.043,2.66,2.66,0,0,1,1.143-2.338,5.821,5.821,0,0,1,3.322-.791h.914v-.5q0-1.316-1.134-1.316a.927.927,0,0,0-1.055,1.042h-2.962a2.655,2.655,0,0,1,1.173-2.239,4.931,4.931,0,0,1,2.993-.86,4.323,4.323,0,0,1,2.874.888,3.086,3.086,0,0,1,1.081,2.435v4.21a4.311,4.311,0,0,0,.4,2V17Zm-1.854-1.934a1.652,1.652,0,0,0,.918-.237,1.487,1.487,0,0,0,.523-.536V12.772h-.861q-1.547,0-1.547,1.389a.848.848,0,0,0,.272.655A.986.986,0,0,0,185.627,15.066Zm11.03-.738a.684.684,0,0,0-.4-.606,6.016,6.016,0,0,0-1.5-.475,6.853,6.853,0,0,1-1.828-.646,3.062,3.062,0,0,1-1.1-.971,2.319,2.319,0,0,1-.378-1.31,2.628,2.628,0,0,1,1.081-2.158,4.453,4.453,0,0,1,2.83-.848,4.934,4.934,0,0,1,3.023.853,2.666,2.666,0,0,1,1.143,2.241h-2.971q0-1.143-1.2-1.143a1.194,1.194,0,0,0-.782.259.8.8,0,0,0-.316.646.737.737,0,0,0,.387.642,3.654,3.654,0,0,0,1.235.4,10.671,10.671,0,0,1,1.49.378,2.706,2.706,0,0,1,2.145,2.646,2.491,2.491,0,0,1-1.156,2.118,5.068,5.068,0,0,1-2.993.817,5.172,5.172,0,0,1-2.18-.439,3.645,3.645,0,0,1-1.494-1.2,2.707,2.707,0,0,1-.536-1.591h2.769a1.145,1.145,0,0,0,.439.962,1.808,1.808,0,0,0,1.081.3,1.422,1.422,0,0,0,.91-.246A.787.787,0,0,0,196.658,14.328Zm8.35-2.153a5.809,5.809,0,0,1,.976-3.56,3.211,3.211,0,0,1,2.725-1.3,2.731,2.731,0,0,1,2.145,1V3.5h2.971V17H211.16l-.149-1.02a2.8,2.8,0,0,1-2.32,1.2,3.205,3.205,0,0,1-2.689-1.3A5.993,5.993,0,0,1,205.007,12.175Zm2.962.185q0,2.531,1.477,2.531a1.458,1.458,0,0,0,1.406-.826V10.443a1.419,1.419,0,0,0-1.389-.844q-1.371,0-1.485,2.215Zm12.138,4.816a4.889,4.889,0,0,1-3.542-1.305,4.507,4.507,0,0,1-1.354-3.4v-.246a5.84,5.84,0,0,1,.541-2.575,3.955,3.955,0,0,1,1.578-1.727,4.763,4.763,0,0,1,2.461-.611,4.117,4.117,0,0,1,3.164,1.244,4.887,4.887,0,0,1,1.16,3.467v1.151h-5.889a2.135,2.135,0,0,0,.694,1.257,2.066,2.066,0,0,0,1.389.457,2.662,2.662,0,0,0,2.2-.984l1.354,1.6a3.784,3.784,0,0,1-1.569,1.217A5.3,5.3,0,0,1,220.107,17.176ZM219.773,9.6q-1.3,0-1.547,1.723h2.988v-.229a1.467,1.467,0,0,0-.36-1.1A1.434,1.434,0,0,0,219.773,9.6ZM228.43,17h-2.971V3.5h2.971ZM58.9,30.126V32.49h1.564v2.057H58.9V38.9a1.111,1.111,0,0,0,.193.747,1.037,1.037,0,0,0,.765.211,4.345,4.345,0,0,0,.738-.053v2.118a5.466,5.466,0,0,1-1.67.255,3.1,3.1,0,0,1-2.259-.721,2.954,2.954,0,0,1-.729-2.188v-4.72H54.723V32.49h1.213V30.126ZM66.984,42a3.344,3.344,0,0,1-.281-.853,2.754,2.754,0,0,1-2.285,1.028,3.374,3.374,0,0,1-2.285-.813,2.588,2.588,0,0,1-.94-2.043,2.66,2.66,0,0,1,1.143-2.338,5.821,5.821,0,0,1,3.322-.791h.914v-.5q0-1.316-1.134-1.316a.927.927,0,0,0-1.055,1.042H61.42a2.655,2.655,0,0,1,1.173-2.239,4.931,4.931,0,0,1,2.993-.86,4.323,4.323,0,0,1,2.874.888,3.086,3.086,0,0,1,1.081,2.435v4.21a4.311,4.311,0,0,0,.4,2V42Zm-1.854-1.934a1.652,1.652,0,0,0,.918-.237,1.487,1.487,0,0,0,.523-.536V37.772h-.861q-1.547,0-1.547,1.389a.848.848,0,0,0,.272.655A.986.986,0,0,0,65.129,40.066ZM74.305,42H71.334V28.5h2.971Zm6.425.176a4.889,4.889,0,0,1-3.542-1.305,4.507,4.507,0,0,1-1.354-3.4v-.246a5.84,5.84,0,0,1,.541-2.575,3.955,3.955,0,0,1,1.578-1.727,4.763,4.763,0,0,1,2.461-.611,4.117,4.117,0,0,1,3.164,1.244,4.887,4.887,0,0,1,1.16,3.467v1.151H78.849a2.135,2.135,0,0,0,.694,1.257,2.066,2.066,0,0,0,1.389.457,2.662,2.662,0,0,0,2.2-.984l1.354,1.6a3.784,3.784,0,0,1-1.569,1.217A5.3,5.3,0,0,1,80.73,42.176ZM80.4,34.6q-1.3,0-1.547,1.723h2.988v-.229a1.467,1.467,0,0,0-.36-1.1A1.434,1.434,0,0,0,80.4,34.6Zm8.253-2.109.1,1.116a3.225,3.225,0,0,1,2.716-1.292,2.713,2.713,0,0,1,2.219.888,4.226,4.226,0,0,1,.76,2.672V42H91.47V36a1.6,1.6,0,0,0-.29-1.059,1.342,1.342,0,0,0-1.055-.338,1.413,1.413,0,0,0-1.292.686V42H85.872V32.49ZM99.53,30.126V32.49h1.564v2.057H99.53V38.9a1.111,1.111,0,0,0,.193.747,1.037,1.037,0,0,0,.765.211,4.345,4.345,0,0,0,.738-.053v2.118a5.466,5.466,0,0,1-1.67.255,3.1,3.1,0,0,1-2.259-.721,2.954,2.954,0,0,1-.729-2.188v-4.72H95.355V32.49h1.213V30.126Zm2.092,7.031a5.613,5.613,0,0,1,.554-2.536,3.96,3.96,0,0,1,1.591-1.709,4.791,4.791,0,0,1,2.435-.6,4.373,4.373,0,0,1,3.366,1.323,5.076,5.076,0,0,1,1.23,3.6v.105a4.925,4.925,0,0,1-1.235,3.529,4.384,4.384,0,0,1-3.344,1.305,4.434,4.434,0,0,1-3.261-1.217,4.761,4.761,0,0,1-1.327-3.3Zm2.962.185A3.538,3.538,0,0,0,105,39.275a1.376,1.376,0,0,0,1.222.615q1.582,0,1.617-2.435v-.3q0-2.558-1.635-2.558-1.485,0-1.608,2.206Zm14.9-3.832a3.251,3.251,0,0,1,4.8-.264A4.186,4.186,0,0,1,125.1,36v6h-2.971V36.067a1.674,1.674,0,0,0-.308-1.112,1.322,1.322,0,0,0-1.046-.356,1.424,1.424,0,0,0-1.292.58V42h-2.962V28.5h2.962Zm12.929,7.462a3.054,3.054,0,0,1-2.54,1.2,3,3,0,0,1-2.369-.91,3.826,3.826,0,0,1-.8-2.615V32.49h2.962v6.179a1.065,1.065,0,0,0,1.187,1.222,1.548,1.548,0,0,0,1.45-.729V32.49h2.979V42H132.5ZM139.7,32.49l.1,1.116a3.27,3.27,0,0,1,2.716-1.292,2.407,2.407,0,0,1,2.435,1.433,3.165,3.165,0,0,1,2.795-1.433q2.892,0,2.971,3.5V42h-2.971V36a1.813,1.813,0,0,0-.246-1.063,1.048,1.048,0,0,0-.9-.334,1.4,1.4,0,0,0-1.31.782l.009.123V42h-2.971V36.015a1.906,1.906,0,0,0-.237-1.081,1.045,1.045,0,0,0-.905-.334,1.42,1.42,0,0,0-1.3.782V42h-2.962V32.49ZM157.757,42a3.344,3.344,0,0,1-.281-.853,2.754,2.754,0,0,1-2.285,1.028,3.374,3.374,0,0,1-2.285-.813,2.588,2.588,0,0,1-.94-2.043,2.66,2.66,0,0,1,1.143-2.338,5.821,5.821,0,0,1,3.322-.791h.914v-.5q0-1.316-1.134-1.316a.927.927,0,0,0-1.055,1.042h-2.962a2.655,2.655,0,0,1,1.173-2.239,4.931,4.931,0,0,1,2.993-.86,4.323,4.323,0,0,1,2.874.888,3.086,3.086,0,0,1,1.081,2.435v4.21a4.311,4.311,0,0,0,.4,2V42ZM155.9,40.066a1.652,1.652,0,0,0,.918-.237,1.487,1.487,0,0,0,.523-.536V37.772h-.861q-1.547,0-1.547,1.389a.848.848,0,0,0,.272.655A.986.986,0,0,0,155.9,40.066Zm8.771-7.576.1,1.116a3.225,3.225,0,0,1,2.716-1.292,2.713,2.713,0,0,1,2.219.888,4.226,4.226,0,0,1,.76,2.672V42H167.5V36a1.6,1.6,0,0,0-.29-1.059,1.342,1.342,0,0,0-1.055-.338,1.413,1.413,0,0,0-1.292.686V42H161.9V32.49Zm7.058,4.667a5.613,5.613,0,0,1,.554-2.536,3.96,3.96,0,0,1,1.591-1.709,4.791,4.791,0,0,1,2.435-.6,4.373,4.373,0,0,1,3.366,1.323,5.076,5.076,0,0,1,1.23,3.6v.105a4.925,4.925,0,0,1-1.235,3.529,4.384,4.384,0,0,1-3.344,1.305,4.434,4.434,0,0,1-3.261-1.217,4.761,4.761,0,0,1-1.327-3.3Zm2.962.185a3.538,3.538,0,0,0,.413,1.934,1.376,1.376,0,0,0,1.222.615q1.582,0,1.617-2.435v-.3q0-2.558-1.635-2.558-1.485,0-1.608,2.206Z" transform="translate(682 895.635)" fill="#12263f"/>
    <g id="Grupo_87935" data-name="Grupo 87935" transform="translate(-642.791 -144.816)">
      <path id="Trazado_102604" data-name="Trazado 102604" d="M1244.474,1041.459c-4.851,0-8.51-3.949-8.51-9.187,0-5.285,4.241-8.05,8.43-8.05a9.145,9.145,0,0,1,5.816,1.989,7.679,7.679,0,0,1,2.774,6.061C1252.983,1037.51,1249.325,1041.459,1244.474,1041.459Zm-.08-14.009c-2.589,0-5.2,1.491-5.2,4.823,0,3.453,2.221,5.959,5.282,5.959s5.282-2.506,5.282-5.959a4.393,4.393,0,0,0-1.6-3.568A6,6,0,0,0,1244.394,1027.45Z" transform="translate(-193.866)" fill="#ef6c00"/>
      <path id="Trazado_102605" data-name="Trazado 102605" d="M1234.35,1123.3H1206a1.614,1.614,0,0,1-1.614-1.614v-7.906a8.6,8.6,0,0,1,8.586-8.586h14.408a8.6,8.6,0,0,1,8.586,8.586v7.906A1.614,1.614,0,0,1,1234.35,1123.3Zm-26.739-3.228h25.125v-6.293a5.364,5.364,0,0,0-5.358-5.358H1212.97a5.364,5.364,0,0,0-5.358,5.358Z" transform="translate(-169.567 -62.302)" fill="#ef6c00"/>
      <path id="Trazado_102606" data-name="Trazado 102606" d="M1298.469,1145.121a1.614,1.614,0,0,1-1.614-1.614v-8.339a1.614,1.614,0,0,1,3.228,0v8.339A1.614,1.614,0,0,1,1298.469,1145.121Z" transform="translate(-240.719 -84.126)" fill="#ef6c00"/>
      <path id="Trazado_102607" data-name="Trazado 102607" d="M1236.5,1145.121a1.614,1.614,0,0,1-1.614-1.614v-8.339a1.614,1.614,0,0,1,3.228,0v8.339A1.614,1.614,0,0,1,1236.5,1145.121Z" transform="translate(-193.039 -84.126)" fill="#ef6c00"/>
      <path id="Trazado_102608" data-name="Trazado 102608" d="M1024.1,1041.459c-4.852,0-8.51-3.949-8.51-9.187,0-5.285,4.241-8.05,8.429-8.05a9.145,9.145,0,0,1,5.816,1.989,7.679,7.679,0,0,1,2.774,6.061C1032.61,1037.51,1028.951,1041.459,1024.1,1041.459Zm-.08-14.009c-2.589,0-5.2,1.491-5.2,4.823,0,3.453,2.222,5.959,5.282,5.959s5.282-2.506,5.282-5.959a4.393,4.393,0,0,0-1.6-3.568A6,6,0,0,0,1024.02,1027.45Z" transform="translate(-24.299)" fill="#ef6c00"/>
      <path id="Trazado_102609" data-name="Trazado 102609" d="M1013.976,1123.3H985.624a1.614,1.614,0,0,1-1.614-1.614v-7.906a8.6,8.6,0,0,1,8.586-8.586H1007a8.6,8.6,0,0,1,8.586,8.586v7.906A1.614,1.614,0,0,1,1013.976,1123.3Zm-26.739-3.228h25.125v-6.293a5.364,5.364,0,0,0-5.358-5.358H992.6a5.364,5.364,0,0,0-5.358,5.358Z" transform="translate(0 -62.302)" fill="#ef6c00"/>
      <path id="Trazado_102610" data-name="Trazado 102610" d="M1078.1,1145.121a1.614,1.614,0,0,1-1.614-1.614v-8.339a1.614,1.614,0,0,1,3.228,0v8.339A1.614,1.614,0,0,1,1078.1,1145.121Z" transform="translate(-71.153 -84.126)" fill="#ef6c00"/>
      <path id="Trazado_102611" data-name="Trazado 102611" d="M1016.129,1145.121a1.614,1.614,0,0,1-1.614-1.614v-8.339a1.614,1.614,0,0,1,3.228,0v8.339A1.614,1.614,0,0,1,1016.129,1145.121Z" transform="translate(-23.472 -84.126)" fill="#ef6c00"/>
      <path id="Trazado_102612" data-name="Trazado 102612" d="M1134.053,1235.277c-4.851,0-8.51-3.949-8.51-9.186,0-5.285,4.241-8.05,8.43-8.05a9.145,9.145,0,0,1,5.816,1.989,7.679,7.679,0,0,1,2.774,6.061C1142.563,1231.327,1138.9,1235.277,1134.053,1235.277Zm-.08-14.009c-2.59,0-5.2,1.491-5.2,4.823,0,3.453,2.221,5.959,5.282,5.959s5.282-2.506,5.282-5.959a4.393,4.393,0,0,0-1.6-3.568A6,6,0,0,0,1133.974,1221.268Z" transform="translate(-108.904 -149.134)" fill="#ef6c00"/>
      <path id="Trazado_102613" data-name="Trazado 102613" d="M1123.93,1317.114h-28.353a1.614,1.614,0,0,1-1.614-1.614v-7.906a8.6,8.6,0,0,1,8.586-8.586h14.408a8.6,8.6,0,0,1,8.586,8.586v7.906A1.614,1.614,0,0,1,1123.93,1317.114Zm-26.739-3.228h25.125v-6.293a5.364,5.364,0,0,0-5.358-5.358H1102.55a5.364,5.364,0,0,0-5.358,5.358Z" transform="translate(-84.604 -211.435)" fill="#ef6c00"/>
      <path id="Trazado_102614" data-name="Trazado 102614" d="M1188.05,1338.938a1.613,1.613,0,0,1-1.614-1.614v-8.339a1.614,1.614,0,0,1,3.228,0v8.339A1.613,1.613,0,0,1,1188.05,1338.938Z" transform="translate(-155.757 -233.259)" fill="#ef6c00"/>
      <path id="Trazado_102615" data-name="Trazado 102615" d="M1126.082,1338.938a1.613,1.613,0,0,1-1.614-1.614v-8.339a1.614,1.614,0,0,1,3.228,0v8.339A1.613,1.613,0,0,1,1126.082,1338.938Z" transform="translate(-108.076 -233.259)" fill="#ef6c00"/>
      <path id="Trazado_102616" data-name="Trazado 102616" d="M1119.582,1059.667a1.614,1.614,0,0,1-.489-3.152,30.028,30.028,0,0,1,16.8-.391,1.614,1.614,0,0,1-.834,3.118,26.8,26.8,0,0,0-14.988.348A1.617,1.617,0,0,1,1119.582,1059.667Z" transform="translate(-103.074 -23.768)" fill="#ef6c00"/>
      <path id="Trazado_102617" data-name="Trazado 102617" d="M1161.234,1046.564a1.614,1.614,0,0,1-.8-3.017l5.686-3.229-4.677-4.559a1.614,1.614,0,1,1,2.253-2.311l6.214,6.058a1.614,1.614,0,0,1-.33,2.559l-7.553,4.289A1.6,1.6,0,0,1,1161.234,1046.564Z" transform="translate(-135.122 -6.746)" fill="#ef6c00"/>
      <path id="Trazado_102618" data-name="Trazado 102618" d="M1244.375,1221.23a1.614,1.614,0,0,1-1.141-2.755,26.8,26.8,0,0,0,7.193-13.154,1.614,1.614,0,1,1,3.153.69,30.02,30.02,0,0,1-8.063,14.746A1.608,1.608,0,0,1,1244.375,1221.23Z" transform="translate(-199.096 -138.37)" fill="#ef6c00"/>
      <path id="Trazado_102619" data-name="Trazado 102619" d="M1241.642,1243.535a1.613,1.613,0,0,1-1.614-1.625l.062-8.686a1.614,1.614,0,0,1,1.614-1.6h.012a1.614,1.614,0,0,1,1.6,1.625l-.047,6.539,6.287-1.771a1.614,1.614,0,0,1,.875,3.107l-8.353,2.353A1.622,1.622,0,0,1,1241.642,1243.535Z" transform="translate(-196.993 -159.584)" fill="#ef6c00"/>
      <path id="Trazado_102620" data-name="Trazado 102620" d="M1046.925,1227.085a1.606,1.606,0,0,1-1.086-.421,30.025,30.025,0,0,1-8.739-14.355,1.614,1.614,0,0,1,3.117-.837,26.8,26.8,0,0,0,7.8,12.806,1.614,1.614,0,0,1-1.088,2.807Z" transform="translate(-40.807 -143.159)" fill="#ef6c00"/>
      <path id="Trazado_102621" data-name="Trazado 102621" d="M1026.648,1217.183a1.616,1.616,0,0,1-1.565-2.012l2.139-8.411a1.614,1.614,0,0,1,2.381-.994l7.49,4.4a1.614,1.614,0,1,1-1.634,2.784l-5.639-3.31-1.61,6.33A1.614,1.614,0,0,1,1026.648,1217.183Z" transform="translate(-31.565 -139.519)" fill="#ef6c00"/>
    </g>
    <g id="Grupo_87936" data-name="Grupo 87936" transform="translate(-2197.091 -875.345)">
      <path id="Trazado_102622" data-name="Trazado 102622" d="M2748.836,1792.167h-41.888a1.857,1.857,0,1,1,0-3.713h41.888a1.857,1.857,0,0,1,0,3.713Z" transform="translate(0 -193.592)" fill="#3e2ea6"/>
      <path id="Trazado_102623" data-name="Trazado 102623" d="M2731.732,1689.415a1.857,1.857,0,0,1-1.856-1.857v-34.535H2719.5v34.535a1.857,1.857,0,0,1-3.713,0v-36.392a1.857,1.857,0,0,1,1.857-1.857h14.091a1.857,1.857,0,0,1,1.857,1.857v36.392A1.857,1.857,0,0,1,2731.732,1689.415Z" transform="translate(-7.857 -91.354)" fill="#3e2ea6"/>
      <path id="Trazado_102624" data-name="Trazado 102624" d="M2816.137,1645.7a1.857,1.857,0,0,1-1.857-1.857v-50.317H2803.9v50.317a1.857,1.857,0,1,1-3.713,0v-52.174a1.857,1.857,0,0,1,1.857-1.857h14.091a1.856,1.856,0,0,1,1.856,1.857v52.174A1.856,1.856,0,0,1,2816.137,1645.7Z" transform="translate(-69.876 -47.634)" fill="#3e2ea6"/>
      <path id="Trazado_102625" data-name="Trazado 102625" d="M2886.453,1573.469a1.856,1.856,0,0,1-1.857-1.857v-44.775a1.857,1.857,0,0,1,1.857-1.857h14.091a1.857,1.857,0,0,1,1.857,1.857v37.913a1.857,1.857,0,0,1-3.713,0v-36.056h-10.377v42.919A1.857,1.857,0,0,1,2886.453,1573.469Z" transform="translate(-131.894 0)" fill="#3e2ea6"/>
      <path id="Trazado_102626" data-name="Trazado 102626" d="M2883.308,1719.553a24.084,24.084,0,1,1,24.084-24.084A24.111,24.111,0,0,1,2883.308,1719.553Zm0-44.455a20.371,20.371,0,1,0,20.371,20.371A20.394,20.394,0,0,0,2883.308,1675.1Z" transform="translate(-113.252 -107.573)" fill="#3e2ea6"/>
      <path id="Trazado_102627" data-name="Trazado 102627" d="M2907.6,1740.86a1.857,1.857,0,0,1-1.28-3.2c.755-.717,2.82-2.9,5.211-5.428,9.65-10.2,12.459-12.968,13.665-13.465a1.857,1.857,0,0,1,1.507,3.393c-1.349.866-8.579,8.507-12.474,12.625-2.527,2.672-4.524,4.782-5.35,5.567A1.851,1.851,0,0,1,2907.6,1740.86Zm19.072-18.689-.06.026Z" transform="translate(-147.434 -142.283)" fill="#3e2ea6"/>
      <path id="Trazado_102628" data-name="Trazado 102628" d="M2932.948,1738.1a1.856,1.856,0,0,1-1.856-1.857v-13.907h-13.907a1.857,1.857,0,0,1,0-3.713h15.764a1.856,1.856,0,0,1,1.857,1.857v15.764A1.857,1.857,0,0,1,2932.948,1738.1Z" transform="translate(-154.475 -142.284)" fill="#3e2ea6"/>
    </g>
    <g id="Grupo_87937" data-name="Grupo 87937" transform="translate(-1088.89 -962.247)">
      <path id="Trazado_102629" data-name="Trazado 102629" d="M1994.521,1815.336a1.662,1.662,0,0,1-.268-.022,1.64,1.64,0,0,1-1.353-1.884l2.61-15.917a1.64,1.64,0,0,1,3.237.531l-2.61,15.916A1.64,1.64,0,0,1,1994.521,1815.336Z" transform="translate(-111.02 -205.893)" fill="#ef6c00"/>
      <path id="Trazado_102630" data-name="Trazado 102630" d="M2002.044,1795.677h-.063l-4.322-.163a1.64,1.64,0,1,1,.124-3.278l4.322.163a1.64,1.64,0,0,1-.061,3.279Z" transform="translate(-113.471 -202.903)" fill="#ef6c00"/>
      <path id="Trazado_102631" data-name="Trazado 102631" d="M1993.823,1780.608a1.641,1.641,0,0,1-1.585-1.226l-1.192-4.56a1.64,1.64,0,0,1,3.173-.83l1.192,4.56a1.641,1.641,0,0,1-1.588,2.055Z" transform="translate(-109.575 -187.997)" fill="#ef6c00"/>
      <path id="Trazado_102632" data-name="Trazado 102632" d="M1926.877,1767.316H1850.9a1.64,1.64,0,0,1-1.635-1.512l-1.374-17.6c0-.043,0-.085,0-.128V1746.3a7.525,7.525,0,0,1,3.069-5.967,13.482,13.482,0,0,1,5.7-2.555c.568-.113,1.306-.24,2.161-.386,3.554-.609,10.169-1.743,12.958-3.647a1.645,1.645,0,0,1,.68-.267l.229-.034a1.64,1.64,0,0,1,.626,3.217c-3.458,2.17-9.739,3.246-13.938,3.965-.832.142-1.55.265-2.073.37-2.275.454-6.126,2.083-6.126,5.306v1.713l1.251,16.02h74.456a1.64,1.64,0,0,1,0,3.28Z" transform="translate(0 -157.873)" fill="#ef6c00"/>
      <path id="Trazado_102633" data-name="Trazado 102633" d="M1947.094,1600.762a1.64,1.64,0,0,1-1.308-.651l-21.181-28a1.64,1.64,0,0,1,1.308-2.629h42.317a1.64,1.64,0,0,1,1.309,2.628l-21.137,28a1.64,1.64,0,0,1-1.308.652Zm-17.884-28,17.883,23.644,17.845-23.644Z" transform="translate(-58.488 -32.336)" fill="#ef6c00"/>
      <path id="Trazado_102634" data-name="Trazado 102634" d="M1993.792,1599.919h-.1a1.64,1.64,0,0,1-1.594-1.366l-.439-2.589-6.365-24.041a1.64,1.64,0,0,1,3.171-.84l5.311,20.059,5.562-20.205a1.64,1.64,0,1,1,3.162.87l-6.652,24.166-.438,2.581a1.639,1.639,0,0,1-1.594,1.366Z" transform="translate(-105.169 -32.53)" fill="#ef6c00"/>
      <path id="Trazado_102635" data-name="Trazado 102635" d="M1968.238,1540.071a1.641,1.641,0,0,1-1.511-1l-3.615-8.541h-31.475l-4.252,8.626a1.64,1.64,0,0,1-2.942-1.45l4.7-9.541a1.639,1.639,0,0,1,1.471-.915H1964.2a1.64,1.64,0,0,1,1.51,1l4.039,9.542a1.641,1.641,0,0,1-1.51,2.28Z" transform="translate(-58.487 -0.001)" fill="#ef6c00"/>
      <path id="Trazado_102636" data-name="Trazado 102636" d="M1963.356,1540.311h-.13a1.64,1.64,0,0,1-1.434-.946l-.384-.824-6.291-8.639a1.64,1.64,0,1,1,2.651-1.931l5.565,7.643,5.841-7.715a1.64,1.64,0,0,1,2.615,1.98l-6.569,8.676-.377.811a1.64,1.64,0,0,1-1.434.946Z" transform="translate(-81.864)" fill="#ef6c00"/>
      <path id="Trazado_102637" data-name="Trazado 102637" d="M2023.024,1540.312h-.13a1.64,1.64,0,0,1-1.434-.946l-.384-.824-6.291-8.639a1.64,1.64,0,1,1,2.651-1.931l5.566,7.643,5.84-7.715a1.64,1.64,0,1,1,2.615,1.98l-6.569,8.676-.378.81a1.64,1.64,0,0,1-1.434.946Z" transform="translate(-127.552 0)" fill="#ef6c00"/>
      <path id="Trazado_102638" data-name="Trazado 102638" d="M1954.706,1727.14a1.681,1.681,0,0,1-.268-.022,1.64,1.64,0,0,1-1.2-.892l-6.29-12.74a1.64,1.64,0,0,1,.172-1.728l5.3-6.87a1.64,1.64,0,0,1,2.456-.159l10.319,10.291a1.64,1.64,0,0,1,0,2.322l-9.335,9.319A1.64,1.64,0,0,1,1954.706,1727.14Zm-4.366-14.188,4.825,9.773,6.554-6.543-7.837-7.816Z" transform="translate(-75.718 -135.533)" fill="#ef6c00"/>
      <path id="Trazado_102639" data-name="Trazado 102639" d="M2107.691,1764.649q-.075,0-.152-.007a1.64,1.64,0,0,1-1.483-1.783l1.367-14.852v-1.7c0-3.222-3.851-4.851-6.126-5.306-.523-.1-1.241-.228-2.073-.37-4.2-.72-10.48-1.8-13.938-3.965a1.64,1.64,0,0,1,.626-3.217l.229.035a1.644,1.644,0,0,1,.68.267c2.789,1.9,9.4,3.038,12.958,3.647.855.146,1.594.273,2.161.386,4.362.871,8.764,3.844,8.764,8.522v1.777c0,.05,0,.1-.007.151l-1.374,14.927A1.64,1.64,0,0,1,2107.691,1764.649Z" transform="translate(-180.813 -157.875)" fill="#ef6c00"/>
      <path id="Trazado_102640" data-name="Trazado 102640" d="M2032.519,1815.337a1.641,1.641,0,0,1-1.607-1.325l-3.122-15.917a1.64,1.64,0,0,1,3.219-.632l3.122,15.917a1.64,1.64,0,0,1-1.294,1.925A1.666,1.666,0,0,1,2032.519,1815.337Z" transform="translate(-137.727 -205.894)" fill="#ef6c00"/>
      <path id="Trazado_102641" data-name="Trazado 102641" d="M2018.892,1795.677a1.64,1.64,0,0,1-.061-3.279l4.322-.163a1.64,1.64,0,1,1,.124,3.278l-4.322.163Z" transform="translate(-129.683 -202.903)" fill="#ef6c00"/>
      <path id="Trazado_102642" data-name="Trazado 102642" d="M2037.34,1780.608a1.642,1.642,0,0,1-1.588-2.055l1.192-4.56a1.64,1.64,0,0,1,3.173.83l-1.192,4.56A1.641,1.641,0,0,1,2037.34,1780.608Z" transform="translate(-143.807 -187.997)" fill="#ef6c00"/>
      <path id="Trazado_102643" data-name="Trazado 102643" d="M2029.291,1727.14a1.641,1.641,0,0,1-1.159-.479l-9.335-9.319a1.64,1.64,0,0,1,0-2.322l10.319-10.292a1.64,1.64,0,0,1,2.456.159l5.3,6.87a1.64,1.64,0,0,1,.172,1.728l-6.29,12.74a1.64,1.64,0,0,1-1.2.892A1.681,1.681,0,0,1,2029.291,1727.14Zm-7.013-10.958,6.554,6.543,4.825-9.773-3.541-4.586Z" transform="translate(-130.497 -135.533)" fill="#ef6c00"/>
    </g>
    <g id="Grupo_87938" data-name="Grupo 87938" transform="translate(-1275.429 -478.866)">
      <path id="Trazado_102644" data-name="Trazado 102644" d="M2349.719,1222.583a6.686,6.686,0,0,1-4.8-2.011l-5.411-5.456a1.782,1.782,0,0,1,2.531-2.51l5.411,5.456c1.651,1.664,3.988.863,5.121-.238.689-.669,2.042-2.486-.258-4.9a1.774,1.774,0,0,1-.434-.777l-9.092-9.341a1.782,1.782,0,1,1,2.554-2.486l10.833,11.13c1.623,1.668,4.023.8,5.208-.353.719-.7,2.141-2.574-.117-4.94l-.037-.038-9.855-10.162c-.034-.035-.067-.072-.1-.109l-.635-.655a1.782,1.782,0,0,1,2.56-2.48l10.588,10.926.037.038c2.111,2.145,3.767,1.177,4.569.406a3.844,3.844,0,0,0,.413-5.36l-21.025-22.041a1.782,1.782,0,1,1,2.579-2.46L2369.225,1194l4.6-4.589c5.47-5.462,8-15.985-2.859-27.663a33.071,33.071,0,0,0-7.847-6.308c-2.453-1.376-14.01-5.33-21.621,2.078l-16.314,16.234c-.736.732-.492.979-.183,1.291,1.566,1.582,6.875,2.357,10.018-.741l4.114-4.054.054-.051c3.523-3.195,7.52-1.987,11.048-.921,4.03,1.218,7.836,2.368,12.276-1.136a1.782,1.782,0,0,1,2.208,2.8c-5.9,4.656-11.231,3.045-15.515,1.75-3.557-1.075-5.669-1.6-7.6.127l-4.085,4.026c-4.625,4.558-12.2,3.589-15.053.71-1.856-1.874-1.776-4.356.2-6.325l10.749-10.7-2.4-2.385c-6.108-5.946-17.244-7.749-27.226,2.376a22.825,22.825,0,0,0-6.676,12.957,15.689,15.689,0,0,0,4.792,13.372l5.432,5.424a1.782,1.782,0,1,1-2.519,2.522l-5.433-5.424a19.139,19.139,0,0,1-5.811-16.327,26.393,26.393,0,0,1,7.675-15.026,27.192,27.192,0,0,1,15.364-8.088,19.657,19.657,0,0,1,16.9,5.673l2.423,2.411,3.053-3.038a19.69,19.69,0,0,1,14.1-5.382c.19,0,.381,0,.573.007a25.7,25.7,0,0,1,11.188,2.728,36.656,36.656,0,0,1,8.714,6.99c8.492,9.129,12.641,22.754,2.768,32.613l-4.663,4.656c2.682,3.172,1.716,7.633-.812,10.065a6.493,6.493,0,0,1-4.818,1.887c.006.183,0,.358-.005.522a6.942,6.942,0,0,1-2.177,4.594,8.147,8.147,0,0,1-4.865,2.261,6.938,6.938,0,0,1-1.834-.079,6.772,6.772,0,0,1-2.113,4.545,7.848,7.848,0,0,1-4.808,2.183Q2349.98,1222.583,2349.719,1222.583Z" transform="translate(0)" fill="#3e2ea6"/>
      <path id="Trazado_102645" data-name="Trazado 102645" d="M2356.255,1336.264a6.79,6.79,0,0,1-4.817-1.992l-.578-.578a6.8,6.8,0,0,0-7.836-6.9l-.578-.578a6.793,6.793,0,0,1-1.99-4.943,6.95,6.95,0,0,1-1.24.111,6.761,6.761,0,0,1-4.816-1.984l-.578-.577a6.8,6.8,0,0,0-7.578-7.286l-.578-.577a6.821,6.821,0,0,1,0-9.634l7.487-7.491a6.764,6.764,0,0,1,4.817-1.989h0a6.767,6.767,0,0,1,4.815,1.988l.578.578a6.769,6.769,0,0,1,1.842,3.393l.542-.542a6.826,6.826,0,0,1,9.633,0l.578.578a6.823,6.823,0,0,1,.78,8.7,6.748,6.748,0,0,1,3.517,1.866l.578.578a6.809,6.809,0,0,0,4.679,10.056l.578.578a6.821,6.821,0,0,1,0,9.634l-5.021,5.021A6.792,6.792,0,0,1,2356.255,1336.264Zm4.442-15.653a3.236,3.236,0,0,0-2.3.949l-5.021,5.021a3.251,3.251,0,0,0,0,4.592l.578.578a3.29,3.29,0,0,0,4.592,0l5.021-5.021a3.292,3.292,0,0,0,0-4.592l-.578-.578A3.239,3.239,0,0,0,2360.7,1320.611Zm-5.257-10.629a3.222,3.222,0,0,0-2.3.945l-8.178,8.177a3.251,3.251,0,0,0,0,4.592l.578.577a3.251,3.251,0,0,0,4.593,0l8.177-8.177a3.251,3.251,0,0,0,0-4.592l-.577-.578A3.223,3.223,0,0,0,2355.44,1309.983Zm-4.875-11.15a3.237,3.237,0,0,0-2.3.95l-11.928,11.928a3.251,3.251,0,0,0,0,4.592l.578.577a3.272,3.272,0,0,0,4.592,0l11.928-11.927a3.251,3.251,0,0,0,0-4.592l-.579-.578A3.235,3.235,0,0,0,2350.566,1298.833Zm-12.6-3.422a3.22,3.22,0,0,0-2.3.944l-7.487,7.491a3.252,3.252,0,0,0,0,4.593l.578.577a3.29,3.29,0,0,0,4.592,0l7.487-7.491a3.29,3.29,0,0,0,0-4.593l-.578-.578a3.225,3.225,0,0,0-2.3-.944Z" transform="translate(-22.548 -106.035)" fill="#3e2ea6"/>
    </g>
    <g id="Grupo_87939" data-name="Grupo 87939" transform="translate(-1096.313 -1121.091)">
      <path id="Trazado_102646" data-name="Trazado 102646" d="M2339.709,2109.431h0a1.556,1.556,0,0,1-1.233-.611l-2.594-3.385a1.558,1.558,0,0,1,2.473-1.895l1.363,1.779,4.06-5.254a1.558,1.558,0,1,1,2.466,1.905l-5.3,6.856A1.558,1.558,0,0,1,2339.709,2109.431Z" transform="translate(-31.603 -77.85)" fill="#ef6c00"/>
      <path id="Trazado_102647" data-name="Trazado 102647" d="M2416.049,2121.07h-17.017a1.558,1.558,0,0,1,0-3.115h17.017a1.558,1.558,0,1,1,0,3.115Z" transform="translate(-82.648 -92.299)" fill="#ef6c00"/>
      <path id="Trazado_102648" data-name="Trazado 102648" d="M2339.709,2158.073h0a1.558,1.558,0,0,1-1.233-.611l-2.594-3.386a1.558,1.558,0,0,1,2.473-1.895l1.363,1.778,4.06-5.254a1.558,1.558,0,1,1,2.466,1.905l-5.3,6.856A1.558,1.558,0,0,1,2339.709,2158.073Z" transform="translate(-31.603 -116.114)" fill="#ef6c00"/>
      <path id="Trazado_102649" data-name="Trazado 102649" d="M2412.2,2169.711h-13.169a1.558,1.558,0,0,1,0-3.115H2412.2a1.558,1.558,0,1,1,0,3.115Z" transform="translate(-82.465 -130.522)" fill="#ef6c00"/>
      <path id="Trazado_102650" data-name="Trazado 102650" d="M2339.363,2206.372h0a1.559,1.559,0,0,1-1.233-.61l-2.594-3.386a1.558,1.558,0,0,1,2.473-1.9l1.363,1.779,4.059-5.254a1.558,1.558,0,1,1,2.465,1.9l-5.3,6.856A1.556,1.556,0,0,1,2339.363,2206.372Z" transform="translate(-31.334 -154.109)" fill="#ef6c00"/>
      <path id="Trazado_102651" data-name="Trazado 102651" d="M2360.821,2091.434H2347.2a1.558,1.558,0,0,1,0-3.115h13.622a1.558,1.558,0,1,1,0,3.115Zm-11.342-36.231h-17.017a1.558,1.558,0,1,1,0-3.115h17.017a1.558,1.558,0,0,1,0,3.115Z" transform="translate(-27.985 -40.11)" fill="#ef6c00"/>
      <path id="Trazado_102652" data-name="Trazado 102652" d="M2339.518,2067.372H2299a4.015,4.015,0,0,1-4.089-3.926v-59.023A4.015,4.015,0,0,1,2299,2000.5h29.847l.09,0a1.583,1.583,0,0,1,1.027.439l16.494,15.837h0l0,0h0l0,0h0l0,0h0l0,0h0l0,0h0l0,0h0l0,0h0l0,0h0l0,0h0l0,0h0l0,0h0l0,0h0v0h0l0,0h0l0,0h0l0,0h0a1.458,1.458,0,0,1,.4.943c0,.024,0,.048,0,.072v23.638a1.559,1.559,0,0,1-3.116,0v-22.152H2331.39a4.015,4.015,0,0,1-4.089-3.927v-11.913H2299a.968.968,0,0,0-.974.935v59.023a.967.967,0,0,0,.974.934h40.52a1.5,1.5,0,1,1,0,2.992Zm-9.1-61.769v9.8a.956.956,0,0,0,.974.935h10.2Z" transform="translate(0 0)" fill="#ef6c00"/>
      <path id="Trazado_102653" data-name="Trazado 102653" d="M2493.771,2194.529a18.571,18.571,0,0,1-1.558-37.076v-3.307h-3.042a1.558,1.558,0,0,1,0-3.116h9.2a1.558,1.558,0,0,1,0,3.116h-3.042v3.307a18.5,18.5,0,0,1,10.653,4.526l2.739-2.649a1.558,1.558,0,0,1,2.167,2.239l-2.739,2.649a18.561,18.561,0,0,1-14.377,30.312Zm0-34.025a15.455,15.455,0,1,0,15.455,15.454A15.472,15.472,0,0,0,2493.771,2160.5Zm0,29.376a1.557,1.557,0,0,1-1.558-1.558v-1.914a1.558,1.558,0,1,1,3.115,0v1.914A1.558,1.558,0,0,1,2493.771,2189.88Zm0-10.884a3.036,3.036,0,1,1,.791-5.969l6.469-6.258a1.558,1.558,0,0,1,2.167,2.24l-6.469,6.258a3.038,3.038,0,0,1-2.957,3.729Zm-10.449-1.479h-1.914a1.558,1.558,0,0,1,0-3.116h1.914a1.558,1.558,0,1,1,0,3.116Zm22.813,0h-1.914a1.558,1.558,0,0,1,0-3.116h1.914a1.558,1.558,0,0,1,0,3.116Zm-12.364-10.449a1.558,1.558,0,0,1-1.558-1.558V2163.6a1.558,1.558,0,1,1,3.115,0v1.914A1.558,1.558,0,0,1,2493.77,2167.067Z" transform="translate(-147.448 -119.804)" fill="#ef6c00"/>
    </g>
    <path id="Trazado_102654" data-name="Trazado 102654" d="M2817.14,944.2a6.4,6.4,0,0,1-3.217-.845,4.959,4.959,0,0,1-2.5-4.436l.159-12.6.067-7.959a3.629,3.629,0,0,1-1.337.373,3.679,3.679,0,0,1-3.042-.921c-1.691-1.591-1.534-4.531-1.408-6.893.023-.432.045-.84.05-1.175.084-5.726.19-9.718.867-12.816.34-1.878,2.243-3.223,5.817-4.109a41.082,41.082,0,0,1,9.675-1,1.594,1.594,0,0,1-.007,3.189c-.067,0-.139,0-.209,0a38.954,38.954,0,0,0-8.445.85c-2.774.652-3.618,1.432-3.695,1.653,0,.027-.008.044-.014.071-.618,2.8-.721,6.829-.8,12.212-.006.4-.029.834-.053,1.3-.066,1.241-.2,3.824.41,4.4a.762.762,0,0,0,.528.071l.07-.007c.276-.019.963-.53,1.587-2.324.016-.045.033-.089.052-.132l.088-10.413a1.594,1.594,0,0,1,3.189.027l-.2,23.64-.159,12.6a1.755,1.755,0,0,0,.925,1.649,3.386,3.386,0,0,0,3.161.022,1.725,1.725,0,0,0,.918-1.614v-.006l.014-18.691a1.594,1.594,0,0,1,1.594-1.593h0a1.594,1.594,0,0,1,1.593,1.6l-.014,18.691v0a1.688,1.688,0,0,0,.931,1.559,3.978,3.978,0,0,0,3.659-.024,1.718,1.718,0,0,0,.936-1.6l-.158-12.59-.033-2.193a1.6,1.6,0,0,1,1.57-1.618h.024a1.594,1.594,0,0,1,1.594,1.571l.033,2.2.158,12.6A4.919,4.919,0,0,1,2829,943.3a7.136,7.136,0,0,1-6.857.039,5.366,5.366,0,0,1-.9-.65,5.22,5.22,0,0,1-.96.7A6.343,6.343,0,0,1,2817.14,944.2Zm46.608,0a6.394,6.394,0,0,1-3.217-.845,4.96,4.96,0,0,1-2.5-4.436l.159-12.6c0-.016,0-.033,0-.049l.076-1.749a1.594,1.594,0,0,1,3.186.138l-.075,1.724-.159,12.57a1.756,1.756,0,0,0,.925,1.649,3.384,3.384,0,0,0,3.161.022,1.725,1.725,0,0,0,.918-1.614v-.006l.014-18.691a1.594,1.594,0,0,1,1.594-1.593h0a1.594,1.594,0,0,1,1.593,1.6l-.014,18.691v0a1.687,1.687,0,0,0,.931,1.559,3.977,3.977,0,0,0,3.659-.024,1.718,1.718,0,0,0,.936-1.6l-.158-12.59-.2-23.646a1.594,1.594,0,0,1,1.581-1.608h.014a1.594,1.594,0,0,1,1.594,1.581l.084,9.845c.021.046.04.093.057.142.67,1.926,1.362,2.257,1.495,2.3a.4.4,0,0,0,.383-.071c.758-.472.8-1.413.606-3.481-.037-.392-.074-.8-.094-1.2l-.644-12.859c0-.05-.064-.161-.232-.312-1.358-1.226-6.446-2.339-13.2-1.988a1.594,1.594,0,0,1-.165-3.184c5.406-.282,12.711.285,15.5,2.806a3.6,3.6,0,0,1,1.28,2.52l.644,12.859c.016.328.049.683.085,1.058.193,2.066.457,4.9-2.1,6.484a3.572,3.572,0,0,1-3.13.37,3.81,3.81,0,0,1-.445-.189l.073,8.533.158,12.588a4.919,4.919,0,0,1-2.512,4.384,7.139,7.139,0,0,1-6.857.039,5.356,5.356,0,0,1-.9-.65,5.236,5.236,0,0,1-.96.7A6.342,6.342,0,0,1,2863.748,944.2Zm-23.66-.008a7.236,7.236,0,0,1-3.628-.938,5.331,5.331,0,0,1-2.707-4.759l.177-14.271.054-6.4a4.373,4.373,0,0,1-4.921-.447c-1.824-1.717-1.652-4.95-1.514-7.548.026-.483.05-.939.055-1.316l0-.223c.087-6.023.2-13.514.961-17.035.986-5.445,14.876-5.782,20.159-5.452,10.027.629,12.24,3.477,12.331,5.756l.718,17.961c.016.389.053.809.093,1.254.2,2.23.473,5.283-2.251,6.979a3.807,3.807,0,0,1-3.334.394,4.183,4.183,0,0,1-.714-.332l.055,6.418.177,14.261a5.328,5.328,0,0,1-2.705,4.757,7.5,7.5,0,0,1-7.2.04,1.179,1.179,0,0,0-2.264.007A7.168,7.168,0,0,1,2840.088,944.192Zm-4.339-47.915h.014a1.594,1.594,0,0,1,1.581,1.608l-.224,26.372-.177,14.273a2.11,2.11,0,0,0,1.13,1.972,4.253,4.253,0,0,0,3.97.027,2.077,2.077,0,0,0,1.124-1.933v-.006l.016-22.936a1.594,1.594,0,0,1,1.594-1.593h0a1.594,1.594,0,0,1,1.593,1.6l-.016,22.936v0a2.071,2.071,0,0,0,1.124,1.925,4.287,4.287,0,0,0,4.006-.026,2.106,2.106,0,0,0,1.128-1.969l-.177-14.263-.224-26.379a1.594,1.594,0,0,1,1.581-1.608h.014a1.594,1.594,0,0,1,1.594,1.581l.123,14.486c.016.036.031.074.044.113.755,2.172,1.553,2.6,1.78,2.682a.626.626,0,0,0,.587-.1c.953-.593.962-1.724.759-3.987-.041-.464-.085-.944-.1-1.412l-.718-17.961c-.03-.739-2.8-2.29-9.344-2.7a48.15,48.15,0,0,0-11.686.667c-4.1.818-5.094,1.922-5.136,2.173,0,.027-.01.054-.016.081-.7,3.189-.814,10.842-.895,16.43l0,.223c-.006.438-.032.924-.06,1.438-.081,1.522-.231,4.354.516,5.057.05.047.2.189.737.129l.068-.006c.376-.027,1.207-.629,1.934-2.717q.02-.058.044-.112l.123-14.486A1.594,1.594,0,0,1,2835.749,896.277Zm32.05-6.162c-4.3,0-7.79-3.754-7.79-8.368a8.529,8.529,0,0,1,3.883-7.241,7.382,7.382,0,0,1,3.993-1.181c4.3,0,7.791,3.754,7.791,8.368a8.529,8.529,0,0,1-3.886,7.243A7.386,7.386,0,0,1,2867.8,890.114Zm.086-13.6a4.2,4.2,0,0,0-2.277.679l-.022.014a5.32,5.32,0,0,0-2.388,4.54,4.922,4.922,0,0,0,4.6,5.179,4.2,4.2,0,0,0,2.276-.679l.023-.014a5.32,5.32,0,0,0,2.389-4.54A4.922,4.922,0,0,0,2867.884,876.513Zm-3.141-.661h0Zm-43.553,14.262c-4.3,0-7.79-3.754-7.79-8.368a8.529,8.529,0,0,1,3.882-7.241,7.383,7.383,0,0,1,3.994-1.181c4.3,0,7.791,3.754,7.791,8.368a8.529,8.529,0,0,1-3.886,7.243A7.385,7.385,0,0,1,2821.19,890.114Zm.086-13.6a4.2,4.2,0,0,0-2.277.679l-.023.014a5.321,5.321,0,0,0-2.387,4.54,4.922,4.922,0,0,0,4.6,5.179,4.2,4.2,0,0,0,2.276-.679l.023-.014a5.32,5.32,0,0,0,2.389-4.54A4.922,4.922,0,0,0,2821.276,876.513Zm-3.14-.661h0Zm26.332,8.011c-4.69,0-8.507-4.105-8.507-9.151a9.331,9.331,0,0,1,4.247-7.923,8.054,8.054,0,0,1,4.355-1.288c4.691,0,8.507,4.105,8.507,9.151a9.329,9.329,0,0,1-4.249,7.924A8.055,8.055,0,0,1,2844.467,883.863Zm.1-15.173a4.872,4.872,0,0,0-2.64.787l-.023.014a6.121,6.121,0,0,0-2.75,5.221c0,3.287,2.385,5.962,5.318,5.962a4.874,4.874,0,0,0,2.639-.787l.023-.014a6.119,6.119,0,0,0,2.752-5.221C2849.881,871.365,2847.5,868.69,2844.563,868.69Zm-3.5-.553h0Z" transform="translate(-2044.734 91.04)" fill="#12263f"/>
  </g>
</svg>
