<svg xmlns="http://www.w3.org/2000/svg" width="47.844" height="40.137" viewBox="0 0 47.844 40.137">
  <g id="_18" data-name="18" transform="translate(-4296.393 -1868.616)">
    <path id="Trazado_101533" data-name="Trazado 101533" d="M4342.6,1868.616h-44.563a1.641,1.641,0,0,0-1.641,1.641v31.82a1.641,1.641,0,0,0,1.641,1.641H4342.6a1.641,1.641,0,0,0,1.641-1.641v-31.82A1.641,1.641,0,0,0,4342.6,1868.616Zm-22.281,33.9a1.018,1.018,0,1,1,1.018-1.018A1.018,1.018,0,0,1,4320.315,1902.513Zm21.4-3.374h-42.807v-28h42.807Z" fill="#dad6f7"/>
    <g id="_1" data-name="1" transform="translate(4308.268 1873.194)">
      <path id="Trazado_101534" data-name="Trazado 101534" d="M4458.725,2081.14l-2.717-1.032.167,1.236s1.054.633,1.054.85-3.641,4.954-3.641,4.954l-.428-2.5a10.273,10.273,0,0,0,1.247-1.246,9.862,9.862,0,0,0-1.751-1.751,9.991,9.991,0,0,0-1.751,1.751,10.523,10.523,0,0,0,1.246,1.246l-.428,2.5s-3.641-4.754-3.641-4.954,1.055-.85,1.055-.85l.167-1.19-2.718.986a6.133,6.133,0,0,0-6.053,6.053V2091h24.245v-3.809A6.147,6.147,0,0,0,4458.725,2081.14Z" transform="translate(-4440.532 -2067.262)" fill="#dad6f7"/>
      <path id="Trazado_101535" data-name="Trazado 101535" d="M4514.214,1924.188a5.705,5.705,0,0,0-4.149,1.735,6.356,6.356,0,0,0-1.72,4.006c-.426.165-.727.834-.727,1.684,0,.982.4,1.723.935,1.723a.6.6,0,0,0,.338-.106,4.838,4.838,0,0,0,2.948,2.684,1.82,1.82,0,0,0,1.484.573c.914,0,1.6-.4,1.6-.935s-.688-.935-1.6-.935a2.4,2.4,0,0,0-1.058.223,3.693,3.693,0,0,1-2.386-2.168.427.427,0,0,0,.161-.207,1.818,1.818,0,0,0,.026-.55,6.185,6.185,0,0,1,.01-.677c.016-.148.022-.289.028-.426a1.486,1.486,0,0,1,.258-.976,2.091,2.091,0,0,1,1.4-.617.988.988,0,0,1,.172.014,2.268,2.268,0,0,1,.552.2l.26.123a6.227,6.227,0,0,0,2.759.81h.046a2.42,2.42,0,0,0,.952-.359,3.41,3.41,0,0,1,.454-.216,1.735,1.735,0,0,1,.476-.106.425.425,0,0,1,.259.081.9.9,0,0,1,.406.612,8.631,8.631,0,0,1,.159,2.251.69.69,0,0,0,.054.377.68.68,0,0,0,.374.293h0l.012.005.033.014.035,0c.079.007.15.011.219.011a1.39,1.39,0,0,0,.575-.112c.12-.053.175-.078.325-1.152a13.819,13.819,0,0,0,.144-1.654C4520.031,1926.692,4517.693,1924.188,4514.214,1924.188Z" transform="translate(-4502.091 -1924.188)" fill="#dad6f7"/>
    </g>
    <path id="Trazado_101536" data-name="Trazado 101536" d="M4496.064,2287.723h-9.836c-.713,4.165-3.667,4.646-3.667,5.608h17.169C4499.73,2292.37,4496.781,2291.86,4496.064,2287.723Z" transform="translate(-170.83 -384.579)" fill="#dad6f7"/>
  </g>
</svg>
