<svg xmlns="http://www.w3.org/2000/svg" width="59.456" height="51.364" viewBox="0 0 59.456 51.364">
  <g id="_15" data-name="15" transform="translate(-1804.329 -1805.717)">
    <path id="Trazado_101542" data-name="Trazado 101542" d="M2050.1,2014.631h-11.63l-2.85,3.881H2011.71c-.014,0-.027-.006-.041-.006-.658,0-1.191.722-1.191,1.612s.533,1.612,1.191,1.612h23.951l2.852,3.883h11.63l-4.033-5.491Z" transform="translate(-186.316 -188.815)" fill="#dad6f7"/>
    <path id="Trazado_101543" data-name="Trazado 101543" d="M1923.343,1955.322a3.578,3.578,0,0,1,0-7.1c.05,0,.1,0,.15.005h8.662c-1.21-5.328-5-9.219-9.5-9.219-5.471,0-9.906,5.757-9.906,12.859s4.435,12.858,9.906,12.858c4.549,0,8.377-3.981,9.54-9.4Z" transform="translate(-97.99 -120.468)" fill="#dad6f7"/>
    <path id="Trazado_101544" data-name="Trazado 101544" d="M1839.978,1834.854c-1.229,9.872-7.623,17.423-15.312,17.423-8.565,0-15.532-9.366-15.532-20.877s6.968-20.878,15.532-20.878c7.64,0,14,7.456,15.289,17.238h4.833c-1.405-12.442-9.888-22.042-20.122-22.042-11.214,0-20.337,11.521-20.337,25.682s9.123,25.682,20.337,25.682c10.285,0,18.8-9.7,20.145-22.228Z" transform="translate(0 0)" fill="#dad6f7"/>
  </g>
</svg>
