<svg xmlns="http://www.w3.org/2000/svg" width="48.444" height="43.333" viewBox="0 0 48.444 43.333">
  <g id="_24" data-name="24" transform="translate(-4316.917 -2649.849)">
    <g id="Grupo_87546" data-name="Grupo 87546" transform="translate(4316.917 2652.193)">
      <path id="Trazado_101540" data-name="Trazado 101540" d="M4317.715,2682.091a11.64,11.64,0,0,0,.062,8.623c1.142,2.766,3.3,4.965,5.406,7.09l6.2,6.249,6.249,6.2c2.124,2.107,4.323,4.265,7.09,5.406a11.508,11.508,0,0,0,14.868-5.885c.213-.47.475-1.18.2-1.493s-7.6-6.3-7.919-6.474a2.1,2.1,0,0,0-.972-.233c-2.483-.083-3.74,3.625-6.225,3.7a4.054,4.054,0,0,1-2.777-1.379s-2.674-2.645-5.189-5.168-5.167-5.19-5.167-5.19a4.047,4.047,0,0,1-1.379-2.777c.077-2.484,3.784-3.741,3.7-6.225a2.091,2.091,0,0,0-.232-.971c-.172-.319-6.162-7.646-6.475-7.919s-1.022-.012-1.493.2A11.642,11.642,0,0,0,4317.715,2682.091Z" transform="translate(-4316.917 -2675.527)" fill="#dad6f7"/>
    </g>
    <path id="Trazado_101541" data-name="Trazado 101541" d="M4589.539,2649.849c-6.817,0-12.344,4.02-12.344,8.978a7.9,7.9,0,0,0,3.475,6.241v6.414l9.25-3.685c6.641-.146,11.963-4.105,11.963-8.97C4601.883,2653.869,4596.356,2649.849,4589.539,2649.849Zm-6.255,11.115a1.674,1.674,0,1,1,1.674-1.674A1.674,1.674,0,0,1,4583.284,2660.964Zm6.255,0a1.674,1.674,0,1,1,1.674-1.674A1.674,1.674,0,0,1,4589.539,2660.964Zm6.255,0a1.674,1.674,0,1,1,1.674-1.674A1.674,1.674,0,0,1,4595.794,2660.964Z" transform="translate(-236.521)" fill="#dad6f7"/>
  </g>
</svg>
