<svg xmlns="http://www.w3.org/2000/svg" width="505" height="432.289" viewBox="0 0 505 432.289">
  <g id="Grupo_87926" data-name="Grupo 87926" transform="translate(-915 -400)">
    <g id="Grupo_87925" data-name="Grupo 87925" transform="translate(348.232 346.374)">
      <path id="Trazado_102404" data-name="Trazado 102404" d="M991.969,140.314c1.216-14.243-7.3-32.417-19.032-40.592-5.395-3.76-10.525-4.744-14.615-3.329l0,0-.044.02a10.622,10.622,0,0,0-1.594.711l-9.6,4.728,4.931,0a21.485,21.485,0,0,0-2.517,8.858c-1.216,14.243,7.3,32.417,19.032,40.592a22.844,22.844,0,0,0,6.977,3.4l1.153,3.06,6.695-3.2a10.63,10.63,0,0,0,1.083-.477l.12-.053,0-.008C988.6,151.937,991.379,147.228,991.969,140.314Z" transform="translate(-169.09 -21.456)" fill="#00d1a7"/>
      <ellipse id="Elipse_4800" data-name="Elipse 4800" cx="18.303" cy="31.701" rx="18.303" ry="31.701" transform="translate(762.851 87.352) rotate(-25.12)" fill="#08f7c8"/>
      <g id="Grupo_87776" data-name="Grupo 87776" transform="translate(778.757 91.268)">
        <g id="Grupo_87775" data-name="Grupo 87775" transform="translate(0)">
          <g id="Grupo_87774" data-name="Grupo 87774">
            <path id="Trazado_102405" data-name="Trazado 102405" d="M963.279,161.5c-7.26-2.431-16.023-19.025-14.462-24.42l.012-.042a9.778,9.778,0,0,1,4.444-5.7l1.389-.815a1.957,1.957,0,0,1,1.835,0,3.452,3.452,0,0,1,1.46,1.37l2.586,4.337a3.974,3.974,0,0,1,.591,2.242,2.188,2.188,0,0,1-1,1.812l-2.112,1.239a.533.533,0,0,0,.018.437,32.189,32.189,0,0,0,2.2,4.942,32.367,32.367,0,0,0,3.3,4.292c.186.206.349.235.378.226l2.111-1.239c1.156-.679,2.851.036,3.779,1.593l2.585,4.337c.8,1.348.633,2.928-.38,3.523l-1.64.961a9.074,9.074,0,0,1-6.869.971C963.408,161.537,963.33,161.515,963.279,161.5Z" transform="translate(-948.634 -130.295)" fill="#fdfdfd"/>
          </g>
        </g>
      </g>
      <g id="Grupo_87789" data-name="Grupo 87789" transform="translate(850.041 53.626)">
        <path id="Trazado_102406" data-name="Trazado 102406" d="M1244.015,567.414l48.6-29.19a6.485,6.485,0,0,0-.094-11.09l-144.117-85.686-18.942,59.914Z" transform="translate(-1111.967 -251.04)" fill="#88bdeb" opacity="0.19" style="mix-blend-mode: multiply;isolation: isolate"/>
        <path id="Trazado_102407" data-name="Trazado 102407" d="M1231.543,374.3l-101.3-67.177c-6.335-3.658-11.471-13.471-11.471-21.918V64.119c0-8.447,5.136-12.33,11.472-8.672l105.761,61.061c6.335,3.658,11.471,13.471,11.471,21.918V358.471c0,5.558-2.079,7.875-5.576,9.894Z" transform="translate(-1106.526 -53.852)" fill="#9ad0fc"/>
        <path id="Trazado_102408" data-name="Trazado 102408" d="M1163.671,166.383s-54.228,126.828-54.228,118.381L1100.535,61.2l13.293-7.02c1.95-.919,4.411-.719,7.085.825l105.762,61.062a22.493,22.493,0,0,1,7.964,8.885Z" transform="translate(-1097.241 -53.626)" fill="#c7e1f8"/>
        <path id="Trazado_102409" data-name="Trazado 102409" d="M1214.848,379.181l-105.5-61.061c-6.335-3.658-11.211-13.471-11.211-21.918V75.113c0-8.447,5-12.33,11.337-8.672L1214.915,127.5c6.336,3.658,11.153,13.471,11.153,21.918v221.09C1226.068,378.956,1221.184,382.839,1214.848,379.181Z" transform="translate(-1096.02 -59.448)" fill="#fff"/>
        <g id="Grupo_87778" data-name="Grupo 87778" transform="translate(0 6.399)">
          <g id="Grupo_87777" data-name="Grupo 87777">
            <path id="Trazado_102410" data-name="Trazado 102410" d="M1210.539,380.777l-105.5-61.061c-6.336-3.658-11.211-13.471-11.211-21.918V76.709c0-8.447,5-12.33,11.337-8.672L1210.606,129.1c6.335,3.658,11.153,13.471,11.153,21.918v221.09C1221.759,380.552,1216.875,384.435,1210.539,380.777Z" transform="translate(-1093.826 -66.66)" fill="#6359c2"/>
          </g>
        </g>
        <path id="Trazado_102411" data-name="Trazado 102411" d="M1217.145,367.649,1114.28,308.259a3.457,3.457,0,0,1-1.729-2.994V118.557a3.458,3.458,0,0,1,5.187-2.994L1220.6,174.952a3.458,3.458,0,0,1,1.729,2.994V364.654A3.458,3.458,0,0,1,1217.145,367.649Z" transform="translate(-1103.358 -84.915)" fill="#c7e1f8"/>
        <path id="Trazado_102412" data-name="Trazado 102412" d="M1224.765,156.642l-32.623-18.835a5,5,0,0,1-2.081-3.976h0c0-1.526.936-2.234,2.081-1.573l32.623,18.835a5,5,0,0,1,2.081,3.976h0C1226.846,156.595,1225.909,157.3,1224.765,156.642Z" transform="translate(-1142.813 -93.526)" fill="#c7e1f8"/>
        <path id="Trazado_102413" data-name="Trazado 102413" d="M1365.764,279.675h0a2.092,2.092,0,0,1-3.147-2.055V265.031a5.6,5.6,0,0,1,3.147-4.734h0a2.093,2.093,0,0,1,3.147,2.055V274.94A5.6,5.6,0,0,1,1365.764,279.675Z" transform="translate(-1230.649 -158.699)" fill="#e6f0ff"/>
        <path id="Trazado_102414" data-name="Trazado 102414" d="M1368.516,280.019h0a2.092,2.092,0,0,1-3.147-2.055V265.374a5.6,5.6,0,0,1,3.147-4.734h0a2.092,2.092,0,0,1,3.147,2.055v12.589A5.6,5.6,0,0,1,1368.516,280.019Z" transform="translate(-1232.051 -158.874)" fill="#4699e3"/>
        <path id="Trazado_102415" data-name="Trazado 102415" d="M1365.764,326.348h0a2.092,2.092,0,0,1-3.147-2.055V311.7a5.6,5.6,0,0,1,3.147-4.734h0a2.092,2.092,0,0,1,3.147,2.055v12.589A5.6,5.6,0,0,1,1365.764,326.348Z" transform="translate(-1230.649 -182.457)" fill="#e6f0ff"/>
        <path id="Trazado_102416" data-name="Trazado 102416" d="M1368.516,326.691h0a2.092,2.092,0,0,1-3.147-2.055V312.047a5.6,5.6,0,0,1,3.147-4.735h0a2.092,2.092,0,0,1,3.147,2.055v12.589A5.6,5.6,0,0,1,1368.516,326.691Z" transform="translate(-1232.051 -182.632)" fill="#4699e3"/>
        <g id="Grupo_87780" data-name="Grupo 87780" transform="translate(18.751 92.099)">
          <g id="Grupo_87779" data-name="Grupo 87779">
            <path id="Trazado_102417" data-name="Trazado 102417" d="M1184.155,334.49l-47.28-27.3c-2.672-1.542-4.857-5.719-4.857-9.281V245.464c0-3.562,2.186-5.215,4.857-3.672l47.28,27.3c2.671,1.542,4.858,5.719,4.858,9.281v52.447C1189.013,334.38,1186.827,336.033,1184.155,334.49Z" transform="translate(-1132.018 -241.214)" fill="#fdfdfd"/>
          </g>
        </g>
        <path id="Trazado_102418" data-name="Trazado 102418" d="M1258.951,258.742l-47.027-27.151c-2.742-1.583-4.984-5.868-4.984-9.523V218.5c0-3.655,2.243-5.351,4.984-3.768l47.027,27.151c2.742,1.582,4.984,5.868,4.984,9.522v3.571C1263.935,258.629,1261.693,260.324,1258.951,258.742Z" transform="translate(-1151.405 -135.331)" fill="#1a93ff"/>
        <path id="Trazado_102419" data-name="Trazado 102419" d="M1258.951,541.407l-47.027-27.151c-2.742-1.582-4.984-5.867-4.984-9.522v-3.571c0-3.655,2.243-5.35,4.984-3.768l47.027,27.151c2.742,1.583,4.984,5.868,4.984,9.523v3.571C1263.935,541.294,1261.693,542.989,1258.951,541.407Z" transform="translate(-1151.405 -279.217)" fill="#1a93ff"/>
        <g id="Grupo_87782" data-name="Grupo 87782" transform="translate(18.751 167.178)">
          <g id="Grupo_87781" data-name="Grupo 87781" transform="translate(0 0)">
            <path id="Trazado_102420" data-name="Trazado 102420" d="M1184.028,438.738,1137,411.587c-2.741-1.582-4.984-5.867-4.984-9.523v-3.571c0-3.655,2.243-5.351,4.984-3.768l47.027,27.151c2.742,1.583,4.984,5.868,4.984,9.523v3.571C1189.013,438.625,1186.77,440.321,1184.028,438.738Z" transform="translate(-1132.018 -394.133)" fill="#fdfdfd"/>
          </g>
        </g>
        <path id="Trazado_102421" data-name="Trazado 102421" d="M1187.622,308.74l-42.216-24.374a3.854,3.854,0,0,1-1.6-3.063h0c0-1.175.721-1.721,1.6-1.212l42.216,24.374a3.853,3.853,0,0,1,1.6,3.063h0C1189.225,308.7,1188.5,309.249,1187.622,308.74Z" transform="translate(-1119.266 -168.807)" fill="#9ad0fc"/>
        <path id="Trazado_102422" data-name="Trazado 102422" d="M1187.622,438.168l-42.216-24.374a3.854,3.854,0,0,1-1.6-3.063h0c0-1.176.721-1.721,1.6-1.212l42.216,24.374a3.853,3.853,0,0,1,1.6,3.063h0C1189.225,438.132,1188.5,438.677,1187.622,438.168Z" transform="translate(-1119.266 -234.691)" fill="#9ad0fc"/>
        <g id="Grupo_87784" data-name="Grupo 87784" transform="translate(61.322 86.456)">
          <g id="Grupo_87783" data-name="Grupo 87783">
            <path id="Trazado_102423" data-name="Trazado 102423" d="M1262.545,258.559l-42.216-24.374a3.852,3.852,0,0,1-1.6-3.063h0c0-1.176.721-1.721,1.6-1.212l42.216,24.374a3.852,3.852,0,0,1,1.6,3.063h0C1264.148,258.523,1263.427,259.068,1262.545,258.559Z" transform="translate(-1218.726 -229.72)" fill="#fdfdfd"/>
          </g>
        </g>
        <path id="Trazado_102424" data-name="Trazado 102424" d="M1187.622,338.1l-42.216-24.374a3.853,3.853,0,0,1-1.6-3.063h0c0-1.175.721-1.721,1.6-1.212l42.216,24.374a3.853,3.853,0,0,1,1.6,3.063h0C1189.225,338.063,1188.5,338.609,1187.622,338.1Z" transform="translate(-1119.266 -183.752)" fill="#9ad0fc"/>
        <path id="Trazado_102425" data-name="Trazado 102425" d="M1171.461,358.129l-26.055-15.043a3.853,3.853,0,0,1-1.6-3.063h0c0-1.176.721-1.721,1.6-1.212l26.055,15.043a3.853,3.853,0,0,1,1.6,3.063h0C1173.064,358.092,1172.343,358.638,1171.461,358.129Z" transform="translate(-1119.266 -198.698)" fill="#9ad0fc"/>
        <g id="Grupo_87786" data-name="Grupo 87786" transform="translate(60.047 225.806)">
          <g id="Grupo_87785" data-name="Grupo 87785" transform="translate(0 0)">
            <path id="Trazado_102426" data-name="Trazado 102426" d="M1230.157,525.187l-12.425-7.174a3.853,3.853,0,0,1-1.6-3.063h0c0-1.176.721-1.721,1.6-1.212l12.425,7.174a3.854,3.854,0,0,1,1.6,3.063h0C1231.76,525.151,1231.039,525.7,1230.157,525.187Z" transform="translate(-1216.129 -513.547)" fill="#fdfdfd"/>
          </g>
        </g>
        <g id="Grupo_87788" data-name="Grupo 87788" transform="translate(78.758 236.609)">
          <g id="Grupo_87787" data-name="Grupo 87787" transform="translate(0 0)">
            <path id="Trazado_102427" data-name="Trazado 102427" d="M1281.9,555.06l-26.055-15.043a3.854,3.854,0,0,1-1.6-3.063h0c0-1.175.721-1.721,1.6-1.212l26.055,15.043a3.852,3.852,0,0,1,1.6,3.063h0C1283.5,555.023,1282.781,555.569,1281.9,555.06Z" transform="translate(-1254.241 -535.551)" fill="#fdfdfd"/>
          </g>
        </g>
      </g>
      <g id="Grupo_87792" data-name="Grupo 87792" transform="translate(914.007 334.346)">
        <ellipse id="Elipse_4801" data-name="Elipse 4801" cx="19.633" cy="9.005" rx="19.633" ry="9.005" transform="translate(14.024 89.254)" fill="#88bdeb" opacity="0.19" style="mix-blend-mode: multiply;isolation: isolate"/>
        <g id="Grupo_87790" data-name="Grupo 87790" transform="translate(0.501 59.082)">
          <ellipse id="Elipse_4802" data-name="Elipse 4802" cx="9.113" cy="15.785" rx="9.113" ry="15.785" transform="matrix(0.005, -1, 1, 0.005, 7.557, 47.049)" fill="#c7e1f8"/>
          <path id="Trazado_102428" data-name="Trazado 102428" d="M1225.6,778.1l7.428,22.771,31.4.516,7.169-21.946Z" transform="translate(-1225.371 -762.209)" fill="#c7e1f8"/>
          <path id="Trazado_102429" data-name="Trazado 102429" d="M1280.683,779.938l-7.169,21.861h0c-.991,3.346-1.893,4.092-4.47,5.579a19.8,19.8,0,0,1-6.44,2.409,24.163,24.163,0,0,0,15.362-2.507c2.577-1.488,4.063-2.242,4.469-5.481h0l7.17-21.861Z" transform="translate(-1244.205 -763.145)" fill="#9ad0fc"/>
          <ellipse id="Elipse_4803" data-name="Elipse 4803" cx="13.463" cy="23.319" rx="13.463" ry="23.319" transform="translate(0 28.556) rotate(-89.689)" fill="#fff"/>
          <ellipse id="Elipse_4804" data-name="Elipse 4804" cx="13.463" cy="23.319" rx="13.463" ry="23.319" transform="translate(0 26.925) rotate(-89.689)" fill="#c7e1f8"/>
          <ellipse id="Elipse_4805" data-name="Elipse 4805" cx="11.556" cy="20.016" rx="11.556" ry="20.016" transform="matrix(0.005, -1, 1, 0.005, 3.152, 25.454)" fill="#012954"/>
        </g>
        <g id="Grupo_87791" data-name="Grupo 87791" transform="translate(0)">
          <path id="Trazado_102430" data-name="Trazado 102430" d="M1270.212,710.91c1.984-18.054,17.339-47.733,17.339-47.733-19.789,5.873-21.094,25.431-21.094,25.431Z" transform="translate(-1245.668 -644.627)" fill="#1a93ff"/>
          <path id="Trazado_102431" data-name="Trazado 102431" d="M1258.1,675.722c2.086-18.043-6.639-50.327-6.639-50.327,17.983,10.134,14.9,29.49,14.9,29.49Z" transform="translate(-1238.035 -625.395)" fill="#1a93ff"/>
          <path id="Trazado_102432" data-name="Trazado 102432" d="M1274.5,669.124c-16.519,3.729-26.5,32.641-26.5,32.641l0,.059c-.611-36.845-23.885-46.615-23.885-46.615,6.951,10.114,13.5,44.572,15.474,55.7a8.488,8.488,0,0,0,8.7,7.043q.353-.017.711-.056a8.394,8.394,0,0,0,7.2-6.82C1259.248,695.659,1274.5,669.124,1274.5,669.124Z" transform="translate(-1224.112 -640.571)" fill="#1a93ff"/>
        </g>
      </g>
      <g id="Grupo_87858" data-name="Grupo 87858" transform="translate(753.078 122.875)">
        <g id="Grupo_87826" data-name="Grupo 87826" transform="translate(2.271 9.751)">
          <g id="Grupo_87795" data-name="Grupo 87795" transform="translate(1.625)">
            <g id="Grupo_87794" data-name="Grupo 87794">
              <g id="Grupo_87793" data-name="Grupo 87793">
                <path id="Trazado_102433" data-name="Trazado 102433" d="M969.167,294.368,912.4,261.593c-4.491-2.593-8.131-9.548-8.131-15.536v-24.4c0-5.987,3.641-8.739,8.131-6.147l56.768,32.775c4.491,2.593,8.131,9.549,8.131,15.536v24.4C977.3,294.209,973.658,296.961,969.167,294.368Z" transform="translate(-904.267 -214.532)" fill="#c7e1f8"/>
              </g>
            </g>
          </g>
          <g id="Grupo_87814" data-name="Grupo 87814" transform="translate(0 10.912)">
            <g id="Grupo_87796" data-name="Grupo 87796" transform="translate(0 0)">
              <ellipse id="Elipse_4806" data-name="Elipse 4806" cx="9.2" cy="14.964" rx="9.2" ry="14.964" transform="translate(0 11.756) rotate(-39.71)" fill="#fff"/>
            </g>
            <g id="Grupo_87799" data-name="Grupo 87799" transform="translate(8.079 19.53)">
              <g id="Grupo_87798" data-name="Grupo 87798">
                <g id="Grupo_87797" data-name="Grupo 87797">
                  <path id="Trazado_102434" data-name="Trazado 102434" d="M921.594,276.675s-3.3-.3-4.18,1.618c4.76,7.532,13.716,10.721,16.8,8.305a6.972,6.972,0,0,0-.634-1.583,20.113,20.113,0,0,0-2.943-3.749l-2.076-2.141c.531,2.725-.238,3.761-2.708,2.585a4.681,4.681,0,0,1-2.7-5.174Z" transform="translate(-917.414 -276.536)" fill="#9c91ff"/>
                </g>
              </g>
            </g>
            <g id="Grupo_87800" data-name="Grupo 87800" transform="translate(11.876 10.577)">
              <path id="Trazado_102435" data-name="Trazado 102435" d="M931.5,268.506a5.762,5.762,0,0,1-4.215-2.629,10.539,10.539,0,0,1-.967-1.591,10.964,10.964,0,0,1-1.017-3.853c0-.036-.024-.307-.05-.637-.061-.748-.1-1.282-.105-1.344a.148.148,0,0,1,.184-.148.233.233,0,0,1,.191.212c0,.062.063.82.1,1.322.027.334.049.608.052.645a10.562,10.562,0,0,0,.98,3.71,10.056,10.056,0,0,0,.924,1.517c1.294,1.818,3.316,2.824,4.6,2.289a1.813,1.813,0,0,0,.744-.5,5.731,5.731,0,0,0,.931-3.173c0-.026.024-.309.049-.624.032-.4.068-.845.07-.885a.15.15,0,0,1,.2-.134.229.229,0,0,1,.179.219c0,.034-.029.378-.07.9-.025.31-.047.589-.049.615a5.922,5.922,0,0,1-.992,3.339,2.08,2.08,0,0,1-.858.59A2.3,2.3,0,0,1,931.5,268.506Z" transform="translate(-925.147 -258.302)" fill="#2c1f9c"/>
            </g>
            <g id="Grupo_87801" data-name="Grupo 87801" transform="translate(20.396 15.714)">
              <path id="Trazado_102436" data-name="Trazado 102436" d="M942.84,271.741a.707.707,0,0,1-.167-.018.229.229,0,0,1-.172-.225.15.15,0,0,1,.2-.127c.023,0,.61.124.921-.942a1.187,1.187,0,0,0-.051-.96.865.865,0,0,0-.414-.352.225.225,0,0,1-.155-.234.153.153,0,0,1,.213-.109,1.36,1.36,0,0,1,.667.551,1.528,1.528,0,0,1,.1,1.262C943.689,271.6,943.122,271.741,942.84,271.741Z" transform="translate(-942.5 -268.764)" fill="#2c1f9c"/>
            </g>
            <g id="Grupo_87802" data-name="Grupo 87802" transform="translate(10.952 11.079)">
              <path id="Trazado_102437" data-name="Trazado 102437" d="M924.792,262.949a.217.217,0,0,1-.121-.04,3.811,3.811,0,0,1-1.328-2.323c-.145-.664-.09-1.058.17-1.206a.774.774,0,0,1,.724.1.2.2,0,0,1,.088.255.171.171,0,0,1-.249.038h0c-.056-.035-.237-.125-.331-.071-.047.027-.189.171-.035.873a3.453,3.453,0,0,0,1.134,2.046.2.2,0,0,1,.078.256A.148.148,0,0,1,924.792,262.949Z" transform="translate(-923.265 -259.324)" fill="#2c1f9c"/>
            </g>
            <g id="Grupo_87803" data-name="Grupo 87803" transform="translate(14.358 18.61)">
              <path id="Trazado_102438" data-name="Trazado 102438" d="M933.757,280.556a2.979,2.979,0,0,1-1.25-.363c-2.539-1.245-2.3-3.042-2.3-3.06l.2-2.331a.156.156,0,0,1,.209-.131.236.236,0,0,1,.178.233l-.2,2.342c-.01.071-.187,1.529,2.028,2.615.661.324,1.136.4,1.411.228.377-.237.281-.891.28-.9l-.173-2.478a.154.154,0,0,1,.181-.164.242.242,0,0,1,.207.212l.172,2.462c0,.019.129.852-.412,1.194A.978.978,0,0,1,933.757,280.556Z" transform="translate(-930.203 -274.663)" fill="#2c1f9c"/>
            </g>
            <g id="Grupo_87804" data-name="Grupo 87804" transform="translate(18.35 21.16)">
              <path id="Trazado_102439" data-name="Trazado 102439" d="M944.858,288.463a.235.235,0,0,1-.217-.17,9.3,9.3,0,0,0-2.577-4.27c-1.954-1.9-3.66-3.862-3.677-3.882a.173.173,0,0,1,0-.253.2.2,0,0,1,.266.051c.017.019,1.71,1.961,3.649,3.852a9.893,9.893,0,0,1,2.7,4.477.147.147,0,0,1-.133.195Z" transform="translate(-938.333 -279.858)" fill="#2c1f9c"/>
            </g>
            <g id="Grupo_87805" data-name="Grupo 87805" transform="translate(7.924 19.177)">
              <path id="Trazado_102440" data-name="Trazado 102440" d="M917.321,278.2a.224.224,0,0,1-.214-.274,2.762,2.762,0,0,1,2.78-1.844H920a30.309,30.309,0,0,0,3.773-.266.232.232,0,0,1,.239.155.148.148,0,0,1-.115.207,30.763,30.763,0,0,1-3.825.27h-.115a2.456,2.456,0,0,0-2.5,1.662A.145.145,0,0,1,917.321,278.2Z" transform="translate(-917.097 -275.818)" fill="#2c1f9c"/>
            </g>
            <g id="Grupo_87806" data-name="Grupo 87806" transform="translate(13.619 19.348)">
              <path id="Trazado_102441" data-name="Trazado 102441" d="M933.273,282.221a4,4,0,0,1-1.626-.481,4.736,4.736,0,0,1-2.815-5.457.161.161,0,0,1,.229-.1.23.23,0,0,1,.152.247,4.246,4.246,0,0,0,2.543,4.975c.384.188,1.383.675,1.986.3.516-.323.673-1.2.464-2.608a.15.15,0,0,1,.164-.179.243.243,0,0,1,.22.2c.229,1.547.028,2.529-.6,2.919A1.338,1.338,0,0,1,933.273,282.221Z" transform="translate(-928.698 -276.167)" fill="#2c1f9c"/>
            </g>
            <g id="Grupo_87807" data-name="Grupo 87807" transform="translate(14.845 24.597)">
              <path id="Trazado_102442" data-name="Trazado 102442" d="M934.522,288.746h0a3.983,3.983,0,0,1-1.633-.478,6.3,6.3,0,0,1-1.625-1.111.181.181,0,0,1-.026-.257.193.193,0,0,1,.264.024,5.819,5.819,0,0,0,1.5,1.024,3.586,3.586,0,0,0,1.451.434.235.235,0,0,1,.219.184A.146.146,0,0,1,934.522,288.746Z" transform="translate(-931.194 -286.858)" fill="#2c1f9c"/>
            </g>
            <g id="Grupo_87808" data-name="Grupo 87808" transform="translate(17.109 12.091)">
              <path id="Trazado_102443" data-name="Trazado 102443" d="M940.517,265.337h0a.237.237,0,0,1-.209-.15s-.357-.746-2.96-2.331a7.96,7.96,0,0,1-1.475-1.175.179.179,0,0,1-.022-.256.194.194,0,0,1,.264.029,7.5,7.5,0,0,0,1.384,1.1,13.771,13.771,0,0,1,2.784,2.063,25.756,25.756,0,0,0-.237-2.59.146.146,0,0,1,.16-.172.236.236,0,0,1,.211.192,24.04,24.04,0,0,1,.253,3.14A.144.144,0,0,1,940.517,265.337Z" transform="translate(-935.805 -261.385)" fill="#2c1f9c"/>
            </g>
            <g id="Grupo_87809" data-name="Grupo 87809" transform="translate(14.254 5.746)">
              <path id="Trazado_102444" data-name="Trazado 102444" d="M937.1,254.37a.235.235,0,0,1-.214-.161,9.877,9.877,0,0,0-4.68-5.173,1.449,1.449,0,0,0-1.32-.076,1.521,1.521,0,0,0-.4,1.762,13.844,13.844,0,0,0,1.682,3,.166.166,0,0,1-.025.247.211.211,0,0,1-.264-.074,14.022,14.022,0,0,1-1.74-3.108,1.871,1.871,0,0,1,.489-2.137,1.705,1.705,0,0,1,1.671.052,10.428,10.428,0,0,1,4.946,5.459.148.148,0,0,1-.12.2Z" transform="translate(-929.991 -248.462)" fill="#2c1f9c"/>
            </g>
            <g id="Grupo_87810" data-name="Grupo 87810" transform="translate(10.884 5.324)">
              <path id="Trazado_102445" data-name="Trazado 102445" d="M923.56,253.026c-.137,0-.219-.006-.225-.006a.235.235,0,0,1-.166-.1.19.19,0,0,1-.034-.174,5.6,5.6,0,0,0,.31-1.661v-.025c-.041-.94.023-2.609.911-3.229a1.547,1.547,0,0,1,1.383-.136,5.015,5.015,0,0,1,1.208.6l.178.11a.2.2,0,0,1,.1.254.17.17,0,0,1-.247.045l-.182-.112a4.582,4.582,0,0,0-1.1-.551,1.2,1.2,0,0,0-1.084.1c-.808.563-.823,2.268-.792,2.974v.025a5.19,5.19,0,0,1-.244,1.519c.787,0,2.925-.219,3.056-2.388a.149.149,0,0,1,.2-.131.23.23,0,0,1,.177.222C926.858,252.835,924.336,253.026,923.56,253.026Z" transform="translate(-923.127 -247.602)" fill="#2c1f9c"/>
            </g>
            <g id="Grupo_87811" data-name="Grupo 87811" transform="translate(21.241 15.678)">
              <path id="Trazado_102446" data-name="Trazado 102446" d="M944.445,269.361a.228.228,0,0,1-.163-.074.176.176,0,0,1-.012-.255l.357-.3a.2.2,0,0,1,.265.038.176.176,0,0,1,.012.255l-.356.3A.155.155,0,0,1,944.445,269.361Z" transform="translate(-944.221 -268.691)" fill="#2c1f9c"/>
            </g>
            <g id="Grupo_87812" data-name="Grupo 87812" transform="translate(12.524 6.872)">
              <path id="Trazado_102447" data-name="Trazado 102447" d="M926.689,252.786a.215.215,0,0,1-.106-.03.207.207,0,0,1-.1-.252c.778-1.676,1.792-1.747,1.834-1.749a.239.239,0,0,1,.227.173.147.147,0,0,1-.134.192c-.018,0-.885.09-1.58,1.585A.146.146,0,0,1,926.689,252.786Z" transform="translate(-926.466 -250.755)" fill="#2c1f9c"/>
            </g>
            <g id="Grupo_87813" data-name="Grupo 87813" transform="translate(19.576 11.837)">
              <path id="Trazado_102448" data-name="Trazado 102448" d="M943.073,264.916a.236.236,0,0,1-.218-.17,11.674,11.674,0,0,0-1.981-3.606.166.166,0,0,1,.021-.248.208.208,0,0,1,.264.07,11.882,11.882,0,0,1,2.059,3.761.146.146,0,0,1-.133.194Z" transform="translate(-940.829 -260.867)" fill="#2c1f9c"/>
            </g>
          </g>
          <g id="Grupo_87825" data-name="Grupo 87825" transform="translate(32.237 25.451)">
            <g id="Grupo_87816" data-name="Grupo 87816">
              <g id="Grupo_87815" data-name="Grupo 87815">
                <path id="Trazado_102449" data-name="Trazado 102449" d="M970.145,267.047l.542,1.573a1.2,1.2,0,0,0,.392.554l1.212.9c.427.318.6,1.019.289,1.186l-.877.475a.412.412,0,0,0-.15.442l.207,1.5c.073.53-.374.645-.756.193L969.92,272.6a.679.679,0,0,0-.485-.28l-1.083.028c-.382.01-.829-.621-.756-1.067l.207-1.265a.976.976,0,0,0-.15-.616l-.877-1.487c-.309-.524-.138-1.029.289-.853l1.212.5a.289.289,0,0,0,.392-.1l.542-.947C969.4,266.173,969.954,266.492,970.145,267.047Z" transform="translate(-966.618 -266.371)" fill="#fdfdfd"/>
              </g>
            </g>
            <g id="Grupo_87818" data-name="Grupo 87818" transform="translate(7.107 4.284)">
              <g id="Grupo_87817" data-name="Grupo 87817">
                <path id="Trazado_102450" data-name="Trazado 102450" d="M984.62,275.772l.542,1.573a1.193,1.193,0,0,0,.392.553l1.212.9c.427.318.6,1.019.289,1.187l-.877.474a.412.412,0,0,0-.15.443l.207,1.5c.073.531-.374.645-.756.194l-1.084-1.279a.679.679,0,0,0-.485-.28l-1.083.028c-.383.01-.829-.621-.756-1.066l.207-1.265a.974.974,0,0,0-.15-.616l-.876-1.487c-.309-.524-.138-1.028.289-.853l1.212.5a.29.29,0,0,0,.392-.1l.542-.947C983.877,274.9,984.429,275.218,984.62,275.772Z" transform="translate(-981.093 -275.097)" fill="#fdfdfd"/>
              </g>
            </g>
            <g id="Grupo_87820" data-name="Grupo 87820" transform="translate(14.213 8.568)">
              <g id="Grupo_87819" data-name="Grupo 87819">
                <path id="Trazado_102451" data-name="Trazado 102451" d="M999.095,284.5l.542,1.573a1.2,1.2,0,0,0,.392.554l1.212.9c.427.318.6,1.019.289,1.186l-.876.475a.411.411,0,0,0-.15.442l.207,1.5c.073.53-.374.645-.756.193l-1.083-1.279a.679.679,0,0,0-.485-.28l-1.084.028c-.382.01-.829-.621-.756-1.067l.207-1.265a.975.975,0,0,0-.15-.616l-.877-1.487c-.309-.524-.138-1.029.289-.853l1.212.5a.289.289,0,0,0,.392-.1l.542-.947C998.351,283.624,998.9,283.943,999.095,284.5Z" transform="translate(-995.568 -283.822)" fill="#fdfdfd"/>
              </g>
            </g>
            <g id="Grupo_87822" data-name="Grupo 87822" transform="translate(21.32 12.852)">
              <g id="Grupo_87821" data-name="Grupo 87821">
                <path id="Trazado_102452" data-name="Trazado 102452" d="M1013.569,293.223l.542,1.573a1.2,1.2,0,0,0,.392.553l1.212.9c.427.318.6,1.019.289,1.187l-.877.474a.412.412,0,0,0-.15.442l.207,1.5c.073.531-.374.645-.756.194l-1.083-1.279a.68.68,0,0,0-.485-.28l-1.084.028c-.382.01-.829-.621-.756-1.066l.207-1.265a.976.976,0,0,0-.15-.616l-.877-1.487c-.309-.524-.139-1.028.289-.853l1.212.5a.289.289,0,0,0,.392-.1l.542-.947C1012.826,292.35,1013.378,292.669,1013.569,293.223Z" transform="translate(-1010.042 -292.548)" fill="#fdfdfd"/>
              </g>
            </g>
            <g id="Grupo_87824" data-name="Grupo 87824" transform="translate(28.426 17.136)">
              <g id="Grupo_87823" data-name="Grupo 87823">
                <path id="Trazado_102453" data-name="Trazado 102453" d="M1028.043,301.948l.542,1.573a1.2,1.2,0,0,0,.392.554l1.211.9c.428.318.6,1.019.289,1.186l-.876.475a.412.412,0,0,0-.15.442l.207,1.5c.073.53-.374.645-.756.193l-1.083-1.279a.679.679,0,0,0-.484-.28l-1.084.028c-.382.01-.829-.62-.755-1.066l.207-1.265a.976.976,0,0,0-.15-.616l-.877-1.487c-.309-.524-.139-1.029.289-.853l1.212.5a.289.289,0,0,0,.392-.1l.542-.947C1027.3,301.075,1027.853,301.394,1028.043,301.948Z" transform="translate(-1024.517 -301.273)" fill="#fdfdfd"/>
              </g>
            </g>
          </g>
          <path id="Trazado_102454" data-name="Trazado 102454" d="M1000.136,323.093l-27.69-15.987a2.665,2.665,0,0,1-1.114-2.127h0c0-.82.5-1.2,1.114-.842l27.69,15.987a2.667,2.667,0,0,1,1.114,2.127h0C1001.249,323.072,1000.75,323.448,1000.136,323.093Z" transform="translate(-936.781 -260.076)" fill="#fff"/>
          <path id="Trazado_102455" data-name="Trazado 102455" d="M984.227,302.453l-11.782-6.8a2.665,2.665,0,0,1-1.114-2.127h0c0-.82.5-1.2,1.114-.841l11.782,6.8a2.666,2.666,0,0,1,1.114,2.127h0C985.341,302.431,984.843,302.808,984.227,302.453Z" transform="translate(-936.781 -254.245)" fill="#fff"/>
          <path id="Trazado_102456" data-name="Trazado 102456" d="M1017.273,321.531l-10.86-6.27a2.666,2.666,0,0,1-1.114-2.127h0c0-.82.5-1.2,1.114-.842l10.86,6.27a2.666,2.666,0,0,1,1.114,2.127h0C1018.386,321.51,1017.888,321.886,1017.273,321.531Z" transform="translate(-954.071 -264.227)" fill="#fff"/>
        </g>
        <g id="Grupo_87856" data-name="Grupo 87856" transform="translate(4.009 71.49)">
          <g id="Grupo_87828" data-name="Grupo 87828">
            <g id="Grupo_87827" data-name="Grupo 87827" opacity="0.75">
              <path id="Trazado_102457" data-name="Trazado 102457" d="M967.752,418.095,912.423,386.15c-4.377-2.527-7.925-9.306-7.925-15.142V347.225c0-5.836,3.548-8.518,7.925-5.991l55.329,31.944c4.377,2.527,7.925,9.306,7.925,15.142V412.1C975.677,417.939,972.129,420.621,967.752,418.095Z" transform="translate(-904.498 -340.283)" fill="#9c91ff"/>
            </g>
          </g>
          <g id="Grupo_87848" data-name="Grupo 87848" transform="translate(0.1 9.663)">
            <g id="Grupo_87829" data-name="Grupo 87829" transform="translate(0)">
              <ellipse id="Elipse_4807" data-name="Elipse 4807" cx="8.896" cy="14.468" rx="8.896" ry="14.468" transform="translate(0 11.367) rotate(-39.71)" fill="#fff"/>
            </g>
            <g id="Grupo_87830" data-name="Grupo 87830" transform="translate(10.781 19.284)">
              <path id="Trazado_102458" data-name="Trazado 102458" d="M926.659,399.243a13.54,13.54,0,0,1,.565,5.434,15.984,15.984,0,0,0,10.084,4.671s-.088-3.95.612-4.272l-.016-.408-1.68-1.326-.952,2.53s-.642,1.318-2.891-.112-2.634-1.89-2.78-2.829-.729-3.28-.729-3.28Z" transform="translate(-926.659 -399.243)" fill="#2c1f9c"/>
            </g>
            <g id="Grupo_87831" data-name="Grupo 87831" transform="translate(17.856 19.922)">
              <path id="Trazado_102459" data-name="Trazado 102459" d="M941.448,403.645l-.025,0a.226.226,0,0,1-.192-.2l-.161-2.751a.142.142,0,0,1,.17-.151.226.226,0,0,1,.191.2l.161,2.75A.14.14,0,0,1,941.448,403.645Z" transform="translate(-941.07 -400.541)" fill="#2c1f9c"/>
            </g>
            <g id="Grupo_87832" data-name="Grupo 87832" transform="translate(14.657 18.451)">
              <path id="Trazado_102460" data-name="Trazado 102460" d="M934.771,400.479a.2.2,0,0,1-.047-.006.221.221,0,0,1-.168-.216l.187-2.581a.146.146,0,0,1,.193-.124.221.221,0,0,1,.168.216l-.188,2.581A.139.139,0,0,1,934.771,400.479Z" transform="translate(-934.555 -397.546)" fill="#2c1f9c"/>
            </g>
            <g id="Grupo_87833" data-name="Grupo 87833" transform="translate(11.378 11.391)">
              <path id="Trazado_102461" data-name="Trazado 102461" d="M929.354,386.671a.21.21,0,0,1-.118-.038,3.684,3.684,0,0,1-1.283-2.247c-.141-.642-.087-1.023.164-1.166a.745.745,0,0,1,.7.1.2.2,0,0,1,.086.247.167.167,0,0,1-.242.036c-.053-.034-.228-.12-.319-.068-.046.027-.183.165-.034.845a3.285,3.285,0,0,0,1.1,1.978.193.193,0,0,1,.078.248A.143.143,0,0,1,929.354,386.671Z" transform="translate(-927.876 -383.165)" fill="#2c1f9c"/>
            </g>
            <g id="Grupo_87834" data-name="Grupo 87834" transform="translate(18.037 21.079)">
              <path id="Trazado_102462" data-name="Trazado 102462" d="M948.118,410.49a.227.227,0,0,1-.211-.171,6.236,6.236,0,0,0-2.569-3.66,17.49,17.49,0,0,1-3.862-3.51.157.157,0,0,1,.039-.235.208.208,0,0,1,.253.084h0a17.575,17.575,0,0,0,3.752,3.4,6.661,6.661,0,0,1,2.741,3.915.141.141,0,0,1-.136.181Z" transform="translate(-941.44 -402.898)" fill="#2c1f9c"/>
            </g>
            <g id="Grupo_87835" data-name="Grupo 87835" transform="translate(8.041 19.046)">
              <path id="Trazado_102463" data-name="Trazado 102463" d="M921.3,401.062a.19.19,0,0,1-.056-.008.219.219,0,0,1-.16-.221c.21-1.716,1.221-2.373,3-1.952,2.836.67,3.7.288,3.709.284a.21.21,0,0,1,.252.09.155.155,0,0,1-.042.232c-.037.019-.941.445-3.937-.263-1.6-.379-2.434.167-2.623,1.716A.139.139,0,0,1,921.3,401.062Z" transform="translate(-921.08 -398.757)" fill="#2c1f9c"/>
            </g>
            <g id="Grupo_87836" data-name="Grupo 87836" transform="translate(10.599 19.108)">
              <path id="Trazado_102464" data-name="Trazado 102464" d="M927.072,404.357a.184.184,0,0,1-.036,0,.224.224,0,0,1-.18-.208l.011-2.247a9.176,9.176,0,0,0-.564-2.806.144.144,0,0,1,.1-.206.222.222,0,0,1,.235.141,9.37,9.37,0,0,1,.59,2.94l-.011,2.247A.139.139,0,0,1,927.072,404.357Z" transform="translate(-926.289 -398.884)" fill="#2c1f9c"/>
            </g>
            <g id="Grupo_87837" data-name="Grupo 87837" transform="translate(21.249 24.609)">
              <path id="Trazado_102465" data-name="Trazado 102465" d="M948.2,414.985a.182.182,0,0,1-.036,0,.223.223,0,0,1-.18-.208l.011-2.247a4.8,4.8,0,0,1,.624-2.374.171.171,0,0,1,.246-.024.192.192,0,0,1,.073.248,4.581,4.581,0,0,0-.581,2.219l-.011,2.247A.139.139,0,0,1,948.2,414.985Z" transform="translate(-947.98 -410.088)" fill="#2c1f9c"/>
            </g>
            <g id="Grupo_87838" data-name="Grupo 87838" transform="translate(12.813 19.515)">
              <path id="Trazado_102466" data-name="Trazado 102466" d="M936.5,406.867a5.718,5.718,0,0,1-2.163-.763c-1.836-.9-2.791-2.074-2.92-3.6a12.146,12.146,0,0,0-.605-2.586.144.144,0,0,1,.107-.2.221.221,0,0,1,.233.146,12.263,12.263,0,0,1,.627,2.682c.115,1.368.988,2.432,2.667,3.252,1.077.526,1.766.835,2.254.681a1.181,1.181,0,0,0,.68-.844c.452-1.319.78-2.135.783-2.143a.16.16,0,0,1,.232-.061.2.2,0,0,1,.11.242c0,.008-.329.818-.778,2.129a1.427,1.427,0,0,1-.857,1.015A1.22,1.22,0,0,1,936.5,406.867Z" transform="translate(-930.799 -399.712)" fill="#2c1f9c"/>
            </g>
            <g id="Grupo_87839" data-name="Grupo 87839" transform="translate(12.116 6.747)">
              <path id="Trazado_102467" data-name="Trazado 102467" d="M938.752,391.413a.228.228,0,0,1-.2-.14,18.693,18.693,0,0,1-1.078-5.463,4.171,4.171,0,0,1-.338.549,2.016,2.016,0,0,1-.829.57c-1.4.581-3.565-.465-4.93-2.382a10.155,10.155,0,0,1-.935-1.538,12.025,12.025,0,0,1-.992-4.287,2.356,2.356,0,0,1,1.261-2.889c.89-.526.41-1.908.405-1.922a.144.144,0,0,1,.092-.2.218.218,0,0,1,.233.109,12.24,12.24,0,0,0,1.957,2.411c.133.129.286.271.453.426,1.542,1.436,4.124,3.84,3.973,6.871a19.544,19.544,0,0,0,1.06,7.669.145.145,0,0,1-.1.209A.18.18,0,0,1,938.752,391.413Zm-7.14-16.742a1.512,1.512,0,0,1-.673,1.473,2.078,2.078,0,0,0-1.131,2.6.157.157,0,0,1,0,.021,11.628,11.628,0,0,0,.958,4.154,9.65,9.65,0,0,0,.894,1.467c1.25,1.758,3.206,2.73,4.45,2.213a1.757,1.757,0,0,0,.719-.487,6.009,6.009,0,0,0,.608-1.137c-.01-.49,0-1,.022-1.53.141-2.854-2.347-5.171-3.834-6.556-.169-.157-.323-.3-.459-.432A13.646,13.646,0,0,1,931.612,374.671Z" transform="translate(-929.378 -373.707)" fill="#2c1f9c"/>
            </g>
            <g id="Grupo_87840" data-name="Grupo 87840" transform="translate(21.53 17.27)">
              <path id="Trazado_102468" data-name="Trazado 102468" d="M950.618,404.218a.227.227,0,0,1-.2-.138c-.094-.221-2.288-5.458-1.789-8.82a.148.148,0,0,1,.2-.109.218.218,0,0,1,.155.224c-.485,3.268,1.739,8.575,1.762,8.628a.146.146,0,0,1-.093.211A.162.162,0,0,1,950.618,404.218Z" transform="translate(-948.554 -395.14)" fill="#2c1f9c"/>
            </g>
            <g id="Grupo_87841" data-name="Grupo 87841" transform="translate(13.842 6.31)">
              <path id="Trazado_102469" data-name="Trazado 102469" d="M940.987,382.939a.184.184,0,0,1-.043,0,.222.222,0,0,1-.173-.213c.189-4.227-2.029-7.636-4.317-8.818-2.443-1.263-3.226-.5-3.234-.5a.186.186,0,0,1-.254-.017.178.178,0,0,1-.035-.247c.037-.04.922-.951,3.641.454,2.416,1.249,4.757,4.811,4.561,9.206A.139.139,0,0,1,940.987,382.939Z" transform="translate(-932.895 -372.817)" fill="#2c1f9c"/>
            </g>
            <g id="Grupo_87842" data-name="Grupo 87842" transform="translate(11.418 6.214)">
              <path id="Trazado_102470" data-name="Trazado 102470" d="M928.438,377.939h0a.227.227,0,0,1-.212-.177c-.969-5,.993-5.146,1.212-5.14a1.971,1.971,0,0,1,1.247.6.171.171,0,0,1,.012.247.192.192,0,0,1-.256-.037h0a1.539,1.539,0,0,0-.933-.462h0c-.081,0-1.843.057-.925,4.789A.141.141,0,0,1,928.438,377.939Z" transform="translate(-927.958 -372.622)" fill="#2c1f9c"/>
            </g>
            <g id="Grupo_87843" data-name="Grupo 87843" transform="translate(11.79 14.466)">
              <path id="Trazado_102471" data-name="Trazado 102471" d="M928.931,394.677a.208.208,0,0,1-.115-.037.194.194,0,0,1-.082-.247c.868-1.494.673-4.78.671-4.812a.142.142,0,0,1,.17-.151.225.225,0,0,1,.192.2c.009.138.2,3.413-.708,4.981A.143.143,0,0,1,928.931,394.677Z" transform="translate(-928.715 -389.428)" fill="#2c1f9c"/>
            </g>
            <g id="Grupo_87844" data-name="Grupo 87844" transform="translate(17.893 12.37)">
              <path id="Trazado_102472" data-name="Trazado 102472" d="M943.527,388.058a.227.227,0,0,1-.191-.117,10.291,10.291,0,0,0-2.113-2.482.164.164,0,1,1,.207-.245,10.536,10.536,0,0,1,2.218,2.609.15.15,0,0,1-.063.225A.163.163,0,0,1,943.527,388.058Z" transform="translate(-941.145 -385.159)" fill="#2c1f9c"/>
            </g>
            <g id="Grupo_87845" data-name="Grupo 87845" transform="translate(14.124 7.189)">
              <path id="Trazado_102473" data-name="Trazado 102473" d="M936.6,379.468a.212.212,0,0,1-.125-.043q-.236-.173-.5-.352a5.813,5.813,0,0,1-2.511-4.319.143.143,0,0,1,.175-.146.225.225,0,0,1,.188.2,5.485,5.485,0,0,0,2.315,3.986c.18.122.35.243.511.361a.189.189,0,0,1,.067.249A.144.144,0,0,1,936.6,379.468Z" transform="translate(-933.47 -374.606)" fill="#2c1f9c"/>
            </g>
            <g id="Grupo_87846" data-name="Grupo 87846" transform="translate(8.806 13.25)">
              <path id="Trazado_102474" data-name="Trazado 102474" d="M922.854,393.43a.187.187,0,0,1-.043,0,.222.222,0,0,1-.173-.213c.037-.829.716-1.308,1.315-1.731a3.792,3.792,0,0,0,.812-.686c.541-.7.772-3.682.775-3.712a.145.145,0,0,1,.194-.124.222.222,0,0,1,.168.217c-.01.126-.241,3.1-.832,3.864a3.952,3.952,0,0,1-.869.74c-.576.406-1.17.826-1.2,1.515A.139.139,0,0,1,922.854,393.43Z" transform="translate(-922.638 -386.953)" fill="#2c1f9c"/>
            </g>
            <g id="Grupo_87847" data-name="Grupo 87847" transform="translate(14.532 25.293)">
              <path id="Trazado_102475" data-name="Trazado 102475" d="M938.153,413.609a.2.2,0,0,1-.034,0,7.553,7.553,0,0,1-3.755-1.84.173.173,0,0,1-.021-.247.188.188,0,0,1,.255.028,7.24,7.24,0,0,0,3.518,1.712.224.224,0,0,1,.182.206A.139.139,0,0,1,938.153,413.609Z" transform="translate(-934.3 -411.481)" fill="#2c1f9c"/>
            </g>
          </g>
          <g id="Grupo_87855" data-name="Grupo 87855" transform="translate(30.267 24.576)">
            <g id="Grupo_87854" data-name="Grupo 87854">
              <g id="Grupo_87849" data-name="Grupo 87849">
                <path id="Trazado_102476" data-name="Trazado 102476" d="M969.582,391l.528,1.533a1.169,1.169,0,0,0,.383.539l1.181.879c.416.31.583.993.281,1.156l-.854.462a.4.4,0,0,0-.146.431l.2,1.466c.071.517-.364.629-.737.189l-1.056-1.247a.661.661,0,0,0-.472-.273l-1.057.028c-.372.01-.808-.6-.736-1.039l.2-1.233a.952.952,0,0,0-.146-.6l-.854-1.449c-.3-.511-.135-1,.281-.832l1.181.485a.282.282,0,0,0,.382-.1l.528-.923C968.858,390.147,969.4,390.457,969.582,391Z" transform="translate(-966.146 -390.34)" fill="#fdfdfd"/>
              </g>
              <g id="Grupo_87850" data-name="Grupo 87850" transform="translate(6.926 4.175)">
                <path id="Trazado_102477" data-name="Trazado 102477" d="M983.69,399.5l.528,1.532a1.158,1.158,0,0,0,.382.54l1.181.879c.416.31.582.993.281,1.156l-.855.462a.4.4,0,0,0-.146.431l.2,1.466c.071.517-.364.629-.737.189l-1.056-1.247a.667.667,0,0,0-.473-.273l-1.056.028c-.373.01-.807-.6-.737-1.039l.2-1.233a.95.95,0,0,0-.146-.6l-.855-1.449c-.3-.511-.135-1,.282-.831l1.181.485a.282.282,0,0,0,.383-.1l.528-.923C982.966,398.651,983.5,398.962,983.69,399.5Z" transform="translate(-980.253 -398.844)" fill="#fdfdfd"/>
              </g>
              <g id="Grupo_87851" data-name="Grupo 87851" transform="translate(13.853 8.35)">
                <path id="Trazado_102478" data-name="Trazado 102478" d="M997.8,408.006l.528,1.533a1.164,1.164,0,0,0,.382.539l1.181.879c.416.31.583.993.281,1.156l-.854.462a.4.4,0,0,0-.146.432l.2,1.466c.071.517-.364.628-.736.189l-1.056-1.247a.662.662,0,0,0-.472-.272l-1.057.027c-.372.009-.808-.6-.736-1.04l.2-1.233a.952.952,0,0,0-.146-.6l-.854-1.449c-.3-.511-.135-1,.281-.831l1.181.485a.282.282,0,0,0,.383-.1l.528-.923C997.073,407.155,997.611,407.466,997.8,408.006Z" transform="translate(-994.361 -407.348)" fill="#fdfdfd"/>
              </g>
              <g id="Grupo_87852" data-name="Grupo 87852" transform="translate(20.779 12.526)">
                <path id="Trazado_102479" data-name="Trazado 102479" d="M1011.905,416.51l.528,1.533a1.168,1.168,0,0,0,.382.54l1.181.878c.416.31.583.993.281,1.156l-.855.462a.4.4,0,0,0-.146.432l.2,1.466c.071.517-.364.628-.737.189l-1.056-1.247a.661.661,0,0,0-.473-.273l-1.056.027c-.373.009-.808-.6-.737-1.04l.2-1.233a.948.948,0,0,0-.146-.6l-.854-1.449c-.3-.511-.135-1,.281-.831l1.181.485a.283.283,0,0,0,.383-.1l.528-.923C1011.181,415.659,1011.719,415.97,1011.905,416.51Z" transform="translate(-1008.468 -415.852)" fill="#fdfdfd"/>
              </g>
              <g id="Grupo_87853" data-name="Grupo 87853" transform="translate(27.705 16.701)">
                <path id="Trazado_102480" data-name="Trazado 102480" d="M1026.013,425.014l.528,1.533a1.169,1.169,0,0,0,.383.54l1.181.879c.416.31.583.993.281,1.156l-.854.462a.4.4,0,0,0-.146.431l.2,1.466c.071.517-.364.629-.736.189l-1.057-1.247a.661.661,0,0,0-.472-.273l-1.056.027c-.373.01-.808-.6-.737-1.039l.2-1.233a.952.952,0,0,0-.146-.6l-.855-1.449c-.3-.511-.135-1,.281-.832l1.181.485a.282.282,0,0,0,.382-.1l.528-.923C1025.288,424.163,1025.827,424.474,1026.013,425.014Z" transform="translate(-1022.576 -424.356)" fill="#fdfdfd"/>
              </g>
            </g>
          </g>
          <path id="Trazado_102481" data-name="Trazado 102481" d="M994.081,444.918l-26.988-15.581a2.6,2.6,0,0,1-1.086-2.073h0c0-.8.486-1.167,1.086-.82l26.988,15.581a2.6,2.6,0,0,1,1.085,2.073h0C995.167,444.9,994.681,445.264,994.081,444.918Z" transform="translate(-935.809 -384.075)" fill="#fff"/>
          <path id="Trazado_102482" data-name="Trazado 102482" d="M978.577,424.8l-11.483-6.63a2.6,2.6,0,0,1-1.086-2.073h0c0-.8.486-1.167,1.086-.82l11.483,6.63a2.6,2.6,0,0,1,1.085,2.073h0C979.662,424.78,979.176,425.147,978.577,424.8Z" transform="translate(-935.809 -378.391)" fill="#fff"/>
          <path id="Trazado_102483" data-name="Trazado 102483" d="M1010.784,443.4l-10.585-6.111a2.6,2.6,0,0,1-1.085-2.073h0c0-.8.485-1.167,1.085-.82l10.585,6.111a2.6,2.6,0,0,1,1.085,2.073h0C1011.869,443.375,1011.383,443.742,1010.784,443.4Z" transform="translate(-952.661 -388.121)" fill="#fff"/>
        </g>
        <path id="Trazado_102484" data-name="Trazado 102484" d="M912.947,207.389c-.307,5.129-4.271,7.958-8.854,6.319s-8.049-7.124-7.741-12.252,4.271-7.958,8.854-6.319S913.254,202.261,912.947,207.389Z" transform="translate(-896.332 -194.672)" fill="#1a93ff"/>
        <g id="Grupo_87857" data-name="Grupo 87857" transform="translate(1.111 3.449)">
          <path id="Trazado_102485" data-name="Trazado 102485" d="M898.813,204.348l4.453,9.155a2.117,2.117,0,0,0,3.545.655l4.468-4.869c1.818-1.982-1.349-4.7-3.163-2.719l-4.468,4.869,3.545.655-4.453-9.156c-1.161-2.386-5.1-1.01-3.928,1.409Z" transform="translate(-898.596 -201.698)" fill="#fff"/>
        </g>
      </g>
      <path id="Trazado_102486" data-name="Trazado 102486" d="M633.058,827.441l61.384-31.7,53.813,31.851-62.227,33.46Z" transform="translate(-9.239 -377.761)" fill="#dcefff"/>
      <path id="Trazado_102487" data-name="Trazado 102487" d="M793.806,756.639l-168.6-99.789,4.643-1.1,96.882-57.009,168.991,97.567Z" transform="translate(-5.242 -277.483)" fill="#dcefff"/>
      <g id="Grupo_87872" data-name="Grupo 87872" transform="translate(689.523 359.483)">
        <path id="Trazado_102488" data-name="Trazado 102488" d="M766.884,688.289c43.311-32.622,28.852,10.651,28.708,36.72" transform="translate(-766.884 -676.594)" fill="none" stroke="#ffc2b0" stroke-linecap="round" stroke-linejoin="round" stroke-width="8.642"/>
        <g id="Grupo_87865" data-name="Grupo 87865" transform="translate(19.268 46.569)">
          <g id="Grupo_87860" data-name="Grupo 87860" transform="translate(7 2.221)">
            <g id="Grupo_87859" data-name="Grupo 87859">
              <path id="Trazado_102489" data-name="Trazado 102489" d="M820.387,783.174l2.2,6.747c.755,1.133,3.258,3.051,4.5,2.488,5.14-2.334,18.913-7.3,16.579-13.37-2.935-7.629-22.391,1.365-22.391,1.365Z" transform="translate(-820.387 -775.969)" fill="#483ac7"/>
            </g>
          </g>
          <path id="Trazado_102490" data-name="Trazado 102490" d="M823.923,776.678s7.752-1.045,11.34,1.568c1.41,1.026.107,2.613-2.44,3.814-5.017,2.365-10.8,1.686-13.575-2.17l-1.785-1.07Z" transform="translate(-811.899 -774.004)" fill="#ffc2b0"/>
          <g id="Grupo_87862" data-name="Grupo 87862" transform="translate(0.359 1.846)">
            <g id="Grupo_87861" data-name="Grupo 87861">
              <path id="Trazado_102491" data-name="Trazado 102491" d="M806.874,777.28l1.872,15.944a1.852,1.852,0,0,0,.752,1.283h0a1.853,1.853,0,0,0,2.94-1.4l.7-13.277a1.853,1.853,0,0,0-.517-1.386l-2.576-2.667A1.853,1.853,0,0,0,806.874,777.28Z" transform="translate(-806.86 -775.205)" fill="#483ac7"/>
            </g>
          </g>
          <g id="Grupo_87864" data-name="Grupo 87864">
            <g id="Grupo_87863" data-name="Grupo 87863">
              <path id="Trazado_102492" data-name="Trazado 102492" d="M808.344,771.445s-4.66,3.376-.463,13.292c.056.134.085.524.175.405,4.116-5.466,7.274,0,7.274,0l11.579-4.916a15.035,15.035,0,0,1-13.781-4.45C811.492,774.082,808.344,771.445,808.344,771.445Z" transform="translate(-806.129 -771.445)" fill="#483ac7"/>
            </g>
          </g>
        </g>
        <g id="Grupo_87867" data-name="Grupo 87867" transform="translate(42.345 57.977)">
          <g id="Grupo_87866" data-name="Grupo 87866">
            <path id="Trazado_102493" data-name="Trazado 102493" d="M853.133,801.886l2.2,6.747c.755,1.134,3.258,3.051,4.5,2.488,5.139-2.334,18.912-7.305,16.578-13.37-2.935-7.63-22.391,1.365-22.391,1.365Z" transform="translate(-853.133 -794.681)" fill="#483ac7"/>
          </g>
        </g>
        <path id="Trazado_102494" data-name="Trazado 102494" d="M856.67,795.39s7.751-1.045,11.34,1.568c1.41,1.027.107,2.614-2.44,3.814-5.017,2.365-10.8,1.685-13.575-2.17l-1.785-1.07Z" transform="translate(-809.3 -736.96)" fill="#ffc2b0"/>
        <path id="Trazado_102495" data-name="Trazado 102495" d="M777.726,698.093c23.51-1.586,38.636-12.954,39.575-2.768,1.236,13.4-1.222,33.345-.965,48.106" transform="translate(-772.403 -683.994)" fill="none" stroke="#ffc2b0" stroke-linecap="round" stroke-linejoin="round" stroke-width="8.642"/>
        <g id="Grupo_87869" data-name="Grupo 87869" transform="translate(35.704 57.601)">
          <g id="Grupo_87868" data-name="Grupo 87868">
            <path id="Trazado_102496" data-name="Trazado 102496" d="M839.621,795.992l1.872,15.944a1.854,1.854,0,0,0,.751,1.283h0a1.853,1.853,0,0,0,2.94-1.4l.7-13.278a1.854,1.854,0,0,0-.518-1.385l-2.576-2.667A1.853,1.853,0,0,0,839.621,795.992Z" transform="translate(-839.607 -793.917)" fill="#483ac7"/>
          </g>
        </g>
        <g id="Grupo_87871" data-name="Grupo 87871" transform="translate(35.345 55.755)">
          <g id="Grupo_87870" data-name="Grupo 87870">
            <path id="Trazado_102497" data-name="Trazado 102497" d="M841.09,790.157s-4.66,3.376-.463,13.292c.057.134.085.523.175.4,4.116-5.466,7.274,0,7.274,0l11.579-4.917a15.037,15.037,0,0,1-13.781-4.45C844.238,792.794,841.09,790.157,841.09,790.157Z" transform="translate(-838.875 -790.157)" fill="#483ac7"/>
          </g>
        </g>
      </g>
      <path id="Trazado_102498" data-name="Trazado 102498" d="M707.279,709.082l-52.42-30.265c-4.858-2.8-2.892-8.957,4.369-13.671l18.843-12.235c7.26-4.714,17.176-6.277,22.034-3.472l52.42,30.265c4.858,2.8,2.892,8.957-4.369,13.671L729.313,705.61C722.052,710.324,712.137,711.887,707.279,709.082Z" transform="translate(-18.979 -302.579)" fill="#3d62c4"/>
      <g id="Grupo_87873" data-name="Grupo 87873" transform="translate(667.762 353.077)">
        <path id="Trazado_102499" data-name="Trazado 102499" d="M752.23,702.675l35.186-15.523s-9.01-29.231-28.365-22.635a391.468,391.468,0,0,0-36.492,14.327l.19,8.864C720.356,716.157,741.167,709.217,752.23,702.675Z" transform="translate(-722.56 -663.547)" fill="#483ac7"/>
      </g>
      <g id="Grupo_87875" data-name="Grupo 87875" transform="translate(879.727 338.543)">
        <g id="Grupo_87874" data-name="Grupo 87874" transform="translate(0)">
          <path id="Trazado_102500" data-name="Trazado 102500" d="M1166.794,714.529l.452-.058a2.472,2.472,0,0,0,2.137-2.767l-9.715-75.6a2.472,2.472,0,0,0-2.767-2.137l-.452.058a2.473,2.473,0,0,0-2.137,2.767l9.716,75.6A2.473,2.473,0,0,0,1166.794,714.529Z" transform="translate(-1154.291 -633.944)" fill="#6359c2"/>
        </g>
      </g>
      <g id="Grupo_87877" data-name="Grupo 87877" transform="translate(785.867 352.841)">
        <g id="Grupo_87876" data-name="Grupo 87876">
          <path id="Trazado_102501" data-name="Trazado 102501" d="M965.561,790.372h0a2.674,2.674,0,0,1-2.435-2.894l10.505-121.967a2.674,2.674,0,0,1,2.893-2.435h0a2.674,2.674,0,0,1,2.435,2.894l-10.5,121.967A2.674,2.674,0,0,1,965.561,790.372Z" transform="translate(-963.117 -663.067)" fill="#6359c2"/>
        </g>
      </g>
      <g id="Grupo_87879" data-name="Grupo 87879" transform="translate(791.759 394.082)">
        <g id="Grupo_87878" data-name="Grupo 87878">
          <path id="Trazado_102502" data-name="Trazado 102502" d="M980.205,765.2l-5.088-3.481,1.454-14.651,5.419.847Z" transform="translate(-975.118 -747.065)" fill="#40379c"/>
        </g>
      </g>
      <g id="Grupo_87881" data-name="Grupo 87881" transform="translate(880.892 352.666)">
        <g id="Grupo_87880" data-name="Grupo 87880" transform="translate(0 0)">
          <path id="Trazado_102503" data-name="Trazado 102503" d="M1159.331,681l4.9-3.737-2.2-14.557-5.368,1.123Z" transform="translate(-1156.663 -662.71)" fill="#40379c"/>
        </g>
      </g>
      <g id="Grupo_87882" data-name="Grupo 87882" transform="translate(622.896 235.885)">
        <rect id="Rect치ngulo_34023" data-name="Rect치ngulo 34023" width="14.18" height="8.235" transform="translate(0.045 51.758)" fill="#6198d9"/>
        <rect id="Rect치ngulo_34024" data-name="Rect치ngulo 34024" width="14.18" height="8.236" transform="translate(257.867 104.415)" fill="#6198d9"/>
        <path id="Trazado_102504" data-name="Trazado 102504" d="M808.167,596.935,633.03,495.82c-2.746-1.585-2.4-4.354.769-6.184l81.722-47.182c3.171-1.83,7.966-2.029,10.712-.444L901.37,543.124c2.746,1.585,2.4,4.354-.769,6.184l-81.722,47.182C815.709,598.321,810.913,598.52,808.167,596.935Z" transform="translate(-631.177 -433.04)" fill="#6198d9"/>
        <path id="Trazado_102505" data-name="Trazado 102505" d="M808.167,580.846,633.03,479.731c-2.746-1.585-2.4-4.354.769-6.184l81.722-47.182c3.171-1.83,7.966-2.029,10.712-.444L901.37,527.035c2.746,1.585,2.4,4.354-.769,6.184L818.879,580.4C815.709,582.232,810.913,582.431,808.167,580.846Z" transform="translate(-631.177 -424.85)" fill="#cfe4ff"/>
      </g>
      <path id="Trazado_102506" data-name="Trazado 102506" d="M902.579,541.615l-72.539-41.88a1.329,1.329,0,0,0-1.34.006l-22.022,13a1.329,1.329,0,0,0,.011,2.3l72.294,41.739a1.328,1.328,0,0,0,1.329,0l22.266-12.855A1.329,1.329,0,0,0,902.579,541.615Z" transform="translate(-97.285 -226.993)" fill="#83a7d1"/>
      <g id="Grupo_87883" data-name="Grupo 87883" transform="translate(708.94 269.747)">
        <path id="Trazado_102507" data-name="Trazado 102507" d="M879.39,551.038,807.1,509.3a1.329,1.329,0,0,1-.011-2.3l22.021-13a1.328,1.328,0,0,1,1.34-.006l72.539,41.88a1.329,1.329,0,0,1,0,2.3l-22.267,12.856A1.33,1.33,0,0,1,879.39,551.038Z" transform="translate(-806.432 -493.822)" fill="#fff"/>
        <path id="Trazado_102508" data-name="Trazado 102508" d="M854.131,502.154a.613.613,0,0,1-.53-.061l-4.877-2.815c-.176-.1-.224-.239-.107-.306l3.231-1.866a.613.613,0,0,1,.531.062l4.877,2.814c.176.1.224.239.107.306Z" transform="translate(-827.873 -495.475)" fill="#e9f5ff"/>
        <path id="Trazado_102509" data-name="Trazado 102509" d="M865.656,519.271a.609.609,0,0,1-.532-.061l-4.877-2.814c-.176-.1-.222-.238-.1-.306l3.232-1.867a.612.612,0,0,1,.527.062l4.877,2.814c.178.1.224.24.109.306Z" transform="translate(-833.739 -504.188)" fill="#e9f5ff"/>
        <path id="Trazado_102510" data-name="Trazado 102510" d="M859.83,526.377a.612.612,0,0,1-.529-.062l-4.878-2.815c-.173-.1-.225-.238-.108-.306l3.232-1.867a.619.619,0,0,1,.528.063l4.878,2.815c.175.1.223.239.109.3Z" transform="translate(-830.774 -507.805)" fill="#e9f5ff"/>
        <path id="Trazado_102511" data-name="Trazado 102511" d="M844.071,527.749a.612.612,0,0,1-.528-.061l-4.878-2.814c-.174-.1-.222-.239-.107-.305l3.232-1.867a.617.617,0,0,1,.529.061l4.877,2.815c.175.1.221.239.106.306Z" transform="translate(-822.753 -508.504)" fill="#e9f5ff"/>
        <path id="Trazado_102512" data-name="Trazado 102512" d="M832.1,532.291a.788.788,0,0,1-.63-.119l-6.39-3.688c-.229-.132-.323-.3-.206-.363l3.795-2.192a.8.8,0,0,1,.628.119l6.39,3.687c.232.134.322.3.208.364Z" transform="translate(-815.793 -510.151)" fill="#e9f5ff"/>
        <path id="Trazado_102513" data-name="Trazado 102513" d="M919.379,584.163a.6.6,0,0,1-.494-.082l-4.874-2.812c-.178-.1-.244-.232-.146-.288l1.4-.81a.612.612,0,0,1,.5.084l4.873,2.812c.176.1.239.23.143.285Z" transform="translate(-861.096 -537.763)" fill="#e9f5ff"/>
        <path id="Trazado_102514" data-name="Trazado 102514" d="M932.651,592.021a.6.6,0,0,1-.494-.083l-4.873-2.812c-.178-.1-.243-.231-.147-.288l1.4-.81a.61.61,0,0,1,.5.084l4.873,2.812c.176.1.239.23.143.286Z" transform="translate(-867.852 -541.763)" fill="#e9f5ff"/>
        <path id="Trazado_102515" data-name="Trazado 102515" d="M946.725,599.99a.6.6,0,0,1-.488-.087l-4.875-2.813c-.175-.1-.245-.229-.152-.283l1.352-.781a.61.61,0,0,1,.49.087l4.875,2.813c.176.1.243.229.15.282Z" transform="translate(-875.017 -545.835)" fill="#e9f5ff"/>
        <path id="Trazado_102516" data-name="Trazado 102516" d="M938.071,589.024a.6.6,0,0,1-.489-.087l-4.875-2.813c-.175-.1-.245-.229-.152-.283l1.352-.781a.61.61,0,0,1,.49.087l4.875,2.813c.176.1.243.229.15.282Z" transform="translate(-870.612 -540.253)" fill="#e9f5ff"/>
        <path id="Trazado_102517" data-name="Trazado 102517" d="M874.34,556.663a.62.62,0,0,1-.533-.063L842.07,538.284c-.173-.1-.225-.239-.108-.306l3.794-2.192a.628.628,0,0,1,.531.062l31.737,18.315c.177.1.224.242.11.307Z" transform="translate(-824.486 -515.165)" fill="#e9f5ff"/>
        <path id="Trazado_102518" data-name="Trazado 102518" d="M874.635,557.129a1.855,1.855,0,0,1-.269-.14l-25.259-14.577a1.535,1.535,0,0,1-.241-.154l.236-.136a1.827,1.827,0,0,1,.267.139l25.259,14.577a1.546,1.546,0,0,1,.243.155Z" transform="translate(-828.032 -518.408)" fill="#e9f5ff"/>
        <path id="Trazado_102519" data-name="Trazado 102519" d="M857.686,535.6a.614.614,0,0,1-.53-.062l-4.877-2.814c-.173-.1-.224-.24-.109-.306l3.232-1.867a.623.623,0,0,1,.531.062l4.877,2.814c.177.1.223.24.107.306Z" transform="translate(-829.683 -512.499)" fill="#e9f5ff"/>
        <path id="Trazado_102520" data-name="Trazado 102520" d="M871.365,543.494a.619.619,0,0,1-.528-.061l-4.876-2.814c-.175-.1-.224-.24-.109-.306l3.232-1.867a.621.621,0,0,1,.532.062l4.877,2.814c.173.1.221.239.105.305Z" transform="translate(-836.646 -516.518)" fill="#e9f5ff"/>
        <path id="Trazado_102521" data-name="Trazado 102521" d="M885.044,551.387a.615.615,0,0,1-.528-.061l-4.877-2.815c-.174-.1-.222-.238-.106-.3l3.232-1.867a.615.615,0,0,1,.529.06l4.878,2.815c.174.1.221.238.105.305Z" transform="translate(-843.61 -520.536)" fill="#e9f5ff"/>
        <path id="Trazado_102522" data-name="Trazado 102522" d="M898.72,559.28a.613.613,0,0,1-.528-.061l-4.877-2.815c-.177-.1-.224-.24-.109-.306l3.232-1.867a.617.617,0,0,1,.531.062l4.878,2.815c.175.1.221.239.106.305Z" transform="translate(-850.57 -524.553)" fill="#e9f5ff"/>
        <path id="Trazado_102523" data-name="Trazado 102523" d="M912.4,567.174a.62.62,0,0,1-.532-.064l-4.876-2.813c-.174-.1-.221-.238-.106-.3l3.232-1.867a.617.617,0,0,1,.529.061L915.522,565c.176.1.225.241.109.308Z" transform="translate(-857.534 -528.572)" fill="#e9f5ff"/>
        <path id="Trazado_102524" data-name="Trazado 102524" d="M926.079,575.062a.619.619,0,0,1-.53-.062l-4.876-2.814c-.176-.1-.224-.24-.109-.306l3.232-1.867a.617.617,0,0,1,.531.062l4.876,2.814c.175.1.223.24.107.306Z" transform="translate(-864.497 -532.587)" fill="#e9f5ff"/>
        <path id="Trazado_102525" data-name="Trazado 102525" d="M948.168,587.809a.617.617,0,0,1-.53-.062l-13.287-7.667c-.176-.1-.223-.24-.108-.306l3.232-1.867a.617.617,0,0,1,.53.061l13.288,7.668c.175.1.222.24.107.306Z" transform="translate(-871.46 -536.605)" fill="#e9f5ff"/>
        <path id="Trazado_102526" data-name="Trazado 102526" d="M873.444,534.227a.6.6,0,0,1-.527-.061l-4.878-2.815c-.175-.1-.224-.237-.107-.3l3.233-1.868a.615.615,0,0,1,.527.062l4.878,2.815c.176.1.221.238.107.3Z" transform="translate(-837.705 -511.801)" fill="#e9f5ff"/>
        <path id="Trazado_102527" data-name="Trazado 102527" d="M887.124,542.122a.614.614,0,0,1-.528-.062l-4.879-2.816c-.174-.1-.223-.237-.106-.3l3.232-1.868a.614.614,0,0,1,.526.061l4.879,2.816c.174.1.222.239.108.3Z" transform="translate(-844.668 -515.82)" fill="#e9f5ff"/>
        <path id="Trazado_102528" data-name="Trazado 102528" d="M900.8,550.014a.613.613,0,0,1-.529-.062l-4.877-2.814c-.173-.1-.227-.239-.11-.306l3.232-1.867a.624.624,0,0,1,.529.063l4.877,2.814c.174.1.223.239.109.305Z" transform="translate(-851.63 -519.837)" fill="#e9f5ff"/>
        <path id="Trazado_102529" data-name="Trazado 102529" d="M914.479,557.907a.611.611,0,0,1-.528-.062l-4.876-2.814c-.175-.1-.225-.238-.108-.305l3.232-1.868a.615.615,0,0,1,.528.063l4.876,2.814c.175.1.223.239.108.3Z" transform="translate(-858.593 -523.855)" fill="#e9f5ff"/>
        <path id="Trazado_102530" data-name="Trazado 102530" d="M928.161,565.8a.611.611,0,0,1-.528-.062l-4.879-2.815c-.175-.1-.224-.237-.106-.3l3.232-1.868a.613.613,0,0,1,.527.062l4.879,2.815c.174.1.223.239.108.3Z" transform="translate(-865.556 -527.87)" fill="#e9f5ff"/>
        <path id="Trazado_102531" data-name="Trazado 102531" d="M941.836,573.688a.609.609,0,0,1-.527-.061l-4.875-2.814c-.177-.1-.227-.239-.11-.306l3.232-1.867a.617.617,0,0,1,.53.064l4.875,2.813c.175.1.222.238.107.3Z" transform="translate(-872.518 -531.888)" fill="#e9f5ff"/>
        <path id="Trazado_102532" data-name="Trazado 102532" d="M955.514,581.582a.608.608,0,0,1-.527-.061l-4.879-2.816c-.174-.1-.222-.236-.105-.3l3.232-1.868a.612.612,0,0,1,.525.061l4.879,2.815c.174.1.222.238.108.3Z" transform="translate(-879.481 -535.906)" fill="#e9f5ff"/>
        <path id="Trazado_102533" data-name="Trazado 102533" d="M879.272,527.123a.615.615,0,0,1-.531-.061l-4.877-2.815c-.173-.1-.221-.237-.1-.305l3.232-1.867a.613.613,0,0,1,.526.061l4.877,2.814c.176.1.223.239.109.305Z" transform="translate(-840.671 -508.185)" fill="#e9f5ff"/>
        <path id="Trazado_102534" data-name="Trazado 102534" d="M892.947,535.014a.613.613,0,0,1-.529-.06l-4.877-2.814c-.175-.1-.224-.239-.106-.307l3.232-1.867a.617.617,0,0,1,.529.063l4.877,2.814c.173.1.221.238.107.3Z" transform="translate(-847.632 -512.202)" fill="#e9f5ff"/>
        <path id="Trazado_102535" data-name="Trazado 102535" d="M906.626,542.908a.614.614,0,0,1-.532-.062l-4.876-2.814c-.174-.1-.222-.238-.1-.306l3.231-1.867a.613.613,0,0,1,.527.062l4.876,2.814c.177.1.224.24.109.306Z" transform="translate(-854.595 -516.22)" fill="#e9f5ff"/>
        <path id="Trazado_102536" data-name="Trazado 102536" d="M920.3,550.8a.608.608,0,0,1-.53-.06l-4.877-2.815c-.176-.1-.224-.239-.106-.307l3.232-1.867a.615.615,0,0,1,.528.062l4.878,2.815c.176.1.221.238.106.3Z" transform="translate(-861.556 -520.237)" fill="#e9f5ff"/>
        <path id="Trazado_102537" data-name="Trazado 102537" d="M933.984,558.69a.611.611,0,0,1-.528-.059l-4.877-2.815c-.177-.1-.223-.238-.106-.306l3.232-1.867a.612.612,0,0,1,.528.062l4.878,2.815c.172.1.22.237.106.3Z" transform="translate(-868.521 -524.254)" fill="#e9f5ff"/>
        <path id="Trazado_102538" data-name="Trazado 102538" d="M947.662,566.583a.615.615,0,0,1-.533-.062l-4.877-2.814c-.173-.1-.222-.238-.1-.306l3.232-1.867a.618.618,0,0,1,.527.062l4.877,2.814c.177.1.225.24.11.306Z" transform="translate(-875.483 -528.271)" fill="#e9f5ff"/>
        <path id="Trazado_102539" data-name="Trazado 102539" d="M961.339,574.476a.611.611,0,0,1-.53-.06l-4.877-2.815c-.176-.1-.223-.238-.106-.306l3.232-1.867a.615.615,0,0,1,.528.062l4.878,2.815c.174.1.222.238.107.3Z" transform="translate(-882.445 -532.289)" fill="#e9f5ff"/>
        <path id="Trazado_102540" data-name="Trazado 102540" d="M848.46,509.348a.615.615,0,0,1-.532-.061l-8.269-4.772c-.176-.1-.224-.239-.106-.307l3.232-1.867a.616.616,0,0,1,.529.063l8.269,4.772c.176.1.224.239.109.305Z" transform="translate(-823.258 -498.14)" fill="#e9f5ff"/>
        <path id="Trazado_102541" data-name="Trazado 102541" d="M980.563,575.1a.614.614,0,0,1-.53-.062l-8.269-4.772c-.173-.1-.223-.239-.106-.306l3.231-1.866a.616.616,0,0,1,.529.061l8.27,4.772c.176.1.224.239.107.306Z" transform="translate(-890.505 -531.612)" fill="#e9f5ff"/>
        <path id="Trazado_102542" data-name="Trazado 102542" d="M840.985,515.5a.61.61,0,0,1-.529-.062L830.6,509.75c-.176-.1-.226-.238-.109-.305l3.232-1.868a.618.618,0,0,1,.529.063l9.858,5.689c.178.1.224.239.109.3Z" transform="translate(-818.645 -500.806)" fill="#e9f5ff"/>
        <path id="Trazado_102543" data-name="Trazado 102543" d="M828.636,518.842a.618.618,0,0,1-.53-.062l-6.573-3.794c-.176-.1-.223-.239-.108-.306l3.232-1.867a.615.615,0,0,1,.531.061l6.573,3.793c.176.1.223.239.107.307Z" transform="translate(-814.032 -503.47)" fill="#e9f5ff"/>
        <path id="Trazado_102544" data-name="Trazado 102544" d="M867.809,510.047a.613.613,0,0,1-.531-.062l-4.874-2.813c-.176-.1-.224-.239-.107-.306L865.527,505a.613.613,0,0,1,.531.062l4.874,2.812c.178.1.225.24.108.307Z" transform="translate(-834.836 -499.493)" fill="#e9f5ff"/>
        <path id="Trazado_102545" data-name="Trazado 102545" d="M881.424,517.9a.618.618,0,0,1-.531-.062l-4.877-2.815c-.175-.1-.224-.239-.107-.306l3.231-1.866a.615.615,0,0,1,.53.061l4.877,2.815c.176.1.225.239.107.307Z" transform="translate(-841.766 -503.488)" fill="#e9f5ff"/>
        <path id="Trazado_102546" data-name="Trazado 102546" d="M895.1,525.79a.608.608,0,0,1-.528-.061l-4.877-2.814c-.174-.1-.222-.238-.106-.305l3.231-1.867a.612.612,0,0,1,.529.061l4.877,2.815c.177.1.222.237.105.3Z" transform="translate(-848.729 -507.506)" fill="#e9f5ff"/>
        <path id="Trazado_102547" data-name="Trazado 102547" d="M908.781,533.685a.616.616,0,0,1-.531-.062l-4.874-2.813c-.177-.1-.224-.24-.107-.307l3.23-1.866a.613.613,0,0,1,.531.062l4.874,2.813c.175.1.225.239.107.306Z" transform="translate(-855.692 -511.525)" fill="#e9f5ff"/>
        <path id="Trazado_102548" data-name="Trazado 102548" d="M922.454,541.576a.606.606,0,0,1-.528-.06L917.05,538.7c-.177-.1-.224-.239-.108-.307l3.231-1.866a.615.615,0,0,1,.531.062l4.876,2.814c.177.1.222.237.105.3Z" transform="translate(-862.653 -515.542)" fill="#e9f5ff"/>
        <path id="Trazado_102549" data-name="Trazado 102549" d="M936.139,549.466a.616.616,0,0,1-.529-.061l-4.879-2.815c-.174-.1-.221-.238-.1-.3l3.231-1.867a.61.61,0,0,1,.528.06l4.879,2.816c.173.1.223.238.106.305Z" transform="translate(-869.618 -519.558)" fill="#e9f5ff"/>
        <path id="Trazado_102550" data-name="Trazado 102550" d="M949.815,557.358a.615.615,0,0,1-.531-.061l-4.876-2.814c-.177-.1-.225-.24-.109-.307l3.23-1.866a.616.616,0,0,1,.532.062l4.877,2.814c.176.1.224.239.107.306Z" transform="translate(-876.578 -523.575)" fill="#e9f5ff"/>
        <path id="Trazado_102551" data-name="Trazado 102551" d="M963.491,565.251a.61.61,0,0,1-.527-.06l-4.88-2.816c-.174-.1-.221-.237-.1-.3l3.231-1.867a.609.609,0,0,1,.527.06l4.881,2.817c.174.1.221.237.1.3Z" transform="translate(-883.542 -527.593)" fill="#e9f5ff"/>
        <path id="Trazado_102552" data-name="Trazado 102552" d="M970.3,577.381a.741.741,0,0,0-.286-.093.391.391,0,0,0-.24.032l-3.232,1.867a.111.111,0,0,0-.059.14.361.361,0,0,0,.162.165l1.273.735-4.238,2.448a.109.109,0,0,0-.055.141.35.35,0,0,0,.163.165l3.286,1.9a.765.765,0,0,0,.287.1.4.4,0,0,0,.244-.032l7.683-4.438a.107.107,0,0,0,.054-.14.344.344,0,0,0-.164-.166Z" transform="translate(-886.443 -536.306)" fill="#e9f5ff"/>
      </g>
      <g id="Grupo_87884" data-name="Grupo 87884" transform="translate(794.683 325.483)">
        <path id="Trazado_102553" data-name="Trazado 102553" d="M1003.254,620.117l-7.5,5.139a7.811,7.811,0,0,1-9.3-.545h0c-2.35-2.194-2.01-5.54.754-7.434l7.5-5.139a7.811,7.811,0,0,1,9.3.545h0C1006.358,614.877,1006.018,618.223,1003.254,620.117Z" transform="translate(-983.019 -609.136)" fill="#a8c4e5"/>
        <path id="Trazado_102554" data-name="Trazado 102554" d="M999.432,616.6l-7.5,5.139a7.811,7.811,0,0,1-9.3-.545h0c-2.35-2.194-2.01-5.54.754-7.434l7.5-5.139a7.811,7.811,0,0,1,9.3.545h0C1002.536,611.358,1002.2,614.7,999.432,616.6Z" transform="translate(-981.073 -607.344)" fill="#35519c"/>
        <path id="Trazado_102555" data-name="Trazado 102555" d="M1013.14,611.422a4.825,4.825,0,0,0-2.083,1.082" transform="translate(-996.336 -609.42)" fill="none" stroke="#a8c4e5" stroke-miterlimit="10" stroke-width="0.994"/>
      </g>
      <g id="Grupo_87885" data-name="Grupo 87885" transform="translate(714.313 277.038)">
        <path id="Trazado_102556" data-name="Trazado 102556" d="M849.141,514.288s-7.384-.865-8.775.667S849.492,518.233,849.141,514.288Z" transform="translate(-829.014 -511.407)" fill="#ffc2b0"/>
        <path id="Trazado_102557" data-name="Trazado 102557" d="M836.882,512.535s-6.756.591-11.726,8.367C825.156,520.9,838.2,514.658,836.882,512.535Z" transform="translate(-821.336 -510.638)" fill="#ffc2b0"/>
        <path id="Trazado_102558" data-name="Trazado 102558" d="M832.516,509.5a17.637,17.637,0,0,0-12.691,9.417s2.833,2.512,4.221,1.792C827.74,518.792,833.474,511.044,832.516,509.5Z" transform="translate(-818.623 -509.094)" fill="#ffc2b0"/>
        <path id="Trazado_102559" data-name="Trazado 102559" d="M855.268,511.225s-7.432-.3-8.7,1.329S855.916,515.126,855.268,511.225Z" transform="translate(-832.18 -509.96)" fill="#ffc2b0"/>
        <path id="Trazado_102560" data-name="Trazado 102560" d="M849.665,508.693s-7.431-.3-8.7,1.329S850.313,512.594,849.665,508.693Z" transform="translate(-829.328 -508.671)" fill="#ffc2b0"/>
        <path id="Trazado_102561" data-name="Trazado 102561" d="M818.932,522.327l9.806-5.756s14.076-3.027,15.16-.745c1.415,2.979-7.894,2.661-7.894,2.661s-7.484,3.607-7.464,3.859c.008.107-.564.671-.315,1.18.417.856.835.721,1.776.454l3.149-1.38s4.244-2.021,4.5-.174c.23,1.657-3.656,2.492-3.656,2.492l-6.286,3.647-4.827.77a4.8,4.8,0,0,1-5.243-3.026l-.053-.14A3.147,3.147,0,0,1,818.932,522.327Z" transform="translate(-817.376 -511.88)" fill="#ffc2b0"/>
      </g>
      <path id="Trazado_102562" data-name="Trazado 102562" d="M925.82,555.814a1.439,1.439,0,0,1,.511,1.266v.018c-.141,1.482-2.162,3.209-6.011,5.134-.118.1-.51.529-1.043,1.137a7.5,7.5,0,0,1,4.292-.434c5.028,1.235,7.051,2.792,7.134,2.857l.114.089.009.144a1.121,1.121,0,0,1-.489.925c-.995.749-3.236.509-6.662-.715a3.775,3.775,0,0,0-3.15.493,4.057,4.057,0,0,1,2.381-.138,51.538,51.538,0,0,1,6.967,3.014l.179.091,0,.2a1.069,1.069,0,0,1-.519.83,1.879,1.879,0,0,1-.625.258l.11.035.312.1-.1.31c-.765,2.289-3.277,1.56-5.111,1.027-.237-.069-.468-.136-.689-.2a2.912,2.912,0,0,0-2.737.42,18.517,18.517,0,0,0-3.326,4.247c-.088.212-1.185,1.8-1.323,2.039-2.61,4.573-8.257,1.335-8.3-4.005,3.193-4.913,6.691-12.753,9.723-14.418l.034-.04,8.154-4.817Z" transform="translate(-149.06 -255.566)" fill="#ffc2b0"/>
      <path id="Trazado_102563" data-name="Trazado 102563" d="M683.833,642.156l-36.634,28.3c-5.983,3.663-10.475.027-10.469-6.268l-.7-10.249c.006-6.295,4.906-14.442,10.889-18.105l36.94-22.617c5.983-3.663,10.873-1.51,10.867,4.785l-.005,6.047C694.715,630.346,689.815,638.493,683.833,642.156Z" transform="translate(-10.752 -283.942)" fill="#283d75"/>
      <g id="Grupo_87889" data-name="Grupo 87889" transform="translate(718.633 317.415)">
        <g id="Grupo_87886" data-name="Grupo 87886" transform="translate(5.919 0.018)">
          <path id="Trazado_102564" data-name="Trazado 102564" d="M844.318,616.49a113.29,113.29,0,0,0,19.416-8.818c4.864-2.934,9.586-5.988,14.66-8.568,4.867-2.473,1.255-10.148-3.616-7.671-5.074,2.579-9.8,5.634-14.66,8.568a113.25,113.25,0,0,1-19.416,8.817c-5.128,1.9-1.467,9.553,3.617,7.672Z" transform="translate(-838.229 -590.948)" fill="#ffc2b0"/>
        </g>
        <g id="Grupo_87888" data-name="Grupo 87888" transform="translate(33.469)">
          <g id="Grupo_87887" data-name="Grupo 87887">
            <path id="Trazado_102565" data-name="Trazado 102565" d="M899.881,605.882s-7.6-5.05-4.994-12.117l4.921-2.855c3.41.375,6.832,9.6,5.65,11.553Z" transform="translate(-894.344 -590.91)" fill="#6359c2"/>
          </g>
        </g>
        <path id="Trazado_102566" data-name="Trazado 102566" d="M826.831,610.362l34.692-16.989c1.548,1.478,4.328,8.047,5.324,14.307l-21.223,9.374c-8.9,4.216-13.394,1.679-19.44-5.344C826.147,611.668,826.183,611.711,826.831,610.362Z" transform="translate(-826.173 -592.164)" fill="#f0f8ff"/>
      </g>
      <g id="Grupo_87893" data-name="Grupo 87893" transform="translate(671.511 286.994)">
        <g id="Grupo_87890" data-name="Grupo 87890" transform="translate(5.279 0)">
          <path id="Trazado_102567" data-name="Trazado 102567" d="M747.061,554.674a113.265,113.265,0,0,0,19.366-8.926c4.848-2.962,9.552-6.042,14.612-8.65,4.853-2.5,1.2-10.155-3.659-7.651-5.059,2.607-9.765,5.689-14.612,8.65a113.3,113.3,0,0,1-19.366,8.927c-5.118,1.926-1.413,9.56,3.659,7.651Z" transform="translate(-740.948 -528.95)" fill="#ffc2b0"/>
        </g>
        <g id="Grupo_87892" data-name="Grupo 87892" transform="translate(32.742 0.012)">
          <g id="Grupo_87891" data-name="Grupo 87891">
            <path id="Trazado_102568" data-name="Trazado 102568" d="M802.474,543.947s-7.623-5.007-5.062-12.089l4.9-2.883c3.412.355,6.885,9.562,5.715,11.521Z" transform="translate(-796.886 -528.975)" fill="#6359c2"/>
          </g>
        </g>
        <path id="Trazado_102569" data-name="Trazado 102569" d="M730.2,548.663l34.6-17.184c1.556,1.469,4.373,8.023,5.4,14.277l-32.384,15.668C732.592,558.7,730.364,554.273,730.2,548.663Z" transform="translate(-730.197 -530.237)" fill="#b3c8e6"/>
      </g>
      <g id="Grupo_87894" data-name="Grupo 87894" transform="translate(663.47 352.036)">
        <path id="Trazado_102570" data-name="Trazado 102570" d="M745.2,709.6l33.465-21.527s-3.853-27.762-24.06-24.635c-33.3,5.154-39.159-2.01-39.159-2.01L714,687.866C711.6,716.314,734.134,716.14,745.2,709.6Z" transform="translate(-713.819 -661.427)" fill="#483ac7"/>
      </g>
      <path id="Trazado_102571" data-name="Trazado 102571" d="M705.426,580.255s4.316,48.05,5.007,51.525c0,0,25.824,23.32,39.706.359h0a16.339,16.339,0,0,1-.118-12.716l2.032-4.937a47.352,47.352,0,0,0,2.7-27l-.28-1.449Z" transform="translate(-46.076 -268.072)" fill="#f0f8ff"/>
      <path id="Trazado_102572" data-name="Trazado 102572" d="M748.063,571.449c1.158-.644,4.123-5.57,4.123-5.57,1.069-6.717,4.414-13.151-1.753-19.071-1.589-1.525-16.813-10.921-28.8-13.619a12.882,12.882,0,0,0-14.329,7.062,51.6,51.6,0,0,0-2.487,7.073,22.162,22.162,0,0,0-.169,7.125c.835,7.4,3.582-.067,4.1,6.078-.022-.166-1.951-.852-1.968-1.018,0,0,3.992,4.471,4.744,13.473.463,5.615.789,9.677.811,10.246,0,.026,0,.063,0,.07l20.238,17.406,11.872-19.43h0Z" transform="translate(-45.58 -243.959)" fill="#f0f8ff"/>
      <path id="Trazado_102573" data-name="Trazado 102573" d="M744.362,524.166l4.6-17.052,10.2,7.516-3.586,13.3C755.158,530.467,743.353,529.983,744.362,524.166Z" transform="translate(-65.865 -230.84)" fill="#ffc2b0"/>
      <g id="Grupo_87898" data-name="Grupo 87898" transform="translate(671.321 283.089)">
        <g id="Grupo_87897" data-name="Grupo 87897" transform="translate(0)">
          <g id="Grupo_87896" data-name="Grupo 87896">
            <g id="Grupo_87895" data-name="Grupo 87895">
              <path id="Trazado_102574" data-name="Trazado 102574" d="M730.707,528.251c-3.455,2.529,3.954,7.153,7.216,8.72,4.154,2,15.011.155,19.428-.1,1.579-.092-5.683-4.542-7.279-4.448-6.784.4-11.376.684-13.747-4.81-1.124-2.606-9.395-13.8-2.419.557Z" transform="translate(-729.809 -520.995)" fill="#6359c2"/>
            </g>
          </g>
        </g>
      </g>
      <g id="Grupo_87902" data-name="Grupo 87902" transform="translate(664.571 247.036)">
        <path id="Trazado_102575" data-name="Trazado 102575" d="M752.534,455.879s-9.689-10.408-12.1,5.727c-1.677,11.223,4.387,22.048,13.832,27.9,5.881,3.645,14.049,1.269,15.193-4.275,2.662-7.94,3.774-15.566,1.788-22.558,1.379-6.684-4.035-5.025-12.738-6.741Z" transform="translate(-728.326 -450.115)" fill="#ffc2b0"/>
        <path id="Trazado_102576" data-name="Trazado 102576" d="M732.349,482.461s-10.538-3.827-6.651-20.569c3.408-14.675,15.557-14.625,25.079-14.218,4.215.18,11.466,4.08,13.132,8.2,1.963,4.861-.086,4.6-5.088,6.36-2.107.741-1.845,6.885-2.573,8.859-1.295,3.511-5.441,4.45-6.764,7.844-1.252,3.212-3.7,6.614-6.93,6.54A21.58,21.58,0,0,1,732.349,482.461Z" transform="translate(-720.529 -447.564)" fill="#915151"/>
        <path id="Trazado_102577" data-name="Trazado 102577" d="M777.088,499.369c-.147,2.779-1.879,4.946-3.87,4.841a2.618,2.618,0,0,1-.634-.112c-1.664-.509-2.835-2.634-2.705-5.109.146-2.778,1.879-4.946,3.869-4.841S777.234,496.59,777.088,499.369Z" transform="translate(-743.451 -471.275)" fill="#ffc2b0"/>
        <g id="Grupo_87900" data-name="Grupo 87900" transform="translate(9.507 2.202)">
          <g id="Grupo_87899" data-name="Grupo 87899">
            <path id="Trazado_102578" data-name="Trazado 102578" d="M749.016,460.194a6.894,6.894,0,1,1-5.251-7.966A6.749,6.749,0,0,1,749.016,460.194Z" transform="translate(-735.424 -452.048)" fill="#483ac7"/>
          </g>
        </g>
        <path id="Trazado_102579" data-name="Trazado 102579" d="M727.049,456.248c3.354-.04,6.363,2.847,6.824,6.381.675,5.177,4.172,27.689-2.076,37.891-5.472.07-10.477-1.769-14.383-8.09,0,0-2.618-6.7-.567-18.426,2.037-11.637,6.877-16.714,6.877-16.714A4.91,4.91,0,0,1,727.049,456.248Z" transform="translate(-716.061 -451.984)" fill="#9e5858"/>
        <path id="Trazado_102580" data-name="Trazado 102580" d="M805.028,498.471h0a1.087,1.087,0,0,1-.5.8,7.2,7.2,0,0,1-2.441,1.3,1.57,1.57,0,0,1-1.287-.029,1.52,1.52,0,0,1-.547-1.24c-.073-1.244.313-3.418,1.764-3.78.6-.148-.015-4.271.114-3.69A25.408,25.408,0,0,0,805.028,498.471Z" transform="translate(-758.912 -470.068)" fill="#ffc2b0"/>
        <ellipse id="Elipse_4808" data-name="Elipse 4808" cx="1.321" cy="0.738" rx="1.321" ry="0.738" transform="translate(39.914 25.538) rotate(-83.763)" fill="#21275e"/>
        <g id="Grupo_87901" data-name="Grupo 87901" transform="translate(38.856 19.683)">
          <path id="Trazado_102581" data-name="Trazado 102581" d="M795.97,489.385a3.668,3.668,0,0,1,2.54-.644.518.518,0,0,0,.282-1,4.644,4.644,0,0,0-3.339.743.518.518,0,0,0,.517.9Z" transform="translate(-795.203 -487.654)" fill="#915151"/>
        </g>
        <path id="Trazado_102582" data-name="Trazado 102582" d="M791.508,513.48a2.357,2.357,0,0,0,2.508,1.733" transform="translate(-754.466 -481.117)" fill="none" stroke="#d18b77" stroke-miterlimit="10" stroke-width="0.715"/>
        <path id="Trazado_102583" data-name="Trazado 102583" d="M778.037,503.937a.688.688,0,0,0,.048-1.036c-.432-.411-1.092-.785-1.583.1a2.613,2.613,0,0,0,.518,2.637.134.134,0,0,0,.238-.112,1.1,1.1,0,0,1,.328-1.259C777.77,504.141,777.918,504.033,778.037,503.937Z" transform="translate(-746.727 -475.507)" fill="#d18b77"/>
      </g>
      <g id="Grupo_87916" data-name="Grupo 87916" transform="translate(614.908 317.43)">
        <g id="Grupo_87913" data-name="Grupo 87913" transform="translate(5.767 55.571)">
          <g id="Grupo_87904" data-name="Grupo 87904" transform="translate(105.25 10.709)">
            <g id="Grupo_87903" data-name="Grupo 87903" transform="translate(0 0)">
              <path id="Rect치ngulo_34025" data-name="Rect치ngulo 34025" d="M2.436,0h0A2.436,2.436,0,0,1,4.872,2.436v61.9a2.436,2.436,0,0,1-2.436,2.436h0A2.436,2.436,0,0,1,0,64.332V2.436A2.436,2.436,0,0,1,2.436,0Z" transform="translate(0 0.715) rotate(-8.442)" fill="#40379c"/>
            </g>
          </g>
          <g id="Grupo_87906" data-name="Grupo 87906" transform="translate(0 1.816)">
            <g id="Grupo_87905" data-name="Grupo 87905">
              <path id="Trazado_102584" data-name="Trazado 102584" d="M628.662,787.152h0a2.352,2.352,0,0,1-1.982-2.672l11.07-74.645a2.352,2.352,0,0,1,2.672-1.982h0a2.352,2.352,0,0,1,1.982,2.672l-11.07,74.646A2.352,2.352,0,0,1,628.662,787.152Z" transform="translate(-626.655 -707.828)" fill="#40379c"/>
            </g>
          </g>
          <g id="Grupo_87908" data-name="Grupo 87908" transform="translate(54.144 20.687)">
            <g id="Grupo_87907" data-name="Grupo 87907">
              <path id="Trazado_102585" data-name="Trazado 102585" d="M739.087,838.464h0a2.521,2.521,0,0,1-2.123-2.863l12.93-87.184a2.521,2.521,0,0,1,2.863-2.124h0a2.52,2.52,0,0,1,2.123,2.863L741.95,836.34A2.521,2.521,0,0,1,739.087,838.464Z" transform="translate(-736.936 -746.265)" fill="#40379c"/>
            </g>
          </g>
          <g id="Grupo_87910" data-name="Grupo 87910" transform="translate(3.252 6.22)">
            <g id="Grupo_87909" data-name="Grupo 87909">
              <path id="Trazado_102586" data-name="Trazado 102586" d="M694.562,761.811l-53.116-30.787c-4.981-2.876-7.735-8.6-7.735-8.6-1.864-4.281,2.583-7.379,7.564-4.5L690,746.6c4.981,2.876,6.861,5.88,6.057,9.447C696.06,756.05,700.875,765.069,694.562,761.811Z" transform="translate(-633.277 -716.798)" fill="#8e82f0"/>
            </g>
          </g>
          <g id="Grupo_87912" data-name="Grupo 87912" transform="translate(63.595)">
            <g id="Grupo_87911" data-name="Grupo 87911">
              <path id="Trazado_102587" data-name="Trazado 102587" d="M803.417,732.554l-36.94,22.617c-5.983,3.663-10.607,1.944-10.276-3.82l.318-5.538c.331-5.764,5.5-13.478,11.479-17.141l36.939-22.617c5.983-3.663,10.607-1.944,10.277,3.821l-.318,5.538C814.565,721.178,809.4,728.891,803.417,732.554Z" transform="translate(-756.184 -704.129)" fill="#8e82f0"/>
            </g>
          </g>
        </g>
        <g id="Grupo_87915" data-name="Grupo 87915" transform="translate(0 0)">
          <g id="Grupo_87914" data-name="Grupo 87914">
            <path id="Trazado_102588" data-name="Trazado 102588" d="M624.391,657.578l-9.246-57.84c-1.566-8.554,4.828-11.4,13.849-6.167L665.065,614.5a38.9,38.9,0,0,1,15.426,17.618l15.227,37.556c4.365,10.766-5.057,21.362-14.17,15.934Z" transform="translate(-614.909 -590.942)" fill="#8e82f0"/>
          </g>
        </g>
      </g>
      <path id="Trazado_102589" data-name="Trazado 102589" d="M801.31,596.889,771.127,569.5a8.329,8.329,0,0,1-.953-11.313h0c3.086-3.93,9.258-1.53,13.808,2.093l25.948,24.5Z" transform="translate(-78.13 -255.81)" fill="#f0f8ff"/>
      <g id="Grupo_87918" data-name="Grupo 87918" transform="translate(689.225 267.246)">
        <g id="Grupo_87917" data-name="Grupo 87917">
          <path id="Trazado_102590" data-name="Trazado 102590" d="M776.856,496.532c-.752,3.676-3.69,6.18-6.562,5.593s-4.593-4.043-3.842-7.719,3.689-6.18,6.562-5.594S777.608,492.856,776.856,496.532Z" transform="translate(-766.276 -488.727)" fill="#fdfdfd"/>
        </g>
      </g>
      <g id="Grupo_87920" data-name="Grupo 87920" transform="translate(691.361 271.022)">
        <g id="Grupo_87919" data-name="Grupo 87919">
          <path id="Trazado_102591" data-name="Trazado 102591" d="M776.654,500.863c-.428,2.093-2.1,3.52-3.737,3.185s-2.616-2.3-2.188-4.4,2.1-3.52,3.738-3.186S777.082,498.769,776.654,500.863Z" transform="translate(-770.628 -496.417)" fill="#9c91ff"/>
        </g>
      </g>
      <path id="Trazado_102592" data-name="Trazado 102592" d="M776.5,507.3s-1.313,14.657,14.43,8.191" transform="translate(-82.241 -230.937)" fill="none" stroke="#fdfdfd" stroke-linecap="round" stroke-linejoin="round" stroke-width="3.114"/>
      <g id="Grupo_87922" data-name="Grupo 87922" transform="translate(706.892 280.668)">
        <g id="Grupo_87921" data-name="Grupo 87921" transform="translate(0 0)">
          <ellipse id="Elipse_4809" data-name="Elipse 4809" cx="2.163" cy="2.415" rx="2.163" ry="2.415" fill="#9c91ff"/>
        </g>
      </g>
      <g id="Grupo_87923" data-name="Grupo 87923" transform="translate(826.389 322.61)">
        <path id="Trazado_102593" data-name="Trazado 102593" d="M1092.8,617.071c-8.234-4.938-21.714-5.162-30.108-.5s-8.524,12.444-.289,17.383,21.566,5.165,30.115.6C1101.913,629.532,1101.031,622.009,1092.8,617.071Z" transform="translate(-1051.076 -607.46)" fill="#4a70d6" opacity="0.27"/>
        <path id="Trazado_102594" data-name="Trazado 102594" d="M1080.863,615.057c-7.82-4.69-20.622-4.9-28.594-.475s-8.094,11.819-.274,16.508,20.482,4.906,28.6.569C1089.521,626.891,1088.683,619.747,1080.863,615.057Z" transform="translate(-1045.935 -606.533)" fill="#1a93ff"/>
        <path id="Trazado_102595" data-name="Trazado 102595" d="M1080.306,605.153c-7.82-4.69-20.622-4.9-28.594-.475s-8.1,11.819-.275,16.508,20.482,4.906,28.6.569C1088.963,616.987,1088.125,609.843,1080.306,605.153Z" transform="translate(-1045.651 -601.492)" fill="#4dabff"/>
        <path id="Trazado_102596" data-name="Trazado 102596" d="M1074.44,615.506l-2.32,7.968,18.789-4.252" transform="translate(-1059.125 -608.625)" fill="none" stroke="#fff" stroke-linecap="round" stroke-linejoin="round" stroke-width="8.504"/>
      </g>
      <g id="Grupo_87924" data-name="Grupo 87924" transform="translate(685.866 245.24)">
        <path id="Trazado_102597" data-name="Trazado 102597" d="M765.782,470.088s2.241-23.981-6.347-24.387c0,0,2.733-3.043,6-1.209s5.528,14.521,2.721,25.163Z" transform="translate(-759.435 -443.904)" fill="#fdfdfd"/>
      </g>
    </g>
    <rect id="Rect치ngulo_34026" data-name="Rect치ngulo 34026" width="505" height="432" transform="translate(915 400)" fill="none"/>
  </g>
</svg>
