<svg xmlns="http://www.w3.org/2000/svg" width="557.186" height="332.282" viewBox="0 0 557.186 332.282">
  <g id="Grupo_87769" data-name="Grupo 87769" transform="translate(-343.579 -338.431)">
    <g id="Grupo_87748" data-name="Grupo 87748" transform="translate(705.195 338.431)">
      <g id="Grupo_87741" data-name="Grupo 87741" transform="translate(90.051 91.421)">
        <path id="Trazado_102119" data-name="Trazado 102119" d="M2238.742,785.968l7.576-5.772c-1.578-3.468-4.53-12.407-6.544-15.223-2.209-3.089-2.423-2.764-2.423-2.764l-3.684,5.594-1.733,2.633a9.958,9.958,0,0,1,1.476,3.8,20.67,20.67,0,0,1,.046,7.4C2233.086,783.991,2238.742,785.968,2238.742,785.968Z" transform="translate(-2225.009 -750.705)" fill="#efaea6"/>
        <path id="Trazado_102120" data-name="Trazado 102120" d="M2231.935,787.906a13.8,13.8,0,0,1,1.551,4.189c5.652-.1,6.694-4.958,4.894-5.713a37.486,37.486,0,0,0-4.711-1.109Z" transform="translate(-2225.009 -768.176)" fill="#1f1f39" opacity="0.14"/>
        <g id="Grupo_87740" data-name="Grupo 87740">
          <path id="Trazado_102121" data-name="Trazado 102121" d="M2208.45,740.638c-1.156,2.8-6.024,7.321-4.077,7.932s-2.448,5.919-.4,6.644c4.963,1.758,11.743.419,13.163-1.8s3.222-9.086,3.222-9.086Z" transform="translate(-2203.415 -734.381)" fill="#efaea6"/>
          <path id="Trazado_102122" data-name="Trazado 102122" d="M2212.384,725.932c-1.154-1.208-1.411-.354-2.348-1.241s1.465-1.807-.493-2.8-2.985-1.84-2.228-4.213a2.707,2.707,0,0,1,3.921-1.718c1.125.638,1.606-1.585,4.042-.973,1.926.484,2.044,2,3.607,3.176.857.642,3.592.341,4.789,2.069,2.221,3.205-1.256,4.064.42,7.264,1.955,3.733-6.534,7.229-7.642,7.176-.413-.02-1.13-1.163.225-2.372.7-.626,1.586-2.246,1.243-2.733-.6-.859-1.515-2.941-2.65-.866-.807,1.476-1.838,7.144-2.456,7.441-1.59.763-9.8.673-9.32-1.33.6-2.482,6.321,1.635,6.772-.959.344-1.982-5.632-1.763-5.651-3.441-.022-1.94,6.423,2.536,7.37,1.035C2213.14,729.608,2213.043,726.621,2212.384,725.932Z" transform="translate(-2203.459 -714.874)" fill="#1f1f39"/>
        </g>
      </g>
      <g id="Grupo_87744" data-name="Grupo 87744" transform="translate(58.252 177.444)">
        <g id="Grupo_87742" data-name="Grupo 87742" transform="translate(0 125.579)">
          <path id="Trazado_102123" data-name="Trazado 102123" d="M2153.557,1599.825c.179-3.905,1.828-13.634,1.828-13.634l10.03,1.033-2.605,14.589-7.253,3.735Z" transform="translate(-2133.866 -1586.191)" fill="#efaea6"/>
          <path id="Trazado_102124" data-name="Trazado 102124" d="M2091.613,1634.986c-1.026-.359-.69.711-1.241,2.3-1.262,3.637-14.49,2.45-16.517,2.592-1.046.073-3.252,5.384,1.871,5.861,4.429.412,18.612,1.788,23.462,2.207a2.256,2.256,0,0,0,2.315-1.514c1.231-3.511,1.549-9.115.209-9.365C2099.735,1636.2,2095.887,1636.486,2091.613,1634.986Z" transform="translate(-2072.475 -1623.083)" fill="#1f1f39"/>
        </g>
        <g id="Grupo_87743" data-name="Grupo 87743" transform="translate(112.299 107.393)">
          <path id="Trazado_102125" data-name="Trazado 102125" d="M2547.245,1526.453c-3.634-1.273-12.356-5.621-12.356-5.621l3.728-9.525,13.043,6.651,1.531,8.147Z" transform="translate(-2534.889 -1511.307)" fill="#efaea6"/>
          <path id="Trazado_102126" data-name="Trazado 102126" d="M2577.576,1543.681c-.621.9.481.875,1.828,1.86,3.083,2.257-1.667,14.869-2.091,16.891-.218,1.044,4.185,4.7,6.041-.183,1.605-4.218,6.8-17.71,8.522-22.338a2.339,2.339,0,0,0-.793-2.69c-2.973-2.192-8.171-4.079-8.775-2.838C2580.947,1536.073,2580.163,1539.92,2577.576,1543.681Z" transform="translate(-2567.004 -1528.48)" fill="#1f1f39"/>
        </g>
        <path id="Trazado_102127" data-name="Trazado 102127" d="M2178.291,1069.094c-8.005,15.419-23.467,67.392-25.833,75.7s-7.45,55.649-7.488,58.528c9.366,1.9,13.653,1.664,13.653,1.664,2.159-6.9,5.268-48.22,9.574-56.126,6.25-11.475,23.476-43.316,23.476-43.316.875,16,.776,25.452,4.361,42.664,6.186,22.587,49.041,44.133,49.041,44.133,5.32-6.721,6.847-14.421,5.654-14.391-7.923-5.588-37.229-25.685-37.012-35.03s5.721-43.877,5.735-66.695c0-2.359-33.079-6.8-33.079-6.8Z" transform="translate(-2127.365 -1069.094)" fill="#3b3b4c"/>
        <path id="Trazado_102128" data-name="Trazado 102128" d="M2311.142,1198.62a99.283,99.283,0,0,0,6.349-11.728c-.173-4.8,0-10.362,0-10.362S2312.893,1190.723,2311.142,1198.62Z" transform="translate(-2253.181 -1150.439)" fill="#1f1f39" opacity="0.57"/>
      </g>
      <path id="Trazado_102129" data-name="Trazado 102129" d="M1964.625,765.181a11.5,11.5,0,0,1,2.067,1.721c.69.873,1.658,1.334,2.269,2.548.153.3.307.614.467.942.177.361.347.692.511,1a46.538,46.538,0,0,0,3.073,4.679s7.7-.567,7.379-1.845a8.92,8.92,0,0,0-1.737-3.162c-.446-.581-1.3-1.664-1.727-2.318-.214-.324-2.333-3.151-2.482-4.033-.454-2.661,1.24-4.709.1-6.049-1.51-1.78-2.637,3.516-2.947,2.43-.805-2.819-6.332-6.19-8.944-1.137C1962.268,760.709,1962.919,763.876,1964.625,765.181Z" transform="translate(-1930.992 -655.615)" fill="#efaea6"/>
      <path id="Trazado_102130" data-name="Trazado 102130" d="M2172.526,536.53a11.511,11.511,0,0,0,1.913,1.892c.935.6,1.488,1.521,2.755,2.013.314.123.641.247.983.374.376.142.722.278,1.044.412a46.506,46.506,0,0,1,4.953,2.606s.179,7.721-1.123,7.522a8.913,8.913,0,0,1-3.315-1.424c-.621-.387-1.782-1.135-2.474-1.494-.343-.181-3.362-2.017-4.253-2.081-2.692-.195-4.843-.619-6.286-1.621-1.918-1.331,4.006-1.312,2.9-1.517-2.884-.529-7.259-5.048-2.482-8.136C2167.848,534.616,2171.063,534.959,2172.526,536.53Z" transform="translate(-2084.288 -487.178)" fill="#efaea6"/>
      <path id="Trazado_102131" data-name="Trazado 102131" d="M2240.912,804.907c-3.265-.108-2.111,5.478-5.093,6.548-1.574.565-1.422-.3-2.4-.92-.6-.38-1.189-.829-1.709.2-10.585,20.985,14.209,60.2,13.08,63.7-.924,2.862,15.414,4.432,22.855.176,18.725-10.713,7.677-14.839,5.1-21.219-.978-2.425-19.268-43.194-19.268-43.194A62.173,62.173,0,0,1,2240.912,804.907Z" transform="translate(-2132.793 -691.621)" fill="#fff"/>
      <path id="Trazado_102132" data-name="Trazado 102132" d="M1988.958,801.917c.207,1.654,12.112,28,23.264,31.309,7.235,2.147,16.558-.689,22.232-4.012,3.567-2.09,6.95-2.11,8.679-1.069a13.64,13.64,0,0,1,3.968,4.71,20.475,20.475,0,0,1,2.8,8.185c.158,2.661,2.417,13.663,2.709,15.542.729,4.653-.591,15.211,1.127,17.675s3.09,3.877,4.574,4.536,11.867,1.5,13.338-1.04a12.627,12.627,0,0,0,.893-7.961c-.017-.079-.036-.16-.055-.239-.842-3.459-4.73-8.056-6.2-12.849a125.257,125.257,0,0,1-3.787-15.061c-2.109-12.145-8.964-17.81-10.4-27.932-.154-1.1-.311-2.1-.463-3-.07-.417-.143-.814-.211-1.19-.375-2.038-.723-3.507-1-4.5a16.543,16.543,0,0,0-.535-1.721c-.051.027-.1.056-.155.086-12.484,6.79-28.489,16.6-32.666,16.519-4.872-.091-18.2-24.609-19.233-24.816S1988.751,800.263,1988.958,801.917Z" transform="translate(-1950.985 -684.187)" fill="#0069a8"/>
      <path id="Trazado_102133" data-name="Trazado 102133" d="M2378.165,1086.866c2.707,7.35,17.4,13.333,17.4,13.333s.833-11.8.376-13.9S2378.165,1086.866,2378.165,1086.866Z" transform="translate(-2245.675 -904.069)" fill="#32323f"/>
      <path id="Trazado_102134" data-name="Trazado 102134" d="M2112.493,828.5" transform="translate(-2044.523 -709.488)" fill="#efaea6"/>
      <path id="Trazado_102135" data-name="Trazado 102135" d="M2225.248,614.13c8.061-4.011,8.741-31.244,8.982-36.015.193-3.834-24.831-13.459-25.719-14.263s3.109-11.546,4.591-10.906,33.044,13.337,34.311,22.889c.84,7.913-3.69,26.784-1.829,42.5.765,6.458,8.168,25.923,9.177,30.759.89,4.728,3.21,9.1,5.2,12.74s15.711,20.928,10.556,24.064c-4.574,2.783-13.6,3.566-19.3.062-3.4-2.091-2-7.951-7.084-16.747a162.716,162.716,0,0,1-7.853-15.364C2231.8,643.707,2226.762,621.949,2225.248,614.13Z" transform="translate(-2117.126 -500.83)" fill="#0069a8"/>
      <g id="Grupo_87745" data-name="Grupo 87745" transform="translate(101.01 117.184)">
        <path id="Trazado_102136" data-name="Trazado 102136" d="M2254.456,827.845c.371-.21,3.131,7.4,7.6,10.278a10.7,10.7,0,0,0,4.036,1.638,117.578,117.578,0,0,0,18.252,1.42c-2.734-8.4-1.654-4.45-3-7.957-4.016.9-12.123,2.52-14.325,2.029a15.572,15.572,0,0,1-4.523-1.832,27.076,27.076,0,0,1-6.316-5.424c-.811-.916-.818-2.184-1.886-2.34C2252.875,825.448,2253.979,828.112,2254.456,827.845Z" transform="translate(-2252.367 -824.507)" fill="#05dbf2" opacity="0.24"/>
        <path id="Trazado_102137" data-name="Trazado 102137" d="M2248.619,822.591a1.82,1.82,0,0,1,2.122-1.606c1.067.157,1.109.628,1.92,1.544,2.437,2.752,6.141,6.21,10.839,7.257s16.21-4.427,23.081-2.071,8.34,9.261,18.321,12.039,21.357-.619,24.3.24,4.685,1.745,4.483,2.993-1.9,3.171-4.1,3.841-20.865.059-25.69-1.152c-7.876-1.976-13.977-10.334-19.076-11.357s-16.248.963-22.247-.026c-6.69-1.1-11.332-9.979-11.807-9.711a1.76,1.76,0,0,1-1.757.209C2248.432,824.57,2248.5,823.3,2248.619,822.591Z" transform="translate(-2248.54 -820.959)" fill="#05dbf2"/>
      </g>
      <path id="Trazado_102138" data-name="Trazado 102138" d="M2176.31,919.314c3.566-2.09,6.949-2.11,8.679-1.069a13.639,13.639,0,0,1,3.968,4.71c-.126-1.567.263-4.22-.936-6.777C2185.633,911.086,2178.176,916.538,2176.31,919.314Z" transform="translate(-2092.842 -774.285)" fill="#1f1f3b" opacity="0.24"/>
      <g id="Grupo_87747" data-name="Grupo 87747">
        <g id="Grupo_87746" data-name="Grupo 87746" transform="translate(62.84)">
          <path id="Trazado_102139" data-name="Trazado 102139" d="M2128,364.309c8.418,7.63,5.432,22.957,13.458,32.777,6.006,7.349,13.852-54.58,8.693-58.185s-69.254,14.479-57.295,20.141C2105.048,364.816,2122.589,359.408,2128,364.309Z" transform="translate(-2091.369 -338.43)" fill="#ef6c00"/>
        </g>
        <path id="Trazado_102140" data-name="Trazado 102140" d="M1842.479,516.5a9.868,9.868,0,0,1-7.028-16.8c10.212-10.363,90.489-100.106,91.3-101.012a9.869,9.869,0,1,1,14.712,13.158c-3.319,3.711-81.407,91.009-91.952,101.708A9.839,9.839,0,0,1,1842.479,516.5Z" transform="translate(-1832.611 -381.565)" fill="#ef6c00"/>
      </g>
      <path id="Trazado_102141" data-name="Trazado 102141" d="M2174.718,568.1c-3.792-.827-5.951-1.459-6.342-.483-.552,1.379,1.654,2.482,2.826,2.551s4.343.069,4.343-.552S2174.718,568.1,2174.718,568.1Z" transform="translate(-2086.768 -511.587)" fill="#efaea6"/>
      <path id="Trazado_102142" data-name="Trazado 102142" d="M2002.077,757.932c-.526-3.845-.986-6.047.019-6.36,1.418-.441,2.344,1.845,2.32,3.018s-.273,4.335-.892,4.286S2002.077,757.932,2002.077,757.932Z" transform="translate(-1960.485 -651.197)" fill="#efaea6"/>
    </g>
    <path id="Trazado_102143" data-name="Trazado 102143" d="M868.883,886.4a9.87,9.87,0,0,1-5.116-18.315c5.348-3.234,18.8-17.12,30.676-29.372,18.838-19.442,38.318-39.545,51.738-47.078,4.1-2.3,9.893-2.776,31.707.763,13.166,2.136,29.416,5.318,43.753,8.124,13.646,2.672,30.507,5.973,34.737,6.243a9.87,9.87,0,0,1,5.163,18.882c-3.184,1.331-6.35,1.183-17.827-.832-6.916-1.215-16.12-3.016-25.865-4.924-13.092-2.563-27.929-5.468-40.232-7.534-15.394-2.585-21.05-2.851-22.957-2.813-11.136,6.88-30.43,26.792-46.042,42.9-16.8,17.343-27.468,28.192-34.637,32.527A9.826,9.826,0,0,1,868.883,886.4Zm185.057-78.967-.012,0Zm.007,0h0Z" transform="translate(-390.252 -341.774)" fill="#ef6c00"/>
    <path id="Trazado_102144" data-name="Trazado 102144" d="M494.158,925.413a9.831,9.831,0,0,1-4.144-.917c-26.219-12.155-121.489-61.519-125.531-63.615a9.868,9.868,0,0,1,9.083-17.523c.986.511,98.924,51.259,124.75,63.231a9.87,9.87,0,0,1-4.157,18.824Z" transform="translate(-11.792 -381.464)" fill="#ef6c00"/>
    <g id="Grupo_87751" data-name="Grupo 87751" transform="translate(658.458 450.967)">
      <g id="Grupo_87749" data-name="Grupo 87749" transform="translate(0 0)">
        <circle id="Elipse_4790" data-name="Elipse 4790" cx="20.984" cy="20.984" r="20.984" transform="translate(0 29.676) rotate(-45)" fill="#4d4d5b"/>
      </g>
      <g id="Grupo_87750" data-name="Grupo 87750" transform="translate(8.443 7.598)">
        <circle id="Elipse_4791" data-name="Elipse 4791" cx="20.388" cy="20.388" r="20.388" fill="#ef6c00"/>
      </g>
      <circle id="Elipse_4792" data-name="Elipse 4792" cx="12.866" cy="12.866" r="12.866" transform="translate(15.965 15.12)" fill="#fff"/>
    </g>
    <g id="Grupo_87754" data-name="Grupo 87754" transform="translate(533.023 429.092)">
      <g id="Grupo_87752" data-name="Grupo 87752" transform="translate(0 0)">
        <circle id="Elipse_4793" data-name="Elipse 4793" cx="20.984" cy="20.984" r="20.984" transform="translate(0 29.676) rotate(-45)" fill="#4d4d5b"/>
      </g>
      <g id="Grupo_87753" data-name="Grupo 87753" transform="translate(8.443 7.598)">
        <circle id="Elipse_4794" data-name="Elipse 4794" cx="20.388" cy="20.388" r="20.388" fill="#ef6c00"/>
      </g>
      <circle id="Elipse_4795" data-name="Elipse 4795" cx="12.866" cy="12.866" r="12.866" transform="translate(15.965 15.12)" fill="#fff"/>
    </g>
    <path id="Trazado_102145" data-name="Trazado 102145" d="M1711.31,1002.4c3.118,2.982,9.11,2.928,11.633,1.278,2.839-1.857,5.625-4.126,1.851-4.019-9.036.256-3.894-3.291-5.029-3.41-1.892-.2-4.96,3.281-5.944,2.719C1713.208,998.615,1711.31,1002.4,1711.31,1002.4Z" transform="translate(-1035.573 -498.056)" fill="#efaea6"/>
    <g id="Grupo_87757" data-name="Grupo 87757" transform="translate(453.292 506.092)">
      <g id="Grupo_87755" data-name="Grupo 87755" transform="translate(0 0)">
        <circle id="Elipse_4796" data-name="Elipse 4796" cx="20.984" cy="20.984" r="20.984" transform="translate(0 29.676) rotate(-45)" fill="#4d4d5b"/>
      </g>
      <g id="Grupo_87756" data-name="Grupo 87756" transform="translate(8.443 7.598)">
        <circle id="Elipse_4797" data-name="Elipse 4797" cx="20.388" cy="20.388" r="20.388" fill="#ef6c00"/>
      </g>
      <circle id="Elipse_4798" data-name="Elipse 4798" cx="12.866" cy="12.866" r="12.866" transform="translate(15.965 15.12)" fill="#fff"/>
    </g>
    <g id="Grupo_87766" data-name="Grupo 87766" transform="translate(343.579 405.978)">
      <path id="Trazado_102146" data-name="Trazado 102146" d="M343.579,1670.173c0,2.713,130.652,5.864,281.192,5.864s272.577-2.2,272.577-4.913-122.037-4.913-272.577-4.913S343.579,1667.46,343.579,1670.173Z" transform="translate(-343.579 -1411.303)" fill="#32323f" opacity="0.09"/>
      <path id="Trazado_102147" data-name="Trazado 102147" d="M864.2,749.617c5.675-.746,31.2-15.188,32.62-15.793,1.068-.454,5.081,7.284,3.125,9.909-1.61,2.159-17.992,14.072-33.6,18.716-7.457,2.219-27.4,1.939-33.274,13.61-3.212,6.38-16.032-24.458-7.59-23.1C827.44,753.276,861.409,749.983,864.2,749.617Z" transform="translate(-706.307 -705.334)" fill="#0267a4"/>
      <path id="Trazado_102148" data-name="Trazado 102148" d="M864.2,749.617c5.675-.746,31.2-15.188,32.62-15.793,1.068-.454,5.081,7.284,3.125,9.909-1.61,2.159-17.992,14.072-33.6,18.716-7.457,2.219-27.4,1.939-33.274,13.61-3.212,6.38-16.032-24.458-7.59-23.1C827.44,753.276,861.409,749.983,864.2,749.617Z" transform="translate(-706.307 -705.334)" fill="#1f1f39" opacity="0.18"/>
      <path id="Trazado_102149" data-name="Trazado 102149" d="M873.729,1606.165c.2-3.713-.534-13.069-.534-13.069l-10.344.094,1.235,14.042,7.042,4.175Z" transform="translate(-736.744 -1355.944)" fill="#fff"/>
      <path id="Trazado_102150" data-name="Trazado 102150" d="M873.982,1640.243c1.083-.25.635.733,1.043,2.286.933,3.554,14.559,3.6,16.615,3.91,1.061.161,2.795,5.384-2.483,5.384-4.564,0-19.183.052-24.177.021a2.278,2.278,0,0,1-2.216-1.638c-.914-3.433-.691-8.766.7-8.885C865.569,1640.672,869.47,1641.286,873.982,1640.243Z" transform="translate(-736.262 -1391.612)" fill="#1f1f39"/>
      <g id="Grupo_87758" data-name="Grupo 87758" transform="translate(25.483 221.744)">
        <path id="Trazado_102151" data-name="Trazado 102151" d="M483.7,1545.93c3.105-2.263,10.13-8.857,10.13-8.857l-6.78-7.423-10.456,9.994,1.217,7.8Z" transform="translate(-469.776 -1529.651)" fill="#fff"/>
        <path id="Trazado_102152" data-name="Trazado 102152" d="M464.186,1572.587c.9.621-.176.935-1.157,2.236-2.244,2.979,6.552,12.864,7.634,14.554.559.872-2.5,5.512-5.926,1.694-2.958-3.3-12.474-13.844-15.686-17.477a2.1,2.1,0,0,1-.123-2.664c2.159-2.886,6.579-6.182,7.577-5.251C458.389,1566.78,460.426,1570,464.186,1572.587Z" transform="translate(-448.509 -1556.808)" fill="#1f1f39"/>
      </g>
      <path id="Trazado_102153" data-name="Trazado 102153" d="M562.261,1053.295c5.838,15.607,22.13,71.083,23.3,79.225s8.173,54.624,7.784,57.338c-10.119,2.036-14.249,1.718-14.249,1.718-1.168-6.786-4.559-42.514-9.52-54.049s-19.673-45.381-19.673-45.381c-3.263,14.928-4.907,32.6-11.1,48.3-9.633,20.4-36.142,40.926-36.142,40.926-7.395-4.411-12.065-8.482-10.9-8.821,5.838-7.464,31.136-29.178,32.3-38s-1.385-52.345,1.988-73.812c.349-2.22,32.878-6.637,32.878-6.637Z" transform="translate(-455.639 -947.235)" fill="#3b3b4c"/>
      <path id="Trazado_102154" data-name="Trazado 102154" d="M737.071,1194c-3.08-6.427-5.352-11.115-5.352-11.115.887-4.488,1.533-9.749,1.533-9.749S736.466,1186.326,737.071,1194Z" transform="translate(-637.458 -1037.97)" fill="#1f1f39" opacity="0.57"/>
      <path id="Trazado_102155" data-name="Trazado 102155" d="M626.1,1124.964c4-3.161,14.871-14.726,18.5-26.659l-17.166-.137A264.169,264.169,0,0,0,626.1,1124.964Z" transform="translate(-557.493 -981.212)" fill="#1f1f39" opacity="0.28"/>
      <path id="Trazado_102156" data-name="Trazado 102156" d="M801.18,779.781l10.909.59s4.73-5.812,2.482-7.26a9.281,9.281,0,0,1-3.441-4.97,16.852,16.852,0,0,1-.88-5.392,2.182,2.182,0,0,1,.311-1.269.306.306,0,0,1,.117-.1l-.128-.021-4.687-.789-.294-.387-2.46-3.251a14.261,14.261,0,0,0-2.464,7.128A101.414,101.414,0,0,0,801.18,779.781Z" transform="translate(-689.571 -722.845)" fill="#efaea6"/>
      <path id="Trazado_102157" data-name="Trazado 102157" d="M821.528,774.964a16.854,16.854,0,0,1-.88-5.392,2.182,2.182,0,0,1,.311-1.269c0-.042-.006-.083-.011-.121-.411-3.573-4.318-1.8-4.318-1.8s-.291.245-.663.621a5.978,5.978,0,0,0-1.507,2.206C813.513,772.593,816.339,777.663,821.528,774.964Z" transform="translate(-699.968 -729.668)" fill="#191939" opacity="0.14"/>
      <g id="Grupo_87759" data-name="Grupo 87759" transform="translate(109.195 20.402)">
        <path id="Trazado_102158" data-name="Trazado 102158" d="M825.477,728.645c.383,2.884,3.861,8.155,1.85,8.33s.815,6.092-1.321,6.354c-5.176.633-11.288-2.032-12.073-4.416s-.741-9.242-.741-9.242Z" transform="translate(-808.34 -721.83)" fill="#efaea6"/>
        <path id="Trazado_102159" data-name="Trazado 102159" d="M805.139,710.669c1.643.04,1.712.413,2.832-.231s-.932-2.008,1.188-2.545,4.459-.876,4.571-3.283c.162-3.483-2.948-2.662-4.865-2.088-1.234.369-1.666-2.247-4.152-1.91-1.95.265-1.669,1.358-3.4,1.67-1.046.188-3.178-1.318-4.76.066-2.935,2.566-.265,5.154-2.681,7.828-2.818,3.119,4.3,8.592,5.062,7.785.885-.942-.617-3.777.286-4.554,1.362-1.173,1.593-.014,2.827.968,1.318,1.049,3.654.909,2.051-1.2S803.652,710.633,805.139,710.669Z" transform="translate(-793.212 -700.582)" fill="#191939"/>
      </g>
      <path id="Trazado_102160" data-name="Trazado 102160" d="M687.42,794.211c3.944.083,4.679,6.607,7.58,7.7,1.76.665,1.437-2.609,2.532-3.181.674-.353,1.449-.451,1.856.932,6.665,22.616-17.267,69.044-17.267,69.044s-8.075,4.642-26.514-4.534c-10.356-5.154-1.27-11.062-.167-13.475s21.73-49.75,21.73-49.75A36.33,36.33,0,0,1,687.42,794.211Z" transform="translate(-576.116 -751.071)" fill="#fff"/>
      <path id="Trazado_102161" data-name="Trazado 102161" d="M598.169,861.718a25.463,25.463,0,0,0,5.79-7.333c4.118-8.373,1.411-8.5,4.692-14.567,10.016-21.657,7.733-37.577,34.783-45.469-.287,4.6.539,17.1-.618,27.352a34.073,34.073,0,0,1-2.673,10.854c-.021.042-.04.088-.061.13a.013.013,0,0,0-.005.007c-2.783,6.17-9.546,12.777-13.136,17.527a44.2,44.2,0,0,0-3.379,5.318c-.411.762-.8,1.511-1.149,2.239-3.736,7.769.022,9.276-5.1,12.16-5.385,3.034-17.331,7.373-24.2-2.165C591.687,865.795,595.457,863.219,598.169,861.718Zm-1.841,1.442c-.242.15-.439.276-.566.355C595.942,863.414,596.13,863.294,596.328,863.161Z" transform="translate(-532.275 -751.176)" fill="#0267a4"/>
      <path id="Trazado_102162" data-name="Trazado 102162" d="M789.25,843.2c-1.453,3.132-6.192,7.458-7.747,11.726a52.7,52.7,0,0,0-2.644,10.882c-.864,4.869-4.4,19.31-7.606,23.338-3.432,4.309-5.073,2.685-6.712.008-2.808-4.592,3.21-21.558,8.41-33.615,4.946-11.477,10.093-17.622,11.731-27.848a45.059,45.059,0,0,0-.092-14.363C795.919,821.17,790.061,841.455,789.25,843.2Z" transform="translate(-661.767 -765.548)" fill="#0267a4"/>
      <path id="Trazado_102163" data-name="Trazado 102163" d="M789.25,843.2c-1.453,3.132-6.192,7.458-7.747,11.726a52.7,52.7,0,0,0-2.644,10.882c-.864,4.869-4.4,19.31-7.606,23.338-3.432,4.309-5.073,2.685-6.712.008-2.808-4.592,3.21-21.558,8.41-33.615,4.946-11.477,10.093-17.622,11.731-27.848a45.059,45.059,0,0,0-.092-14.363C795.919,821.17,790.061,841.455,789.25,843.2Z" transform="translate(-661.767 -765.548)" fill="#1f1f39" opacity="0.18"/>
      <path id="Trazado_102164" data-name="Trazado 102164" d="M717.409,915.436a44.2,44.2,0,0,1,3.379-5.318c3.59-4.75,10.353-11.357,13.136-17.527a.013.013,0,0,1,.005-.007c.021-.042.04-.088.061-.13a34.072,34.072,0,0,0,2.673-10.854l-9.793-8.14C721.85,887.234,714.5,908.485,717.409,915.436Z" transform="translate(-626.123 -811.075)" fill="#1f1f39" opacity="0.18"/>
      <path id="Trazado_102165" data-name="Trazado 102165" d="M1110,685.727c-.172.139-.344.277-.519.416.087-.069.175-.136.26-.206S1109.914,685.8,1110,685.727Z" transform="translate(-923.478 -668.932)" fill="#ba470d" opacity="0.29"/>
      <path id="Trazado_102166" data-name="Trazado 102166" d="M1105.4,690.159c-.069.054-.139.108-.208.159v0Z" transform="translate(-920.235 -672.288)" fill="#ba470d" opacity="0.29"/>
      <g id="Grupo_87763" data-name="Grupo 87763" transform="translate(175.764)">
        <g id="Grupo_87762" data-name="Grupo 87762" transform="translate(0)">
          <g id="Grupo_87761" data-name="Grupo 87761">
            <g id="Grupo_87760" data-name="Grupo 87760">
              <path id="Trazado_102167" data-name="Trazado 102167" d="M1172.97,744.364c.408.578.8,1.138,1.179,1.675l.984,1.411q1.122,1.6,2.053,2.947c.982,1.418,4.784,6.007,5.5,7.032,2.474,3.571,3.45,4.9,3.934,4.9.789,0,4.681-1.822,4.995-3.548.164-.9-4.265-6.565-6.189-9.113-.827-1.1-1.744-2.248-2.654-3.35v0c-.272-.331-.542-.658-.812-.979-.578-.691-1.141-1.354-1.665-1.963-1.685-1.958-2.952-3.35-2.952-3.35Z" transform="translate(-1147.313 -710.043)" fill="#4d4d5b"/>
              <path id="Trazado_102168" data-name="Trazado 102168" d="M1067.35,634.283c.429,5.691,6.161,11.883,10.994,17.476,2.51,2.9,3.5,4.111,3.746,4.951a.032.032,0,0,1,0,.016c.015.056.031.111.041.167a1.431,1.431,0,0,1,.021.154v.008a1.61,1.61,0,0,1-.054.519c-.01.046-.026.093-.039.139-.026.075-.051.152-.082.231-.01.031-.023.062-.036.093-.026.064-.051.128-.08.2s-.061.157-.1.241a.5.5,0,0,0-.021.054c-.018.044-.036.09-.054.139-.028.069-.057.142-.085.216s-.054.152-.082.231c-.01.028-.021.057-.028.085-.049.139-.1.29-.139.45-.033.116-.067.239-.1.37a13.874,13.874,0,0,0-.342,2.135c-.008.08-.013.162-.021.246s-.013.17-.018.257c0,.062-.005.118-.005.175s0,.118.008.175a1.094,1.094,0,0,0,.021.164,1.453,1.453,0,0,0,.033.154,1.225,1.225,0,0,0,.044.134.038.038,0,0,0,.005.015.825.825,0,0,0,.044.092,1.038,1.038,0,0,0,.267.342.529.529,0,0,0,.085.064.173.173,0,0,0,.044.031.856.856,0,0,0,.08.044.227.227,0,0,0,.064.033.681.681,0,0,0,.075.033,1.572,1.572,0,0,0,.311.09,2.87,2.87,0,0,0,.8.036h0c.1-.008.2-.016.3-.031s.208-.028.318-.049.219-.041.334-.067h0c.229-.049.468-.113.72-.19.126-.036.254-.077.385-.121.262-.085.532-.182.815-.293.141-.054.283-.111.429-.169s.293-.123.442-.188.3-.131.455-.2c.064-.026.131-.057.2-.087.09-.041.18-.082.27-.126l.478-.228h0c.324-.157.652-.321.989-.5.167-.087.337-.175.509-.267.11-.059.224-.121.337-.18.059-.033.118-.067.18-.1.175-.1.349-.19.527-.291s.355-.2.534-.3q.536-.3,1.087-.634c1.662-.989,3.4-2.107,5.133-3.294.655-.45,1.311-.907,1.958-1.372q.567-.408,1.13-.819c.848-.622,1.683-1.254,2.492-1.886l.208-.162c.282-.221.56-.439.832-.66.087-.069.175-.136.26-.205s.175-.141.259-.211c.221-.18.442-.36.658-.539.108-.087.213-.175.318-.265l.275-.229a39.254,39.254,0,0,0,6.359-6.356c1.822-2.59,2.168-3.635,1.524-4.28a1.861,1.861,0,0,0-.36-.27l-.11-.061c-.113-.059-.239-.118-.375-.177-.09-.039-.187-.077-.288-.116s-.205-.077-.313-.116l-.342-.121c-.118-.044-.242-.085-.367-.128s-.257-.09-.39-.139c-.4-.144-.838-.308-1.3-.506a4.824,4.824,0,0,1-.76-.416c-4.085-2.654-11.238-13.288-16.823-19.39a5.724,5.724,0,0,0-1.932-1.4c-6.585-2.919-18.123,7-21.443,12.065a7.953,7.953,0,0,0-1.274,3.407A8.445,8.445,0,0,0,1067.35,634.283Z" transform="translate(-1067.324 -616.573)" fill="#f9a512"/>
              <path id="Trazado_102169" data-name="Trazado 102169" d="M1123.12,729.293c0,.059,0,.118.008.175a1.092,1.092,0,0,0,.021.164,1.39,1.39,0,0,0,.033.154,1.2,1.2,0,0,0,.044.134.038.038,0,0,0,.005.015.781.781,0,0,0,.044.093,1.036,1.036,0,0,0,.267.342.53.53,0,0,0,.085.064.174.174,0,0,0,.044.031.846.846,0,0,0,.08.044.228.228,0,0,0,.064.033.7.7,0,0,0,.074.034,1.591,1.591,0,0,0,.311.09,2.983,2.983,0,0,0,.8.036h0c.1-.008.2-.016.3-.031s.208-.028.318-.049.219-.041.334-.067h0c.229-.051.468-.116.72-.19.126-.036.254-.077.385-.121.262-.087.534-.185.815-.293.141-.054.283-.11.429-.169s.293-.123.442-.188.3-.131.455-.2l.468-.213.478-.229s0,0,0,0c.324-.159.653-.324.989-.5.167-.087.337-.175.509-.267s.344-.185.516-.28.35-.19.527-.29.355-.2.534-.3c.357-.205.722-.419,1.087-.634,1.662-.989,3.4-2.107,5.133-3.294.655-.449,1.311-.907,1.958-1.372q.566-.408,1.13-.819c.848-.622,1.683-1.254,2.492-1.886v0c.069-.051.139-.105.208-.159.282-.221.56-.439.832-.66.175-.139.347-.277.519-.416.221-.18.442-.36.658-.539.108-.087.213-.175.318-.265l.275-.229a39.252,39.252,0,0,0,6.359-6.356c1.822-2.59,2.168-3.635,1.524-4.28a1.757,1.757,0,0,0-.359-.27c-.036-.02-.072-.041-.111-.061a3.887,3.887,0,0,0-.375-.177c-.09-.039-.187-.077-.288-.116s-.205-.077-.313-.116-.224-.08-.342-.121-.241-.085-.367-.129-.257-.09-.391-.139c-.4-.144-.837-.308-1.3-.506a4.828,4.828,0,0,1-.76-.416,40.471,40.471,0,0,1-8.561,12.014,32.494,32.494,0,0,1-3.024,2.646,18.319,18.319,0,0,1-2.132,1.428,9.363,9.363,0,0,1-1.608.727,44.676,44.676,0,0,1-11.446,2,.032.032,0,0,1,0,.016.867.867,0,0,1,.041.167,1.125,1.125,0,0,1,.021.154v.008a1.552,1.552,0,0,1-.054.519c-.01.046-.023.093-.039.139-.026.075-.051.152-.083.231-.01.031-.023.059-.036.092-.025.064-.051.128-.08.2s-.064.157-.1.241a.485.485,0,0,0-.021.054q-.07.166-.139.355c-.028.074-.054.152-.082.231-.01.028-.021.057-.028.085-.049.139-.1.29-.139.449-.033.116-.067.239-.1.37a13.863,13.863,0,0,0-.342,2.135c-.008.08-.013.162-.021.246s-.013.17-.018.257C1123.123,729.18,1123.12,729.236,1123.12,729.293Z" transform="translate(-1109.57 -683.034)" fill="#ba470d" opacity="0.29"/>
            </g>
            <path id="Trazado_102170" data-name="Trazado 102170" d="M1233.959,817.263c1.315,3.337-4.169,4.617-5,3.55C1228.262,819.905,1233.959,817.263,1233.959,817.263Z" transform="translate(-1189.664 -768.525)" fill="#4d4d5b" opacity="0.59"/>
          </g>
          <path id="Trazado_102171" data-name="Trazado 102171" d="M1067.35,634.283a21.378,21.378,0,0,0,4.972-.876c9.036-2.7,15.826-10.834,17.784-16.307-6.585-2.919-18.123,7-21.443,12.065a7.953,7.953,0,0,0-1.274,3.407A8.445,8.445,0,0,0,1067.35,634.283Z" transform="translate(-1067.324 -616.573)" fill="#fff" opacity="0.38"/>
        </g>
        <path id="Trazado_102172" data-name="Trazado 102172" d="M1165.8,796.3c-.365.216-.729.429-1.087.634Q1165.254,796.626,1165.8,796.3Z" transform="translate(-1141.065 -752.649)" fill="#ba470d" opacity="0.29"/>
        <path id="Trazado_102173" data-name="Trazado 102173" d="M1159.54,801.342c-.085.046-.172.095-.26.141l.08-.041C1159.419,801.409,1159.478,801.375,1159.54,801.342Z" transform="translate(-1136.948 -756.47)" fill="#ba470d" opacity="0.29"/>
        <path id="Trazado_102174" data-name="Trazado 102174" d="M1153.044,803.595c-.337.175-.665.339-.989.5C1152.379,803.937,1152.708,803.772,1153.044,803.595Z" transform="translate(-1131.478 -758.176)" fill="#ba470d" opacity="0.29"/>
        <path id="Trazado_102175" data-name="Trazado 102175" d="M1148.618,806.589l-.467.213c.064-.026.131-.057.2-.087C1148.439,806.674,1148.529,806.633,1148.618,806.589Z" transform="translate(-1128.522 -760.443)" fill="#ba470d" opacity="0.29"/>
        <path id="Trazado_102176" data-name="Trazado 102176" d="M1135.508,811.466c-.252.075-.491.139-.72.19C1135.018,811.607,1135.257,811.543,1135.508,811.466Z" transform="translate(-1118.405 -764.135)" fill="#ba470d" opacity="0.29"/>
        <path id="Trazado_102177" data-name="Trazado 102177" d="M1067.431,686.766c.429,5.691,6.161,11.883,10.994,17.476,2.51,2.9,3.5,4.111,3.746,4.951a44.673,44.673,0,0,0,11.446-2,9.367,9.367,0,0,0,1.608-.727,18.332,18.332,0,0,0,2.132-1.428,24.792,24.792,0,0,1-3.116.018c-11.816-.7-17.633-10.189-21.838-19.161A21.371,21.371,0,0,1,1067.431,686.766Z" transform="translate(-1067.405 -669.056)" fill="#ba470d" opacity="0.48"/>
        <path id="Trazado_102178" data-name="Trazado 102178" d="M1152.224,661.527a1.921,1.921,0,0,1-1.407-.61q-.259-.277-.517-.558a10.623,10.623,0,0,0-3.86-3.1,3.226,3.226,0,0,0-3.236.675,1.927,1.927,0,1,1-2.759-2.69,7.014,7.014,0,0,1,7.334-1.6,13.927,13.927,0,0,1,5.356,4.1q.248.269.5.535a1.927,1.927,0,0,1-1.406,3.244Z" transform="translate(-1122.273 -644.309)" fill="#fff"/>
        <path id="Trazado_102179" data-name="Trazado 102179" d="M1200.82,696.47a1.925,1.925,0,0,1-1.605-.858,8.085,8.085,0,0,0-.5-.674c-.184-.228-.393-.486-.672-.891a1.927,1.927,0,1,1,3.17-2.192c.2.286.338.46.5.661a11.922,11.922,0,0,1,.711.957,1.927,1.927,0,0,1-1.6,3Z" transform="translate(-1166.036 -672.944)" fill="#fff"/>
      </g>
      <g id="Grupo_87764" data-name="Grupo 87764" transform="translate(96.182 15.172)">
        <path id="Trazado_102180" data-name="Trazado 102180" d="M1037.583,699.683c1.857-2.006,2.262.082,3.614-3.227,1.889-4.623,4.857-4.177,7.054-6.252,1.892-1.787,5.488-6.151,4.3-9.641-1.117-3.284-5.787-.267-7.584.635-1.432.719-1.985-2.1-4.435-2.152s.339,4.754-2.439,7.865c-2.415,2.7-3.516,8.221-4.114,9.655S1037.583,699.683,1037.583,699.683Z" transform="translate(-962.451 -679.045)" fill="#efaea6"/>
        <path id="Trazado_102181" data-name="Trazado 102181" d="M781.669,745.548c5.8-.762,31.358-32.42,32.657-33.339.974-.689,8.056,6.568,6.562,9.662-1.228,2.544-25.816,38.933-36.248,40.193-8.318,1.005-44.332-6.838-44.332-6.838s-3.273-18.737,4.529-16.507C747.36,739.44,778.821,745.923,781.669,745.548Z" transform="translate(-739.627 -704.12)" fill="#0267a4"/>
      </g>
      <g id="Grupo_87765" data-name="Grupo 87765" transform="translate(31.698 44.026)">
        <path id="Trazado_102182" data-name="Trazado 102182" d="M741.123,828.959c-.3-.3-5.152,5.89-10.33,7.23a11.345,11.345,0,0,1-4.4.326c-4.334-.6-8.323-1.922-13.577-3.66a40.352,40.352,0,0,1,4.35-4.973c3.664,2,7.314,4.023,9.6,4.216a16.518,16.518,0,0,0,4.933-.362,27.5,27.5,0,0,0,7.7-3.141c1.051-.605,1.417-1.77,2.5-1.6C743.344,827.216,741.512,829.344,741.123,828.959Z" transform="translate(-654.842 -819.906)" fill="#05dbf2" opacity="0.18"/>
        <path id="Trazado_102183" data-name="Trazado 102183" d="M562.9,805.444a1.816,1.816,0,0,0-1.615-2.1c-1.086-.168-1.26.253-2.311.859-3.158,1.819-7.752,3.916-12.634,3.5s-14.563-8.818-21.935-8.661-10.762,6.079-21.289,5.713-20.664-6.821-23.777-6.891-5.066.234-5.223,1.441.958,3.474,2.909,4.733,20.344,6.161,25.394,6.46c8.245.487,16.567-5.416,21.833-4.865s15.581,5.642,21.715,6.488c6.841.943,13.886-5.864,14.274-5.478a1.873,1.873,0,0,0,1.655.706C562.525,807.319,562.814,806.13,562.9,805.444Z" transform="translate(-474.104 -797.858)" fill="#05dbf2"/>
      </g>
    </g>
    <path id="Trazado_102184" data-name="Trazado 102184" d="M1503.21,1269.674c2.083,10.265,2.9,19.133,1.088,27.221s-13.982,57.145-13.122,58.576,4.218,7.5,4.921,9.023-16.116-4.66-16.049-7.752,1.011-1.492,2.857-6.071,4.051-21.07,4.344-24.52-.283-37.693.88-41.485S1503.21,1269.674,1503.21,1269.674Z" transform="translate(-860.473 -705.088)" fill="#f5b1b4"/>
    <path id="Trazado_102185" data-name="Trazado 102185" d="M1468.511,1602.33a1.061,1.061,0,0,1,1.278.074,8.344,8.344,0,0,1,2.618,3.879,8.228,8.228,0,0,0,3.377,5.9c3.048,2.379,6.4,2.306,7.41,3.426s6.721,5.376,4.723,7.286c-2.106,1.609-9.147-.43-11.407-2.587s-7.982-7.8-8.133-7.445c-.711.8-1.109.49-1.109.49-1.765-1.71-4.364-3.742-4.529-4.489s1.06-3.066,2.3-4.079C1465.917,1604.071,1467.591,1602.94,1468.511,1602.33Z" transform="translate(-847.358 -956.821)" fill="#1f1e39"/>
    <path id="Trazado_102186" data-name="Trazado 102186" d="M1595.863,1282.893c.074,1.514,1.279,9.429,2.81,18.942.46,2.861.949,5.869,1.447,8.886,2.287,13.889,4.736,28.069,5.216,29.833.936,3.425,4.615,20.075,4.42,25.137s-1.694,3.859-.663,6.858,22.712-.15,21.475-1.372-9.592-2.734-10.95-3.8c-.921-.729-3.249-33.812-4.99-57.606-.233-3.194-.455-6.22-.665-8.978-.521-6.951-.945-12.2-1.2-14.135-1.087-8.423-4.74-6.142-11.735-6.114C1601.033,1280.54,1595.664,1278.831,1595.863,1282.893Z" transform="translate(-948.159 -713.045)" fill="#f5b1b4"/>
    <path id="Trazado_102187" data-name="Trazado 102187" d="M1643.249,1644.631a1.123,1.123,0,0,1,1.058-.819,8.719,8.719,0,0,1,4.72,1.191,8.554,8.554,0,0,0,6.7,2.223c4.032-.258,6.775-1.824,8.335-1.652s8.274,1.424,8.005,4.261c-.56,2.681-6.714,4.235-9.973,4.124s-11.869-1.515-11.743-1.136c-.01,1.105-.539,1.136-.539,1.136-2.562-.106-6,.111-6.644-.35s-1.262-3.085-.975-4.716C1642.395,1647.748,1642.941,1645.731,1643.249,1644.631Z" transform="translate(-983.186 -988.364)" fill="#1f1e39"/>
    <path id="Trazado_102188" data-name="Trazado 102188" d="M1510.3,1372.484c4.759,1.891,11.959,1.6,15.5,2.155.894-3.723,1.07-4.48,1.4-5.974q.092-.413.176-.832l-12.709-3.367-4.331,4.772C1510.324,1370.292,1510.311,1371.379,1510.3,1372.484Z" transform="translate(-883.381 -776.859)" fill="#1f1f39" opacity="0"/>
    <path id="Trazado_102189" data-name="Trazado 102189" d="M1607.453,1358.347c.459,2.861.836,5.185,1.334,8.2,4.318-1.757,10.232-.945,14.622-.272-.233-3.194-.455-6.22-.665-8.978l-.724-2.48Z" transform="translate(-956.938 -769.557)" fill="#1f1f39" opacity="0"/>
    <path id="Trazado_102190" data-name="Trazado 102190" d="M1390.959,1107.635c4.441,5.456,18.4,1.362,23.593,4.164a21.612,21.612,0,0,0,4.092,1.447c6.368,1.739,17.25,3.38,21.729,2.213,5.754-1.5,11.4-7.334,25.2.176,3.442-12.646-5.182-68.276-11.415-82.866v0a17.051,17.051,0,0,0-.974-1.969s-15.361-9.054-28.737-2.2a23.935,23.935,0,0,0-6.457,4.882c-.032.051-.066.1-.1.154C1404.179,1055.577,1415.069,1078.586,1390.959,1107.635Z" transform="translate(-793.02 -520.614)" fill="#0267a5"/>
    <path id="Trazado_102191" data-name="Trazado 102191" d="M1548.588,773.323c.8.876-1.252,8.383-2.387,8.439-.668.033-6.946-1.989-17.03-5.249,1.48,4.55,2.71,8.895,2.42,10.857a1.562,1.562,0,0,1-.329.838c-1.326,1.475-14.608,2.685-24.664,2.541-6.819-.1-12.155-.822-11.271-2.515.031-.051.064-.1.095-.154a30.6,30.6,0,0,0,5.013-14.716,72.093,72.093,0,0,0,.465-7.615c-2.025-1.125-3.322-2.145-3.579-3-2.952-9.7-5.529-21.538-3.186-24.549,2.1-2.7,10.11-8.784,13.114-9.036a57.611,57.611,0,0,1,9.218.663c7.826,2.4,22.709-1.847,24.962-5.1s16.626-20.317,16.877-22.334,8.866,3.068,8.866,3.068-18.059,25.977-21.312,28.729-15.685,5.881-20.8,7.245a.2.2,0,0,0-.09.049c-.475.439,1.305,3.283,3.132,6.315,1.806,2.993,3.036,5.648,2.792,6.861-.5,2.5-5.867,4.524-6,7.774a15.788,15.788,0,0,0,.889,3.892c4.658,1.485,9.246,2.7,11.31,3.4C1538.312,770.146,1547.758,772.418,1548.588,773.323Z" transform="translate(-870.449 -275.218)" fill="#dad6f7"/>
    <path id="Trazado_102192" data-name="Trazado 102192" d="M1547.521,768.65c-1.137,5.222-.859,7.929,0,9.4.849,1.453,1.8,5.006.123,4.942a30.833,30.833,0,0,1-7.506-3.488,10.329,10.329,0,0,1-2.848-3.773s3.829-6.636,6.461-12.184S1547.521,768.65,1547.521,768.65Z" transform="translate(-903.815 -320.662)" fill="#f5b1b4"/>
    <path id="Trazado_102193" data-name="Trazado 102193" d="M1565.673,790.3c.036-.69.117-1.459.246-2.317.042-.3.4-2.282.46-2.606a3.109,3.109,0,0,0-1.1-.736c-.407-.074-1.245.02-1.625-.445-.632-.773-1.87,1.46-1.327,2.771A9.533,9.533,0,0,0,1565.673,790.3Z" transform="translate(-922.672 -337.39)" fill="#1f1f39" opacity="0.28"/>
    <path id="Trazado_102194" data-name="Trazado 102194" d="M1770.108,682.867c1.651-3.986,5.979-6.132,8.979-6.422,3.524-.341,6.442,4.9,3.069,5s-5.629,4.142-6.308,3.978S1770.108,682.867,1770.108,682.867Z" transform="translate(-1080.091 -255.915)" fill="#efaea6"/>
    <path id="Trazado_102195" data-name="Trazado 102195" d="M1562.908,911.7c-11.6-7.267-13.177-8.714-13.74-15.741-1.368,5.8-.235,7.419.41,8.485S1558.607,909.78,1562.908,911.7Z" transform="translate(-912.319 -422.128)" fill="#1f1f39" opacity="0.28"/>
    <path id="Trazado_102196" data-name="Trazado 102196" d="M1550.508,974.9c.142-.062-25.848-9.635-25.874-10.12-.027,1.124-.011,2-.064,2.7C1525.356,967.3,1550.042,975.108,1550.508,974.9Z" transform="translate(-894.183 -474.242)" fill="#1f1f39" opacity="0.28"/>
    <path id="Trazado_102197" data-name="Trazado 102197" d="M1613.962,865.294c-2.726-3.155-3.749-2.957-7.374-8.273,1,.062,3.635,1.562,4.216,1.9-.475.439,1.305,3.283,3.132,6.315C1613.944,865.253,1613.954,865.273,1613.962,865.294Z" transform="translate(-956.283 -392.649)" fill="#1f1f39" opacity="0.28"/>
    <path id="Trazado_102198" data-name="Trazado 102198" d="M1390.959,1084.969c4.441,5.456,18.4,1.362,23.593,4.164a21.612,21.612,0,0,0,4.092,1.447c9.56-21.276,9.039-53.864,6.656-77.237-.265-2.594-.55-5.077-.849-7.415-.468-3.662-.966-6.974-1.447-9.833a30.6,30.6,0,0,1-5.011,14.715c-.032.051-.066.1-.1.154C1404.179,1032.911,1415.069,1055.92,1390.959,1084.969Z" transform="translate(-793.02 -497.948)" fill="#1f1f39" opacity="0.16"/>
    <g id="Grupo_87768" data-name="Grupo 87768" transform="translate(602.651 429.442)">
      <g id="Grupo_87767" data-name="Grupo 87767">
        <path id="Trazado_102199" data-name="Trazado 102199" d="M1545.945,732.841c2.934,3.658,5.873,4.679,4.513,5.655-1.029.738,4.856,8.359.125,8.905-4.7.544-9.123-.286-11.194-4.752s-3.4-7.034-3.4-7.034Z" transform="translate(-1505.478 -728.068)" fill="#f5b1b4"/>
        <path id="Trazado_102200" data-name="Trazado 102200" d="M1451.849,718.528c-.691,2.631-2.526,4.3-3.089,5.4a1.6,1.6,0,0,1-2.14.353c-.566-.544-1.636-.37-2.466.5-1,1.042.6,2.113,1.466,2.9a2.643,2.643,0,0,1,.535,2.59c-1.028,3.167,4.509,8.935-11.453,16.873-4.021,1.97-5.907-.617-10.058.012-5.626.852-7.16,6.99-11.849,3.41-1.446-1.1-3.634-6.256-1.62-8.354,2.046-2.131,3.943-.666,5.8-1.961,2.122-1.482-1.963-4.346,3.921-8.439,3.921-2.728,6.905.17,9.067-1.879,1.822-1.727,1.761-14.587,10.125-16.355,5.794-1.225,8.979.715,10.391,2.023C1451.068,716.15,1452.055,717.746,1451.849,718.528Z" transform="translate(-1410.362 -713.189)" fill="#3b3b4c"/>
      </g>
    </g>
  </g>
</svg>
