<svg xmlns="http://www.w3.org/2000/svg" width="493.909" height="474.436" viewBox="0 0 493.909 474.436">
  <g id="Grupo_87619" data-name="Grupo 87619" transform="translate(-262.064 -311.643)">
    <g id="Grupo_87555" data-name="Grupo 87555" transform="translate(296.838 511.843)">
      <circle id="Elipse_4761" data-name="Elipse 4761" cx="11.157" cy="11.157" r="11.157" transform="translate(15.907 15.202) rotate(-2.223)" fill="#dde6ed"/>
      <path id="Trazado_101557" data-name="Trazado 101557" d="M644.388,1727.066a9.582,9.582,0,0,0-.176,7.444c2,4.774,7.259,5.587,7.517,5.622l37.552-21.1-7.341-13.066Z" transform="translate(-602.181 -1627.918)" fill="#dde6ed"/>
      <path id="Trazado_101558" data-name="Trazado 101558" d="M713.7,1607.861l25.437,23.508A28.946,28.946,0,0,0,758.43,1610.5l-25.437-23.509Z" transform="translate(-658.349 -1532.683)" fill="#dde6ed"/>
      <path id="Trazado_101559" data-name="Trazado 101559" d="M454.657,1385.967a82.077,82.077,0,0,1,53,19.2l19.289-20.872a140.908,140.908,0,0,1-23.1-52.039Z" transform="translate(-450.997 -1328.785)" fill="#dde6ed"/>
      <path id="Trazado_101560" data-name="Trazado 101560" d="M437.088,1373.3l1.454,1.344a2.4,2.4,0,0,0,3.386-.133l50.169-54.285a2.4,2.4,0,0,0-.133-3.386l-1.454-1.344a2.4,2.4,0,0,0-3.386.133l-50.169,54.285A2.4,2.4,0,0,0,437.088,1373.3Z" transform="translate(-436.318 -1314.859)" fill="#dde6ed"/>
    </g>
    <g id="Grupo_87559" data-name="Grupo 87559" transform="translate(286.116 414.845)">
      <g id="Grupo_87556" data-name="Grupo 87556" transform="translate(0 24.756)">
        <path id="Trazado_101561" data-name="Trazado 101561" d="M382.589,1124.752h68.2q-.093-1.888-.167-3.745h-.019c.079-4.376-2.121-8.592-5.238-10.512a24.468,24.468,0,0,0-5.256-1.932c-2.738-.838-3.972-.978-5.8-1.469a19.957,19.957,0,0,1-2.831-.967c-2.247-.978-2.923-1.767-5.363-2.589a4.712,4.712,0,0,1-.773-.267c-1.863-1.021-1.866-4.246-1.868-5.791a15.97,15.97,0,0,1,1.868-7.392h-7.421v-.7h-2.4v.7h-7.5a18.377,18.377,0,0,1,1.708,7.619c0,1.647,0,4.6-1.708,5.563a4.078,4.078,0,0,1-.773.267c-2.411.791-3.076,1.594-5.363,2.589a19.944,19.944,0,0,1-2.831.967c-1.825.491-3.059.63-5.8,1.469a24.47,24.47,0,0,0-5.256,1.932c-3.117,1.92-5.317,6.136-5.238,10.512h-.018Q382.682,1122.864,382.589,1124.752Z" transform="translate(-382.589 -1062.144)" fill="#dde6ed"/>
        <path id="Trazado_101562" data-name="Trazado 101562" d="M512.172,971.008a17.137,17.137,0,0,1-1.445,5.828c-.454,1.164-4.978,12.753-12.233,12.714-5.483-.029-9.353-6.683-10.788-9.151a18.994,18.994,0,0,1-2.986-9.391c-.13-7.947,5.839-18.157,13.726-18.157C506.556,952.851,512.511,963.284,512.172,971.008Z" transform="translate(-464.338 -952.851)" fill="#dde6ed"/>
      </g>
      <g id="Grupo_87557" data-name="Grupo 87557" transform="translate(52.579 0)">
        <path id="Trazado_101563" data-name="Trazado 101563" d="M646.066,1000.7h68.2q-.092-1.888-.167-3.745h-.018c.079-4.376-2.12-8.592-5.238-10.512a24.488,24.488,0,0,0-5.256-1.932c-2.738-.838-3.972-.978-5.8-1.469a19.934,19.934,0,0,1-2.831-.967c-2.247-.978-2.923-1.767-5.363-2.589a4.71,4.71,0,0,1-.773-.267c-1.863-1.021-1.866-4.247-1.868-5.791a15.97,15.97,0,0,1,1.868-7.392H681.4v-.7h-2.4v.7h-7.5a18.377,18.377,0,0,1,1.708,7.619c0,1.647,0,4.6-1.708,5.564a4.081,4.081,0,0,1-.773.267c-2.411.791-3.076,1.594-5.363,2.589a19.936,19.936,0,0,1-2.831.967c-1.825.491-3.06.631-5.8,1.469a24.486,24.486,0,0,0-5.256,1.932c-3.117,1.92-5.317,6.136-5.238,10.512h-.018Q646.159,998.809,646.066,1000.7Z" transform="translate(-646.066 -938.089)" fill="#dde6ed"/>
        <path id="Trazado_101564" data-name="Trazado 101564" d="M775.649,846.953a17.13,17.13,0,0,1-1.445,5.827c-.454,1.164-4.978,12.753-12.233,12.714-5.483-.029-9.353-6.683-10.788-9.151a19,19,0,0,1-2.986-9.391c-.13-7.947,5.839-18.157,13.726-18.157C770.033,828.8,775.988,839.229,775.649,846.953Z" transform="translate(-727.815 -828.796)" fill="#dde6ed"/>
      </g>
      <g id="Grupo_87558" data-name="Grupo 87558" transform="translate(105.199 25.199)">
        <path id="Trazado_101565" data-name="Trazado 101565" d="M909.748,1126.972h68.2q-.093-1.888-.167-3.745h-.019c.079-4.376-2.121-8.593-5.238-10.512a24.479,24.479,0,0,0-5.256-1.932c-2.738-.838-3.972-.978-5.8-1.469a19.92,19.92,0,0,1-2.831-.967c-2.247-.978-2.923-1.767-5.363-2.589a4.685,4.685,0,0,1-.773-.267c-1.863-1.021-1.866-4.247-1.868-5.791a15.969,15.969,0,0,1,1.868-7.391h-7.421v-.7h-2.4v.7h-7.5a18.378,18.378,0,0,1,1.708,7.619c0,1.648,0,4.6-1.708,5.564a4.07,4.07,0,0,1-.773.267c-2.411.791-3.076,1.594-5.363,2.589a19.923,19.923,0,0,1-2.831.967c-1.825.491-3.06.631-5.8,1.469a24.481,24.481,0,0,0-5.256,1.932c-3.117,1.92-5.317,6.136-5.238,10.512h-.018Q909.841,1125.084,909.748,1126.972Z" transform="translate(-909.748 -1064.364)" fill="#dde6ed"/>
        <path id="Trazado_101566" data-name="Trazado 101566" d="M1039.331,973.228a17.138,17.138,0,0,1-1.445,5.827c-.454,1.164-4.978,12.753-12.233,12.714-5.483-.029-9.353-6.683-10.788-9.151a19,19,0,0,1-2.986-9.391c-.13-7.947,5.839-18.157,13.726-18.157C1033.715,955.071,1039.67,965.5,1039.331,973.228Z" transform="translate(-991.497 -955.071)" fill="#dde6ed"/>
      </g>
    </g>
    <path id="Trazado_101567" data-name="Trazado 101567" d="M1994.426,986.984q-2.4,6.722-4.8,13.444L1975.9,999.9l-3.011-13.121a50.3,50.3,0,0,1-9.712-3.268l-11.244,8.168L1940.9,983.5l5.035-12.826a50.853,50.853,0,0,1-6.188-8.813l-13.44.3-4.412-13.01,11.689-7.841c-.121-1.565-.175-3.148-.151-4.749q.039-2.574.33-5.079l-11.432-8.185q2.14-6.527,4.279-13.054l14.189.751a50.88,50.88,0,0,1,5.9-7.854l-3.995-14.157,11.494-7.524,10.262,9.134a50.3,50.3,0,0,1,9.872-3.013l4.128-13.24,13.738-.032,3.739,13.709a50.317,50.317,0,0,1,8.839,3l11.522-7.95,10.834,8.447-5.108,12.138a50.846,50.846,0,0,1,6.287,8.8l14.366-.124q2.117,6.535,4.232,13.069l-12.232,7.964c.122,1.566.175,3.15.151,4.752-.023,1.5-.115,2.992-.266,4.461l11.86,8.972-4.621,12.937-14.145-1.122a50.8,50.8,0,0,1-6.047,8.125q2.428,6.8,4.856,13.608l-10.958,8.285-11.889-9.219A50.286,50.286,0,0,1,1994.426,986.984Z" transform="translate(-1328.595 -450.38)" fill="#dde6ed"/>
    <g id="Grupo_87560" data-name="Grupo 87560" transform="translate(619.031 450.103)">
      <circle id="Elipse_4762" data-name="Elipse 4762" cx="26.06" cy="26.06" r="26.06" transform="translate(0 36.854) rotate(-45)" fill="#fff"/>
      <path id="Trazado_101568" data-name="Trazado 101568" d="M2130.613,1111.388c-.136,0-.272,0-.409,0a26.16,26.16,0,0,1,.392-52.317c.135,0,.269,0,.4,0a26.16,26.16,0,0,1-.387,52.317Zm-.017-52.12a25.96,25.96,0,0,0-.389,51.917c.135,0,.271,0,.406,0a25.96,25.96,0,0,0,.385-51.918C2130.863,1059.269,2130.729,1059.268,2130.6,1059.268Z" transform="translate(-2093.747 -1048.373)" fill="#dde6ed"/>
    </g>
    <path id="Trazado_101569" data-name="Trazado 101569" d="M1826.609,553.125l-7.754,5.754-7.521-5.458,3.241-8.51a34.042,34.042,0,0,1-4.232-5.489l-9.393.364-3.128-8.75,7.654-5.318a34.413,34.413,0,0,1-.165-7.282l-7.669-4.885,2.412-8.974,9.521-.013q.78-1.388,1.7-2.727.99-1.432,2.1-2.732l-3.35-8.9,7.315-5.731,7.7,5.758a34.378,34.378,0,0,1,6.269-2.2l3.077-9.462,9.292.092,2.335,8.994a34.039,34.039,0,0,1,6.684,2.018l7.3-5.892,7.736,5.148-3.053,9.114a34.041,34.041,0,0,1,3.843,5.008l9.468-.137q1.458,4.412,2.915,8.823l-7.437,4.9a34.417,34.417,0,0,1,.227,7.31l8.124,5.333-2.535,8.94-9.872-.122q-.781,1.389-1.7,2.728-.869,1.256-1.827,2.408l3.294,9.5-7.463,5.536-7.531-5.95a34.38,34.38,0,0,1-6.455,2.294q-1.194,4.738-2.387,9.477l-9.277.537-3.218-9.654A34.017,34.017,0,0,1,1826.609,553.125Z" transform="translate(-1229.141 -133.617)" fill="#dde6ed"/>
    <g id="Grupo_87561" data-name="Grupo 87561" transform="translate(590.802 368.11)">
      <circle id="Elipse_4763" data-name="Elipse 4763" cx="17.627" cy="17.627" r="17.627" transform="translate(0 4.525) rotate(-7.374)" fill="#fff"/>
      <path id="Trazado_101570" data-name="Trazado 101570" d="M1937.225,640.182a17.722,17.722,0,1,1,14.609-7.643A17.626,17.626,0,0,1,1937.225,640.182Zm.051-35.243a17.52,17.52,0,1,0,9.94,3.1A17.522,17.522,0,0,0,1937.276,604.939Z" transform="translate(-1917.506 -602.717)" fill="#dde6ed"/>
    </g>
    <rect id="Rect치ngulo_33971" data-name="Rect치ngulo 33971" width="23.586" height="493.909" rx="11.793" transform="translate(262.064 786.078) rotate(-90)" fill="#dde6ed"/>
    <g id="Grupo_87564" data-name="Grupo 87564" transform="translate(561.134 594.852)">
      <g id="Grupo_87562" data-name="Grupo 87562" transform="translate(0 0)">
        <path id="Trazado_101571" data-name="Trazado 101571" d="M1859.964,1748.87a144.276,144.276,0,0,1-48.581,101.3,152.23,152.23,0,0,1-50.657-98.955,82.871,82.871,0,0,0,50.47-20.392,67.747,67.747,0,0,0,23.73,14.278A68.7,68.7,0,0,0,1859.964,1748.87Z" transform="translate(-1760.726 -1730.826)" fill="#dde6ed"/>
      </g>
      <g id="Grupo_87563" data-name="Grupo 87563" transform="translate(9.651 11.614)">
        <path id="Trazado_101572" data-name="Trazado 101572" d="M1888.969,1803.549a116.138,116.138,0,0,1-39.106,81.544,122.543,122.543,0,0,1-40.777-79.655,66.707,66.707,0,0,0,40.626-16.414,52.13,52.13,0,0,0,18.947,11.66A52.9,52.9,0,0,0,1888.969,1803.549Z" transform="translate(-1809.087 -1789.025)" fill="#dde6ed"/>
      </g>
    </g>
    <g id="Grupo_87565" data-name="Grupo 87565" transform="translate(380.773 316.214)">
      <path id="Trazado_101573" data-name="Trazado 101573" d="M944.956,346.976a22.536,22.536,0,0,0-20.483-12.423c-12.381,0-22.418,15.155-22.418,15.155h0c.014-.3-10.037-15.161-22.418-15.161a22.536,22.536,0,0,0-20.483,12.422c-14.052,28.377,42.9,70.956,42.9,70.956v.006S959.008,375.353,944.956,346.976Z" transform="translate(-856.924 -334.548)" fill="#dde6ed"/>
    </g>
    <g id="Grupo_87616" data-name="Grupo 87616" transform="translate(366.392 311.643)">
      <g id="Grupo_87566" data-name="Grupo 87566" transform="translate(90.955 403.758)">
        <rect id="Rect치ngulo_33972" data-name="Rect치ngulo 33972" width="99.346" height="22.658" rx="11.329" transform="translate(0.898 0.898)" fill="#004266"/>
        <path id="Trazado_101574" data-name="Trazado 101574" d="M1338.486,2359.36H1243.93a3.3,3.3,0,0,1-3.293-3.292V2338.2a3.3,3.3,0,0,1,3.293-3.292h94.557a3.3,3.3,0,0,1,3.293,3.292v17.869A3.3,3.3,0,0,1,1338.486,2359.36ZM1243.93,2336.7a1.5,1.5,0,0,0-1.5,1.5v17.869a1.5,1.5,0,0,0,1.5,1.5h94.557a1.5,1.5,0,0,0,1.5-1.5V2338.2a1.5,1.5,0,0,0-1.5-1.5Z" transform="translate(-1240.637 -2334.906)" fill="#fff"/>
      </g>
      <g id="Grupo_87567" data-name="Grupo 87567" transform="translate(101.941 433.2)">
        <path id="Trazado_101575" data-name="Trazado 101575" d="M1338.9,2518.335c21.356-.027,38.65-13.967,38.629-31.135,0-.085-.007-.168-.009-.253l-77.32.1c0,.085-.008.168-.008.253C1300.209,2504.466,1317.54,2518.362,1338.9,2518.335Z" transform="translate(-1299.29 -2486.048)" fill="#004266"/>
        <path id="Trazado_101576" data-name="Trazado 101576" d="M1335.23,2515.625c-10.509,0-20.4-3.29-27.853-9.268-7.527-6.036-11.679-14.086-11.689-22.667,0-.058,0-.116,0-.174,0-.029,0-.058,0-.087l.007-.89,79.1-.1.008.891c0,.029,0,.057,0,.086,0,.058.005.116.005.175.011,8.58-4.12,16.64-11.632,22.695-7.454,6.008-17.361,9.324-27.893,9.338h-.064Zm-37.737-31.291c.213,7.785,4.1,15.086,11.008,20.622,7.137,5.723,16.628,8.873,26.729,8.873h.062c10.125-.012,19.631-3.188,26.769-8.94,6.89-5.553,10.762-12.865,10.956-20.65Z" transform="translate(-1295.688 -2482.441)" fill="#fff"/>
      </g>
      <g id="Grupo_87568" data-name="Grupo 87568" transform="translate(0.203 0)">
        <path id="Trazado_101577" data-name="Trazado 101577" d="M931.89,316.143c-15.23.028-65.984,2.457-104.366,43.312-29.357,31.248-35.688,68.167-36.889,89.423H1071.2c-2.088-33.222-12.928-66.527-36.507-91.51C996.731,317.149,942.4,316.124,931.89,316.143Z" transform="translate(-789.685 -315.245)" fill="#ffa021"/>
        <path id="Trazado_101578" data-name="Trazado 101578" d="M1068.343,446.174H785.874l.054-.949c1.383-24.494,8.948-59.989,37.131-89.987,16.51-17.573,37.122-30.093,61.265-37.213a157.831,157.831,0,0,1,43.754-6.382h.22a162.5,162.5,0,0,1,41.122,5.554,143.986,143.986,0,0,1,31.291,12.368,122.779,122.779,0,0,1,30.823,23.584,128.451,128.451,0,0,1,26.5,42.963,168.06,168.06,0,0,1,10.251,49.107Zm-280.566-1.8h278.651c-1.741-25.619-9.485-61.689-36.2-90a120.988,120.988,0,0,0-30.374-23.239,142.211,142.211,0,0,0-30.9-12.212,160.66,160.66,0,0,0-40.655-5.492h-.217a156.005,156.005,0,0,0-43.249,6.309c-23.833,7.028-44.176,19.382-60.464,36.72C796.916,385.688,789.285,420.22,787.777,444.378Z" transform="translate(-785.874 -311.643)" fill="#fff"/>
      </g>
      <g id="Grupo_87569" data-name="Grupo 87569" transform="translate(0 132.735)">
        <path id="Trazado_101579" data-name="Trazado 101579" d="M789.448,996.232c.973,35.009,14.6,64.042,23.482,82.971,4.171,8.887,10.4,20.815,17.179,34.9H1028.6c9.623-14.554,19.9-27.777,28.03-47.428,9.911-23.948,15.479-54.633,13.547-85.39H789.61C789.223,988.128,789.368,993.346,789.448,996.232Z" transform="translate(-788.456 -980.39)" fill="#0071bc"/>
        <path id="Trazado_101580" data-name="Trazado 101580" d="M1025.478,1111.4H825.945l-.245-.509c-3.368-7-6.635-13.537-9.516-19.3-2.986-5.974-5.565-11.134-7.666-15.61-9-19.167-22.589-48.131-23.567-83.328-.079-2.844-.226-8.139.162-15.019l.048-.847h282.255l.053.841a202.167,202.167,0,0,1-2.342,45.451,183.687,183.687,0,0,1-11.271,40.339c-6.6,15.948-14.683,27.8-22.5,39.266-1.848,2.711-3.759,5.514-5.611,8.314Zm-198.4-1.8h197.44c1.775-2.677,3.6-5.346,5.358-7.933,7.765-11.388,15.794-23.164,22.324-38.941a181.908,181.908,0,0,0,11.159-39.944,200.485,200.485,0,0,0,2.373-44.2H786.86c-.326,6.392-.19,11.321-.115,14.02.968,34.822,14.466,63.583,23.4,82.615,2.091,4.456,4.666,9.606,7.647,15.57C820.605,1096.42,823.786,1102.785,827.074,1109.607Z" transform="translate(-784.856 -976.789)" fill="#fff"/>
      </g>
      <g id="Grupo_87570" data-name="Grupo 87570" transform="translate(40.225 265.554)">
        <path id="Trazado_101581" data-name="Trazado 101581" d="M993.583,1646.852c5.857,12.177,12.121,25.969,17.816,40.81a222.69,222.69,0,0,1,7.274,21.346c8.437,30.047,3.877,36.017,12.524,46.965,24.91,31.541,98.386,30.9,124.2-2.087,9.729-12.434,6.752-21.9,11.48-46.443,5.395-28,14.925-45.056,25.2-60.591Z" transform="translate(-992.155 -1645.954)" fill="#ff3f1e"/>
        <path id="Trazado_101582" data-name="Trazado 101582" d="M1085.659,1776.434a102.359,102.359,0,0,1-34.787-5.808c-11.164-4.086-20.193-10.206-26.11-17.7-5.05-6.394-5.718-11.062-6.93-19.534a195.1,195.1,0,0,0-5.754-27.745,223.211,223.211,0,0,0-7.247-21.268c-4.869-12.69-10.521-25.636-17.787-40.743l-.619-1.287H1188.01l-.921,1.393c-9.186,13.893-19.457,31.153-25.064,60.266-1.539,7.988-2.245,14.26-2.869,19.794-1.253,11.117-2.08,18.461-8.786,27.032-6.327,8.086-15.927,14.72-27.761,19.185a105.735,105.735,0,0,1-36.69,6.411ZM989.28,1644.148c6.992,14.6,12.479,27.216,17.227,39.59a224.826,224.826,0,0,1,7.3,21.425,196.675,196.675,0,0,1,5.8,27.976c1.168,8.164,1.811,12.661,6.561,18.676,5.712,7.232,14.466,13.153,25.318,17.125a100.764,100.764,0,0,0,34.426,5.7,103.922,103.922,0,0,0,36.06-6.3c11.526-4.349,20.856-10.785,26.981-18.612,6.393-8.17,7.154-14.929,8.416-26.126.627-5.567,1.338-11.876,2.89-19.934,5.484-28.47,15.372-45.721,24.412-59.523Z" transform="translate(-986.425 -1642.352)" fill="#fff"/>
      </g>
      <g id="Grupo_87571" data-name="Grupo 87571" transform="translate(68.596 270.57)">
        <path id="Trazado_101583" data-name="Trazado 101583" d="M1139.6,1679.416a5.511,5.511,0,1,1-11.007,0v-4.307a5.51,5.51,0,1,1,11.007,0Zm-3.176-4.307a2.335,2.335,0,1,0-4.655,0v4.307a2.509,2.509,0,0,0,2.328,2.545,2.479,2.479,0,0,0,2.328-2.545Z" transform="translate(-1128.596 -1668.974)" fill="#fff"/>
        <path id="Trazado_101584" data-name="Trazado 101584" d="M1214.952,1680.072c0,3.22-2.088,6.178-5.5,6.178s-5.525-2.959-5.525-6.178V1671.5a.831.831,0,0,1,.827-.849h1.523a.831.831,0,0,1,.827.849v8.68c0,1.7.914,2.784,2.35,2.784,1.588,0,2.328-1.327,2.328-2.784v-8.68a.831.831,0,0,1,.827-.849h1.545a.814.814,0,0,1,.8.849Z" transform="translate(-1188.891 -1670.022)" fill="#fff"/>
        <path id="Trazado_101585" data-name="Trazado 101585" d="M1285.222,1672.914a.85.85,0,0,1-.827.87h-2.806v11.225a.837.837,0,0,1-.827.87h-1.523a.837.837,0,0,1-.827-.87v-11.225h-2.806a.85.85,0,0,1-.826-.87v-1.5a.837.837,0,0,1,.826-.87h8.789a.837.837,0,0,1,.827.87Z" transform="translate(-1245.608 -1669.934)" fill="#fff"/>
        <path id="Trazado_101586" data-name="Trazado 101586" d="M1344.377,1680.613c-.087-.848-.413-1.066-2.2-1.827l-.565-.239c-2.067-.935-3.35-2.175-3.35-4.568a4.42,4.42,0,0,1,4.59-4.634,6.785,6.785,0,0,1,4.068,1.414.865.865,0,0,1,.239,1.044l-.631,1.283a.775.775,0,0,1-.718.479,1.008,1.008,0,0,1-.5-.13l-.022-.022a4.493,4.493,0,0,0-2.415-.892,1.3,1.3,0,0,0-1.458,1.327c0,.7.327,1.2,2.045,1.958.087.021.348.13,1.327.544a4.352,4.352,0,0,1,2.741,4.111,4.662,4.662,0,0,1-4.917,4.742,7.191,7.191,0,0,1-4.155-1.414.858.858,0,0,1-.24-1.044l.675-1.284a.775.775,0,0,1,.718-.479.844.844,0,0,1,.5.152h.022a4.55,4.55,0,0,0,2.458.892C1343.681,1682.027,1344.355,1681.483,1344.377,1680.613Z" transform="translate(-1296.322 -1668.974)" fill="#fff"/>
        <path id="Trazado_101587" data-name="Trazado 101587" d="M1411.153,1679.416a5.511,5.511,0,1,1-11.008,0v-4.307a5.51,5.51,0,1,1,11.008,0Zm-3.176-4.307a2.335,2.335,0,1,0-4.655,0v4.307a2.509,2.509,0,0,0,2.328,2.545,2.479,2.479,0,0,0,2.327-2.545Z" transform="translate(-1345.955 -1668.974)" fill="#fff"/>
        <path id="Trazado_101588" data-name="Trazado 101588" d="M1485.083,1680.072c0,3.22-2.088,6.178-5.5,6.178s-5.525-2.959-5.525-6.178V1671.5a.831.831,0,0,1,.826-.849h1.523a.831.831,0,0,1,.827.849v8.68c0,1.7.914,2.784,2.349,2.784,1.588,0,2.328-1.327,2.328-2.784v-8.68a.831.831,0,0,1,.827-.849h1.545a.814.814,0,0,1,.8.849Z" transform="translate(-1405.115 -1670.022)" fill="#fff"/>
        <path id="Trazado_101589" data-name="Trazado 101589" d="M1555.6,1679.767l2.915,4.764a.989.989,0,0,1,.13.479.841.841,0,0,1-.848.87h-1.566a.967.967,0,0,1-.848-.479l-3.067-5.2h-.3v4.807a.837.837,0,0,1-.827.87h-1.523a.837.837,0,0,1-.827-.87v-13.161a1.282,1.282,0,0,1,.37-.914,1.126,1.126,0,0,1,.87-.392h3.589a4.75,4.75,0,0,1,4.7,4.83A4.8,4.8,0,0,1,1555.6,1679.767Zm-3.589-6.026V1677h1.545a1.632,1.632,0,0,0,0-3.263Z" transform="translate(-1464.974 -1669.934)" fill="#fff"/>
        <path id="Trazado_101590" data-name="Trazado 101590" d="M1620.328,1681.94a.989.989,0,0,1,.087,1.284l-.022.022a5.424,5.424,0,0,1-4.242,1.958,5.637,5.637,0,0,1-5.4-5.786v-4.307a5.619,5.619,0,0,1,5.4-5.765,5.24,5.24,0,0,1,4.22,1.936.93.93,0,0,1,.217.631,1.068,1.068,0,0,1-.239.675l-.87.957a.836.836,0,0,1-.609.283.81.81,0,0,1-.653-.326,2.554,2.554,0,0,0-2.045-.914,2.453,2.453,0,0,0-2.241,2.523v4.307a2.459,2.459,0,0,0,2.241,2.545,2.554,2.554,0,0,0,2.045-.914.8.8,0,0,1,.631-.326.845.845,0,0,1,.631.283Z" transform="translate(-1514.537 -1668.974)" fill="#fff"/>
        <path id="Trazado_101591" data-name="Trazado 101591" d="M1680.335,1670.108a.85.85,0,0,1,.827.87v1.392a.837.837,0,0,1-.827.87h-1.218v9.158h1.218a.85.85,0,0,1,.827.87v1.392a.837.837,0,0,1-.827.87H1674.7a.837.837,0,0,1-.827-.87v-1.392a.85.85,0,0,1,.827-.87h1.218v-9.158H1674.7a.837.837,0,0,1-.827-.87v-1.392a.85.85,0,0,1,.827-.87Z" transform="translate(-1565.059 -1669.586)" fill="#fff"/>
        <path id="Trazado_101592" data-name="Trazado 101592" d="M1729.552,1676.9v8.114a.824.824,0,0,1-.827.87h-1.37a.837.837,0,0,1-.827-.87v-13.444a1,1,0,0,1,.979-1.022h1.566a1,1,0,0,1,.87.5l4.764,8.506v-8.136a.837.837,0,0,1,.827-.87h1.392a.82.82,0,0,1,.8.87v13.444a1,1,0,0,1-.979,1.022h-1.588a1.03,1.03,0,0,1-.87-.5Z" transform="translate(-1607.206 -1669.934)" fill="#fff"/>
        <path id="Trazado_101593" data-name="Trazado 101593" d="M1809.007,1673.952a1.305,1.305,0,0,1,1.262,1.327v2.349a5.522,5.522,0,1,1-11.029,0V1673.3a5.694,5.694,0,0,1,5.526-5.808,5.6,5.6,0,0,1,4.351,1.936,1.052,1.052,0,0,1,.218.631,1.108,1.108,0,0,1-.239.674l-.892.979a.8.8,0,0,1-.609.283.842.842,0,0,1-.652-.3,2.744,2.744,0,0,0-2.154-.957,2.552,2.552,0,0,0-2.371,2.567v4.329a2.551,2.551,0,0,0,2.371,2.567,2.435,2.435,0,0,0,2.328-2.48v-.566h-2.175a.837.837,0,0,1-.827-.87v-1.458a.85.85,0,0,1,.827-.87Z" transform="translate(-1665.407 -1667.491)" fill="#fff"/>
      </g>
      <g id="Grupo_87572" data-name="Grupo 87572" transform="translate(103.478 140.087)">
        <path id="Trazado_101594" data-name="Trazado 101594" d="M1308.045,1025.03h-1.5v4.264a.82.82,0,0,1-.8.87h-1.545a.82.82,0,0,1-.8-.87v-13.161a1.268,1.268,0,0,1,1.24-1.305h3.415a5.106,5.106,0,0,1,0,10.2Zm1.175-6.439a1.682,1.682,0,0,0-1.284-.565h-1.392v3.807h1.392a1.909,1.909,0,0,0,1.284-3.241Z" transform="translate(-1303.39 -1014.588)" fill="#fff"/>
        <path id="Trazado_101595" data-name="Trazado 101595" d="M1374.582,1024.051l2.915,4.764a.994.994,0,0,1,.13.479.841.841,0,0,1-.848.87h-1.566a.968.968,0,0,1-.849-.479l-3.067-5.2h-.3v4.807a.837.837,0,0,1-.826.87h-1.523a.837.837,0,0,1-.827-.87v-13.161a1.283,1.283,0,0,1,.37-.914,1.127,1.127,0,0,1,.87-.392h3.589a4.75,4.75,0,0,1,4.7,4.829A4.8,4.8,0,0,1,1374.582,1024.051Zm-3.59-6.026v3.263h1.544a1.632,1.632,0,0,0,0-3.263Z" transform="translate(-1354.959 -1014.588)" fill="#fff"/>
        <path id="Trazado_101596" data-name="Trazado 101596" d="M1440.961,1023.7a5.511,5.511,0,1,1-11.007,0v-4.307a5.51,5.51,0,1,1,11.007,0Zm-3.176-4.307a2.335,2.335,0,1,0-4.656,0v4.307a2.509,2.509,0,0,0,2.328,2.545,2.479,2.479,0,0,0,2.328-2.545Z" transform="translate(-1404.697 -1013.628)" fill="#fff"/>
        <path id="Trazado_101597" data-name="Trazado 101597" d="M1511.146,1026.223a.99.99,0,0,1,.087,1.284l-.022.022a5.425,5.425,0,0,1-4.242,1.958,5.637,5.637,0,0,1-5.4-5.786v-4.307a5.618,5.618,0,0,1,5.4-5.765,5.238,5.238,0,0,1,4.22,1.936.93.93,0,0,1,.217.631,1.069,1.069,0,0,1-.239.674l-.87.957a.836.836,0,0,1-.609.283.809.809,0,0,1-.653-.326,2.554,2.554,0,0,0-2.045-.914,2.453,2.453,0,0,0-2.241,2.523v4.307a2.459,2.459,0,0,0,2.241,2.545,2.554,2.554,0,0,0,2.045-.914.8.8,0,0,1,.631-.326.845.845,0,0,1,.631.283Z" transform="translate(-1462.025 -1013.628)" fill="#fff"/>
        <path id="Trazado_101598" data-name="Trazado 101598" d="M1567.868,1018.068v2.567h3.328a.831.831,0,0,1,.827.848v1.458a.831.831,0,0,1-.827.848h-3.328v3.133h4.612a.85.85,0,0,1,.827.87v1.5a.837.837,0,0,1-.827.87h-6.548a1.268,1.268,0,0,1-1.24-1.305v-12.726a1.282,1.282,0,0,1,.37-.914,1.126,1.126,0,0,1,.87-.392h6.548a.837.837,0,0,1,.827.87v1.5a.85.85,0,0,1-.827.87Z" transform="translate(-1512.547 -1014.588)" fill="#fff"/>
        <path id="Trazado_101599" data-name="Trazado 101599" d="M1626.442,1024.9c-.087-.849-.413-1.066-2.2-1.827l-.566-.239c-2.067-.935-3.35-2.175-3.35-4.568a4.42,4.42,0,0,1,4.59-4.634,6.785,6.785,0,0,1,4.068,1.414.864.864,0,0,1,.239,1.044l-.631,1.284a.774.774,0,0,1-.718.479,1.013,1.013,0,0,1-.5-.13l-.022-.022a4.493,4.493,0,0,0-2.415-.892,1.3,1.3,0,0,0-1.457,1.327c0,.7.326,1.2,2.045,1.958.087.021.348.13,1.327.544a4.352,4.352,0,0,1,2.741,4.112,4.663,4.663,0,0,1-4.917,4.742,7.193,7.193,0,0,1-4.155-1.414.858.858,0,0,1-.239-1.044l.674-1.283a.775.775,0,0,1,.718-.479.845.845,0,0,1,.5.152h.022a4.548,4.548,0,0,0,2.458.892C1625.745,1026.311,1626.42,1025.767,1626.442,1024.9Z" transform="translate(-1556.98 -1013.628)" fill="#fff"/>
        <path id="Trazado_101600" data-name="Trazado 101600" d="M1684.872,1024.9c-.087-.849-.413-1.066-2.2-1.827l-.566-.239c-2.066-.935-3.35-2.175-3.35-4.568a4.42,4.42,0,0,1,4.59-4.634,6.785,6.785,0,0,1,4.068,1.414.865.865,0,0,1,.239,1.044l-.631,1.284a.775.775,0,0,1-.718.479,1.011,1.011,0,0,1-.5-.13l-.022-.022a4.494,4.494,0,0,0-2.415-.892,1.3,1.3,0,0,0-1.457,1.327c0,.7.326,1.2,2.045,1.958.087.021.348.13,1.327.544a4.352,4.352,0,0,1,2.741,4.112,4.663,4.663,0,0,1-4.917,4.742,7.2,7.2,0,0,1-4.155-1.414.858.858,0,0,1-.239-1.044l.674-1.283a.775.775,0,0,1,.718-.479.843.843,0,0,1,.5.152h.022a4.548,4.548,0,0,0,2.458.892C1684.176,1026.311,1684.851,1025.767,1684.872,1024.9Z" transform="translate(-1603.75 -1013.628)" fill="#fff"/>
      </g>
      <g id="Grupo_87573" data-name="Grupo 87573" transform="translate(97.49 16.348)">
        <path id="Trazado_101601" data-name="Trazado 101601" d="M1278.606,410.1h-3.981a1.268,1.268,0,0,1-1.24-1.305V396.066a1.282,1.282,0,0,1,.37-.914,1.127,1.127,0,0,1,.87-.392h3.394a4.42,4.42,0,0,1,4.351,4.481,3.667,3.667,0,0,1-.914,2.458,3.993,3.993,0,0,1,1.762,3.546A4.723,4.723,0,0,1,1278.606,410.1Zm-.761-12.182h-1.327v2.7h1.327a1.421,1.421,0,0,0,1.392-1.327A1.383,1.383,0,0,0,1277.844,397.915Zm-1.327,5.743v3.263h1.98a1.633,1.633,0,0,0,0-3.263Z" transform="translate(-1273.385 -394.522)" fill="#fff"/>
        <path id="Trazado_101602" data-name="Trazado 101602" d="M1351.348,404.29c0,3.22-2.088,6.178-5.5,6.178s-5.526-2.958-5.526-6.178v-8.571a.831.831,0,0,1,.826-.848h1.523a.831.831,0,0,1,.827.848v8.68c0,1.7.914,2.784,2.349,2.784,1.588,0,2.328-1.327,2.328-2.784v-8.68a.831.831,0,0,1,.827-.848h1.545a.814.814,0,0,1,.8.848Z" transform="translate(-1326.962 -394.61)" fill="#fff"/>
        <path id="Trazado_101603" data-name="Trazado 101603" d="M1416.891,404.831c-.087-.849-.413-1.066-2.2-1.827l-.566-.239c-2.067-.935-3.35-2.175-3.35-4.568a4.42,4.42,0,0,1,4.59-4.634,6.787,6.787,0,0,1,4.068,1.414.865.865,0,0,1,.239,1.044l-.631,1.284a.775.775,0,0,1-.718.479,1.013,1.013,0,0,1-.5-.131l-.022-.022a4.493,4.493,0,0,0-2.415-.892,1.3,1.3,0,0,0-1.458,1.327c0,.7.326,1.2,2.045,1.958.087.022.348.13,1.327.544a4.352,4.352,0,0,1,2.741,4.111,4.662,4.662,0,0,1-4.916,4.742,7.192,7.192,0,0,1-4.155-1.414.858.858,0,0,1-.239-1.044l.674-1.284a.775.775,0,0,1,.718-.479.845.845,0,0,1,.5.152h.022a4.548,4.548,0,0,0,2.458.892C1416.2,406.245,1416.87,405.7,1416.891,404.831Z" transform="translate(-1383.259 -393.562)" fill="#fff"/>
        <path id="Trazado_101604" data-name="Trazado 101604" d="M1477.376,394.326a.85.85,0,0,1,.827.87v1.392a.837.837,0,0,1-.827.87h-1.218v9.159h1.218a.85.85,0,0,1,.827.87v1.392a.837.837,0,0,1-.827.87h-5.634a.837.837,0,0,1-.826-.87v-1.392a.85.85,0,0,1,.826-.87h1.218v-9.159h-1.218a.837.837,0,0,1-.826-.87V395.2a.85.85,0,0,1,.826-.87Z" transform="translate(-1431.496 -394.174)" fill="#fff"/>
        <path id="Trazado_101605" data-name="Trazado 101605" d="M1526.593,401.113v8.114a.824.824,0,0,1-.827.87h-1.37a.837.837,0,0,1-.827-.87V395.784a1,1,0,0,1,.979-1.023h1.566a1,1,0,0,1,.87.5l4.764,8.506v-8.136a.837.837,0,0,1,.827-.87h1.392a.82.82,0,0,1,.805.87v13.444a1,1,0,0,1-.979,1.022h-1.588a1.03,1.03,0,0,1-.87-.5Z" transform="translate(-1473.643 -394.522)" fill="#fff"/>
        <path id="Trazado_101606" data-name="Trazado 101606" d="M1602.835,398v2.567h3.328a.831.831,0,0,1,.826.848v1.458a.831.831,0,0,1-.826.849h-3.328v3.133h4.612a.85.85,0,0,1,.827.87v1.5a.837.837,0,0,1-.827.87H1600.9a1.268,1.268,0,0,1-1.24-1.305V396.066a1.282,1.282,0,0,1,.37-.914,1.126,1.126,0,0,1,.87-.392h6.548a.837.837,0,0,1,.827.87v1.5a.85.85,0,0,1-.827.87Z" transform="translate(-1534.548 -394.522)" fill="#fff"/>
        <path id="Trazado_101607" data-name="Trazado 101607" d="M1661.407,404.831c-.087-.849-.413-1.066-2.2-1.827l-.566-.239c-2.067-.935-3.35-2.175-3.35-4.568a4.42,4.42,0,0,1,4.59-4.634,6.785,6.785,0,0,1,4.068,1.414.864.864,0,0,1,.239,1.044l-.631,1.284a.775.775,0,0,1-.718.479,1.013,1.013,0,0,1-.5-.131l-.022-.022a4.491,4.491,0,0,0-2.415-.892,1.3,1.3,0,0,0-1.457,1.327c0,.7.326,1.2,2.045,1.958.087.022.348.13,1.327.544a4.352,4.352,0,0,1,2.741,4.111,4.662,4.662,0,0,1-4.916,4.742,7.191,7.191,0,0,1-4.155-1.414.858.858,0,0,1-.239-1.044l.674-1.284a.774.774,0,0,1,.718-.479.846.846,0,0,1,.5.152h.022a4.55,4.55,0,0,0,2.458.892C1660.711,406.245,1661.385,405.7,1661.407,404.831Z" transform="translate(-1578.98 -393.562)" fill="#fff"/>
        <path id="Trazado_101608" data-name="Trazado 101608" d="M1719.838,404.831c-.087-.849-.413-1.066-2.2-1.827l-.566-.239c-2.067-.935-3.35-2.175-3.35-4.568a4.42,4.42,0,0,1,4.59-4.634,6.786,6.786,0,0,1,4.068,1.414.864.864,0,0,1,.239,1.044l-.631,1.284a.774.774,0,0,1-.718.479,1.014,1.014,0,0,1-.5-.131l-.022-.022a4.493,4.493,0,0,0-2.415-.892,1.3,1.3,0,0,0-1.457,1.327c0,.7.326,1.2,2.045,1.958.087.022.348.13,1.327.544a4.352,4.352,0,0,1,2.741,4.111,4.662,4.662,0,0,1-4.917,4.742,7.191,7.191,0,0,1-4.155-1.414.858.858,0,0,1-.239-1.044l.675-1.284a.774.774,0,0,1,.718-.479.846.846,0,0,1,.5.152h.022a4.548,4.548,0,0,0,2.458.892C1719.142,406.245,1719.816,405.7,1719.838,404.831Z" transform="translate(-1625.751 -393.562)" fill="#fff"/>
      </g>
      <g id="Grupo_87589" data-name="Grupo 87589" transform="translate(91.967 290.024)">
        <g id="Grupo_87574" data-name="Grupo 87574" transform="translate(15.89 21.711)">
          <ellipse id="Elipse_4764" data-name="Elipse 4764" cx="33.163" cy="33.193" rx="33.163" ry="33.193" transform="translate(0.898 0.898)" fill="#ff3f1e"/>
          <path id="Trazado_101609" data-name="Trazado 101609" d="M1359.4,1941.954a34.091,34.091,0,1,1,34.062-34.091A34.115,34.115,0,0,1,1359.4,1941.954Zm0-66.386a32.295,32.295,0,1,0,32.266,32.295A32.317,32.317,0,0,0,1359.4,1875.568Z" transform="translate(-1325.337 -1873.772)" fill="#fff6e8"/>
        </g>
        <g id="Grupo_87575" data-name="Grupo 87575" transform="translate(32.673 37.946)">
          <path id="Trazado_101610" data-name="Trazado 101610" d="M1437.8,1987.391q.071,1.843.142,3.686l-3.343,1.194-1.984-2.857a12.979,12.979,0,0,1-2.644.15l-1.911,3.041-3.434-.9q-.013-1.78-.026-3.56a13.15,13.15,0,0,1-2.332-1.518l-3.194,1.365-2.309-2.7,2.049-3q-.27-.545-.493-1.124-.238-.621-.409-1.25l-3.529-.863q-.114-1.771-.229-3.542l3.475-1.185a13.118,13.118,0,0,1,.658-2.451l-2.32-3.011,2.033-2.91,3.34,1.2a12.991,12.991,0,0,1,2.078-1.673q-.142-1.786-.283-3.572l3.291-1.329,2.216,2.928a12.973,12.973,0,0,1,2.408-.132l2-3.015,3.411.984-.057,3.4a13.132,13.132,0,0,1,2.354,1.5l3.433-1.412,2.272,2.727-2.167,3.086c.18.364.345.739.493,1.125q.209.545.366,1.1l3.707,1.011q.068,1.774.136,3.547l-3.5,1.092a13.125,13.125,0,0,1-.669,2.53l2.474,2.8-1.831,3.041-3.738-1.067A12.987,12.987,0,0,1,1437.8,1987.391Z" transform="translate(-1413.209 -1959.32)" fill="#ff3f1e"/>
          <path id="Trazado_101611" data-name="Trazado 101611" d="M1424.694,1989.448l-4.736-1.242-.028-3.714a14.105,14.105,0,0,1-1.573-1.024l-3.312,1.415-3.186-3.718,2.147-3.149c-.108-.24-.208-.481-.3-.721-.1-.27-.2-.545-.287-.822l-3.667-.9-.316-4.886,3.63-1.238a14.027,14.027,0,0,1,.435-1.609l-2.424-3.145,2.8-4.014,3.466,1.248a14,14,0,0,1,1.358-1.09l-.295-3.708,4.54-1.833,2.316,3.061a13.978,13.978,0,0,1,1.512-.082h.018l2.09-3.153,4.7,1.356-.06,3.537a14.026,14.026,0,0,1,1.584,1.015l3.564-1.465,3.134,3.762-2.263,3.222c.106.237.206.476.3.714.085.221.165.449.241.681l3.866,1.054.188,4.893-3.637,1.134a14.027,14.027,0,0,1-.433,1.635l2.561,2.895-2.525,4.194-3.908-1.115a13.9,13.9,0,0,1-1.259,1.018l.149,3.851-4.611,1.647-2.062-2.969a13.772,13.772,0,0,1-1.732.1Zm-2.95-2.63,2.131.559,1.838-2.925.522.024a12.219,12.219,0,0,0,2.461-.14l.558-.089,1.914,2.756,2.075-.742-.136-3.531.421-.279a12.135,12.135,0,0,0,1.8-1.455l.373-.366,3.58,1.022,1.136-1.887-2.395-2.706.189-.506a12.263,12.263,0,0,0,.623-2.357l.088-.55,3.375-1.053-.085-2.2-3.559-.97-.139-.486c-.1-.352-.216-.7-.341-1.021-.135-.35-.289-.7-.46-1.049l-.236-.478,2.078-2.96-1.41-1.693-3.313,1.363-.414-.331a12.256,12.256,0,0,0-2.193-1.4l-.507-.253.055-3.281-2.117-.61-1.913,2.886-.5-.019a12.073,12.073,0,0,0-2.241.123l-.526.078-2.122-2.8-2.043.825.274,3.449-.449.291a12.13,12.13,0,0,0-1.934,1.557l-.4.4-3.226-1.163-1.262,1.806,2.223,2.885-.176.468a12.262,12.262,0,0,0-.613,2.283l-.088.529-3.332,1.136.142,2.2,3.4.832.139.51c.107.393.236.785.382,1.166.134.349.289.7.46,1.048l.232.47-1.957,2.87,1.433,1.673,3.087-1.319.421.343a12.241,12.241,0,0,0,2.172,1.415l.486.248Z" transform="translate(-1409.437 -1955.127)" fill="#fff6e8"/>
        </g>
        <g id="Grupo_87576" data-name="Grupo 87576" transform="translate(42.467 47.432)">
          <circle id="Elipse_4765" data-name="Elipse 4765" cx="6.734" cy="6.734" r="6.734" transform="translate(0.692 1.114) rotate(-1.78)" fill="#ff3f1e"/>
          <path id="Trazado_101612" data-name="Trazado 101612" d="M1466.155,2017.93a7.633,7.633,0,1,1,2.724-.507h0A7.589,7.589,0,0,1,1466.155,2017.93Zm-.006-13.471a5.848,5.848,0,1,0,2.373.508A5.828,5.828,0,0,0,1466.149,2004.459Z" transform="translate(-1458.515 -2002.662)" fill="#fff6e8"/>
        </g>
        <g id="Grupo_87579" data-name="Grupo 87579" transform="translate(66.521 37.165)">
          <g id="Grupo_87577" data-name="Grupo 87577" transform="translate(0 11.995)">
            <path id="Trazado_101613" data-name="Trazado 101613" d="M1583.78,2031.389H1613.8q-.041-.831-.073-1.648h-.008a5.431,5.431,0,0,0-2.306-4.627,10.768,10.768,0,0,0-2.314-.851c-1.205-.369-1.749-.43-2.552-.647a8.738,8.738,0,0,1-1.246-.426,23.242,23.242,0,0,0-2.361-1.139,2.051,2.051,0,0,1-.34-.118c-.82-.45-.822-1.869-.822-2.549a7.03,7.03,0,0,1,.822-3.254h-3.267v-.306h-1.055v.306h-3.3a8.091,8.091,0,0,1,.752,3.354c0,.725,0,2.026-.752,2.449a1.839,1.839,0,0,1-.34.118,21.888,21.888,0,0,0-2.361,1.139,8.728,8.728,0,0,1-1.246.426c-.8.216-1.347.278-2.552.647a10.763,10.763,0,0,0-2.314.851,5.431,5.431,0,0,0-2.306,4.627h-.008Q1583.821,2030.558,1583.78,2031.389Z" transform="translate(-1582.837 -2014.925)" fill="#ff3f1e"/>
            <path id="Trazado_101614" data-name="Trazado 101614" d="M1610.966,2028.685h-31.911l.046-.942q.041-.827.073-1.64l.008-.2c0-.085.005-.171.01-.256l.014-.35h.016a6.2,6.2,0,0,1,2.692-4.553,11.1,11.1,0,0,1,2.522-.945c.784-.24,1.309-.357,1.772-.461.27-.061.526-.118.81-.194a7.856,7.856,0,0,0,1.121-.382,8.7,8.7,0,0,0,.916-.471,7.439,7.439,0,0,1,1.523-.7c.094-.031.157-.05.2-.063.13-.1.271-.484.271-1.649a7.223,7.223,0,0,0-.672-2.984l-.574-1.269h3.8v-.306h2.851v.306h3.843l-.677,1.31a6.148,6.148,0,0,0-.722,2.841c0,1.282.2,1.647.331,1.747.048.014.115.035.22.071a7.87,7.87,0,0,1,1.526.7,8.762,8.762,0,0,0,.906.464,7.881,7.881,0,0,0,1.121.382c.284.077.54.134.81.194.463.1.988.221,1.772.461a11.094,11.094,0,0,1,2.522.945,6.2,6.2,0,0,1,2.692,4.553h.016l.014.342q.008.136.011.272l.007.189q.033.813.073,1.64Zm-29.975-1.8h28.038l.014-.767a4.543,4.543,0,0,0-1.879-3.846,10.656,10.656,0,0,0-2.106-.757c-.718-.22-1.186-.324-1.638-.426-.289-.065-.563-.126-.884-.212a9.78,9.78,0,0,1-1.371-.47,10.606,10.606,0,0,1-1.074-.548,6.132,6.132,0,0,0-1.215-.564c-.09-.03-.143-.046-.179-.057a1.4,1.4,0,0,1-.306-.124c-1.286-.705-1.288-2.482-1.289-3.336a7.624,7.624,0,0,1,.375-2.357h-4.986a8.721,8.721,0,0,1,.359,2.456c0,.892,0,2.552-1.21,3.232a1.433,1.433,0,0,1-.335.137c-.036.011-.087.026-.165.051a5.745,5.745,0,0,0-1.194.552,10.472,10.472,0,0,1-1.088.557,9.742,9.742,0,0,1-1.371.47c-.321.086-.595.147-.884.212-.452.1-.92.206-1.638.426a10.674,10.674,0,0,0-2.106.757,4.544,4.544,0,0,0-1.879,3.846Z" transform="translate(-1579.055 -2011.323)" fill="#fff6e8"/>
          </g>
          <g id="Grupo_87578" data-name="Grupo 87578" transform="translate(9.017)">
            <path id="Trazado_101615" data-name="Trazado 101615" d="M1640.826,1963.707a7.537,7.537,0,0,1-.636,2.565c-.2.512-2.191,5.614-5.385,5.6-2.414-.012-4.118-2.942-4.749-4.028a8.363,8.363,0,0,1-1.314-4.134c-.057-3.5,2.57-7.993,6.042-7.993C1638.354,1955.714,1640.975,1960.307,1640.826,1963.707Z" transform="translate(-1627.843 -1954.816)" fill="#ff3f1e"/>
            <path id="Trazado_101616" data-name="Trazado 101616" d="M1631.22,1969.166h-.021c-2.927-.016-4.811-3.255-5.521-4.475a9.234,9.234,0,0,1-1.436-4.571,10.4,10.4,0,0,1,2.824-7.008,5.777,5.777,0,0,1,4.116-1.9,5.881,5.881,0,0,1,4.252,2,10.069,10.069,0,0,1,2.688,6.935h0a8.36,8.36,0,0,1-.7,2.851C1636.86,1964.446,1634.743,1969.166,1631.22,1969.166Zm-.038-16.156a4.109,4.109,0,0,0-2.836,1.362,8.494,8.494,0,0,0-2.309,5.719,7.478,7.478,0,0,0,1.191,3.694c.516.886,2.079,3.575,3.98,3.585h.011c1.9,0,3.628-2.705,4.533-5.026a6.674,6.674,0,0,0,.576-2.278h0a8.279,8.279,0,0,0-2.191-5.615A4.211,4.211,0,0,0,1631.182,1953.01Z" transform="translate(-1624.241 -1951.214)" fill="#fff6e8"/>
          </g>
        </g>
        <g id="Grupo_87582" data-name="Grupo 87582" transform="translate(34)">
          <g id="Grupo_87580" data-name="Grupo 87580" transform="translate(0 11.995)">
            <path id="Trazado_101617" data-name="Trazado 101617" d="M1420.814,1845.151h30.025q-.041-.831-.073-1.649h-.008a5.431,5.431,0,0,0-2.306-4.628,10.784,10.784,0,0,0-2.314-.851c-1.205-.369-1.749-.43-2.552-.647a8.793,8.793,0,0,1-1.246-.426,23.271,23.271,0,0,0-2.361-1.14,2.081,2.081,0,0,1-.341-.118c-.82-.449-.821-1.869-.822-2.549a7.032,7.032,0,0,1,.822-3.254h-3.267v-.306h-1.055v.306h-3.3a8.1,8.1,0,0,1,.752,3.354c0,.725,0,2.026-.752,2.449a1.794,1.794,0,0,1-.341.118,21.881,21.881,0,0,0-2.361,1.14,8.8,8.8,0,0,1-1.246.426c-.8.216-1.347.278-2.552.647a10.784,10.784,0,0,0-2.314.851,5.43,5.43,0,0,0-2.306,4.628h-.008Q1420.855,1844.32,1420.814,1845.151Z" transform="translate(-1419.871 -1828.687)" fill="#ff3f1e"/>
            <path id="Trazado_101618" data-name="Trazado 101618" d="M1448,1842.448h-31.911l.046-.942q.041-.828.073-1.641l.008-.193c0-.088.005-.176.01-.263l.017-.406h.021a6.192,6.192,0,0,1,2.685-4.494,11.07,11.07,0,0,1,2.517-.944c.789-.241,1.314-.359,1.778-.462.27-.061.525-.117.809-.194a7.9,7.9,0,0,0,1.121-.382,8.8,8.8,0,0,0,.916-.47,7.444,7.444,0,0,1,1.523-.7c.094-.031.157-.05.2-.063.129-.1.271-.483.27-1.649a7.217,7.217,0,0,0-.672-2.984l-.574-1.269h3.8v-.306h2.851v.306h3.843l-.676,1.31a6.141,6.141,0,0,0-.722,2.841c0,1.283.2,1.647.331,1.747.048.014.115.035.22.07a7.892,7.892,0,0,1,1.527.7,8.872,8.872,0,0,0,.906.464,7.912,7.912,0,0,0,1.121.382c.284.076.539.133.809.194.463.1.988.221,1.773.461a11.078,11.078,0,0,1,2.522.945,6.192,6.192,0,0,1,2.685,4.494h.021l.016.4c.005.09.009.18.011.271l.008.189q.033.814.073,1.64Zm-29.975-1.8h28.038l.014-.767a4.542,4.542,0,0,0-1.879-3.846,10.632,10.632,0,0,0-2.1-.756c-.724-.221-1.192-.326-1.644-.427-.289-.065-.562-.126-.883-.212a9.794,9.794,0,0,1-1.371-.469,10.636,10.636,0,0,1-1.074-.548,6.128,6.128,0,0,0-1.215-.564c-.089-.03-.142-.046-.179-.057a1.408,1.408,0,0,1-.306-.124c-1.287-.705-1.289-2.482-1.289-3.336a7.63,7.63,0,0,1,.374-2.357h-4.986a8.721,8.721,0,0,1,.359,2.456c0,.892,0,2.552-1.21,3.232a1.453,1.453,0,0,1-.336.137c-.037.01-.087.025-.165.051a5.693,5.693,0,0,0-1.193.553,10.593,10.593,0,0,1-1.089.557,9.814,9.814,0,0,1-1.371.469c-.321.086-.594.147-.883.212-.453.1-.921.206-1.639.426a10.693,10.693,0,0,0-2.106.757,4.544,4.544,0,0,0-1.879,3.847Z" transform="translate(-1416.088 -1825.085)" fill="#fff6e8"/>
          </g>
          <g id="Grupo_87581" data-name="Grupo 87581" transform="translate(9.017)">
            <path id="Trazado_101619" data-name="Trazado 101619" d="M1477.86,1777.469a7.543,7.543,0,0,1-.636,2.566c-.2.512-2.191,5.614-5.385,5.6-2.414-.013-4.118-2.942-4.749-4.029a8.363,8.363,0,0,1-1.314-4.134c-.057-3.5,2.571-7.993,6.042-7.993C1475.388,1769.476,1478.01,1774.069,1477.86,1777.469Z" transform="translate(-1464.877 -1768.578)" fill="#ff3f1e"/>
            <path id="Trazado_101620" data-name="Trazado 101620" d="M1468.254,1782.927h-.021c-2.927-.016-4.812-3.255-5.521-4.475a9.233,9.233,0,0,1-1.436-4.571,10.406,10.406,0,0,1,2.825-7.008,5.777,5.777,0,0,1,4.116-1.9,5.88,5.88,0,0,1,4.252,1.995,10.068,10.068,0,0,1,2.688,6.935h0a8.359,8.359,0,0,1-.7,2.851C1473.894,1778.208,1471.776,1782.927,1468.254,1782.927Zm-.037-16.156a4.109,4.109,0,0,0-2.836,1.361,8.494,8.494,0,0,0-2.309,5.719,7.474,7.474,0,0,0,1.191,3.694c.516.887,2.079,3.575,3.98,3.585h.011c1.9,0,3.627-2.705,4.533-5.026a6.67,6.67,0,0,0,.576-2.278h0a8.28,8.28,0,0,0-2.191-5.615A4.213,4.213,0,0,0,1468.216,1766.772Z" transform="translate(-1461.275 -1764.976)" fill="#fff6e8"/>
          </g>
        </g>
        <g id="Grupo_87585" data-name="Grupo 87585" transform="translate(34 74.311)">
          <g id="Grupo_87583" data-name="Grupo 87583" transform="translate(0 11.995)">
            <path id="Trazado_101621" data-name="Trazado 101621" d="M1420.814,2217.529h30.025q-.041-.831-.073-1.648h-.008a5.43,5.43,0,0,0-2.306-4.627,10.753,10.753,0,0,0-2.314-.851c-1.205-.369-1.749-.431-2.552-.646a8.79,8.79,0,0,1-1.246-.426,23.218,23.218,0,0,0-2.361-1.14,2.094,2.094,0,0,1-.341-.118c-.82-.449-.821-1.869-.822-2.549a7.033,7.033,0,0,1,.822-3.254h-3.267v-.306h-1.055v.306h-3.3a8.1,8.1,0,0,1,.752,3.354c0,.725,0,2.026-.752,2.449a1.784,1.784,0,0,1-.341.118,21.856,21.856,0,0,0-2.361,1.14,8.8,8.8,0,0,1-1.246.426c-.8.216-1.347.278-2.552.646a10.753,10.753,0,0,0-2.314.851,5.429,5.429,0,0,0-2.306,4.627h-.008Q1420.855,2216.7,1420.814,2217.529Z" transform="translate(-1419.871 -2201.065)" fill="#ff3f1e"/>
            <path id="Trazado_101622" data-name="Trazado 101622" d="M1448,2214.825h-31.911l.046-.942q.041-.827.073-1.64l.008-.192c0-.088.005-.177.01-.265l.014-.346h.016a6.2,6.2,0,0,1,2.692-4.553,11.1,11.1,0,0,1,2.522-.945c.784-.24,1.309-.357,1.772-.461.27-.061.526-.117.81-.194a7.863,7.863,0,0,0,1.121-.382,8.69,8.69,0,0,0,.916-.471,7.467,7.467,0,0,1,1.524-.7c.094-.031.157-.05.2-.064.129-.1.271-.483.27-1.649a7.222,7.222,0,0,0-.672-2.984l-.575-1.269h3.8v-.306h2.851v.306h3.843l-.676,1.31a6.142,6.142,0,0,0-.722,2.841c0,1.282.2,1.647.331,1.747.048.014.116.035.221.07a7.892,7.892,0,0,1,1.527.7,8.91,8.91,0,0,0,.906.464,7.86,7.86,0,0,0,1.121.382c.284.077.54.134.81.194.463.1.988.221,1.772.461a11.1,11.1,0,0,1,2.522.945,6.2,6.2,0,0,1,2.693,4.557h.016l.014.337c.005.091.009.182.011.272l.007.189q.033.813.073,1.64Zm-29.975-1.8h28.038l.014-.767a4.542,4.542,0,0,0-1.879-3.847,10.638,10.638,0,0,0-2.106-.757c-.718-.22-1.186-.324-1.638-.426-.29-.065-.563-.126-.884-.212a9.747,9.747,0,0,1-1.372-.47,10.687,10.687,0,0,1-1.074-.548,6.107,6.107,0,0,0-1.215-.563c-.09-.03-.143-.046-.179-.057a1.391,1.391,0,0,1-.305-.124c-1.287-.705-1.289-2.482-1.289-3.336a7.627,7.627,0,0,1,.374-2.357h-4.986a8.718,8.718,0,0,1,.359,2.456c0,.892,0,2.552-1.21,3.232a1.461,1.461,0,0,1-.335.137c-.036.01-.087.025-.166.051a5.7,5.7,0,0,0-1.194.552,10.52,10.52,0,0,1-1.088.557,9.744,9.744,0,0,1-1.371.47c-.321.086-.595.147-.884.212-.452.1-.92.206-1.638.426a10.636,10.636,0,0,0-2.106.757,4.543,4.543,0,0,0-1.879,3.847Z" transform="translate(-1416.088 -2197.463)" fill="#fff6e8"/>
          </g>
          <g id="Grupo_87584" data-name="Grupo 87584" transform="translate(9.017)">
            <path id="Trazado_101623" data-name="Trazado 101623" d="M1477.86,2149.847a7.545,7.545,0,0,1-.636,2.566c-.2.512-2.191,5.614-5.385,5.6-2.414-.013-4.118-2.942-4.749-4.028a8.367,8.367,0,0,1-1.314-4.135c-.057-3.5,2.571-7.993,6.042-7.993C1475.388,2141.854,1478.01,2146.447,1477.86,2149.847Z" transform="translate(-1464.877 -2140.956)" fill="#ff3f1e"/>
            <path id="Trazado_101624" data-name="Trazado 101624" d="M1468.254,2155.306h-.021c-2.927-.016-4.811-3.255-5.52-4.474a9.237,9.237,0,0,1-1.436-4.572,10.406,10.406,0,0,1,2.825-7.008,5.778,5.778,0,0,1,4.116-1.9,5.881,5.881,0,0,1,4.252,1.995,10.069,10.069,0,0,1,2.688,6.935h0a8.357,8.357,0,0,1-.7,2.851C1473.894,2150.586,1471.777,2155.306,1468.254,2155.306Zm-.038-16.156a4.107,4.107,0,0,0-2.836,1.362,8.493,8.493,0,0,0-2.309,5.719,7.474,7.474,0,0,0,1.191,3.694c.516.888,2.08,3.576,3.98,3.586h.011c1.9,0,3.628-2.705,4.533-5.026a6.67,6.67,0,0,0,.576-2.278h0a8.278,8.278,0,0,0-2.191-5.615A4.211,4.211,0,0,0,1468.216,2139.15Z" transform="translate(-1461.275 -2137.354)" fill="#fff6e8"/>
          </g>
        </g>
        <g id="Grupo_87588" data-name="Grupo 87588" transform="translate(0 36.507)">
          <g id="Grupo_87586" data-name="Grupo 87586" transform="translate(0 11.995)">
            <path id="Trazado_101625" data-name="Trazado 101625" d="M1250.437,2028.093h30.025q-.041-.831-.074-1.649h-.008a5.432,5.432,0,0,0-2.306-4.628,10.775,10.775,0,0,0-2.314-.851c-1.205-.369-1.749-.43-2.552-.647a8.775,8.775,0,0,1-1.246-.426,23.2,23.2,0,0,0-2.361-1.14,2.047,2.047,0,0,1-.34-.118c-.82-.449-.822-1.869-.823-2.55a7.03,7.03,0,0,1,.823-3.254h-3.267v-.306h-1.055v.306h-3.3a8.094,8.094,0,0,1,.752,3.354c0,.725,0,2.026-.752,2.449a1.823,1.823,0,0,1-.34.118,21.891,21.891,0,0,0-2.361,1.14,8.759,8.759,0,0,1-1.246.426c-.8.216-1.347.278-2.552.647a10.772,10.772,0,0,0-2.314.851,5.432,5.432,0,0,0-2.306,4.628h-.008Q1250.478,2027.261,1250.437,2028.093Z" transform="translate(-1249.494 -2011.628)" fill="#ff3f1e"/>
            <path id="Trazado_101626" data-name="Trazado 101626" d="M1277.622,2025.388h-31.911l.046-.942q.041-.827.073-1.641l.008-.193c0-.088.005-.176.011-.264l.014-.346h.016a6.2,6.2,0,0,1,2.692-4.553,11.1,11.1,0,0,1,2.522-.945c.784-.24,1.309-.357,1.772-.461.27-.061.526-.118.81-.194a7.847,7.847,0,0,0,1.121-.382,8.721,8.721,0,0,0,.916-.471,7.453,7.453,0,0,1,1.523-.7c.094-.031.158-.05.2-.064.129-.1.271-.483.27-1.65a7.214,7.214,0,0,0-.672-2.984l-.574-1.269h3.8v-.307h2.851v.307h3.843l-.676,1.31a6.15,6.15,0,0,0-.722,2.841c0,1.283.2,1.647.331,1.747.048.015.115.035.22.071a7.872,7.872,0,0,1,1.526.7,8.851,8.851,0,0,0,.906.464,7.9,7.9,0,0,0,1.121.382c.285.077.54.134.81.194.463.1.988.221,1.772.461a11.112,11.112,0,0,1,2.522.945,6.2,6.2,0,0,1,2.692,4.553h.016l.014.346c.005.088.009.176.011.264l.008.193q.033.813.073,1.641Zm-29.974-1.8h28.038l.014-.767a4.544,4.544,0,0,0-1.879-3.847,10.7,10.7,0,0,0-2.106-.757c-.718-.22-1.186-.324-1.638-.426-.29-.065-.563-.126-.884-.212a9.772,9.772,0,0,1-1.371-.469,10.712,10.712,0,0,1-1.075-.548,6.112,6.112,0,0,0-1.215-.564c-.09-.031-.143-.046-.179-.057a1.392,1.392,0,0,1-.306-.125c-1.286-.7-1.288-2.482-1.289-3.336a7.626,7.626,0,0,1,.375-2.356h-4.986a8.7,8.7,0,0,1,.359,2.455c0,.892,0,2.552-1.21,3.233a1.436,1.436,0,0,1-.335.137c-.036.011-.087.025-.165.051a5.717,5.717,0,0,0-1.194.553,10.5,10.5,0,0,1-1.089.557,9.714,9.714,0,0,1-1.371.469c-.322.087-.595.148-.884.212-.453.1-.92.206-1.639.426a10.688,10.688,0,0,0-2.106.757,4.544,4.544,0,0,0-1.879,3.847Z" transform="translate(-1245.711 -2008.025)" fill="#fff6e8"/>
          </g>
          <g id="Grupo_87587" data-name="Grupo 87587" transform="translate(9.017)">
            <path id="Trazado_101627" data-name="Trazado 101627" d="M1307.483,1960.41a7.538,7.538,0,0,1-.636,2.565c-.2.512-2.191,5.614-5.385,5.6-2.414-.013-4.118-2.942-4.749-4.028a8.361,8.361,0,0,1-1.314-4.135c-.057-3.5,2.57-7.993,6.042-7.993C1305.01,1952.417,1307.632,1957.01,1307.483,1960.41Z" transform="translate(-1294.499 -1951.519)" fill="#ff3f1e"/>
            <path id="Trazado_101628" data-name="Trazado 101628" d="M1297.876,1965.869h-.021c-2.927-.015-4.811-3.255-5.521-4.475a9.234,9.234,0,0,1-1.437-4.572,10.4,10.4,0,0,1,2.825-7.008,5.777,5.777,0,0,1,4.116-1.9,5.88,5.88,0,0,1,4.252,2,10.067,10.067,0,0,1,2.688,6.935h0a8.357,8.357,0,0,1-.7,2.853C1303.516,1961.149,1301.4,1965.869,1297.876,1965.869Zm-.038-16.156a4.108,4.108,0,0,0-2.835,1.362,8.493,8.493,0,0,0-2.309,5.719,7.482,7.482,0,0,0,1.191,3.694c.516.888,2.08,3.576,3.98,3.586h.011c1.9,0,3.628-2.705,4.533-5.026a6.67,6.67,0,0,0,.576-2.279,8.279,8.279,0,0,0-2.191-5.614A4.213,4.213,0,0,0,1297.838,1949.713Z" transform="translate(-1290.897 -1947.917)" fill="#fff6e8"/>
          </g>
        </g>
      </g>
      <g id="Grupo_87604" data-name="Grupo 87604" transform="translate(62.215 173.265)">
        <g id="Grupo_87590" data-name="Grupo 87590">
          <path id="Trazado_101629" data-name="Trazado 101629" d="M1115.391,1235.3l-6.935,1.888-3.735-5.822,4.552-5.021a25.348,25.348,0,0,1-1.447-4.952l-6.611-2.292q.1-3.457.2-6.914l6.747-1.613a25.608,25.608,0,0,1,1.859-5.094l-3.994-5.464,4.1-5.568,6.6,2.571q.917-.751,1.918-1.43,1.074-.725,2.193-1.326.045-3.539.089-7.078l6.624-1.991,3.776,6.077a25.606,25.606,0,0,1,4.941.174l4.7-5.726,6.417,2.581q-.409,3.434-.818,6.868a25.324,25.324,0,0,1,4.087,3.21l6.657-2.107,3.969,5.665-4.586,5.491a25.367,25.367,0,0,1,1.308,4.513l6.6,2.47q-.185,3.454-.37,6.907l-6.484,1.385a25.626,25.626,0,0,1-1.823,5.129l4.188,5.9-4.18,5.511-6.811-2.759q-.918.751-1.919,1.43-.942.636-1.919,1.175-.146,3.741-.291,7.482l-6.674,1.816-3.609-6.165a25.581,25.581,0,0,1-5.1-.158l-4.222,5.924-6.577-2.141q.192-3.782.384-7.565A25.322,25.322,0,0,1,1115.391,1235.3Z" transform="translate(-1100.299 -1184.131)" fill="#004266"/>
          <path id="Trazado_101630" data-name="Trazado 101630" d="M1134.221,1245.183l-3.678-6.284a26.506,26.506,0,0,1-4.178-.132l-4.3,6.026-7.858-2.558.393-7.736a26.271,26.271,0,0,1-3.138-2.45l-7.089,1.93-4.462-6.955,4.64-5.118a26.337,26.337,0,0,1-1.189-4.084l-6.745-2.339.241-8.26,6.891-1.647a26.537,26.537,0,0,1,1.55-4.249l-4.066-5.563,4.9-6.652,6.762,2.632c.515-.406,1.043-.791,1.573-1.149.583-.394,1.188-.768,1.8-1.115l.091-7.215,7.913-2.379,3.859,6.211a26.585,26.585,0,0,1,4.077.146l4.8-5.853,7.667,3.083-.833,6.995a26.29,26.29,0,0,1,3.362,2.644l6.781-2.146,4.741,6.768-4.689,5.615a26.3,26.3,0,0,1,1.063,3.675l6.752,2.527-.442,8.251-6.609,1.412a26.586,26.586,0,0,1-1.523,4.275l4.266,6.009-4.993,6.584-6.96-2.82c-.514.4-1.039.788-1.568,1.145-.494.333-1.011.656-1.543.965l-.3,7.641Zm-2.688-8.146,3.543,6.052,5.375-1.462.285-7.329.442-.245c.642-.356,1.266-.738,1.853-1.134.627-.423,1.25-.888,1.852-1.381l.413-.338,6.668,2.7,3.366-4.438-4.112-5.792.229-.477a24.766,24.766,0,0,0,1.759-4.949l.132-.551,6.365-1.36.3-5.562-6.456-2.416-.095-.5a24.517,24.517,0,0,0-1.261-4.353l-.2-.5,4.487-5.373-3.2-4.562-6.539,2.07-.385-.372a24.473,24.473,0,0,0-3.942-3.1l-.479-.3.8-6.749-5.168-2.079-4.6,5.6-.5-.066a24.838,24.838,0,0,0-4.768-.168l-.535.033-3.7-5.948-5.334,1.6-.087,6.948-.465.251c-.724.39-1.436.821-2.117,1.28-.627.423-1.25.887-1.851,1.38l-.406.332-6.452-2.511-3.3,4.484,3.925,5.371-.239.488a24.713,24.713,0,0,0-1.793,4.915l-.132.53-6.609,1.58-.163,5.568,6.482,2.248.095.514a24.5,24.5,0,0,0,1.4,4.777l.213.523-4.47,4.931,3.008,4.688,6.786-1.848.367.347a24.476,24.476,0,0,0,3.68,2.872l.441.281-.376,7.4,5.3,1.724,4.153-5.826.535.07a24.743,24.743,0,0,0,4.918.153Z" transform="translate(-1096.621 -1179.887)" fill="#fff"/>
        </g>
        <g id="Grupo_87591" data-name="Grupo 87591" transform="translate(17.352 17.381)">
          <circle id="Elipse_4766" data-name="Elipse 4766" cx="13.121" cy="13.121" r="13.121" transform="translate(0 25.76) rotate(-79.008)" fill="#004266"/>
          <path id="Trazado_101631" data-name="Trazado 101631" d="M1204.437,1301.841a14.141,14.141,0,0,1-2.7-.261,13.953,13.953,0,1,1,2.7.261Zm-.055-26.249a12.226,12.226,0,0,0-10.107,19.063h0a12.223,12.223,0,1,0,12.463-18.835A12.336,12.336,0,0,0,1204.382,1275.591Z" transform="translate(-1189.025 -1272.436)" fill="#fff"/>
        </g>
        <g id="Grupo_87592" data-name="Grupo 87592" transform="translate(61.83 21.458)">
          <path id="Trazado_101632" data-name="Trazado 101632" d="M1421.2,1328.6l-4.966,1.352-2.675-4.169,3.26-3.6a18.139,18.139,0,0,1-1.036-3.546L1411.05,1317q.072-2.475.145-4.951l4.831-1.155a18.357,18.357,0,0,1,1.331-3.647l-2.86-3.913,2.938-3.987,4.729,1.841q.657-.538,1.374-1.024.769-.519,1.57-.949l.064-5.069,4.744-1.426,2.7,4.351a18.33,18.33,0,0,1,3.539.125l3.363-4.1,4.595,1.848-.585,4.918a18.152,18.152,0,0,1,2.927,2.3l4.766-1.509,2.842,4.057-3.284,3.932a18.146,18.146,0,0,1,.937,3.232l4.727,1.769q-.132,2.473-.265,4.946l-4.643.992a18.317,18.317,0,0,1-1.306,3.673l3,4.223-2.993,3.947-4.877-1.976q-.657.538-1.374,1.024-.675.455-1.374.841-.1,2.679-.209,5.358l-4.779,1.3-2.584-4.415a18.342,18.342,0,0,1-3.65-.113l-3.024,4.242-4.709-1.533.275-5.417A18.142,18.142,0,0,1,1421.2,1328.6Z" transform="translate(-1410.133 -1291.66)" fill="#004266"/>
          <path id="Trazado_101633" data-name="Trazado 101633" d="M1433.518,1334.771l-2.655-4.536a19.285,19.285,0,0,1-2.728-.086l-3.1,4.346-5.99-1.95.284-5.59a19.09,19.09,0,0,1-2.052-1.6l-5.122,1.395-3.4-5.3,3.349-3.694a19.156,19.156,0,0,1-.778-2.674l-4.87-1.689.184-6.3,4.978-1.19a19.32,19.32,0,0,1,1.022-2.8l-2.934-4.014,3.737-5.071,4.888,1.9c.337-.261.681-.511,1.027-.744.383-.258.779-.505,1.181-.737l.066-5.208,6.033-1.813,2.788,4.487a19.322,19.322,0,0,1,2.672.1l3.469-4.23,5.844,2.351-.6,5.047a19.081,19.081,0,0,1,2.2,1.731l4.893-1.549,3.615,5.159-3.389,4.058a19.244,19.244,0,0,1,.691,2.391l4.879,1.826-.337,6.29-4.771,1.019a19.325,19.325,0,0,1-1,2.816l3.078,4.336-3.806,5.019-5.028-2.037c-.336.26-.677.508-1.021.739-.321.217-.655.427-1,.629l-.215,5.518Zm-1.663-6.4,2.518,4.3,3.48-.947.2-5.2.442-.245c.453-.251.893-.521,1.308-.8.442-.3.882-.626,1.308-.975l.412-.338,4.734,1.918,2.179-2.874-2.923-4.118.229-.477a17.475,17.475,0,0,0,1.242-3.493l.132-.551,4.525-.966.193-3.6-4.582-1.715-.095-.5a17.3,17.3,0,0,0-.89-3.072l-.195-.5,3.184-3.813-2.07-2.954-4.649,1.472-.385-.372a17.3,17.3,0,0,0-2.782-2.185l-.479-.3.571-4.8-3.345-1.346-3.262,3.977-.5-.066a17.427,17.427,0,0,0-3.365-.118l-.535.033-2.624-4.223-3.454,1.038-.062,4.938-.465.251c-.511.275-1.013.579-1.494.9-.442.3-.882.626-1.307.974l-.406.332-4.577-1.781-2.14,2.9,2.791,3.819-.239.487a17.465,17.465,0,0,0-1.266,3.469l-.132.529-4.693,1.122-.105,3.6,4.605,1.6.095.514a17.28,17.28,0,0,0,.985,3.371l.213.523-3.177,3.5,1.948,3.036,4.817-1.312.366.347a17.293,17.293,0,0,0,2.6,2.026l.441.281-.267,5.252,3.429,1.117,2.954-4.145.535.07a17.469,17.469,0,0,0,3.471.108Z" transform="translate(-1406.455 -1287.417)" fill="#fff"/>
        </g>
        <g id="Grupo_87593" data-name="Grupo 87593" transform="translate(72.43 32.12)">
          <circle id="Elipse_4767" data-name="Elipse 4767" cx="9.395" cy="9.395" r="9.395" transform="translate(0 10.875) rotate(-35.362)" fill="#004266"/>
          <path id="Trazado_101634" data-name="Trazado 101634" d="M1483.934,1375.474a10.289,10.289,0,1,1,5.742-1.757A10.292,10.292,0,0,1,1483.934,1375.474Zm-.033-18.79a8.5,8.5,0,0,0-7.026,13.252h0a8.492,8.492,0,1,0,7.026-13.252Z" transform="translate(-1470.819 -1352.084)" fill="#fff"/>
        </g>
        <g id="Grupo_87594" data-name="Grupo 87594" transform="translate(5.364 57.865)">
          <rect id="Rect치ngulo_33973" data-name="Rect치ngulo 33973" width="154.466" height="24.993" rx="12.496" transform="translate(0.898 0.898)" fill="#004266"/>
          <path id="Trazado_101635" data-name="Trazado 101635" d="M1269.693,1496.643H1133.569a10.081,10.081,0,0,1-10.069-10.069v-6.65a10.081,10.081,0,0,1,10.069-10.069h136.124a10.081,10.081,0,0,1,10.069,10.069v6.65A10.081,10.081,0,0,1,1269.693,1496.643Zm-136.124-24.993a8.283,8.283,0,0,0-8.273,8.273v6.65a8.283,8.283,0,0,0,8.273,8.273h136.124a8.283,8.283,0,0,0,8.273-8.273v-6.65a8.283,8.283,0,0,0-8.273-8.273Z" transform="translate(-1123.5 -1469.854)" fill="#fff"/>
        </g>
        <g id="Grupo_87595" data-name="Grupo 87595" transform="translate(11.708 62.68)">
          <circle id="Elipse_4768" data-name="Elipse 4768" cx="7.643" cy="7.643" r="7.643" transform="translate(0.898 0.898)" fill="#004266"/>
          <path id="Trazado_101636" data-name="Trazado 101636" d="M1163.831,1511.064a8.541,8.541,0,1,1,8.541-8.541A8.551,8.551,0,0,1,1163.831,1511.064Zm0-15.286a6.745,6.745,0,1,0,6.745,6.745A6.753,6.753,0,0,0,1163.831,1495.778Z" transform="translate(-1155.29 -1493.982)" fill="#fff"/>
        </g>
        <g id="Grupo_87596" data-name="Grupo 87596" transform="translate(33.414 62.68)">
          <circle id="Elipse_4769" data-name="Elipse 4769" cx="7.643" cy="7.643" r="7.643" transform="translate(0.898 0.898)" fill="#004266"/>
          <path id="Trazado_101637" data-name="Trazado 101637" d="M1272.6,1511.064a8.541,8.541,0,1,1,8.541-8.541A8.551,8.551,0,0,1,1272.6,1511.064Zm0-15.286a6.745,6.745,0,1,0,6.745,6.745A6.753,6.753,0,0,0,1272.6,1495.778Z" transform="translate(-1264.062 -1493.982)" fill="#fff"/>
        </g>
        <g id="Grupo_87597" data-name="Grupo 87597" transform="translate(54.203 62.68)">
          <circle id="Elipse_4770" data-name="Elipse 4770" cx="7.643" cy="7.643" r="7.643" transform="translate(0.898 0.898)" fill="#004266"/>
          <path id="Trazado_101638" data-name="Trazado 101638" d="M1376.779,1511.064a8.541,8.541,0,1,1,8.541-8.541A8.551,8.551,0,0,1,1376.779,1511.064Zm0-15.286a6.745,6.745,0,1,0,6.745,6.745A6.753,6.753,0,0,0,1376.779,1495.778Z" transform="translate(-1368.238 -1493.982)" fill="#fff"/>
        </g>
        <g id="Grupo_87598" data-name="Grupo 87598" transform="translate(75.909 62.68)">
          <circle id="Elipse_4771" data-name="Elipse 4771" cx="7.643" cy="7.643" r="7.643" transform="translate(0.898 0.898)" fill="#004266"/>
          <path id="Trazado_101639" data-name="Trazado 101639" d="M1485.55,1511.064a8.541,8.541,0,1,1,8.541-8.541A8.551,8.551,0,0,1,1485.55,1511.064Zm0-15.286a6.745,6.745,0,1,0,6.745,6.745A6.753,6.753,0,0,0,1485.55,1495.778Z" transform="translate(-1477.009 -1493.982)" fill="#fff"/>
        </g>
        <g id="Grupo_87599" data-name="Grupo 87599" transform="translate(95.629 62.68)">
          <circle id="Elipse_4772" data-name="Elipse 4772" cx="7.643" cy="7.643" r="7.643" transform="translate(0.898 0.898)" fill="#004266"/>
          <path id="Trazado_101640" data-name="Trazado 101640" d="M1584.364,1511.064a8.541,8.541,0,1,1,8.541-8.541A8.551,8.551,0,0,1,1584.364,1511.064Zm0-15.286a6.745,6.745,0,1,0,6.745,6.745A6.753,6.753,0,0,0,1584.364,1495.778Z" transform="translate(-1575.823 -1493.982)" fill="#fff"/>
        </g>
        <g id="Grupo_87600" data-name="Grupo 87600" transform="translate(117.335 62.68)">
          <circle id="Elipse_4773" data-name="Elipse 4773" cx="7.643" cy="7.643" r="7.643" transform="translate(0.898 0.898)" fill="#004266"/>
          <path id="Trazado_101641" data-name="Trazado 101641" d="M1693.137,1511.064a8.541,8.541,0,1,1,8.541-8.541A8.551,8.551,0,0,1,1693.137,1511.064Zm0-15.286a6.745,6.745,0,1,0,6.745,6.745A6.753,6.753,0,0,0,1693.137,1495.778Z" transform="translate(-1684.596 -1493.982)" fill="#fff"/>
        </g>
        <g id="Grupo_87601" data-name="Grupo 87601" transform="translate(138.124 62.68)">
          <circle id="Elipse_4774" data-name="Elipse 4774" cx="7.643" cy="7.643" r="7.643" transform="translate(0.898 0.898)" fill="#004266"/>
          <path id="Trazado_101642" data-name="Trazado 101642" d="M1797.312,1511.064a8.541,8.541,0,1,1,8.541-8.541A8.551,8.551,0,0,1,1797.312,1511.064Zm0-15.286a6.745,6.745,0,1,0,6.745,6.745A6.753,6.753,0,0,0,1797.312,1495.778Z" transform="translate(-1788.771 -1493.982)" fill="#fff"/>
        </g>
        <g id="Grupo_87602" data-name="Grupo 87602" transform="translate(100.444 25.994)">
          <rect id="Rect치ngulo_33974" data-name="Rect치ngulo 33974" width="33.782" height="31.872" transform="translate(0.898 0.898)" fill="#004266"/>
          <path id="Trazado_101643" data-name="Trazado 101643" d="M1635.53,1343.81h-35.578v-33.667h35.578Zm-33.782-1.8h31.986v-30.076h-31.986Z" transform="translate(-1599.952 -1310.143)" fill="#fff"/>
        </g>
        <g id="Grupo_87603" data-name="Grupo 87603" transform="translate(37.35 26.032)">
          <rect id="Rect치ngulo_33975" data-name="Rect치ngulo 33975" width="33.782" height="31.872" transform="translate(0.898 0.898)" fill="#004266"/>
          <path id="Trazado_101644" data-name="Trazado 101644" d="M1319.364,1344h-35.578v-33.668h35.578Zm-33.782-1.8h31.986V1312.13h-31.986Z" transform="translate(-1283.786 -1310.334)" fill="#fff"/>
        </g>
      </g>
      <g id="Grupo_87615" data-name="Grupo 87615" transform="translate(78.584 42.209)">
        <g id="Grupo_87605" data-name="Grupo 87605" transform="translate(36.24 53.714)">
          <rect id="Rect치ngulo_33976" data-name="Rect치ngulo 33976" width="40.816" height="32.125" transform="translate(0.898 0.898)" fill="#ffa021"/>
          <path id="Trazado_101645" data-name="Trazado 101645" d="M1402.859,826.243h-42.612V792.322h42.612Zm-40.816-1.8h39.02V794.118h-39.02Z" transform="translate(-1360.247 -792.322)" fill="#fff"/>
        </g>
        <g id="Grupo_87606" data-name="Grupo 87606" transform="translate(77.056 31.523)">
          <rect id="Rect치ngulo_33977" data-name="Rect치ngulo 33977" width="40.816" height="54.317" transform="translate(0.898 0.898)" fill="#ffa021"/>
          <path id="Trazado_101646" data-name="Trazado 101646" d="M1607.392,737.229H1564.78V681.117h42.612Zm-40.816-1.8h39.02V682.913h-39.02Z" transform="translate(-1564.78 -681.117)" fill="#fff"/>
        </g>
        <g id="Grupo_87607" data-name="Grupo 87607" transform="translate(9.197 37.586)">
          <path id="Trazado_101647" data-name="Trazado 101647" d="M1233.987,742.683l-3.307-3.828,17.681-20.467,3.307,3.828Z" transform="translate(-1229.492 -717.013)" fill="#ffa021"/>
          <path id="Trazado_101648" data-name="Trazado 101648" d="M1229.226,738.546l-4.494-5.2L1243.6,711.5l4.494,5.2Zm-2.121-5.2,2.121,2.455,16.495-19.094-2.12-2.455Z" transform="translate(-1224.732 -711.503)" fill="#fff"/>
        </g>
        <g id="Grupo_87608" data-name="Grupo 87608" transform="translate(28.853 36.161)">
          <rect id="Rect치ngulo_33978" data-name="Rect치ngulo 33978" width="5.414" height="37.38" transform="translate(38.278 0.898) rotate(90)" fill="#ffa021"/>
          <path id="Trazado_101649" data-name="Trazado 101649" d="M1362.41,711.57h-39.176v-7.21h39.176Zm-37.38-1.8h35.584v-3.618H1325.03Z" transform="translate(-1323.234 -704.36)" fill="#fff"/>
        </g>
        <g id="Grupo_87609" data-name="Grupo 87609" transform="translate(65.015 4.734)">
          <path id="Trazado_101650" data-name="Trazado 101650" d="M1514.228,588.122l-3.943-2.911,17.446-31.663,3.943,2.911Z" transform="translate(-1509.119 -552.216)" fill="#ffa021"/>
          <path id="Trazado_101651" data-name="Trazado 101651" d="M1509.843,584.113l-5.4-3.987,18.32-33.25,5.4,3.987Zm-3.069-4.5,2.486,1.835,16.572-30.076-2.486-1.835Z" transform="translate(-1504.442 -546.875)" fill="#fff"/>
        </g>
        <g id="Grupo_87610" data-name="Grupo 87610" transform="translate(24.822 34.328)">
          <ellipse id="Elipse_4775" data-name="Elipse 4775" cx="4.84" cy="5.603" rx="4.84" ry="5.603" transform="translate(0.898 0.898)" fill="#ffa021"/>
          <path id="Trazado_101652" data-name="Trazado 101652" d="M1308.77,708.177c-3.164,0-5.738-2.916-5.738-6.5s2.574-6.5,5.738-6.5,5.738,2.916,5.738,6.5S1311.934,708.177,1308.77,708.177Zm0-11.206c-2.174,0-3.942,2.11-3.942,4.7s1.769,4.705,3.942,4.705,3.942-2.111,3.942-4.705S1310.944,696.971,1308.77,696.971Z" transform="translate(-1303.032 -695.175)" fill="#fff"/>
        </g>
        <g id="Grupo_87611" data-name="Grupo 87611" transform="translate(61.372 33.449)">
          <ellipse id="Elipse_4776" data-name="Elipse 4776" cx="4.84" cy="5.603" rx="4.84" ry="5.603" transform="translate(0.898 0.898)" fill="#ffa021"/>
          <path id="Trazado_101653" data-name="Trazado 101653" d="M1491.926,703.77c-3.164,0-5.738-2.916-5.738-6.5s2.574-6.5,5.738-6.5,5.738,2.916,5.738,6.5S1495.09,703.77,1491.926,703.77Zm0-11.206c-2.174,0-3.942,2.111-3.942,4.7s1.768,4.7,3.942,4.7,3.942-2.111,3.942-4.7S1494.1,692.564,1491.926,692.564Z" transform="translate(-1486.188 -690.768)" fill="#fff"/>
        </g>
        <g id="Grupo_87612" data-name="Grupo 87612" transform="translate(6.796 54.264)">
          <ellipse id="Elipse_4777" data-name="Elipse 4777" cx="4.84" cy="5.603" rx="4.84" ry="5.603" transform="translate(0.898 0.898)" fill="#ffa021"/>
          <path id="Trazado_101654" data-name="Trazado 101654" d="M1218.442,808.079c-3.164,0-5.738-2.916-5.738-6.5s2.574-6.5,5.738-6.5,5.738,2.916,5.738,6.5S1221.606,808.079,1218.442,808.079Zm0-11.206c-2.174,0-3.942,2.111-3.942,4.7s1.768,4.7,3.942,4.7,3.942-2.11,3.942-4.7S1220.616,796.873,1218.442,796.873Z" transform="translate(-1212.704 -795.077)" fill="#fff"/>
        </g>
        <g id="Grupo_87613" data-name="Grupo 87613" transform="translate(80.462)">
          <ellipse id="Elipse_4778" data-name="Elipse 4778" cx="4.84" cy="5.603" rx="4.84" ry="5.603" transform="translate(0.898 0.898)" fill="#ffa021"/>
          <path id="Trazado_101655" data-name="Trazado 101655" d="M1587.586,536.157c-3.164,0-5.738-2.916-5.738-6.5s2.574-6.5,5.738-6.5,5.738,2.916,5.738,6.5S1590.75,536.157,1587.586,536.157Zm0-11.206c-2.174,0-3.942,2.111-3.942,4.705s1.769,4.7,3.942,4.7,3.942-2.11,3.942-4.7S1589.76,524.951,1587.586,524.951Z" transform="translate(-1581.848 -523.155)" fill="#fff"/>
        </g>
        <g id="Grupo_87614" data-name="Grupo 87614" transform="translate(0 69.858)">
          <rect id="Rect치ngulo_33979" data-name="Rect치ngulo 33979" width="36.324" height="16.058" transform="translate(0.898 0.898)" fill="#ffa021"/>
          <path id="Trazado_101656" data-name="Trazado 101656" d="M1216.766,891.074h-38.119V873.22h38.119Zm-36.323-1.8h34.527V875.016h-34.527Z" transform="translate(-1178.647 -873.22)" fill="#fff"/>
        </g>
      </g>
    </g>
    <g id="Grupo_87617" data-name="Grupo 87617" transform="translate(340.61 519.88)">
      <path id="Trazado_101657" data-name="Trazado 101657" d="M1130.73,1693.012c3.736-2.634,3.494-5,5.371-6.392s5.428-3.167,5.921-5.2,2.209-.554,1.98,1.432a8.493,8.493,0,0,1-1.541,3.688,47.425,47.425,0,0,0,6.2-5.731c1.287-1.43,2.354-3.033,3.023-2.775.586.226.5,1.725.454,2.576a10.842,10.842,0,0,1-1.811,5.289,17.891,17.891,0,0,1-2.473,2.782c-3.125,3.132-4.629,4.9-6.922,5.453a9.342,9.342,0,0,0-5.545,3.433Z" transform="translate(-1035.927 -1613.571)" fill="#a56158"/>
      <path id="Trazado_101658" data-name="Trazado 101658" d="M738.923,1923.124l.048,131.034-9.5-.322L717.5,1948.446,692.9,2052.6l-8.932-.3,10.213-111.99L699,1921.771Z" transform="translate(-678.317 -1808.694)" fill="#393f50"/>
      <path id="Trazado_101659" data-name="Trazado 101659" d="M917.418,2583.879c-.147,4.333,17.186,3.146,16.938,10.474l-27.135-.919s-1.07-3.744.694-9.877Z" transform="translate(-856.763 -2338.415)" fill="#212121"/>
      <path id="Trazado_101660" data-name="Trazado 101660" d="M672.053,2586.1a21.608,21.608,0,0,0-1.81-9.962l-8.932-.3s-5.965,6.5-5.635,9.709Z" transform="translate(-655.663 -2332.231)" fill="#212121"/>
      <path id="Trazado_101661" data-name="Trazado 101661" d="M791.324,1523.591l6.025-3.583,8.648,2.234,4.108,11.294,1.408,67.654-19.714-.668-4.4-59.867Z" transform="translate(-761.107 -1487.107)" fill="#c0cce5"/>
      <path id="Trazado_101662" data-name="Trazado 101662" d="M953.966,1780.722c-.767-7.031-1.487-12.915-1.691-14.522Z" transform="translate(-893.084 -1684.168)" fill="#f0efef"/>
      <path id="Trazado_101663" data-name="Trazado 101663" d="M941.4,1660.852l2.117,20.586s5.145,11.477,7.091,15.065,7.463,4.674,14.784.5,20.818-11.7,20.818-11.7l-.275-.985s-9.42,4.927-20.632,10.861-11.44.772-14.978-6.169C944.136,1676.851,941.4,1660.852,941.4,1660.852Z" transform="translate(-884.382 -1599.843)" fill="#bdd1de"/>
      <path id="Trazado_101664" data-name="Trazado 101664" d="M750.2,1826.449l8.087,12.107-.256-.383-6.994-18.559S750.651,1823.861,750.2,1826.449Z" transform="translate(-731.338 -1726.923)" fill="#bdd1de"/>
      <path id="Trazado_101665" data-name="Trazado 101665" d="M743.887,1705.564a343.643,343.643,0,0,0-1.575-36.973s4.063,16.613,4.438,28.968-.4,11.7-.4,11.7Z" transform="translate(-725.02 -1606.038)" fill="#bdd1de"/>
      <path id="Trazado_101666" data-name="Trazado 101666" d="M733.152,1941.137l3.665,4.857h0l-4.338-1.33Z" transform="translate(-717.149 -1824.196)" fill="#bdd1de"/>
      <path id="Trazado_101667" data-name="Trazado 101667" d="M757.874,1907.569a13.069,13.069,0,0,1-7.286,10.166l-.905-1.346a15.366,15.366,0,0,0,7.031-10.557Z" transform="translate(-730.92 -1795.936)" fill="#bdd1de"/>
      <path id="Trazado_101668" data-name="Trazado 101668" d="M829.563,1461.7a19.267,19.267,0,0,1,.024,5.658c-.3,3.15-1.027,4.1-1.027,4.1s-.079,1.147-.117,2.29a13.06,13.06,0,0,0,.109,1.927c.806,1.464,2.366,3.6,4.638,3.677a6.936,6.936,0,0,0,5.475-2.655l.715-4.354Z" transform="translate(-793.96 -1440.435)" fill="#a56158"/>
      <path id="Trazado_101669" data-name="Trazado 101669" d="M783.753,1388.41c2.867-.923-2.26-13.841,4.391-19.271,4.661-3.805,12.321.67,14.094-2.4,1.273-2.207-1.48-6.233-3.856-8.309-4.57-3.993-11.336-3.909-16.109-2.1-1.524.578-6.863,2.8-9.112,8.09C768.465,1375.463,780.578,1389.432,783.753,1388.41Z" transform="translate(-748.858 -1355.133)" fill="#222121"/>
      <path id="Trazado_101670" data-name="Trazado 101670" d="M822.042,1406.092s2.057,16.418-3.518,19.747-14.846-4.734-16.041-7.791c0,0-4.292.77-4.833-3.043s5.095-4.06,5.831-1.354a5.584,5.584,0,0,0,1.283-1.455,5.9,5.9,0,0,0,.738-3.888,4.817,4.817,0,0,0,3.279-.974c1.3-1.12,1.1-2.626,2.364-3.358.9-.518,1.906-.288,3.117.007C816.37,1404.5,819,1405.184,822.042,1406.092Z" transform="translate(-769.286 -1393.982)" fill="#a56158"/>
      <path id="Trazado_101671" data-name="Trazado 101671" d="M757.821,2260.477" transform="translate(-737.435 -2079.808)" fill="#d2e4f2"/>
      <path id="Trazado_101672" data-name="Trazado 101672" d="M700.524,1606.745c1.155-25.788.3-36.136.771-50.69.117-3.608-.141-13.442-1.891-27.891h0c-.855-8.716-1.673-15.341-1.673-15.341l2.678-3.026s-14.054,9.779-20.09,13.677-8.794,9.957-10.384,19.212-6.04,27.564-3.215,33.655,13.061,19.533,13.061,19.533L678.467,1606Zm-17.879-28.286a36.613,36.613,0,0,1-3.6-6.749c-.98-2.873,3.25-14.681,3.25-14.681C683.727,1571.277,682.646,1578.458,682.646,1578.458Z" transform="translate(-663.779 -1478.932)" fill="#51568a"/>
      <path id="Trazado_101673" data-name="Trazado 101673" d="M901.941,1592.712c-1.946-3.587-7.091-15.065-7.091-15.065l.052.437c.2,1.607.924,7.491,1.691,14.522l.192,1.682c.488,4.513.985,9.367,1.37,13.811.587,6.771.833,12.55.943,16.669l-14.425-.489c.362-4.651.683-9.106.908-13.2a343.4,343.4,0,0,0-4.646-77.385l-.336-2.511c8.933,2.773,13.447,7.065,15.846,10.136,4.3,5.5,5.163,12.217,7.917,22.335,3.729,13.7,3.78,20.121,8.188,18.027,4.749-2.253,18.8-10.335,18.8-10.335,2.888,1.224,4.609,4.975,5.469,7.56l.009.01a24.651,24.651,0,0,1,.716,2.589s-13.5,7.542-20.818,11.706S903.887,1596.309,901.941,1592.712Z" transform="translate(-835.71 -1496.052)" fill="#51568a"/>
    </g>
    <g id="Grupo_87618" data-name="Grupo 87618" transform="translate(566.946 530.311)">
      <path id="Trazado_101674" data-name="Trazado 101674" d="M1810.128,1610.2c-3.559-1.943-3.6-4.063-5.4-5.1s-5.1-2.237-5.751-3.992-2-.259-1.584,1.479a7.633,7.633,0,0,0,1.746,3.109,42.145,42.145,0,0,1-6.049-4.431c-1.282-1.134-2.39-2.443-2.949-2.144-.49.262-.255,1.583-.122,2.333a9.762,9.762,0,0,0,2.155,4.5,15.928,15.928,0,0,0,2.467,2.208c3.077,2.449,4.585,3.856,6.656,4.108a8.244,8.244,0,0,1,5.232,2.462Z" transform="translate(-1789.85 -1560.827)" fill="#eec5bf"/>
      <path id="Trazado_101675" data-name="Trazado 101675" d="M1951.8,2561.914l-8.8,7.818s1.768,2.365,7.635.7a17.943,17.943,0,0,0,9.837-6.353,20.809,20.809,0,0,1,3.479-3.248l.014,2.055,2.627-.018s2.845-4.577.292-11.814Z" transform="translate(-1912.433 -2322.828)" fill="#212121"/>
      <path id="Trazado_101676" data-name="Trazado 101676" d="M2195.878,2573.975l-1.523,7.409a2.92,2.92,0,0,0,.278,1.951l3.88,7.35a2.92,2.92,0,0,0,2.6,1.557l.324,0a2.921,2.921,0,0,0,2.742-1.973l2.151-6.272a2.918,2.918,0,0,0,0-1.888l-2.957-8.685Z" transform="translate(-2113.585 -2340.733)" fill="#212121"/>
      <path id="Trazado_101677" data-name="Trazado 101677" d="M1994.417,2242.359s1.5,36.265.327,46.78-3.325,14.657-7.646,19.191c0,0,.7,2.371,4.168-.029s9.809-8.2,10.916-10.833c0,0-1.924-6.866,1.011-16.394s7.286-31.323,6.427-46.827Z" transform="translate(-1947.736 -2069.244)" fill="#eec5bf"/>
      <path id="Trazado_101678" data-name="Trazado 101678" d="M2150.479,2227.9s3.166,23.327,6.242,33.98,4.868,28.319,4.084,35.5c0,0,1.721,7.558,4.556,7.538s2.946-8.091,2.946-8.091a68.987,68.987,0,0,1-1.651-21.336c.917-12.015-.6-37.355-1.467-42.853S2150.479,2227.9,2150.479,2227.9Z" transform="translate(-2078.512 -2064.133)" fill="#eec5bf"/>
      <path id="Trazado_101679" data-name="Trazado 101679" d="M2080.982,1442.894c2.881,4.137,6.507,5.048,11.968,7.58,25.4,11.777,32.405,31.688,38.1,28.952,4.319-2.074,2.225-16.753-2.586-27.284-3.386-7.412-5.363-6.732-11.431-16.5-9.851-15.861-8.811-24.359-16.538-27.366-5.635-2.193-11.183.379-12.685,1.167C2076.661,1415.282,2074.548,1433.657,2080.982,1442.894Z" transform="translate(-2019.997 -1407.404)" fill="#c66847"/>
      <path id="Trazado_101680" data-name="Trazado 101680" d="M2061.681,1679.875l31.554.078q.083-43.738.166-87.477a9.644,9.644,0,0,0-2.759-.7,9.747,9.747,0,0,0-4.187.508c0,.141.009.348,0,.6a10.142,10.142,0,0,1-.342,2.517c-.557,1.665-3.523,2.534-5.731,2.435a5.714,5.714,0,0,1-3.722-1.411,4.19,4.19,0,0,1-.848-1.431h0c-.063-.52-.11-1.079-.132-1.676-.015-.417-.017-.817-.008-1.2a13.447,13.447,0,0,1-7.242.35Q2065.057,1636.174,2061.681,1679.875Z" transform="translate(-2007.435 -1554.946)" fill="#cad2e5"/>
      <path id="Trazado_101681" data-name="Trazado 101681" d="M2097.217,1917.151a64.7,64.7,0,0,1-31.73.222q-.255-36.409-.51-72.818a44.389,44.389,0,0,0,31.73-.222Q2096.962,1880.742,2097.217,1917.151Z" transform="translate(-2010.073 -1757.14)" fill="#4b517c"/>
      <path id="Trazado_101682" data-name="Trazado 101682" d="M1857.435,1603.481c2.211.244,3.15,3.494,5.318,7.028a33.421,33.421,0,0,0,12.415,11.529l14.454-22.186c0-.063,0-.126,0-.189a9.4,9.4,0,0,1,2.371-3.37c4.328-3.871,10.793-1.936,11.364-1.756l-2.751,128.688a21.586,21.586,0,0,1-29.066,4.634,538.923,538.923,0,0,0,15.417-81.357q1.613-14.581,2.376-28.329c-3.594,11.766-10.451,19.069-16.691,19.089-7.214.023-13.9-9.687-15.895-12.582a39.467,39.467,0,0,1-6.088-14.327C1852.422,1606.991,1854.924,1603.2,1857.435,1603.481Z" transform="translate(-1838.523 -1556.68)" fill="#383e4f"/>
      <path id="Trazado_101683" data-name="Trazado 101683" d="M1960.936,1745.7l19.474-.136a3.508,3.508,0,0,0,3.344-4.488l-7.531-25.863a3.508,3.508,0,0,0-3.392-2.526l-18.909.132a3.508,3.508,0,0,0-3.362,4.42l6.966,25.867A3.507,3.507,0,0,0,1960.936,1745.7Z" transform="translate(-1918.39 -1651.767)" fill="#d9e1f0"/>
      <path id="Trazado_101684" data-name="Trazado 101684" d="M2058.43,1790.33c4.9,2.384,6.977,2.713,7.92,2.459a17.96,17.96,0,0,1,2.577.281q-.005-1.134-.016-2.275-.03-3.231-.1-6.406c-2.823-1.4-5.628-2.545-6.179-1.813-.416.552.715,1.813.314,2.213-.75.75-6.283-2.112-8.224-3.116-.183-.095-.685-.357-.9-.173-.085.073-.177.259.006.838C2055.705,1788.324,2058.43,1790.33,2058.43,1790.33Z" transform="translate(-2001.062 -1706.796)" fill="#eec5bf"/>
      <path id="Trazado_101685" data-name="Trazado 101685" d="M2128.751,1643.917l-.074-10.537,11.012-.077c-.243-2.618-.471-5.006-.543-9.815-.164-10.975.784-14.72,1.321-16.534.251-.847.527-1.66.821-2.439l0-.321.146-.052a37.177,37.177,0,0,1,5.535-9.568,28.391,28.391,0,0,1,12.117,3.268,59.83,59.83,0,0,1,11.556,25.665c1.021,5.677,2.748,15.284-2.262,18.936-2.144,1.563-4.888,1.573-7.056,1.247l-3.677.026q2.064,44.981,4.128,89.962a24.983,24.983,0,0,1-15.688-.13,25.485,25.485,0,0,1-14.22-12.833c-1.609-17.875-.625-31.15.233-35.208.908-4.3,2.217-8.278,2.217-8.278.489-1.486.872-2.5,1.057-3,.632-1.724,1.8-5.285,3.135-14.032.656-4.3,1.348-9.819,1.8-16.358Z" transform="translate(-2061.062 -1557.222)" fill="#383e4f"/>
      <path id="Trazado_101686" data-name="Trazado 101686" d="M2129.951,1563.754a4.383,4.383,0,0,0,.376,2.392c1.018,2,3.629,2.46,4.449,2.6,2.068.362,5.1.094,5.857-1.478a5.388,5.388,0,0,0,.231-1.2,24.68,24.68,0,0,0,.218-3.115,50.837,50.837,0,0,0-.894-8.017l-9.939.07C2130.2,1558.757,2130.093,1561.522,2129.951,1563.754Z" transform="translate(-2062.062 -1525.499)" fill="#e2abad"/>
      <path id="Trazado_101687" data-name="Trazado 101687" d="M2116.732,1449.516c4.417-.031,8.164,4.25,9.3,10.09a2.788,2.788,0,0,1,.445-.039,2.754,2.754,0,0,1,.039,5.508c-.072,0-.142,0-.212-.007-.6,6.674-4.551,11.836-9.374,11.87-5.274.037-9.593-6.072-9.646-13.643S2111.458,1449.553,2116.732,1449.516Z" transform="translate(-2043.933 -1441.112)" fill="#eec5bf"/>
      <path id="Trazado_101688" data-name="Trazado 101688" d="M2114.425,1442.419c.542,1.405,3.7.085,7.681,2.461,2.532,1.511,2.589,2.84,4.815,3.559,2.393.772,5.818.363,6.577-1.243,1.4-2.958-5.359-11.857-12.052-11.052C2117.318,1436.639,2113.784,1440.758,2114.425,1442.419Z" transform="translate(-2049.593 -1430.366)" fill="#c66847"/>
    </g>
  </g>
</svg>
