<svg xmlns="http://www.w3.org/2000/svg" xmlns:xlink="http://www.w3.org/1999/xlink" width="157" height="157" viewBox="0 0 157 157">
  <defs>
    <filter id="Elipse_4780" x="0" y="0" width="157" height="157" filterUnits="userSpaceOnUse">
      <feOffset dy="3" input="SourceAlpha"/>
      <feGaussianBlur stdDeviation="3" result="blur"/>
      <feFlood flood-opacity="0.161"/>
      <feComposite operator="in" in2="blur"/>
      <feComposite in="SourceGraphic"/>
    </filter>
  </defs>
  <g id="Grupo_88025" data-name="Grupo 88025" transform="translate(-276 -11249)">
    <g transform="matrix(1, 0, 0, 1, 276, 11249)" filter="url(#Elipse_4780)">
      <g id="Elipse_4780-2" data-name="Elipse 4780" transform="translate(9 6)" fill="#3e2ea6" stroke="#fff" stroke-width="5">
        <circle cx="69.5" cy="69.5" r="69.5" stroke="none"/>
        <circle cx="69.5" cy="69.5" r="67" fill="none"/>
      </g>
    </g>
    <g id="_14" data-name="14" transform="translate(314.648 11288.963)">
      <path id="Trazado_101946" data-name="Trazado 101946" d="M1058.063,1925.126h13.583a4.266,4.266,0,0,0,4.262-4.261v-46.072H1053.8v46.072A4.266,4.266,0,0,0,1058.063,1925.126Z" transform="translate(-1044.049 -1869.946)" fill="#dad6f7"/>
      <path id="Trazado_101947" data-name="Trazado 101947" d="M1065.64,1874.792h-39.869v46.072a7.111,7.111,0,0,1-7.1,7.1h-13.583a7.111,7.111,0,0,1-7.1-7.1v-46.072h-1.228a5.7,5.7,0,0,0-5.682,5.682v53.644a5.7,5.7,0,0,0,5.682,5.682h68.886a5.7,5.7,0,0,0,5.682-5.682v-53.644A5.7,5.7,0,0,0,1065.64,1874.792Zm-27.518,51.271h-3.43a2.465,2.465,0,1,1,0-4.93h3.43a2.465,2.465,0,1,1,0,4.93Zm0-7.767h-3.43a2.465,2.465,0,1,1,0-4.93h3.43a2.465,2.465,0,0,1,0,4.93Zm2.465-10.232a2.473,2.473,0,0,1-2.465,2.465h-3.43a2.473,2.473,0,0,1-2.465-2.465h0a2.473,2.473,0,0,1,2.465-2.465h3.43a2.472,2.472,0,0,1,2.465,2.465Zm9.479,18h-3.43a2.465,2.465,0,1,1,0-4.93h3.43a2.465,2.465,0,1,1,0,4.93Zm0-7.767h-3.43a2.465,2.465,0,1,1,0-4.93h3.43a2.465,2.465,0,0,1,0,4.93Zm2.465-10.232a2.473,2.473,0,0,1-2.465,2.465h-3.43a2.473,2.473,0,0,1-2.465-2.465h0a2.473,2.473,0,0,1,2.465-2.465h3.43a2.472,2.472,0,0,1,2.465,2.465Zm9.479,18h-3.43a2.465,2.465,0,1,1,0-4.93h3.43a2.465,2.465,0,1,1,0,4.93Zm0-7.767h-3.43a2.465,2.465,0,0,1,0-4.93h3.43a2.465,2.465,0,1,1,0,4.93Zm2.465-10.232a2.473,2.473,0,0,1-2.465,2.465h-3.43a2.473,2.473,0,0,1-2.465-2.465h0a2.472,2.472,0,0,1,2.465-2.465h3.43a2.472,2.472,0,0,1,2.465,2.465Zm0-16.832a5.188,5.188,0,0,1-5.173,5.172h-21.9a5.188,5.188,0,0,1-5.173-5.172v-3.816a5.188,5.188,0,0,1,5.173-5.173h21.9a5.188,5.188,0,0,1,5.173,5.173Z" transform="translate(-991.072 -1869.946)" fill="#dad6f7"/>
      <rect id="Rectángulo_33981" data-name="Rectángulo 33981" width="22.106" height="55.18" rx="11.053" transform="translate(9.752 0)" fill="#dad6f7"/>
    </g>
  </g>
</svg>
