<svg xmlns="http://www.w3.org/2000/svg" xmlns:xlink="http://www.w3.org/1999/xlink" width="157" height="157" viewBox="0 0 157 157">
  <defs>
    <filter id="Elipse_4683" x="0" y="0" width="157" height="157" filterUnits="userSpaceOnUse">
      <feOffset dy="3" input="SourceAlpha"/>
      <feGaussianBlur stdDeviation="3" result="blur"/>
      <feFlood flood-opacity="0.161"/>
      <feComposite operator="in" in2="blur"/>
      <feComposite in="SourceGraphic"/>
    </filter>
  </defs>
  <g id="Grupo_88024" data-name="Grupo 88024" transform="translate(-276 -10705)">
    <g transform="matrix(1, 0, 0, 1, 276, 10705)" filter="url(#Elipse_4683)">
      <g id="Elipse_4683-2" data-name="Elipse 4683" transform="translate(9 6)" fill="#3e2ea6" stroke="#fff" stroke-width="5">
        <circle cx="69.5" cy="69.5" r="69.5" stroke="none"/>
        <circle cx="69.5" cy="69.5" r="67" fill="none"/>
      </g>
    </g>
    <g id="_18" data-name="18" transform="translate(314.233 10747.093)">
      <path id="Trazado_101942" data-name="Trazado 101942" d="M4374.292,1868.616h-75.133a2.766,2.766,0,0,0-2.766,2.766v53.649a2.766,2.766,0,0,0,2.766,2.766h75.133a2.766,2.766,0,0,0,2.767-2.766v-53.649A2.766,2.766,0,0,0,4374.292,1868.616Zm-37.566,57.151a1.717,1.717,0,1,1,1.716-1.717A1.717,1.717,0,0,1,4336.726,1925.766Zm36.087-5.689h-72.175v-47.216h72.175Z" transform="translate(-4296.393 -1868.616)" fill="#dad6f7"/>
      <g id="_1" data-name="1" transform="translate(20.022 7.719)">
        <path id="Trazado_101943" data-name="Trazado 101943" d="M4471.205,2081.848l-4.581-1.74.282,2.084s1.777,1.067,1.777,1.433-6.139,8.353-6.139,8.353l-.721-4.215a17.3,17.3,0,0,0,2.1-2.1,16.637,16.637,0,0,0-2.953-2.953,16.848,16.848,0,0,0-2.953,2.953,17.693,17.693,0,0,0,2.1,2.1l-.722,4.215s-6.139-8.015-6.139-8.353,1.777-1.433,1.777-1.433l.282-2.007-4.582,1.663a10.34,10.34,0,0,0-10.205,10.205v6.421h40.878v-6.421A10.365,10.365,0,0,0,4471.205,2081.848Z" transform="translate(-4440.532 -2058.45)" fill="#dad6f7"/>
        <path id="Trazado_101944" data-name="Trazado 101944" d="M4518.739,1924.188a9.615,9.615,0,0,0-6.995,2.925,10.712,10.712,0,0,0-2.9,6.755c-.718.278-1.225,1.406-1.225,2.839,0,1.656.677,2.906,1.576,2.906a1.015,1.015,0,0,0,.569-.178,8.161,8.161,0,0,0,4.972,4.526,3.068,3.068,0,0,0,2.5.965c1.54,0,2.7-.677,2.7-1.576s-1.161-1.576-2.7-1.576a4.05,4.05,0,0,0-1.784.376,6.228,6.228,0,0,1-4.022-3.656.711.711,0,0,0,.271-.349,3.05,3.05,0,0,0,.045-.926,10.162,10.162,0,0,1,.016-1.141c.027-.25.039-.488.048-.718a2.514,2.514,0,0,1,.436-1.646,3.526,3.526,0,0,1,2.357-1.04,1.656,1.656,0,0,1,.289.024,3.809,3.809,0,0,1,.932.338l.438.207a10.5,10.5,0,0,0,4.652,1.366h.079a4.086,4.086,0,0,0,1.6-.6,5.689,5.689,0,0,1,.766-.365,2.927,2.927,0,0,1,.8-.178.718.718,0,0,1,.437.137,1.513,1.513,0,0,1,.684,1.032,14.544,14.544,0,0,1,.269,3.8,1.164,1.164,0,0,0,.091.636,1.146,1.146,0,0,0,.63.494l0,0,.021.009.055.023.06.005c.133.012.253.019.369.019a2.339,2.339,0,0,0,.97-.19c.2-.09.294-.131.548-1.942a23.335,23.335,0,0,0,.242-2.788C4528.545,1928.41,4524.6,1924.188,4518.739,1924.188Z" transform="translate(-4498.3 -1924.188)" fill="#dad6f7"/>
      </g>
      <path id="Trazado_101945" data-name="Trazado 101945" d="M4505.329,2287.723h-16.585c-1.2,7.023-6.182,7.834-6.182,9.456h28.947C4511.508,2295.558,4506.536,2294.7,4505.329,2287.723Z" transform="translate(-4456.701 -2229.507)" fill="#dad6f7"/>
    </g>
  </g>
</svg>
