<svg xmlns="http://www.w3.org/2000/svg" width="481.297" height="437.687" viewBox="0 0 481.297 437.687">
  <g id="Stress-pana" transform="translate(-20.38 -52.49)">
    <g id="freepik--background-simple--inject-2" transform="translate(67.809 93.625)">
      <path id="Trazado_102342" data-name="Trazado 102342" d="M78.145,146.19l2.105-3.726c17.347-31.442,50.441-51.441,86.314-50.883a96.007,96.007,0,0,1,13.789,1.211c32.873,5.358,62.325,28.336,75.525,58.946,7.758,17.979,10.674,38.947,24.452,52.883,17.894,18.115,46.9,17.358,72.325,15.379s54.42-2.716,72.241,15.494c11.179,11.4,15.347,28.147,15.231,44.1-.295,42.262-28.273,81.346-65.262,101.861s-81.42,24.21-123.156,17.958c-58.567-8.831-115.156-37.926-150.66-85.377S54.093,200.294,78.145,146.19Z" transform="translate(-65.439 -91.569)" fill="#dad6f7"/>
    </g>
    <g id="freepik--Character--inject-2" transform="translate(60.975 117.5)">
      <path id="Trazado_102343" data-name="Trazado 102343" d="M204.382,247.14l-8.421,4.516L177.319,266s-57.083,7.579-59.273,9.221-30.526,15.126-34.42,33.22S71.9,444.547,71.9,444.547l10.358,34.863,207.9.326,48.757-.695s18.726-43.757,18.726-55.788-5.474-102.493-5.474-102.493L293.7,279.529Z" transform="translate(-58.265 -107.259)" fill="#0f0140"/>
      <path id="Trazado_102344" data-name="Trazado 102344" d="M172.43,264.25a2.506,2.506,0,0,1-.284.484c-.253.358-.547.8-.916,1.337-.821,1.137-1.937,2.842-3.232,4.979-.632,1.053-1.347,2.253-2.01,3.568s-1.379,2.716-2.105,4.21a85.484,85.484,0,0,0-3.779,10.084,136.493,136.493,0,0,0-4.042,19.137c-.358,2.421-.642,4.41-.853,5.884-.095.642-.168,1.168-.232,1.6a1.915,1.915,0,0,1-.126.547,2.231,2.231,0,0,1,0-.558c0-.432.084-.968.137-1.621.126-1.4.358-3.421.674-5.905a122.417,122.417,0,0,1,3.958-19.252,81.677,81.677,0,0,1,3.842-10.116c.716-1.516,1.41-2.937,2.105-4.21s1.421-2.484,2.105-3.558c1.358-2.105,2.516-3.8,3.389-4.905l1-1.274A2.5,2.5,0,0,1,172.43,264.25Z" transform="translate(-53.901 -106.359)" fill="#263238"/>
      <g id="Grupo_87770" data-name="Grupo 87770" transform="translate(101.55 189.674)" opacity="0.3">
        <path id="Trazado_102345" data-name="Trazado 102345" d="M173.693,297.355c-.347-1.116-.789-2.368-1.874-2.8-.842-.347-.505.2-1.347.558-7.895,3.253-11.705,10.526-15.052,18.779l.189-.2a3.3,3.3,0,0,0,1.295,3.821c1.779,1.053,4.063.474,5.895-.474s3.505-2.263,5.505-2.768c4.316-1.116,8.621,1.842,11.673,5.105s5.789,7.137,9.958,8.747a96.008,96.008,0,0,1-16.242-30.768Z" transform="translate(-155.42 -294.445)"/>
      </g>
      <path id="Trazado_102346" data-name="Trazado 102346" d="M154.83,314.765a50.745,50.745,0,0,1,3.347-6.695,50.19,50.19,0,0,1,5.01-7.2,29.106,29.106,0,0,1,3.937-3.842,13.094,13.094,0,0,1,5.558-2.663h.158l.063.158c1.316,3.442,2.705,7.2,4.316,11.158A87.5,87.5,0,0,0,183.1,317.87a58.947,58.947,0,0,0,9.053,11.705,74.208,74.208,0,0,0,12.389,9.831c1.526.895,3,1.853,4.526,2.695l4.558,2.432h-.274l7.6-5.263,3.684-2.537c1.221-.832,2.41-1.663,3.537-2.547A93,93,0,0,0,239.965,323.1h0A44.368,44.368,0,0,0,250.8,311.27a40.5,40.5,0,0,0,4.874-11.337,41.753,41.753,0,0,0,1.242-7.852c.063-.926,0-1.632.074-2.105a1.768,1.768,0,0,0,0-.716v2.821A38.737,38.737,0,0,1,255.87,300a40.42,40.42,0,0,1-4.81,11.473,44.61,44.61,0,0,1-10.789,11.968h0a93.272,93.272,0,0,1-11.831,11.189c-1.137.895-2.326,1.737-3.547,2.568l-3.684,2.547-7.6,5.263-.126.095-.147-.074-4.579-2.442c-1.537-.842-3.021-1.8-4.547-2.705a73.452,73.452,0,0,1-12.495-9.916,59.19,59.19,0,0,1-9.105-11.821,87.547,87.547,0,0,1-5.821-12.316c-1.6-3.979-2.968-7.747-4.263-11.189l.221.126a12.789,12.789,0,0,0-5.4,2.558,29.085,29.085,0,0,0-3.916,3.758,52.218,52.218,0,0,0-5.063,7.105c-1.232,2.105-2.105,3.726-2.663,4.853l-.642,1.295a1.82,1.82,0,0,1-.232.432Z" transform="translate(-53.901 -105.043)" fill="#263238"/>
      <path id="Trazado_102347" data-name="Trazado 102347" d="M268.723,288.87a104.5,104.5,0,0,1-.758,16.052,122.82,122.82,0,0,1-3.21,17.231,146.035,146.035,0,0,1-6.968,20.4l-.4.947-.126-1.053c-.074-.611-.126-1.274-.232-1.947a56.2,56.2,0,0,0-2.621-11.095c-.6-1.747-1.284-3.432-2.021-5.053-.368-.81-.758-1.6-1.158-2.379a14.4,14.4,0,0,0-1.284-2.189,4.3,4.3,0,0,0-1.853-1.516,2.105,2.105,0,0,0-2.105.4,15.454,15.454,0,0,0-1.6,1.705l-1.526,1.737-5.568,6.316L229.2,337.6l-2.158,2.526-.589.632-.211.2a1.578,1.578,0,0,1,.168-.242l.547-.663,2.105-2.547,7.958-9.284,5.516-6.4c.505-.579,1.053-1.158,1.516-1.758a16.209,16.209,0,0,1,1.663-1.768,2.568,2.568,0,0,1,2.537-.484,4.758,4.758,0,0,1,2.042,1.674,14.923,14.923,0,0,1,1.347,2.263c.4.779.8,1.579,1.168,2.389.747,1.632,1.442,3.337,2.105,5.095a57.277,57.277,0,0,1,2.653,11.221c.105.674.158,1.347.232,1.968l-.526-.074a150.084,150.084,0,0,0,6.989-20.315,128.432,128.432,0,0,0,3.316-17.147c.611-4.926.863-8.937.968-11.705.074-1.389.074-2.463.105-3.158v-.832A.54.54,0,0,1,268.723,288.87Z" transform="translate(-50.144 -105.064)" fill="#263238"/>
      <path id="Trazado_102348" data-name="Trazado 102348" d="M192.61,261.24s0,.084-.158.211l-.505.568c-.463.484-1.053,1.253-1.842,2.253a41.8,41.8,0,0,0-5.053,9.474,60.619,60.619,0,0,0-3.779,15.389,61.7,61.7,0,0,0,.842,19.347,51.325,51.325,0,0,0,2.947,9.61,50.2,50.2,0,0,0,4.389,8.263,53.357,53.357,0,0,0,10.526,11.81c1.695,1.495,3.421,2.611,4.863,3.684a34.986,34.986,0,0,0,3.926,2.432l2.558,1.411.663.379a.915.915,0,0,1,.221.147.543.543,0,0,1-.242-.095l-.684-.337-2.621-1.316c-1.116-.6-2.432-1.442-3.989-2.368a34.76,34.76,0,0,1-4.937-3.642,52.757,52.757,0,0,1-10.716-11.831,50.325,50.325,0,0,1-4.389-8.421,51.718,51.718,0,0,1-2.989-9.694,61.231,61.231,0,0,1-.8-19.526,60,60,0,0,1,3.916-15.473,40,40,0,0,1,5.263-9.41,22.107,22.107,0,0,1,1.947-2.2l.537-.537Z" transform="translate(-52.556 -106.517)" fill="#263238"/>
      <path id="Trazado_102349" data-name="Trazado 102349" d="M107.412,360.064a1.665,1.665,0,0,1,.211.295l.558.979h-.158c-.747-3.537-2.789-14.379-5.116-27.21-1.389-7.895-2.653-15.042-3.589-20.315-.421-2.547-.768-4.632-1.053-6.168-.095-.684-.179-1.232-.242-1.684a2.253,2.253,0,0,1-.053-.59,2.905,2.905,0,0,1,.158.579c.095.432.211.989.347,1.663.305,1.516.705,3.6,1.2,6.137.979,5.263,2.295,12.389,3.758,20.284,2.316,12.821,4.21,23.7,4.737,27.273l.084.537-.242-.484-.495-1.053a1.54,1.54,0,0,1-.105-.242Z" transform="translate(-56.893 -104.196)" fill="#263238"/>
      <path id="Trazado_102350" data-name="Trazado 102350" d="M105.1,356.472c-.137.063-2.789-5.263-5.926-11.905s-5.558-12.084-5.421-12.147,2.789,5.263,5.926,11.905S105.234,356.409,105.1,356.472Z" transform="translate(-57.115 -102.773)" fill="#263238"/>
      <g id="Grupo_87771" data-name="Grupo 87771" transform="translate(46.898 244.787)" opacity="0.3">
        <path id="Trazado_102351" data-name="Trazado 102351" d="M103.5,471.45c6.6,3.316,21.9-2.537,27.463-9.831s7.168-16.789,8.421-25.884q2.726-20.558,3.895-41.273A62.736,62.736,0,0,0,182.8,406.4c8.926-.411,19.1-3.958,21.873-12.452s-3.158-17.063-9.263-23.452a143.953,143.953,0,0,0-18.947-16.631c-4.453-3.263-9.337-6.316-14.831-6.958-5.926-.642-11.916,1.779-16.421,5.684s-7.652,9.168-9.958,14.663c-7.042,16.789-6.663,35.578-8.105,53.683s-3.358,36.936-19.431,48.746" transform="translate(-103.5 -346.802)"/>
      </g>
      <path id="Trazado_102352" data-name="Trazado 102352" d="M103.91,470.017a2.66,2.66,0,0,1,.453-.211l1.326-.579a24.1,24.1,0,0,0,4.505-3.095,62.778,62.778,0,0,0,12.158-15.158v.084c.958-7.21,2.105-15.631,3.274-24.578,1.937-14.189,3.642-27.031,5.021-36.315.853-4.579,1.537-8.295,2.032-10.926.242-1.253.432-2.242.579-2.968l.158-.768a1.054,1.054,0,0,1,.074-.253.726.726,0,0,1,0,.263,7.817,7.817,0,0,1-.116.779l-.474,2.989c-.453,2.632-1.053,6.316-1.863,10.947-1.242,9.337-2.958,22.1-4.853,36.326-1.221,8.947-2.368,17.358-3.347,24.568v.053h0a61.419,61.419,0,0,1-12.4,15.147,22.429,22.429,0,0,1-4.621,3.01c-.589.242-1.053.4-1.368.505A1.547,1.547,0,0,1,103.91,470.017Z" transform="translate(-56.58 -100.519)" fill="#263238"/>
      <path id="Trazado_102353" data-name="Trazado 102353" d="M200.3,474.053a1.37,1.37,0,0,1-.105-.326c-.063-.253-.137-.579-.232-.989-.189-.874-.537-2.105-.811-3.81a95.515,95.515,0,0,1-1.453-14.294,138.3,138.3,0,0,1,1.137-21.242c.968-7.958,2.579-16.621,4.453-25.673s4.053-17.589,5.884-25.368a120.565,120.565,0,0,0,3.379-20.926,76.135,76.135,0,0,0-.526-14.273c-.179-1.684-.463-2.968-.589-3.853l-.147-1a1.451,1.451,0,0,1,0-.347,1.358,1.358,0,0,1,.084.337c.053.253.126.579.21.989.147.874.474,2.105.684,3.842a73.105,73.105,0,0,1,.705,14.326A118.271,118.271,0,0,1,209.7,382.5c-1.811,7.8-4.053,16.3-5.842,25.368s-3.495,17.684-4.495,25.621a141.45,141.45,0,0,0-1.274,21.147,101.334,101.334,0,0,0,1.274,14.242c.242,1.674.558,2.947.705,3.832.074.411.137.747.179,1S200.3,474.053,200.3,474.053Z" transform="translate(-51.648 -102.271)" fill="#263238"/>
      <path id="Trazado_102354" data-name="Trazado 102354" d="M217,355.359c-.126-.084,1.684-2.979,3.705-6.674s3.484-6.779,3.632-6.716a8.052,8.052,0,0,1-.758,2.105c-.547,1.274-1.379,3-2.389,4.863s-2.032,3.484-2.81,4.631A8.222,8.222,0,0,1,217,355.359Z" transform="translate(-50.631 -102.27)" fill="#263238"/>
      <g id="Grupo_87772" data-name="Grupo 87772" transform="translate(169.148 211.878)" opacity="0.3">
        <path id="Trazado_102355" data-name="Trazado 102355" d="M220.251,352.382a176.181,176.181,0,0,1,17.779-18.01c1.737-1.526,3.621-3.074,5.905-3.453,2.779-.463,5.61.968,7.537,3.031a26,26,0,0,1,4.295,7.242c2.758-6.779-.105-14.421-2.947-21.168-.926-2.2-2.526-4.81-4.884-4.453a5.453,5.453,0,0,0-3.032,2.168,328.722,328.722,0,0,0-25.263,33.42" transform="translate(-219.64 -315.539)"/>
      </g>
      <g id="Grupo_87773" data-name="Grupo 87773" transform="translate(243.482 195.248)" opacity="0.3">
        <path id="Trazado_102356" data-name="Trazado 102356" d="M309.081,303.077l.389-3.337c-4.01.379-8.937.853-12.137,3.295-3.737,2.853-5.263,7.705-6.463,12.231-2.863,10.295,5.263,63.294,4.842,73.978,3.547-1.505,6.053-24.21,6.684-28.063,1.558-9.273-1.589-15.063-.632-17.652s.926-5.4,1-8.147c.347-12.305,1.568-20.958,6.316-32.3" transform="translate(-290.258 -299.74)"/>
      </g>
      <path id="Trazado_102357" data-name="Trazado 102357" d="M260.98,142.734c-5.095-6.316-3.421-16.41,2.41-22.1s14.737-7.274,22.7-5.926a37.347,37.347,0,0,1,27.063,20.473c2.737,5.737,4.21,12.516,9.231,16.41,4.4,3.432,10.463,3.726,15.473,6.189,6.716,3.284,11.052,10.326,12.631,17.642s.611,14.937-.937,22.263c-1.421,6.716-3.316,13.979-.432,20.2s9.379,9.389,13.684,14.505c8.147,9.61,6.316,25.968-3.779,33.526-3.21,2.41-7.274,4.21-8.81,7.958-1.4,3.389-.211,7.231-.284,10.895-.179,9.474-10.589,17.21-19.694,14.737-4.589-1.263-8.821-4.653-13.547-4.01s-7.821,4.979-11.579,7.789a20.389,20.389,0,0,1-25.642-1.926c-2.758-2.747-4.979-6.484-8.747-7.484s-7.716,1.158-11.579.632c-5.042-.684-8.358-5.695-9.852-10.526s-1.884-10.147-4.4-14.568c-3.316-5.853-9.631-9.105-14.894-13.21a51.578,51.578,0,0,1-4.421-77.788" transform="translate(-51.001 -114.251)" fill="#263238"/>
      <path id="Trazado_102358" data-name="Trazado 102358" d="M191.943,261.27a48.5,48.5,0,0,0-10.295,42.989c3.758,14.852,16.179,36.568,30.526,41.957,9.305-6.821,21.263-16.347,29.936-23.947,5.61-4.916,8.589-12.105,11.368-19.031,1.6-4,3.232-8.316,2.232-12.505-.747-3.084-2.832-5.653-5.031-7.937a64.346,64.346,0,0,0-55.725-18.589" transform="translate(-52.562 -106.516)" fill="#ef9d78"/>
      <path id="Trazado_102359" data-name="Trazado 102359" d="M234.061,160.392h0a25.536,25.536,0,0,1,29.21-13.452l35.9,9.158c17.947,5.779,32,33.557,21.421,57.894-8.358,19.21-16.915,43.347-25.494,56.61-17.263,26.652-40.862,20.558-40.862,20.558L241.5,319.579,189.43,270.748Z" transform="translate(-52.081 -112.573)" fill="#ef9d78"/>
      <path id="Trazado_102360" data-name="Trazado 102360" d="M289.441,217.731c.674-.253,2.442,3.158,6.316,4.979s7.705,1.305,7.895,1.989c.105.316-.768.947-2.453,1.242a10.957,10.957,0,0,1-6.6-1.053,10.526,10.526,0,0,1-4.758-4.547C289.1,218.889,289.114,217.836,289.441,217.731Z" transform="translate(-46.83 -108.807)" fill="#263238"/>
      <path id="Trazado_102361" data-name="Trazado 102361" d="M250.814,200.14c.758-.147,2.505,3.589,6.695,6.189s8.421,2.674,8.6,3.4c.095.337-.905.832-2.789.853a14.01,14.01,0,0,1-7.231-2.179,13.168,13.168,0,0,1-4.979-5.484C250.371,201.267,250.445,200.193,250.814,200.14Z" transform="translate(-48.866 -109.732)" fill="#263238"/>
      <path id="Trazado_102362" data-name="Trazado 102362" d="M267.17,239.548c.084-.232,2.726.432,6.937,1.695,1.053.337,2.105.568,2.579-.053a6.4,6.4,0,0,0,.653-3.295c.137-2.863.284-5.863.421-9.021.716-12.789,1.695-23.157,2.21-23.1s.368,10.431-.337,23.231q-.295,4.726-.568,9.01c-.126,1.316-.053,2.916-1.232,4.21a2.79,2.79,0,0,1-2.326.737,7.515,7.515,0,0,1-1.821-.516C269.581,240.864,267.086,239.78,267.17,239.548Z" transform="translate(-47.991 -109.436)" fill="#263238"/>
      <path id="Trazado_102363" data-name="Trazado 102363" d="M252.74,285.387s-20.789-7.789-34.82-27.757c0,0,.789,24.379,31.642,34.9Z" transform="translate(-50.582 -106.707)" fill="#d37a57"/>
      <path id="Trazado_102364" data-name="Trazado 102364" d="M253.9,187.339c.653-1.053,4.768.379,9.863.832s9.4-.053,9.842,1.116c.189.558-.737,1.495-2.589,2.263A17.231,17.231,0,0,1,256,190.065C254.335,188.939,253.608,187.844,253.9,187.339Z" transform="translate(-48.692 -110.425)" fill="#263238"/>
      <path id="Trazado_102365" data-name="Trazado 102365" d="M297.532,198.32c1.326,0,2.968,3.274,5.81,6.4s5.779,5.263,5.589,6.589c-.126.6-1.232.863-2.979.347a13.684,13.684,0,0,1-5.947-4.063,13.442,13.442,0,0,1-3.232-6.4C296.5,199.4,296.911,198.362,297.532,198.32Z" transform="translate(-46.438 -109.828)" fill="#263238"/>
      <path id="Trazado_102366" data-name="Trazado 102366" d="M259.111,248.937s2.442-1.274,1.305-5.968-7.095-8.937-10.873-5.074c0,0-3.81.284-2.316,4.684s10.189,10.61,11.81,7.074" transform="translate(-49.059 -107.825)" fill="#d37a57"/>
      <path id="Trazado_102367" data-name="Trazado 102367" d="M257.691,252.456c-.695-.126.358-4.705-2.8-8.863s-8.147-4.789-8.031-5.442c0-.305,1.295-.632,3.368-.211a11.652,11.652,0,0,1,6.758,4.284,10.168,10.168,0,0,1,2.053,7.368C258.776,251.54,258,252.55,257.691,252.456Z" transform="translate(-49.06 -107.754)" fill="#263238"/>
      <path id="Trazado_102368" data-name="Trazado 102368" d="M205.291,145.47a22.463,22.463,0,0,0-8.631,18.389c.158,3.937,1.116,8.579-1.779,11.252s-7.6,1.253-11.579,1.274a14.926,14.926,0,0,0-14.284,12.8c-.284,2.484,0,5.168-1.221,7.368s-3.968,3.253-6.2,4.61a18.568,18.568,0,0,0,.621,32.126c2.579,1.421,5.589,2.316,7.474,4.579,2.105,2.6,2.232,6.316,3.295,9.474a15.6,15.6,0,0,0,29.557.211" transform="translate(-54.016 -112.608)" fill="#263238"/>
      <path id="Trazado_102369" data-name="Trazado 102369" d="M258.139,136.092a22.221,22.221,0,0,0,17.8,29.2c4.989.726,10.947.095,14.168,3.979,3.389,4.084,1.379,10.589,4.063,15.179,3.821,6.537,10.358,11.758,16.547,16.137,4.789,3.379-.684,12.779,1.4,18.252s10.663,17.968,16.515,18.189c1.284-4.895,8.568-26.4,8.695-31.452s-1.053-10.316-4.147-14.294c-1.716-2.179-3.968-3.916-5.453-6.253-3.21-5.063-2.105-11.579-3.158-17.5a24.315,24.315,0,0,0-13.684-17.642c-5.842-2.674-12.695-2.968-18.094-6.453-3.989-2.579-6.842-6.695-10.979-9.031-8.052-4.547-18.137-1.053-26.463,2.947" transform="translate(-48.613 -113.304)" fill="#263238"/>
      <path id="Trazado_102370" data-name="Trazado 102370" d="M223.32,197.525c-.832-.558-6.316,3.621-.905,6.958,9.547,5.831,17.747-13.894,17.4-20.452,4.863-2.105,9.779-4.137,14.063-7.368s10.684-13.873,11.831-19.284c3.653,1.484,21.3,1.621,19.768.558-3.484-2.41-10.526-7.579-11.463-11.579-2.032-8.789-8.274-16.442-16.526-18.737a20.547,20.547,0,0,0-22.726,9.473c-9.821-3.242-21.463-.326-29.294,7.368a34.231,34.231,0,0,0-9.337,30.463c.568,2.8,1.516,5.726.621,8.505-1.116,3.432-4.568,5.263-7.316,7.516-7.484,6.074-10.705,16.842-9.789,26.494s2.579,13.537,7.368,17.042c9.379,6.842-10.116,24.336,7.368,30.252" transform="translate(-52.604 -113.58)" fill="#263238"/>
      <path id="Trazado_102371" data-name="Trazado 102371" d="M349.61,264.435c0-.063.621-.432,1.642-1.389a14.736,14.736,0,0,0,3.526-4.947,15.031,15.031,0,0,0,.979-9.389c-.821-3.674-3.589-7.168-7.295-10.147s-8.326-5.853-11.673-10.726-3.947-11.579-2.874-17.894,3.726-12.631,5.431-19.273a36.482,36.482,0,0,0,1.295-10.273,20.3,20.3,0,0,0-2.758-10.031,18.6,18.6,0,0,0-7.831-6.789,36.431,36.431,0,0,0-9.895-3.01,71.332,71.332,0,0,1-10.105-1.937,12.631,12.631,0,0,1-7.863-6.2c-1.526-3.01-1.863-6.2-2.526-9.095a18.22,18.22,0,0,0-3.41-7.726,21.1,21.1,0,0,0-12.958-7.684,22.168,22.168,0,0,0-12.484,1.495,28.421,28.421,0,0,0-8.084,5.263,43.24,43.24,0,0,0-5.347,6.368,2.531,2.531,0,0,1,.232-.505,15.7,15.7,0,0,1,.81-1.4,26.9,26.9,0,0,1,3.926-4.853,28.42,28.42,0,0,1,8.158-5.579,22.936,22.936,0,0,1,12.958-1.758,22.021,22.021,0,0,1,13.631,7.979,19.41,19.41,0,0,1,3.684,8.168c.695,2.958,1.053,6.074,2.474,8.779a11.4,11.4,0,0,0,7.137,5.516,69.47,69.47,0,0,0,9.926,1.863,37.9,37.9,0,0,1,10.284,3.158,20,20,0,0,1,8.421,7.295,21.642,21.642,0,0,1,2.947,10.716,37.577,37.577,0,0,1-1.347,10.652c-1.779,6.768-4.453,12.947-5.495,19.147s-.547,12.442,2.568,17.021,7.726,7.431,11.358,10.61,6.621,6.8,7.368,10.726a15.452,15.452,0,0,1-1.253,9.779,14.158,14.158,0,0,1-3.821,4.937A7.251,7.251,0,0,1,349.61,264.435Z" transform="translate(-48.506 -113.597)" fill="#455a64"/>
      <path id="Trazado_102372" data-name="Trazado 102372" d="M314.425,197.17c.116.053-.516,1.505-1.158,4.263A31.21,31.21,0,0,0,312.9,213.3a29.474,29.474,0,0,0,2.379,7.821,39.065,39.065,0,0,0,5.158,7.895,23.24,23.24,0,0,1,2.81,4.516,11.116,11.116,0,0,1,.99,5.579c-.305,3.916-2.232,7.368-3.663,10.937s-2.347,7.252-.968,10.526,3.884,5.726,6.253,8.084a32.327,32.327,0,0,1,6.189,7.516,11.7,11.7,0,0,1,1.053,8.474,14.052,14.052,0,0,1-7.537,9.379,10.968,10.968,0,0,1-3.21.895,4.02,4.02,0,0,1-1.158,0,21.443,21.443,0,0,0,4.137-1.368,13.81,13.81,0,0,0,6.81-9.126,10.884,10.884,0,0,0-1.053-7.716,31.314,31.314,0,0,0-6.063-7.137c-2.379-2.347-5.147-4.874-6.621-8.516a11.642,11.642,0,0,1-.705-5.831,22.694,22.694,0,0,1,1.663-5.695c1.484-3.631,3.316-7.01,3.589-10.526s-1.484-6.6-3.474-9.242a38.948,38.948,0,0,1-5.179-8.189,30.211,30.211,0,0,1-1.484-20.284,20.762,20.762,0,0,1,1.126-3.158,3.527,3.527,0,0,1,.484-.958Z" transform="translate(-45.647 -109.888)" fill="#455a64"/>
      <path id="Trazado_102373" data-name="Trazado 102373" d="M164.548,233.36a3.97,3.97,0,0,1-.6-.442,11.693,11.693,0,0,1-1.537-1.547,16.557,16.557,0,0,1-3.495-7.484,16.084,16.084,0,0,1,2.579-12.495,17.368,17.368,0,0,1,14.81-7.253l-.579.779a26.673,26.673,0,0,1-1.779-10.958,14.052,14.052,0,0,1,5.631-10.526,10.526,10.526,0,0,1,6.158-2.105,15.5,15.5,0,0,1,6.368,1.8,24.683,24.683,0,0,0,5.863,2.274,6.316,6.316,0,0,0,5.568-1.653,12.316,12.316,0,0,0,3.453-8.284c.242-3.095-.053-6.242.274-9.389a26.315,26.315,0,0,1,7.747-15.958,25.094,25.094,0,0,1,14.252-6.916,25.831,25.831,0,0,1,13.379,1.674l-.589.242a13.81,13.81,0,0,1,7.242-6.653,15.116,15.116,0,0,1,7.295-1.053,12.747,12.747,0,0,1,4.431,1.284,6.253,6.253,0,0,1,1.337.884,15.968,15.968,0,0,0-5.81-1.663,14.957,14.957,0,0,0-6.968,1.253,13.053,13.053,0,0,0-6.684,6.368l-.189.389-.411-.158a25.263,25.263,0,0,0-12.873-1.442,24.21,24.21,0,0,0-13.526,6.716,25.1,25.1,0,0,0-7.295,15.189c-.305,2.979,0,6.116-.242,9.379a13.621,13.621,0,0,1-3.884,9.179,7.758,7.758,0,0,1-6.726,2,25.8,25.8,0,0,1-6.242-2.389,14.178,14.178,0,0,0-5.789-1.695,9.253,9.253,0,0,0-5.379,1.832,12.737,12.737,0,0,0-5.158,9.6,25.8,25.8,0,0,0,1.61,10.463l.295.821h-.874a16.4,16.4,0,0,0-13.968,6.642,15.442,15.442,0,0,0-2.684,11.831,16.842,16.842,0,0,0,3.158,7.368C163.822,232.644,164.6,233.3,164.548,233.36Z" transform="translate(-53.704 -113.036)" fill="#455a64"/>
      <path id="Trazado_102374" data-name="Trazado 102374" d="M261.1,143.433c.063.242-2.105-.105-4.747,1.842s-5.021,6.505-5.705,12.358l-.053.495h-.505A18.884,18.884,0,0,0,234.6,164.6a14.6,14.6,0,0,0-2.495,4.21,28.675,28.675,0,0,0-1.053,5.095A40,40,0,0,1,230,179.411a9.231,9.231,0,0,1-3.316,4.979c-3.495,2.726-7.789,3.158-11.579,3.789a32.873,32.873,0,0,0-10.526,2.726A24.389,24.389,0,0,0,192.4,204.032a25.484,25.484,0,0,0-1.442,12.273c.379,2.947,1.053,4.505.874,4.547a3.936,3.936,0,0,1-.516-1.105,21.8,21.8,0,0,1-.884-3.358,24.779,24.779,0,0,1,1.053-12.694,25.115,25.115,0,0,1,12.537-14,33.757,33.757,0,0,1,10.874-2.916c3.747-.6,7.821-1.126,10.873-3.537,3.01-2.105,3.337-6.105,3.916-9.61a30.212,30.212,0,0,1,1.168-5.337,16.232,16.232,0,0,1,2.758-4.579,19.863,19.863,0,0,1,16.579-6.663l-.558.463c.842-6.095,3.41-10.81,6.4-12.726a8.1,8.1,0,0,1,3.695-1.379A4.588,4.588,0,0,1,261.1,143.433Z" transform="translate(-52.049 -112.719)" fill="#455a64"/>
      <path id="Trazado_102375" data-name="Trazado 102375" d="M224.095,197.533c3-5.874-1.053-13.273-7.631-13.263-3.632,0-7.526,1.979-10.768,8.189-8.642,16.568,9.779,21.831,10.052,21.368C215.916,213.543,220.579,204.428,224.095,197.533Z" transform="translate(-51.347 -110.567)" fill="#ef9d78"/>
      <path id="Trazado_102376" data-name="Trazado 102376" d="M213.7,204.63c0-.095-.389.053-1.053,0a3.242,3.242,0,0,1-2.179-1.053c-1.41-1.558-1.442-5.105,0-8.126a10.526,10.526,0,0,1,2.958-3.716,3.758,3.758,0,0,1,3.326-1.053,1.663,1.663,0,0,1,1.295,1.684c0,.579-.295.853-.232.926s.505-.095.726-.842a2.105,2.105,0,0,0-.032-1.379,2.432,2.432,0,0,0-1.379-1.253,4.568,4.568,0,0,0-4.358.989,11.179,11.179,0,0,0-3.41,4.095c-1.632,3.4-1.547,7.368.484,9.358a3.516,3.516,0,0,0,2.863.937C213.472,205.009,213.746,204.693,213.7,204.63Z" transform="translate(-51.092 -110.285)" fill="#d37a57"/>
      <path id="Trazado_102377" data-name="Trazado 102377" d="M208.938,417.757c-1.474-2.716-5.263-4.389-5.263-4.389l-3.158-7.737a8.421,8.421,0,0,0,0-6.074c-1.253-3.347-10.463-22.789-10.252-23.421L187.886,376s8.484,20.579,9.316,21.631,2.105,7.168,0,8-6.537-1.421-8.421-3.305-7.874-16.042-8.916-18.947.811-7,.811-7l1.674-3.968h-2.232a77.167,77.167,0,0,0-2.305,8.147c-.832,3.979,8.579,21.336,10.042,23.221s6.484,3.347,9.2,5.263,2.305,7.747,2.305,7.747a14.505,14.505,0,0,0-2.516,6.895c-.211,3.768,8.158,21.547,13.8,25.263s12.347,1.053,12.968,1.263,2.105-2.937,2.105-2.937S210.4,420.472,208.938,417.757Zm7.705,31.063a11.789,11.789,0,0,1-7.768-4.495c-.684-.905-8.01-13.684-8.958-16.021-1.642-4.137-.505-6.431.095-8.852.874-3.526,6.316-1.463,6.316-1.463s16.021,27.684,15.652,28.526A5.54,5.54,0,0,1,216.643,448.819Z" transform="translate(-52.695 -100.669)" fill="#263238"/>
      <path id="Trazado_102378" data-name="Trazado 102378" d="M223.377,445.166s46.641-17.747,48.82-19.758,10.052-13.568,10.052-13.568,3.853.663,3.347,1.674-7.874,12.568-15.789,15.915S221.24,448.1,221.24,448.1Z" transform="translate(-50.407 -98.594)" fill="#263238"/>
      <path id="Trazado_102379" data-name="Trazado 102379" d="M84.318,304.55l-19.21,110.8s-7.074,21.558-6.063,26.315,4.579,25.052,15.358,31.452,32.126,2.221,36.5-2.105,13.01-12.4,14.021-16.1,8.095-60,8.095-60l2.81-15.789s-10.442,3.368-16.842-1.053-14.821-23.242-14.821-23.242l-9.379,14.41Z" transform="translate(-58.946 -104.239)" fill="#0f0140"/>
      <path id="Trazado_102380" data-name="Trazado 102380" d="M103.777,352.21a3.042,3.042,0,0,1-.358.621l-1.147,1.737c-.989,1.495-2.421,3.674-4.137,6.389-3.453,5.431-8.063,13.021-13.105,21.452s-9.579,16.063-12.979,21.547c-1.684,2.737-3.074,4.937-4.053,6.453-.474.705-.863,1.284-1.147,1.726a4.673,4.673,0,0,1-.432.579,2.822,2.822,0,0,1,.337-.642l1.053-1.779,3.916-6.537,12.831-21.631c5.042-8.421,9.716-16,13.252-21.379,1.768-2.695,3.242-4.842,4.295-6.316l1.221-1.674a3.957,3.957,0,0,1,.453-.547Z" transform="translate(-58.553 -101.731)" fill="#263238"/>
      <path id="Trazado_102381" data-name="Trazado 102381" d="M131.615,389.365a2.926,2.926,0,0,1-.4.453c-.284.284-.663.737-1.232,1.232a21.4,21.4,0,0,1-5.316,3.589,16.715,16.715,0,0,1-4.21,1.337,15.9,15.9,0,0,1-5.116.126,20.829,20.829,0,0,1-5.453-1.474,29.947,29.947,0,0,1-5.263-2.937,28.19,28.19,0,0,1-4.453-4.105,28.9,28.9,0,0,1-6.4-13.6,27.526,27.526,0,0,1-.432-6.389,15.526,15.526,0,0,1,.158-1.737,3.685,3.685,0,0,1,.105-.6,23.159,23.159,0,0,1,0,2.347,30.746,30.746,0,0,0,.6,6.316,30.032,30.032,0,0,0,3.242,8.789,30.528,30.528,0,0,0,3.158,4.526,28.623,28.623,0,0,0,4.379,4.021,29.683,29.683,0,0,0,5.179,2.884,20.766,20.766,0,0,0,5.263,1.474,16.02,16.02,0,0,0,4.926-.105,17.2,17.2,0,0,0,4.21-1.242,22.568,22.568,0,0,0,5.326-3.4C130.983,389.912,131.583,389.323,131.615,389.365Z" transform="translate(-57.138 -101.045)" fill="#263238"/>
      <path id="Trazado_102382" data-name="Trazado 102382" d="M101.91,353.566l14.379-9.242s38.315-15.568,42.21-16.463,8.421-2.695,10.526,0,23.947,18.558,23.947,18.558,12.873,24.21,12.873,27.547,3.589,7.505,0,8.695l-3.632,1.21s-1.2,5.874-5.695,6.526-5.989,0-5.989,0-.295,5.874-3.884,5.516-9.579-5.516-9.579-5.516-2.695,3.053-4.789,3.053-8.684-4.484-8.684-4.484l-12.737-11.084L139.636,374l-6.052,3.821s-12.947,1.105-14.894,0S101.91,353.566,101.91,353.566Z" transform="translate(-56.686 -103.087)" fill="#ef9d78"/>
      <path id="Trazado_102383" data-name="Trazado 102383" d="M173.3,389.849a10.692,10.692,0,0,1-.663-1.705c-.189-.547-.432-1.221-.758-1.989s-.642-1.653-1.105-2.589-.916-1.989-1.505-3.053-1.253-2.21-1.958-3.4a59.881,59.881,0,0,0-5.337-7.189,62,62,0,0,0-6.431-6.232,38.745,38.745,0,0,0-3.158-2.379c-1.053-.684-1.947-1.347-2.832-1.895s-1.716-1.053-2.432-1.432-1.347-.758-1.874-1.053a12.186,12.186,0,0,1-1.6-.874,10.2,10.2,0,0,1,1.695.684,20.261,20.261,0,0,1,1.926.926c.737.389,1.589.81,2.484,1.368s1.884,1.137,2.895,1.863,2.105,1.505,3.158,2.358a52.716,52.716,0,0,1,11.884,13.547c.705,1.2,1.389,2.326,1.926,3.453s1.053,2.105,1.463,3.158.747,1.863,1.053,2.642a20.236,20.236,0,0,1,.663,2.032A11.645,11.645,0,0,1,173.3,389.849Z" transform="translate(-54.49 -101.529)" fill="#d37a57"/>
      <path id="Trazado_102384" data-name="Trazado 102384" d="M187.554,390.042a4.407,4.407,0,0,1-.326-.463c-.2-.316-.495-.768-.821-1.389a39.3,39.3,0,0,1-2.337-5.453c-.832-2.358-1.642-5.263-2.589-8.421a44.209,44.209,0,0,0-4.042-9.842,25.885,25.885,0,0,0-7.2-7.726c-2.653-1.926-5.21-3.484-7.158-5.084a18.167,18.167,0,0,1-4.063-4.316,10.527,10.527,0,0,1-.758-1.432,1.958,1.958,0,0,1-.2-.526c.053,0,.347.695,1.137,1.842a19.274,19.274,0,0,0,4.126,4.126c1.958,1.537,4.516,3.053,7.21,4.989a25.683,25.683,0,0,1,7.368,7.842,43.3,43.3,0,0,1,4.063,9.979c.926,3.158,1.695,6.042,2.474,8.421a47.363,47.363,0,0,0,2.105,5.474A20,20,0,0,1,187.554,390.042Z" transform="translate(-53.732 -102.09)" fill="#d37a57"/>
      <path id="Trazado_102385" data-name="Trazado 102385" d="M197.8,383.353a1.99,1.99,0,0,1-.168-.516c-.095-.411-.211-.905-.358-1.516s-.326-1.463-.589-2.379-.516-1.989-.926-3.158-.779-2.389-1.316-3.705-1.126-2.705-1.768-4.158a65.262,65.262,0,0,0-11.579-17.042c-1.116-1.137-2.158-2.242-3.221-3.158s-2.032-1.821-2.968-2.589-1.8-1.41-2.558-2-1.432-1.053-1.989-1.432l-1.284-.884c-.284-.211-.432-.326-.421-.347a2.429,2.429,0,0,1,.484.253l1.337.811c.579.347,1.274.789,2.053,1.358s1.695,1.168,2.632,1.947,1.979,1.579,3.021,2.558,2.105,2.021,3.274,3.158a69.211,69.211,0,0,1,6.568,8.105,68.042,68.042,0,0,1,5.116,9.074c.642,1.474,1.274,2.863,1.737,4.21s.916,2.589,1.263,3.758.611,2.221.853,3.158a24.474,24.474,0,0,1,.505,2.411c.105.61.189,1.126.263,1.537a1.885,1.885,0,0,1,.042.547Z" transform="translate(-53.174 -102.349)" fill="#d37a57"/>
      <path id="Trazado_102386" data-name="Trazado 102386" d="M143.143,342.391c0,.084-.747.2-1.853.684a8.874,8.874,0,0,0-5.379,7.095c-.158,1.2-.063,1.958-.147,1.968a3.832,3.832,0,0,1-.232-2,8.347,8.347,0,0,1,5.621-7.431A3.99,3.99,0,0,1,143.143,342.391Z" transform="translate(-54.919 -102.249)" fill="#d37a57"/>
      <path id="Trazado_102387" data-name="Trazado 102387" d="M153.234,332.75c.084.147-1.768,1.316-3.6,3.274s-2.926,3.853-3.074,3.779a13.326,13.326,0,0,1,6.674-7.053Z" transform="translate(-54.337 -102.755)" fill="#d37a57"/>
      <path id="Trazado_102388" data-name="Trazado 102388" d="M295.718,215.436c-1.821.758-2.189,2.937-2.158,4.905,0,2.463.653,2.863,2.663,6.989,3.295,6.747,7.231,19.547,7.231,19.547s-3.232,32.315-1.053,39.9a12.842,12.842,0,0,0,8.421,8.6l-2.947,24.957h35.252s-1.253-24.21-2.01-31.578c-.8-7.789-.274-54.894-.274-54.894L337.38,208.72l-8.158-14.126a6.368,6.368,0,0,0-2.41,7.737c1.842,5.168,3.053,15.094,3.053,15.094l-20.41-30.715s-4.01.958-4.21,8.421c0,0-5.937,3.863-2.105,10.137,4.126,7.01,8.568,28.063,7.01,28.063l-12.631-18.6Z" transform="translate(-46.603 -110.439)" fill="#ef9d78"/>
      <path id="Trazado_102389" data-name="Trazado 102389" d="M307.805,320.353a13.017,13.017,0,0,1,.158-1.653c.158-1.095.305-2.726.537-4.831.484-4.263,1.2-10.526,2.105-18.494l.095.147a13.337,13.337,0,0,1-4.484-2.484,12.157,12.157,0,0,1-3.368-4.453,17.115,17.115,0,0,1-1.242-5.884q-.179-3.158-.147-6.421c.095-8.821.779-18.694,1.779-29.41v.084c-1.653-5.2-3.484-10.684-5.779-16.242-.579-1.389-1.189-2.768-1.884-4.137a33.412,33.412,0,0,1-2.021-4.21,8.909,8.909,0,0,1-.253-2.41,8.423,8.423,0,0,1,.358-2.421,3.6,3.6,0,0,1,1.474-2.032,7.178,7.178,0,0,1,1.126-.526l1.116-.463.189-.074.116.168,13.2,19.358-.484.105a20.451,20.451,0,0,0-.063-4.874,41.9,41.9,0,0,0-.842-4.926,76.4,76.4,0,0,0-2.947-9.779c-1.158-3.253-2.621-6.41-4.042-9.663a8.653,8.653,0,0,1-.568-5.358,7.905,7.905,0,0,1,3.01-4.547l-.116.2a19.526,19.526,0,0,1,1.116-4.747,9.777,9.777,0,0,1,1.242-2.242,4.453,4.453,0,0,1,2.105-1.632l.168-.053.116.168.242.358,20.168,30.368-.495.179a108.329,108.329,0,0,0-2.158-12.031c-.242-.979-.516-1.937-.832-2.874a8.2,8.2,0,0,1-.505-3.032,6.589,6.589,0,0,1,2.979-5.147l.221-.147.137.242,8.158,14.126h0q1.8,13.2,3.442,25.157h0c-.147,13.031-.221,24.957-.2,35.5,0,5.263,0,10.21.158,14.737.063,2.274.189,4.442.4,6.526s.305,4.074.432,5.958c.495,7.537.789,13.452,1,17.484.095,2.01.168,3.547.211,4.6s.053,1.579.053,1.579-.053-.537-.116-1.579-.168-2.589-.284-4.589c-.253-4.031-.6-9.947-1.126-17.484-.137-1.884-.274-3.863-.453-5.947s-.368-4.263-.432-6.537c-.147-4.568-.189-9.474-.221-14.737-.053-10.526,0-22.473.126-35.5h0q-1.653-11.937-3.484-25.147v.084l-8.179-14.1.358.095a6.126,6.126,0,0,0-2.726,4.716,8.075,8.075,0,0,0,.484,2.842q.495,1.432.853,2.905a110.527,110.527,0,0,1,2.179,12.105l.147,1.147-.642-.968-20.179-30.357-.232-.358.284.116a4.011,4.011,0,0,0-1.789,1.432,8.917,8.917,0,0,0-1.158,2.105,19.062,19.062,0,0,0-1.053,4.61v.116l-.105.084a7.368,7.368,0,0,0-2.789,4.21,8.21,8.21,0,0,0,.547,5.031c1.4,3.21,2.884,6.41,4.042,9.674a77.044,77.044,0,0,1,2.968,9.852,42.552,42.552,0,0,1,.874,5.116,21.052,21.052,0,0,1,.063,5.021l-.095.674-.389-.568c-4.558-6.716-9-13.242-13.189-19.4l.305.084c-.726.326-1.558.6-2.179.947a3.074,3.074,0,0,0-1.263,1.768,7.874,7.874,0,0,0-.337,2.274,8.421,8.421,0,0,0,.232,2.263,33.979,33.979,0,0,0,1.979,4.21c.695,1.379,1.316,2.779,1.895,4.21,2.295,5.589,4.116,11.073,5.758,16.294V247c-1.053,10.705-1.726,20.568-1.853,29.378q0,3.295.126,6.389a16.631,16.631,0,0,0,1.189,5.779,12.631,12.631,0,0,0,7.631,6.8h.116v.105c-.979,7.989-1.737,14.221-2.253,18.473l-.6,4.831C307.9,319.795,307.805,320.353,307.805,320.353Z" transform="translate(-46.616 -110.452)" fill="#d37a57"/>
      <path id="Trazado_102390" data-name="Trazado 102390" d="M322.792,235.593a10.4,10.4,0,0,1-.379-1.737c-.2-1.126-.537-2.747-.989-4.747a79.627,79.627,0,0,0-5.21-15.052,102.191,102.191,0,0,0-7.947-13.852c-1.137-1.695-2.105-3.053-2.747-3.989a13.322,13.322,0,0,1-.979-1.495,10.389,10.389,0,0,1,1.147,1.368c.716.895,1.716,2.221,2.905,3.895a88.987,88.987,0,0,1,8.116,13.842,71.787,71.787,0,0,1,5.095,15.2c.4,2.01.695,3.653.821,4.8a9.968,9.968,0,0,1,.168,1.768Z" transform="translate(-46.025 -110.017)" fill="#d37a57"/>
      <path id="Trazado_102391" data-name="Trazado 102391" d="M332.514,226.657a33.409,33.409,0,0,1-2.579-5.474,32.264,32.264,0,0,1-2.105-5.674,34.079,34.079,0,0,1,2.568,5.463A33.9,33.9,0,0,1,332.514,226.657Z" transform="translate(-44.8 -108.923)" fill="#d37a57"/>
      <path id="Trazado_102392" data-name="Trazado 102392" d="M305.585,304.056h0c-6.189,54.61-14.242,112.735-23.5,173.113h71.757c13.495-29.873,5.263-55.936,1.642-93.083L343.647,299.74Z" transform="translate(-47.207 -104.492)" fill="#0f0140"/>
      <path id="Trazado_102393" data-name="Trazado 102393" d="M282.08,475.119a1.732,1.732,0,0,1,0-.347l.126-1.053c.137-.937.316-2.274.547-3.968.505-3.484,1.232-8.421,2.105-14.61,1.811-12.358,4.316-29.368,7.074-48.168s5-35.873,6.505-48.241c.768-6.189,1.347-11.189,1.737-14.652.2-1.705.358-3.042.474-3.989l.126-1.053a1.86,1.86,0,0,1,.074-.347v.347l-.084,1.053c-.084.947-.211,2.295-.368,4-.326,3.463-.842,8.484-1.568,14.673-1.4,12.379-3.632,29.473-6.316,48.283s-5.326,35.789-7.242,48.146c-.958,6.126-1.747,11.095-2.295,14.579-.274,1.684-.495,3.01-.642,3.958-.074.421-.137.768-.179,1.053a1.949,1.949,0,0,1-.074.337Z" transform="translate(-47.207 -102.443)" fill="#263238"/>
    </g>
    <g id="freepik--Device--inject-2" transform="translate(169.083 337.219)">
      <path id="Trazado_102394" data-name="Trazado 102394" d="M440.007,475.467H235.39l26.4-143.608a10.737,10.737,0,0,1,10.526-8.789H456.207a10.737,10.737,0,0,1,10.526,12.747Z" transform="translate(-157.77 -322.983)" fill="#455a64"/>
      <path id="Trazado_102395" data-name="Trazado 102395" d="M239.27,468.364H161.65l.316-.232a42.1,42.1,0,0,1,23.936-8.421L241.4,458.08Z" transform="translate(-161.65 -315.88)" fill="#455a64"/>
      <path id="Trazado_102396" data-name="Trazado 102396" d="M284.166,323.264c0,.053-.568-.105-1.653-.116a10.284,10.284,0,0,0-4.547,1.137,13.916,13.916,0,0,0-5.453,4.958,26.315,26.315,0,0,0-3.347,9.284c-.663,3.632-1.253,7.663-1.979,11.968s-1.526,8.895-2.432,13.684c-1.779,9.652-3.895,20.242-6.189,31.326-4.621,22.179-8.905,42.231-11.695,56.841-1.41,7.284-2.495,13.189-3.232,17.273-.368,2-.653,3.568-.853,4.695-.105.505-.179.905-.242,1.221a2.263,2.263,0,0,1-.105.411v-.421c0-.284.105-.726.168-1.232.179-1.137.411-2.716.716-4.726.642-4.095,1.653-10.021,2.989-17.326,2.663-14.6,6.863-34.684,11.484-56.841,2.295-11.084,4.421-21.652,6.242-31.294.926-4.81,1.737-9.4,2.505-13.684s1.368-8.305,2.105-11.968a26.377,26.377,0,0,1,3.516-9.41,14.105,14.105,0,0,1,5.684-5,9.874,9.874,0,0,1,4.674-1.053A5.841,5.841,0,0,1,284.166,323.264Z" transform="translate(-157.399 -322.987)" fill="#263238"/>
      <path id="Trazado_102397" data-name="Trazado 102397" d="M365.169,392.885a9.895,9.895,0,1,1-9.895-9.895,9.895,9.895,0,0,1,9.895,9.895Z" transform="translate(-151.984 -319.831)" fill="#f5f5f5"/>
    </g>
    <g id="freepik--Desk--inject-2" transform="translate(20.38 489.587)">
      <path id="Trazado_102398" data-name="Trazado 102398" d="M501.677,468.014c0,.147-107.756.274-240.638.274s-240.659-.116-240.659-.274,107.724-.274,240.659-.274S501.677,467.866,501.677,468.014Z" transform="translate(-20.38 -467.74)" fill="#263238"/>
    </g>
    <g id="freepik--lighting-bolts--inject-2" transform="translate(177.703 68.911)">
      <path id="Trazado_102399" data-name="Trazado 102399" d="M207.975,112l-2.81-26.431-13.484,3.042L180.06,68.09,187.3,95.837,200.975,92.7Z" transform="translate(-169.302 -68.09)" fill="#0f0140"/>
      <path id="Trazado_102400" data-name="Trazado 102400" d="M203.018,115.195,190.492,102.3l-5.905,7.253-14.747-6.074,15.431,11.747,5.968-7.379Z" transform="translate(-169.84 -66.29)" fill="#0f0140"/>
      <path id="Trazado_102401" data-name="Trazado 102401" d="M330,126.7l11.389-20.715,10.01,7.126,16.579-12.842-15.463,20.273-10.147-7.263Z" transform="translate(-161.414 -66.397)" fill="#0f0140"/>
      <path id="Trazado_102402" data-name="Trazado 102402" d="M349.85,136.861l11.779-5.021,1.884,6.379,11.358.074L361.5,141.756l-1.895-6.484Z" transform="translate(-160.369 -64.736)" fill="#0f0140"/>
    </g>
    <g id="freepik--Line--inject-2" transform="translate(251.471 52.49)">
      <path id="Trazado_102403" data-name="Trazado 102403" d="M273.93,60.553s.474-.305,1.421-.874a38.5,38.5,0,0,1,4.389-2.2,42.568,42.568,0,0,1,18.621-3.4,31.142,31.142,0,0,1,3.21.263,20.232,20.232,0,0,1,3.347.611,13.684,13.684,0,0,1,3.316,1.347,7.368,7.368,0,0,1,2.705,2.6,5.663,5.663,0,0,1,.653,3.853,7.653,7.653,0,0,1-1.947,3.61,17.894,17.894,0,0,1-7.368,4.474,46.073,46.073,0,0,1-19.021,2.726,46.684,46.684,0,0,1-20.737-6.316l-.147-.095.095-.147a28.7,28.7,0,0,1,10.926-10.042,38.347,38.347,0,0,1,15.231-4.358,58.5,58.5,0,0,1,16.726,1.358c2.821.6,5.642,1.347,8.421,2.221a47.776,47.776,0,0,1,8.421,3.158,16.231,16.231,0,0,1,6.747,6.179,11.22,11.22,0,0,1,1.463,4.474,9.473,9.473,0,0,1-.779,4.695,14.652,14.652,0,0,1-6.831,6.61,38.062,38.062,0,0,1-9.221,3.232A96.314,96.314,0,0,1,273,85.584c-.874-.147-1.726-.358-2.6-.537s-1.726-.379-2.589-.6a35.01,35.01,0,0,1-5.126-1.568A17.379,17.379,0,0,1,258,80.132a8.032,8.032,0,0,1-2.832-4.684,7.431,7.431,0,0,1,1.179-5.379,14.821,14.821,0,0,1,3.926-3.926,29.725,29.725,0,0,1,4.863-2.716c.821-.421,1.684-.789,2.537-1.147s1.716-.726,2.6-1.053a66.115,66.115,0,0,1,22.21-4.21,67.186,67.186,0,0,1,11.516.8c.958.147,1.916.305,2.874.526s1.905.379,2.842.642a32.978,32.978,0,0,1,5.589,1.811,18.673,18.673,0,0,1,5.052,3.105,9.863,9.863,0,0,1,3.158,5.042l.158.747.063.768a10.581,10.581,0,0,1,0,1.526,9.3,9.3,0,0,1-.884,2.905,14.388,14.388,0,0,1-3.81,4.674,26.315,26.315,0,0,1-5.053,3.316c-.895.474-1.821.874-2.747,1.263s-1.853.789-2.8,1.147a82.745,82.745,0,0,1-11.6,3.526,84.872,84.872,0,0,1-24.452,2.021,28.537,28.537,0,0,1-12.031-3.158,13.1,13.1,0,0,1-4.705-4.21,10.094,10.094,0,0,1-1.516-6.147,11.21,11.21,0,0,1,1.653-4.926,18.062,18.062,0,0,1,3.389-3.926,31.1,31.1,0,0,1,8.768-5.263,61.662,61.662,0,0,1,19.642-4.737,62.432,62.432,0,0,1,10.021.074c1.663.147,3.316.358,4.958.642a26.925,26.925,0,0,1,4.853,1.211,17.042,17.042,0,0,1,4.463,2.232,8.968,8.968,0,0,1,3.221,3.821,6.916,6.916,0,0,1,.158,4.968,9.758,9.758,0,0,1-2.789,4.095c-2.526,2.232-5.789,3.158-8.895,3.926s-6.242,1.484-9.358,2.168a136.474,136.474,0,0,1-18.7,3,67.367,67.367,0,0,1-18.547-.884,45.263,45.263,0,0,1-16.779-6.853l-.274-.179.242-.221a58.6,58.6,0,0,1,30.284-13.684,57.715,57.715,0,0,1,31.4,3.926,15.442,15.442,0,0,1,3.284,2.105,7.631,7.631,0,0,1,2.284,3.158,5.463,5.463,0,0,1-.189,3.895,7.884,7.884,0,0,1-2.484,2.958,23.157,23.157,0,0,1-6.821,3.158,47.854,47.854,0,0,1-7.189,1.705,46.715,46.715,0,0,1-14.379,0,7.084,7.084,0,0,1-3.326-1.189,3.5,3.5,0,0,1-1.21-3.316,6.042,6.042,0,0,1,1.874-3,12.337,12.337,0,0,1,2.842-1.989,49.715,49.715,0,0,1,25.578-4.053,23.158,23.158,0,0,1,6.074,1.4,11.031,11.031,0,0,1,4.916,3.589,8.158,8.158,0,0,1,1.642,5.695,7.779,7.779,0,0,1-2.947,4.937,29.587,29.587,0,0,1-4.695,3.053,44.976,44.976,0,0,1-4.989,2.358A47.641,47.641,0,0,1,292,93.963a46.715,46.715,0,0,1-18.947-.821h-.2l.116-.158A22.758,22.758,0,0,1,283.5,85.121a22.389,22.389,0,0,1,11.495-1.137,11.758,11.758,0,0,1,4.863,1.832,6.442,6.442,0,0,1,1.716,1.747,5.263,5.263,0,0,1,.779,2.221,6.316,6.316,0,0,1-1.158,4.147,11.578,11.578,0,0,1-2.716,2.81,23.053,23.053,0,0,1-5.821,2.821,31.625,31.625,0,0,0-4.232,1.884,11.969,11.969,0,0,0-2.295,1.653c-.232.211-.389.389-.505.505l-.168.168a9.327,9.327,0,0,1,.653-.705,11.653,11.653,0,0,1,2.274-1.684,30.622,30.622,0,0,1,4.21-1.937,23.736,23.736,0,0,0,5.779-2.842,11.253,11.253,0,0,0,2.663-2.789,6.074,6.074,0,0,0,1.116-4.032,4.885,4.885,0,0,0-.758-2.105,5.969,5.969,0,0,0-1.674-1.695,11.474,11.474,0,0,0-4.779-1.779,22.179,22.179,0,0,0-11.379,1.147,22.558,22.558,0,0,0-10.4,7.8l-.074-.211a46.568,46.568,0,0,0,18.821.779,47.925,47.925,0,0,0,10.105-2.8,46.427,46.427,0,0,0,4.926-2.316,29.115,29.115,0,0,0,4.663-3.053,7.5,7.5,0,0,0,2.821-4.716,7.831,7.831,0,0,0-1.621-5.41,10.631,10.631,0,0,0-4.726-3.484,22.263,22.263,0,0,0-5.968-1.411,49.168,49.168,0,0,0-25.421,4.01,11.652,11.652,0,0,0-2.737,1.916,5.674,5.674,0,0,0-1.716,2.789,3.053,3.053,0,0,0,1.053,2.905,6.684,6.684,0,0,0,3.158,1.253,46.421,46.421,0,0,0,14.231,0A48.42,48.42,0,0,0,297.8,81.7a22.547,22.547,0,0,0,6.684-3.158,7.442,7.442,0,0,0,2.337-2.779,4.99,4.99,0,0,0,.168-3.558,6.979,6.979,0,0,0-2.105-2.979,14.5,14.5,0,0,0-3.158-2.105,57.294,57.294,0,0,0-31.2-3.937,58.1,58.1,0,0,0-30.01,13.684v-.411a44.968,44.968,0,0,0,16.6,6.758,66.7,66.7,0,0,0,18.4.884,136.25,136.25,0,0,0,18.631-3.032c3.158-.684,6.231-1.421,9.347-2.168s6.316-1.674,8.663-3.8a9.21,9.21,0,0,0,2.579-3.905,6.474,6.474,0,0,0-.158-4.6,8.421,8.421,0,0,0-3.032-3.579,16.841,16.841,0,0,0-4.326-2.158,26.03,26.03,0,0,0-4.768-1.147c-1.621-.284-3.263-.495-4.905-.642a62.745,62.745,0,0,0-9.947-.063A61.114,61.114,0,0,0,268.151,63.7a30.39,30.39,0,0,0-8.631,5.179c-2.484,2.21-4.632,5.126-4.905,8.495a9.536,9.536,0,0,0,1.432,5.8,12.631,12.631,0,0,0,4.505,4.031,28.052,28.052,0,0,0,11.8,3.095,84.6,84.6,0,0,0,24.3-2,83.547,83.547,0,0,0,11.579-3.547q1.4-.537,2.779-1.137c.926-.389,1.832-.789,2.716-1.253a26.2,26.2,0,0,0,4.947-3.242,13.989,13.989,0,0,0,3.674-4.495,8.958,8.958,0,0,0,.832-2.737,9.317,9.317,0,0,0,0-1.432l-.063-.716-.147-.705A9.316,9.316,0,0,0,320,64.269a18.262,18.262,0,0,0-4.916-3.01,32.629,32.629,0,0,0-5.505-1.789c-.937-.253-1.884-.442-2.832-.642s-1.884-.368-2.842-.516a66.2,66.2,0,0,0-33.463,3.368,27.052,27.052,0,0,0-2.579,1.053c-.853.4-1.695.716-2.516,1.137a29.474,29.474,0,0,0-4.789,2.674,14.221,14.221,0,0,0-3.789,3.779,6.947,6.947,0,0,0-1.116,5.021,7.6,7.6,0,0,0,2.663,4.389,16.7,16.7,0,0,0,4.547,2.663,33.493,33.493,0,0,0,5.063,1.547c.853.221,1.705.432,2.568.6s1.716.389,2.579.537a95.893,95.893,0,0,0,40.368-1.053,37.293,37.293,0,0,0,9.116-3.158c2.789-1.474,5.389-3.537,6.653-6.389a9.062,9.062,0,0,0,.737-4.463,10.757,10.757,0,0,0-1.432-4.358,15.936,15.936,0,0,0-6.568-6.01,48.42,48.42,0,0,0-8.295-3.158c-2.81-.874-5.621-1.621-8.421-2.221A58.168,58.168,0,0,0,288.614,52.9a37.894,37.894,0,0,0-15.073,4.337,28.326,28.326,0,0,0-10.81,9.895l-.063-.242a46.557,46.557,0,0,0,39.494,3.684,17.7,17.7,0,0,0,7.316-4.41,7.558,7.558,0,0,0,1.905-3.484,5.4,5.4,0,0,0-.621-3.695,7.094,7.094,0,0,0-2.621-2.526,13.241,13.241,0,0,0-3.263-1.337,20.61,20.61,0,0,0-3.316-.621c-1.053-.147-2.105-.221-3.158-.274a42.862,42.862,0,0,0-18.579,3.337,42.209,42.209,0,0,0-4.4,2.105C274.425,60.279,273.93,60.553,273.93,60.553Z" transform="translate(-239.92 -52.49)" fill="#263238"/>
    </g>
  </g>
</svg>
