<svg xmlns="http://www.w3.org/2000/svg" width="388.544" height="343.384" viewBox="0 0 388.544 343.384">
  <g id="QA_engineers-rafiki_1_" data-name="QA engineers-rafiki (1)" transform="translate(-56.11 -84.176)">
    <g id="freepik--background-simple--inject-18">
      <path id="Trazado_102201" data-name="Trazado 102201" d="M185.55,97.3c46,29.54,65.55,28.89,116.73,40.82,41.84,9.75,87.53,34.82,111,71.79,61.72,97.41-82.59,135.65-157,130.79-52.43-3.43-79.63-27.35-104.57-70.5-9.7-16.78-16.37-35.58-29-51-13.53-16.54-33.49-22.3-46.59-36.61C12.59,113.25,124.3,57.92,185.55,97.3Z" fill="#7e57c2"/>
      <path id="Trazado_102202" data-name="Trazado 102202" d="M185.55,97.3c46,29.54,65.55,28.89,116.73,40.82,41.84,9.75,87.53,34.82,111,71.79,61.72,97.41-82.59,135.65-157,130.79-52.43-3.43-79.63-27.35-104.57-70.5-9.7-16.78-16.37-35.58-29-51-13.53-16.54-33.49-22.3-46.59-36.61C12.59,113.25,124.3,57.92,185.55,97.3Z" fill="#fff" opacity="0.9"/>
    </g>
    <g id="freepik--Shadow--inject-18">
      <ellipse id="freepik--path--inject-18" cx="193.89" cy="11.32" rx="193.89" ry="11.32" transform="translate(56.11 404.92)" fill="#f5f5f5"/>
    </g>
    <g id="freepik--character-2--inject-18">
      <path id="Trazado_102203" data-name="Trazado 102203" d="M380.5,408.01l-8.02-.12-.03-18.62,8.01.12Z" fill="#ffb573"/>
      <path id="Trazado_102204" data-name="Trazado 102204" d="M421.22,408.04h-8.03l-2.38-18.59h8.03Z" fill="#ffb573"/>
      <path id="Trazado_102205" data-name="Trazado 102205" d="M412.35,407.11h9.79a.67.67,0,0,1,.66.55l1.28,7.14a1.23,1.23,0,0,1-1.23,1.42c-3.15-.05-5.44-.24-9.41-.24-2.44,0-9.8.26-13.17.26s-3.67-3.33-2.28-3.64c6.24-1.35,11-3.21,13-5A2,2,0,0,1,412.35,407.11Z" fill="#263238"/>
      <path id="Trazado_102206" data-name="Trazado 102206" d="M372.09,407l8.76.14a.64.64,0,0,1,.64.56l1.1,7.15a1.24,1.24,0,0,1-1.25,1.41c-3.16-.1-7.71-.36-11.68-.42-4.64-.07-5.16.12-10.6,0-3.29-.05-4-3.39-2.58-3.67,6.37-1.28,8-1.35,13.64-4.61a3.9,3.9,0,0,1,1.97-.56Z" fill="#263238"/>
      <path id="Trazado_102207" data-name="Trazado 102207" d="M375.65,169.13a178.716,178.716,0,0,1-7.35,17c-1.37,2.76-2.81,5.51-4.39,8.21a87.529,87.529,0,0,1-5.14,8l-1.51,2a11.12,11.12,0,0,1-3.41,2.89,9.83,9.83,0,0,1-4.48,1.18,11.84,11.84,0,0,1-3.79-.5,19.31,19.31,0,0,1-5.37-2.59,37.814,37.814,0,0,1-4-3.18,71.919,71.919,0,0,1-12-14.65l4.76-3.71c2.05,2,4.21,4,6.39,5.88a70.474,70.474,0,0,0,6.63,5.2,27.381,27.381,0,0,0,3.31,2,10.28,10.28,0,0,0,2.84,1,1.17,1.17,0,0,0,.65,0c.07-.05-.07-.06-.19,0s-.15,0-.08-.08l1.05-1.67a143.676,143.676,0,0,0,7.85-15.2c2.41-5.27,4.73-10.76,6.88-16.06Z" fill="#ffb573"/>
      <path id="Trazado_102208" data-name="Trazado 102208" d="M378.65,163.89c2.65,7.2-11.25,28.23-11.25,28.23l-16-8.86a97.52,97.52,0,0,1,9.44-18.71C366.63,156.14,375.76,156,378.65,163.89Z" fill="#7e57c2"/>
      <path id="Trazado_102209" data-name="Trazado 102209" d="M378.65,163.89c2.65,7.2-11.25,28.23-11.25,28.23l-16-8.86a97.52,97.52,0,0,1,9.44-18.71C366.63,156.14,375.76,156,378.65,163.89Z" fill="#fff" opacity="0.5"/>
      <path id="Trazado_102210" data-name="Trazado 102210" d="M369.78,171.78c-3.06,1.55-10,9.17-12.09,14.95l9.71,5.39a123.632,123.632,0,0,0,8.78-16C374,174,371.4,171,369.78,171.78Z" fill="#7e57c2" opacity="0.2"/>
      <path id="Trazado_102211" data-name="Trazado 102211" d="M329.49,183.91l-4.88-4.42L320,187.38s4.69,5.5,9.88,2.83l.7-2A4,4,0,0,0,329.49,183.91Z" fill="#ffb573"/>
      <path id="Trazado_102212" data-name="Trazado 102212" d="M316.73,176.17l-1.35,7.67,4.62,3.54,4.61-7.89Z" fill="#ffb573"/>
      <path id="Trazado_102213" data-name="Trazado 102213" d="M372.45,389.27l.02,9.6,8.01.13-.01-9.6Z" opacity="0.2"/>
      <path id="Trazado_102214" data-name="Trazado 102214" d="M418.84,389.46h-8.03l1.24,9.58h8.02Z" opacity="0.2"/>
      <path id="Trazado_102215" data-name="Trazado 102215" d="M414.15,158.3c-6.64,31-2.79,63.17-3.14,69.76l-42.93-.38c-8.59-45.22,1.1-69.38,1.1-69.38s2.71-.71,6.42-1.34c1.16-.2,2.42-.39,3.73-.54.72-.09,1.46-.16,2.21-.23a160.007,160.007,0,0,1,18.25.17c1.15.06,2.32.16,3.45.27s2.09.23,3.06.36C410.72,157.57,414.15,158.3,414.15,158.3Z" fill="#7e57c2"/>
      <path id="Trazado_102216" data-name="Trazado 102216" d="M414.15,158.3c-6.64,31-2.79,63.17-3.14,69.76l-42.93-.38c-8.59-45.22,1.1-69.38,1.1-69.38s2.71-.71,6.42-1.34c1.16-.2,2.42-.39,3.73-.54.72-.09,1.46-.16,2.21-.23a160.007,160.007,0,0,1,18.25.17c1.15.06,2.32.16,3.45.27s2.09.23,3.06.36C410.72,157.57,414.15,158.3,414.15,158.3Z" fill="#fff" opacity="0.5"/>
      <path id="Trazado_102217" data-name="Trazado 102217" d="M405.89,172c-.58,3,1.18,16.37,4.47,19.48.13-4.33.4-8.85.84-13.49Z" opacity="0.2"/>
      <path id="Trazado_102218" data-name="Trazado 102218" d="M398.16,135.79c-1.2,5.86-2.45,16.61,1.63,20.57-3.22,3.14-7.43,6.77-14.4,6.95s-5.72-4.6-3.85-7.12c6.56-1.5,6.44-6.36,5.34-10.93Z" fill="#ffb573"/>
      <path id="Trazado_102219" data-name="Trazado 102219" d="M398.6,154.11s-2.12,5.56-13.49,9.2a9,9,0,0,1,4.23,4.13s13.29-3.38,12.28-11.79A12.65,12.65,0,0,0,398.6,154.11Z" fill="#fff"/>
      <path id="Trazado_102220" data-name="Trazado 102220" d="M380.77,167a8.75,8.75,0,0,1,4.34-3.66c-1.28-1.17-3.35-4.82-2.44-7.66A9.24,9.24,0,0,0,380,156S375.25,160.54,380.77,167Z" fill="#fff"/>
      <path id="Trazado_102221" data-name="Trazado 102221" d="M384.79,169.78c-.09.8-.5,1.4-.93,1.35s-.7-.72-.62-1.52.51-1.39.93-1.35S384.88,169,384.79,169.78Z" fill="#fff"/>
      <path id="Trazado_102222" data-name="Trazado 102222" d="M384,178c0,.8-.38,1.44-.81,1.43s-.77-.66-.75-1.46.38-1.44.81-1.43S384,177.21,384,178Z" fill="#fff"/>
      <path id="Trazado_102223" data-name="Trazado 102223" d="M393.56,139.65l-6.68,5.6a18.5,18.5,0,0,1,.53,3.25c2.51-.34,6-3.06,6.26-5.68a8.82,8.82,0,0,0-.11-3.17Z" opacity="0.2"/>
      <path id="Trazado_102224" data-name="Trazado 102224" d="M386.3,122.42a12.07,12.07,0,0,0-3.22,10.46c-1.85,1.6-5.2,1.31-5.2,1.31l-1.06-1.06a5,5,0,0,1-1.43-3.91c.19-2.34.72-5.89,2.2-8.14C380,117.49,386.3,122.42,386.3,122.42Z" fill="#263238"/>
      <path id="Trazado_102225" data-name="Trazado 102225" d="M398.94,127c-.56,8-.48,12.63-4.53,16.67-6.1,6.09-15.88,2.36-17.71-5.6-1.64-7.16-.45-19,7.36-22A10.86,10.86,0,0,1,398.94,127Z" fill="#ffb573"/>
      <path id="Trazado_102226" data-name="Trazado 102226" d="M392.3,122.14a12.67,12.67,0,0,1,.37,9.41,2.45,2.45,0,0,0,1.53,3.2,7,7,0,0,0,2.13.29l3.83-.73s1.61-5.7.56-9.87S392.3,122.14,392.3,122.14Z" fill="#263238"/>
      <path id="Trazado_102227" data-name="Trazado 102227" d="M392.27,123.19a62.21,62.21,0,0,1-17.58-.91s1.88-6,6.1-8,13.14-1.87,15.89-.71,6.34,4.7,5,13.34C398.83,130,392.27,123.19,392.27,123.19Z" fill="#263238"/>
      <path id="Trazado_102228" data-name="Trazado 102228" d="M402.87,125.63s-22.39-3.25-31.67-4.88a.61.61,0,0,1,0-1.2,41.82,41.82,0,0,1,11.63.52Z" fill="#7e57c2"/>
      <path id="Trazado_102229" data-name="Trazado 102229" d="M374.85,119.56c.4-2,3.86-12.33,18.38-9.19,13.45,2.9,9.64,15.26,9.64,15.26Z" fill="#7e57c2"/>
      <path id="Trazado_102230" data-name="Trazado 102230" d="M383.95,110.68l4.86-1.44,5.86.48v1.01l-3.72.86Z" fill="#7e57c2"/>
      <path id="Trazado_102231" data-name="Trazado 102231" d="M384.68,120.6h0a.37.37,0,0,1-.38-.37c0-.08.11-8.12,9.63-10.26a.38.38,0,1,1,.16.74c-8.91,2-9,9.21-9,9.52a.37.37,0,0,1-.41.37Z" opacity="0.2"/>
      <path id="Trazado_102232" data-name="Trazado 102232" d="M402.34,135.06a7.62,7.62,0,0,1-4.62,3.49c-2.57.65-3.79-1.67-3-4.06.69-2.16,2.87-5.1,5.43-4.68S403.56,132.93,402.34,135.06Z" fill="#ffb573"/>
      <path id="Trazado_102233" data-name="Trazado 102233" d="M370,397l13.59.21s3.68-53.77,3.27-78.78c-.12-7.61.71-18.32,2-29.82,1.59-14.49,2.43-20.28,4.52-38.6,1.49-13.06,3-22,3-22l-28.22-.25s-3.61,65.5-2.87,90C366,343.13,370,397,370,397Z" fill="#263238"/>
      <path id="Trazado_102234" data-name="Trazado 102234" d="M387.54,245.69c-4.22,12.9-2.4,42.36.47,50.5.24-2.48.51-5,.79-7.6,1.59-14.5,2.44-20.29,4.53-38.6a9.211,9.211,0,0,1,.12-1.07,19.259,19.259,0,0,0-5.91-3.23Z" opacity="0.2"/>
      <path id="Trazado_102235" data-name="Trazado 102235" d="M383.31,227.82s9.58,67.41,13,90.68c3.74,25.48,12,78.68,12,78.68H423s-2.76-50.14-5.93-75.05c-3.6-28.38-6.09-94.06-6.09-94.06Z" fill="#263238"/>
      <path id="Trazado_102236" data-name="Trazado 102236" d="M406.57,397.5h17.31v-5.17L404.53,392Z" fill="#7e57c2"/>
      <path id="Trazado_102237" data-name="Trazado 102237" d="M367.93,397.26l16.16.25.74-5.23-18.03-.56Z" fill="#7e57c2"/>
      <path id="Trazado_102238" data-name="Trazado 102238" d="M386.86,129.07c0,.65-.35,1.17-.78,1.17s-.76-.53-.75-1.18.35-1.17.78-1.16S386.87,128.43,386.86,129.07Z" fill="#263238"/>
      <path id="Trazado_102239" data-name="Trazado 102239" d="M379.54,129c0,.65-.35,1.17-.77,1.16s-.76-.53-.76-1.17.35-1.17.78-1.17S379.55,128.36,379.54,129Z" fill="#263238"/>
      <path id="Trazado_102240" data-name="Trazado 102240" d="M381.65,129.69a23,23,0,0,1-3.15,5.5,3.74,3.74,0,0,0,3.09.61Z" fill="#ed893e"/>
      <path id="Trazado_102241" data-name="Trazado 102241" d="M384.53,137.73a5.32,5.32,0,0,0,3.67-2.09.19.19,0,0,0-.31-.21,5.18,5.18,0,0,1-4.2,2,.19.19,0,1,0,0,.38A7.619,7.619,0,0,0,384.53,137.73Z" fill="#263238"/>
      <path id="Trazado_102242" data-name="Trazado 102242" d="M389.14,126.73a.45.45,0,0,0,.18-.07.38.38,0,0,0,.08-.53,3.8,3.8,0,0,0-3.09-1.6.37.37,0,0,0-.35.4.38.38,0,0,0,.4.36h0a3,3,0,0,1,2.43,1.29A.35.35,0,0,0,389.14,126.73Z" fill="#263238"/>
      <path id="Trazado_102243" data-name="Trazado 102243" d="M376.41,126.46a.39.39,0,0,0,.3-.2,3,3,0,0,1,2.16-1.7.383.383,0,1,0-.09-.76,3.75,3.75,0,0,0-2.75,2.12.37.37,0,0,0,.17.51.39.39,0,0,0,.21.03Z" fill="#263238"/>
      <path id="Trazado_102244" data-name="Trazado 102244" d="M409.64,408.52a9.859,9.859,0,0,0,2.11-.29.22.22,0,0,0,.15-.16.2.2,0,0,0-.08-.19c-.28-.18-2.81-1.77-3.71-1.32a.65.65,0,0,0-.35.54,1.1,1.1,0,0,0,.35,1,2.39,2.39,0,0,0,1.53.42Zm1.57-.56c-1.38.27-2.42.22-2.85-.15a.72.72,0,0,1-.22-.68.24.24,0,0,1,.13-.23c.47-.24,1.91.45,2.94,1.1Z" fill="#7e57c2"/>
      <path id="Trazado_102245" data-name="Trazado 102245" d="M411.7,408.23a.148.148,0,0,0,.2-.17c0-.1-.1-2.42-1-3.18a1,1,0,0,0-.8-.24h0a.65.65,0,0,0-.62.49c-.21.9,1.32,2.66,2.13,3.11ZM410.22,405a.6.6,0,0,1,.43.17,4.3,4.3,0,0,1,.84,2.51c-.8-.63-1.76-2-1.64-2.48,0-.05,0-.17.29-.2h.08Z" fill="#7e57c2"/>
      <path id="Trazado_102246" data-name="Trazado 102246" d="M371.23,408.06a.21.21,0,0,0,.13-.16.17.17,0,0,0-.09-.19c-.35-.2-3.46-1.88-4.47-1.36a.68.68,0,0,0-.35.51h0a1.06,1.06,0,0,0,.29.93c.83.79,3.15.51,4.46.27Zm-4.2-1.4c.62-.2,2.32.49,3.56,1.12-1.8.27-3.11.17-3.57-.27a.65.65,0,0,1-.19-.62.22.22,0,0,1,.13-.2Z" fill="#7e57c2"/>
      <path id="Trazado_102247" data-name="Trazado 102247" d="M371.23,408.06h0a.22.22,0,0,0,.09-.17c0-.09-.07-2.26-1-3.11a1.3,1.3,0,0,0-1-.34h0a.669.669,0,0,0-.74.52c-.21.9,1.59,2.67,2.53,3.12A.22.22,0,0,0,371.23,408.06Zm-2.11-3.24h.19a1,1,0,0,1,.76.26,4.26,4.26,0,0,1,.89,2.49c-.95-.61-2.16-2-2-2.54-.02-.03.04-.16.16-.21Zm.19-.22Z" fill="#7e57c2"/>
      <path id="Trazado_102248" data-name="Trazado 102248" d="M402.79,154.29a3.18,3.18,0,0,0-2.75,1c-2.76,3-9.34,12.17-10.7,33.57a153,153,0,0,0,4.41,48.09l17.1-4.86a2.39,2.39,0,0,0,1.73-2.58c-.46-4-1.45-13.63-1.73-24.4-.19-7.58.38-14.41.35-17.51-1.88-3.68-5.26-9.69-4-16.24,1.36-7.31,5.38-8.31,8.12-9.65a2.16,2.16,0,0,0-.06-3.86,44.221,44.221,0,0,0-12.47-3.56Z" fill="#7e57c2"/>
      <path id="Trazado_102249" data-name="Trazado 102249" d="M378.72,236.92,367,233.24a2.4,2.4,0,0,1-1.66-2c-1-7.74-5.18-43.27.22-69.65a5.24,5.24,0,0,1,3.4-3.91,47.44,47.44,0,0,1,10.41-2.27.63.63,0,0,1,.67.81C377.82,164.37,374.12,209,378.72,236.92Z" fill="#7e57c2"/>
      <path id="Trazado_102250" data-name="Trazado 102250" d="M363.35,209.72c.21,3.74.48,7.19.75,10.22,4.25.48,8.6.81,12.92,1-.2-3.31-.34-6.7-.41-10.11C372.13,210.61,367.67,210.25,363.35,209.72Z" fill="#fff"/>
      <path id="Trazado_102251" data-name="Trazado 102251" d="M376.72,192.08c-4.75-.2-9.42-.57-13.86-1.14,0,3.46,0,6.86.11,10.13,4.41.54,9,.89,13.57,1.08C376.55,198.74,376.62,195.36,376.72,192.08Z" fill="#fff"/>
      <path id="Trazado_102252" data-name="Trazado 102252" d="M411,210.18c-6.25.61-13.68,1-21.5,1,.28,3.67.66,7.05,1.09,10.06,7.65,0,14.88-.45,21.08-1.06C411.44,217.13,411.2,213.73,411,210.18Z" fill="#fff"/>
      <path id="Trazado_102253" data-name="Trazado 102253" d="M411.11,191c-6.65.69-14.21,1.16-21.95,1.26-.14,3.49-.16,6.86-.09,10.07,7.65-.1,15.09-.55,21.75-1.22C410.83,197.21,411,193.68,411.11,191Z" fill="#fff"/>
      <path id="Trazado_102254" data-name="Trazado 102254" d="M442.5,243l-45.43,7.58a2.1,2.1,0,0,1-2.48-1.93l-2.17-28.16a2.59,2.59,0,0,1,2.12-2.7L440,210.21a2.09,2.09,0,0,1,2.48,1.93l2.17,28.16A2.59,2.59,0,0,1,442.5,243Z" fill="#7e57c2"/>
      <path id="Trazado_102255" data-name="Trazado 102255" d="M442.5,243l-44.38,7.4a2.09,2.09,0,0,1-2.48-1.93l-2.17-28.16a2.59,2.59,0,0,1,2.12-2.7l44.38-7.4a2.09,2.09,0,0,1,2.48,1.93l2.17,28.16A2.59,2.59,0,0,1,442.5,243Z" opacity="0.4"/>
      <path id="Trazado_102256" data-name="Trazado 102256" d="M416,163.4c2.53,5.76,4.77,11.49,6.8,17.41,1,2.94,2,5.92,2.89,8.92.45,1.51.88,3,1.29,4.56l.31,1.14.32,1.32c.23.9.36,1.8.52,2.69a50.47,50.47,0,0,1-1.77,20.15,78.2,78.2,0,0,1-3.16,9.14c-.63,1.48-1.29,2.93-2,4.37s-1.41,2.82-2.27,4.29l-5.45-2.59c.87-2.71,1.75-5.63,2.4-8.48s1.28-5.75,1.71-8.6a61.542,61.542,0,0,0,.68-8.47,34.418,34.418,0,0,0-.75-7.92c-.17-.6-.28-1.23-.49-1.8l-.29-.9-.37-1c-.49-1.4-1-2.79-1.55-4.19-1-2.81-2.17-5.61-3.27-8.42l-6.76-16.8Z" fill="#ffb573"/>
      <path id="Trazado_102257" data-name="Trazado 102257" d="M414.14,158.3C421.35,161,426,181.69,426,181.69l-15.95,11s-4.9-12.25-7.6-21.8C399.54,160.5,405.42,155.1,414.14,158.3Z" fill="#7e57c2"/>
      <path id="Trazado_102258" data-name="Trazado 102258" d="M414.14,158.3C421.35,161,426,181.69,426,181.69l-15.95,11s-4.9-12.25-7.6-21.8C399.54,160.5,405.42,155.1,414.14,158.3Z" fill="#fff" opacity="0.5"/>
      <path id="Trazado_102259" data-name="Trazado 102259" d="M412.83,236.06l-1.39,6.15,9.61-.28s.77-7.43-3-8.6l-3,.57a2.84,2.84,0,0,0-2.22,2.16Z" fill="#ffb573"/>
      <path id="Trazado_102260" data-name="Trazado 102260" d="M414.45,249.89l5.78-1.18a1.43,1.43,0,0,0,1.14-1.5l-.32-5.28-9.61.28,1.32,6.55a1.44,1.44,0,0,0,1.69,1.13Z" fill="#ffb573"/>
    </g>
    <g id="freepik--QA--inject-18">
      <path id="Trazado_102261" data-name="Trazado 102261" d="M330.48,115H157.85a3.65,3.65,0,0,0-3.64,3.75l7,237.75a3.65,3.65,0,0,0,3.65,3.54H337.44a3.65,3.65,0,0,0,3.65-3.76l-7-237.74a3.64,3.64,0,0,0-3.61-3.54Z" fill="#7e57c2"/>
      <path id="Trazado_102262" data-name="Trazado 102262" d="M330.48,115H157.85a3.65,3.65,0,0,0-3.64,3.75l7,237.75a3.65,3.65,0,0,0,3.65,3.54H337.44a3.65,3.65,0,0,0,3.65-3.76l-7-237.74a3.64,3.64,0,0,0-3.61-3.54Z" opacity="0.2"/>
      <rect id="Rect치ngulo_34017" data-name="Rect치ngulo 34017" width="16.2" height="1" transform="translate(179.56 111.53)" fill="#7e57c2"/>
      <rect id="Rect치ngulo_34018" data-name="Rect치ngulo 34018" width="4.11" height="1" transform="translate(169.67 111.53)" fill="#7e57c2"/>
      <path id="Trazado_102263" data-name="Trazado 102263" d="M332.14,115H159.52a3.65,3.65,0,0,0-3.65,3.75l7,237.75a3.66,3.66,0,0,0,3.65,3.54H339.11a3.65,3.65,0,0,0,3.64-3.76l-7-237.74a3.65,3.65,0,0,0-3.61-3.54Z" fill="#0f0140"/>
      <path id="Trazado_102264" data-name="Trazado 102264" d="M163.27,127.91l6.48,221.43a3.7,3.7,0,0,0,3.67,3.57H329.74a3.44,3.44,0,0,0,3.45-3.57l-6.48-221.43a3.69,3.69,0,0,0-3.67-3.56H166.72a3.43,3.43,0,0,0-3.45,3.56Z" opacity="0.2"/>
      <path id="Trazado_102265" data-name="Trazado 102265" d="M164.35,126.83l6.48,221.43a3.69,3.69,0,0,0,3.67,3.56H330.82a3.43,3.43,0,0,0,3.45-3.56l-6.48-221.43a3.69,3.69,0,0,0-3.67-3.56H167.8a3.43,3.43,0,0,0-3.45,3.56Z" fill="#fff"/>
      <path id="Trazado_102266" data-name="Trazado 102266" d="M212.41,198.15H182.37l-.88-30.05h30.04Z" fill="#f5f5f5"/>
      <path id="Trazado_102267" data-name="Trazado 102267" d="M310.21,180.03H225.27l-.16-5.6h84.94Z" fill="#e0e0e0"/>
      <path id="Trazado_102268" data-name="Trazado 102268" d="M292.08,191.82H225.62l-.17-5.6h66.47Z" fill="#e0e0e0"/>
      <path id="Trazado_102269" data-name="Trazado 102269" d="M213.99,252.04H183.95L183.07,222h30.04Z" fill="#f5f5f5"/>
      <path id="Trazado_102270" data-name="Trazado 102270" d="M258.06,233.93H226.85l-.16-5.61h31.2Z" fill="#e0e0e0"/>
      <path id="Trazado_102271" data-name="Trazado 102271" d="M287.61,233.93H264.66l-.17-5.61h22.96Z" fill="#e0e0e0"/>
      <path id="Trazado_102272" data-name="Trazado 102272" d="M301.52,245.72H227.19l-.16-5.61h74.33Z" fill="#e0e0e0"/>
      <path id="Trazado_102273" data-name="Trazado 102273" d="M215.57,305.94H185.53l-.88-30.05h30.04Z" fill="#f5f5f5"/>
      <path id="Trazado_102274" data-name="Trazado 102274" d="M313.55,294H228.61l.16,5.61h84.94Z" fill="#e0e0e0"/>
      <path id="Trazado_102275" data-name="Trazado 102275" d="M294.73,282.22H228.26l.17,5.6h66.46Z" fill="#e0e0e0"/>
      <path id="Trazado_102276" data-name="Trazado 102276" d="M198.88,190.34a1.31,1.31,0,0,1-2.2-.1h0c-2-3.2-5.68-6.12-7.82-7.57a1.33,1.33,0,0,1-.43-1.75h0a1.28,1.28,0,0,1,1.85-.4,36,36,0,0,1,6.47,5.56,1.29,1.29,0,0,0,2,0A85.651,85.651,0,0,1,214,171.91a1.32,1.32,0,0,1,1.84.28h0a1.3,1.3,0,0,1-.23,1.83c-7.68,5.81-13.14,11.16-16.68,16.32Z" fill="#05dbf2"/>
      <path id="Trazado_102277" data-name="Trazado 102277" d="M200.46,244.24a1.32,1.32,0,0,1-2.2-.11h0c-1.95-3.2-5.68-6.12-7.83-7.56a1.33,1.33,0,0,1-.42-1.75h0a1.3,1.3,0,0,1,1.86-.39,35.51,35.51,0,0,1,6.46,5.55,1.3,1.3,0,0,0,2,0,85.64,85.64,0,0,1,15.21-14.16,1.31,1.31,0,0,1,1.84.28h0a1.3,1.3,0,0,1-.23,1.82c-7.68,5.82-13.14,11.17-16.68,16.33Z" fill="#05dbf2"/>
      <path id="Trazado_102278" data-name="Trazado 102278" d="M202,298.25a1.32,1.32,0,0,1-2.2-.11h0a29.024,29.024,0,0,0-7.82-7.56,1.34,1.34,0,0,1-.43-1.75h0a1.28,1.28,0,0,1,1.85-.4,36.28,36.28,0,0,1,6.47,5.55,1.3,1.3,0,0,0,2,0,85.189,85.189,0,0,1,15.2-14.16,1.31,1.31,0,0,1,1.84.28h0a1.28,1.28,0,0,1-.23,1.82C211.01,287.74,205.54,293.09,202,298.25Z" fill="#05dbf2"/>
      <path id="Trazado_102279" data-name="Trazado 102279" d="M271.41,338.37a14.53,14.53,0,0,1-9.23-3.2c-2.08-1.44-4-2.79-7.93-2.79a11.62,11.62,0,0,0-7.77,2.79,13.74,13.74,0,0,1-9,3.2,14.54,14.54,0,0,1-9.24-3.2c-2.08-1.44-4-2.79-7.93-2.79a11.57,11.57,0,0,0-7.76,2.79,13.77,13.77,0,0,1-9,3.2,14.53,14.53,0,0,1-9.23-3.2c-2.08-1.44-4-2.79-7.93-2.79l-.07-2.25a14.54,14.54,0,0,1,9.24,3.2,12.23,12.23,0,0,0,7.93,2.79,11.57,11.57,0,0,0,7.76-2.79,13.75,13.75,0,0,1,9.05-3.2,14.53,14.53,0,0,1,9.23,3.2c2.08,1.44,4,2.79,7.93,2.79a11.57,11.57,0,0,0,7.76-2.79,13.79,13.79,0,0,1,9.05-3.2,14.54,14.54,0,0,1,9.24,3.2c2.08,1.44,4,2.79,7.93,2.79Z" fill="#ebebeb"/>
      <path id="Trazado_102280" data-name="Trazado 102280" d="M286.29,121.88h-.19c-2.31-7.33-7.85-12.19-13.9-12.19H259.88a4.61,4.61,0,0,1-4.23-3.24c-1.65-4.67-5.7-8-10.35-8s-8.52,3.33-9.93,8a4.33,4.33,0,0,1-4.06,3.24H219c-6.05,0-11.34,4.86-13.26,12.19h-.18a2.64,2.64,0,0,0-2.45,2.88,2.81,2.81,0,0,0,2.6,2.87h80.75a2.64,2.64,0,0,0,2.46-2.87A2.81,2.81,0,0,0,286.29,121.88Z" fill="#263238"/>
      <path id="Trazado_102281" data-name="Trazado 102281" d="M194.72,146.65l.53.35.5.23-.55,1.19a6.841,6.841,0,0,1-.9-.51,7.579,7.579,0,0,1-.62-.45,4.25,4.25,0,0,1-1.75.31,3.62,3.62,0,0,1-2.5-.82,3.54,3.54,0,0,1-1.14-2.71,3.14,3.14,0,0,1,3.44-3.57,3.67,3.67,0,0,1,2.66.91,4.26,4.26,0,0,1,.33,5.07Zm-1.65-1.09a2.78,2.78,0,0,0,.21-1.36,2.35,2.35,0,0,0-.43-1.48,1.38,1.38,0,0,0-1.08-.45,1.23,1.23,0,0,0-1,.46,2,2,0,0,0-.35,1.42,2.51,2.51,0,0,0,.43,1.58,1.34,1.34,0,0,0,1.06.45,1.78,1.78,0,0,0,.41,0,2.67,2.67,0,0,0-.86-.49l.31-.76a1.59,1.59,0,0,1,.44.12,6.233,6.233,0,0,1,.63.4Z" fill="#263238"/>
      <path id="Trazado_102282" data-name="Trazado 102282" d="M200.91,140.78H203l.12,4.1A3.31,3.31,0,0,1,203,146a2.29,2.29,0,0,1-.56.95,2.32,2.32,0,0,1-.84.57,4.259,4.259,0,0,1-1.48.23,8.739,8.739,0,0,1-1.09-.07,3,3,0,0,1-1-.28,2.75,2.75,0,0,1-.75-.59,2.43,2.43,0,0,1-.47-.79,4,4,0,0,1-.23-1.16l-.12-4.1h2.12l.12,4.19a1.2,1.2,0,0,0,.34.88,1.18,1.18,0,0,0,.87.32,1.13,1.13,0,0,0,.85-.32A1.16,1.16,0,0,0,201,145Z" fill="#263238"/>
      <path id="Trazado_102283" data-name="Trazado 102283" d="M208.5,146.52h-2.41l-.3,1.13h-2.17l2.38-6.87h2.31l2.79,6.87h-2.23ZM208,145l-.83-2.47L206.5,145Z" fill="#263238"/>
      <path id="Trazado_102284" data-name="Trazado 102284" d="M211.57,140.78h2.12l.15,5.18h3.32l.05,1.69h-5.44Z" fill="#263238"/>
      <path id="Trazado_102285" data-name="Trazado 102285" d="M218.05,140.78h2.13l.2,6.87h-2.13Z" fill="#263238"/>
      <path id="Trazado_102286" data-name="Trazado 102286" d="M221.22,140.78h6.45l.05,1.7h-2.16l.15,5.17h-2.12l-.16-5.17h-2.16Z" fill="#263238"/>
      <path id="Trazado_102287" data-name="Trazado 102287" d="M227.94,140.78h2.36l1.45,2.32,1.32-2.32h2.34l-2.55,4,.08,2.87h-2.13l-.08-2.87Z" fill="#263238"/>
      <path id="Trazado_102288" data-name="Trazado 102288" d="M243.68,146.52h-2.41l-.3,1.13h-2.16l2.38-6.87h2.31l2.78,6.87h-2.22ZM243.2,145l-.83-2.47-.68,2.47Z" fill="#263238"/>
      <path id="Trazado_102289" data-name="Trazado 102289" d="M246.52,145.38l2-.13a1.64,1.64,0,0,0,.28.75,1.17,1.17,0,0,0,1,.42,1,1,0,0,0,.7-.21.65.65,0,0,0,.23-.5.67.67,0,0,0-.25-.48,2.77,2.77,0,0,0-1.1-.39,4.7,4.7,0,0,1-2-.84,1.77,1.77,0,0,1-.36-2.32,1.87,1.87,0,0,1,.9-.74,4.2,4.2,0,0,1,1.68-.27,3.48,3.48,0,0,1,2,.49,2.17,2.17,0,0,1,.87,1.55l-2,.12a1.1,1.1,0,0,0-.35-.67,1.13,1.13,0,0,0-.71-.21.87.87,0,0,0-.56.15.45.45,0,0,0-.17.38.38.38,0,0,0,.16.3,1.81,1.81,0,0,0,.72.25,8.911,8.911,0,0,1,2,.61,2.15,2.15,0,0,1,.9.76,2,2,0,0,1,.3,1,2.171,2.171,0,0,1-1.33,2.06,4.13,4.13,0,0,1-1.65.29,3.5,3.5,0,0,1-2.45-.68,2.76,2.76,0,0,1-.81-1.69Z" fill="#263238"/>
      <path id="Trazado_102290" data-name="Trazado 102290" d="M253.45,145.38l2-.13a1.63,1.63,0,0,0,.29.75,1.17,1.17,0,0,0,.95.42,1,1,0,0,0,.7-.21.65.65,0,0,0,.23-.5.67.67,0,0,0-.25-.48,2.77,2.77,0,0,0-1.1-.39,4.65,4.65,0,0,1-2-.84,1.7,1.7,0,0,1-.64-1.32,1.77,1.77,0,0,1,.27-1,1.94,1.94,0,0,1,.91-.74,4.2,4.2,0,0,1,1.68-.27,3.51,3.51,0,0,1,2,.49,2.17,2.17,0,0,1,.87,1.55l-2,.12a1.06,1.06,0,0,0-.36-.67,1.09,1.09,0,0,0-.71-.21.86.86,0,0,0-.55.15.49.49,0,0,0-.18.38.43.43,0,0,0,.17.3,1.81,1.81,0,0,0,.72.25,8.911,8.911,0,0,1,2,.61,2.21,2.21,0,0,1,.9.76,2,2,0,0,1,.3,1,2.14,2.14,0,0,1-.33,1.21,2.1,2.1,0,0,1-1,.85,4.08,4.08,0,0,1-1.64.29,3.5,3.5,0,0,1-2.45-.68,2.76,2.76,0,0,1-.78-1.69Z" fill="#263238"/>
      <path id="Trazado_102291" data-name="Trazado 102291" d="M265.08,140.78h2.12l.12,4.1a3.309,3.309,0,0,1-.16,1.14,2.29,2.29,0,0,1-.56.95,2.32,2.32,0,0,1-.84.57,4.3,4.3,0,0,1-1.48.23,8.633,8.633,0,0,1-1.09-.07,3,3,0,0,1-1-.28,2.75,2.75,0,0,1-.75-.59A2.43,2.43,0,0,1,261,146a4,4,0,0,1-.23-1.16l-.12-4.1h2.11l.13,4.19a1.121,1.121,0,0,0,1.21,1.2,1.05,1.05,0,0,0,1.13-1.2Z" fill="#263238"/>
      <path id="Trazado_102292" data-name="Trazado 102292" d="M268.83,147.65l-.2-6.87h3.54a5.26,5.26,0,0,1,1.51.17,1.73,1.73,0,0,1,.86.63,2,2,0,0,1,.35,1.11,1.86,1.86,0,0,1-.22,1,1.81,1.81,0,0,1-.65.67,2.4,2.4,0,0,1-.74.27,2,2,0,0,1,.56.25,4.241,4.241,0,0,1,.66.79l1.09,2h-2.4l-1.19-2.1a1.9,1.9,0,0,0-.4-.53,1,1,0,0,0-.53-.16h-.19l.09,2.79Zm2-4.08h.89a2.72,2.72,0,0,0,.56-.1.58.58,0,0,0,.34-.21.7.7,0,0,0,.12-.4.65.65,0,0,0-.23-.51,1.27,1.27,0,0,0-.79-.18h-.94Z" fill="#263238"/>
      <path id="Trazado_102293" data-name="Trazado 102293" d="M280.46,146.52h-2.41l-.3,1.13h-2.17l2.38-6.87h2.31l2.79,6.87h-2.23ZM280,145l-.83-2.47L278.5,145Z" fill="#263238"/>
      <path id="Trazado_102294" data-name="Trazado 102294" d="M283.54,140.78h2l2.69,3.8-.11-3.8h2l.2,6.87h-2l-2.68-3.77.11,3.77h-2Z" fill="#263238"/>
      <path id="Trazado_102295" data-name="Trazado 102295" d="M296.21,144.84l1.88.56a3.33,3.33,0,0,1-.55,1.31,2.51,2.51,0,0,1-1,.79,3.64,3.64,0,0,1-1.51.27,4.42,4.42,0,0,1-1.84-.33A3,3,0,0,1,292,146.3a4,4,0,0,1-.58-2.1,3.52,3.52,0,0,1,.83-2.62,3.37,3.37,0,0,1,2.54-.91,3.57,3.57,0,0,1,2.06.52A3.25,3.25,0,0,1,298,142.8l-1.86.42a2.21,2.21,0,0,0-.22-.46,1.31,1.31,0,0,0-.45-.37,1.27,1.27,0,0,0-.58-.14,1.23,1.23,0,0,0-1.09.58,2.48,2.48,0,0,0-.25,1.36,2.58,2.58,0,0,0,.39,1.56,1.24,1.24,0,0,0,1,.43,1.15,1.15,0,0,0,.91-.35A2,2,0,0,0,296.21,144.84Z" fill="#263238"/>
      <path id="Trazado_102296" data-name="Trazado 102296" d="M299,140.78h5.69v1.47h-3.56v1.09h3.3v1.4h-3.3v1.36h3.67v1.55h-5.79Z" fill="#263238"/>
    </g>
    <g id="freepik--character-1--inject-18">
      <path id="Trazado_102297" data-name="Trazado 102297" d="M125.75,227.23s-2.84,62.23-3.38,87.43c-.57,26.22-.82,87.44-.82,87.44h-6.61s-10.56-50.88-7.43-87.44c-4.73-28.07-7.92-87.43-7.92-87.43Z" fill="#ff8b7b"/>
      <path id="Trazado_102298" data-name="Trazado 102298" d="M117,227.23s-15.76,65.17-22.2,89.54c-6.8,25.59-15.94,83.43-16,85.33H73.08s-1.8-66.82,7.26-89.54c0-28.47,11.84-85.33,11.84-85.33Z" fill="#ff8b7b"/>
      <path id="Trazado_102299" data-name="Trazado 102299" d="M72.94,398.63c-1.09,1.24-2,7.66-.32,10.52s0,7.09,5.5,7.09,6-1.2,4.65-3.76-3-7.37-2.94-10.38C79.89,398.22,81.38,396.22,72.94,398.63Z" fill="#263238"/>
      <path id="Trazado_102300" data-name="Trazado 102300" d="M72.26,405.32c-.12,3.3-.05,8.69-.05,8.69h.87s.65-5.9,1.2-8.09Z" fill="#263238"/>
      <path id="Trazado_102301" data-name="Trazado 102301" d="M131.38,187.42c.71,5.08,1.34,10.16,1.92,15.25s1.15,10.19,1.7,15.33c.13,1.27.23,2.61.45,3.67.09.55.2,1.12.33,1.73s.23,1.19.38,1.78c.54,2.38,1.23,4.77,2,7.16s1.51,4.78,2.39,7.15,1.76,4.77,2.68,7.08l-3.69,2a99.27,99.27,0,0,1-7.54-14,77.286,77.286,0,0,1-2.84-7.5c-.22-.63-.4-1.3-.59-1.95s-.38-1.31-.54-2a39.62,39.62,0,0,1-.74-3.95q-1.2-7.65-2.26-15.32c-.74-5.11-1.42-10.22-2-15.35Z" fill="#ff8b7b"/>
      <path id="Trazado_102302" data-name="Trazado 102302" d="M129.93,180c2.1,3.93,3.19,19.44,4.95,30.09a1.64,1.64,0,0,1-1.07,1.79,22.29,22.29,0,0,0-6.42,3.92,1.62,1.62,0,0,1-2.64-.91l-5-23.11,2.17-4.38a10.57,10.57,0,0,1,8-7.4Z" fill="#263238"/>
      <path id="Trazado_102303" data-name="Trazado 102303" d="M143.07,245.73l7.28,4.09-7.87,3s-4-3.45-3.29-6.81Z" fill="#ff8b7b"/>
      <path id="Trazado_102304" data-name="Trazado 102304" d="M153.02,256.24l-6.72,2.11-3.82-5.58,7.87-2.95Z" fill="#ff8b7b"/>
      <path id="Trazado_102305" data-name="Trazado 102305" d="M139.86,254.46l77.06-9.09.09.73-76.93,10.11Z" fill="#263238"/>
      <path id="Trazado_102306" data-name="Trazado 102306" d="M130.67,182.88c.13,6-.24,22.92-4.45,48.82H91.13C91.7,218,93.41,205,86.88,177a93.153,93.153,0,0,1,13.6-1.74,107.677,107.677,0,0,1,15.25,0c3.28.3,6.78.83,9.46,1.29a6.6,6.6,0,0,1,5.48,6.33Z" fill="#263238"/>
      <path id="Trazado_102307" data-name="Trazado 102307" d="M112.67,231.82h0a.14.14,0,0,1-.11-.14c3.2-29.77.39-41.64.36-41.76a.13.13,0,0,1,.09-.15.11.11,0,0,1,.15.09c0,.12,2.85,12-.35,41.85a.12.12,0,0,1-.14.11Z" fill="#fff" opacity="0.2"/>
      <path id="Trazado_102308" data-name="Trazado 102308" d="M115.73,175.23H100.48s5.24,8.8,12.19,13.44a19.91,19.91,0,0,0,3.06-13.44Z" fill="#e0e0e0"/>
      <path id="Trazado_102309" data-name="Trazado 102309" d="M107.08,153.56c3.43,5.79,2.06,12.94-3.06,16s-12,.78-15.47-5-2.06-13,3.06-16S103.65,147.76,107.08,153.56Z" fill="#263238"/>
      <path id="Trazado_102310" data-name="Trazado 102310" d="M85.54,159.89A13.17,13.17,0,0,1,88.32,151a10.15,10.15,0,0,1,15.58-.76,13.21,13.21,0,0,1,3.64,8.61h-.5a12.72,12.72,0,0,0-3.5-8.29,9.64,9.64,0,0,0-14.83.73A12.68,12.68,0,0,0,86,159.86Z" fill="#263238"/>
      <ellipse id="Elipse_4799" data-name="Elipse 4799" cx="11.3" cy="10.74" rx="11.3" ry="10.74" transform="translate(100.6 163.563) rotate(-64.16)" fill="#263238"/>
      <path id="Trazado_102311" data-name="Trazado 102311" d="M102,158.07c1,4.9,1.92,13.89-1.51,17.16,0,0,2.65,5.19,10.49,7,4.87-3,4.76-7,4.76-7-5.47-1.31-5.33-5.36-4.38-9.17Z" fill="#ff8b7b"/>
      <path id="Trazado_102312" data-name="Trazado 102312" d="M107.77,181.22l-6.83-8.05-2.36,1.25-.39,11.64,5.06-6.64Z" fill="#fff"/>
      <path id="Trazado_102313" data-name="Trazado 102313" d="M112.4,181.22l2.22-7.24,2.79,1.25,3.06,9.8-4.56-5.61Z" fill="#fff"/>
      <path id="Trazado_102314" data-name="Trazado 102314" d="M105.81,161.33l5.54,4.72a15.24,15.24,0,0,0-.47,2.71c-2.09-.3-5-2.6-5.18-4.79a7,7,0,0,1,.11-2.64Z" opacity="0.2"/>
      <path id="Trazado_102315" data-name="Trazado 102315" d="M96.82,149.07c1.92,8,2.57,11.39,7.37,14.81,7.23,5.14,16.6,1,17.1-7.36.45-7.55-2.77-19.32-11.23-21.13a11.19,11.19,0,0,0-13.24,13.68Z" fill="#ff8b7b"/>
      <path id="Trazado_102316" data-name="Trazado 102316" d="M98.64,152.75c5-3,4.34-12,4.34-12,8.65-.11,12,0,14.63.37s1-3.15-2.85-6-14.29-2-17.54,3.45C93.22,140.17,89.4,149.25,98.64,152.75Z" fill="#263238"/>
      <path id="Trazado_102317" data-name="Trazado 102317" d="M91.85,145s28.15-6,34.07-7.71c0-3.53-14.48.84-14.48.84Z" fill="#7e57c2"/>
      <path id="Trazado_102318" data-name="Trazado 102318" d="M119.4,137.08c-.54-2-4.69-12.05-19-7.93C87.22,133,91.85,145,91.85,145Z" fill="#7e57c2"/>
      <path id="Trazado_102319" data-name="Trazado 102319" d="M109.72,128.83l-5.01-1.25-5.75,1.02.07,1.01,3.77.61Z" fill="#7e57c2"/>
      <path id="Trazado_102320" data-name="Trazado 102320" d="M109.64,138.91a.5.5,0,0,1-.5-.46c0-.31-.63-7.41-9.56-8.78a.51.51,0,0,1-.42-.57.52.52,0,0,1,.57-.42c9.74,1.5,10.4,9.62,10.41,9.7a.5.5,0,0,1-.47.53Z" opacity="0.4"/>
      <path id="Trazado_102321" data-name="Trazado 102321" d="M122.56,307.14l-16.72-4.08c-.46-3.55-.88-7.33-1.29-11.22l18.4,3.22C122.8,299.38,122.67,303.47,122.56,307.14Z" opacity="0.2"/>
      <path id="Trazado_102322" data-name="Trazado 102322" d="M82.12,287.93l19.14,3.34c-.87,3.49-1.72,6.86-2.52,10.06L81.16,297C81.43,294.09,81.75,291,82.12,287.93Z" opacity="0.2"/>
      <path id="Trazado_102323" data-name="Trazado 102323" d="M110.93,149.16c.11.66.56,1.13,1,1.05s.69-.67.57-1.33-.56-1.12-1-1S110.81,148.5,110.93,149.16Z" fill="#263238"/>
      <path id="Trazado_102324" data-name="Trazado 102324" d="M118.35,147.85c.11.65.56,1.12,1,1.05s.69-.67.57-1.33-.56-1.13-1-1S118.23,147.19,118.35,147.85Z" fill="#263238"/>
      <path id="Trazado_102325" data-name="Trazado 102325" d="M118.73,146.59l1.5-.73S119.64,147.23,118.73,146.59Z" fill="#263238"/>
      <path id="Trazado_102326" data-name="Trazado 102326" d="M116.59,149.32a17.77,17.77,0,0,0,3.08,3.78,2.87,2.87,0,0,1-2.26.85Z" fill="#ff5652"/>
      <path id="Trazado_102327" data-name="Trazado 102327" d="M113.48,157a6.29,6.29,0,0,0,1.12-.1.19.19,0,0,0,.16-.22.2.2,0,0,0-.23-.16,5.31,5.31,0,0,1-4.6-1.28.191.191,0,1,0-.28.26A5.43,5.43,0,0,0,113.48,157Z" fill="#263238"/>
      <path id="Trazado_102328" data-name="Trazado 102328" d="M95.71,153.62A6,6,0,0,0,99,156.85c2,.78,3.16-.91,2.81-2.87-.32-1.76-1.71-4.3-3.76-4.25a2.69,2.69,0,0,0-2.34,3.89Z" fill="#ff8b7b"/>
      <path id="Trazado_102329" data-name="Trazado 102329" d="M107.66,146.17a.39.39,0,0,0,.27-.15,3.16,3.16,0,0,1,2.54-1.25.39.39,0,0,0,.43-.35.4.4,0,0,0-.36-.43,3.92,3.92,0,0,0-3.22,1.55.4.4,0,0,0,.06.55.42.42,0,0,0,.28.08Z" fill="#263238"/>
      <path id="Trazado_102330" data-name="Trazado 102330" d="M119.73,143.74a.38.38,0,0,0,.22-.19.39.39,0,0,0-.18-.53,3.89,3.89,0,0,0-3.57,0,.4.4,0,0,0-.14.54.39.39,0,0,0,.54.14,3.08,3.08,0,0,1,2.83,0A.35.35,0,0,0,119.73,143.74Z" fill="#263238"/>
      <path id="Trazado_102331" data-name="Trazado 102331" d="M111.31,147.9l1.5-.73S112.22,148.54,111.31,147.9Z" fill="#263238"/>
      <path id="Trazado_102332" data-name="Trazado 102332" d="M126.22,231.7l-1.44,69.63-44.89-6.4c-1.8-36.41,4.5-55.52,11.24-63.23Z" fill="#263238"/>
      <path id="Trazado_102333" data-name="Trazado 102333" d="M114.44,272.44l-10.69-12.86V249.43Z" opacity="0.2"/>
      <path id="Trazado_102334" data-name="Trazado 102334" d="M91.28,186c-1.34,4-2.63,8.18-3.85,12.27s-2.3,8.26-3.17,12.37a58.96,58.96,0,0,0-1,6.09v.56h0a.65.65,0,0,0,.07.41,5.55,5.55,0,0,0,1.2,1.66A25.541,25.541,0,0,0,89,222.91c1.72,1.1,3.61,2.16,5.43,3.11l-1.28,4a40.739,40.739,0,0,1-6.71-1.89,26.521,26.521,0,0,1-6.53-3.47,12.69,12.69,0,0,1-3.07-3.28,8.44,8.44,0,0,1-1.09-2.66,7.59,7.59,0,0,1-.17-1.59v-1.05c.07-1.18.17-2.36.31-3.5s.31-2.28.48-3.41A132.3,132.3,0,0,1,79.31,196q.85-3.24,1.87-6.43c.67-2.13,1.34-4.22,2.13-6.38Z" fill="#ff8b7b"/>
      <path id="Trazado_102335" data-name="Trazado 102335" d="M117.26,213.67l-5.4-3.99L99.49,228.19,85.4,245.43l5.41,4,12.36-18.52Z" fill="#fafafa"/>
      <path id="Trazado_102336" data-name="Trazado 102336" d="M111.85,209.68a9,9,0,0,0,5.41,4,9,9,0,0,0-5.41-4Z" fill="#e6e6e6"/>
      <path id="Trazado_102337" data-name="Trazado 102337" d="M85.4,245.43a9,9,0,0,0,5.41,4,9,9,0,0,0-5.41-4Z" fill="#e6e6e6"/>
      <path id="Trazado_102338" data-name="Trazado 102338" d="M93.51,225.72l8.91.59-5.83,6.05s-5.12-1.38-5.9-4.72Z" fill="#ff8b7b"/>
      <path id="Trazado_102339" data-name="Trazado 102339" d="M105.31,231l-2.51,3.54a1.54,1.54,0,0,1-2,.45l-5.46-3.06,7.1-5.61,2.71,2.68a1.55,1.55,0,0,1,.16,2Z" fill="#ff8b7b"/>
      <path id="Trazado_102340" data-name="Trazado 102340" d="M94.11,184.38c-.63-3.87-3.52-6.15-7.23-7.41-5.46,3.95-8.13,17-11.15,32.22a2,2,0,0,0,1.16,2.18c2.39,1,4.43,2,5.8,2.64a1.93,1.93,0,0,0,2.66-1l9.76-24.22Z" fill="#263238"/>
      <path id="Trazado_102341" data-name="Trazado 102341" d="M134.12,414.61a11.5,11.5,0,0,0-3.34-1.68h0s-5.92-3.35-9-13.4l-6.84-1.71a1.24,1.24,0,0,0-1.53,1.05c-.07.54-.11,1.16-.18,1.66a27.44,27.44,0,0,0,0,3.27c.06,3.39.44,11,.44,11h.8a57.351,57.351,0,0,1,.42-6.933c.39-2.237,2,.413,2.86,2.943s4.45,5.24,9.62,5.36C133.42,416.35,135.88,416.08,134.12,414.61Z" fill="#263238"/>
    </g>
  </g>
</svg>
