<svg xmlns="http://www.w3.org/2000/svg" xmlns:xlink="http://www.w3.org/1999/xlink" width="516" height="354.187" viewBox="0 0 516 354.187">
  <defs>
    <clipPath id="clip-path">
      <path id="Trazado_101508" data-name="Trazado 101508" d="M-1515.2-1061.869a64.384,64.384,0,0,1-64.384,64.383,64.383,64.383,0,0,1-64.383-64.383c0-35.558,28.825-76.886,64.383-76.886S-1515.2-1097.427-1515.2-1061.869Z" transform="translate(1643.968 1138.755)" fill="none"/>
    </clipPath>
  </defs>
  <g id="Grupo_87539" data-name="Grupo 87539" transform="translate(1658.453 1160.754)">
    <g id="Grupo_87483" data-name="Grupo 87483" transform="translate(-1413.693 -1048.995)">
      <g id="Grupo_87476" data-name="Grupo 87476" transform="translate(0 112.777)">
        <path id="Trazado_101384" data-name="Trazado 101384" d="M-1346.6-851.448c-5.093,6.048-9.709,16.075-12.574,17.666s-7.7,2.145-12.261,16.838,18.482,12.681,18.482,12.681,9.854-5.66,13.833-19.333l9.868-8.754Z" transform="translate(1383.928 904.075)" fill="#ffa497"/>
        <path id="Trazado_101385" data-name="Trazado 101385" d="M-1363.58-803.935a36.939,36.939,0,0,0,13.786-9.111c6.35-6.708,7.169-18.642,7.169-18.642l3.042,5.684,6.083-6.5,2.933-.284,2.162,2.381-9.868,8.754c-3.979,13.673-13.834,19.333-13.834,19.333a36.634,36.634,0,0,1-11.728-1.049C-1363.694-803.72-1363.58-803.935-1363.58-803.935Z" transform="translate(1383.075 902.136)" fill="#f45763"/>
        <path id="Trazado_101386" data-name="Trazado 101386" d="M-1309.945-910.178c-7.058,5.16-11.271,8.905-14.781,15.925s-25.506,32.241-26.91,34.49,12.361,26.117,23.38,31.967c0,0,16.635-19.188,26.229-26.442s6.318-32.995,1.872-41.652A67.622,67.622,0,0,0-1309.945-910.178Z" transform="translate(1381.818 910.178)" fill="#0f0140"/>
        <path id="Trazado_101387" data-name="Trazado 101387" d="M-1308.5-860.013v-14.327s1.867-.748,3.324,4.088a13.276,13.276,0,0,1,.277,5.72l10.71-8.055c.443,9.017-1,18.189-6.136,22.07-9.594,7.255-26.229,26.442-26.229,26.442a34.742,34.742,0,0,1-8.767-7.448C-1328.544-838.269-1315.694-851.287-1308.5-860.013Z" transform="translate(1380.112 906.458)" fill="#170c62"/>
        <path id="Trazado_101388" data-name="Trazado 101388" d="M-1382.122-805.106c-1.832.572-3.185,1.447-3.185,3.755s.4,5.969,1.273,7.4,5.4,2.29,5.4,2.29-.3-9.532-1.257-11.283A4.458,4.458,0,0,0-1382.122-805.106Z" transform="translate(1385.307 899.259)" fill="#ffa497"/>
        <path id="Trazado_101389" data-name="Trazado 101389" d="M-1383.958-792.849a6.37,6.37,0,0,1-.623-1.668,3.085,3.085,0,0,0,2.511,1.1l3.432,1.07c.053,1.073.075,1.789.075,1.789S-1383.083-791.417-1383.958-792.849Z" transform="translate(1385.232 898.158)" fill="#f45763"/>
        <path id="Trazado_101390" data-name="Trazado 101390" d="M-1377.428-809c-2.229.238-4.457,1.909-4.457,4.218s-.8,8.754,0,9.788,4.7,3.979,6.048,4.218,3.651-.159,3.337-.875S-1377.428-809-1377.428-809Z" transform="translate(1384.988 899.663)" fill="#ffa497"/>
        <path id="Trazado_101391" data-name="Trazado 101391" d="M-1382.221-795.3c1.69,1.907,6.01,1.736,6.01,1.736a17.234,17.234,0,0,1,2.133,2.679c.142.393.918.911,1.025,1.312a6.094,6.094,0,0,1-2.781.223c-1.326-.234-5.092-3.065-5.99-4.15l-.4-1.8Z" transform="translate(1384.986 898.24)" fill="#f45763"/>
        <path id="Trazado_101392" data-name="Trazado 101392" d="M-1368.533-813.246c-6.837.385-8.11,1.021-8.349,3.807s-.08,10.9.8,12.972,1.353,3.9,2.467,5.013a4.355,4.355,0,0,0,2.781,1.117s3.745-5.495,3.9-10.11S-1368.533-813.246-1368.533-813.246Z" transform="translate(1384.442 900.105)" fill="#ffa497"/>
        <path id="Trazado_101393" data-name="Trazado 101393" d="M-1372.381-794a41.438,41.438,0,0,0,1.213-10.23c.037-2.376,2.24,10.034,1.256,13.44-.49.845-.842,1.362-.842,1.362a4.355,4.355,0,0,1-2.781-1.117c-1.114-1.115-1.592-2.944-2.467-5.013a3.909,3.909,0,0,1-.161-.48C-1375.717-794.881-1374.3-794.119-1372.381-794Z" transform="translate(1384.357 899.199)" fill="#f45763"/>
        <path id="Trazado_101394" data-name="Trazado 101394" d="M-1352.912-799.511c-.43,3.8-5.411,5.173-5.969,7.083s-.159,3.661-1.114,4.138-4.934-1.75-4.775-4.3a4.954,4.954,0,0,1-3.342,2.547c-2.307.4-2.865-1.289-2.467-3.827a32.387,32.387,0,0,0,.239-6.917c-.08-3.023-.8-5.809.557-9.152s3.184-6.287,6.844-5.73,5.889,5.173,7.878,6.765S-1352.434-803.729-1352.912-799.511Z" transform="translate(1383.789 900.363)" fill="#ffa497"/>
        <path id="Trazado_101395" data-name="Trazado 101395" d="M-1364.082-791.735c.223-4.836.476-8.794.476-9.575s-.253-5.913,1.573-6.225c.277-.047,4.29,2.5,4.368,4.212s0,4.8-1.247,5.674S-1364.082-791.735-1364.082-791.735Z" transform="translate(1383.101 899.511)" fill="#f45763"/>
      </g>
      <g id="Grupo_87477" data-name="Grupo 87477" transform="translate(67.847 63.532)">
        <path id="Trazado_101396" data-name="Trazado 101396" d="M-1192.58-902.324c-7.254-9.2-9.749-10.141-17.238-14.508s-35.881-15.445-41.73-16.848-29.445,9.593-37.187,13.1-17.593,6.963-19.271,10.385c-5.619,11.451,5.509,27.68,5.567,61.688.031,17.812,4.09,57.867,4.09,57.867s89.155.166,90.4-1.706,4.368-65.833,5.928-78.937S-1192.58-902.324-1192.58-902.324Z" transform="translate(1309.591 961.878)" fill="#0f0140"/>
        <line id="Línea_151" data-name="Línea 151" x1="1.911" y1="13.221" transform="translate(0 56.395)" fill="none" stroke="#170c62" stroke-miterlimit="10" stroke-width="1"/>
        <path id="Trazado_101397" data-name="Trazado 101397" d="M-1271.827-903.228c-3.445-1.287-11.606.952-13.1,1.47s.877-5.858,1.754-6.647,2.281-2.629,4.972-1.8,4.954,3.913,5.343,4.927A14.413,14.413,0,0,0-1271.827-903.228Z" transform="translate(1307.078 959.447)" fill="#170c62"/>
        <path id="Trazado_101398" data-name="Trazado 101398" d="M-1241.1-897.689c-1.229-.058-8.394-3.354-10.11-4.173s-9.49-1.2-14.71.257c0,0,10.049-6.79,15.9-6.731s8.073,2.165,8.542,4.037A38.838,38.838,0,0,1-1241.1-897.689Z" transform="translate(1305.053 959.231)" fill="#170c62"/>
        <path id="Trazado_101399" data-name="Trazado 101399" d="M-1282.714-799.917c.957-.936,59.181.935,60.352-5.149s1.975-17.148,1.975-17.148c-7.009,3.744-17.185,2.185-17.185,2.185,6.786-2.216,16.614-13.351,17.082-16.627,1.442-10.092-3.95-37.917-3.95-37.917l3.95-7.947,4.622-2.574A64.151,64.151,0,0,1-1199.61-872.7a63.113,63.113,0,0,0-1.157,6.483c-1.471,12.355-4.328,69.906-5.7,78.019-18.034.665-50.725,1.862-72.6,2.613-10.6.025-18.035.012-18.035.012s-.137-5.269-.455-12.824C-1291.452-798.756-1283.307-799.337-1282.714-799.917Z" transform="translate(1308.34 956.816)" fill="#170c62"/>
        <path id="Trazado_101400" data-name="Trazado 101400" d="M-1269.723-904.226c6.282-.758,16.38-6.2,20.359-4.329s4.914,6.669,5.733,7.488,4.329-3.276,4.329-13.338.308-20.366-7.1-21.766-26.6,5.853-30.459,8.779a18.238,18.238,0,0,0-6.552,8.735c-1.053,2.848-3.86,14.314-2.574,14.431s4.914-7.371,7.605-7.6S-1271.423-904.021-1269.723-904.226Z" transform="translate(1307.172 962.143)" fill="#0f0140"/>
        <path id="Trazado_101401" data-name="Trazado 101401" d="M-1272.17-912.323c-1.6-3.8-3.357-7.137-3.3-9.77s.643-4.446,3.568-5.265,4.153.761,4.329,4.738S-1272.17-912.323-1272.17-912.323Z" transform="translate(1306.045 961.23)" fill="#170c62"/>
        <path id="Trazado_101402" data-name="Trazado 101402" d="M-1246.191-920.236c6.117-5.548,6.808-11.749,6.234-13.036s-3.1-2.222-3.1-2.222-.995,4.036-.409,5.031S-1246.191-920.236-1246.191-920.236Z" transform="translate(1303.003 962.054)" fill="#170c62"/>
        <path id="Trazado_101403" data-name="Trazado 101403" d="M-1257.055-904.8c3.739-1.416,9.995-3,12.007-.874a16.508,16.508,0,0,1,3.483,4.813c.975,1.907,1.336,3.686,3.6-1.035s1.705-14.083,1.705-14.083" transform="translate(1304.131 960.025)" fill="none" stroke="#170c62" stroke-miterlimit="10" stroke-width="1"/>
        <path id="Trazado_101404" data-name="Trazado 101404" d="M-1274.51-906.171s-3.043-3.467-4.268-2.734a12.321,12.321,0,0,0-4.622,4.774c-1.92,3.1-4.216,4.616-2.239-3.181" transform="translate(1307.181 959.301)" fill="none" stroke="#170c62" stroke-miterlimit="10" stroke-width="1"/>
        <path id="Trazado_101405" data-name="Trazado 101405" d="M-1272.745-939.082c.014,2.472.112,4.937.369,7.4.631,6.033.013,13.99.489,15.459.532,1.638,3.692,7.488,3.692,7.488s5.616-2.573,7.956-5.382,5.382-2.95,9.477-7.091,6.879-10.718,5.967-16.193c-.117-.7-.836-7.71-.995-14.964s-7.781-12.765-15.034-12.765-11.6,10.765-11.824,18.018C-1272.741-944.139-1272.758-941.344-1272.745-939.082Z" transform="translate(1305.763 965.134)" fill="#ffa497"/>
        <path id="Trazado_101406" data-name="Trazado 101406" d="M-1245.79-952.14c.159,7.254.877,14.262.995,14.964a14.852,14.852,0,0,1-.145,5.289c-1.6.3-22.265.795-27.617-1.7-.122-1.753-.178-3.509-.188-5.269-.013-2.262,0-5.057.1-8.033a27.316,27.316,0,0,1,2.418-10.028l16.994-6.023C-1249.064-960.714-1245.891-956.789-1245.79-952.14Z" transform="translate(1305.763 964.906)" fill="#f45763"/>
      </g>
      <g id="Grupo_87479" data-name="Grupo 87479" transform="translate(65.499 0)">
        <path id="Trazado_101407" data-name="Trazado 101407" d="M-1288.7-984.6c-10.977,0-15.085,8.432-15.085,14.751,0,5.671,1.818,14.751,15.085,14.751,6.634,0,11.124-6.605,11.124-14.751S-1282.063-984.6-1288.7-984.6Z" transform="translate(1311.336 1030.689)" fill="#524786"/>
        <path id="Trazado_101408" data-name="Trazado 101408" d="M-1288.809-980.566c-8.289,0-11.391,6.367-11.391,11.139,0,4.282,1.373,11.139,11.391,11.139,5.009,0,8.4-4.988,8.4-11.139S-1283.8-980.566-1288.809-980.566Z" transform="translate(1310.964 1030.27)" fill="#38295c"/>
        <path id="Trazado_101409" data-name="Trazado 101409" d="M-1302.458-982.972c.649,3.846,2.552,5.316,3.4,10.5s-1.417,12.719,1.965,19.282,8.851,15.19,12.01,15.555,28.466-3.911,37-20.889c2.451-4.874,7.688-23.986,3.206-35.657s-11.773-22.364-28.625-22.688S-1305.894-1003.356-1302.458-982.972Z" transform="translate(1311.248 1034.043)" fill="#ffa497"/>
        <path id="Trazado_101410" data-name="Trazado 101410" d="M-1286.884-955.9a2.971,2.971,0,0,0,2.333-.912,2.39,2.39,0,0,0,.436-1.834,5.427,5.427,0,0,1-4.554.989C-1288.87-956.445-1287.937-955.922-1286.884-955.9Z" transform="translate(1309.768 1027.991)" fill="#f45763"/>
        <path id="Trazado_101411" data-name="Trazado 101411" d="M-1259.517-984.963a11.3,11.3,0,0,0-3.315-6.31s-6.441-2.673-11.423-3.16a65.566,65.566,0,0,1-10.086-1.945s1.58,4,4.254,5.707c0,0-11.91-.6-15.677-4.127,0,0,.729,2.905,1.458,4.855,0,0-5.833-.6-7.656-2.91a39.4,39.4,0,0,0-1.458,7.89s-7.008-9.591-5.225-17.206,4.213-10.532,4.213-10.532a38.7,38.7,0,0,1-7.778,0s6.481-5.671,11.343-9.4,19.444-3.889,19.444-3.889-1.134-3.889.162-10.046c0,0,6.238,9.155,12.841,11.95s5.713,2.557,12.714,4.325,13.656,6.247,16.451,10.015,5.833,7.655,7.656,8.264c0,0-4.375-.608-6.563-2.431,0,0,3.648,8.285-1.174,18.948s-16.9,7.507-19.241,5.154A4.583,4.583,0,0,1-1259.517-984.963Z" transform="translate(1312.212 1036.034)" fill="#d16452"/>
        <path id="Trazado_101412" data-name="Trazado 101412" d="M-1252.981-978.2a4.583,4.583,0,0,1-.938-5.154,11.4,11.4,0,0,0-2.352-5.262,71.069,71.069,0,0,0-2.074-31.968,36.692,36.692,0,0,0,5.533,1.747,59.956,59.956,0,0,1,7.316,15.876c2.119,7.058,3.146,14.682,1.168,21.781a23.808,23.808,0,0,1-2.182,5.258C-1249.508-976.176-1252.037-977.255-1252.981-978.2Z" transform="translate(1306.614 1034.429)" fill="#994234"/>
        <path id="Trazado_101413" data-name="Trazado 101413" d="M-1250.2-987.543s.833-26.653-13.142-35.159a18.225,18.225,0,0,1,17.013,9.6c6.2,10.815,5.779,20.092,5.622,25.291S-1250.2-987.543-1250.2-987.543Z" transform="translate(1307.134 1034.653)" fill="#524786"/>
        <path id="Trazado_101414" data-name="Trazado 101414" d="M-1245.213-984.6c10.977,0,15.084,8.432,15.084,14.751,0,5.671-1.818,14.751-15.084,14.751-6.634,0-11.124-6.605-11.124-14.751S-1251.847-984.6-1245.213-984.6Z" transform="translate(1306.405 1030.689)" fill="#524786"/>
        <path id="Trazado_101415" data-name="Trazado 101415" d="M-1250.527-969.654c0-7.232,4.774-13.1,10.663-13.1s10.339,5.863,10.339,13.1-4.45,13.1-10.339,13.1S-1250.527-962.422-1250.527-969.654Z" transform="translate(1305.802 1030.497)" fill="#38295c"/>
        <ellipse id="Elipse_4754" data-name="Elipse 4754" cx="7.256" cy="8.912" rx="7.256" ry="8.912" transform="translate(60.089 51.931)" fill="#524786"/>
        <g id="Grupo_87478" data-name="Grupo 87478" transform="translate(19.888 75.594)">
          <path id="Trazado_101416" data-name="Trazado 101416" d="M-1276.536-951.673c-2.966,1.633-12.656,2.177-13.315,2.086s.694,7.267,3.067,7.539,7.118-.363,9.1-2.268S-1276.536-951.673-1276.536-951.673Z" transform="translate(1290.017 951.673)" fill="#f45763"/>
          <path id="Trazado_101417" data-name="Trazado 101417" d="M-1277.071-949.476c-.183-.651-.325-1.176-.464-1.685-3.263,1.114-9.687,1.585-11.667,1.633a13.617,13.617,0,0,0,.845,2.958c.063-.041-.015.094.047.054A14.438,14.438,0,0,0-1277.071-949.476Z" transform="translate(1289.932 951.62)" fill="#fff"/>
        </g>
        <path id="Trazado_101418" data-name="Trazado 101418" d="M-1276.431-971.581c0-1.342.661-2.431,1.479-2.431s1.479,1.089,1.479,2.431-.662,2.43-1.479,2.43S-1276.431-970.239-1276.431-971.581Z" transform="translate(1308.494 1029.589)" fill="#471052"/>
        <path id="Trazado_101419" data-name="Trazado 101419" d="M-1295.312-970.316c0-1.342.57-2.43,1.272-2.43s1.271,1.088,1.271,2.43-.569,2.431-1.271,2.431S-1295.312-968.974-1295.312-970.316Z" transform="translate(1310.456 1029.457)" fill="#471052"/>
        <path id="Trazado_101420" data-name="Trazado 101420" d="M-1268.72-982.083a15.432,15.432,0,0,0-3.214-1.261,15.424,15.424,0,0,0-3.464-.52,8.6,8.6,0,0,0-3.549.348,6.522,6.522,0,0,0-2.934,2.051l.087.145c1.22-.132,2.229-.431,3.293-.572,1.041-.157,2.051-.537,3.138-.625a18.826,18.826,0,0,1,6.575.587Z" transform="translate(1309.06 1030.616)" fill="#471052"/>
        <path id="Trazado_101421" data-name="Trazado 101421" d="M-1300.1-978.619a6.642,6.642,0,0,1,1.634-.4,13.636,13.636,0,0,1,1.646-.108,7.231,7.231,0,0,0,1.631.058,4.848,4.848,0,0,0,.829-.23,3.373,3.373,0,0,0,.883-.44l.018-.168a3.185,3.185,0,0,0-1.735-.848,4.125,4.125,0,0,0-1.811.292,8.451,8.451,0,0,0-1.719.642,5.6,5.6,0,0,0-1.479,1.065Z" transform="translate(1310.964 1030.292)" fill="#471052"/>
      </g>
      <g id="Grupo_87482" data-name="Grupo 87482" transform="translate(46.149 120.065)">
        <path id="Trazado_101422" data-name="Trazado 101422" d="M-1286.482-785.368c.007.376-.52.92-1.807.92h-40.581c-4.679,0-5.772-1.851-4.367-4.191s7.332-7.488,22-11.076,22.375,4.8,24.759,8.581A5.936,5.936,0,0,1-1286.482-785.368Z" transform="translate(1333.806 891.501)" fill="#524786"/>
        <path id="Trazado_101423" data-name="Trazado 101423" d="M-1333.581-787.5c.807,2.685,31.771,1.285,31.771,1.285s-3.139-4.241-6.61-4.362-5.159,1.085-9.814,1.885-1.2-1.894-1.2-1.894a15.722,15.722,0,0,1-4.628-1.765s7.671-2.267,10.887-2.793,11.408-.176,12.461,0c.745.124,4.524-2.071,9.092-.969a20.43,20.43,0,0,1,5.145,5.415,5.936,5.936,0,0,1,0,5.766c.007.376-.52.92-1.807.92h-40.581C-1333.067-784.016-1334.371-785.508-1333.581-787.5Z" transform="translate(1333.805 891.069)" fill="#38295c"/>
        <path id="Trazado_101424" data-name="Trazado 101424" d="M-1200.264-814.311s-28.859,4.462-44.5,7.261c-14.818,2.651-27.613,3.8-31.24,3.1s-16.029-5.264-20.007-6.9-11.934-2.574-16.029-1.288-7.449,2.692-9.087,2.692-1.326,2.651.858,3.2a16.378,16.378,0,0,0,4.135.468s-7.411,4.056-8.737,4.446.245,2.807,2.039,2.651c0,0-1.571.936-1.025,1.872s4.446.936,4.446.936-4.758,2.34-.78,3.276,8.736-3.51,10.687-3.9,6.474-.156,8.658,1.482,11.544,9.2,24.337,4.68c0,0,86.826,3.518,95.484,3.518s13.887-7.652,11.111-22.394a111.957,111.957,0,0,0-8.159-25.741l-29.952,2.106Z" transform="translate(1332.929 895.072)" fill="#ffa497"/>
        <g id="Grupo_87480" data-name="Grupo 87480" transform="translate(11.269 86.638)">
          <path id="Trazado_101425" data-name="Trazado 101425" d="M-1307.436-805.051a11.9,11.9,0,0,1,1.755-.308S-1306.422-805.231-1307.436-805.051Z" transform="translate(1319.797 805.359)" fill="#f45763"/>
          <path id="Trazado_101426" data-name="Trazado 101426" d="M-1315.7-802.671a16.378,16.378,0,0,1-4.135-.468,2.6,2.6,0,0,1-1.391-.857c2.429,1.073,5.419.388,7.056,0,1.033-.246,3.571-.709,5.3-1.018A40.645,40.645,0,0,0-1315.7-802.671Z" transform="translate(1321.23 805.323)" fill="#f45763"/>
        </g>
        <g id="Grupo_87481" data-name="Grupo 87481" transform="translate(8.073 92.617)">
          <path id="Trazado_101427" data-name="Trazado 101427" d="M-1314.638-798.5a4.541,4.541,0,0,1,.448-.183Z" transform="translate(1323.741 798.686)" fill="#f45763"/>
          <path id="Trazado_101428" data-name="Trazado 101428" d="M-1324.8-795.808c.029.025.884.78,2.687,0,1.5-.653,5.146-2.15,6.416-2.669-1.6.725-5.928,3.169-7.079,3.588A2.5,2.5,0,0,1-1324.8-795.808Z" transform="translate(1324.797 798.665)" fill="#f45763"/>
        </g>
        <path id="Trazado_101429" data-name="Trazado 101429" d="M-1320.122-792.738c1.326-.39,4.1-2.066,5.791-2.868a11.664,11.664,0,0,1,3.861-.9,8.234,8.234,0,0,0-2.34.9c-1.7.836-6.349,3.727-6.349,3.727a14.353,14.353,0,0,1-3.779-.483A11.086,11.086,0,0,0-1320.122-792.738Z" transform="translate(1332.677 891.076)" fill="#f45763"/>
        <path id="Trazado_101430" data-name="Trazado 101430" d="M-1293.711-790.723c2.457,1.521,9.712,3.51,14.041,2.691a6.6,6.6,0,0,0,5.265-4.446l1.209,3.9s60.217,1.716,72.463,1.165c12.105-.544,30.986-.819,33.452-8.09-.677,8.439-5.248,12.783-11.768,12.783-8.658,0-95.484-3.518-95.484-3.518-12.792,4.524-22.153-3.042-24.337-4.68-1.815-1.361-5.245-1.751-7.471-1.62h0C-1303.018-793.7-1296.168-792.244-1293.711-790.723Z" transform="translate(1330.952 890.972)" fill="#f45763"/>
        <path id="Trazado_101431" data-name="Trazado 101431" d="M-1186.039-812.936s11.282-1.533,13.543-1.767l-1.716-7.021-14.274,2.886Z" transform="translate(1318.704 893.697)" fill="#f45763"/>
        <path id="Trazado_101432" data-name="Trazado 101432" d="M-1158.849-840.934a2.926,2.926,0,0,1-.687,3.158c-5.244,5.119-12.126,12.093-19.206,13.166-7.722,1.169-20.593,1.638-21.294,0s-3.276-22.465-7.956-32.994-7.721-15.912-8.892-22,9.361-20.358,14.04-21.528,15.445-1.872,19.89,2.107,7.722,19.188,12.87,30.654C-1165.931-859.117-1160.71-845.751-1158.849-840.934Z" transform="translate(1321.665 902.045)" fill="#0f0140"/>
        <path id="Trazado_101433" data-name="Trazado 101433" d="M-1187.606-901.326a39,39,0,0,0-15.033.2c-7.243,1.794-12.34,14.275-12.34,14.275" transform="translate(1321.457 902.038)" fill="none" stroke="#170c62" stroke-miterlimit="10" stroke-width="1"/>
        <path id="Trazado_101434" data-name="Trazado 101434" d="M-1160.357-835.661c-.038-3.738-7.934-38.015-14.908-57.12h0c2.965,6.528,5.736,16.957,9.515,25.374,4.154,9.252,9.375,22.619,11.236,27.435a2.924,2.924,0,0,1-.687,3.157c-2.008,1.961-4.259,4.193-6.668,6.262C-1161.688-830.729-1160.321-832.169-1160.357-835.661Z" transform="translate(1317.33 901.082)" fill="#170c62"/>
      </g>
    </g>
    <g id="Grupo_87491" data-name="Grupo 87491" transform="translate(-1587.012 -925.053)">
      <g id="Grupo_87485" data-name="Grupo 87485" transform="translate(0 18.131)">
        <path id="Trazado_101435" data-name="Trazado 101435" d="M-1578.687-872.686a5.524,5.524,0,0,0,.659,3.334,23.946,23.946,0,0,1,2.944,12.218c-.088,2.792-.661,5.648.1,8.336,1.311,4.637,6.205,7.5,7.781,12.059,1.4,4.038.1,9.116,3,12.251a2.713,2.713,0,0,0,2.82.979,3.439,3.439,0,0,0,1.214-1.009c3.328-3.779,6.889-8.371,5.863-13.3-.964-4.63-5.736-7.759-6.64-12.4-.739-3.793,1.2-8.17-.974-11.365-.6-.882-1.458-1.556-2.113-2.4-2.584-3.319-1.627-8.609-4.6-11.579a6.869,6.869,0,0,0-3.511-1.8,5.455,5.455,0,0,0-6.535,4.677Z" transform="translate(1578.727 877.484)" fill="#d25e5a"/>
        <g id="Grupo_87484" data-name="Grupo 87484" transform="translate(5.922 6.193)">
          <path id="Trazado_101436" data-name="Trazado 101436" d="M-1559.008-813.133c.2-2.47.285-4.941.377-7.419-.113-2.469-.245-4.939-.456-7.408s-.488-4.936-.925-7.391a31.429,31.429,0,0,0-2.056-7.221c-1.791-4.531-3.24-9.267-4.7-13.962l-2.123-7.077q-1.308-3.468-2.546-6.962c.361,2.454.923,4.865,1.415,7.291l2.127,7.093c1.472,4.718,2.907,9.427,4.742,14.069a30.24,30.24,0,0,1,1.983,6.974c.427,2.4.7,4.84.911,7.284s.349,4.9.444,7.358Z" transform="translate(1572.047 870.572)" fill="#ffa7a4"/>
          <path id="Trazado_101437" data-name="Trazado 101437" d="M-1572.118-862.591a5.808,5.808,0,0,0,1.5,1.488,8.724,8.724,0,0,0,.944.479,3.61,3.61,0,0,1,.859.594l.112.1.1-.153c.236-.36.522-.695.747-1.059s.447-.733.64-1.114a8.68,8.68,0,0,0,.8-2.465l-.071-.035a8.726,8.726,0,0,0-1.48,2.127c-.186.384-.337.787-.5,1.183s-.247.831-.392,1.237l.212-.052a3.585,3.585,0,0,1-.821-.644,8.689,8.689,0,0,0-.737-.759,5.8,5.8,0,0,0-1.864-.99Z" transform="translate(1572.118 869.968)" fill="#ffa7a4"/>
          <path id="Trazado_101438" data-name="Trazado 101438" d="M-1571.448-853.192c.424.349.862.728,1.32,1.043a10.943,10.943,0,0,0,1.426.888c.508.244,1.048.436,1.536.713a9.474,9.474,0,0,1,1.377.97l.155.125.156-.2a24.728,24.728,0,0,0,1.8-2.791,17.588,17.588,0,0,0,1.3-3.074l-.068-.039a17.587,17.587,0,0,0-1.962,2.7,24.587,24.587,0,0,0-1.46,2.985l.31-.079a10,10,0,0,1-1.479-.809c-.465-.315-.881-.711-1.33-1.054a9.781,9.781,0,0,0-1.452-.858,6.515,6.515,0,0,0-1.616-.6Z" transform="translate(1572.048 869.012)" fill="#ffa7a4"/>
          <path id="Trazado_101439" data-name="Trazado 101439" d="M-1568.1-840.545a7.131,7.131,0,0,0,1.519,1.126,5.786,5.786,0,0,0,1.726.686,4.459,4.459,0,0,1,1.671.8c.5.376.98.791,1.477,1.117l.374.245.279-.418a11.735,11.735,0,0,0,1.073-1.933,10.309,10.309,0,0,0,.692-2.141l-.086-.047a10.287,10.287,0,0,0-1.438,1.731,11.794,11.794,0,0,0-1.057,1.941l.653-.172a11.19,11.19,0,0,0-1.764-.7,5.1,5.1,0,0,1-1.628-.908,5.292,5.292,0,0,0-1.608-.954,6.525,6.525,0,0,0-1.84-.463Z" transform="translate(1571.7 867.51)" fill="#ffa7a4"/>
        </g>
      </g>
      <g id="Grupo_87487" data-name="Grupo 87487" transform="translate(15.563)">
        <path id="Trazado_101440" data-name="Trazado 101440" d="M-1554.031-815.471c1.93-.318,9.167-2.633,8.661-4.523-2.169-8.111-4.339-17.313,3.174-21.281,3.616-1.909,8.153-2.879,10.212-6.411,2.121-3.638.56-8.263-1.343-12.02s-4.194-7.777-3.378-11.909c.854-4.326,4.945-7.518,5.6-11.879.893-5.954-4.889-10.752-10.443-13.076-1.89-.791-3.966-1.467-5.957-.986a7.316,7.316,0,0,0-3.63,2.345c-3.9,4.362-3.742,10.945-2.852,16.73s2.254,11.894.074,17.326c-1.547,3.859-4.86,7.488-3.973,11.55.356,1.626,1.37,3.046,1.756,4.665,1.043,4.367-2.583,8.3-4.246,12.469a15.306,15.306,0,0,0,3.393,16.036,3.393,3.393,0,0,0,2.953.965Z" transform="translate(1561.359 897.718)" fill="#ff7571"/>
        <g id="Grupo_87486" data-name="Grupo 87486" transform="translate(6.629 9.402)">
          <path id="Trazado_101441" data-name="Trazado 101441" d="M-1553.946-814.292c.447-3.211.894-6.411,1.467-9.586.136-.795.3-1.584.43-2.378s.193-1.6.324-2.39c.24-1.59.507-3.174.811-4.749a62.314,62.314,0,0,1,2.421-9.258,19.239,19.239,0,0,1,2.024-4.186,5.736,5.736,0,0,1,1.463-1.549,7.684,7.684,0,0,0,1.953-1.815,8.021,8.021,0,0,0,1.409-5.038,24.748,24.748,0,0,0-.722-4.941c-.745-3.186-1.681-6.263-2.2-9.4a21.556,21.556,0,0,1,.192-9.3c.254-.729.453-1.472.693-2.215a15.51,15.51,0,0,1,.923-2.163,21.614,21.614,0,0,1,2.7-3.966,18.257,18.257,0,0,0-3.45,3.5,16.538,16.538,0,0,0-1.355,2.111,8.637,8.637,0,0,0-.935,2.347,23,23,0,0,0-.224,9.934c.542,3.251,1.495,6.375,2.219,9.482a23.417,23.417,0,0,1,.685,4.636,6.562,6.562,0,0,1-1.12,4.136,6.23,6.23,0,0,1-1.583,1.465,7.138,7.138,0,0,0-1.861,1.94,20.6,20.6,0,0,0-2.2,4.516,63.729,63.729,0,0,0-2.484,9.485q-.463,2.4-.821,4.809c-.111.8-.262,1.6-.358,2.41s-.118,1.622-.169,2.433C-1553.885-820.776-1554.006-817.533-1553.946-814.292Z" transform="translate(1553.961 887.225)" fill="#ffa7a4"/>
          <path id="Trazado_101442" data-name="Trazado 101442" d="M-1540.49-876.489a4.961,4.961,0,0,0-1.454.863,5.234,5.234,0,0,0-1.137,1.2,7.734,7.734,0,0,1-.967,1.346,11.98,11.98,0,0,1-1.263,1.071l.572.036c-.193-.416-.43-.8-.649-1.2a12.1,12.1,0,0,0-.718-1.155c-.251-.375-.537-.729-.809-1.091s-.584-.694-.833-1.077l-.1.016a3.808,3.808,0,0,0,.286,1.418,9.439,9.439,0,0,0,.587,1.271,8.7,8.7,0,0,0,.758,1.158,12.758,12.758,0,0,0,.874,1.077l.358.376.214-.341a9.638,9.638,0,0,1,.941-1.352,6.591,6.591,0,0,1,1.276-1.042,6.346,6.346,0,0,0,1.16-1.14,10.119,10.119,0,0,0,.962-1.349Z" transform="translate(1553.326 886.111)" fill="#ffa7a4"/>
          <path id="Trazado_101443" data-name="Trazado 101443" d="M-1547.467-862.894a7.919,7.919,0,0,0,.864,1.528,11.1,11.1,0,0,0,1.106,1.328c.419.4.9.737,1.344,1.1a8.012,8.012,0,0,1,1.178,1.254l.111.147.159-.126a13.283,13.283,0,0,0,1.509-1.384c.436-.5.9-.97,1.307-1.489s.791-1.05,1.154-1.6.7-1.121,1.077-1.656l-.056-.081a6.927,6.927,0,0,0-1.635,1.22,15.232,15.232,0,0,0-1.358,1.459c-.423.508-.782,1.066-1.175,1.594s-.707,1.16-1.072,1.614l.27.021a7.154,7.154,0,0,1-1.189-1.236c-.335-.47-.636-.969-.99-1.419a14.945,14.945,0,0,0-1.184-1.235,13.015,13.015,0,0,0-1.344-1.1Z" transform="translate(1553.286 884.798)" fill="#ffa7a4"/>
          <path id="Trazado_101444" data-name="Trazado 101444" d="M-1534.621-852.407c-.609.716-1.24,1.375-1.887,2s-1.344,1.183-2.021,1.789a6.572,6.572,0,0,1-2.359,1.371,8.688,8.688,0,0,1-2.711.3l.4.283a18.122,18.122,0,0,0-.643-2.194,12.176,12.176,0,0,0-.933-2.091,10.182,10.182,0,0,0-1.337-1.89,4.993,4.993,0,0,0-1.879-1.355l-.049.084a7.328,7.328,0,0,1,1.356,1.7,21.065,21.065,0,0,1,1.014,1.918l.9,1.993c.3.669.558,1.364.818,2.04l.126.326.277-.043a15.645,15.645,0,0,0,2.755-.787,27.917,27.917,0,0,0,2.643-1.085,6.907,6.907,0,0,0,2.222-1.825,7.1,7.1,0,0,0,1.392-2.5Z" transform="translate(1553.346 883.792)" fill="#ffa7a4"/>
          <path id="Trazado_101445" data-name="Trazado 101445" d="M-1552.585-844.1a5.486,5.486,0,0,0-.377,2.252,7.346,7.346,0,0,0,.421,2.26,8.082,8.082,0,0,0,1.159,1.972l1.35,1.795.1.128.156-.111a19.843,19.843,0,0,1,2.355-1.326c.791-.426,1.611-.788,2.432-1.138s1.638-.711,2.479-1.027c.835-.342,1.7-.616,2.567-.944l-.015-.1a12.927,12.927,0,0,0-5.453,1.108,17.1,17.1,0,0,0-2.447,1.363,16.422,16.422,0,0,0-2.153,1.79l.252.017a6.258,6.258,0,0,1-1.246-1.78,15.327,15.327,0,0,1-.706-2.03,16.039,16.039,0,0,1-.774-4.21Z" transform="translate(1553.858 882.744)" fill="#ffa7a4"/>
        </g>
      </g>
      <g id="Grupo_87490" data-name="Grupo 87490" transform="translate(2.617 68.576)">
        <g id="Grupo_87489" data-name="Grupo 87489">
          <g id="Grupo_87488" data-name="Grupo 87488">
            <path id="Trazado_101446" data-name="Trazado 101446" d="M-1568.654-786.589h20.66a4.151,4.151,0,0,0,3.836-3.9l3.271-25.414c.358-2.78-1.461-5.285-3.836-5.285h-27.2c-2.376,0-4.195,2.5-3.836,5.285l3.27,25.414A4.153,4.153,0,0,0-1568.654-786.589Z" transform="translate(1575.807 821.189)" fill="#524786"/>
          </g>
        </g>
        <path id="Trazado_101447" data-name="Trazado 101447" d="M-1571.925-821.189h13.906c-2.376,0-4.194,2.5-3.837,5.285l3.271,25.414a4.151,4.151,0,0,0,3.836,3.9h-13.905a4.153,4.153,0,0,1-3.837-3.9l-3.27-25.414C-1576.12-818.684-1574.3-821.189-1571.925-821.189Z" transform="translate(1575.807 821.189)" fill="#38295c"/>
      </g>
    </g>
    <g id="Grupo_87498" data-name="Grupo 87498" transform="translate(-1551.554 -975.72)">
      <g id="Grupo_87492" data-name="Grupo 87492" transform="translate(71.393 146.856)">
        <path id="Trazado_101448" data-name="Trazado 101448" d="M-1371.5-790.364h-86.409a1.575,1.575,0,0,0-1.576,1.575v3.828a1.575,1.575,0,0,0,1.576,1.575h86.409Z" transform="translate(1459.483 790.372)" fill="#261b41"/>
        <path id="Trazado_101449" data-name="Trazado 101449" d="M-1339.215-785.551v1.557a.608.608,0,0,1-.608.608h-21.767a1.226,1.226,0,0,1-1.227-1.226v-4.535a1.226,1.226,0,0,1,1.365-1.218l21.7,4.209A.61.61,0,0,1-1339.215-785.551Z" transform="translate(1449.437 790.373)" fill="#524786"/>
      </g>
      <g id="Grupo_87497" data-name="Grupo 87497">
        <g id="Grupo_87495" data-name="Grupo 87495">
          <path id="Trazado_101450" data-name="Trazado 101450" d="M-1530.781-954.261h161.5a7.748,7.748,0,0,1,7.29,5.124l35.319,98.083c1.477,5.059-2.223,8.849-8.171,9.49-.911.1-5.25-1.851-12.062-5.056h-144.379a7.749,7.749,0,0,1-7.291-5.124l-31.9-88.6c-5.4-2.816-8.47-4.425-8.47-4.425S-1540.95-954.261-1530.781-954.261Z" transform="translate(1539.151 954.261)" fill="#524786"/>
          <path id="Trazado_101451" data-name="Trazado 101451" d="M-1374.345-948.619h-161.5a3.311,3.311,0,0,0-3.116,4.434l35.319,98.084a7.749,7.749,0,0,0,7.29,5.123h161.5a3.311,3.311,0,0,0,3.116-4.434l-35.319-98.083A7.749,7.749,0,0,0-1374.345-948.619Z" transform="translate(1539.156 953.675)" fill="#38295c"/>
          <path id="Trazado_101452" data-name="Trazado 101452" d="M-1399.9-831.578l-7.169-26.589-27.17,26.589Z" transform="translate(1528.253 944.275)" fill="#261b41"/>
          <path id="Trazado_101453" data-name="Trazado 101453" d="M-1439.807-910.891c.71,4.385,3.547,6.152,6.945,6.152a5.237,5.237,0,0,0,5.359-6.152,7.4,7.4,0,0,0-6.945-6.153A5.259,5.259,0,0,0-1439.807-910.891Z" transform="translate(1528.839 950.393)" fill="#524786"/>
          <g id="Grupo_87493" data-name="Grupo 87493" transform="translate(146.362 90.608)">
            <path id="Trazado_101454" data-name="Trazado 101454" d="M-1355.34-847.378l-2.077-5.767h2.61l2.077,5.767Z" transform="translate(1373.907 853.145)" fill="#261b41"/>
            <path id="Trazado_101455" data-name="Trazado 101455" d="M-1361.474-847.378l-2.077-5.767h2.61l2.077,5.767Z" transform="translate(1374.545 853.145)" fill="#261b41"/>
            <path id="Trazado_101456" data-name="Trazado 101456" d="M-1367.609-847.378l-2.077-5.767h2.61l2.077,5.767Z" transform="translate(1375.182 853.145)" fill="#261b41"/>
            <path id="Trazado_101457" data-name="Trazado 101457" d="M-1373.743-847.378l-2.077-5.767h2.61l2.077,5.767Z" transform="translate(1375.82 853.145)" fill="#261b41"/>
          </g>
          <g id="Grupo_87494" data-name="Grupo 87494" transform="translate(51.791 90.608)">
            <path id="Trazado_101458" data-name="Trazado 101458" d="M-1460.879-847.378l-2.077-5.767h2.61l2.077,5.767Z" transform="translate(1479.446 853.145)" fill="#261b41"/>
            <path id="Trazado_101459" data-name="Trazado 101459" d="M-1467.013-847.378l-2.077-5.767h2.61l2.077,5.767Z" transform="translate(1480.083 853.145)" fill="#261b41"/>
            <path id="Trazado_101460" data-name="Trazado 101460" d="M-1473.147-847.378l-2.077-5.767h2.61l2.077,5.767Z" transform="translate(1480.721 853.145)" fill="#261b41"/>
            <path id="Trazado_101461" data-name="Trazado 101461" d="M-1479.282-847.378l-2.077-5.767h2.61l2.077,5.767Z" transform="translate(1481.359 853.145)" fill="#261b41"/>
          </g>
        </g>
        <g id="Grupo_87496" data-name="Grupo 87496" transform="translate(68.481 76.98)">
          <path id="Trazado_101462" data-name="Trazado 101462" d="M-1456.894-800.918c1.594-4.583,20.919-66.941,20.919-66.941h24.807l1.639,8.685s-16.633,53.674-18.226,58.257q-.183.524-.346,1.051h0c-1.458,4.48,2.388,4.461,6.719,4.461h43.75v3.967h-72.888C-1459.284-791.439-1458.488-796.335-1456.894-800.918Z" transform="translate(1462.23 868.302)" fill="#38295c"/>
          <path id="Trazado_101463" data-name="Trazado 101463" d="M-1411.67-867.859s-19.325,62.359-20.919,66.941-2.391,9.479,6.375,9.479h-29.139c-8.766,0-7.97-4.9-6.376-9.479s20.919-66.941,20.919-66.941Z" transform="translate(1462.733 868.302)" fill="#524786"/>
          <path id="Trazado_101464" data-name="Trazado 101464" d="M-1416.29-867.91c-1.922-.088-3.844-.133-5.766-.2s-3.844-.08-5.765-.123-3.844-.086-5.766-.087l-5.765-.036-.322,0-.1.312c-.8,2.512-1.6,5.027-2.35,7.553l-2.3,7.569c-1.479,5.063-2.961,10.124-4.313,15.226,1.776-4.97,3.422-9.981,5.071-14.99l2.393-7.54c.809-2.509,1.581-5.031,2.341-7.556l-.42.31,5.765-.035c1.922,0,3.844-.057,5.766-.088s3.843-.056,5.765-.123S-1418.212-867.822-1416.29-867.91Z" transform="translate(1461.278 868.353)" fill="#8375d4"/>
        </g>
      </g>
    </g>
    <g id="Grupo_87499" data-name="Grupo 87499" transform="translate(-1614.741 -821.877)">
      <path id="Trazado_101465" data-name="Trazado 101465" d="M-1602.017-767.267h427.737a7.654,7.654,0,0,0,7.654-7.654h0a7.655,7.655,0,0,0-7.654-7.655h-427.737a7.655,7.655,0,0,0-7.654,7.655h0A7.654,7.654,0,0,0-1602.017-767.267Z" transform="translate(1609.671 782.576)" fill="#a04f58"/>
      <path id="Trazado_101466" data-name="Trazado 101466" d="M-1602.017-766.379h427.737a7.654,7.654,0,0,0,7.654-7.654h-443.046A7.654,7.654,0,0,0-1602.017-766.379Z" transform="translate(1609.671 781.688)" fill="#713349"/>
    </g>
    <g id="Grupo_87510" data-name="Grupo 87510" transform="translate(-1658.453 -1141.519)">
      <circle id="Elipse_4755" data-name="Elipse 4755" cx="64.383" cy="64.383" r="64.383" transform="translate(0 125.378) rotate(-76.825)" fill="#3e2ea6"/>
      <g id="Grupo_87509" data-name="Grupo 87509" transform="translate(12.98 0.477)">
        <g id="Grupo_87508" data-name="Grupo 87508" clip-path="url(#clip-path)">
          <g id="Grupo_87507" data-name="Grupo 87507" transform="translate(-17.922 5.906)">
            <g id="Grupo_87506" data-name="Grupo 87506">
              <g id="Grupo_87500" data-name="Grupo 87500" transform="translate(92.338 29.476)">
                <path id="Trazado_101467" data-name="Trazado 101467" d="M-1475.823-995.811c1.223,6.144-4.464,11.6-6.245,12.628s-13.731,5.8-20.911,5.972-16.653-15.016-12.775-16.722,30.293-3.583,33.193-3.583A20.7,20.7,0,0,1-1475.823-995.811Z" transform="translate(1556.322 1088.695)" fill="#ffc5c7"/>
                <path id="Trazado_101468" data-name="Trazado 101468" d="M-1497.423-1001.844c-3.133,18.428-10.574,32.761-12.9,33.018s-24.63-7.423-30.781-10.239,1.889-46.066,5.717-45.3,12.219,9.071,19.148,13.055S-1497.423-1001.844-1497.423-1001.844Z" transform="translate(1559.095 1091.486)" fill="#fff"/>
                <path id="Trazado_101469" data-name="Trazado 101469" d="M-1533.5-990.681c2.151,3.688,19.879,13.036,29.642,16.445-2.413,5.441-4.687,8.79-5.794,8.912-1.988.219-18.627-5.379-27.23-8.76A131.452,131.452,0,0,1-1533.5-990.681Z" transform="translate(1558.423 1087.984)" fill="#d5edff"/>
                <path id="Trazado_101470" data-name="Trazado 101470" d="M-1479.48-1005.651c.176,7.311-6.411,8.36-14.293,6.484s-20.754-19.623-26.484-27.643-16.421-22.311-18.631-23.59-7.281-1.959-11.618-9.169,1.368-22.312,3.418-24.1,19.616,4.19,21.657,7.214-1.445,19.276-.827,21.324,15.569,18.77,22.1,22.865S-1479.608-1010.94-1479.48-1005.651Z" transform="translate(1560.005 1097.682)" fill="#ffc5c7"/>
                <path id="Trazado_101471" data-name="Trazado 101471" d="M-1536.7-1070.745c-2.066-1.023-2.566-5.673-1.266-4.854s3.573.8,6.649.759a26.035,26.035,0,0,0,4.338-.307,26.68,26.68,0,0,1,.3,3.665S-1534.632-1069.721-1536.7-1070.745Z" transform="translate(1558.611 1096.819)" fill="#ff8a8b"/>
                <path id="Trazado_101472" data-name="Trazado 101472" d="M-1551.771-1069.466c1.253-2.329,2.22-4.1,2.22-4.1l12.084,11.632a76.212,76.212,0,0,1,7.347-5.481l1.064,1.9a38.342,38.342,0,0,0-3.7,12.01s-1.855,2.047-2.892,2.218c0,0,12.929,20.476,21.24,30.544,8.262,10.008,13.921,18.664,17.816,21.447-7.859-4.531-18.578-19.306-23.668-26.431-5.729-8.02-16.421-22.31-18.631-23.59s-7.281-1.959-11.618-9.169C-1552.228-1061.345-1552.356-1065.445-1551.771-1069.466Z" transform="translate(1560.004 1096.597)" fill="#ff8a8b"/>
                <path id="Trazado_101473" data-name="Trazado 101473" d="M-1527.386-1070.969c-.147,1.193-12.155,11.6-13.412,12.8a1.794,1.794,0,0,1-1.29,0c-3.194-2.806-17.139-28.13-17.388-29.044-.233-.852,9.025-9.563,11.852-11.894a2.5,2.5,0,0,1,2.232.26C-1542.542-1094.626-1527.2-1072.511-1527.386-1070.969Z" transform="translate(1560.773 1099.269)" fill="#050233"/>
                <path id="Trazado_101474" data-name="Trazado 101474" d="M-1528.827-1070.958c-.146,1.193-12.156,11.6-13.412,12.8s-18.41-28.056-18.68-29.044c-.232-.852,10.074-9.421,12.9-11.752a.794.794,0,0,1,1.182.118C-1543.982-1094.615-1528.638-1072.5-1528.827-1070.958Z" transform="translate(1560.922 1099.258)" fill="#211e87"/>
                <path id="Trazado_101475" data-name="Trazado 101475" d="M-1530.843-1072.657c-.137,1.116-11.371,10.855-12.547,11.973s-17.223-26.247-17.474-27.172c-.218-.8,9.425-8.814,12.069-10.994a.742.742,0,0,1,1.106.11C-1545.02-1094.788-1530.666-1074.1-1530.843-1072.657Z" transform="translate(1560.917 1099.246)" fill="#00b0f9"/>
                <path id="Trazado_101476" data-name="Trazado 101476" d="M-1535.913-1086.558c-1.859-1.121-4.143-4.918-4.348-6.2s-.079-2.432.921-2.688,4.078,3.755,5.612,4.949,3.4,3.669,2.641,5.333-4.17,1.023-4.535.767S-1535.913-1086.558-1535.913-1086.558Z" transform="translate(1558.784 1098.873)" fill="#ffc5c7"/>
                <path id="Trazado_101477" data-name="Trazado 101477" d="M-1539.915-1095.066c-.591,1.455,3.252,7.294,6.62,8.974l-1.253,1.432s-.567-.125-1.3-.3a10.245,10.245,0,0,1-.067-1.559c-1.859-1.121-4.143-4.918-4.348-6.2A2.855,2.855,0,0,1-1539.915-1095.066Z" transform="translate(1558.783 1098.832)" fill="#ff8a8b"/>
                <path id="Trazado_101478" data-name="Trazado 101478" d="M-1531.62-1079.657c-3.2-1.709-5.71-1.517-7.45-2.221s-2.057-3.391-.872-3.839,8.395.7,10.254,1.536,2.747,4.664,2.747,4.664Z" transform="translate(1558.815 1097.871)" fill="#ffc5c7"/>
                <path id="Trazado_101479" data-name="Trazado 101479" d="M-1533.009-1081.4a4.1,4.1,0,0,0,2.432,0c-.052.707.616,1.06,1.367,2.065l-2.4-.072c-3.2-1.709-5.71-1.517-7.45-2.221a2.593,2.593,0,0,1-1.47-1.8C-1539.752-1081.958-1534.809-1081.743-1533.009-1081.4Z" transform="translate(1558.803 1097.623)" fill="#ff8a8b"/>
                <path id="Trazado_101480" data-name="Trazado 101480" d="M-1524.005-1075.934c-1.708,2.362-10.08,1.339-11.767,1.083s-2.747-1.322-2.575-2.4c.348-2.168,11.412-1.783,12.325-1.442S-1524.005-1075.934-1524.005-1075.934Z" transform="translate(1558.578 1097.158)" fill="#ffc5c7"/>
                <path id="Trazado_101481" data-name="Trazado 101481" d="M-1538.278-1076.468c1.143,1.137,3.893,1.785,6.9,2.027a28.077,28.077,0,0,0,4.437.079,34.5,34.5,0,0,1-8.818-.231A2.784,2.784,0,0,1-1538.278-1076.468Z" transform="translate(1558.569 1096.9)" fill="#ff8a8b"/>
              </g>
              <g id="Grupo_87501" data-name="Grupo 87501" transform="translate(32.367 61.514)">
                <path id="Trazado_101482" data-name="Trazado 101482" d="M-1572.485-1039.364c17.77,9.044,20.686,8.694,28.319,12.8s5.361,47.267,4.876,53.922-2.323,33.1-1.309,40.27,4.964,33.785,6.713,37.88,5.086,11.007-.075,15.1-16.081,6.911-39.79,5.375-49.266-16.125-50.4-18.172,11.333-39.672,11.855-46.839A96.307,96.307,0,0,1-1609.6-954.9c.754-3.328-6.788-18.94-7.993-28.923s-12.051-37.519-9.994-42.563,20.946-10.664,33.808-17.078S-1572.485-1039.364-1572.485-1039.364Z" transform="translate(1627.848 1061.648)" fill="#fff"/>
                <path id="Trazado_101483" data-name="Trazado 101483" d="M-1551.517-1026.157a49.539,49.539,0,0,1-16.809,24.464,75.3,75.3,0,0,1-27.289-12.609,114.391,114.391,0,0,0,28.695,15.669A42.119,42.119,0,0,0-1551.517-1026.157Z" transform="translate(1624.498 1059.634)" fill="#d5edff"/>
                <path id="Trazado_101484" data-name="Trazado 101484" d="M-1556.239-1032.748c-3.412-1.455-7.8-3.464-13.99-6.616,0,0-8.434-10.515-21.3-4.1-4.463,2.225-9.651,4.355-14.61,6.4a64.25,64.25,0,0,0,34.408,28.082A45.39,45.39,0,0,0-1556.239-1032.748Z" transform="translate(1625.591 1061.648)" fill="#ffc5c7"/>
                <path id="Trazado_101485" data-name="Trazado 101485" d="M-1623.727-886.491c-1.13-2.047,11.333-39.672,11.855-46.839a96.318,96.318,0,0,1,2.691-15.869c.754-3.328-6.788-18.94-7.993-28.923a53.857,53.857,0,0,0-1.387-6.592l8.012-5.968c4.7,13.107,7.63,36.142,12.084,41.773s15.547,7.935,15.547,7.935-10.958,2.559-15.736,1.535c0,0-5.1,20.22-5.159,30.2s.869,25.083.987,27.13c.044.765-.125,3.43-.353,6.469C-1614.663-880.182-1623.088-885.335-1623.727-886.491Z" transform="translate(1627.427 1055.947)" fill="#d5edff"/>
                <path id="Trazado_101486" data-name="Trazado 101486" d="M-1587.956-1063.516c-.183,10.681-.888,18.018-3.255,20.066,0,0,4.07,17.724,20.32,16.21,5.5-.512,4.974-9.726,2.213-13.992l1.635-13.1Z" transform="translate(1624.04 1063.516)" fill="#ffc5c7"/>
                <path id="Trazado_101487" data-name="Trazado 101487" d="M-1589.83-1045.332h0c1.391-3.276,1.872-9.661,2.018-18.184l20.914,9.184-1.049,8.4h0C-1571.654-1044.268-1589.83-1045.332-1589.83-1045.332Z" transform="translate(1623.897 1063.516)" fill="#ff8a8b"/>
              </g>
              <g id="Grupo_87502" data-name="Grupo 87502" transform="translate(0 96.594)">
                <path id="Trazado_101488" data-name="Trazado 101488" d="M-1652.661-967.116c-3.6,4.948-8.421,17.234-6.612,22.865s20.458,30.714,28.99,40.1,10.467,10.92,11.95,13.992,8.751,15.74,10.659,17.661,5.345,2.176,5.345,2.176a9.09,9.09,0,0,0,7.49,2.3s4.286,2.944,7.686,3.712c0,0,1.122,2.173,2.259,2.367s2.585-2.111.489-6.718-5.541-6.526-6.093-9.47-3.218-8.948-3.218-8.948,5.982,6.133,9.665,6.516,4.178-1.791,2.157-3.583a46.785,46.785,0,0,1-7.077-7.934,14.068,14.068,0,0,0-10.156-6.4c-4.689-.64-7.979-1.152-9.194-2.047s-7.344-9.6-11.534-18.983-7.942-21.378-18.59-31.908l4.691-8.19Z" transform="translate(1663.522 1018.418)" fill="#ffc5c7"/>
                <path id="Trazado_101489" data-name="Trazado 101489" d="M-1579.957-854.575a19.7,19.7,0,0,0-4.412-6.779l-.727-.716c-.216-.223-.595-.5-.678-.636-.366-.468-.685-1.083-1.038-1.64-.675-1.151-1.332-2.324-2.079-3.453a28.446,28.446,0,0,0,1.369,3.849,11.627,11.627,0,0,0,.952,1.859,7.709,7.709,0,0,0,.75.765l.685.707c.921.945,1.794,1.938,2.675,2.927S-1580.77-855.655-1579.957-854.575Z" transform="translate(1656.167 1008.097)" fill="#ff8a8b"/>
                <path id="Trazado_101490" data-name="Trazado 101490" d="M-1588.065-858.406c-.7-1.378-1.541-2.573-2.288-3.829-.781-1.239-1.475-2.481-2.186-3.85a7.945,7.945,0,0,0,1.3,4.43A10.137,10.137,0,0,0-1588.065-858.406Z" transform="translate(1656.546 1007.919)" fill="#ff8a8b"/>
                <path id="Trazado_101491" data-name="Trazado 101491" d="M-1593.25-858.124a8.381,8.381,0,0,1-3.545-1.963s-3.437-.256-5.345-2.176a49.794,49.794,0,0,1-4.266-6.358c.039.047,2.183,2.376,3.725,4.3a5.205,5.205,0,0,0,5.288,1.813l-.418-2.5S-1595.738-859.34-1593.25-858.124Z" transform="translate(1657.987 1008.182)" fill="#ff8a8b"/>
                <path id="Trazado_101492" data-name="Trazado 101492" d="M-1659.352-948.581c.1,2.334.129,4.192,3.592,10.319,3.9,6.9,27.329,35.961,32.442,41.336s4.959,5.716,7.984,14.208c-1.365-2.4-2.505-4.494-3-5.516-1.483-3.072-3.418-4.608-11.95-13.992s-27.182-34.468-28.99-40.1A13.984,13.984,0,0,1-1659.352-948.581Z" transform="translate(1663.521 1016.492)" fill="#ff8a8b"/>
                <path id="Trazado_101493" data-name="Trazado 101493" d="M-1639.042-956.135l-1.9,3.173a10.861,10.861,0,0,1,4.444,2.634l3.714-6.3Z" transform="translate(1661.576 1017.328)" fill="#ff8a8b"/>
                <path id="Trazado_101494" data-name="Trazado 101494" d="M-1618.98-980.525c4.893-9.62,6.852-25.242,2.435-33.465s-12.753-11.182-14.8-10.2-7.583,13.813-12.783,19.733-19.4,22.529-19.831,23.927,10.264,12.68,30.377,20.967C-1631.184-958.571-1618.98-980.525-1618.98-980.525Z" transform="translate(1663.969 1024.368)" fill="#fff"/>
                <path id="Trazado_101495" data-name="Trazado 101495" d="M-1631.473-969.562l-3.209,6.58s15.807-15.846,22.37-27.671a47.589,47.589,0,0,1-4.241,13.632s-12.2,21.954-14.6,20.967c-3.442-1.419-6.585-2.926-9.467-4.454Z" transform="translate(1661.542 1020.864)" fill="#d5edff"/>
              </g>
              <g id="Grupo_87505" data-name="Grupo 87505" transform="translate(47.408)">
                <path id="Trazado_101496" data-name="Trazado 101496" d="M-1567.9-1069.693c-1.087-4.4-1.064-8.906-1.326-13.408-.2-3.367-.367-6.449-3.423-8.463a11.309,11.309,0,0,0-7.661-1.427c-7.061.9-8.58,7.776-8.039,14.292.414,4.987,2.362,9.775,4.3,14.362-2.6-.115-6.143-1.476-7.693-3.637a15.407,15.407,0,0,0,4.077,7.469c-7.525-.13-14.51-5.054-18.5-11.667s-5.249-14.688-4.824-22.471c.5-9.237,3.384-18.495,9.1-25.607,11.491-14.3,33.63-15.972,47.111-3.679a33.886,33.886,0,0,1,9.679,16.033,53.342,53.342,0,0,1,.442,24.909,85.767,85.767,0,0,0-1.375,9.7c-.1,1.05-1.377,13.242-.641,13.2-4.754.289-10.214-.671-13.435-4.3,1.443,2.5,2.689,4.9,4.133,7.4C-1561.979-1058-1566.39-1063.593-1567.9-1069.693Z" transform="translate(1611.063 1132.164)" fill="#38295c"/>
                <path id="Trazado_101497" data-name="Trazado 101497" d="M-1591.3-1084.335c-2.124-1.255-4.676-1.936-6.645.061-2.9,2.944,1.22,16.637,7.478,13.309,0,0,9.059,12.67,15.71,16.253s11.387,1.792,13.877-.768,10.982-13.058,12.51-24.187c.545-3.968-.038-11.773.083-13.437.373-5.118,2.312-9.322-1.726-13.339a23.375,23.375,0,0,0-15.48-6.717,25,25,0,0,0-19.28,8.434C-1590.073-1098.722-1590.991-1091.943-1591.3-1084.335Z" transform="translate(1609.798 1130.19)" fill="#ffc5c7"/>
                <path id="Trazado_101498" data-name="Trazado 101498" d="M-1596.688-1077.011c.541-2.509,2.681-3,4.272-1.255,1.632,1.792,1.906,7.467,1.487,8.3s-3.222.777-3.753-.955,1.1-2.818,2.677-2.306a5.934,5.934,0,0,0-.848-4.156c-1.288-1.629-2.63-1.005-2.959-.587A12.9,12.9,0,0,1-1596.688-1077.011Z" transform="translate(1609.569 1126.67)" fill="#ff8a8b"/>
                <g id="Grupo_87504" data-name="Grupo 87504" transform="translate(30.202 33.546)">
                  <path id="Trazado_101499" data-name="Trazado 101499" d="M-1577.359-1089.56a21.9,21.9,0,0,1,1.922-1.585,13.421,13.421,0,0,1,2.171-1.288,7.122,7.122,0,0,1,2.405-.81,5.043,5.043,0,0,1,2.444.323l-.011.115a12.1,12.1,0,0,1-1.183.38l-1.128.312c-.734.216-1.495.282-2.238.53a16.419,16.419,0,0,0-2.187.922c-.724.353-1.424.772-2.131,1.192Z" transform="translate(1577.359 1094.575)" fill="#471052"/>
                  <path id="Trazado_101500" data-name="Trazado 101500" d="M-1546.835-1092.584a8.248,8.248,0,0,0-2.166-.787,11.748,11.748,0,0,0-2.288-.272c-.775-.016-1.545.142-2.31.137a22.525,22.525,0,0,1-2.394-.059l-.024-.11a5.911,5.911,0,0,1,2.384-.972,7.169,7.169,0,0,1,2.491.091,9.821,9.821,0,0,1,2.353.639,7.381,7.381,0,0,1,2.025,1.239Z" transform="translate(1575.141 1094.727)" fill="#471052"/>
                  <path id="Trazado_101501" data-name="Trazado 101501" d="M-1569.15-1084.323c-.029-1.082-.573-1.909-1.217-1.846s-1.143.993-1.115,2.075.574,1.909,1.218,1.846S-1569.121-1083.241-1569.15-1084.323Z" transform="translate(1576.748 1093.838)" fill="#471052"/>
                  <path id="Trazado_101502" data-name="Trazado 101502" d="M-1550.022-1085.851c-.029-1.083-.479-1.918-1-1.866s-.931.971-.9,2.054.479,1.918,1,1.866S-1549.994-1084.768-1550.022-1085.851Z" transform="translate(1574.717 1093.999)" fill="#471052"/>
                  <path id="Trazado_101503" data-name="Trazado 101503" d="M-1562.905-1072.372a4.833,4.833,0,0,0,5.28-.055,2.44,2.44,0,0,1-1.367,1.943,3.257,3.257,0,0,1-2.454-.133C-1562.193-1070.958-1562.433-1071.708-1562.905-1072.372Z" transform="translate(1575.857 1092.409)" fill="#ff8a8b"/>
                  <g id="Grupo_87503" data-name="Grupo 87503" transform="translate(7.02 25.389)">
                    <path id="Trazado_101504" data-name="Trazado 101504" d="M-1569.525-1065.394a147.7,147.7,0,0,0,14.952-1c-1.1,3.617-4,7.189-8.038,7.191C-1566.25-1059.2-1568.653-1062.19-1569.525-1065.394Z" transform="translate(1569.525 1066.393)" fill="#e21926"/>
                    <path id="Trazado_101505" data-name="Trazado 101505" d="M-1565.869-1059.777a6.394,6.394,0,0,1,3.444-.033,5.525,5.525,0,0,1,4.632-.453,7,7,0,0,1-4.438,1.667A6.129,6.129,0,0,1-1565.869-1059.777Z" transform="translate(1569.145 1065.786)" fill="#ff8384"/>
                    <path id="Trazado_101506" data-name="Trazado 101506" d="M-1556.825-1063.351a17.446,17.446,0,0,1-10.963-.425c-.022-.534-.064-1.072-.1-1.61,3.529-.074,9.24-.5,12.3-.843A10.213,10.213,0,0,1-1556.825-1063.351Z" transform="translate(1569.355 1066.376)" fill="#fff"/>
                  </g>
                </g>
                <path id="Trazado_101507" data-name="Trazado 101507" d="M-1587.43-1097.305a49.832,49.832,0,0,0,16.981-3.77c1.024-2.368,1.059-4.47,1.212-7.046a20.432,20.432,0,0,1,2.483,8.742c3.392-.219,6.8-.4,10.189-.622a21.141,21.141,0,0,0,.915-8.3,35.963,35.963,0,0,1,2.112,8.921c2.047-.728,4.641.334,6.779.717,2.65-5.9,2.477-16.6-3.128-21.075-5.46-4.36-14.944-5.547-21.615-4.582-14.193,2.055-25.348,13.84-24.467,28.521.5,8.377,4.7,16.3,10.73,22.137A33.96,33.96,0,0,1-1587.43-1097.305Z" transform="translate(1609.5 1131.381)" fill="#38295c"/>
              </g>
            </g>
          </g>
        </g>
      </g>
    </g>
    <g id="Grupo_87512" data-name="Grupo 87512" transform="translate(-1498.473 -1105.531)">
      <circle id="Elipse_4756" data-name="Elipse 4756" cx="37.441" cy="37.441" r="37.441" transform="matrix(0.252, -0.968, 0.968, 0.252, 0, 72.473)" fill="#fcecdf"/>
      <g id="Grupo_87511" data-name="Grupo 87511" transform="translate(24.113 30.997)">
        <rect id="Rectángulo_33918" data-name="Rectángulo 33918" width="43.082" height="29.314" rx="3.426" transform="translate(43.082 29.314) rotate(180)" fill="#fff"/>
        <path id="Trazado_101509" data-name="Trazado 101509" d="M-1449.939-1033.748H-1413a3.07,3.07,0,0,0,3.071-3.07l-21.542-13.546-21.541,13.546A3.07,3.07,0,0,0-1449.939-1033.748Z" transform="translate(1453.009 1063.062)" fill="#f6f6f6"/>
        <path id="Trazado_101510" data-name="Trazado 101510" d="M-1449.939-1064.534H-1413a3.07,3.07,0,0,1,3.071,3.07l-21.542,13.546-21.541-13.546A3.07,3.07,0,0,1-1449.939-1064.534Z" transform="translate(1453.009 1064.534)" fill="#ef6c00"/>
      </g>
    </g>
    <g id="Grupo_87516" data-name="Grupo 87516" transform="translate(-1232.303 -1050.924)">
      <circle id="Elipse_4757" data-name="Elipse 4757" cx="37.44" cy="37.44" r="37.44" transform="translate(0 16.901) rotate(-13.045)" fill="#fcecdf"/>
      <g id="Grupo_87515" data-name="Grupo 87515" transform="translate(20.691 22.794)">
        <g id="Grupo_87513" data-name="Grupo 87513">
          <path id="Trazado_101511" data-name="Trazado 101511" d="M-1125.054-997.94h-3.765a13.394,13.394,0,0,0-1.712-4.126l2.664-2.664a.929.929,0,0,0,0-1.315l-2.96-2.961a.93.93,0,0,0-1.316,0l-2.664,2.664a13.386,13.386,0,0,0-4.126-1.712v-3.764a.93.93,0,0,0-.93-.93h-4.187a.93.93,0,0,0-.93.93v3.764a13.385,13.385,0,0,0-4.125,1.712l-2.664-2.664a.93.93,0,0,0-1.316,0l-2.96,2.961a.929.929,0,0,0,0,1.315l2.664,2.664a13.4,13.4,0,0,0-1.712,4.126h-3.764a.931.931,0,0,0-.93.931v4.186a.931.931,0,0,0,.93.93h3.764a13.391,13.391,0,0,0,1.712,4.125l-2.664,2.665a.929.929,0,0,0,0,1.315l2.96,2.961a.932.932,0,0,0,1.316,0l2.664-2.664a13.386,13.386,0,0,0,4.125,1.712v3.763a.931.931,0,0,0,.93.931h4.187a.931.931,0,0,0,.93-.931v-3.763a13.387,13.387,0,0,0,4.126-1.712l2.664,2.664a.932.932,0,0,0,1.316,0l2.96-2.961a.929.929,0,0,0,0-1.315l-2.664-2.665a13.385,13.385,0,0,0,1.712-4.125h3.765a.93.93,0,0,0,.93-.93v-4.186A.931.931,0,0,0-1125.054-997.94Zm-16.9,8.8a5.777,5.777,0,0,1-5.776-5.777,5.776,5.776,0,0,1,5.776-5.777,5.777,5.777,0,0,1,5.777,5.777A5.777,5.777,0,0,1-1141.957-989.139Z" transform="translate(1159.789 1012.749)" fill="#fff"/>
          <path id="Trazado_101512" data-name="Trazado 101512" d="M-1140.822-1001.822a8.042,8.042,0,0,0-8.041,8.041,8.042,8.042,0,0,0,8.041,8.041,8.042,8.042,0,0,0,8.042-8.041A8.042,8.042,0,0,0-1140.822-1001.822Zm0,12.952a4.91,4.91,0,0,1-4.91-4.911,4.91,4.91,0,0,1,4.91-4.91,4.91,4.91,0,0,1,4.911,4.91A4.911,4.911,0,0,1-1140.822-988.87Z" transform="translate(1158.653 1011.613)" fill="#ef6c00"/>
        </g>
        <g id="Grupo_87514" data-name="Grupo 87514" transform="translate(33.068 23.734)">
          <path id="Trazado_101513" data-name="Trazado 101513" d="M-1105.141-978.7h-1.923a6.85,6.85,0,0,0-.875-2.108l1.36-1.361a.474.474,0,0,0,0-.672l-1.512-1.513a.477.477,0,0,0-.673,0l-1.36,1.361a6.85,6.85,0,0,0-2.108-.875v-1.923a.475.475,0,0,0-.476-.475h-2.139a.475.475,0,0,0-.475.475v1.923a6.831,6.831,0,0,0-2.108.875l-1.361-1.361a.475.475,0,0,0-.672,0l-1.513,1.513a.475.475,0,0,0,0,.672l1.361,1.361a6.87,6.87,0,0,0-.875,2.108h-1.922a.476.476,0,0,0-.476.476v2.139a.475.475,0,0,0,.476.475h1.922a6.85,6.85,0,0,0,.875,2.108l-1.361,1.361a.475.475,0,0,0,0,.672l1.513,1.513a.476.476,0,0,0,.672,0l1.361-1.361a6.829,6.829,0,0,0,2.108.875v1.923a.475.475,0,0,0,.475.476h2.139a.476.476,0,0,0,.476-.476v-1.923a6.848,6.848,0,0,0,2.108-.875l1.36,1.361a.477.477,0,0,0,.673,0l1.512-1.513a.474.474,0,0,0,0-.672l-1.36-1.361a6.831,6.831,0,0,0,.875-2.108h1.923a.475.475,0,0,0,.475-.475v-2.139A.475.475,0,0,0-1105.141-978.7Zm-8.635,4.5a2.951,2.951,0,0,1-2.952-2.951,2.951,2.951,0,0,1,2.952-2.951,2.95,2.95,0,0,1,2.951,2.951A2.95,2.95,0,0,1-1113.776-974.2Z" transform="translate(1122.886 986.262)" fill="#fff"/>
          <path id="Trazado_101514" data-name="Trazado 101514" d="M-1113.2-980.68a4.108,4.108,0,0,0-4.108,4.108,4.109,4.109,0,0,0,4.108,4.109,4.108,4.108,0,0,0,4.108-4.109A4.107,4.107,0,0,0-1113.2-980.68Zm0,6.616a2.509,2.509,0,0,1-2.509-2.508,2.509,2.509,0,0,1,2.509-2.508,2.508,2.508,0,0,1,2.508,2.508A2.508,2.508,0,0,1-1113.2-974.064Z" transform="translate(1122.306 985.682)" fill="#ef6c00"/>
        </g>
      </g>
    </g>
    <g id="Grupo_87536" data-name="Grupo 87536" transform="translate(-1404.992 -1160.754)">
      <circle id="Elipse_4758" data-name="Elipse 4758" cx="37.44" cy="37.44" r="37.44" transform="translate(0 27.939) rotate(-21.908)" fill="#fcecdf"/>
      <g id="Grupo_87535" data-name="Grupo 87535" transform="translate(27.165 29.465)">
        <path id="Rectángulo_33919" data-name="Rectángulo 33919" d="M3.3,0H39.779a3.3,3.3,0,0,1,3.3,3.3V33.535a3.3,3.3,0,0,1-3.3,3.3H3.3a3.3,3.3,0,0,1-3.3-3.3V3.3A3.3,3.3,0,0,1,3.3,0Z" transform="translate(43.082 38.482) rotate(180)" fill="#fff"/>
        <path id="Trazado_101515" data-name="Trazado 101515" d="M-1345.281-1118.328h43.083v-4.749a2.961,2.961,0,0,0-2.961-2.961h-37.162a2.961,2.961,0,0,0-2.96,2.961Z" transform="translate(1345.281 1127.681)" fill="#ef6c00"/>
        <g id="Grupo_87522" data-name="Grupo 87522" transform="translate(6.92)">
          <g id="Grupo_87521" data-name="Grupo 87521">
            <g id="Grupo_87518" data-name="Grupo 87518" transform="translate(24.998)">
              <g id="Grupo_87517" data-name="Grupo 87517">
                <path id="Trazado_101516" data-name="Trazado 101516" d="M-1308.788-1124.584h0a.874.874,0,0,0,.874-.874V-1127a.874.874,0,0,0-.874-.874h0a.873.873,0,0,0-.874.874v1.54A.874.874,0,0,0-1308.788-1124.584Z" transform="translate(1309.662 1127.872)" fill="#fff"/>
                <path id="Trazado_101517" data-name="Trazado 101517" d="M-1306-1124.584h0a.874.874,0,0,0,.874-.874V-1127a.873.873,0,0,0-.874-.874h0a.874.874,0,0,0-.874.874v1.54A.874.874,0,0,0-1306-1124.584Z" transform="translate(1309.372 1127.872)" fill="#fff"/>
              </g>
            </g>
            <g id="Grupo_87520" data-name="Grupo 87520">
              <g id="Grupo_87519" data-name="Grupo 87519">
                <path id="Trazado_101518" data-name="Trazado 101518" d="M-1336.685-1124.584h0a.874.874,0,0,0,.874-.874V-1127a.873.873,0,0,0-.874-.874h0a.874.874,0,0,0-.874.874v1.54A.874.874,0,0,0-1336.685-1124.584Z" transform="translate(1337.559 1127.872)" fill="#fff"/>
                <path id="Trazado_101519" data-name="Trazado 101519" d="M-1333.9-1124.584h0a.874.874,0,0,0,.874-.874V-1127a.874.874,0,0,0-.874-.874h0a.873.873,0,0,0-.874.874v1.54A.874.874,0,0,0-1333.9-1124.584Z" transform="translate(1337.269 1127.872)" fill="#fff"/>
              </g>
            </g>
          </g>
        </g>
        <g id="Grupo_87534" data-name="Grupo 87534" transform="translate(5.788 13.937)">
          <g id="Grupo_87533" data-name="Grupo 87533">
            <g id="Grupo_87523" data-name="Grupo 87523" transform="translate(17.761)">
              <rect id="Rectángulo_33920" data-name="Rectángulo 33920" width="3.732" height="3.732" rx="0.793" fill="#d5e9ff"/>
            </g>
            <g id="Grupo_87524" data-name="Grupo 87524" transform="translate(8.881)">
              <rect id="Rectángulo_33921" data-name="Rectángulo 33921" width="3.732" height="3.732" rx="0.793" fill="#d5e9ff"/>
            </g>
            <g id="Grupo_87525" data-name="Grupo 87525">
              <rect id="Rectángulo_33922" data-name="Rectángulo 33922" width="3.732" height="3.732" rx="0.793" fill="#d5e9ff"/>
            </g>
            <g id="Grupo_87526" data-name="Grupo 87526" transform="translate(26.642 7.647)">
              <rect id="Rectángulo_33923" data-name="Rectángulo 33923" width="3.732" height="3.732" rx="0.793" fill="#d5e9ff"/>
            </g>
            <g id="Grupo_87527" data-name="Grupo 87527" transform="translate(17.761 7.647)">
              <rect id="Rectángulo_33924" data-name="Rectángulo 33924" width="3.732" height="3.732" rx="0.793" fill="#d5e9ff"/>
            </g>
            <g id="Grupo_87528" data-name="Grupo 87528" transform="translate(8.881 7.647)">
              <rect id="Rectángulo_33925" data-name="Rectángulo 33925" width="3.732" height="3.732" rx="0.793" fill="#d5e9ff"/>
            </g>
            <g id="Grupo_87529" data-name="Grupo 87529" transform="translate(0 7.647)">
              <rect id="Rectángulo_33926" data-name="Rectángulo 33926" width="3.732" height="3.732" rx="0.793" fill="#d5e9ff"/>
            </g>
            <g id="Grupo_87530" data-name="Grupo 87530" transform="translate(26.642 15.294)">
              <rect id="Rectángulo_33927" data-name="Rectángulo 33927" width="3.732" height="3.732" rx="0.793" fill="#d5e9ff"/>
            </g>
            <g id="Grupo_87531" data-name="Grupo 87531" transform="translate(17.761 15.294)">
              <rect id="Rectángulo_33928" data-name="Rectángulo 33928" width="3.732" height="3.732" rx="0.793" fill="#d5e9ff"/>
            </g>
            <g id="Grupo_87532" data-name="Grupo 87532" transform="translate(8.881 15.294)">
              <rect id="Rectángulo_33929" data-name="Rectángulo 33929" width="3.732" height="3.732" rx="0.793" fill="#d5e9ff"/>
            </g>
          </g>
        </g>
      </g>
    </g>
    <g id="Grupo_87538" data-name="Grupo 87538" transform="translate(-1302.054 -1145.756)">
      <circle id="Elipse_4759" data-name="Elipse 4759" cx="37.44" cy="37.44" r="37.44" transform="translate(0 52.949) rotate(-45)" fill="#fcecdf"/>
      <g id="Grupo_87537" data-name="Grupo 87537" transform="translate(16.683 16.682)">
        <circle id="Elipse_4760" data-name="Elipse 4760" cx="25.644" cy="25.644" r="25.644" transform="translate(0 36.266) rotate(-45)" fill="#fff"/>
        <path id="Trazado_101520" data-name="Trazado 101520" d="M-1204.605-1113.545a25.644,25.644,0,0,0-25.644,25.644,25.644,25.644,0,0,0,25.644,25.645,25.644,25.644,0,0,0,25.644-25.645A25.644,25.644,0,0,0-1204.605-1113.545Zm2.151,47.493v-3.5a1.179,1.179,0,0,0-1.179-1.179h-1.943a1.18,1.18,0,0,0-1.179,1.179v3.5a21.959,21.959,0,0,1-19.7-19.7h3.5a1.18,1.18,0,0,0,1.179-1.179v-1.942a1.18,1.18,0,0,0-1.179-1.179h-3.5a21.958,21.958,0,0,1,19.7-19.7v3.5a1.18,1.18,0,0,0,1.179,1.179h1.943a1.179,1.179,0,0,0,1.179-1.179v-3.5a21.959,21.959,0,0,1,19.7,19.7h-3.5a1.179,1.179,0,0,0-1.178,1.179v1.942a1.179,1.179,0,0,0,1.178,1.179h3.5A21.959,21.959,0,0,1-1202.454-1066.052Z" transform="translate(1240.871 1124.167)" fill="#ef6c00"/>
        <text id="_24_7" data-name="24/7" transform="translate(36.808 41.041)" fill="#d5c8da" font-size="17" font-family="BebasKai, Bebas Kai"><tspan x="-12.691" y="0">24/7</tspan></text>
      </g>
    </g>
  </g>
</svg>
