<svg xmlns="http://www.w3.org/2000/svg" width="49.313" height="43.285" viewBox="0 0 49.313 43.285">
  <path id="_3" data-name="3" d="M1852.208,204.677c0-3.567-1.53-6.507-3.5-6.927-.923-11.387-10.038-20.329-21.153-20.329s-20.23,8.942-21.153,20.329c-1.974.419-3.5,3.36-3.5,6.927,0,3.841,1.773,6.957,3.965,6.979a3.951,3.951,0,0,0,7.368-1.989v-9.98a3.97,3.97,0,0,0-3.554-3.936,17.131,17.131,0,0,1,33.755,0,3.97,3.97,0,0,0-3.554,3.936v9.98a3.917,3.917,0,0,0,.218,1.281,22.083,22.083,0,0,1-9.881,5.424,7.058,7.058,0,0,0-3.661-.911c-2.672,0-4.838,1.174-4.838,2.622s2.166,2.622,4.838,2.622c2.33,0,4.274-.893,4.734-2.082a24.42,24.42,0,0,0,10.306-5.7,3.936,3.936,0,0,0,5.651-1.265C1850.435,211.634,1852.208,208.518,1852.208,204.677Z" transform="translate(-1802.895 -177.421)" fill="#dad6f7"/>
</svg>
