<svg xmlns="http://www.w3.org/2000/svg" width="46.364" height="45.883" viewBox="0 0 46.364 45.883">
  <g id="_20" data-name="20" transform="translate(-1007.288 -2642.562)">
    <path id="Trazado_101526" data-name="Trazado 101526" d="M1045.8,2677.549a19.4,19.4,0,0,0-22.217-31.783,1.391,1.391,0,1,0,1.534,2.321,16.613,16.613,0,0,1,18.447,27.635c-1.452-1.179-2.671-2.154-2.8-2.223a2.121,2.121,0,0,0-.987-.237c-2.523-.084-3.8,3.682-6.324,3.76a4.111,4.111,0,0,1-2.821-1.4s-2.717-2.686-5.272-5.25-5.25-5.272-5.25-5.272a4.113,4.113,0,0,1-1.4-2.821c.078-2.523,3.844-3.8,3.76-6.324a2.127,2.127,0,0,0-.237-.987c-.175-.324-6.26-7.768-6.577-8.045s-1.038-.012-1.516.2a11.691,11.691,0,0,0-5.979,15.105c1.159,2.81,3.352,5.044,5.492,7.2l6.3,6.349,6.349,6.3c2.158,2.141,4.393,4.333,7.2,5.492a11.69,11.69,0,0,0,15.1-5.979c.217-.478.483-1.2.2-1.516C1048.7,2679.946,1047.355,2678.827,1045.8,2677.549Z" transform="translate(0 0)" fill="#dad6f7"/>
    <path id="Trazado_101527" data-name="Trazado 101527" d="M1229.652,2780.528c-1.042,0-1.57.559-1.57,1.662v4.793h5.841a.736.736,0,0,0,0-1.47h-4.452V2782h3.591a1.413,1.413,0,0,0,1.125-.412,1.6,1.6,0,0,0,.43-1.309v-3.014a1.6,1.6,0,0,0-.43-1.309,1.413,1.413,0,0,0-1.125-.412h-4.285a.736.736,0,0,0,0,1.47h4.452v3.514Z" transform="translate(-200.32 -120.65)" fill="#dad6f7"/>
    <path id="Trazado_101528" data-name="Trazado 101528" d="M1321.243,2775.543a.67.67,0,0,0-.735.735v6.97h4.323v3a.735.735,0,0,0,1.47,0v-3a.735.735,0,0,0,0-1.471v-3.012a.735.735,0,0,0-1.47,0v3.012h-2.853v-5.5A.67.67,0,0,0,1321.243,2775.543Z" transform="translate(-284.176 -120.65)" fill="#dad6f7"/>
  </g>
</svg>
