<svg xmlns="http://www.w3.org/2000/svg" xmlns:xlink="http://www.w3.org/1999/xlink" width="727.5" height="560.447" viewBox="0 0 727.5 560.447">
  <defs>
    <filter id="Trazado_102666" x="276.073" y="388.47" width="201.469" height="171.978" filterUnits="userSpaceOnUse">
      <feOffset dy="3" input="SourceAlpha"/>
      <feGaussianBlur stdDeviation="3" result="blur"/>
      <feFlood flood-opacity="0.161"/>
      <feComposite operator="in" in2="blur"/>
      <feComposite in="SourceGraphic"/>
    </filter>
    <filter id="Trazado_102667" x="388.47" y="276.074" width="171.978" height="201.467" filterUnits="userSpaceOnUse">
      <feOffset dy="3" input="SourceAlpha"/>
      <feGaussianBlur stdDeviation="3" result="blur-2"/>
      <feFlood flood-opacity="0.161"/>
      <feComposite operator="in" in2="blur-2"/>
      <feComposite in="SourceGraphic"/>
    </filter>
    <filter id="Trazado_102668" x="82.907" y="0" width="201.371" height="171.977" filterUnits="userSpaceOnUse">
      <feOffset dy="3" input="SourceAlpha"/>
      <feGaussianBlur stdDeviation="3" result="blur-3"/>
      <feFlood flood-opacity="0.161"/>
      <feComposite operator="in" in2="blur-3"/>
      <feComposite in="SourceGraphic"/>
    </filter>
    <filter id="Trazado_102669" x="0.002" y="82.904" width="171.976" height="201.373" filterUnits="userSpaceOnUse">
      <feOffset dy="3" input="SourceAlpha"/>
      <feGaussianBlur stdDeviation="3" result="blur-4"/>
      <feFlood flood-opacity="0.161"/>
      <feComposite operator="in" in2="blur-4"/>
      <feComposite in="SourceGraphic"/>
    </filter>
    <filter id="Trazado_102670" x="82.859" y="388.426" width="201.418" height="172.02" filterUnits="userSpaceOnUse">
      <feOffset dy="3" input="SourceAlpha"/>
      <feGaussianBlur stdDeviation="3" result="blur-5"/>
      <feFlood flood-opacity="0.161"/>
      <feComposite operator="in" in2="blur-5"/>
      <feComposite in="SourceGraphic"/>
    </filter>
    <filter id="Trazado_102671" x="0" y="276.072" width="171.932" height="201.421" filterUnits="userSpaceOnUse">
      <feOffset dy="3" input="SourceAlpha"/>
      <feGaussianBlur stdDeviation="3" result="blur-6"/>
      <feFlood flood-opacity="0.161"/>
      <feComposite operator="in" in2="blur-6"/>
      <feComposite in="SourceGraphic"/>
    </filter>
  </defs>
  <g id="Grupo_87980" data-name="Grupo 87980" transform="translate(-487.5 -8260.687)">
    <g id="Grupo_87969" data-name="Grupo 87969">
      <g id="Grupo_87962" data-name="Grupo 87962" transform="translate(-2762.551 5775.935)">
        <g id="Grupo_87944" data-name="Grupo 87944" transform="translate(3544.271 2511.475)">
          <g id="Grupo_87941" data-name="Grupo 87941">
            <path id="Trazado_102655" data-name="Trazado 102655" d="M3936.844,2771.159a4.567,4.567,0,0,1,4.565,4.568v1.444a4.568,4.568,0,0,1-4.565,4.568h-18.111a4.571,4.571,0,0,1-4.571-4.568v-1.444a4.569,4.569,0,0,1,4.571-4.568Z" transform="translate(-3887.697 -2658.471)" fill="#0f0140"/>
            <path id="Trazado_102656" data-name="Trazado 102656" d="M4246.148,2781.739a4.564,4.564,0,0,1-4.564-4.568v-1.444a4.563,4.563,0,0,1,4.564-4.568h18.114a4.565,4.565,0,0,1,4.565,4.568v1.444a4.566,4.566,0,0,1-4.565,4.568Z" transform="translate(-4059.339 -2658.471)" fill="#0f0140"/>
            <path id="Trazado_102657" data-name="Trazado 102657" d="M4105.966,2612.615a4.56,4.56,0,0,1-4.56,4.565h-1.448a4.56,4.56,0,0,1-4.56-4.565V2594.5a4.562,4.562,0,0,1,4.56-4.566h1.448a4.562,4.562,0,0,1,4.56,4.566Z" transform="translate(-3982.705 -2563.47)" fill="#0f0140"/>
            <path id="Trazado_102658" data-name="Trazado 102658" d="M4095.4,2921.917a4.56,4.56,0,0,1,4.56-4.565h1.448a4.56,4.56,0,0,1,4.56,4.565v18.112a4.561,4.561,0,0,1-4.56,4.564h-1.448a4.56,4.56,0,0,1-4.56-4.564Z" transform="translate(-3982.705 -2735.109)" fill="#0f0140"/>
            <path id="Trazado_102659" data-name="Trazado 102659" d="M4056.528,2733.8a4.566,4.566,0,0,1,0,6.456l-1.026,1.024a4.558,4.558,0,0,1-6.456,0l-59.221-59.218a4.567,4.567,0,0,1,0-6.465l1.019-1.023a4.559,4.559,0,0,1,6.457,0Z" transform="translate(-3926.658 -2607.136)" fill="#0f0140"/>
            <path id="Trazado_102660" data-name="Trazado 102660" d="M4088.6,2758.332a4.553,4.553,0,0,1-6.451,0l-1.021-1.024a4.563,4.563,0,0,1,0-6.458l43.756-43.749a4.56,4.56,0,0,1,6.459,0l1.02,1.023a4.562,4.562,0,0,1,0,6.454Z" transform="translate(-3974.522 -2624.188)" fill="#0f0140"/>
            <g id="Grupo_87940" data-name="Grupo 87940">
              <path id="Trazado_102661" data-name="Trazado 102661" d="M4221.785,2926.458c-.446.817-.915,1.628-1.416,2.429a67.76,67.76,0,0,1-7.453,9.694c-2.766,3.027-5.947,6.243-9.439,9.55l-1.1,1.05h16.692v-12.37l.968-1.582,11.33-18.483A99.018,99.018,0,0,1,4221.785,2926.458Z" transform="translate(-4038.785 -2734.791)" fill="#0f0140"/>
              <path id="Trazado_102662" data-name="Trazado 102662" d="M3976.186,2758.337v-2.72l1.923-1.924,3.251-3.249q-2.41.116-4.846.118a98.217,98.217,0,1,1,90.933-60.94l7.191-11.733,1.92-3.135h15.784a117.984,117.984,0,1,0-116.157,95.5Z" transform="translate(-3858.536 -2534.308)" fill="#0f0140"/>
            </g>
          </g>
        </g>
        <g id="Grupo_87947" data-name="Grupo 87947" transform="translate(3259.051 2490.752)">
          <g id="Grupo_87945" data-name="Grupo 87945">
            <g transform="matrix(1, 0, 0, 1, -9, -6)" filter="url(#Trazado_102666)">
              <path id="Trazado_102666-2" data-name="Trazado 102666" d="M4022.779,3385.247a270.335,270.335,0,0,1-183.468,75.981l0-110.311a160.4,160.4,0,0,0,105.471-43.667Z" transform="translate(-3554.24 -2912.78)" fill="#dad6f7"/>
            </g>
            <g transform="matrix(1, 0, 0, 1, -9, -6)" filter="url(#Trazado_102667)">
              <path id="Trazado_102667-2" data-name="Trazado 102667" d="M4229.529,3071.014a270.337,270.337,0,0,1-75.981,183.467l-78-78a160.4,160.4,0,0,0,43.668-105.469Z" transform="translate(-3678.08 -2788.94)" fill="#dad6f7"/>
            </g>
            <g transform="matrix(1, 0, 0, 1, -9, -6)" filter="url(#Trazado_102668)">
              <path id="Trazado_102668-2" data-name="Trazado 102668" d="M3433.307,2566.729a270.322,270.322,0,0,1,183.371-75.977v110.313a160.411,160.411,0,0,0-105.374,43.663Z" transform="translate(-3341.4 -2484.75)" fill="#dad6f7"/>
            </g>
            <g transform="matrix(1, 0, 0, 1, -9, -6)" filter="url(#Trazado_102669)">
              <path id="Trazado_102669-2" data-name="Trazado 102669" d="M3369.368,2848.377H3259.055A270.327,270.327,0,0,1,3335.032,2665l78,78A160.419,160.419,0,0,0,3369.368,2848.377Z" transform="translate(-3250.05 -2576.1)" fill="#dad6f7"/>
            </g>
            <g transform="matrix(1, 0, 0, 1, -9, -6)" filter="url(#Trazado_102670)">
              <path id="Trazado_102670-2" data-name="Trazado 102670" d="M3616.625,3461.178a270.313,270.313,0,0,1-183.418-76.025l77.995-77.995a160.418,160.418,0,0,0,105.424,43.709Z" transform="translate(-3341.35 -2912.73)" fill="#dad6f7"/>
            </g>
            <g transform="matrix(1, 0, 0, 1, -9, -6)" filter="url(#Trazado_102671)">
              <path id="Trazado_102671-2" data-name="Trazado 102671" d="M3334.984,3254.43a270.338,270.338,0,0,1-75.933-183.42h110.31a160.418,160.418,0,0,0,43.622,105.421Z" transform="translate(-3250.05 -2788.94)" fill="#dad6f7"/>
            </g>
            <path id="Trazado_102672" data-name="Trazado 102672" d="M3928.7,3273.454l16.079,16.079a160.4,160.4,0,0,1-105.471,43.667l0-22.741A137.747,137.747,0,0,0,3928.7,3273.454Z" transform="translate(-3563.237 -2901.064)" fill="#cbc5fd"/>
            <path id="Trazado_102673" data-name="Trazado 102673" d="M4078.76,3071.01l22.741,0a160.4,160.4,0,0,1-43.668,105.47l-16.08-16.082A137.738,137.738,0,0,0,4078.76,3071.01Z" transform="translate(-3669.363 -2794.938)" fill="#cbc5fd"/>
            <path id="Trazado_102674" data-name="Trazado 102674" d="M3613.325,2782.355l-16.081-16.081a160.412,160.412,0,0,1,105.374-43.663l0,22.739A137.725,137.725,0,0,0,3613.325,2782.355Z" transform="translate(-3436.34 -2612.298)" fill="#cbc5fd"/>
            <path id="Trazado_102675" data-name="Trazado 102675" d="M3550.656,2845.021a137.734,137.734,0,0,0-37,89.295h-22.741a160.419,160.419,0,0,1,43.663-105.376Z" transform="translate(-3380.599 -2668.039)" fill="#cbc5fd"/>
            <path id="Trazado_102676" data-name="Trazado 102676" d="M3702.563,3310.4v22.743a160.415,160.415,0,0,1-105.424-43.709l16.081-16.083A137.738,137.738,0,0,0,3702.563,3310.4Z" transform="translate(-3436.285 -2901.011)" fill="#cbc5fd"/>
            <path id="Trazado_102677" data-name="Trazado 102677" d="M3550.606,3160.351l-16.079,16.081a160.417,160.417,0,0,1-43.622-105.421h22.739A137.752,137.752,0,0,0,3550.606,3160.351Z" transform="translate(-3380.595 -2794.938)" fill="#cbc5fd"/>
          </g>
          <g id="Grupo_87946" data-name="Grupo 87946" transform="translate(127.965 127.066)">
            <path id="Trazado_102678" data-name="Trazado 102678" d="M3539.225,3175.566l18.464-23.611-29.677-4.187Z" transform="translate(-3528.012 -2962.242)" fill="#cbc5fd"/>
            <path id="Trazado_102679" data-name="Trazado 102679" d="M3529.688,2936.03l29.75-3.639-18.024-23.943Z" transform="translate(-3528.891 -2836.785)" fill="#cbc5fd"/>
            <path id="Trazado_102680" data-name="Trazado 102680" d="M3683.746,2769.039l23.609,18.464,4.187-29.679Z" transform="translate(-3609.652 -2757.824)" fill="#cbc5fd"/>
            <path id="Trazado_102681" data-name="Trazado 102681" d="M4097.651,3153.332l-29.75,3.639,18.024,23.945Z" transform="translate(-3811.036 -2965.159)" fill="#cbc5fd"/>
            <path id="Trazado_102682" data-name="Trazado 102682" d="M3945.746,3318.015l-23.609-18.462-4.189,29.677Z" transform="translate(-3732.426 -3041.812)" fill="#cbc5fd"/>
            <path id="Trazado_102683" data-name="Trazado 102683" d="M3706.209,3327.474l-3.637-29.75-23.945,18.024Z" transform="translate(-3606.969 -3040.853)" fill="#cbc5fd"/>
          </g>
        </g>
        <g id="Grupo_87950" data-name="Grupo 87950" transform="translate(3456.6 2660.641)">
          <g id="Grupo_87948" data-name="Grupo 87948" transform="translate(0 58.764)">
            <path id="Trazado_102684" data-name="Trazado 102684" d="M3705.828,3013.158a2.863,2.863,0,0,1-2.67,3.04l-4.921.323a2.855,2.855,0,0,1-3.038-2.666l-2.565-39.142a2.855,2.855,0,0,1,2.665-3.038l4.922-.325a2.865,2.865,0,0,1,3.042,2.669Z" transform="translate(-3683.892 -2971.344)" fill="#3c3c3b"/>
            <path id="Trazado_102685" data-name="Trazado 102685" d="M3687.6,2985.533c-7.917.517-13.866,8.059-13.293,16.842s7.461,15.486,15.377,14.967Z" transform="translate(-3674.267 -2978.782)" fill="#3c3c3b"/>
          </g>
          <g id="Grupo_87949" data-name="Grupo 87949" transform="translate(122.291 58.764)">
            <path id="Trazado_102686" data-name="Trazado 102686" d="M3931.308,3013.158a2.86,2.86,0,0,0,2.668,3.04l4.921.323a2.854,2.854,0,0,0,3.038-2.666l2.565-39.142a2.855,2.855,0,0,0-2.663-3.038l-4.922-.325a2.865,2.865,0,0,0-3.042,2.669Z" transform="translate(-3931.302 -2971.344)" fill="#3c3c3b"/>
            <path id="Trazado_102687" data-name="Trazado 102687" d="M3947.1,2985.533c7.914.517,13.867,8.059,13.291,16.842s-7.459,15.486-15.378,14.967Z" transform="translate(-3938.49 -2978.782)" fill="#3c3c3b"/>
          </g>
          <path id="Trazado_102688" data-name="Trazado 102688" d="M3692.227,2928.492s-3.31-21.273-2.067-34.63c4.079-43.875,50.7-45.944,64.535-46.028,16.085-.1,55.576,2.612,62.178,37.784,3.384,18.018.031,42.875.031,42.875" transform="translate(-3682.452 -2847.831)" fill="none" stroke="#3c3c3b" stroke-miterlimit="10" stroke-width="5.171"/>
          <path id="Trazado_102689" data-name="Trazado 102689" d="M3896.661,3037.208s-3.053,32.03-16.335,41.288-39.658,7.214-39.658,7.214" transform="translate(-3761.498 -2947.107)" fill="none" stroke="#3c3c3b" stroke-miterlimit="10" stroke-width="5.171"/>
          <path id="Rectángulo_34030" data-name="Rectángulo 34030" d="M5.254,0h12.28a5.252,5.252,0,0,1,5.252,5.252v.181a5.251,5.251,0,0,1-5.251,5.251H5.249A5.249,5.249,0,0,1,0,5.434v-.18A5.254,5.254,0,0,1,5.254,0Z" transform="translate(72.538 133.139)" fill="#1d1d1b"/>
        </g>
        <g id="Grupo_87961" data-name="Grupo 87961" transform="translate(3451.55 2648.133)">
          <g id="Grupo_87957" data-name="Grupo 87957">
            <g id="Grupo_87956" data-name="Grupo 87956">
              <path id="Trazado_102690" data-name="Trazado 102690" d="M3766.763,2822.033s-49.981-7.532-78.615,36.3c-24.209,37.062-12.662,152.671-12.662,152.671l4.207,15.741a128.447,128.447,0,0,0,22.406,10.874l91.43-.732a128.31,128.31,0,0,0,18.222-8.794l5.084-18.38S3842.317,2842.087,3766.763,2822.033Z" transform="translate(-3668.413 -2821.54)" fill="#ad6714"/>
              <path id="Trazado_102691" data-name="Trazado 102691" d="M3814.259,3155.657c-11.408-7.141-44.732-5.842-48.4-17.525s0-33.749,0-33.749l-22.539-7.7-22.539,7.7s3.668,22.066,0,33.749-36.992,10.384-48.4,17.525c-2.486,1.554-4.885,4.467-7.154,8.154a128.936,128.936,0,0,0,155.928-.42C3818.962,3159.9,3816.649,3157.151,3814.259,3155.657Z" transform="translate(-3664.478 -2965.779)" fill="#fbc69a"/>
              <path id="Trazado_102692" data-name="Trazado 102692" d="M3781.986,3095.8a121.43,121.43,0,0,1,1.554,15.873c4.581,5.218,20.638,5.926,20.853,5.924s16.27-.855,21.131-6.137a118.671,118.671,0,0,1,1.541-15.66l-22.359-15.486Z" transform="translate(-3725.686 -2957.195)" fill="#efad7d"/>
              <g id="Grupo_87952" data-name="Grupo 87952" transform="translate(11.345 6.127)">
                <path id="Trazado_102693" data-name="Trazado 102693" d="M3693.087,2972.755c-7.058,2.054-5.428,12.661-5.428,16.605s5.9,17.924,9.859,19.459c10.031,3.892,10.042-10.734,10.042-10.734v-17.011S3700.157,2970.711,3693.087,2972.755Z" transform="translate(-3687.497 -2906.798)" fill="#f39c58"/>
                <path id="Trazado_102694" data-name="Trazado 102694" d="M3943.158,2972.764c-7.064-2.056-14.476,8.29-14.476,8.29v17.024s-.018,15.081,10.031,10.746c3.889-1.687,9.865-15.518,9.878-19.461S3950.227,2974.812,3943.158,2972.764Z" transform="translate(-3813.932 -2906.801)" fill="#ea9357"/>
                <g id="Grupo_87951" data-name="Grupo 87951" transform="translate(13.666)">
                  <path id="Trazado_102695" data-name="Trazado 102695" d="M3803.737,2845.807c-9.109-7.59-21.547-11.388-33.989-11.388s-24.881,3.8-33.989,11.388c-18.966,15.8-19.539,33.194-19.539,58.482s1.722,32.442,1.722,32.442,4.534,18.647,8.46,23.557,14.742,11.9,27.694,19.372c8.412,4.855,14.991,4.9,15.651,4.817.662.083,7.241.038,15.652-4.817,12.952-7.475,23.77-14.464,27.695-19.372s8.459-23.557,8.459-23.557,1.719-7.15,1.719-32.442S3822.7,2861.611,3803.737,2845.807Z" transform="translate(-3716.221 -2834.419)" fill="#fccca7"/>
                  <path id="Trazado_102696" data-name="Trazado 102696" d="M3862.716,2845.807c-9.109-7.59-21.547-11.388-33.989-11.388v150.058c.662.083,7.241.038,15.652-4.817,12.952-7.475,23.77-14.464,27.695-19.372s8.459-23.557,8.459-23.557,1.719-7.15,1.719-32.442S3881.683,2861.611,3862.716,2845.807Z" transform="translate(-3775.199 -2834.419)" fill="#fbc69a"/>
                </g>
              </g>
              <g id="Grupo_87953" data-name="Grupo 87953" transform="translate(0 176.409)">
                <path id="Trazado_102697" data-name="Trazado 102697" d="M3768.027,3200.027a7.228,7.228,0,0,0,.492-1.174C3768.679,3198.346,3768.438,3198.948,3768.027,3200.027Z" transform="translate(-3718.368 -3195.65)" fill="#575756"/>
                <path id="Trazado_102698" data-name="Trazado 102698" d="M3713.311,3201.522c-5.179,10.011-31.452,1.712-42.586,8.681-2.454,1.535-4.827,4.381-7.073,7.989a128.286,128.286,0,0,0,58.883,25.132l-12.128-33.989S3712.342,3204.069,3713.311,3201.522Z" transform="translate(-3663.652 -3197.145)" fill="#575756"/>
                <path id="Trazado_102699" data-name="Trazado 102699" d="M3923.434,3205.381c-11.545-7.224-37.653-7.676-42.561-12.962-1.26-1.357.739,12.094.739,12.094l-10.222,33.852a128.336,128.336,0,0,0,58.773-25.555C3928.018,3209.464,3925.76,3206.84,3923.434,3205.381Z" transform="translate(-3772.553 -3192.323)" fill="#3c3c3b"/>
              </g>
              <g id="Grupo_87955" data-name="Grupo 87955" transform="translate(10.418 173.065)">
                <g id="Grupo_87954" data-name="Grupo 87954">
                  <path id="Trazado_102700" data-name="Trazado 102700" d="M3780.033,3259.589l-9.3,4.753-9.184-4.746-43.159-.015-.259,4.5a129.249,129.249,0,0,0,105.5-.2l-.18-4.261Z" transform="translate(-3702.626 -3224.237)" fill="#ef6c00"/>
                  <path id="Trazado_102701" data-name="Trazado 102701" d="M3685.548,3203.784l4.617,19.622a128.067,128.067,0,0,0,47.392,15.661l-12.6-46.595Z" transform="translate(-3685.548 -3189.057)" fill="#575756"/>
                  <path id="Trazado_102702" data-name="Trazado 102702" d="M3743.1,3189.748l-7.233,29.787,11.7,11.466-.257,2.165a128.534,128.534,0,0,0,16.724,3.194l-13.273-49.074Z" transform="translate(-3711.924 -3186.338)" fill="#3c3c3b"/>
                  <path id="Trazado_102703" data-name="Trazado 102703" d="M3918.06,3205.155l-43.238-12.63-12.627,46.567a128.047,128.047,0,0,0,49.791-17.06Z" transform="translate(-3778.151 -3189.084)" fill="#3c3c3b"/>
                  <path id="Trazado_102704" data-name="Trazado 102704" d="M3890.161,3218.512l-7.206-29.776-7.657-3.441-13.309,50.02a128.179,128.179,0,0,0,17.492-3.4l-1.017-1.935Z" transform="translate(-3778.042 -3185.294)" fill="#575756"/>
                </g>
              </g>
              <path id="Trazado_102705" data-name="Trazado 102705" d="M3807.594,2845.444s-16.01-16.836-43.036-15.667c-27.06,1.171-49.115,25.251-49.115,25.251l-3.077,6.521c-2.979,1.476-5.519,30.643-5.985,36.1-.729,8.5,5.672,23.077,5.672,23.077a113.023,113.023,0,0,1,9.122-32.151c37.878-7.013,72.977-28.755,72.977-28.755s15.134,27.354,17.029,32.38c2.22,5.891,5.142,27.938,5.142,27.938s5.041-13.1,5.831-22.075c1.769-20.126-10.038-44.555-10.038-44.555Z" transform="translate(-3686.021 -2825.828)" fill="#ad6714"/>
            </g>
          </g>
          <g id="Grupo_87960" data-name="Grupo 87960" transform="translate(4.567 8.63)">
            <path id="Trazado_102706" data-name="Trazado 102706" d="M3691.591,2922.025s-3.38-21.719-2.111-35.356c4.167-44.791,51.762-46.9,65.881-46.986,16.421-.1,56.736,2.665,63.477,38.569,3.455,18.4.035,43.773.035,43.773" transform="translate(-3681.61 -2839.68)" fill="none" stroke="#403f41" stroke-miterlimit="10" stroke-width="5.279"/>
            <path id="Trazado_102707" data-name="Trazado 102707" d="M3900.289,3030.056s-3.115,32.7-16.676,42.152-40.485,7.365-40.485,7.365" transform="translate(-3762.305 -2939.48)" fill="none" stroke="#403f41" stroke-miterlimit="10" stroke-width="5.279"/>
            <path id="Rectángulo_34031" data-name="Rectángulo 34031" d="M5.361,0H17.9a5.358,5.358,0,0,1,5.358,5.358v.188A5.361,5.361,0,0,1,17.9,10.906H5.361A5.361,5.361,0,0,1,0,5.546V5.361A5.361,5.361,0,0,1,5.361,0Z" transform="translate(74.053 134.515)" fill="#1d1d1b"/>
            <g id="Grupo_87958" data-name="Grupo 87958" transform="translate(0 58.587)">
              <path id="Trazado_102708" data-name="Trazado 102708" d="M3705.471,3005.507a2.917,2.917,0,0,1-2.723,3.1l-5.025.33a2.913,2.913,0,0,1-3.1-2.72L3692,2966.26a2.913,2.913,0,0,1,2.72-3.1l5.025-.331a2.918,2.918,0,0,1,3.1,2.723Z" transform="translate(-3683.078 -2962.821)" fill="#3c3c3b"/>
              <path id="Trazado_102709" data-name="Trazado 102709" d="M3686.862,2977.3c-8.08.529-14.156,8.227-13.571,17.195s7.617,15.809,15.7,15.28Z" transform="translate(-3673.252 -2970.413)" fill="#3c3c3b"/>
            </g>
            <g id="Grupo_87959" data-name="Grupo 87959" transform="translate(124.843 58.587)">
              <path id="Trazado_102710" data-name="Trazado 102710" d="M3935.657,3005.507a2.918,2.918,0,0,0,2.723,3.1l5.025.33a2.914,2.914,0,0,0,3.1-2.72l2.62-39.959a2.915,2.915,0,0,0-2.721-3.1l-5.025-.331a2.918,2.918,0,0,0-3.1,2.723Z" transform="translate(-3935.651 -2962.821)" fill="#3c3c3b"/>
              <path id="Trazado_102711" data-name="Trazado 102711" d="M3951.781,2977.3c8.082.529,14.156,8.227,13.57,17.195s-7.616,15.809-15.7,15.28Z" transform="translate(-3942.991 -2970.413)" fill="#3c3c3b"/>
            </g>
          </g>
        </g>
      </g>
      <g id="Grupo_87964" data-name="Grupo 87964" transform="translate(283.256 8225.982)">
        <g id="Grupo_87963" data-name="Grupo 87963" transform="translate(379.744 91.284)">
          <path id="Trazado_102712" data-name="Trazado 102712" d="M434,106.875l6.195,4.281.614.919c.23-.265.58-.8.58-.8-.045-.235-.623-3.15-.8-3.9-1.673-7.146-3.175-7.146-10.394-7.146s-8.722,0-10.4,7.146c-.222.95-.756,3.679-.8,3.9,0,0,.349.533.579.8l.654-1.055.331-.027A47.386,47.386,0,0,0,433.752,107Z" transform="translate(-404.448 -100.225)" fill="#988df7"/>
          <path id="Trazado_102713" data-name="Trazado 102713" d="M437.3,181.279c2.1.02,6.825-4.045,6.825-4.045v-1.268c-2.548,1.747-4.724,3.281-6.826,3.261h-.07c-2.136,0-4.332-1.57-6.926-3.385v1.267s4.79,4.17,6.926,4.17Z" transform="translate(-411.562 -147.812)" fill="#988df7"/>
          <path id="Trazado_102714" data-name="Trazado 102714" d="M429.64,190.863c-1.959-2.6-6.346-4.873-15.488-7.973v1.721c-.01,5.329-4.41,8.116-8.756,8.116h-.009c-4.345,0-8.743-2.8-8.743-8.133v-1.641c-9.018,3.068-13.354,5.32-15.307,7.916-.291.444-.8,1.206-1.591,9.21h51.491C430.448,192.075,429.935,191.313,429.64,190.863Z" transform="translate(-379.744 -152.247)" fill="#988df7"/>
        </g>
        <path id="Trazado_102715" data-name="Trazado 102715" d="M437.32,103.979a4.093,4.093,0,0,0-.9-2.7,4.023,4.023,0,0,1-.895-2.2c-.5-9.157-5.052-13.064-15.219-13.064-12.037,0-14.79,5.223-15.219,13.064a3.868,3.868,0,0,1-.932,2.195,3.727,3.727,0,0,0-.871,2.861c.276,4.879,1.984,6.1,2.5,6.356a1.029,1.029,0,0,0,1,.057.639.639,0,0,0,.281-.5,7.128,7.128,0,0,1-1.254-3.618c-.225-2.564.4-4.485,1.64-5.226.173-.883.529-2.667.708-3.434,1.909-8.154,4.437-8.543,12.14-8.543s10.229.389,12.139,8.543c.145.618.525,2.513.707,3.433,1.245.741,1.865,2.663,1.641,5.227a5.969,5.969,0,0,1-2.411,4.76c-2.64,2.173-4.378,3.189-9.348,3.335a1.763,1.763,0,1,0,.386,1.468c5.354-.217,7.314-1.5,10.144-3.857a12.766,12.766,0,0,0,2.315-2.227c.943-1.267,1.23-3.894,1.439-5.807Z" transform="translate(-14.806)" fill="#988df7"/>
      </g>
      <g id="Grupo_87965" data-name="Grupo 87965" transform="translate(457.038 7755.971)">
        <path id="Trazado_102716" data-name="Trazado 102716" d="M120.095,771.055l-1.472,1.888H103.706l-1.472-1.888H78.962v3.795a2.513,2.513,0,0,0,2.51,2.51h59.385a2.513,2.513,0,0,0,2.51-2.51v-3.795Z" transform="translate(0 -57.548)" fill="#988df7"/>
        <path id="Trazado_102717" data-name="Trazado 102717" d="M141.632,674.029H92.108a3.53,3.53,0,0,0-3.526,3.526v32h2.93V682.095h50.717v27.458h2.93v-32A3.53,3.53,0,0,0,141.632,674.029Zm-22.763,6.128h-4v-3.336h4Z" transform="translate(-5.706 0)" fill="#988df7"/>
        <path id="Trazado_102718" data-name="Trazado 102718" d="M156.492,719.6l-14.816-15.248v21.414l4.18-4.251v-4.264l4.259,10.006,2.459-1.213-2.781-6.443Z" transform="translate(-37.197 -17.983)" fill="#988df7"/>
      </g>
      <g id="Grupo_87966" data-name="Grupo 87966" transform="translate(434.274 8038.799)">
        <path id="Trazado_102719" data-name="Trazado 102719" d="M383.813,696.76l2.095-2.706.165-.214v-3.5c0-14.63,14.51-24.458,28.063-24.458s28.063,9.828,28.063,24.458v3.5l.165.213,2.1,2.706h.441a5.781,5.781,0,0,1,1.669.247,32.011,32.011,0,0,0,.728-6.663c0-19.226-13.327-32.143-33.161-32.143s-33.161,12.917-33.161,32.143a32,32,0,0,0,.728,6.663,5.778,5.778,0,0,1,1.669-.247Z" transform="translate(-1.301 0)" fill="#988df7"/>
        <path id="Trazado_102720" data-name="Trazado 102720" d="M378.353,748.448a3.722,3.722,0,0,0,3.718,3.718h1.47l1.941,2.507a2.609,2.609,0,0,0,2.063,1.012h.18a2.609,2.609,0,0,0,2.609-2.609V734.52a2.609,2.609,0,0,0-2.609-2.609h-.179a2.608,2.608,0,0,0-2.063,1.012l-1.941,2.507h-1.47a3.722,3.722,0,0,0-3.718,3.717Z" transform="translate(0 -36.574)" fill="#988df7"/>
        <path id="Trazado_102721" data-name="Trazado 102721" d="M467.87,755.685h.036a2.61,2.61,0,0,0,2.063-1.012l1.941-2.507h1.47a3.722,3.722,0,0,0,3.718-3.718v-9.3a3.721,3.721,0,0,0-3.718-3.717H471.91l-1.941-2.507a2.609,2.609,0,0,0-2.063-1.012h-.179a2.609,2.609,0,0,0-2.609,2.609v21.165a8.519,8.519,0,0,1-8.385,7.181H446.574a4.242,4.242,0,1,0-3.959,2.724h14.118a11.23,11.23,0,0,0,10.68-7.81A11.11,11.11,0,0,0,467.87,755.685Z" transform="translate(-29.781 -36.574)" fill="#988df7"/>
        <path id="Trazado_102722" data-name="Trazado 102722" d="M427.689,699.894a22.005,22.005,0,0,0-19.4,11.613v20.824a22.063,22.063,0,0,0,13.456,10.791,6.028,6.028,0,0,1,11.887,0,22.064,22.064,0,0,0,13.457-10.791V711.507A22,22,0,0,0,427.689,699.894Zm-1.094,32.485H412.614c10.179-13.2,10.918-13.59,10.918-15.085a3.386,3.386,0,1,0-6.772,0v1.48h-3.742v-1.48a7.127,7.127,0,1,1,14.255,0c0,2.769-2.23,5.13-7.164,11.344h6.485Zm16.141-5.213h-2.243v5.213h-3.741v-5.213H423.523l16.97-18.24v12.9h-3.741v-3.178l-4.767,4.779h10.751Z" transform="translate(-14.854 -20.688)" fill="#988df7"/>
      </g>
      <path id="Trazado_102723" data-name="Trazado 102723" d="M145.2,384.253a34.248,34.248,0,0,0-48.435,0,34.525,34.525,0,0,0-6.1,40.171l.17.321-4.2,18.071,18.07-4.2.321.169a34.374,34.374,0,0,0,15.957,3.934A34.259,34.259,0,0,0,145.2,384.253Zm-10.914,44.235-3.2,2.058a5.853,5.853,0,0,1-3.223.89c-6.334,0-15.482-8.268-19.191-17.345-3.119-7.664-3.174-17.744-.127-23.447a7.112,7.112,0,0,1,4.647-3.979l3.728-.767a1.456,1.456,0,0,1,.291-.03c.99,0,2,1.026,2.7,2.744,1.259,3.087,1.257,7.491,0,9.424a1.574,1.574,0,0,1-.8.7l-3.644,1.149-.188.249c-2.032,2.7-2.193,7.077-.422,11.421,1.751,4.3,5.009,7.395,8.337,7.9l.316.05,3.364-1.737a1.59,1.59,0,0,1,1.06-.054c2.492.554,5.474,3.993,6.592,6.734C135.3,426.35,135.213,427.9,134.291,428.488Z" transform="translate(845.545 8212.947)" fill="#988df7"/>
      <path id="Trazado_102724" data-name="Trazado 102724" d="M1013.7,667.563a31.962,31.962,0,0,0-45.2,0,32.22,32.22,0,0,0-5.689,37.49l.158.3-3.921,16.865,16.864-3.922.3.158a32.082,32.082,0,0,0,14.892,3.671,31.972,31.972,0,0,0,22.6-54.562Zm-18.25,19.5-4.29,15.187a2.508,2.508,0,0,0,1.887,3.139,1.194,1.194,0,0,1,1.017.975,2.89,2.89,0,0,1-.829,2.408,8.1,8.1,0,0,1-6.145,3.259,4.452,4.452,0,0,1-3.633-1.6,3.759,3.759,0,0,1-.508-3.368l4.29-15.188a2.512,2.512,0,0,0-1.886-3.138,1.2,1.2,0,0,1-1.019-.973,2.97,2.97,0,0,1,.83-2.409,7.92,7.92,0,0,1,6.031-3.283,4.541,4.541,0,0,1,3.7,1.674A3.7,3.7,0,0,1,995.446,687.064Zm-.881-7.586a5.154,5.154,0,1,1,5.155-5.154A5.16,5.16,0,0,1,994.565,679.478Z" transform="translate(-302.296 8042.198)" fill="#988df7"/>
      <g id="Grupo_87967" data-name="Grupo 87967" transform="translate(170.158 8215.634)">
        <path id="Trazado_102725" data-name="Trazado 102725" d="M474.531,463.889a18.224,18.224,0,0,0-3.108-21.478,18.119,18.119,0,1,0-4.153,28.74l.411-.224,8.635,2.008-2.008-8.636Zm-10.341,2.075a1.689,1.689,0,0,1-3.379,0v-9.013H456.4v9.013a1.69,1.69,0,0,1-3.379,0V449.89a8.017,8.017,0,0,1,1.593-5.116A5.155,5.155,0,0,1,458.6,442.8c2.776,0,5.587,2.436,5.587,7.091Z" transform="translate(-35.87 -34.565)" fill="#988df7"/>
        <path id="Trazado_102726" data-name="Trazado 102726" d="M477.146,456.755a1.772,1.772,0,0,0-1.361.724,4.607,4.607,0,0,0-.839,2.988v3.682h4.408v-3.682C479.354,457.917,478.21,456.755,477.146,456.755Z" transform="translate(-54.414 -45.142)" fill="#988df7"/>
        <path id="Trazado_102727" data-name="Trazado 102727" d="M414.282,393.545c-1.331,0-2.763,1.406-2.763,4.494v12.3c0,3.088,1.437,4.494,2.772,4.494a2.267,2.267,0,0,0,1.749-.919,3.326,3.326,0,0,0,.209-.29l-2.165-2.941a1.691,1.691,0,0,1,.359-2.362,1.674,1.674,0,0,1,1-.329,1.7,1.7,0,0,1,1.362.688l.248.338V398.039C417.054,394.951,415.617,393.545,414.282,393.545Z" transform="translate(-20.278 -11.122)" fill="#988df7"/>
        <path id="Trazado_102728" data-name="Trazado 102728" d="M412.755,400.57a20.19,20.19,0,1,0-36.483,2.144l.224.41-2.259,9.712,9.713-2.259.41.224a20.24,20.24,0,0,0,17.951.67,20.621,20.621,0,0,1,10.444-10.9Zm-11.55,6.187a1.676,1.676,0,0,1-1,.329,1.7,1.7,0,0,1-1.362-.688l-.8-1.089a5.591,5.591,0,0,1-4.028,1.777c-3.057,0-6.151-2.7-6.151-7.873v-12.3c0-5.169,3.09-7.874,6.142-7.874s6.151,2.7,6.151,7.874v12.3a10.978,10.978,0,0,1-.346,2.8l1.754,2.383A1.692,1.692,0,0,1,401.205,406.758Z" fill="#988df7"/>
      </g>
    </g>
    <rect id="Rectángulo_34041" data-name="Rectángulo 34041" width="322" height="111" transform="translate(893 8427)" fill="#fff"/>
    <path id="Trazado_144283" data-name="Trazado 144283" d="M26.414,29.89A10.9,10.9,0,0,1,24.732,35.4a10.149,10.149,0,0,1-4.317,3.7,14.693,14.693,0,0,1-6.347,1.313A11.725,11.725,0,0,1,4.8,36.575Q1.415,32.74,1.415,25.747V24.271a18.074,18.074,0,0,1,1.528-7.68,11.576,11.576,0,0,1,4.4-5.086A12.273,12.273,0,0,1,13.986,9.71a12.87,12.87,0,0,1,8.736,2.861,11.3,11.3,0,0,1,3.753,7.885H19.3a5.348,5.348,0,0,0-1.374-3.917,5.651,5.651,0,0,0-3.937-1.189,4.3,4.3,0,0,0-3.937,2.01Q8.8,19.369,8.736,23.778v2.112q0,4.778,1.2,6.829a4.39,4.39,0,0,0,4.132,2.051A5.527,5.527,0,0,0,17.862,33.6a4.961,4.961,0,0,0,1.395-3.712ZM42,40a7.8,7.8,0,0,1-.656-1.989,6.426,6.426,0,0,1-5.332,2.4,7.873,7.873,0,0,1-5.332-1.9,6.038,6.038,0,0,1-2.194-4.768,6.206,6.206,0,0,1,2.666-5.455q2.666-1.846,7.752-1.846h2.133V25.27q0-3.07-2.646-3.07a2.162,2.162,0,0,0-2.461,2.432H29.019a6.2,6.2,0,0,1,2.738-5.223A11.506,11.506,0,0,1,38.739,17.4a10.088,10.088,0,0,1,6.706,2.071,7.2,7.2,0,0,1,2.522,5.681v9.823a10.06,10.06,0,0,0,.943,4.676V40Zm-4.327-4.512a3.855,3.855,0,0,0,2.143-.554,3.47,3.47,0,0,0,1.22-1.251V30.136h-2.01q-3.609,0-3.609,3.24a1.978,1.978,0,0,0,.636,1.528A2.3,2.3,0,0,0,37.673,35.488ZM65.215,24.065,62.938,23.9q-3.261,0-4.184,2.051V40H51.844V17.811h6.48l.226,2.851Q60.293,17.4,63.41,17.4a6.74,6.74,0,0,1,1.928.246ZM79.591,40a7.8,7.8,0,0,1-.656-1.989,6.426,6.426,0,0,1-5.332,2.4,7.873,7.873,0,0,1-5.332-1.9,6.038,6.038,0,0,1-2.194-4.768,6.206,6.206,0,0,1,2.666-5.455q2.666-1.846,7.752-1.846h2.133V25.27q0-3.07-2.646-3.07a2.162,2.162,0,0,0-2.461,2.432H66.609a6.2,6.2,0,0,1,2.738-5.223A11.506,11.506,0,0,1,76.33,17.4a10.088,10.088,0,0,1,6.706,2.071,7.2,7.2,0,0,1,2.522,5.681v9.823a10.06,10.06,0,0,0,.943,4.676V40Zm-4.327-4.512a3.855,3.855,0,0,0,2.143-.554,3.47,3.47,0,0,0,1.22-1.251V30.136h-2.01q-3.609,0-3.609,3.24a1.978,1.978,0,0,0,.636,1.528A2.3,2.3,0,0,0,75.264,35.488Zm23.5-.41a3.074,3.074,0,0,0,2.256-.79,2.9,2.9,0,0,0,.779-2.2h6.48a7.672,7.672,0,0,1-2.615,5.988A9.726,9.726,0,0,1,98.93,40.41,9.847,9.847,0,0,1,91.3,37.375q-2.789-3.035-2.789-8.408V28.68a13.516,13.516,0,0,1,1.241-5.937,9.034,9.034,0,0,1,3.579-3.958A10.67,10.67,0,0,1,98.868,17.4a9.6,9.6,0,0,1,6.87,2.4,8.51,8.51,0,0,1,2.543,6.5H101.8a3.794,3.794,0,0,0-.841-2.646,2.9,2.9,0,0,0-2.256-.923q-2.687,0-3.138,3.425a24.166,24.166,0,0,0-.144,2.994,9.492,9.492,0,0,0,.8,4.635A2.769,2.769,0,0,0,98.766,35.078Zm20.487-22.784v5.517h3.65v4.8h-3.65V32.761A2.592,2.592,0,0,0,119.7,34.5a2.42,2.42,0,0,0,1.784.492,10.139,10.139,0,0,0,1.723-.123v4.942a12.755,12.755,0,0,1-3.9.595q-3.568,0-5.271-1.682a6.893,6.893,0,0,1-1.7-5.106V22.609h-2.83v-4.8h2.83V12.294Zm17.1,28.116a11.407,11.407,0,0,1-8.265-3.045,10.517,10.517,0,0,1-3.158-7.926v-.574a13.627,13.627,0,0,1,1.261-6.009,9.229,9.229,0,0,1,3.681-4.03,11.113,11.113,0,0,1,5.742-1.425A9.605,9.605,0,0,1,143,20.3q2.707,2.9,2.707,8.09v2.687h-13.74a4.981,4.981,0,0,0,1.62,2.933,4.821,4.821,0,0,0,3.24,1.066,6.211,6.211,0,0,0,5.127-2.3l3.158,3.732a8.828,8.828,0,0,1-3.661,2.84A12.37,12.37,0,0,1,136.356,40.41Zm-.779-17.678q-3.035,0-3.609,4.02h6.973v-.533a3.423,3.423,0,0,0-.841-2.574A3.346,3.346,0,0,0,135.577,22.732Zm26.332,1.333-2.276-.164q-3.261,0-4.184,2.051V40h-6.911V17.811h6.48l.226,2.851q1.743-3.261,4.86-3.261a6.74,6.74,0,0,1,1.928.246ZM171.938,40h-6.952V17.811h6.952ZM169.354,8.91h7.3l-5.7,6.439-5.64-.01ZM188,33.766a1.6,1.6,0,0,0-.923-1.415,14.037,14.037,0,0,0-3.507-1.107,15.991,15.991,0,0,1-4.266-1.507,7.145,7.145,0,0,1-2.563-2.266,5.411,5.411,0,0,1-.882-3.056,6.133,6.133,0,0,1,2.522-5.035,10.391,10.391,0,0,1,6.6-1.979,11.512,11.512,0,0,1,7.055,1.989,6.221,6.221,0,0,1,2.666,5.229H187.77q0-2.666-2.81-2.666a2.785,2.785,0,0,0-1.825.6,1.873,1.873,0,0,0-.738,1.507,1.719,1.719,0,0,0,.9,1.5,8.526,8.526,0,0,0,2.881.943,24.9,24.9,0,0,1,3.476.882q5,1.723,5,6.173a5.811,5.811,0,0,1-2.7,4.942,11.826,11.826,0,0,1-6.983,1.907,12.068,12.068,0,0,1-5.086-1.025,8.5,8.5,0,0,1-3.486-2.789,6.316,6.316,0,0,1-1.251-3.712h6.46a2.671,2.671,0,0,0,1.025,2.246,4.218,4.218,0,0,0,2.522.708,3.318,3.318,0,0,0,2.123-.574A1.837,1.837,0,0,0,188,33.766Zm17.944-21.472v5.517h3.65v4.8h-3.65V32.761a2.592,2.592,0,0,0,.451,1.743,2.42,2.42,0,0,0,1.784.492,10.139,10.139,0,0,0,1.723-.123v4.942a12.755,12.755,0,0,1-3.9.595q-3.568,0-5.271-1.682a6.893,6.893,0,0,1-1.7-5.106V22.609H196.2v-4.8h2.83V12.294ZM219.6,40h-6.932V17.811H219.6Zm-7.342-27.932a3.112,3.112,0,0,1,1.066-2.435,4.512,4.512,0,0,1,5.537,0,3.112,3.112,0,0,1,1.066,2.435,3.112,3.112,0,0,1-1.066,2.435,4.512,4.512,0,0,1-5.537,0A3.112,3.112,0,0,1,212.256,12.068Zm20.979,23.01a3.074,3.074,0,0,0,2.256-.79,2.9,2.9,0,0,0,.779-2.2h6.48a7.672,7.672,0,0,1-2.615,5.988A9.726,9.726,0,0,1,233.4,40.41a9.847,9.847,0,0,1-7.629-3.035q-2.789-3.035-2.789-8.408V28.68a13.516,13.516,0,0,1,1.241-5.937,9.034,9.034,0,0,1,3.579-3.958,10.67,10.67,0,0,1,5.537-1.384,9.6,9.6,0,0,1,6.87,2.4,8.51,8.51,0,0,1,2.543,6.5h-6.48a3.794,3.794,0,0,0-.841-2.646,2.9,2.9,0,0,0-2.256-.923q-2.687,0-3.138,3.425a24.166,24.166,0,0,0-.144,2.994,9.492,9.492,0,0,0,.8,4.635A2.769,2.769,0,0,0,233.235,35.078ZM258.173,40a7.8,7.8,0,0,1-.656-1.989,6.426,6.426,0,0,1-5.332,2.4,7.873,7.873,0,0,1-5.332-1.9,6.038,6.038,0,0,1-2.194-4.768,6.206,6.206,0,0,1,2.666-5.455q2.666-1.846,7.752-1.846h2.133V25.27q0-3.07-2.646-3.07a2.162,2.162,0,0,0-2.461,2.432h-6.911a6.2,6.2,0,0,1,2.738-5.223,11.506,11.506,0,0,1,6.983-2.007,10.088,10.088,0,0,1,6.706,2.071,7.2,7.2,0,0,1,2.522,5.681v9.823a10.06,10.06,0,0,0,.943,4.676V40Zm-4.327-4.512a3.855,3.855,0,0,0,2.143-.554,3.47,3.47,0,0,0,1.22-1.251V30.136H255.2q-3.609,0-3.609,3.24a1.978,1.978,0,0,0,.636,1.528A2.3,2.3,0,0,0,253.846,35.488Zm25.737-1.723a1.6,1.6,0,0,0-.923-1.415,14.037,14.037,0,0,0-3.507-1.107,15.991,15.991,0,0,1-4.266-1.507,7.145,7.145,0,0,1-2.563-2.266,5.411,5.411,0,0,1-.882-3.056,6.133,6.133,0,0,1,2.522-5.035,10.391,10.391,0,0,1,6.6-1.979,11.512,11.512,0,0,1,7.055,1.989,6.221,6.221,0,0,1,2.666,5.229h-6.932q0-2.666-2.81-2.666a2.785,2.785,0,0,0-1.825.6,1.873,1.873,0,0,0-.738,1.507,1.719,1.719,0,0,0,.9,1.5,8.526,8.526,0,0,0,2.881.943,24.9,24.9,0,0,1,3.476.882q5,1.723,5,6.173a5.811,5.811,0,0,1-2.7,4.942,11.826,11.826,0,0,1-6.983,1.907,12.068,12.068,0,0,1-5.086-1.025A8.5,8.5,0,0,1,268,36.6a6.316,6.316,0,0,1-1.251-3.712h6.46a2.671,2.671,0,0,0,1.025,2.246,4.218,4.218,0,0,0,2.522.708,3.318,3.318,0,0,0,2.123-.574A1.837,1.837,0,0,0,279.583,33.766ZM1.948,74.721a13,13,0,0,1,2.42-8.213A7.653,7.653,0,0,1,10.705,63.4a7.7,7.7,0,0,1,6.173,2.666V54.5h3.794V86H17.186L17,83.621a7.726,7.726,0,0,1-6.337,2.789,7.579,7.579,0,0,1-6.286-3.158,13.146,13.146,0,0,1-2.43-8.244Zm3.794.431A9.842,9.842,0,0,0,7.3,81.058a5.039,5.039,0,0,0,4.307,2.133,5.535,5.535,0,0,0,5.271-3.24V69.758a5.577,5.577,0,0,0-5.229-3.138A5.062,5.062,0,0,0,7.3,68.773Q5.742,70.927,5.742,75.151ZM35.766,86.41a9.7,9.7,0,0,1-7.342-2.963,11,11,0,0,1-2.83-7.926v-.7a13.315,13.315,0,0,1,1.261-5.9,9.839,9.839,0,0,1,3.527-4.061A8.868,8.868,0,0,1,35.294,63.4a8.31,8.31,0,0,1,6.727,2.851q2.4,2.851,2.4,8.162v1.579H29.388a7.888,7.888,0,0,0,1.917,5.3,6.027,6.027,0,0,0,4.666,2.02,6.608,6.608,0,0,0,3.4-.82,8.554,8.554,0,0,0,2.44-2.174l2.317,1.8A9.318,9.318,0,0,1,35.766,86.41Zm-.472-19.893a5.061,5.061,0,0,0-3.855,1.671,8.124,8.124,0,0,0-1.928,4.686H40.626v-.287a7.226,7.226,0,0,0-1.559-4.481A4.765,4.765,0,0,0,35.294,66.518ZM52.931,86H49.137V54.5h3.794Zm29.388-5.886a2.793,2.793,0,0,0-1.159-2.389,11.153,11.153,0,0,0-4.04-1.466,19.1,19.1,0,0,1-4.573-1.477,6.506,6.506,0,0,1-2.5-2.051,4.906,4.906,0,0,1-.81-2.83,5.756,5.756,0,0,1,2.307-4.614,9.01,9.01,0,0,1,5.9-1.887,9.272,9.272,0,0,1,6.122,1.948,6.188,6.188,0,0,1,2.348,4.983H82.093a3.425,3.425,0,0,0-1.323-2.687,4.956,4.956,0,0,0-3.333-1.128,5.187,5.187,0,0,0-3.24.9,2.84,2.84,0,0,0-1.169,2.358,2.3,2.3,0,0,0,1.087,2.071,13.373,13.373,0,0,0,3.927,1.333,20.463,20.463,0,0,1,4.6,1.518,6.716,6.716,0,0,1,2.615,2.123,5.219,5.219,0,0,1,.851,3.025,5.679,5.679,0,0,1-2.379,4.768,9.979,9.979,0,0,1-6.173,1.794,11.174,11.174,0,0,1-4.717-.943,7.671,7.671,0,0,1-3.209-2.635,6.352,6.352,0,0,1-1.159-3.661H72.27A3.928,3.928,0,0,0,73.8,82.2a5.927,5.927,0,0,0,3.763,1.118,6.118,6.118,0,0,0,3.456-.872A2.678,2.678,0,0,0,82.318,80.114Zm17.944,6.3a9.7,9.7,0,0,1-7.342-2.963,11,11,0,0,1-2.83-7.926v-.7a13.315,13.315,0,0,1,1.261-5.9,9.839,9.839,0,0,1,3.527-4.061A8.868,8.868,0,0,1,99.791,63.4a8.31,8.31,0,0,1,6.727,2.851q2.4,2.851,2.4,8.162v1.579H93.885a7.888,7.888,0,0,0,1.917,5.3,6.027,6.027,0,0,0,4.666,2.02,6.608,6.608,0,0,0,3.4-.82,8.554,8.554,0,0,0,2.44-2.174l2.317,1.8A9.318,9.318,0,0,1,100.263,86.41Zm-.472-19.893a5.061,5.061,0,0,0-3.855,1.671,8.124,8.124,0,0,0-1.928,4.686h11.115v-.287a7.226,7.226,0,0,0-1.559-4.481A4.765,4.765,0,0,0,99.791,66.518Zm22.415,16.8a5.465,5.465,0,0,0,3.548-1.23,4.329,4.329,0,0,0,1.682-3.076h3.589a6.88,6.88,0,0,1-1.312,3.63,8.644,8.644,0,0,1-3.23,2.748,9.32,9.32,0,0,1-4.276,1.025A9.141,9.141,0,0,1,115,83.385q-2.676-3.025-2.676-8.275v-.636a13.359,13.359,0,0,1,1.189-5.763,9.059,9.059,0,0,1,3.415-3.917,9.7,9.7,0,0,1,5.26-1.395,8.9,8.9,0,0,1,6.2,2.235,7.989,7.989,0,0,1,2.635,5.8h-3.589a5.228,5.228,0,0,0-1.63-3.538,5.072,5.072,0,0,0-3.62-1.384A5.31,5.31,0,0,0,117.7,68.6a9.776,9.776,0,0,0-1.589,6.019v.718a9.581,9.581,0,0,0,1.579,5.906A5.336,5.336,0,0,0,122.206,83.313Zm18.231-24.876v5.373h4.143v2.933h-4.143V80.521a3.08,3.08,0,0,0,.554,2,2.33,2.33,0,0,0,1.887.667,9.185,9.185,0,0,0,1.8-.246V86a11.064,11.064,0,0,1-2.912.408,4.725,4.725,0,0,1-3.835-1.538,6.608,6.608,0,0,1-1.292-4.368V66.743H132.6V63.811h4.04V58.438ZM147.595,74.7a13.106,13.106,0,0,1,1.282-5.865,9.562,9.562,0,0,1,3.568-4.02,9.714,9.714,0,0,1,5.219-1.415A9.358,9.358,0,0,1,165,66.538a12.072,12.072,0,0,1,2.8,8.347v.267a13.22,13.22,0,0,1-1.241,5.814,9.421,9.421,0,0,1-3.548,4.009,9.825,9.825,0,0,1-5.3,1.436,9.334,9.334,0,0,1-7.311-3.138,12.011,12.011,0,0,1-2.8-8.306Zm3.814.451a9.493,9.493,0,0,0,1.712,5.927,5.8,5.8,0,0,0,9.177-.031A10.381,10.381,0,0,0,164,74.7a9.476,9.476,0,0,0-1.733-5.917,5.509,5.509,0,0,0-4.6-2.266,5.448,5.448,0,0,0-4.532,2.235A10.3,10.3,0,0,0,151.409,75.151Zm31.869-7.937a11.369,11.369,0,0,0-1.866-.144,5,5,0,0,0-5.065,3.179V86h-3.794V63.811h3.691l.062,2.563A5.908,5.908,0,0,1,181.6,63.4a3.876,3.876,0,0,1,1.682.287Z" transform="translate(911 8430)" fill="#0f0140"/>
  </g>
</svg>
