<svg xmlns="http://www.w3.org/2000/svg" width="53" height="43.457" viewBox="0 0 53 43.457">
  <g id="_2" data-name="2" transform="translate(-913.903 -156.757)">
    <path id="Trazado_101537" data-name="Trazado 101537" d="M932.112,424.64V424.6a8.408,8.408,0,0,1,2.774-6.164,11.087,11.087,0,0,1,5.2-2.68,6.018,6.018,0,0,0-.083-3.142c-.1-.427-.23-.852-.364-1.289-.939,1.465-5.479,7.37-5.479,7.37l-.664-3.88a15.916,15.916,0,0,0,1.934-1.934,15.322,15.322,0,0,0-2.718-2.718A15.493,15.493,0,0,0,930,412.879a16.3,16.3,0,0,0,1.934,1.934l-.664,3.88s-5.65-7.377-5.65-7.687,1.636-1.319,1.636-1.319l.259-1.847-4.217,1.53a9.517,9.517,0,0,0-9.393,9.393v5.91h18.211Z" transform="translate(0 -231.448)" fill="#ef6c00"/>
    <g id="Grupo_87545" data-name="Grupo 87545" transform="translate(933.645 162.977)">
      <path id="Trazado_101538" data-name="Trazado 101538" d="M1166.764,273.533h12.357l-.743-5.2a12.032,12.032,0,0,0,9.189.278l-.7,4.927h12.357l.4-7.03c0-4-3.578-6.923-7.533-7.465-.069-.161-.146-.319-.214-.479a7.089,7.089,0,0,1-.1-4.41c.354-1.454.924-2.852,1.216-4.319a11.771,11.771,0,0,0-.321-5.818,12.492,12.492,0,0,0-.532-1.384,13.443,13.443,0,0,0-1.432-2.44,10.043,10.043,0,0,0-1.674-1.8,8.8,8.8,0,0,0-1.969-1.215,9.9,9.9,0,0,0-8.135,0,8.8,8.8,0,0,0-1.969,1.215,10.042,10.042,0,0,0-1.674,1.8,13.442,13.442,0,0,0-1.432,2.44,12.493,12.493,0,0,0-.532,1.384,11.723,11.723,0,0,0-.53,3.036,2.234,2.234,0,0,0-1.231,2.27c0,1.272.658,2.3,1.469,2.3a.978.978,0,0,0,.411-.094c.264.872.56,1.737.776,2.623a7.089,7.089,0,0,1-.1,4.41c-.068.16-.145.319-.214.479-3.955.542-7.533,3.465-7.533,7.465l.4,7.03Zm9.688-25.864a5.929,5.929,0,0,1,1.062-2.882c.151-.13.3-.247.456-.357a4.736,4.736,0,0,0,.781.686,7.854,7.854,0,0,0,3.582,1.211c1.789.216,4.234.205,5.538-1.039a5.26,5.26,0,0,1-2.76-1.958,6.126,6.126,0,0,1,3.361,1.457,5.929,5.929,0,0,1,1.062,2.882,7.977,7.977,0,0,1-1,5.379,15.958,15.958,0,0,0-1.5,2.618,2.58,2.58,0,0,0,.492,2.8,3.822,3.822,0,0,0,1.4.635l-1.1,7.7a10.437,10.437,0,0,1-9.716-.364l-1.048-7.34a3.822,3.822,0,0,0,1.4-.635,2.58,2.58,0,0,0,.493-2.8c-.051-.143-.111-.282-.175-.419a10.988,10.988,0,0,0,1.523.43c.3.477,1.154.832,2.517.832,1.59,0,2.313-.483,2.313-1.079s-.723-1.079-2.313-1.079a4.279,4.279,0,0,0-1.886.371,8.785,8.785,0,0,1-3.193-1.209c-.1-.154-.2-.308-.289-.465A7.977,7.977,0,0,1,1176.452,247.669Z" transform="translate(-1166.363 -236.296)" fill="#ef6c00"/>
    </g>
    <path id="Trazado_101539" data-name="Trazado 101539" d="M1038.926,174.022c0-.6-.947-1.079-2.115-1.079a3.244,3.244,0,0,0-1.593.371,6.222,6.222,0,0,1-4.222-3.92c.124-.1.306-.111.371-.29s-.028-1.213.037-1.815c.1-.889-.046-1.69.529-2.375a3.476,3.476,0,0,1,2.785-1.062,3.862,3.862,0,0,1,.951.34,10.2,10.2,0,0,0,4.6,1.412c.561-.006,1.539-.706,2.074-.875a1.547,1.547,0,0,1,1.465.012,1.762,1.762,0,0,1,.777,1.165,13.628,13.628,0,0,1,.257,3.6c0,.016,0,.032,0,.049.115-.311.239-.622.379-.93a15.027,15.027,0,0,1,1.6-2.722l.033-.042c-.078-5.512-3.584-9.11-8.651-9.11-4.982,0-8.556,3.926-8.753,8.852-.011,0-.021,0-.032,0-.6,0-1.079,1.031-1.079,2.3s.483,2.3,1.079,2.3a.809.809,0,0,0,.639-.451,7.36,7.36,0,0,0,4.707,4.508,2.3,2.3,0,0,0,2.057.832C1037.979,175.1,1038.926,174.618,1038.926,174.022Z" transform="translate(-105.478)" fill="#ef6c00"/>
  </g>
</svg>
