<svg xmlns="http://www.w3.org/2000/svg" xmlns:xlink="http://www.w3.org/1999/xlink" width="357.992" height="361.09" viewBox="0 0 357.992 361.09">
  <defs>
    <clipPath id="clip-path">
      <path id="Trazado_101716" data-name="Trazado 101716" d="M450.085,187.916l-83.137-48a4.135,4.135,0,0,0-6.2,3.57l-.238,83.846a10.529,10.529,0,0,0,5.264,9.149l86.847,50.141a3.451,3.451,0,0,0,5.176-2.978l.232-81.93A15.882,15.882,0,0,0,450.085,187.916Z" fill="none"/>
    </clipPath>
  </defs>
  <g id="Grupo_87662" data-name="Grupo 87662" transform="translate(-146.004 -60.885)">
    <g id="Grupo_87652" data-name="Grupo 87652">
      <g id="Grupo_87620" data-name="Grupo 87620" opacity="0.3" style="mix-blend-mode: multiply;isolation: isolate">
        <path id="Trazado_101689" data-name="Trazado 101689" d="M493.936,344.016,374.769,413.189a9.478,9.478,0,0,1-9.5-.015L168.422,298.609a9.477,9.477,0,0,1,.026-16.4L288.9,212.254a9.478,9.478,0,0,1,9.5.015L493.319,335.443C498.5,338.352,498.167,341.423,493.936,344.016Z" fill="#ccc" style="mix-blend-mode: multiply;isolation: isolate"/>
      </g>
      <g id="Grupo_87621" data-name="Grupo 87621">
        <path id="Trazado_101690" data-name="Trazado 101690" d="M496.2,333.676s-5.779.569-7.732-.471L288.647,216.775a9.012,9.012,0,0,0-9.033.013L169.558,276.35c-7.694,5.359-6.075,16.585-.077,20.048L366.029,409.875a9.012,9.012,0,0,0,9.033-.013l119.891-69.673c2.829-1.776,1.945-4.758,1.245-6.513Z" fill="#7798d9"/>
      </g>
      <g id="Grupo_87622" data-name="Grupo 87622">
        <path id="Trazado_101691" data-name="Trazado 101691" d="M284.7,70.689l2.928,135.973a10.116,10.116,0,0,0,5.02,8.756L488.994,331.274c6.546,3.819,14.609-2.285,14.631-9.919L504,189.015a10.048,10.048,0,0,0-4.913-8.67L299.643,62.4C292.966,58.45,284.226,62.579,284.7,70.689Z" fill="#121726"/>
      </g>
      <g id="Grupo_87623" data-name="Grupo 87623">
        <path id="Trazado_101692" data-name="Trazado 101692" d="M284.619,69.916,284.226,208.4a10.117,10.117,0,0,0,5.021,8.757l196.3,114.511A9.832,9.832,0,0,0,500.3,323.1l.372-132.362a10.048,10.048,0,0,0-4.915-8.671L295.625,63.729A7.253,7.253,0,0,0,284.619,69.916Z" fill="#1d2540"/>
      </g>
      <g id="Grupo_87624" data-name="Grupo 87624">
        <path id="Trazado_101693" data-name="Trazado 101693" d="M292.093,70.92l-.413,135.65,200.49,115.913.4-134.279Z" fill="#2b448c"/>
      </g>
      <g id="Grupo_87625" data-name="Grupo 87625">
        <path id="Trazado_101694" data-name="Trazado 101694" d="M296.091,78.946l-.4,123.229,192.478,111.28.388-121.913Z" fill="#3a5ea5"/>
      </g>
      <g id="Grupo_87626" data-name="Grupo 87626">
        <path id="Trazado_101695" data-name="Trazado 101695" d="M379.664,221.654c-12.841-7.413-23.2-25.349-23.154-40.1.041-14.73,10.464-20.67,23.3-13.256,12.819,7.4,23.2,25.349,23.154,40.079-.042,14.755-10.486,20.683-23.3,13.281m5.711-69.187-11.013-6.358-1.576,8.942a22.414,22.414,0,0,0-10.037-1.017l-7.125-9.807-7.811,4.427,4.945,11.1a21.674,21.674,0,0,0-4.2,9.108l-8.566-3.163-.036,12.63,8.556,6.722a65.321,65.321,0,0,0,4.14,13.926l-4.992,5.337,7.761,13.442,7.157-1.561a66.725,66.725,0,0,0,10.01,10.557l1.52,10.73,11.013,6.359,1.555-8.955a22.667,22.667,0,0,0,10.058,1.029l7.125,9.807,7.812-4.451L406.72,230.2a22.018,22.018,0,0,0,4.206-9.108l8.544,3.151.036-12.63-8.534-6.709a66.416,66.416,0,0,0-4.14-13.927l4.991-5.362-7.761-13.417-7.157,1.561a67.327,67.327,0,0,0-10.031-10.569l-1.5-10.718" fill="#2b448c"/>
        <path id="Trazado_101696" data-name="Trazado 101696" d="M379.778,181.294c-6.582-3.8-11.912-.738-11.933,6.8-.022,7.563,5.274,16.735,11.855,20.535,6.561,3.788,11.912.763,11.934-6.8.021-7.538-5.3-16.747-11.856-20.535" fill="#2b448c"/>
      </g>
      <g id="Grupo_87637" data-name="Grupo 87637">
        <g id="Grupo_87634" data-name="Grupo 87634">
          <g id="Grupo_87633" data-name="Grupo 87633" clip-path="url(#clip-path)">
            <g id="Grupo_87632" data-name="Grupo 87632">
              <path id="Trazado_101697" data-name="Trazado 101697" d="M395.812,187.3a6.654,6.654,0,0,1-1.34-2.035,17.721,17.721,0,0,1-1.187-2.808c-.515-1.587-.75-3.486.292-4.789a1.271,1.271,0,0,1,.7-.5,1.307,1.307,0,0,1,.653.075,3.5,3.5,0,0,1,.942.477c.354.254.449.55.817.191.54-.529,1.05-1.088,1.6-1.611,3.2-3.058,7.463-5.4,12.007-4.4.219.048.437.1.652.167a2.558,2.558,0,0,1,1.519,1.094,2.187,2.187,0,0,0,1.457,1.14,22.256,22.256,0,0,1,2.877.642,8.748,8.748,0,0,1,4.837,2.964c.806,1.109.644,2.469.463,3.766.083-.6,1.517.054,1.7.185a6.624,6.624,0,0,1,2.184,3.13,5.352,5.352,0,0,1-.21,3.345c-.91,3.2-1.479,7.06-3.986,11.358-1.318,2.259-4.316,5.6-4.677,5.335C417.113,205.032,395.942,187.4,395.812,187.3Z" fill="#1d2540"/>
              <path id="Trazado_101698" data-name="Trazado 101698" d="M407.433,209.008a15.451,15.451,0,0,1-3.416.545c-11-1.075-9.355-12.952-8.991-19.6.13-2.37.058-5.394,1.925-7.169a2.027,2.027,0,0,1,.727-.478,2.762,2.762,0,0,1,2.271.716,16.971,16.971,0,0,0,4.881,2.383,18.2,18.2,0,0,0,5.328.354,2.966,2.966,0,0,1,2.837,1.483c.51,1.321-1.546,3.1-.363,4.313.736.755,1.542.933,1.868,2.083a7.79,7.79,0,0,1,.147,2.25.878.878,0,0,0,1.125.943c1.277-.409.841-2.446,1.25-3.411.528-1.245,1.474-1.6,2.865-1.641,3.031-.079,1.309,9.228-2.077,10.113,0,0-.508,4.5-.955,9.758-.17,2-4.68,1.59-6.377,1.242-.68-.139-2.94-.994-2.94-1.868C407.539,210.021,407.41,208.985,407.433,209.008Z" fill="#f9caaa"/>
              <path id="Trazado_101699" data-name="Trazado 101699" d="M406.747,205.546c-.048-.439.358-.561.689-.69.493-.191.991-.372,1.485-.563a27.234,27.234,0,0,0,4.208-1.954,21.056,21.056,0,0,0,2.774-2.012q.646-.547,1.26-1.131a6.943,6.943,0,0,1,1.177-1.038.594.594,0,0,1,.824.256c.349.593-.388,1.151-.746,1.531a23.415,23.415,0,0,1-1.7,1.63,22.343,22.343,0,0,1-7.8,4.5,4.3,4.3,0,0,1-1.374.182.782.782,0,0,1-.755-.523A.888.888,0,0,1,406.747,205.546Z" fill="#7798d9"/>
              <path id="Trazado_101700" data-name="Trazado 101700" d="M402.414,207.353a1.742,1.742,0,0,0,1.959.98,9.411,9.411,0,0,0,3.063-1.041,1.672,1.672,0,0,0,.509-2.849,3.05,3.05,0,0,0-2.147-.187,14.454,14.454,0,0,0-2.255.558,2.689,2.689,0,0,0-.726.316,1.791,1.791,0,0,0-.524,1.839A2.005,2.005,0,0,0,402.414,207.353Z" fill="#1d2540"/>
              <g id="Grupo_87631" data-name="Grupo 87631">
                <g id="Grupo_87627" data-name="Grupo 87627">
                  <path id="Trazado_101701" data-name="Trazado 101701" d="M418.526,191.952c1.618-.934,2.926-.178,2.931,1.671a6.4,6.4,0,0,1-2.912,5.043c-1.609.929-2.916.184-2.921-1.676a6.415,6.415,0,0,1,2.9-5.038" fill="#cadeff"/>
                </g>
                <path id="Trazado_101702" data-name="Trazado 101702" d="M419.394,200.57l-2.812-1.648,4.028-7.167,2.917,1.7Z" fill="#cadeff"/>
                <g id="Grupo_87628" data-name="Grupo 87628">
                  <path id="Trazado_101703" data-name="Trazado 101703" d="M421.485,193.677c1.618-.934,2.926-.177,2.931,1.671a6.4,6.4,0,0,1-2.912,5.044c-1.609.928-2.916.183-2.921-1.677a6.415,6.415,0,0,1,2.9-5.038" fill="#cadeff"/>
                </g>
                <g id="Grupo_87629" data-name="Grupo 87629">
                  <path id="Trazado_101704" data-name="Trazado 101704" d="M421.486,193.867c1.527-.881,2.76-.167,2.765,1.576A6.039,6.039,0,0,1,421.5,200.2c-1.518.876-2.751.173-2.756-1.582a6.052,6.052,0,0,1,2.738-4.753" fill="#fff"/>
                </g>
                <g id="Grupo_87630" data-name="Grupo 87630">
                  <path id="Trazado_101705" data-name="Trazado 101705" d="M421.488,194.314c1.246-.757,2.251-.144,2.256,1.354a5.247,5.247,0,0,1-2.241,4.087c-1.238.752-2.244.149-2.248-1.359a5.262,5.262,0,0,1,2.233-4.082" fill="none" stroke="#546fbf" stroke-miterlimit="10" stroke-width="0.2"/>
                </g>
              </g>
              <path id="Trazado_101706" data-name="Trazado 101706" d="M417.362,195.054s.967-7.182-1.738-11.136c-3.69-5.4-13.658-8.24-17.383-7.533a7.62,7.62,0,0,1,4.346-3.262,22.513,22.513,0,0,1,15.62,8.231c2.076,2.6,2.646,7.67,2.716,11.345Z" fill="#cadeff"/>
              <path id="Trazado_101707" data-name="Trazado 101707" d="M378.5,207.183s-4.949-.708-6.141,3.158C372.355,210.341,377.722,212.288,378.5,207.183Z" fill="#d670a3"/>
              <path id="Trazado_101708" data-name="Trazado 101708" d="M378.577,208.791a5.856,5.856,0,0,1-.2-5.467,13.559,13.559,0,0,0,.934-2.338c.127-.479.228-1.319-.183-1.694-1.054-.964-1.964,1.016-2.3,1.661-.579,1.1-1.278-.4-1.507-.916a15.96,15.96,0,0,1-.845-2.531c-.166-.648-.221-1.6-1.007-1.8a.787.787,0,0,0-.925.443,3.3,3.3,0,0,0-.927-.611,1.124,1.124,0,0,0-1.064.1,1.529,1.529,0,0,0-.409,1.317,1.661,1.661,0,0,0-1.158-.1c-.549.182-.52,1.059-.47,1.652a.479.479,0,0,0-.406.341,3.733,3.733,0,0,0,0,1.329,12.28,12.28,0,0,0,1.49,4.7,29.228,29.228,0,0,0,4,5.989c.01.01.1.131.115.127l5.377-1.327Z" fill="#f9caaa"/>
              <path id="Trazado_101709" data-name="Trazado 101709" d="M404.254,222.674c-.055-.091-.111-.181-.166-.271a28.812,28.812,0,0,1-1.79-4.472c-.4-.978-1.073-2.764-2.407-2.656a3.157,3.157,0,0,0-1.508.669,43.615,43.615,0,0,0-5.4,4.812c-1.042,1.029-3.264,4.41-5.044,3.463a3.18,3.18,0,0,1-1.011-1.011c-2.091-2.9-8.433-16.025-8.433-16.025s-.069,1.489-2.616,2.578a7.689,7.689,0,0,1-3.525.58s4.843,15.183,8.138,22.025c1.265,2.627,2.933,4.938,6.128,4.894,2.921-.04,5.623-1.8,7.951-3.389,2.312-1.581,4.434-3.415,6.613-5.169a13.192,13.192,0,0,0,2.988-2.872,2.924,2.924,0,0,0,.413-2.5A3.609,3.609,0,0,0,404.254,222.674Z" fill="#e88bb5"/>
              <path id="Trazado_101710" data-name="Trazado 101710" d="M404.254,222.674c-.055-.091-.111-.181-.166-.271a28.812,28.812,0,0,1-1.79-4.472c-.4-.978-1.073-2.764-2.407-2.656a3.157,3.157,0,0,0-1.508.669c-.476.334-.934.69-1.383,1.059-.346.568-.654,1.139-.917,1.66a57.321,57.321,0,0,0-2.808,7.718c-.895,2.669-2.023,5.5-4.045,7.534a7.3,7.3,0,0,1-6,2.214,5.2,5.2,0,0,0,3.387,1.131c2.921-.04,5.623-1.8,7.951-3.389,2.312-1.581,4.434-3.415,6.613-5.169a13.192,13.192,0,0,0,2.988-2.872,2.924,2.924,0,0,0,.413-2.5A3.609,3.609,0,0,0,404.254,222.674Z" fill="#d670a3"/>
              <path id="Trazado_101711" data-name="Trazado 101711" d="M393.955,281.263a8.051,8.051,0,0,1-.4-2.375c-.218-11.934.387-24.117.768-36.139.274-8.687-1.639-20.566,4.445-27.5,6.846-7.8,23.256-3.684,28.053,4.937a29.732,29.732,0,0,1,3.218,12.843c.4,7.077-4.541,20.712-4.392,53.378,0,.446-3.082,1.588-3.412,1.726a27.9,27.9,0,0,1-8.969,2.135C407.073,290.657,396.167,288.012,393.955,281.263Z" fill="#f49dc0"/>
              <path id="Trazado_101712" data-name="Trazado 101712" d="M430.043,233.029c-.071-1.268-.2-2.544-.377-3.813a17.378,17.378,0,0,0-2.561-1.239,7.928,7.928,0,0,0-.764-.241.277.277,0,0,0-.059-.216c-1.168-1.259-4.718-1.607-5.472.308a4.119,4.119,0,0,0-.183,1.581c.1,6.629.251,13.266-.083,19.891-.32,6.354-.816,13.295-2.977,19.327-1.161,3.239-3.084,6.256-6.239,7.772-3.39,1.629-7.3,1.809-11,1.6a39.417,39.417,0,0,1-6.792-1.052c.007.647.008,1.3.02,1.941a8.051,8.051,0,0,0,.4,2.375c2.212,6.749,13.118,9.394,19.315,9.005a27.911,27.911,0,0,0,8.969-2.135c.33-.138,3.414-1.28,3.412-1.726C425.5,253.741,430.442,240.106,430.043,233.029Z" fill="#999" opacity="0.1" style="mix-blend-mode: multiply;isolation: isolate"/>
              <path id="Trazado_101713" data-name="Trazado 101713" d="M410.107,211.109a10.182,10.182,0,0,1,.857,3.512s4.439-.332,7.031-1.7l-1.022-2.626S414.886,211.669,410.107,211.109Z" fill="#d670a3"/>
              <path id="Trazado_101714" data-name="Trazado 101714" d="M433.191,244.554l-.03-.275a84.464,84.464,0,0,0-2.632-12.951c-1.027-3.749-1.729-8.553-4.021-11.75-1.191-1.66-3.506-3.438-5.654-2.757-2.006.636-2.544,2.907-2.662,4.773-.193,3.043.719,6.426,1.22,9.419,1.229,7.338,3.857,14.846,3.959,22.31a8.409,8.409,0,0,1-.13,1.351c-1.441,9.52-2.368,19.262-4.463,28.659a.685.685,0,0,0,.649.852,37.826,37.826,0,0,0,5.55.169c1.04-.058,3.259.039,3.983-.884a3.532,3.532,0,0,0,.567-1.676c.186-1.174.107-2.336.341-3.514q.46-2.305.9-4.613c.588-3.079,1.137-6.166,1.584-9.269A80.5,80.5,0,0,0,433.191,244.554Z" fill="#e88bb5"/>
              <path id="Trazado_101715" data-name="Trazado 101715" d="M410.107,211.109a5.276,5.276,0,0,1-2.6-1.056l-1.583,1.351a15.766,15.766,0,0,0,1.842,2.249A10.326,10.326,0,0,1,410.107,211.109Z" fill="#d670a3"/>
            </g>
          </g>
        </g>
        <g id="Grupo_87635" data-name="Grupo 87635">
          <path id="Trazado_101717" data-name="Trazado 101717" d="M370.28,177.345a1.268,1.268,0,0,1-.576-1l.031-10.63c0-.366.26-.514.579-.33l13.429,7.753a1.269,1.269,0,0,1,.575,1l-.03,10.631c0,.366-.26.514-.579.33l-7.977-4.605a1.094,1.094,0,0,0-1.078-.117l-2.324,1.27,0-1.351a3.376,3.376,0,0,0-1.528-2.647l-.525-.3m13.466-5.3-13.429-7.753c-.844-.487-1.536-.093-1.539.877l-.03,10.63a3.377,3.377,0,0,0,1.529,2.647l.525.3a1.267,1.267,0,0,1,.575,1l0,1.46a2.029,2.029,0,0,0,.562,1.3,1.54,1.54,0,0,0,.353.283.651.651,0,0,0,.642.068l2.394-1.309a.422.422,0,0,1,.4.045l7.977,4.606c.844.487,1.535.093,1.538-.877l.03-10.63a3.38,3.38,0,0,0-1.528-2.648" fill="#fff"/>
          <path id="Trazado_101718" data-name="Trazado 101718" d="M372.915,171.544c-.694-.4-1.26-.077-1.262.719a2.769,2.769,0,0,0,1.254,2.172c.693.4,1.255.075,1.257-.722a2.761,2.761,0,0,0-1.249-2.169" fill="#fff"/>
          <path id="Trazado_101719" data-name="Trazado 101719" d="M377.015,173.912c-.693-.4-1.259-.078-1.262.719a2.768,2.768,0,0,0,1.254,2.171c.693.4,1.259.078,1.262-.719a2.768,2.768,0,0,0-1.254-2.171" fill="#fff"/>
          <path id="Trazado_101720" data-name="Trazado 101720" d="M381.115,176.279c-.693-.4-1.259-.078-1.262.719a2.768,2.768,0,0,0,1.254,2.171c.693.4,1.259.078,1.262-.719a2.765,2.765,0,0,0-1.254-2.171" fill="#fff"/>
        </g>
        <g id="Grupo_87636" data-name="Grupo 87636">
          <path id="Trazado_101721" data-name="Trazado 101721" d="M450.085,187.916l-83.137-48a4.135,4.135,0,0,0-6.2,3.57l-.238,83.846a10.529,10.529,0,0,0,5.264,9.149l86.847,50.141a3.451,3.451,0,0,0,5.176-2.978l.232-81.93A15.882,15.882,0,0,0,450.085,187.916Z" fill="none" stroke="#6ae2cb" stroke-miterlimit="10" stroke-width="2"/>
        </g>
      </g>
      <g id="Grupo_87646" data-name="Grupo 87646">
        <g id="Grupo_87638" data-name="Grupo 87638">
          <path id="Trazado_101722" data-name="Trazado 101722" d="M336.672,126.1c-5.977-3.45-10.839-.68-10.858,6.188s4.811,15.233,10.787,18.684,10.838.68,10.858-6.188S342.648,129.547,336.672,126.1Z" fill="#f49dc0"/>
        </g>
        <g id="Grupo_87639" data-name="Grupo 87639">
          <path id="Trazado_101723" data-name="Trazado 101723" d="M336.625,142.514c-1.035-.6-1.894-.108-1.9,1.081a4.19,4.19,0,0,0,1.886,3.266c1.035.6,1.894.108,1.9-1.081a4.192,4.192,0,0,0-1.886-3.266m.275-12.168c-2.21-1.276-4.147-1.064-5.028.786l2.74,3.392a1.356,1.356,0,0,1,2.158-.679,2.548,2.548,0,0,1,1.47,2.178c-.006,2.012-3.2,1.2-3.2,3.877l3.188,1.841c0-1.579,3.191-.793,3.2-4.2.009-2.973-2.255-5.882-4.524-7.192" fill="#fff"/>
        </g>
        <g id="Grupo_87642" data-name="Grupo 87642">
          <g id="Grupo_87640" data-name="Grupo 87640">
            <path id="Trazado_101724" data-name="Trazado 101724" d="M336.672,194.683c-5.977-3.451-10.839-.68-10.858,6.188s4.811,15.233,10.787,18.684,10.838.684,10.858-6.188-4.811-15.233-10.787-18.684" fill="#6ae2cb"/>
          </g>
          <g id="Grupo_87641" data-name="Grupo 87641">
            <path id="Trazado_101725" data-name="Trazado 101725" d="M336.624,211.373a8.123,8.123,0,0,1-3.689-6.39c.006-2.347,1.667-3.293,3.713-2.112a8.131,8.131,0,0,1,3.689,6.386c-.007,2.351-1.671,3.295-3.713,2.116m.91-11.023-1.755-1.013-.251,1.424a3.587,3.587,0,0,0-1.6-.162l-1.135-1.562-1.245.705.788,1.768a3.458,3.458,0,0,0-.67,1.452l-1.365-.5-.006,2.012,1.364,1.071a10.386,10.386,0,0,0,.659,2.219l-.8.85,1.236,2.142,1.141-.249a10.646,10.646,0,0,0,1.594,1.682l.243,1.71,1.754,1.013.248-1.427a3.6,3.6,0,0,0,1.6.164l1.135,1.563,1.245-.71-.788-1.764a3.515,3.515,0,0,0,.67-1.451l1.361.5.006-2.012-1.36-1.07a10.521,10.521,0,0,0-.66-2.218l.8-.855-1.237-2.137-1.14.248a10.779,10.779,0,0,0-1.6-1.684l-.239-1.707" fill="#fff"/>
            <path id="Trazado_101726" data-name="Trazado 101726" d="M336.642,204.943c-1.049-.606-1.9-.118-1.9,1.083a4.155,4.155,0,0,0,1.889,3.272c1.045.6,1.9.121,1.9-1.084a4.168,4.168,0,0,0-1.889-3.271" fill="#fff"/>
          </g>
        </g>
        <g id="Grupo_87645" data-name="Grupo 87645">
          <g id="Grupo_87643" data-name="Grupo 87643">
            <ellipse id="Elipse_4779" data-name="Elipse 4779" cx="8.836" cy="15.256" rx="8.836" ry="15.256" transform="matrix(0.865, -0.502, 0.502, 0.865, 321.331, 164.076)" fill="#7798d9"/>
          </g>
          <g id="Grupo_87644" data-name="Grupo 87644">
            <path id="Trazado_101727" data-name="Trazado 101727" d="M331.818,174.972l3.984-1.959.266.449a1.669,1.669,0,0,0,.564.577.621.621,0,0,0,.567.076l.255-.137,3.949,6.529-9.585-5.535m-.447-.975.024-8.506,3.864,6.593L331.371,174m10.507,6.09L338,173.679l3.9-2.122-.024,8.53m-.338-10.21-9.777-5.645c-.446-.257-.831-.176-1.014.156l.007.012a.983.983,0,0,0-.121.5l-.026,8.951a2.471,2.471,0,0,0,1.121,1.944l9.777,5.645a.849.849,0,0,0,.71.114l.007,0a.7.7,0,0,0,.131-.066l.013-.012a.469.469,0,0,0,.1-.1l.014-.016a.949.949,0,0,0,.156-.557l.025-8.95a2.024,2.024,0,0,0-.118-.64l.007,0a2.476,2.476,0,0,0-1.012-1.326" fill="#fff"/>
          </g>
        </g>
      </g>
      <path id="Trazado_101728" data-name="Trazado 101728" d="M296.044,93.629,488.518,204.908l.043-13.365-192.47-112.6Z" fill="#1d2540"/>
      <path id="Trazado_101729" data-name="Trazado 101729" d="M484.162,192.445,301.69,85.7a1.745,1.745,0,0,0-2.626,1.5l-.01,3.08a2.8,2.8,0,0,0,1.4,2.436L483.03,198.269a1.675,1.675,0,0,0,2.514-1.445l.006-1.949A2.806,2.806,0,0,0,484.162,192.445Z" fill="#121726"/>
      <g id="Grupo_87647" data-name="Grupo 87647" opacity="0.05" style="mix-blend-mode: hard-light;isolation: isolate">
        <path id="Trazado_101730" data-name="Trazado 101730" d="M317.52,85.794,292.012,97.583l-.3,97.391,118.678-54.847Z" fill="#fff"/>
        <path id="Trazado_101731" data-name="Trazado 101731" d="M425.873,149.182,296.131,209.143l23.95,13.847L449.666,163.1Z" fill="#fff"/>
        <path id="Trazado_101732" data-name="Trazado 101732" d="M465.145,172.156,335.662,232l93.487,54.049,63.22-29.217.207-68.626Z" fill="#fff"/>
        <path id="Trazado_101733" data-name="Trazado 101733" d="M468.68,308.9l23.564-10.89.075-24.95L444.73,295.055Z" fill="#fff"/>
      </g>
      <g id="Grupo_87648" data-name="Grupo 87648">
        <path id="Trazado_101734" data-name="Trazado 101734" d="M495.279,336.488,374.768,406.032a9.009,9.009,0,0,1-9.033-.015l-196.2-114.073a9.01,9.01,0,0,1,.025-15.594l110.35-63.681a9.009,9.009,0,0,1,9.033.015L495.285,332.653A2.216,2.216,0,0,1,495.279,336.488Z" fill="#cadeff"/>
      </g>
      <g id="Grupo_87649" data-name="Grupo 87649">
        <path id="Trazado_101735" data-name="Trazado 101735" d="M330.275,341.087l-30.116,17.83a2.417,2.417,0,0,1-2.423,0l-52.73-30.443a2.418,2.418,0,0,1-.006-4.184l28.858-16.328a2.417,2.417,0,0,1,2.423,0l53.993,32.1A.594.594,0,0,1,330.275,341.087Z" fill="#fff8ff"/>
      </g>
      <g id="Grupo_87650" data-name="Grupo 87650">
        <path id="Trazado_101736" data-name="Trazado 101736" d="M285.363,230.7l6.686,3.847a3.3,3.3,0,0,0,2.962-.029l3.4-1.947c.832-.476.855-1.235.052-1.694l-6.7-3.828a3.29,3.29,0,0,0-2.946.031l-3.39,1.933C284.6,229.485,284.567,230.24,285.363,230.7Z" fill="#7798d9"/>
        <path id="Trazado_101737" data-name="Trazado 101737" d="M297.158,237.484l6.767,3.893a3.309,3.309,0,0,0,2.984-.026l3.41-1.964c.835-.481.851-1.248.039-1.712l-6.779-3.875a3.307,3.307,0,0,0-2.968.029l-3.4,1.95C296.376,236.258,296.352,237.021,297.158,237.484Z" fill="#7798d9"/>
        <path id="Trazado_101738" data-name="Trazado 101738" d="M309.1,244.352l6.85,3.941a3.323,3.323,0,0,0,3.007-.024l3.421-1.982c.837-.485.848-1.26.025-1.73l-6.861-3.922a3.322,3.322,0,0,0-2.99.027l-3.412,1.967C308.3,243.112,308.28,243.883,309.1,244.352Z" fill="#7798d9"/>
        <path id="Trazado_101739" data-name="Trazado 101739" d="M321.179,251.3l6.933,3.989a3.339,3.339,0,0,0,3.031-.022l3.431-2c.84-.49.845-1.273.012-1.749l-6.945-3.97a3.339,3.339,0,0,0-3.013.025l-3.423,1.985C320.366,250.05,320.354,250.829,321.179,251.3Z" fill="#7798d9"/>
        <path id="Trazado_101740" data-name="Trazado 101740" d="M333.411,258.341l7.019,4.038a3.354,3.354,0,0,0,3.053-.019l3.442-2.018a.933.933,0,0,0,0-1.767l-7.03-4.019a3.356,3.356,0,0,0-3.036.022l-3.433,2C332.582,257.073,332.575,257.861,333.411,258.341Z" fill="#7798d9"/>
        <path id="Trazado_101741" data-name="Trazado 101741" d="M345.793,265.465l7.107,4.089a3.373,3.373,0,0,0,3.077-.017l3.453-2.036a.945.945,0,0,0-.017-1.787l-7.117-4.068a3.375,3.375,0,0,0-3.06.019l-3.444,2.022A.941.941,0,0,0,345.793,265.465Z" fill="#7798d9"/>
        <path id="Trazado_101742" data-name="Trazado 101742" d="M358.33,272.678l7.2,4.139a3.39,3.39,0,0,0,3.1-.013l3.464-2.056a.956.956,0,0,0-.031-1.806l-7.206-4.119a3.391,3.391,0,0,0-3.084.017l-3.454,2.04A.952.952,0,0,0,358.33,272.678Z" fill="#7798d9"/>
        <path id="Trazado_101743" data-name="Trazado 101743" d="M371.023,279.981l7.286,4.191a3.408,3.408,0,0,0,3.126-.011l3.474-2.075c.85-.507.829-1.325-.046-1.825l-7.3-4.171a3.405,3.405,0,0,0-3.107.014l-3.465,2.059A.964.964,0,0,0,371.023,279.981Z" fill="#7798d9"/>
        <path id="Trazado_101744" data-name="Trazado 101744" d="M383.877,287.375l7.377,4.245a3.43,3.43,0,0,0,3.151-.008l3.485-2.094c.853-.513.825-1.339-.061-1.846l-7.389-4.223a3.42,3.42,0,0,0-3.132.011l-3.476,2.078C382.979,286.048,383,286.87,383.877,287.375Z" fill="#7798d9"/>
        <path id="Trazado_101745" data-name="Trazado 101745" d="M396.892,294.864l7.472,4.3a3.445,3.445,0,0,0,3.176,0l3.495-2.114c.856-.518.821-1.353-.076-1.866l-7.483-4.277a3.442,3.442,0,0,0-3.157.008l-3.487,2.1C395.977,293.521,396,294.352,396.892,294.864Z" fill="#7798d9"/>
        <path id="Trazado_101746" data-name="Trazado 101746" d="M410.074,302.448l7.567,4.353a3.466,3.466,0,0,0,3.2,0l3.506-2.134c.858-.523.816-1.368-.093-1.887l-7.578-4.332a3.46,3.46,0,0,0-3.182,0l-3.5,2.118C409.14,301.088,409.174,301.93,410.074,302.448Z" fill="#7798d9"/>
        <path id="Trazado_101747" data-name="Trazado 101747" d="M423.425,310.129l7.664,4.409a3.484,3.484,0,0,0,3.228,0l3.517-2.155c.861-.527.812-1.382-.109-1.908l-7.676-4.388a3.481,3.481,0,0,0-3.208,0l-3.508,2.138C422.472,308.754,422.513,309.6,423.425,310.129Z" fill="#7798d9"/>
        <path id="Trazado_101748" data-name="Trazado 101748" d="M436.948,317.909l7.764,4.466a3.5,3.5,0,0,0,3.254,0l3.528-2.175c.863-.533.806-1.4-.126-1.93l-7.776-4.444a3.5,3.5,0,0,0-3.234,0l-3.519,2.159C435.976,316.517,436.024,317.377,436.948,317.909Z" fill="#7798d9"/>
        <path id="Trazado_101749" data-name="Trazado 101749" d="M465.188,326.174l-7.877-4.5a3.517,3.517,0,0,0-3.26,0l-3.53,2.18c-.866.535-.81,1.405.126,1.943l7.865,4.525a3.519,3.519,0,0,0,3.281.007l3.539-2.2C466.2,327.588,466.133,326.714,465.188,326.174Z" fill="#7798d9"/>
        <path id="Trazado_101750" data-name="Trazado 101750" d="M274.237,237.457l6.131,3.569a4.1,4.1,0,0,0,3.7-.034l6.178-3.538c1.043-.6,1.076-1.55.075-2.126l-6.147-3.543a4.1,4.1,0,0,0-3.682.038l-6.161,3.512C273.291,235.931,273.246,236.88,274.237,237.457Z" fill="#7798d9"/>
        <path id="Trazado_101751" data-name="Trazado 101751" d="M301.734,241.9l-6.219-3.584a4.118,4.118,0,0,0-3.709.035l-6.18,3.542c-1.047.6-1.085,1.56-.082,2.143l6.2,3.611a4.114,4.114,0,0,0,3.731-.031l6.2-3.568C302.72,243.447,302.746,242.485,301.734,241.9Z" fill="#7798d9"/>
        <path id="Trazado_101752" data-name="Trazado 101752" d="M313.276,248.552l-6.292-3.625a4.134,4.134,0,0,0-3.736.032l-6.2,3.573c-1.05.6-1.081,1.574-.067,2.165l6.276,3.652a4.133,4.133,0,0,0,3.758-.027l6.215-3.6C314.281,250.114,314.3,249.143,313.276,248.552Z" fill="#7798d9"/>
        <path id="Trazado_101753" data-name="Trazado 101753" d="M279.709,254.07l6.219,3.663a4.111,4.111,0,0,0,3.75-.026l6.241-3.6c1.054-.608,1.084-1.582.069-2.174l-6.237-3.636a4.112,4.112,0,0,0-3.727.03L279.8,251.9C278.745,252.506,278.7,253.478,279.709,254.07Z" fill="#7798d9"/>
        <path id="Trazado_101754" data-name="Trazado 101754" d="M262.689,244.046l11.408,6.718a4.084,4.084,0,0,0,3.721-.029l6.221-3.572c1.051-.6,1.088-1.567.085-2.152l-11.439-6.668a4.081,4.081,0,0,0-3.687.034l-6.195,3.532C261.753,242.508,261.7,243.464,262.689,244.046Z" fill="#7798d9"/>
        <path id="Trazado_101755" data-name="Trazado 101755" d="M307.54,258.663l-6.31-3.678a4.125,4.125,0,0,0-3.754.027l-6.244,3.609c-1.058.611-1.092,1.592-.075,2.191l6.293,3.707a4.13,4.13,0,0,0,3.777-.023l6.26-3.636C308.544,260.246,308.567,259.262,307.54,258.663Z" fill="#7798d9"/>
        <path id="Trazado_101756" data-name="Trazado 101756" d="M319.229,265.478l-6.385-3.722a4.146,4.146,0,0,0-3.782.024l-6.262,3.64c-1.062.617-1.089,1.608-.06,2.214l6.368,3.751a4.149,4.149,0,0,0,3.8-.02l6.279-3.668C320.252,267.077,320.268,266.084,319.229,265.478Z" fill="#7798d9"/>
        <path id="Trazado_101757" data-name="Trazado 101757" d="M331.056,272.373l-6.46-3.766a4.168,4.168,0,0,0-3.81.021L314.5,272.3c-1.065.623-1.085,1.624-.043,2.237l6.443,3.8a4.169,4.169,0,0,0,3.834-.016l6.3-3.7A1.189,1.189,0,0,0,331.056,272.373Z" fill="#7798d9"/>
        <path id="Trazado_101758" data-name="Trazado 101758" d="M343.025,279.351l-6.538-3.811a4.189,4.189,0,0,0-3.838.017l-6.3,3.7a1.2,1.2,0,0,0-.027,2.261l6.521,3.84a4.187,4.187,0,0,0,3.863-.013l6.317-3.733A1.2,1.2,0,0,0,343.025,279.351Z" fill="#7798d9"/>
        <path id="Trazado_101759" data-name="Trazado 101759" d="M355.138,286.413l-6.617-3.857a4.207,4.207,0,0,0-3.867.014l-6.32,3.738a1.214,1.214,0,0,0-.01,2.284l6.6,3.887a4.208,4.208,0,0,0,3.892-.01l6.337-3.767A1.216,1.216,0,0,0,355.138,286.413Z" fill="#7798d9"/>
        <path id="Trazado_101760" data-name="Trazado 101760" d="M367.4,293.56l-6.7-3.9a4.233,4.233,0,0,0-3.9.011l-6.339,3.772a1.228,1.228,0,0,0,.008,2.308l6.679,3.934a4.231,4.231,0,0,0,3.922-.006l6.356-3.8A1.231,1.231,0,0,0,367.4,293.56Z" fill="#7798d9"/>
        <path id="Trazado_101761" data-name="Trazado 101761" d="M379.806,300.8l-6.778-3.952a4.251,4.251,0,0,0-3.926.007l-6.359,3.806a1.243,1.243,0,0,0,.025,2.333l6.762,3.982a4.246,4.246,0,0,0,3.951,0l6.376-3.835A1.245,1.245,0,0,0,379.806,300.8Z" fill="#7798d9"/>
        <path id="Trazado_101762" data-name="Trazado 101762" d="M375.215,310.319l6.844,4.031a4.272,4.272,0,0,0,3.982,0l6.4-3.87c1.08-.654,1.048-1.712-.07-2.364l-6.861-4a4.274,4.274,0,0,0-3.956,0l-6.378,3.841A1.257,1.257,0,0,0,375.215,310.319Z" fill="#7798d9"/>
        <path id="Trazado_101763" data-name="Trazado 101763" d="M405.17,317.919c1.083-.66,1.043-1.729-.088-2.389l-6.946-4.049a4.293,4.293,0,0,0-3.987,0l-6.4,3.876c-1.085.657-1.057,1.724.062,2.383l6.929,4.081a4.3,4.3,0,0,0,4.013,0Z" fill="#7798d9"/>
        <path id="Trazado_101764" data-name="Trazado 101764" d="M418.063,325.45c1.086-.666,1.037-1.747-.108-2.415l-7.033-4.1a4.316,4.316,0,0,0-4.017,0l-6.417,3.912c-1.088.663-1.052,1.741.082,2.409l7.015,4.131a4.317,4.317,0,0,0,4.044.009Z" fill="#7798d9"/>
        <path id="Trazado_101765" data-name="Trazado 101765" d="M413.485,332.859l7.1,4.183a4.338,4.338,0,0,0,4.076.013l6.452-3.98c1.09-.672,1.031-1.765-.128-2.441l-7.12-4.151a4.335,4.335,0,0,0-4.049-.007l-6.436,3.948C412.292,331.093,412.337,332.183,413.485,332.859Z" fill="#7798d9"/>
        <path id="Trazado_101766" data-name="Trazado 101766" d="M271.057,260.326c-1.062.611-1.109,1.592-.1,2.191l6.219,3.706a4.1,4.1,0,0,0,3.762-.022l6.281-3.633c1.061-.613,1.1-1.6.081-2.2l-6.236-3.679a4.1,4.1,0,0,0-3.739.026Z" fill="#7798d9"/>
        <path id="Trazado_101767" data-name="Trazado 101767" d="M251.077,250.672l14.436,8.6a4.081,4.081,0,0,0,3.734-.025l6.261-3.6c1.057-.608,1.1-1.581.1-2.173l-14.476-8.54a4.067,4.067,0,0,0-3.692.032l-6.23,3.552C250.152,249.121,250.093,250.085,251.077,250.672Z" fill="#7798d9"/>
        <path id="Trazado_101768" data-name="Trazado 101768" d="M282.488,267.125c-1.065.617-1.105,1.608-.088,2.213l6.292,3.75a4.116,4.116,0,0,0,3.789-.018l6.3-3.665c1.064-.619,1.092-1.612.065-2.218l-6.309-3.722a4.119,4.119,0,0,0-3.767.023Z" fill="#7798d9"/>
        <path id="Trazado_101769" data-name="Trazado 101769" d="M293.981,276.241l6.368,3.794a4.134,4.134,0,0,0,3.817-.015l6.32-3.7c1.068-.625,1.089-1.628.049-2.241l-6.384-3.767a4.138,4.138,0,0,0-3.794.021l-6.3,3.669C292.985,274.627,292.952,275.628,293.981,276.241Z" fill="#7798d9"/>
        <path id="Trazado_101770" data-name="Trazado 101770" d="M305.7,283.226l6.444,3.84a4.158,4.158,0,0,0,3.846-.013l6.34-3.73c1.07-.63,1.084-1.644.032-2.264l-6.461-3.811a4.157,4.157,0,0,0-3.822.016l-6.323,3.7C304.686,281.594,304.66,282.605,305.7,283.226Z" fill="#7798d9"/>
        <path id="Trazado_101771" data-name="Trazado 101771" d="M317.562,290.294l6.521,3.886a4.176,4.176,0,0,0,3.875-.009l6.359-3.763a1.217,1.217,0,0,0,.016-2.288l-6.538-3.857a4.177,4.177,0,0,0-3.851.013l-6.343,3.735A1.216,1.216,0,0,0,317.562,290.294Z" fill="#7798d9"/>
        <path id="Trazado_101772" data-name="Trazado 101772" d="M329.565,297.448l6.6,3.933a4.2,4.2,0,0,0,3.9-.005l6.379-3.8a1.231,1.231,0,0,0,0-2.312l-6.617-3.9a4.2,4.2,0,0,0-3.88.01l-6.362,3.769A1.23,1.23,0,0,0,329.565,297.448Z" fill="#7798d9"/>
        <path id="Trazado_101773" data-name="Trazado 101773" d="M341.715,304.688l6.68,3.982a4.223,4.223,0,0,0,3.935,0l6.4-3.832a1.246,1.246,0,0,0-.019-2.337l-6.7-3.951a4.218,4.218,0,0,0-3.91.007l-6.381,3.8A1.243,1.243,0,0,0,341.715,304.688Z" fill="#7798d9"/>
        <path id="Trazado_101774" data-name="Trazado 101774" d="M354.012,312.017l6.763,4.031a4.24,4.24,0,0,0,3.965,0l6.418-3.867a1.26,1.26,0,0,0-.038-2.362l-6.78-4a4.239,4.239,0,0,0-3.939,0l-6.4,3.837A1.258,1.258,0,0,0,354.012,312.017Z" fill="#7798d9"/>
        <path id="Trazado_101775" data-name="Trazado 101775" d="M366.461,319.436l6.847,4.08a4.261,4.261,0,0,0,3.995.006l6.438-3.9a1.276,1.276,0,0,0-.057-2.387l-6.864-4.049a4.26,4.26,0,0,0-3.969,0l-6.421,3.872A1.273,1.273,0,0,0,366.461,319.436Z" fill="#7798d9"/>
        <path id="Trazado_101776" data-name="Trazado 101776" d="M379.064,326.947l6.931,4.131a4.283,4.283,0,0,0,4.027.009l6.457-3.939c1.091-.665,1.056-1.746-.076-2.413l-6.948-4.1a4.284,4.284,0,0,0-4,0l-6.44,3.908A1.288,1.288,0,0,0,379.064,326.947Z" fill="#7798d9"/>
        <path id="Trazado_101777" data-name="Trazado 101777" d="M402.9,338.747l6.477-3.976c1.093-.671,1.05-1.764-.1-2.439l-7.035-4.15a4.3,4.3,0,0,0-4.032-.008l-6.46,3.944c-1.094.668-1.064,1.758.07,2.433l7.018,4.183A4.305,4.305,0,0,0,402.9,338.747Z" fill="#7798d9"/>
        <path id="Trazado_101778" data-name="Trazado 101778" d="M432.124,345.807l-16.771-9.894a4.328,4.328,0,0,0-4.064-.012l-6.479,3.982c-1.1.675-1.059,1.776.089,2.461l16.731,9.971a4.344,4.344,0,0,0,4.115.02l6.511-4.041C433.355,347.611,433.3,346.5,432.124,345.807Z" fill="#7798d9"/>
        <path id="Trazado_101779" data-name="Trazado 101779" d="M265.15,272.864l6.237,3.761a4.093,4.093,0,0,0,3.781-.017l6.327-3.67c1.069-.62,1.108-1.616.09-2.223l-6.254-3.734a4.1,4.1,0,0,0-3.759.022l-6.309,3.642C264.193,271.263,264.142,272.256,265.15,272.864Z" fill="#7798d9"/>
        <path id="Trazado_101780" data-name="Trazado 101780" d="M244.148,262.535l-7.288-4.4a2.653,2.653,0,0,0-2.435.017l-9.26,5.279c-.7.4-.753,1.045-.11,1.438l7.262,4.442a2.652,2.652,0,0,0,2.452-.013l9.286-5.319C244.757,263.573,244.8,262.928,244.148,262.535Z" fill="#7798d9"/>
        <path id="Trazado_101781" data-name="Trazado 101781" d="M255.44,269.359l-7.373-4.456a2.666,2.666,0,0,0-2.454.015l-9.29,5.325c-.705.4-.751,1.055-.1,1.453l7.349,4.495a2.666,2.666,0,0,0,2.47-.012l9.315-5.365C256.062,270.408,256.1,269.757,255.44,269.359Z" fill="#7798d9"/>
        <path id="Trazado_101782" data-name="Trazado 101782" d="M266.866,276.264l-7.461-4.509a2.679,2.679,0,0,0-2.471.013l-9.32,5.372c-.708.408-.748,1.065-.09,1.468l7.436,4.548a2.679,2.679,0,0,0,2.488-.009l9.346-5.413C267.5,277.325,267.532,276.666,266.866,276.264Z" fill="#7798d9"/>
        <path id="Trazado_101783" data-name="Trazado 101783" d="M281.088,284.858l-10.209-6.169a2.7,2.7,0,0,0-2.49.01l-9.349,5.42c-.71.412-.747,1.075-.08,1.483l10.176,6.224a2.692,2.692,0,0,0,2.51-.007l9.382-5.472C281.738,285.933,281.764,285.267,281.088,284.858Z" fill="#7798d9"/>
        <path id="Trazado_101784" data-name="Trazado 101784" d="M356.763,330.59l-11.014-6.656a2.773,2.773,0,0,0-2.61,0l-9.536,5.734a.851.851,0,0,0-.011,1.585l10.98,6.716a2.78,2.78,0,0,0,2.633.008l9.569-5.793A.852.852,0,0,0,356.763,330.59Z" fill="#7798d9"/>
        <path id="Trazado_101785" data-name="Trazado 101785" d="M369.492,338.282l-8.138-4.918a2.8,2.8,0,0,0-2.635-.007l-9.574,5.8a.864.864,0,0,0,0,1.606l8.114,4.963a2.794,2.794,0,0,0,2.654.011l9.6-5.848A.863.863,0,0,0,369.492,338.282Z" fill="#7798d9"/>
        <path id="Trazado_101786" data-name="Trazado 101786" d="M376.293,349.845l-8.229-5a2.8,2.8,0,0,0-2.658-.01l-3.489,2.127a.874.874,0,0,0,.016,1.624l8.217,5.026a2.806,2.806,0,0,0,2.675.013l3.5-2.144A.879.879,0,0,0,376.293,349.845Z" fill="#7798d9"/>
        <path id="Trazado_101787" data-name="Trazado 101787" d="M402.416,365.727l-8.439-5.131a2.832,2.832,0,0,0-2.7-.017l-3.511,2.169a.9.9,0,0,0,.042,1.66l8.428,5.155a2.839,2.839,0,0,0,2.718.019l3.521-2.186C403.208,366.94,403.183,366.192,402.416,365.727Z" fill="#7798d9"/>
        <path id="Trazado_101788" data-name="Trazado 101788" d="M389.272,357.736l-8.333-5.067a2.821,2.821,0,0,0-2.68-.013l-3.5,2.148a.885.885,0,0,0,.03,1.642l8.321,5.089a2.823,2.823,0,0,0,2.7.017l3.51-2.166A.889.889,0,0,0,389.272,357.736Z" fill="#7798d9"/>
        <path id="Trazado_101789" data-name="Trazado 101789" d="M381.619,352.251l8.335,5.064a2.829,2.829,0,0,0,2.695.015l3.5-2.158c.729-.45.706-1.186-.051-1.643l-8.347-5.041a2.82,2.82,0,0,0-2.677-.012l-3.489,2.14A.88.88,0,0,0,381.619,352.251Z" fill="#7798d9"/>
        <path id="Trazado_101790" data-name="Trazado 101790" d="M340.855,320.976,285.111,287.29a2.7,2.7,0,0,0-2.512.008l-9.386,5.478c-.713.416-.743,1.089-.068,1.5l55.568,33.986a2.762,2.762,0,0,0,2.607,0l9.531-5.725A.84.84,0,0,0,340.855,320.976Z" fill="#7798d9"/>
        <path id="Trazado_101791" data-name="Trazado 101791" d="M239.4,257.334l19.806,11.944a4.071,4.071,0,0,0,3.751-.02l6.306-3.636c1.065-.614,1.112-1.6.106-2.2l-19.861-11.856a4.056,4.056,0,0,0-3.7.028l-6.264,3.572C238.485,255.772,238.419,256.742,239.4,257.334Z" fill="#7798d9"/>
        <path id="Trazado_101792" data-name="Trazado 101792" d="M276.63,279.787l6.311,3.806a4.109,4.109,0,0,0,3.809-.014l6.347-3.7c1.072-.626,1.1-1.631.074-2.247l-6.329-3.777a4.113,4.113,0,0,0-3.786.018l-6.329,3.675C275.654,278.169,275.61,279.172,276.63,279.787Z" fill="#7798d9"/>
        <path id="Trazado_101793" data-name="Trazado 101793" d="M288.247,286.793l6.386,3.852a4.133,4.133,0,0,0,3.838-.011l6.367-3.736c1.075-.631,1.1-1.647.057-2.269l-6.4-3.823a4.131,4.131,0,0,0-3.814.015l-6.35,3.708C287.251,285.157,287.215,286.17,288.247,286.793Z" fill="#7798d9"/>
        <path id="Trazado_101794" data-name="Trazado 101794" d="M300,293.883l6.463,3.9a4.151,4.151,0,0,0,3.867-.007l6.387-3.769a1.222,1.222,0,0,0,.04-2.294l-6.481-3.868a4.152,4.152,0,0,0-3.843.011l-6.369,3.741C298.988,292.228,298.958,293.253,300,293.883Z" fill="#7798d9"/>
        <path id="Trazado_101795" data-name="Trazado 101795" d="M311.9,301.058,318.442,305a4.173,4.173,0,0,0,3.9,0l6.407-3.8a1.236,1.236,0,0,0,.023-2.318l-6.559-3.915a4.171,4.171,0,0,0-3.871.008l-6.39,3.774A1.234,1.234,0,0,0,311.9,301.058Z" fill="#7798d9"/>
        <path id="Trazado_101796" data-name="Trazado 101796" d="M323.943,308.321l6.621,3.993a4.19,4.19,0,0,0,3.926,0l6.427-3.837a1.251,1.251,0,0,0,.006-2.343l-6.64-3.963a4.192,4.192,0,0,0-3.9.005l-6.41,3.808A1.249,1.249,0,0,0,323.943,308.321Z" fill="#7798d9"/>
        <path id="Trazado_101797" data-name="Trazado 101797" d="M336.132,315.672l6.7,4.043a4.214,4.214,0,0,0,3.956,0l6.446-3.873a1.265,1.265,0,0,0-.012-2.367l-6.72-4.012a4.215,4.215,0,0,0-3.931,0l-6.429,3.842A1.263,1.263,0,0,0,336.132,315.672Z" fill="#7798d9"/>
        <path id="Trazado_101798" data-name="Trazado 101798" d="M348.471,323.114l6.786,4.092a4.236,4.236,0,0,0,3.987.008l6.466-3.909a1.281,1.281,0,0,0-.03-2.393l-6.8-4.061a4.235,4.235,0,0,0-3.961,0l-6.449,3.878A1.278,1.278,0,0,0,348.471,323.114Z" fill="#7798d9"/>
        <path id="Trazado_101799" data-name="Trazado 101799" d="M360.963,330.647l6.87,4.144a4.256,4.256,0,0,0,4.018.011l6.486-3.945a1.3,1.3,0,0,0-.049-2.419l-6.888-4.111a4.253,4.253,0,0,0-3.991-.006l-6.469,3.913A1.293,1.293,0,0,0,360.963,330.647Z" fill="#7798d9"/>
        <path id="Trazado_101800" data-name="Trazado 101800" d="M391.053,336.058l-6.974-4.163a4.275,4.275,0,0,0-4.022-.009l-6.489,3.949a1.31,1.31,0,0,0,.042,2.44l6.956,4.2a4.279,4.279,0,0,0,4.049.015l6.506-3.982C392.22,337.831,392.189,336.736,391.053,336.058Z" fill="#7798d9"/>
        <path id="Trazado_101801" data-name="Trazado 101801" d="M420.293,353.512l-23.376-13.954a4.3,4.3,0,0,0-4.054-.013l-6.509,3.987a1.325,1.325,0,0,0,.062,2.466l23.318,14.063a4.33,4.33,0,0,0,4.122.025l6.551-4.068C421.513,355.332,421.461,354.209,420.293,353.512Z" fill="#7798d9"/>
        <path id="Trazado_101802" data-name="Trazado 101802" d="M444.185,338.328l-7.21-4.2a4.362,4.362,0,0,0-4.081-.011l-6.455,3.985c-1.094.676-1.04,1.778.122,2.462l7.193,4.237a4.363,4.363,0,0,0,4.108.016l6.472-4.017C445.426,340.117,445.359,339.012,444.185,338.328Z" fill="#7798d9"/>
        <path id="Trazado_101803" data-name="Trazado 101803" d="M324.953,255.281l-6.366-3.668a4.153,4.153,0,0,0-3.763.029l-6.217,3.6c-1.054.611-1.078,1.59-.052,2.187l6.35,3.7a4.155,4.155,0,0,0,3.786-.024l6.234-3.632C325.978,256.86,325.99,255.879,324.953,255.281Z" fill="#7798d9"/>
        <path id="Trazado_101804" data-name="Trazado 101804" d="M336.769,262.09l-6.441-3.712a4.174,4.174,0,0,0-3.791.026L320.3,262.04c-1.057.616-1.073,1.6-.035,2.209l6.425,3.74a4.173,4.173,0,0,0,3.814-.021l6.253-3.663C337.813,263.686,337.818,262.694,336.769,262.09Z" fill="#7798d9"/>
        <path id="Trazado_101805" data-name="Trazado 101805" d="M348.726,268.98l-6.518-3.756a4.2,4.2,0,0,0-3.819.022l-6.256,3.668a1.183,1.183,0,0,0-.019,2.233l6.5,3.784a4.2,4.2,0,0,0,3.843-.018l6.272-3.7A1.184,1.184,0,0,0,348.726,268.98Z" fill="#7798d9"/>
        <path id="Trazado_101806" data-name="Trazado 101806" d="M360.826,275.952l-6.6-3.8a4.214,4.214,0,0,0-3.847.019l-6.275,3.7a1.2,1.2,0,0,0,0,2.256l6.579,3.83a4.217,4.217,0,0,0,3.872-.014l6.291-3.729A1.2,1.2,0,0,0,360.826,275.952Z" fill="#7798d9"/>
        <path id="Trazado_101807" data-name="Trazado 101807" d="M373.071,283.008l-6.676-3.847a4.236,4.236,0,0,0-3.877.016l-6.293,3.733a1.21,1.21,0,0,0,.016,2.28l6.659,3.876a4.238,4.238,0,0,0,3.9-.011l6.31-3.762A1.212,1.212,0,0,0,373.071,283.008Z" fill="#7798d9"/>
        <path id="Trazado_101808" data-name="Trazado 101808" d="M385.465,290.15l-6.757-3.894a4.257,4.257,0,0,0-3.906.013l-6.313,3.767a1.224,1.224,0,0,0,.034,2.3l6.741,3.924a4.256,4.256,0,0,0,3.93-.008l6.329-3.8C386.592,291.817,386.565,290.784,385.465,290.15Z" fill="#7798d9"/>
        <path id="Trazado_101809" data-name="Trazado 101809" d="M398.01,297.378l-6.84-3.941a4.275,4.275,0,0,0-3.935.01l-6.332,3.8c-1.073.644-1.05,1.686.052,2.328l6.823,3.971a4.278,4.278,0,0,0,3.961,0l6.348-3.831C399.159,299.065,399.124,298.02,398.01,297.378Z" fill="#7798d9"/>
        <path id="Trazado_101810" data-name="Trazado 101810" d="M410.709,304.7l-6.924-3.99a4.3,4.3,0,0,0-3.966.006l-6.35,3.836c-1.076.65-1.045,1.7.071,2.353l6.907,4.02a4.3,4.3,0,0,0,3.991,0l6.367-3.866C411.88,306.4,411.836,305.346,410.709,304.7Z" fill="#7798d9"/>
        <path id="Trazado_101811" data-name="Trazado 101811" d="M413.272,318.387a4.323,4.323,0,0,0,4.023,0l6.385-3.9c1.079-.659,1.026-1.727-.115-2.384l-7.01-4.039a4.317,4.317,0,0,0-4,0l-6.37,3.871c-1.079.656-1.04,1.721.09,2.379Z" fill="#7798d9"/>
        <path id="Trazado_101812" data-name="Trazado 101812" d="M436.58,319.6l-7.1-4.089a4.344,4.344,0,0,0-4.028,0l-6.389,3.907c-1.082.662-1.034,1.738.11,2.4l7.08,4.121a4.345,4.345,0,0,0,4.054.007l6.4-3.938C437.8,321.349,437.736,320.27,436.58,319.6Z" fill="#7798d9"/>
        <path id="Trazado_101813" data-name="Trazado 101813" d="M457.251,331.514,442.136,322.8a2.786,2.786,0,0,0-2.588,0l-7.831,4.821c-.692.426-.656,1.12.083,1.549l15.08,8.778a2.794,2.794,0,0,0,2.616.009l7.862-4.882C458.05,332.647,458,331.947,457.251,331.514Z" fill="#7798d9"/>
      </g>
      <g id="Grupo_87651" data-name="Grupo 87651">
        <path id="Trazado_101814" data-name="Trazado 101814" d="M285.363,230.184l6.686,3.847a3.3,3.3,0,0,0,2.962-.029l3.4-1.947c.832-.476.855-1.235.052-1.694l-6.7-3.828a3.29,3.29,0,0,0-2.946.031l-3.39,1.933C284.6,228.971,284.567,229.726,285.363,230.184Z" fill="#fff8ff"/>
        <path id="Trazado_101815" data-name="Trazado 101815" d="M297.158,236.97l6.767,3.893a3.31,3.31,0,0,0,2.984-.026l3.41-1.964c.835-.481.851-1.248.039-1.712l-6.779-3.875a3.307,3.307,0,0,0-2.968.029l-3.4,1.95C296.376,235.743,296.352,236.507,297.158,236.97Z" fill="#fff8ff"/>
        <path id="Trazado_101816" data-name="Trazado 101816" d="M309.1,243.838l6.85,3.941a3.323,3.323,0,0,0,3.007-.024l3.421-1.982c.837-.485.848-1.26.025-1.73l-6.861-3.922a3.319,3.319,0,0,0-2.99.027l-3.412,1.967C308.3,242.6,308.28,243.369,309.1,243.838Z" fill="#fff8ff"/>
        <path id="Trazado_101817" data-name="Trazado 101817" d="M321.179,250.79l6.933,3.989a3.342,3.342,0,0,0,3.031-.022l3.431-2c.84-.489.845-1.272.012-1.748l-6.945-3.97a3.339,3.339,0,0,0-3.013.025l-3.423,1.985C320.366,249.536,320.354,250.315,321.179,250.79Z" fill="#fff8ff"/>
        <path id="Trazado_101818" data-name="Trazado 101818" d="M333.411,257.827l7.019,4.038a3.354,3.354,0,0,0,3.053-.019l3.442-2.018a.933.933,0,0,0,0-1.767l-7.03-4.019a3.356,3.356,0,0,0-3.036.022l-3.433,2C332.582,256.559,332.575,257.347,333.411,257.827Z" fill="#fff8ff"/>
        <path id="Trazado_101819" data-name="Trazado 101819" d="M345.793,264.951l7.107,4.089a3.374,3.374,0,0,0,3.077-.017l3.453-2.036a.945.945,0,0,0-.017-1.787l-7.117-4.068a3.372,3.372,0,0,0-3.06.019l-3.444,2.022A.941.941,0,0,0,345.793,264.951Z" fill="#fff8ff"/>
        <path id="Trazado_101820" data-name="Trazado 101820" d="M358.33,272.164l7.2,4.139a3.387,3.387,0,0,0,3.1-.014l3.464-2.055a.956.956,0,0,0-.031-1.806l-7.206-4.119a3.391,3.391,0,0,0-3.084.017l-3.454,2.04A.952.952,0,0,0,358.33,272.164Z" fill="#fff8ff"/>
        <path id="Trazado_101821" data-name="Trazado 101821" d="M371.023,279.467l7.286,4.191a3.408,3.408,0,0,0,3.126-.011l3.474-2.075c.85-.507.829-1.325-.046-1.825l-7.3-4.171a3.405,3.405,0,0,0-3.107.014l-3.465,2.059A.964.964,0,0,0,371.023,279.467Z" fill="#fff8ff"/>
        <path id="Trazado_101822" data-name="Trazado 101822" d="M383.877,286.861l7.377,4.245a3.43,3.43,0,0,0,3.151-.008L397.89,289c.853-.513.825-1.339-.061-1.846l-7.389-4.224a3.423,3.423,0,0,0-3.132.012l-3.476,2.078C382.979,285.534,383,286.356,383.877,286.861Z" fill="#fff8ff"/>
        <path id="Trazado_101823" data-name="Trazado 101823" d="M396.892,294.35l7.472,4.3a3.445,3.445,0,0,0,3.176-.005l3.495-2.114c.856-.518.821-1.353-.076-1.866l-7.483-4.277a3.442,3.442,0,0,0-3.157.008l-3.487,2.1C395.977,293.007,396,293.838,396.892,294.35Z" fill="#fff8ff"/>
        <path id="Trazado_101824" data-name="Trazado 101824" d="M410.074,301.933l7.567,4.354a3.466,3.466,0,0,0,3.2,0l3.506-2.135c.858-.522.816-1.367-.093-1.886l-7.578-4.332a3.457,3.457,0,0,0-3.182.005l-3.5,2.118C409.14,300.574,409.174,301.415,410.074,301.933Z" fill="#fff8ff"/>
        <path id="Trazado_101825" data-name="Trazado 101825" d="M423.425,309.614l7.664,4.41a3.484,3.484,0,0,0,3.228,0l3.517-2.155c.861-.527.812-1.382-.109-1.908l-7.676-4.387a3.475,3.475,0,0,0-3.208,0l-3.508,2.138C422.472,308.239,422.513,309.09,423.425,309.614Z" fill="#fff8ff"/>
        <path id="Trazado_101826" data-name="Trazado 101826" d="M436.948,317.395l7.764,4.466a3.5,3.5,0,0,0,3.254,0l3.528-2.175c.863-.533.806-1.4-.126-1.93l-7.776-4.444a3.5,3.5,0,0,0-3.234,0l-3.519,2.159C435.976,316,436.024,316.863,436.948,317.395Z" fill="#fff8ff"/>
        <path id="Trazado_101827" data-name="Trazado 101827" d="M465.188,325.659l-7.877-4.5a3.514,3.514,0,0,0-3.26,0l-3.53,2.179c-.866.535-.81,1.4.126,1.943l7.865,4.525a3.519,3.519,0,0,0,3.281.007l3.539-2.2C466.2,327.074,466.133,326.2,465.188,325.659Z" fill="#fff8ff"/>
        <path id="Trazado_101828" data-name="Trazado 101828" d="M274.237,236.943l6.131,3.569a4.1,4.1,0,0,0,3.7-.034l6.178-3.538c1.043-.6,1.076-1.549.075-2.126l-6.147-3.543a4.1,4.1,0,0,0-3.682.038l-6.161,3.512C273.291,235.416,273.246,236.366,274.237,236.943Z" fill="#fff8ff"/>
        <path id="Trazado_101829" data-name="Trazado 101829" d="M301.734,241.387l-6.219-3.583a4.115,4.115,0,0,0-3.709.035l-6.18,3.542c-1.047.6-1.085,1.56-.082,2.143l6.2,3.611a4.114,4.114,0,0,0,3.731-.031l6.2-3.569C302.72,242.933,302.746,241.971,301.734,241.387Z" fill="#fff8ff"/>
        <path id="Trazado_101830" data-name="Trazado 101830" d="M313.276,248.038l-6.292-3.625a4.134,4.134,0,0,0-3.736.032l-6.2,3.572c-1.05.606-1.081,1.575-.067,2.165l6.276,3.653a4.133,4.133,0,0,0,3.758-.027l6.215-3.6C314.281,249.6,314.3,248.628,313.276,248.038Z" fill="#fff8ff"/>
        <path id="Trazado_101831" data-name="Trazado 101831" d="M279.709,253.556l6.219,3.663a4.111,4.111,0,0,0,3.75-.026l6.241-3.6c1.054-.608,1.084-1.582.069-2.174l-6.237-3.636a4.112,4.112,0,0,0-3.727.03l-6.224,3.578C278.745,251.992,278.7,252.964,279.709,253.556Z" fill="#fff8ff"/>
        <path id="Trazado_101832" data-name="Trazado 101832" d="M262.689,243.532,274.1,250.25a4.084,4.084,0,0,0,3.721-.029l6.221-3.572c1.051-.6,1.088-1.567.085-2.152l-11.439-6.668a4.081,4.081,0,0,0-3.687.034L262.8,241.4C261.753,241.993,261.7,242.95,262.689,243.532Z" fill="#fff8ff"/>
        <path id="Trazado_101833" data-name="Trazado 101833" d="M307.54,258.149l-6.31-3.679a4.128,4.128,0,0,0-3.754.028l-6.244,3.608c-1.058.612-1.092,1.593-.075,2.192L297.45,264a4.127,4.127,0,0,0,3.777-.022l6.26-3.636C308.544,259.732,308.567,258.748,307.54,258.149Z" fill="#fff8ff"/>
        <path id="Trazado_101834" data-name="Trazado 101834" d="M319.229,264.964l-6.385-3.722a4.146,4.146,0,0,0-3.782.024l-6.262,3.64c-1.062.617-1.089,1.608-.06,2.214l6.368,3.751a4.152,4.152,0,0,0,3.8-.02l6.279-3.668C320.252,266.563,320.268,265.57,319.229,264.964Z" fill="#fff8ff"/>
        <path id="Trazado_101835" data-name="Trazado 101835" d="M331.056,271.859l-6.46-3.766a4.168,4.168,0,0,0-3.81.021l-6.282,3.672c-1.065.622-1.085,1.624-.043,2.237l6.443,3.795a4.169,4.169,0,0,0,3.834-.016l6.3-3.7A1.189,1.189,0,0,0,331.056,271.859Z" fill="#fff8ff"/>
        <path id="Trazado_101836" data-name="Trazado 101836" d="M343.025,278.837l-6.538-3.811a4.189,4.189,0,0,0-3.838.017l-6.3,3.7a1.2,1.2,0,0,0-.027,2.261l6.521,3.84a4.187,4.187,0,0,0,3.863-.013l6.317-3.733A1.2,1.2,0,0,0,343.025,278.837Z" fill="#fff8ff"/>
        <path id="Trazado_101837" data-name="Trazado 101837" d="M355.138,285.9l-6.617-3.857a4.207,4.207,0,0,0-3.867.014l-6.32,3.738a1.214,1.214,0,0,0-.01,2.284l6.6,3.887a4.208,4.208,0,0,0,3.892-.01l6.337-3.767A1.216,1.216,0,0,0,355.138,285.9Z" fill="#fff8ff"/>
        <path id="Trazado_101838" data-name="Trazado 101838" d="M367.4,293.046l-6.7-3.9a4.23,4.23,0,0,0-3.9.011l-6.339,3.772a1.228,1.228,0,0,0,.008,2.308l6.679,3.934a4.231,4.231,0,0,0,3.922-.006l6.356-3.8A1.231,1.231,0,0,0,367.4,293.046Z" fill="#fff8ff"/>
        <path id="Trazado_101839" data-name="Trazado 101839" d="M379.806,300.281l-6.778-3.952a4.251,4.251,0,0,0-3.926.007l-6.359,3.806a1.243,1.243,0,0,0,.025,2.333l6.762,3.982a4.252,4.252,0,0,0,3.951,0l6.376-3.835A1.245,1.245,0,0,0,379.806,300.281Z" fill="#fff8ff"/>
        <path id="Trazado_101840" data-name="Trazado 101840" d="M375.215,309.8l6.844,4.031a4.271,4.271,0,0,0,3.982,0l6.4-3.87c1.08-.654,1.048-1.712-.07-2.364l-6.861-4a4.274,4.274,0,0,0-3.956,0l-6.378,3.841A1.257,1.257,0,0,0,375.215,309.8Z" fill="#fff8ff"/>
        <path id="Trazado_101841" data-name="Trazado 101841" d="M405.17,317.4c1.083-.66,1.043-1.729-.088-2.389l-6.946-4.049a4.3,4.3,0,0,0-3.987,0l-6.4,3.876c-1.085.657-1.057,1.724.062,2.383l6.929,4.081a4.3,4.3,0,0,0,4.013.005Z" fill="#fff8ff"/>
        <path id="Trazado_101842" data-name="Trazado 101842" d="M418.063,324.936c1.086-.666,1.037-1.747-.108-2.415l-7.033-4.1a4.313,4.313,0,0,0-4.017,0l-6.417,3.911c-1.088.664-1.052,1.742.082,2.409l7.015,4.132a4.317,4.317,0,0,0,4.044.009Z" fill="#fff8ff"/>
        <path id="Trazado_101843" data-name="Trazado 101843" d="M413.485,332.345l7.1,4.183a4.341,4.341,0,0,0,4.076.013l6.452-3.98c1.09-.672,1.031-1.765-.128-2.441l-7.12-4.151a4.335,4.335,0,0,0-4.049-.007l-6.436,3.947C412.292,330.579,412.337,331.669,413.485,332.345Z" fill="#fff8ff"/>
        <path id="Trazado_101844" data-name="Trazado 101844" d="M271.057,259.812c-1.062.611-1.109,1.592-.1,2.191l6.219,3.706a4.1,4.1,0,0,0,3.762-.022l6.281-3.633c1.061-.613,1.1-1.6.081-2.195l-6.236-3.679a4.1,4.1,0,0,0-3.739.026Z" fill="#fff8ff"/>
        <path id="Trazado_101845" data-name="Trazado 101845" d="M251.077,250.157l14.436,8.6a4.081,4.081,0,0,0,3.734-.025l6.261-3.6c1.057-.608,1.1-1.581.1-2.173l-14.476-8.54a4.067,4.067,0,0,0-3.692.032l-6.23,3.552C250.152,248.607,250.093,249.571,251.077,250.157Z" fill="#fff8ff"/>
        <path id="Trazado_101846" data-name="Trazado 101846" d="M282.488,266.611c-1.065.617-1.105,1.608-.088,2.213l6.292,3.75a4.116,4.116,0,0,0,3.789-.018l6.3-3.665c1.064-.619,1.092-1.612.065-2.218l-6.309-3.722a4.119,4.119,0,0,0-3.767.023Z" fill="#fff8ff"/>
        <path id="Trazado_101847" data-name="Trazado 101847" d="M293.981,275.727l6.368,3.8a4.14,4.14,0,0,0,3.817-.016l6.32-3.7c1.068-.625,1.089-1.628.049-2.242l-6.384-3.766a4.138,4.138,0,0,0-3.794.021l-6.3,3.669C292.985,274.113,292.952,275.114,293.981,275.727Z" fill="#fff8ff"/>
        <path id="Trazado_101848" data-name="Trazado 101848" d="M305.7,282.711l6.444,3.84a4.155,4.155,0,0,0,3.846-.012l6.34-3.73c1.07-.63,1.084-1.644.032-2.264l-6.461-3.811a4.154,4.154,0,0,0-3.822.017l-6.323,3.7C304.686,281.079,304.66,282.091,305.7,282.711Z" fill="#fff8ff"/>
        <path id="Trazado_101849" data-name="Trazado 101849" d="M317.562,289.78l6.521,3.886a4.176,4.176,0,0,0,3.875-.009l6.359-3.763a1.217,1.217,0,0,0,.016-2.288l-6.538-3.857a4.177,4.177,0,0,0-3.851.013L317.6,287.5A1.215,1.215,0,0,0,317.562,289.78Z" fill="#fff8ff"/>
        <path id="Trazado_101850" data-name="Trazado 101850" d="M329.565,296.934l6.6,3.933a4.2,4.2,0,0,0,3.9-.005l6.379-3.8a1.231,1.231,0,0,0,0-2.312l-6.617-3.9a4.2,4.2,0,0,0-3.88.01l-6.362,3.769A1.23,1.23,0,0,0,329.565,296.934Z" fill="#fff8ff"/>
        <path id="Trazado_101851" data-name="Trazado 101851" d="M341.715,304.174l6.68,3.982a4.223,4.223,0,0,0,3.935,0l6.4-3.832a1.246,1.246,0,0,0-.019-2.337l-6.7-3.951a4.218,4.218,0,0,0-3.91.006l-6.381,3.8A1.243,1.243,0,0,0,341.715,304.174Z" fill="#fff8ff"/>
        <path id="Trazado_101852" data-name="Trazado 101852" d="M354.012,311.5l6.763,4.03a4.237,4.237,0,0,0,3.965,0l6.418-3.867a1.26,1.26,0,0,0-.038-2.362l-6.78-4a4.239,4.239,0,0,0-3.939,0l-6.4,3.837A1.258,1.258,0,0,0,354.012,311.5Z" fill="#fff8ff"/>
        <path id="Trazado_101853" data-name="Trazado 101853" d="M366.461,318.922l6.847,4.08a4.261,4.261,0,0,0,3.995.006l6.438-3.9a1.276,1.276,0,0,0-.057-2.387l-6.864-4.049a4.26,4.26,0,0,0-3.969,0l-6.421,3.872A1.273,1.273,0,0,0,366.461,318.922Z" fill="#fff8ff"/>
        <path id="Trazado_101854" data-name="Trazado 101854" d="M379.064,326.433l6.931,4.131a4.283,4.283,0,0,0,4.027.009l6.457-3.939c1.091-.665,1.056-1.746-.076-2.413l-6.948-4.1a4.284,4.284,0,0,0-4,0l-6.44,3.908A1.288,1.288,0,0,0,379.064,326.433Z" fill="#fff8ff"/>
        <path id="Trazado_101855" data-name="Trazado 101855" d="M402.9,338.233l6.477-3.976c1.093-.671,1.05-1.764-.1-2.44l-7.035-4.15a4.307,4.307,0,0,0-4.032-.007l-6.46,3.944c-1.094.668-1.064,1.758.07,2.433l7.018,4.183A4.305,4.305,0,0,0,402.9,338.233Z" fill="#fff8ff"/>
        <path id="Trazado_101856" data-name="Trazado 101856" d="M432.124,345.293,415.353,335.4a4.328,4.328,0,0,0-4.064-.012l-6.479,3.982c-1.1.675-1.059,1.776.089,2.461L421.63,351.8a4.346,4.346,0,0,0,4.115.02l6.511-4.041C433.355,347.1,433.3,345.984,432.124,345.293Z" fill="#fff8ff"/>
        <path id="Trazado_101857" data-name="Trazado 101857" d="M265.15,272.35l6.237,3.761a4.093,4.093,0,0,0,3.781-.017l6.327-3.67c1.069-.62,1.108-1.616.09-2.224l-6.254-3.733a4.1,4.1,0,0,0-3.759.022l-6.309,3.642C264.193,270.749,264.142,271.742,265.15,272.35Z" fill="#fff8ff"/>
        <path id="Trazado_101858" data-name="Trazado 101858" d="M244.148,262.021l-7.288-4.4a2.653,2.653,0,0,0-2.435.017l-9.26,5.279c-.7.4-.753,1.045-.11,1.438l7.262,4.442a2.652,2.652,0,0,0,2.452-.013l9.286-5.319C244.757,263.059,244.8,262.414,244.148,262.021Z" fill="#fff8ff"/>
        <path id="Trazado_101859" data-name="Trazado 101859" d="M255.44,268.845l-7.373-4.456a2.666,2.666,0,0,0-2.454.015l-9.29,5.325c-.705.4-.751,1.055-.1,1.453l7.349,4.494a2.663,2.663,0,0,0,2.47-.011l9.315-5.365C256.062,269.894,256.1,269.243,255.44,268.845Z" fill="#fff8ff"/>
        <path id="Trazado_101860" data-name="Trazado 101860" d="M266.866,275.75l-7.461-4.509a2.68,2.68,0,0,0-2.471.013l-9.32,5.372c-.708.408-.748,1.065-.09,1.468l7.436,4.548a2.679,2.679,0,0,0,2.488-.009l9.346-5.413C267.5,276.81,267.532,276.152,266.866,275.75Z" fill="#fff8ff"/>
        <path id="Trazado_101861" data-name="Trazado 101861" d="M281.088,284.344l-10.209-6.169a2.692,2.692,0,0,0-2.49.01l-9.349,5.42c-.71.411-.747,1.076-.08,1.483l10.176,6.224a2.692,2.692,0,0,0,2.51-.007l9.382-5.472C281.738,285.419,281.764,284.753,281.088,284.344Z" fill="#fff8ff"/>
        <path id="Trazado_101862" data-name="Trazado 101862" d="M356.763,330.075l-11.014-6.655a2.773,2.773,0,0,0-2.61,0L333.6,329.15a.851.851,0,0,0-.011,1.585l10.98,6.716a2.78,2.78,0,0,0,2.633.008l9.569-5.793A.853.853,0,0,0,356.763,330.075Z" fill="#fff8ff"/>
        <path id="Trazado_101863" data-name="Trazado 101863" d="M369.492,337.768l-8.138-4.918a2.8,2.8,0,0,0-2.635-.007l-9.574,5.8a.863.863,0,0,0,0,1.606l8.114,4.963a2.794,2.794,0,0,0,2.654.011l9.6-5.848A.863.863,0,0,0,369.492,337.768Z" fill="#fff8ff"/>
        <path id="Trazado_101864" data-name="Trazado 101864" d="M376.293,349.331l-8.229-5a2.8,2.8,0,0,0-2.658-.011l-3.489,2.128a.874.874,0,0,0,.016,1.624l8.217,5.026a2.806,2.806,0,0,0,2.675.013l3.5-2.144A.879.879,0,0,0,376.293,349.331Z" fill="#fff8ff"/>
        <path id="Trazado_101865" data-name="Trazado 101865" d="M402.416,365.213l-8.439-5.131a2.832,2.832,0,0,0-2.7-.017l-3.511,2.169a.9.9,0,0,0,.042,1.66l8.428,5.155a2.839,2.839,0,0,0,2.718.019l3.521-2.186C403.208,366.426,403.183,365.678,402.416,365.213Z" fill="#fff8ff"/>
        <path id="Trazado_101866" data-name="Trazado 101866" d="M389.272,357.222l-8.333-5.067a2.818,2.818,0,0,0-2.68-.013l-3.5,2.148a.885.885,0,0,0,.03,1.642l8.321,5.089a2.823,2.823,0,0,0,2.7.017l3.51-2.166A.889.889,0,0,0,389.272,357.222Z" fill="#fff8ff"/>
        <path id="Trazado_101867" data-name="Trazado 101867" d="M381.619,351.737l8.335,5.064a2.829,2.829,0,0,0,2.695.015l3.5-2.158c.729-.45.706-1.186-.051-1.643l-8.347-5.041a2.82,2.82,0,0,0-2.677-.012l-3.489,2.14A.88.88,0,0,0,381.619,351.737Z" fill="#fff8ff"/>
        <path id="Trazado_101868" data-name="Trazado 101868" d="M340.855,320.462l-55.744-33.687a2.71,2.71,0,0,0-2.512.008l-9.386,5.479c-.713.417-.743,1.089-.068,1.5l55.568,33.987a2.762,2.762,0,0,0,2.607.005l9.531-5.725A.84.84,0,0,0,340.855,320.462Z" fill="#fff8ff"/>
        <path id="Trazado_101869" data-name="Trazado 101869" d="M239.4,256.82l19.806,11.944a4.071,4.071,0,0,0,3.751-.02l6.306-3.636c1.065-.614,1.112-1.6.106-2.2l-19.861-11.856a4.053,4.053,0,0,0-3.7.029l-6.264,3.571C238.485,255.258,238.419,256.228,239.4,256.82Z" fill="#fff8ff"/>
        <path id="Trazado_101870" data-name="Trazado 101870" d="M276.63,279.273l6.311,3.806a4.109,4.109,0,0,0,3.809-.014l6.347-3.7c1.072-.625,1.1-1.631.074-2.246l-6.329-3.777a4.113,4.113,0,0,0-3.786.018l-6.329,3.675C275.654,277.655,275.61,278.658,276.63,279.273Z" fill="#fff8ff"/>
        <path id="Trazado_101871" data-name="Trazado 101871" d="M288.247,286.279l6.386,3.852a4.133,4.133,0,0,0,3.838-.011l6.367-3.736c1.075-.631,1.1-1.647.057-2.269l-6.4-3.823a4.131,4.131,0,0,0-3.814.015l-6.35,3.707C287.251,284.643,287.215,285.656,288.247,286.279Z" fill="#fff8ff"/>
        <path id="Trazado_101872" data-name="Trazado 101872" d="M300,293.369l6.463,3.9a4.151,4.151,0,0,0,3.867-.007l6.387-3.77a1.222,1.222,0,0,0,.04-2.293l-6.481-3.869a4.155,4.155,0,0,0-3.843.012l-6.369,3.741C298.988,291.715,298.958,292.739,300,293.369Z" fill="#fff8ff"/>
        <path id="Trazado_101873" data-name="Trazado 101873" d="M311.9,300.544l6.542,3.946a4.173,4.173,0,0,0,3.9,0l6.407-3.8a1.236,1.236,0,0,0,.023-2.318l-6.559-3.915a4.171,4.171,0,0,0-3.871.008l-6.39,3.774A1.234,1.234,0,0,0,311.9,300.544Z" fill="#fff8ff"/>
        <path id="Trazado_101874" data-name="Trazado 101874" d="M323.943,307.807l6.621,3.993a4.19,4.19,0,0,0,3.926,0l6.427-3.838a1.25,1.25,0,0,0,.006-2.342l-6.64-3.963a4.192,4.192,0,0,0-3.9,0l-6.41,3.808A1.249,1.249,0,0,0,323.943,307.807Z" fill="#fff8ff"/>
        <path id="Trazado_101875" data-name="Trazado 101875" d="M336.132,315.158l6.7,4.043a4.214,4.214,0,0,0,3.956,0l6.446-3.873a1.265,1.265,0,0,0-.012-2.367l-6.72-4.012a4.215,4.215,0,0,0-3.931,0l-6.429,3.842A1.263,1.263,0,0,0,336.132,315.158Z" fill="#fff8ff"/>
        <path id="Trazado_101876" data-name="Trazado 101876" d="M348.471,322.6l6.786,4.092a4.236,4.236,0,0,0,3.987.008l6.466-3.909a1.28,1.28,0,0,0-.03-2.393l-6.8-4.061a4.235,4.235,0,0,0-3.961,0l-6.449,3.878A1.278,1.278,0,0,0,348.471,322.6Z" fill="#fff8ff"/>
        <path id="Trazado_101877" data-name="Trazado 101877" d="M360.963,330.133l6.87,4.144a4.259,4.259,0,0,0,4.018.011l6.486-3.945a1.3,1.3,0,0,0-.049-2.419l-6.888-4.111a4.253,4.253,0,0,0-3.991-.006l-6.469,3.913A1.293,1.293,0,0,0,360.963,330.133Z" fill="#fff8ff"/>
        <path id="Trazado_101878" data-name="Trazado 101878" d="M391.053,335.544l-6.974-4.163a4.278,4.278,0,0,0-4.022-.01l-6.489,3.951a1.309,1.309,0,0,0,.042,2.439l6.956,4.2a4.279,4.279,0,0,0,4.049.015l6.506-3.982C392.22,337.317,392.189,336.222,391.053,335.544Z" fill="#fff8ff"/>
        <path id="Trazado_101879" data-name="Trazado 101879" d="M420.293,353l-23.376-13.954a4.3,4.3,0,0,0-4.054-.013l-6.509,3.987a1.325,1.325,0,0,0,.062,2.466l23.318,14.063a4.33,4.33,0,0,0,4.122.025l6.551-4.068C421.513,354.817,421.461,353.7,420.293,353Z" fill="#fff8ff"/>
        <path id="Trazado_101880" data-name="Trazado 101880" d="M444.185,337.814l-7.21-4.2a4.362,4.362,0,0,0-4.081-.011l-6.455,3.985c-1.094.676-1.04,1.778.122,2.462l7.193,4.236a4.36,4.36,0,0,0,4.108.017l6.472-4.017C445.426,339.6,445.359,338.5,444.185,337.814Z" fill="#fff8ff"/>
        <path id="Trazado_101881" data-name="Trazado 101881" d="M324.953,254.767l-6.366-3.668a4.153,4.153,0,0,0-3.763.029l-6.217,3.6c-1.054.611-1.078,1.59-.052,2.187l6.35,3.7a4.155,4.155,0,0,0,3.786-.024l6.234-3.632C325.978,256.346,325.99,255.364,324.953,254.767Z" fill="#fff8ff"/>
        <path id="Trazado_101882" data-name="Trazado 101882" d="M336.769,261.576l-6.441-3.712a4.174,4.174,0,0,0-3.791.026l-6.237,3.635c-1.057.617-1.073,1.606-.035,2.21l6.425,3.74a4.173,4.173,0,0,0,3.814-.021l6.253-3.664C337.813,263.172,337.818,262.18,336.769,261.576Z" fill="#fff8ff"/>
        <path id="Trazado_101883" data-name="Trazado 101883" d="M348.726,268.466l-6.518-3.756a4.2,4.2,0,0,0-3.819.022l-6.256,3.668c-1.06.622-1.069,1.621-.019,2.232l6.5,3.785a4.2,4.2,0,0,0,3.843-.018l6.272-3.7A1.184,1.184,0,0,0,348.726,268.466Z" fill="#fff8ff"/>
        <path id="Trazado_101884" data-name="Trazado 101884" d="M360.826,275.438l-6.6-3.8a4.211,4.211,0,0,0-3.847.019l-6.275,3.7a1.2,1.2,0,0,0,0,2.256l6.579,3.83a4.214,4.214,0,0,0,3.872-.015l6.291-3.728A1.2,1.2,0,0,0,360.826,275.438Z" fill="#fff8ff"/>
        <path id="Trazado_101885" data-name="Trazado 101885" d="M373.071,282.494l-6.676-3.847a4.236,4.236,0,0,0-3.877.016l-6.293,3.733a1.21,1.21,0,0,0,.016,2.28l6.659,3.876a4.238,4.238,0,0,0,3.9-.011l6.31-3.762A1.212,1.212,0,0,0,373.071,282.494Z" fill="#fff8ff"/>
        <path id="Trazado_101886" data-name="Trazado 101886" d="M385.465,289.636l-6.757-3.894a4.257,4.257,0,0,0-3.906.013l-6.313,3.767a1.224,1.224,0,0,0,.034,2.3l6.741,3.924a4.256,4.256,0,0,0,3.93-.008l6.329-3.8C386.592,291.3,386.565,290.27,385.465,289.636Z" fill="#fff8ff"/>
        <path id="Trazado_101887" data-name="Trazado 101887" d="M398.01,296.864l-6.84-3.941a4.275,4.275,0,0,0-3.935.01l-6.332,3.8c-1.073.644-1.05,1.686.052,2.328l6.823,3.971a4.278,4.278,0,0,0,3.961,0l6.348-3.831C399.159,298.551,399.124,297.506,398.01,296.864Z" fill="#fff8ff"/>
        <path id="Trazado_101888" data-name="Trazado 101888" d="M410.709,304.182l-6.924-3.99a4.3,4.3,0,0,0-3.966.006l-6.35,3.836c-1.076.65-1.045,1.7.071,2.353l6.907,4.02a4.3,4.3,0,0,0,3.991,0l6.367-3.866C411.88,305.888,411.836,304.832,410.709,304.182Z" fill="#fff8ff"/>
        <path id="Trazado_101889" data-name="Trazado 101889" d="M413.272,317.873a4.323,4.323,0,0,0,4.023,0l6.385-3.9c1.079-.659,1.026-1.727-.115-2.384l-7.01-4.039a4.317,4.317,0,0,0-4,0l-6.37,3.871c-1.079.656-1.04,1.721.09,2.378Z" fill="#fff8ff"/>
        <path id="Trazado_101890" data-name="Trazado 101890" d="M436.58,319.09l-7.1-4.09a4.344,4.344,0,0,0-4.028,0l-6.389,3.907c-1.082.662-1.034,1.738.11,2.4l7.08,4.121a4.345,4.345,0,0,0,4.054.007l6.4-3.938C437.8,320.835,437.736,319.755,436.58,319.09Z" fill="#fff8ff"/>
        <path id="Trazado_101891" data-name="Trazado 101891" d="M457.251,331l-15.115-8.709a2.78,2.78,0,0,0-2.588,0l-7.831,4.82c-.692.426-.656,1.12.083,1.549l15.08,8.778a2.794,2.794,0,0,0,2.616.009l7.862-4.882C458.05,332.132,458,331.433,457.251,331Z" fill="#fff8ff"/>
      </g>
    </g>
    <g id="Grupo_87661" data-name="Grupo 87661">
      <g id="Grupo_87656" data-name="Grupo 87656">
        <g id="Grupo_87653" data-name="Grupo 87653" opacity="0.3" style="mix-blend-mode: multiply;isolation: isolate">
          <path id="Trazado_101892" data-name="Trazado 101892" d="M259.292,364.322,245.4,356.3l-10.33,3.732a76.659,76.659,0,0,0-14.279-3.423l-2.8-6.876L198.4,349.73l-2.717,6.883a75.832,75.832,0,0,0-14.25,3.427L171.071,356.3l-13.809,8.025,6.486,5.991a25.232,25.232,0,0,0-5.871,8.265L146,380.18l.073,11.346,11.882,1.6a25.692,25.692,0,0,0,5.955,8.26l-6.41,5.995,13.89,8.02,10.331-3.732a77.063,77.063,0,0,0,14.288,3.428l2.795,6.871,19.587.005.849-.5,1.869-6.378a75.939,75.939,0,0,0,14.259-3.422l10.363,3.737,13.809-8.025-6.486-5.991a25.216,25.216,0,0,0,5.862-8.27l11.872-1.6.849-.5-.922-10.841-11.872-1.6a25.827,25.827,0,0,0-5.964-8.265Z" fill="#b3b3b3"/>
        </g>
        <g id="Grupo_87654" data-name="Grupo 87654">
          <path id="Trazado_101893" data-name="Trazado 101893" d="M260.141,363.818l-13.89-8.019-10.33,3.732a76.616,76.616,0,0,0-14.279-3.422l-2.8-6.877-19.588-.006-2.717,6.883a75.739,75.739,0,0,0-14.25,3.428L171.92,355.8l-13.809,8.025,6.486,5.991a25.2,25.2,0,0,0-5.871,8.265l-11.873,1.6.073,11.346,11.881,1.6a25.708,25.708,0,0,0,5.955,8.259l-6.409,6,13.89,8.02,10.331-3.732a76.982,76.982,0,0,0,14.288,3.427l2.795,6.872,19.587.005,2.717-6.882a75.825,75.825,0,0,0,14.259-3.423l10.364,3.738,13.809-8.025-6.486-5.991a25.216,25.216,0,0,0,5.862-8.27l11.872-1.6-.073-11.345-11.872-1.6a25.843,25.843,0,0,0-5.964-8.265Z" fill="#e88bb5"/>
        </g>
        <path id="Trazado_101894" data-name="Trazado 101894" d="M260.141,363.818v-4.056l-6.409,6v4.056Z" fill="#d670a3"/>
        <path id="Trazado_101895" data-name="Trazado 101895" d="M158.111,359.768v4.056l6.486,5.991v-4.056Z" fill="#d670a3"/>
        <g id="Grupo_87655" data-name="Grupo 87655">
          <path id="Trazado_101896" data-name="Trazado 101896" d="M260.141,359.762l-13.89-8.019-10.33,3.732a76.7,76.7,0,0,0-14.279-3.423l-2.8-6.877-19.588,0-2.717,6.882a75.893,75.893,0,0,0-14.25,3.428l-10.363-3.737-13.809,8.025,6.486,5.99a25.216,25.216,0,0,0-5.871,8.266l-11.873,1.6.073,11.346,11.881,1.6a25.709,25.709,0,0,0,5.955,8.259l-6.409,6,13.89,8.02,10.331-3.732a76.982,76.982,0,0,0,14.288,3.427l2.795,6.872,19.587.005,2.717-6.882a75.825,75.825,0,0,0,14.259-3.423l10.364,3.738,13.809-8.025-6.486-5.991a25.216,25.216,0,0,0,5.862-8.27l11.872-1.6-.073-11.345-11.872-1.6a25.832,25.832,0,0,0-5.964-8.265Z" fill="#f49dc0"/>
        </g>
        <path id="Trazado_101897" data-name="Trazado 101897" d="M172.243,414.9v-4.056l10.33-3.732v4.056Z" fill="#d670a3"/>
        <path id="Trazado_101898" data-name="Trazado 101898" d="M199.657,417.41v4.056l-2.795-6.871v-4.056Z" fill="#d670a3"/>
        <path id="Trazado_101899" data-name="Trazado 101899" d="M219.244,421.471v-4.056l2.717-6.882v4.056Z" fill="#d670a3"/>
        <path id="Trazado_101900" data-name="Trazado 101900" d="M246.584,414.9v-4.056L236.22,407.11v4.056Z" fill="#d670a3"/>
        <path id="Trazado_101901" data-name="Trazado 101901" d="M259.769,392.618v-4.056l11.873-1.6v4.056Z" fill="#d670a3"/>
        <path id="Trazado_101902" data-name="Trazado 101902" d="M158.807,392.624v-4.056l-11.881-1.6v4.056Z" fill="#d670a3"/>
        <path id="Trazado_101903" data-name="Trazado 101903" d="M158.353,402.823v4.056l13.89,8.019v-4.056Z" fill="#e88bb5"/>
        <path id="Trazado_101904" data-name="Trazado 101904" d="M260.393,406.879v-4.056l-13.809,8.025V414.9Z" fill="#e88bb5"/>
      </g>
      <g id="Grupo_87660" data-name="Grupo 87660">
        <path id="Trazado_101905" data-name="Trazado 101905" d="M191.809,246.413q.637-7.921,1.217-15.848c.375-5.1.886-10.227.858-15.348-.023-4.268-.075-14.313-6.139-14.784-3.747-.291-5.218,5.337-6.044,8.028-3.476,11.333-1.859,23.738-1.449,35.387a18.644,18.644,0,0,0,.1,2.778l5.634,25.368a15.8,15.8,0,0,0,8.562-2.361Z" fill="#43c4ab"/>
        <g id="Grupo_87657" data-name="Grupo 87657" opacity="0.15" style="mix-blend-mode: multiply;isolation: isolate">
          <path id="Trazado_101906" data-name="Trazado 101906" d="M184.982,365.457c12.6-7.272,32.954-7.276,45.474,0s12.44,19.064-.155,26.336-32.954,7.276-45.467,0-12.454-19.065.148-26.34" fill="gray"/>
        </g>
        <path id="Trazado_101907" data-name="Trazado 101907" d="M229.2,377.529c-2.866.848-5.526,2.421-8.447,3.151-2.561.835-5.163,1.452-7.766,2.132a13.5,13.5,0,0,0-4.692,2.007c-.626.462-.516,1.433-.455,2.114.1,1.142,1.623,1.7,2.533,2.008a8.416,8.416,0,0,0,3.945.412,12.491,12.491,0,0,0,4.729-2.116c1.378-.859,2.781-1.681,4.234-2.4,1.417-.707,2.914-1.187,4.35-1.843a3.825,3.825,0,0,0,2.554-3.15,5.057,5.057,0,0,0,0-1.217,1.756,1.756,0,0,0-.5-1.026.4.4,0,0,0-.214-.12.482.482,0,0,0-.191.028Z" fill="#fff"/>
        <path id="Trazado_101908" data-name="Trazado 101908" d="M225.956,375.243a10.37,10.37,0,0,0-1.376.014c-1.122.079-2.232.268-3.35.376a18.1,18.1,0,0,1-3.544-.1c-.37-.035-.74-.065-1.113-.072a8.854,8.854,0,0,0-7.477,4.455c-.008-.005-.016-.013-.026-.008-1.231.517-.732,2.2-.836,3.224a12.578,12.578,0,0,0-.363,2.227,1.852,1.852,0,0,0,.944,1.331,7.763,7.763,0,0,0,6.375,1.131,20.977,20.977,0,0,0,4.528-2.294,46.536,46.536,0,0,1,5.683-2.891,15.313,15.313,0,0,0,3.031-1.341c1.2-.8,2.124-2.2,1.486-3.64A4.214,4.214,0,0,0,225.956,375.243Z" fill="#7798d9"/>
        <path id="Trazado_101909" data-name="Trazado 101909" d="M223.907,377.421a13.583,13.583,0,0,0-2.175-1.415c-.263-.136-.536-.24-.8-.356a19.651,19.651,0,0,1-3.241-.119c-.37-.035-.74-.065-1.113-.072a8.324,8.324,0,0,0-5.033,1.74,2.953,2.953,0,0,0,.47.923,9.151,9.151,0,0,0,3.51,2.976,2.5,2.5,0,0,0,.928.286,3.048,3.048,0,0,0,1.539-.547,12.26,12.26,0,0,1,1.4-.569,16.113,16.113,0,0,1,3.134-.67c.594-.078,1.576-.152,1.979-.666C224.916,378.4,224.312,377.741,223.907,377.421Z" fill="#2b448c"/>
        <path id="Trazado_101910" data-name="Trazado 101910" d="M207.293,366.8c-2.866.848-5.526,2.421-8.447,3.151-2.561.834-5.163,1.452-7.766,2.132a13.5,13.5,0,0,0-4.692,2.006c-.626.462-.516,1.434-.455,2.115.1,1.142,1.623,1.7,2.533,2.008a8.4,8.4,0,0,0,3.945.411,12.474,12.474,0,0,0,4.729-2.115c1.378-.859,2.781-1.681,4.234-2.406,1.417-.706,2.914-1.186,4.351-1.842a3.827,3.827,0,0,0,2.553-3.15,5.057,5.057,0,0,0,.005-1.217,1.762,1.762,0,0,0-.5-1.027.4.4,0,0,0-.214-.119.465.465,0,0,0-.191.028Z" fill="#fff"/>
        <path id="Trazado_101911" data-name="Trazado 101911" d="M204.048,364.51a10.371,10.371,0,0,0-1.376.014c-1.122.079-2.232.268-3.35.376a18.246,18.246,0,0,1-3.543-.1c-.371-.035-.741-.065-1.113-.072a8.855,8.855,0,0,0-7.478,4.455c-.008-.005-.016-.013-.026-.009-1.231.517-.732,2.2-.836,3.225a12.578,12.578,0,0,0-.363,2.227,1.854,1.854,0,0,0,.944,1.331,7.763,7.763,0,0,0,6.375,1.131,20.981,20.981,0,0,0,4.528-2.3,46.471,46.471,0,0,1,5.684-2.89,15.389,15.389,0,0,0,3.03-1.341c1.2-.8,2.124-2.2,1.486-3.641A4.213,4.213,0,0,0,204.048,364.51Z" fill="#7798d9"/>
        <path id="Trazado_101912" data-name="Trazado 101912" d="M202,366.687a13.531,13.531,0,0,0-2.175-1.414c-.263-.136-.536-.24-.805-.357a19.631,19.631,0,0,1-3.24-.118c-.371-.035-.741-.065-1.113-.072a8.324,8.324,0,0,0-5.034,1.74,2.948,2.948,0,0,0,.47.922,9.145,9.145,0,0,0,3.51,2.977,2.5,2.5,0,0,0,.928.286,3.048,3.048,0,0,0,1.539-.547,12.085,12.085,0,0,1,1.4-.569,16.114,16.114,0,0,1,3.134-.67c.594-.079,1.576-.152,1.979-.666C203.008,367.666,202.4,367.008,202,366.687Z" fill="#2b3d89"/>
        <path id="Trazado_101913" data-name="Trazado 101913" d="M183.52,273.045l4.143,95.787c-.017,1.411,3,2.564,4.588,2.438,3.571-.283,4.676-1.584,4.969-3.167l7.684-59.44,1.13-36.017Z" fill="#1d2540"/>
        <path id="Trazado_101914" data-name="Trazado 101914" d="M198.291,298.255s1.147,21.111.675,30.34c-.38,7.42-3.127,30.828-4.977,39.577-.706,3.341-5.339,2.052-5.352,2.048l.008.006.086.056a6.514,6.514,0,0,0,3.52.988c3.571-.283,4.676-1.584,4.969-3.167l7.639-59.089Z" fill="#121726"/>
        <path id="Trazado_101915" data-name="Trazado 101915" d="M192.251,269.82s1.52,23.713,7.883,35.377l9.113,75.331c.127.9,2.655,1.926,5.8,1.523,2-.257,3.14-1.231,3.14-2.512l1.377-71.432-.219-38.95Z" fill="#1d2540"/>
        <path id="Trazado_101916" data-name="Trazado 101916" d="M219.33,269.159l-.036-.547c-.632-9.559-.8-19.094-1.116-28.662a101.425,101.425,0,0,0-2.122-18.31c-.7-3.2-3.922-16.237-5.048-17.228-1.533-1.351-5.408-2.811-7.276-3.576a32.286,32.286,0,0,0-6.253-1.951c-3.69-.694-8.755-.62-11.447,2.391a18.738,18.738,0,0,0-3.762,7.1c-1.976,6.5-1.858,13.712-.843,20.375a193.263,193.263,0,0,1,1.961,21.295c.277,6.825.534,13.763-.288,20.559-.363,3,.58,4.776,3.382,6.045,9.935,4.5,20.714,6.3,31.325,2.916a2.515,2.515,0,0,0,1.932-1.554c.375-1.237-.012-2.837-.1-4.1Q219.487,271.538,219.33,269.159Z" fill="#6ae2cb"/>
        <path id="Trazado_101917" data-name="Trazado 101917" d="M219.33,269.159l-.036-.547c-.632-9.559-.8-19.094-1.116-28.662a101.425,101.425,0,0,0-2.122-18.31c-.424-1.944-1.782-7.523-3.035-11.824a101.813,101.813,0,0,1,.269,12c0,6.934-.125,13.868-.318,20.8-.179,6.444-.424,13.411-3.789,19.121-2.985,5.065-8.229,7.928-13.961,8.716a33.442,33.442,0,0,1-12.023-.81c-.035.323-.06.646-.1.968-.363,3,.58,4.776,3.382,6.045,9.935,4.5,20.714,6.3,31.325,2.916a2.515,2.515,0,0,0,1.932-1.554c.375-1.237-.012-2.837-.1-4.1Q219.487,271.538,219.33,269.159Z" fill="#ccc" opacity="0.4" style="mix-blend-mode: multiply;isolation: isolate"/>
        <path id="Trazado_101918" data-name="Trazado 101918" d="M242.759,263.532a5.854,5.854,0,0,0,5.465-.228,13.686,13.686,0,0,1,2.257-1.116c.468-.165,1.3-.332,1.7.048,1.044.975-.858,2.038-1.474,2.429-1.046.663.5,1.242,1.033,1.429a15.9,15.9,0,0,0,2.589.642c.66.114,1.611.093,1.879.861a.787.787,0,0,1-.369.957,3.317,3.317,0,0,1,.683.876,1.12,1.12,0,0,1-.015,1.068,1.524,1.524,0,0,1-1.28.512,1.665,1.665,0,0,1,.192,1.147c-.138.562-1.015.6-1.61.6a.478.478,0,0,1-.307.431,3.734,3.734,0,0,1-1.325.1,12.312,12.312,0,0,1-4.8-1.113,29.183,29.183,0,0,1-6.285-3.511c-.012-.008-.139-.09-.137-.105l.9-5.464Z" fill="#f9caaa"/>
        <path id="Trazado_101919" data-name="Trazado 101919" d="M221.528,246.447c-1.679-1.552-2.534-3.264-2.674-6.437-.328-7.412-.428-14.857-1.434-22.216-.577-4.228-1.936-14.181-8.009-13.859-3.753.2-4.48,5.97-4.949,8.745-1.294,7.67-.349,15.488.96,23.088,1.2,6.954,1.269,14.081,7.43,18.561a152.682,152.682,0,0,0,28.192,15.763q2.561-3.753,5.371-7.327-7.769-4.7-15.377-9.661c-2.2-1.433-4.352-2.919-6.518-4.393A26.019,26.019,0,0,1,221.528,246.447Z" fill="#43c4ab"/>
        <path id="Trazado_101920" data-name="Trazado 101920" d="M213.434,171.566s4.262,17.611.272,20.691a26.213,26.213,0,0,1-9.364,4.195l-.167,4.57s-7.007.424-11.925-2.5a16.7,16.7,0,0,0-1.3-9.645S190.995,160.777,213.434,171.566Z" fill="#f9caaa"/>
        <path id="Trazado_101921" data-name="Trazado 101921" d="M213.659,172.553c-.137-.621-.225-.987-.225-.987-22.439-10.789-22.486,17.314-22.486,17.314a15.339,15.339,0,0,1,1.514,6.545,21.021,21.021,0,0,0,4.654-.162l.052-.007a9.313,9.313,0,0,0,6.363-3.189,11.285,11.285,0,0,0,1.8-3.506,1.776,1.776,0,0,0-.072-1.6,7.159,7.159,0,0,0-1.071-1.024,3.988,3.988,0,0,1-1.236-1.966,2.779,2.779,0,0,1,1.2-2.994c1.156-.736,2.192-.181,3.312.3a2.806,2.806,0,0,0,2.266.157,1.826,1.826,0,0,0,.9-1.842,29.675,29.675,0,0,1-.125-3.577C210.705,173.977,212.1,173.226,213.659,172.553Z" fill="#eab794"/>
        <path id="Trazado_101922" data-name="Trazado 101922" d="M209.424,182.019a.752.752,0,0,1-.128.008c-.728-.025-1.227-1.546-1.805-1.952a3.736,3.736,0,0,0-2.293-.678c-3.813.121-4.332,7.061-.292,7.5a.667.667,0,0,1,.424.139.562.562,0,0,1,.114.386c.072,3.178-2.413,5.238-5.278,6-2.994.8-6.672.364-8.769-2.076a31.674,31.674,0,0,1-4.858-7.644c-1.281-2.851-2.505-5.692-2.7-8.864a15.688,15.688,0,0,1,3.115-9.94,19.618,19.618,0,0,1,4.562-4.434c1.68-1.21,3.916-2.05,5.14-3.771.722-1.015,1.072-2.267,1.931-3.189a5.08,5.08,0,0,1,2.995-1.483,8.714,8.714,0,0,1,5.412,1.136c.73.415,1.417.634,2.093.013.607-.557.954-1.3,1.678-1.739a3.829,3.829,0,0,1,2.683-.42c3.9.762,5.927,5.306,5.772,8.91a1.933,1.933,0,0,0,.032.6c.2.734,1.09.477,1.56.865.786.648.639,2.29.383,3.139a7.586,7.586,0,0,1-1.887,2.964,16.952,16.952,0,0,1-5.635,3.821c-1.775.739-3.327,1.757-3.513,3.843C210.039,176.512,211.748,181.621,209.424,182.019Z" fill="#1d2540"/>
        <path id="Trazado_101923" data-name="Trazado 101923" d="M221.194,164.53c.256-.849.4-2.491-.383-3.139-.008-.006-.018-.01-.026-.016a10.934,10.934,0,0,1-7.14,7.182c-2.511.869-7.632.671-7.474,4.516.043,1.048,1.182,3.011-.478,3.343-.583.117-1.082-.366-1.663-.387-1.953-.069-2.87,2.688-3.308,4.154-.554,1.856-1.171,3.686-2.888,4.78a6.437,6.437,0,0,1-5.923.361,12.046,12.046,0,0,1-5.386-4.858,27.351,27.351,0,0,1-2.582-4.592,28.322,28.322,0,0,0,2.6,7.83,31.674,31.674,0,0,0,4.858,7.644c2.1,2.44,5.775,2.872,8.769,2.076,2.865-.761,5.35-2.821,5.278-6a.562.562,0,0,0-.114-.386.667.667,0,0,0-.424-.139c-4.04-.442-3.521-7.382.292-7.5a3.729,3.729,0,0,1,2.293.678c.578.406,1.077,1.927,1.805,1.952a.66.66,0,0,0,.128-.009c2.324-.4.615-5.506.735-6.86.186-2.086,1.738-3.1,3.513-3.843a16.952,16.952,0,0,0,5.635-3.821A7.586,7.586,0,0,0,221.194,164.53Z" fill="#121726"/>
        <path id="Trazado_101924" data-name="Trazado 101924" d="M191.357,198.741l1.046-1.231s3.983,3.264,11.8,2.047l.344,1.608S196.067,202.114,191.357,198.741Z" fill="#43c4ab"/>
        <path id="Trazado_101925" data-name="Trazado 101925" d="M211.553,286.811a.363.363,0,0,0-.323-.185,44.418,44.418,0,0,1-8.463-.227c-1.05-.116-2.145-.2-3.178-.407-.118-.014-.457-.156-.543-.022a.345.345,0,0,0-.032.211c.026.406-.015.819.016,1.228a.793.793,0,0,0,.255.622,2.677,2.677,0,0,0,.9.192,58.99,58.99,0,0,0,8.375.89c.744.022,1.476.009,2.219-.035.231-.015.463-.032.693-.052a.439.439,0,0,0,.423-.423A3.241,3.241,0,0,0,211.553,286.811Z" fill="#121726"/>
        <path id="Trazado_101926" data-name="Trazado 101926" d="M189.354,283.593a39.584,39.584,0,0,1-5.438-1.392l.107,2.462c.7.238,1.413.464,2.127.671s1.427.378,2.158.521q.341.066.684.123a.438.438,0,0,0,.515-.3,3.25,3.25,0,0,0,.114-1.822A.36.36,0,0,0,189.354,283.593Z" fill="#121726"/>
        <g id="Grupo_87658" data-name="Grupo 87658">
          <path id="Trazado_101927" data-name="Trazado 101927" d="M162.734,172.471l-9.022-5.209c-.3-.175-.548-.029-.549.319a1.2,1.2,0,0,0,.546.945l9.022,5.209c.3.175.553.039.554-.31a1.218,1.218,0,0,0-.551-.954" fill="#cadeff"/>
          <path id="Trazado_101928" data-name="Trazado 101928" d="M166.514,177.509l-12.81-7.4c-.3-.175-.548-.036-.549.313a1.209,1.209,0,0,0,.546.951l12.809,7.395c.3.176.548.03.549-.319a1.2,1.2,0,0,0-.545-.945" fill="#cadeff"/>
          <path id="Trazado_101929" data-name="Trazado 101929" d="M174.88,182.34l-5.478-3.163c-.3-.175-.553-.039-.555.31a1.222,1.222,0,0,0,.551.954l5.479,3.163c.3.175.553.032.554-.316a1.207,1.207,0,0,0-.551-.948" fill="#cadeff"/>
          <path id="Trazado_101930" data-name="Trazado 101930" d="M158.264,175.6l-4.568-2.638c-.3-.175-.548-.035-.549.313a1.2,1.2,0,0,0,.546.945l4.568,2.637c.3.176.548.036.549-.313a1.2,1.2,0,0,0-.546-.944" fill="#cadeff"/>
          <path id="Trazado_101931" data-name="Trazado 101931" d="M169.768,182.244l-9.114-5.262c-.3-.175-.554-.039-.555.31a1.21,1.21,0,0,0,.551.948l9.114,5.262c.3.175.548.036.549-.313a1.2,1.2,0,0,0-.545-.945" fill="#cadeff"/>
          <path id="Trazado_101932" data-name="Trazado 101932" d="M161.475,180.306l-7.787-4.495c-.3-.175-.548-.03-.549.319a1.2,1.2,0,0,0,.546.945l7.786,4.5c.3.176.548.036.549-.313a1.212,1.212,0,0,0-.545-.951" fill="#cadeff"/>
          <path id="Trazado_101933" data-name="Trazado 101933" d="M166.5,183.207l-2.563-1.48c-.3-.175-.548-.03-.549.319a1.2,1.2,0,0,0,.545.945l2.563,1.48c.3.175.548.035.549-.313a1.209,1.209,0,0,0-.545-.951" fill="#cadeff"/>
          <path id="Trazado_101934" data-name="Trazado 101934" d="M171.886,177.755l-7.212-4.164c-.3-.175-.548-.03-.549.319a1.2,1.2,0,0,0,.546.945l7.212,4.164c.3.175.553.039.554-.31a1.218,1.218,0,0,0-.551-.954" fill="#cadeff"/>
          <path id="Trazado_101935" data-name="Trazado 101935" d="M166.769,169.68,154.1,162.363c-.5-.291-.917-.056-.918.53a2.016,2.016,0,0,0,.912,1.581l12.674,7.317c.51.294.923.059.925-.52a2.022,2.022,0,0,0-.919-1.591" fill="#2b448c"/>
          <path id="Trazado_101936" data-name="Trazado 101936" d="M174.681,174.248l-4.747-2.741c-.509-.294-.923-.058-.924.527a2.017,2.017,0,0,0,.918,1.584l4.747,2.741c.509.294.922.058.924-.521a2.024,2.024,0,0,0-.918-1.59" fill="#2b448c"/>
        </g>
        <g id="Grupo_87659" data-name="Grupo 87659">
          <path id="Trazado_101937" data-name="Trazado 101937" d="M155.656,149.952a1.6,1.6,0,0,1-.724-1.253l.038-13.375c0-.46.328-.646.729-.415l16.895,9.755a1.6,1.6,0,0,1,.724,1.253l-.038,13.375c0,.46-.328.646-.729.415l-10.035-5.794a1.377,1.377,0,0,0-1.356-.147l-2.925,1.6.005-1.7a4.251,4.251,0,0,0-1.923-3.33l-.661-.382m16.942-6.67-16.9-9.755c-1.062-.613-1.932-.117-1.936,1.1L153.73,148a4.249,4.249,0,0,0,1.922,3.331l.661.381a1.6,1.6,0,0,1,.724,1.254l-.005,1.837a2.547,2.547,0,0,0,.706,1.636,1.933,1.933,0,0,0,.444.356.828.828,0,0,0,.809.087L162,155.238a.535.535,0,0,1,.51.057l10.035,5.794c1.062.613,1.932.118,1.936-1.1l.038-13.374a4.249,4.249,0,0,0-1.923-3.33" fill="#f49dc0"/>
          <path id="Trazado_101938" data-name="Trazado 101938" d="M158.971,142.655c-.872-.5-1.584-.1-1.587.9a3.48,3.48,0,0,0,1.577,2.731c.872.5,1.579.1,1.582-.908a3.468,3.468,0,0,0-1.572-2.728" fill="#f49dc0"/>
          <path id="Trazado_101939" data-name="Trazado 101939" d="M164.13,145.633c-.873-.5-1.585-.1-1.588.9a3.483,3.483,0,0,0,1.577,2.731c.873.5,1.585.1,1.588-.9a3.482,3.482,0,0,0-1.577-2.732" fill="#f49dc0"/>
          <path id="Trazado_101940" data-name="Trazado 101940" d="M169.288,148.611c-.872-.5-1.584-.1-1.587.905a3.482,3.482,0,0,0,1.577,2.732c.872.5,1.585.1,1.587-.9a3.481,3.481,0,0,0-1.577-2.732" fill="#f49dc0"/>
        </g>
      </g>
    </g>
  </g>
</svg>
