<svg xmlns="http://www.w3.org/2000/svg" width="505" height="284.278" viewBox="0 0 505 284.278">
  <g id="Grupo_87413" data-name="Grupo 87413" transform="translate(21.795 -128.444)">
    <g id="Grupo_87378" data-name="Grupo 87378" transform="translate(51.988 128.444)" opacity="0.6">
      <path id="Trazado_100774" data-name="Trazado 100774" d="M608.565,128.469c44.252-.966,82.768,26.456,110.536,58.668,29.392,34.1,55.121,79.058,48.132,125.643a58.521,58.521,0,0,1-33.595,44.634c-15.107,7.069-33.249,9.178-49.787,7.862-30.525-2.428-62.045-8.867-92.429-7.88-30.971,1.006-60.745,9.5-91.3,13.127-13.472,1.6-27.546,2.172-40.66-3.031-35.052-13.907-40.353-58.6-30.3-90.326C452.561,203.315,529.641,130.192,608.565,128.469Z" transform="translate(-424.639 -128.444)" fill="#edf2ff"/>
    </g>
    <g id="Grupo_87383" data-name="Grupo 87383" transform="translate(102.502 160.454)">
      <g id="Grupo_87381" data-name="Grupo 87381" transform="translate(0 40.799)">
        <path id="Trazado_100775" data-name="Trazado 100775" d="M1090.169,755.081s3.462-1.53-.04-19.325l-9.944,11.836Z" transform="translate(-1022.357 -708.194)" fill="#6f3428"/>
        <path id="Trazado_100776" data-name="Trazado 100776" d="M1196.138,604.352l7.488-16.587a46.581,46.581,0,0,1,17.852-5.282l-2.53,3.176,5.38.771-4.083,2.1s-6.782,1.346-8.235,5.531-8.291,16.138-8.6,20.852l-3.6.46Z" transform="translate(-1119.146 -580.252)" fill="#f9b384"/>
        <path id="Trazado_100777" data-name="Trazado 100777" d="M1128,714.806l-9.22,3.5-4.271,20.324,17.157-12.807,4.055-7.259Z" transform="translate(-1051.013 -690.706)" fill="#f9b384"/>
        <path id="Trazado_100778" data-name="Trazado 100778" d="M1725.889,732.686s-4.268-4.59,0-17.392l8.616,9.9Z" transform="translate(-1559.762 -691.113)" fill="#6f3428"/>
        <path id="Trazado_100779" data-name="Trazado 100779" d="M1547.987,601.96l-11.354-15.9-15.608-3.934,2.768,2.97-5.3,1.187,4.234,1.776s5.455,1.994,7.229,6.052,10.931,14.267,11.606,18.943l3.629.178Z" transform="translate(-1388.223 -579.953)" fill="#f9b384"/>
        <path id="Trazado_100780" data-name="Trazado 100780" d="M1659.564,702.14l8.053,2.576,7.247,20.13-18.1-11.436-4.606-6.922Z" transform="translate(-1499.799 -680.133)" fill="#f9b384"/>
        <path id="Trazado_100781" data-name="Trazado 100781" d="M1202.491,650.463c-.01,5.5-1.7,10.793-3.372,15.962l-82.584,17.75L1093.045,666.8q-.333-.507-.637-1.014a33.076,33.076,0,0,1-5.092-13.914c-.589-5.45.628-11.276,3.894-15.344,2.483-3.1,5.923-4.986,8.986-7.353a5.185,5.185,0,0,0,1.71-1.884,5.6,5.6,0,0,0,.406-2.309c.039-3.208-.725-6.348-1.082-9.527-.01-.126-.029-.242-.038-.367-.319-3.073-.174-6.358,1.314-8.947,2.1-3.623,6.3-4.986,8.812-8.252,1.536-2.01,2.338-4.58,3.256-7.025,2.512-6.6,6.3-12.725,11.537-16.822s12-5.981,18.156-4.107a38.485,38.485,0,0,1,10.194-.86,17.585,17.585,0,0,1,11.9,6.184c2.126,2.57,3.517,5.826,5.72,8.31,1.942,2.193,4.435,3.681,6.455,5.788a19.219,19.219,0,0,1,5.092,12.8c.029,1.942-.174,4.068.85,5.643.957,1.488,2.735,1.981,3.981,3.16,2.628,2.493,2.3,7.092,1.633,10.88s-1.285,8.261,1.063,11.083c1.362,1.633,3.411,2.261,5.131,3.4C1200.5,639.119,1202.5,644.955,1202.491,650.463Z" transform="translate(-1028.189 -568.984)" fill="#102048"/>
        <path id="Trazado_100782" data-name="Trazado 100782" d="M1130.175,1005.491l-38.971,15.138c-5.157,45.829-7.293,84.954-5.475,115.3l117.559-.644c.472-32.224,1.816-76.178-6.442-122.712l-42.193-8.374Z" transform="translate(-1026.451 -932.274)" fill="#ef6c00"/>
        <path id="Trazado_100783" data-name="Trazado 100783" d="M798.1,755.081l-29.148,14.091,48.634,25.766L801.8,838.419s-85.351-50.244-69.569-75.045,65.825-27.618,65.825-27.618C796.1,744.022,795.811,750.748,798.1,755.081Z" transform="translate(-730.288 -708.194)" fill="#ef6c00"/>
        <path id="Trazado_100784" data-name="Trazado 100784" d="M1623.224,732.686l33.562,20.693L1601,775.684l22.948,43.4s78.265-45.091,66.993-71.179c-11.66-26.984-67.717-32.611-67.717-32.611C1626.042,718.273,1624.885,727.958,1623.224,732.686Z" transform="translate(-1457.098 -691.113)" fill="#ef6c00"/>
        <path id="Trazado_100785" data-name="Trazado 100785" d="M1325.643,900.663l-4.481,22.973a6.328,6.328,0,0,0,4.458,7.3h0a41.323,41.323,0,0,0,26.451-1.207l.884-.345a6.328,6.328,0,0,0,3.868-7.318l-5.213-22.61Z" transform="translate(-1223.409 -844.838)" fill="#f9b384"/>
        <path id="Trazado_100786" data-name="Trazado 100786" d="M1431.962,929.339l16.664,7.1-3.543-15.057Z" transform="translate(-1315.996 -863.139)" fill="#e38b6d"/>
        <path id="Trazado_100787" data-name="Trazado 100787" d="M1522.562,783.61c0,3.558.8,6.442,3.382,6.442s7.086-3.85,7.086-7.408-3.218-5.475-5.8-5.475S1522.562,780.052,1522.562,783.61Z" transform="translate(-1391.622 -742.761)" fill="#e38b6d"/>
        <path id="Trazado_100788" data-name="Trazado 100788" d="M1280.66,783.61c0,3.558-.8,6.442-3.382,6.442s-7.086-3.85-7.086-7.408,3.218-5.475,5.8-5.475S1280.66,780.052,1280.66,783.61Z" transform="translate(-1180.962 -742.761)" fill="#e38b6d"/>
        <path id="Trazado_100789" data-name="Trazado 100789" d="M1339.821,677.039c1.618,1.553,2.046,4.45,1.53,8.133-.426,3.178-1.463,5.573-3.208,8.99-3.525,6.942-9.469,13.081-16.722,13.138-8.015-.4-14.11-5.953-17.738-12.336a23.9,23.9,0,0,1-3.4-9.39c-.442-3.5.047-6.516,1.61-8.132l-1.975-9.734-.815-4.971,21.137-7.254,0-.1.146.045.144-.051,0,.1,21.4,6.406-.617,5Z" transform="translate(-1205.097 -641.102)" fill="#f9b384"/>
        <path id="Trazado_100790" data-name="Trazado 100790" d="M1259.474,617.428c13.688-2.975,22.747-12.971,22.747-12.971,9.421,11.018,27.659,8.229,34.785,6.695l-2.657-9.763-18.6-15.2-26.088,7.95-8.092,8.926Z" transform="translate(-1172.015 -583.343)" fill="#102048"/>
        <g id="Grupo_87379" data-name="Grupo 87379" transform="translate(28.283 29.408)">
          <path id="Trazado_100791" data-name="Trazado 100791" d="M1291.329,1107.28a55.56,55.56,0,0,0,5.582,1.758c1.884.508,3.786.949,5.705,1.29a54.834,54.834,0,0,0,11.606.933,42.54,42.54,0,0,0,5.776-.591,34.685,34.685,0,0,0,5.579-1.554,27.218,27.218,0,0,0,9.663-6.3l.278.256a28.044,28.044,0,0,1-4.4,3.979,28.353,28.353,0,0,1-5.23,2.85,32.541,32.541,0,0,1-5.719,1.672,39.3,39.3,0,0,1-5.915.643,51.988,51.988,0,0,1-11.792-1.088,58.288,58.288,0,0,1-11.281-3.5Z" transform="translate(-1226.765 -1043.998)" fill="#6f3428"/>
          <path id="Trazado_100792" data-name="Trazado 100792" d="M1787.72,1214.623c.2,1.82.335,3.643.46,5.466s.206,3.648.312,5.472q.114,2.738.185,5.478c.03,1.827.056,3.655.009,5.486l-.377.016c-.208-1.819-.344-3.642-.474-5.465q-.173-2.736-.3-5.473c-.055-1.826-.146-3.651-.171-5.479s-.058-3.655-.023-5.485Z" transform="translate(-1640.91 -1137.326)" fill="#6f3428"/>
          <path id="Trazado_100793" data-name="Trazado 100793" d="M1095.647,1232.165c-.019,2.128-.095,4.252-.184,6.375s-.224,4.243-.332,6.365q-.208,3.18-.459,6.357c-.184,2.117-.373,4.234-.635,6.346l-.377-.024c.007-2.129.086-4.252.17-6.376q.149-3.184.346-6.365c.16-2.119.283-4.24.473-6.356s.372-4.234.621-6.347Z" transform="translate(-1061.888 -1151.948)" fill="#6f3428"/>
          <path id="Trazado_100794" data-name="Trazado 100794" d="M1917.763,932.1c2.33,1.185,4.595,2.47,6.865,3.74l3.391,1.922q1.692.965,3.4,1.893l-.144.349a27.707,27.707,0,0,1-3.65-1.494c-1.185-.563-2.338-1.186-3.475-1.834s-2.26-1.318-3.354-2.035-2.187-1.433-3.237-2.221Z" transform="translate(-1749.624 -901.498)" fill="#6f3428"/>
          <path id="Trazado_100795" data-name="Trazado 100795" d="M901.419,928.067c1.27-.67,2.562-1.287,3.859-1.892s2.6-1.187,3.917-1.758,2.634-1.118,3.969-1.637,2.672-1.03,4.037-1.477l.149.347c-1.265.681-2.558,1.3-3.854,1.905s-2.606,1.183-3.922,1.745-2.637,1.112-3.974,1.624-2.671,1.032-4.032,1.49Z" transform="translate(-901.419 -892.483)" fill="#6f3428"/>
          <path id="Trazado_100796" data-name="Trazado 100796" d="M1092.894,759.916a19.2,19.2,0,0,0-1.414,7.077,19.658,19.658,0,0,0,.311,3.592,20.862,20.862,0,0,0,.969,3.51l-.339.165a12.717,12.717,0,0,1-1.454-3.495,14.477,14.477,0,0,1-.448-3.782,14.08,14.08,0,0,1,2.039-7.239Z" transform="translate(-1059.265 -757.625)" fill="#6f3428"/>
          <path id="Trazado_100797" data-name="Trazado 100797" d="M1764.9,758.177a40.084,40.084,0,0,0,1.629-5.53,45.728,45.728,0,0,0,.784-5.711l.377-.015a15.938,15.938,0,0,1-.221,5.928,16.693,16.693,0,0,1-2.231,5.5Z" transform="translate(-1622.192 -746.921)" fill="#6f3428"/>
        </g>
        <path id="Trazado_100798" data-name="Trazado 100798" d="M1518.708,622.777c0-2.705-2.214-6.71-2.214-6.71s-2.214,4-2.214,6.71.991,3.087,2.214,3.087S1518.708,625.482,1518.708,622.777Z" transform="translate(-1384.709 -608.286)" fill="#fff"/>
        <g id="Grupo_87380" data-name="Grupo 87380" transform="translate(97.543 30.457)">
          <circle id="Elipse_4732" data-name="Elipse 4732" cx="4.814" cy="4.814" r="4.814" transform="translate(26.311 10.224)" fill="#fc8879" opacity="0.4"/>
          <circle id="Elipse_4733" data-name="Elipse 4733" cx="4.814" cy="4.814" r="4.814" transform="translate(0 15.521) rotate(-45)" fill="#fc8879" opacity="0.4"/>
          <path id="Trazado_100799" data-name="Trazado 100799" d="M1382.065,774.18a1.478,1.478,0,0,0-2,.123,2.938,2.938,0,0,0-.59,2.089,2.754,2.754,0,0,0,.622,1.866,1.567,1.567,0,0,0,2.1.136,2.847,2.847,0,0,0,.583-3.608A1.836,1.836,0,0,0,1382.065,774.18Z" transform="translate(-1369.727 -770.45)" fill="#102048"/>
          <path id="Trazado_100800" data-name="Trazado 100800" d="M1469.233,775.849a1.833,1.833,0,0,0-.716-.606,1.478,1.478,0,0,0-2,.123,2.939,2.939,0,0,0-.59,2.089,2.757,2.757,0,0,0,.622,1.866,1.567,1.567,0,0,0,2.1.136A2.846,2.846,0,0,0,1469.233,775.849Z" transform="translate(-1441.891 -771.337)" fill="#102048"/>
          <path id="Trazado_100801" data-name="Trazado 100801" d="M1435.634,801.482a13.645,13.645,0,0,0,.97,3.166c.226.5.464,1,.734,1.478.134.228.283.5.4.694s.3.417.478.648a5.057,5.057,0,0,1,.961,1.749,2.237,2.237,0,0,1-.054,1.221,2.875,2.875,0,0,1-.554.957,10.056,10.056,0,0,1-3.042,1.944l-.355-.441a25.564,25.564,0,0,0,2.4-2.288,1.191,1.191,0,0,0,.241-1.041,4.432,4.432,0,0,0-.744-1.234,7.89,7.89,0,0,1-.961-1.575,11.963,11.963,0,0,1-.662-1.683,8.629,8.629,0,0,1-.376-3.584Z" transform="translate(-1416.088 -793.514)" fill="#102048"/>
          <path id="Trazado_100802" data-name="Trazado 100802" d="M1394.288,884a4.022,4.022,0,0,1,2.424-1.1,6.308,6.308,0,0,1,2.644.282,6.45,6.45,0,0,1,2.312,1.294,3.666,3.666,0,0,1,1.328,2.336l-.547.148a4.925,4.925,0,0,0-1.557-1.476,9.187,9.187,0,0,0-1.982-.931,6.383,6.383,0,0,0-4.3-.09Z" transform="translate(-1382.091 -861.446)" fill="#102048"/>
          <path id="Trazado_100803" data-name="Trazado 100803" d="M1368.452,754.081a12.128,12.128,0,0,1,3.282-.738,13.331,13.331,0,0,1,1.668-.067,7.824,7.824,0,0,1,1.693.2l.051.564a7.806,7.806,0,0,1-1.629.5,13.312,13.312,0,0,1-1.653.235,12.129,12.129,0,0,1-3.361-.134Z" transform="translate(-1360.525 -753.272)" fill="#102048"/>
          <path id="Trazado_100804" data-name="Trazado 100804" d="M1465.83,756.292a12.135,12.135,0,0,1-3.335-.44,13.3,13.3,0,0,1-1.589-.513,7.815,7.815,0,0,1-1.519-.772l.146-.547a7.812,7.812,0,0,1,1.7.09,13.3,13.3,0,0,1,1.633.349,12.144,12.144,0,0,1,3.108,1.286Z" transform="translate(-1436.431 -753.884)" fill="#102048"/>
        </g>
        <path id="Trazado_100805" data-name="Trazado 100805" d="M1337.326,911.878c.6.6,1.219,1.2,1.849,1.771s1.274,1.135,1.928,1.68a38.12,38.12,0,0,0,4.112,2.992c.358.225.723.436,1.087.649s.739.406,1.118.587a18.772,18.772,0,0,0,2.315.984c.2.077.4.134.6.195s.4.126.6.171.4.106.609.152l.617.116a13.6,13.6,0,0,0,2.512.177l.042.376a10.659,10.659,0,0,1-2.637.118,13.149,13.149,0,0,1-2.6-.5,19.112,19.112,0,0,1-4.771-2.213,28.871,28.871,0,0,1-4.144-3.185c-.644-.585-1.257-1.2-1.849-1.836a24.434,24.434,0,0,1-1.677-1.995Z" transform="translate(-1236.758 -855.208)" fill="#e38b6d"/>
        <path id="Trazado_100806" data-name="Trazado 100806" d="M1130.06,860.2l-2.053,42.877-19.164,2.255-3.868-4.667-1.285,5.15-10.358.4s-5.1-13.118-5.9-21.483c-.519-5.457.628-11.276,3.894-15.344,2.483-3.1,5.923-4.986,8.986-7.353a5.179,5.179,0,0,0,1.71-1.884,5.6,5.6,0,0,0,.406-2.309c.039-3.208-.725-6.348-1.082-9.527-.01-.126-.029-.242-.039-.367Z" transform="translate(-1028.308 -801.843)" fill="#102048"/>
      </g>
      <g id="Grupo_87382" data-name="Grupo 87382" transform="translate(122.815 0)">
        <line id="Línea_146" data-name="Línea 146" y2="21.336" transform="translate(19.03 11.112)" fill="none" stroke="#708cd5" stroke-miterlimit="10" stroke-width="5.846"/>
        <line id="Línea_147" data-name="Línea 147" x2="0.228" y2="25.201" transform="translate(9.287 7.247)" fill="none" stroke="#708cd5" stroke-miterlimit="10" stroke-width="5.846"/>
        <line id="Línea_148" data-name="Línea 148" y2="32.448" fill="none" stroke="#708cd5" stroke-miterlimit="10" stroke-width="5.846"/>
      </g>
    </g>
    <g id="Grupo_87384" data-name="Grupo 87384" transform="translate(228.53 337.92)">
      <path id="Trazado_100807" data-name="Trazado 100807" d="M1526.259,1732.9h-33.416l5.073-6.663h28.343Z" transform="translate(-1492.843 -1671.64)" fill="#1f3c88"/>
      <path id="Trazado_100808" data-name="Trazado 100808" d="M1697.02,1457.107h-72.146l21.257-61.2h72.146Z" transform="translate(-1603.053 -1395.912)" fill="#d3dfff"/>
    </g>
    <g id="Grupo_87389" data-name="Grupo 87389" transform="translate(100.222 348.608)">
      <g id="Grupo_87385" data-name="Grupo 87385" transform="translate(10.186 37.15)">
        <rect id="Rectángulo_33879" data-name="Rectángulo 33879" width="86.156" height="13.417" fill="#102048"/>
        <rect id="Rectángulo_33880" data-name="Rectángulo 33880" width="23.952" height="13.417" transform="translate(13.527)" fill="#fff"/>
      </g>
      <g id="Grupo_87386" data-name="Grupo 87386" transform="translate(0 23.744)">
        <rect id="Rectángulo_33881" data-name="Rectángulo 33881" width="86.156" height="13.417" transform="translate(86.156 13.417) rotate(180)" fill="#d3dfff"/>
      </g>
      <g id="Grupo_87387" data-name="Grupo 87387" transform="translate(17.884 0)">
        <rect id="Rectángulo_33882" data-name="Rectángulo 33882" width="61.896" height="10.336" transform="translate(61.896 10.336) rotate(180)" fill="#708cd5"/>
      </g>
      <g id="Grupo_87388" data-name="Grupo 87388" transform="translate(12.104 10.327)">
        <rect id="Rectángulo_33883" data-name="Rectángulo 33883" width="80.113" height="13.417" fill="#1f3c88"/>
      </g>
    </g>
    <g id="Grupo_87390" data-name="Grupo 87390" transform="translate(70.309 398.632)">
      <rect id="Rectángulo_33884" data-name="Rectángulo 33884" width="302.916" height="14.09" fill="#c6eae9"/>
      <line id="Línea_149" data-name="Línea 149" x2="302.916" transform="translate(0 0.173)" fill="none" stroke="#102048" stroke-miterlimit="10" stroke-width="4.906"/>
    </g>
    <g id="Grupo_87393" data-name="Grupo 87393" transform="translate(-21.472 162.675)">
      <path id="Trazado_100809" data-name="Trazado 100809" d="M37.858,378.542l-57.7-8.968V335.561l48.585,18.971Z" transform="translate(19.838 -335.561)" fill="#f9b384"/>
      <g id="Grupo_87392" data-name="Grupo 87392" transform="translate(44.58 14.103)">
        <path id="Trazado_100810" data-name="Trazado 100810" d="M281.664,510.88s7.091,11.917,26.74,7.63l23.38-6.662-10.465-10.99-15.093,4.925-18.4-.532Z" transform="translate(-276.414 -487.642)" fill="#e38b6d"/>
        <path id="Trazado_100811" data-name="Trazado 100811" d="M274.117,425.76l31.9-4.869,14.791,12.21,12.7,16.5s-6.214,3.358-17.076-10.942l-21.363-2.751Z" transform="translate(-270.115 -420.891)" fill="#e38b6d"/>
        <path id="Trazado_100812" data-name="Trazado 100812" d="M465.916,561.589l5.254,4.689s-8.681,3.908-5.389,7.743l10.194-2.637,1.957-10.109Z" transform="translate(-429.48 -538.074)" fill="#e38b6d"/>
        <path id="Trazado_100813" data-name="Trazado 100813" d="M480.766,532.549l9.276,7.565s-3.531,9.724,1.993,10.671l6.8-12.1-10.463-8.249Z" transform="translate(-442.611 -512.335)" fill="#e38b6d"/>
        <g id="Grupo_87391" data-name="Grupo 87391" transform="translate(28.369 3.699)">
          <rect id="Rectángulo_33885" data-name="Rectángulo 33885" width="5.025" height="59.079" transform="translate(0 3.71) rotate(-47.587)" fill="#102048"/>
          <path id="Trazado_100814" data-name="Trazado 100814" d="M691.915,690.414l-1.453-2.837-1.645-3.4-2.242,1.283-1.124,2.436,3.508,1.331Z" transform="translate(-641.836 -644.359)" fill="#102048"/>
        </g>
        <path id="Trazado_100815" data-name="Trazado 100815" d="M253.9,450.353l16.988,2.145,25.331,10.757s-.752,8.272-21.64,1.871c0,0-11.457,8.574-24.681,3.188Z" transform="translate(-249.901 -445.484)" fill="#f9b384"/>
      </g>
    </g>
    <g id="Grupo_87400" data-name="Grupo 87400" transform="translate(337.385 154.928)">
      <path id="Trazado_100816" data-name="Trazado 100816" d="M2698.485,288.687v35.649L2632.1,331.58a19.133,19.133,0,0,0,5.156-4.248,24.292,24.292,0,0,0,6.143-1.6l-4-17.961Z" transform="translate(-2552.665 -288.687)" fill="#f9b384"/>
      <path id="Trazado_100817" data-name="Trazado 100817" d="M2630.224,404.136l4,17.961a24.283,24.283,0,0,1-6.143,1.6,19.121,19.121,0,0,1-5.156,4.248l-1.815.194,1.666-4.38,1.948-5.138Z" transform="translate(-2543.496 -385.056)" fill="#f9b384"/>
      <g id="Grupo_87399" data-name="Grupo 87399" transform="translate(0 15.252)">
        <path id="Trazado_100818" data-name="Trazado 100818" d="M2415.536,464.655a10.07,10.07,0,0,1-.89,1.2,19.133,19.133,0,0,1-5.156,4.248c-3.86,2.221-9.747,3.984-18.173,2.662-.811-.132-1.657-.291-2.521-.476l-9.615-2.741-4.635-1.322-1.6-.458-2.38-.679-1.084-.308-1.551-.441-1.137-.326-1.375-.388,10.47-10.99,5.253,1.718h.009l4.345,1.419,5.482,1.789,18.4-.538,1.912,1.754Z" transform="translate(-2330.06 -442.461)" fill="#e38b6d"/>
        <path id="Trazado_100819" data-name="Trazado 100819" d="M2376.255,384.8l-23.673-3.613a18.6,18.6,0,0,0-14.644,4.042l-8.373,6.912-12.7,16.5s6.214,3.358,17.076-10.942l21.363-2.751Z" transform="translate(-2289.528 -380.973)" fill="#e38b6d"/>
        <path id="Trazado_100820" data-name="Trazado 100820" d="M2419.307,515.363l-5.254,4.689s8.68,3.908,5.389,7.743l-10.194-2.637-1.957-10.109Z" transform="translate(-2365.015 -492.89)" fill="#e38b6d"/>
        <path id="Trazado_100821" data-name="Trazado 100821" d="M2378.321,486.322l-9.275,7.565s3.53,9.724-1.994,10.671l-6.8-12.1,10.464-8.249Z" transform="translate(-2325.748 -467.15)" fill="#e38b6d"/>
        <g id="Grupo_87398" data-name="Grupo 87398" transform="translate(0 2.172)">
          <rect id="Rectángulo_33886" data-name="Rectángulo 33886" width="36.586" height="57.764" transform="translate(37.09 0) rotate(39.949)" fill="#f5c7be"/>
          <g id="Grupo_87394" data-name="Grupo 87394" transform="translate(11.339 29.881)" opacity="0.3">
            <rect id="Rectángulo_33887" data-name="Rectángulo 33887" width="19.772" height="1.026" transform="translate(0 15.056) rotate(-49.594)" fill="#6f3428"/>
          </g>
          <g id="Grupo_87395" data-name="Grupo 87395" transform="translate(16.287 18.946)" opacity="0.3">
            <rect id="Rectángulo_33888" data-name="Rectángulo 33888" width="40.177" height="1.026" transform="matrix(0.643, -0.766, 0.766, 0.643, 0, 30.775)" fill="#6f3428"/>
          </g>
          <g id="Grupo_87396" data-name="Grupo 87396" transform="translate(21.255 24.581)" opacity="0.3">
            <rect id="Rectángulo_33889" data-name="Rectángulo 33889" width="39.192" height="1.026" transform="translate(0 29.932) rotate(-49.793)" fill="#6f3428"/>
          </g>
          <g id="Grupo_87397" data-name="Grupo 87397" transform="translate(45.016 28.182)" opacity="0.3">
            <rect id="Rectángulo_33890" data-name="Rectángulo 33890" width="9.722" height="1.025" transform="matrix(0.633, -0.774, 0.774, 0.633, 0, 7.524)" fill="#6f3428"/>
          </g>
        </g>
        <path id="Trazado_100822" data-name="Trazado 100822" d="M2466.5,422.1a24.292,24.292,0,0,1-6.143,1.6,24.951,24.951,0,0,1-5.305.062,28.774,28.774,0,0,1-13.238-4.856,65.231,65.231,0,0,1-7.182,1.807,27.855,27.855,0,0,1-8.39.485c-4.2-.546-5.491-2.5-5.887-3.525a2.658,2.658,0,0,1-.176-.634l6.672-2.838h.009l18.648-7.923,16.992-2.142Z" transform="translate(-2375.773 -400.308)" fill="#f9b384"/>
      </g>
    </g>
    <g id="Grupo_87407" data-name="Grupo 87407" transform="translate(-21.795 294.75)">
      <path id="Trazado_100823" data-name="Trazado 100823" d="M303.03,1322.823a45.4,45.4,0,0,1-22.183,3.94l-3.587-.265-2.556-.194-3.957-9.192.168-.317,7.306-14.066,19.362-5.077.062.274.6,2.776,1.454,6.742.687,3.146,1.163,5.394.141.635Z" transform="translate(-222.398 -1270.722)" fill="#e38b6d"/>
      <path id="Trazado_100824" data-name="Trazado 100824" d="M398.239,1352.565A3.076,3.076,0,0,0,395.5,1354c-2.865,5.166,7.408,7.962,11.988,8.93a3.528,3.528,0,0,0,4.028-2.1,5.217,5.217,0,0,0,0-3.737C410.451,1354.077,402.188,1352.939,398.239,1352.565Z" transform="translate(-326.118 -1316.552)" fill="#f9b384"/>
      <path id="Trazado_100825" data-name="Trazado 100825" d="M397.853,1399.05a1.682,1.682,0,0,0-1.762,1.147c-1.176,3.675.68,6.581,11.307,7.262h0a3.8,3.8,0,0,0,1.428-4.689C407.932,1400.237,400.8,1399.323,397.853,1399.05Z" transform="translate(-326.769 -1355.356)" fill="#f9b384"/>
      <path id="Trazado_100826" data-name="Trazado 100826" d="M33.1,1359.544l-54.9,17.239v-33.922l44.427-5.64-1.34.864,5.261,12.056,3.957,9.192,2.556.194A.066.066,0,0,1,33.1,1359.544Z" transform="translate(21.795 -1303.751)" fill="#f9b384"/>
      <path id="Trazado_100827" data-name="Trazado 100827" d="M250.686,1358.9l-2.556-.194-3.957-9.192-5.261-12.056,1.34-.864.723-.124c1.128,4.53,2.089,8.945,3.367,12.726.035.088.062.176.088.264C245.883,1353.677,247.743,1357.079,250.686,1358.9Z" transform="translate(-195.825 -1303.127)" fill="#f9b384"/>
      <g id="Grupo_87406" data-name="Grupo 87406" transform="translate(59.182)">
        <path id="Trazado_100828" data-name="Trazado 100828" d="M336.3,1175.531c10.355-3.2,29.194.313,34.529,1.242,10.26-15.39,18.9-22.259,35.911-42.067l-31.323.221C358.2,1155.875,348.516,1167.793,336.3,1175.531Z" transform="translate(-336.299 -1134.706)" fill="#d3dfff"/>
        <g id="Grupo_87405" data-name="Grupo 87405" transform="translate(25.879 5.33)" opacity="0.3">
          <g id="Grupo_87401" data-name="Grupo 87401" transform="translate(10.477)">
            <path id="Trazado_100829" data-name="Trazado 100829" d="M571.369,1172.186a34.827,34.827,0,0,1-6.3-1.376,1.2,1.2,0,0,0-1.017.333c-.089.072-.174.148-.26.224a2.94,2.94,0,0,1-.92.625,1.3,1.3,0,0,1-1.022-.059.874.874,0,0,1-.455-.556,1.417,1.417,0,0,1,.044-.692.92.92,0,0,0,.042-.456.3.3,0,0,0-.2-.2,1.177,1.177,0,0,0-.91.141,6.387,6.387,0,0,0-.744.554,6.2,6.2,0,0,1-.915.661,1.812,1.812,0,0,1-2.208-.158.823.823,0,0,1-.207-.393.943.943,0,0,1,.106-.573,6.277,6.277,0,0,1,1.169-1.56,4.58,4.58,0,0,0,1.189-1.741l.493.142a5.033,5.033,0,0,1-1.306,1.948,5.8,5.8,0,0,0-1.08,1.428.511.511,0,0,0-.067.261.327.327,0,0,0,.085.145,1.325,1.325,0,0,0,1.578.052,5.684,5.684,0,0,0,.838-.608,6.8,6.8,0,0,1,.805-.6,1.66,1.66,0,0,1,1.358-.182.81.81,0,0,1,.505.53,1.339,1.339,0,0,1-.033.728,1.02,1.02,0,0,0-.046.446.359.359,0,0,0,.2.228.8.8,0,0,0,.605.032,2.521,2.521,0,0,0,.757-.528c.092-.081.183-.162.277-.239a1.6,1.6,0,0,1,1.507-.42,34.179,34.179,0,0,0,6.163,1.348Z" transform="translate(-556.281 -1166.959)" fill="#1f3c88"/>
          </g>
          <g id="Grupo_87402" data-name="Grupo 87402" transform="translate(5.332 9.637)">
            <path id="Trazado_100830" data-name="Trazado 100830" d="M534.921,1227.507a2.04,2.04,0,0,1-1.684-.88l-.074-.114a.779.779,0,0,0-.22-.269.689.689,0,0,0-.469.026c-.278.084-.548.2-.818.3a6.775,6.775,0,0,1-1.32.434,2.1,2.1,0,0,1-2.24-.836c-.022-.039-.042-.081-.062-.122a.655.655,0,0,0-.136-.212.588.588,0,0,0-.307-.057,2.916,2.916,0,0,0-2.061.932l-.379-.347a3.44,3.44,0,0,1,2.43-1.1.986.986,0,0,1,.631.165,1.037,1.037,0,0,1,.281.39l.052.1a1.612,1.612,0,0,0,1.7.579,6.313,6.313,0,0,0,1.219-.4c.285-.116.569-.231.862-.321a1.106,1.106,0,0,1,.869.017,1.172,1.172,0,0,1,.406.445l.064.1a1.537,1.537,0,0,0,1.76.561c.1-.037.189-.083.282-.129a2.8,2.8,0,0,1,.453-.191,2.882,2.882,0,0,1,1.378.038l.084.017a14.657,14.657,0,0,0,4.145.194l.048.511a15.193,15.193,0,0,1-4.289-.2l-.086-.016a2.438,2.438,0,0,0-1.135-.05,2.32,2.32,0,0,0-.371.159c-.107.053-.215.106-.327.148A1.923,1.923,0,0,1,534.921,1227.507Z" transform="translate(-525.151 -1225.269)" fill="#1f3c88"/>
          </g>
          <g id="Grupo_87403" data-name="Grupo 87403" transform="translate(3.392 14.171)">
            <path id="Trazado_100831" data-name="Trazado 100831" d="M523.529,1254.5l-4.081-.174a1.627,1.627,0,0,1-1.307-.5,2.413,2.413,0,0,1-2.672-.193c-.05-.039-.1-.081-.144-.122a1.426,1.426,0,0,0-.32-.236c-.39-.175-.9.132-1.3.424l-.3-.415a1.861,1.861,0,0,1,1.811-.476,1.835,1.835,0,0,1,.446.317c.042.037.084.074.127.109a1.91,1.91,0,0,0,2.292.014l.316-.249.092.392c.078.332.646.4.978.419l4.081.174Z" transform="translate(-513.408 -1252.706)" fill="#1f3c88"/>
          </g>
          <g id="Grupo_87404" data-name="Grupo 87404" transform="translate(0 21.975)">
            <path id="Trazado_100832" data-name="Trazado 100832" d="M496.713,1301.028a2.068,2.068,0,0,1-.744-.109,2.424,2.424,0,0,1-.374-.191c-.063-.038-.126-.075-.191-.108a3.279,3.279,0,0,0-2.373.109l-.145-.493a3.759,3.759,0,0,1,2.749-.075c.076.039.149.082.222.126a1.838,1.838,0,0,0,.293.152,1.942,1.942,0,0,0,.72.074l5.173-.086.009.513-5.174.086Z" transform="translate(-492.886 -1299.925)" fill="#1f3c88"/>
          </g>
        </g>
      </g>
      <path id="Trazado_100833" data-name="Trazado 100833" d="M271.67,1274.4c-1.225.308-2.617.582-4.186.828q-1.772.278-3.86.5a21.858,21.858,0,0,1-3.789,6.143,26.651,26.651,0,0,1-2.864,2.873,27.616,27.616,0,0,1-12.541,6.01l-.256.053-5.261-12.056,1.34-.864,18.375-11.748,16.569,1,6.037.37S282.281,1271.8,271.67,1274.4Z" transform="translate(-195.825 -1244.416)" fill="#f9b384"/>
    </g>
    <g id="Grupo_87412" data-name="Grupo 87412" transform="translate(340.585 288.954)">
      <path id="Trazado_100834" data-name="Trazado 100834" d="M2636.822,1230.047l-6.156,3.658a7.466,7.466,0,0,0-3.486,4.851l-2.984,13.887,6.914,3.344,1.994-16.028S2640.866,1233.781,2636.822,1230.047Z" transform="translate(-2549.272 -1208.495)" fill="#e38b6d"/>
      <path id="Trazado_100835" data-name="Trazado 100835" d="M2666.54,1264.134l-16.473,6.3-4.18,13.347,5.863,6.018,5.853-15.813S2670.308,1271.257,2666.54,1264.134Z" transform="translate(-2567.378 -1236.948)" fill="#e38b6d"/>
      <path id="Trazado_100836" data-name="Trazado 100836" d="M2605.885,1305.381l-8.628,16.075-1.877-.255-21.98-2.988a8.827,8.827,0,0,1-5.869-3.437l-7.429-9.853-2.177-2.882-3.569-4.733-.167-9.307,10.461,7.932,1.842,1.463.238.194,3.067,2.441.564.45,2.521,2,1.313,1.049,4.336-2.776.256-.167.009-.009,11.81-6.874a31.422,31.422,0,0,1,13.775,9.633A17.42,17.42,0,0,1,2605.885,1305.381Z" transform="translate(-2490.833 -1256.87)" fill="#f9b384"/>
      <path id="Trazado_100837" data-name="Trazado 100837" d="M2841.5,1388.014v38.337l-38.073-27.7,1.877.256,8.628-16.075a17.378,17.378,0,0,0-1.507-2.045Z" transform="translate(-2698.883 -1334.322)" fill="#f9b384"/>
      <path id="Trazado_100838" data-name="Trazado 100838" d="M2784.3,1375.268a17.456,17.456,0,0,1,1.507,2.045l-8.628,16.075-1.877-.255-5.57-4.054,4.768-4.583,5.429-10.32Z" transform="translate(-2670.751 -1328.802)" fill="#f9b384"/>
      <g id="Grupo_87411" data-name="Grupo 87411" style="isolation: isolate">
        <g id="Grupo_87408" data-name="Grupo 87408" transform="translate(1.934)">
          <path id="Trazado_100839" data-name="Trazado 100839" d="M2211.706,1099.64l55.1,35.532-29.156,14.715-55.1-35.532Z" transform="translate(-2182.55 -1099.64)" fill="#708cd5"/>
        </g>
        <g id="Grupo_87409" data-name="Grupo 87409" transform="translate(55.096 35.532)">
          <path id="Trazado_100840" data-name="Trazado 100840" d="M2535.308,1314.63l-1.933,4.962-29.156,14.715,1.934-4.962Z" transform="translate(-2504.218 -1314.63)" fill="#d3dfff"/>
        </g>
        <g id="Grupo_87410" data-name="Grupo 87410" transform="translate(0 14.715)">
          <path id="Trazado_100841" data-name="Trazado 100841" d="M2227.88,1224.208l-1.934,4.962-55.1-35.531,1.934-4.962Z" transform="translate(-2170.85 -1188.676)" fill="#1f3c88"/>
        </g>
        <path id="Trazado_100842" data-name="Trazado 100842" d="M2316.741,1179.853l12.568-7.439,5.644,3.463-12.441,7.7Z" transform="translate(-2292.63 -1160.387)" fill="#fff"/>
      </g>
      <path id="Trazado_100843" data-name="Trazado 100843" d="M2640.027,1277.838l-10.77,7.284C2608.445,1277.266,2614.1,1269,2614.1,1269s9.924,4.273,20.137,7.575C2636.148,1277.191,2638.178,1277.19,2640.027,1277.838Z" transform="translate(-2540.256 -1241.006)" fill="#f9b384"/>
    </g>
  </g>
</svg>
