<svg xmlns="http://www.w3.org/2000/svg" width="90" height="90" viewBox="0 0 90 90">
  <g id="Grupo_88036" data-name="Grupo 88036" transform="translate(-915 -8014)">
    <circle id="Elipse_4707" data-name="Elipse 4707" cx="45" cy="45" r="45" transform="translate(915 8014)" fill="#3e2ea6"/>
    <g id="Grupo_87426" data-name="Grupo 87426" transform="translate(-2523.997 10217.744)">
      <path id="Trazado_101156" data-name="Trazado 101156" d="M3560.527-2141.758a1.315,1.315,0,0,0-.2.158,1.337,1.337,0,0,0-.113.087l-12.642,14.68a9.7,9.7,0,0,1,2.4,1.176l2.774-3.222-2.163,3.669a9.668,9.668,0,0,1,1.855,1.948l9.868-16.75a1.318,1.318,0,0,0,.048-.133,1.442,1.442,0,0,0,.084-.247,1.356,1.356,0,0,0,.028-.238,1.3,1.3,0,0,0-.016-.246,1.183,1.183,0,0,0-.065-.237,1.138,1.138,0,0,0-.1-.217,1.275,1.275,0,0,0-.162-.206,1.359,1.359,0,0,0-.086-.112.943.943,0,0,0-.1-.056c-.031-.023-.05-.058-.085-.078a.951.951,0,0,0-.133-.045,1.181,1.181,0,0,0-.248-.087,1.169,1.169,0,0,0-.236-.027,1.246,1.246,0,0,0-.249.015,1.3,1.3,0,0,0-.231.062A1.4,1.4,0,0,0,3560.527-2141.758Z" transform="translate(-60.015 -29.696)" fill="#dad6f7"/>
      <path id="Trazado_101157" data-name="Trazado 101157" d="M3484-2190.037a33.661,33.661,0,0,0-33.622,33.624,33.664,33.664,0,0,0,1.346,9.413l.271.932h23.531a9.8,9.8,0,0,1-.1-1.374,9.655,9.655,0,0,1,.078-1.213h-21.554a30.994,30.994,0,0,1-.988-7.759A31.072,31.072,0,0,1,3484-2187.451a31.073,31.073,0,0,1,31.037,31.038,31,31,0,0,1-.988,7.759h-19.35a9.748,9.748,0,0,1,.079,1.213,9.727,9.727,0,0,1-.1,1.374H3516l.272-.932a33.628,33.628,0,0,0,1.345-9.413A33.66,33.66,0,0,0,3484-2190.037Z" transform="translate(0)" fill="#dad6f7"/>
      <g id="Grupo_87425" data-name="Grupo 87425" transform="translate(3456.741 -2183.474)">
        <path id="Trazado_101158" data-name="Trazado 101158" d="M3585.635-2102.715l10.339-.368-.13-1.29-10.17.361Z" transform="translate(-3540.26 2130.58)" fill="#dad6f7"/>
        <path id="Trazado_101159" data-name="Trazado 101159" d="M3585.629-2109.737l9.914-1.365-.259-1.271-9.749,1.342Z" transform="translate(-3540.197 2135.52)" fill="#dad6f7"/>
        <path id="Trazado_101160" data-name="Trazado 101160" d="M3585-2116.638l9.4-2.291-.389-1.236-9.232,2.25Z" transform="translate(-3539.731 2140.331)" fill="#dad6f7"/>
        <path id="Trazado_101161" data-name="Trazado 101161" d="M3583.813-2123.346l8.794-3.129-.514-1.19-8.634,3.073Z" transform="translate(-3538.916 2144.962)" fill="#dad6f7"/>
        <path id="Trazado_101162" data-name="Trazado 101162" d="M3582.057-2129.783l8.123-3.87-.629-1.128-7.972,3.8Z" transform="translate(-3537.754 2149.356)" fill="#dad6f7"/>
        <path id="Trazado_101163" data-name="Trazado 101163" d="M3579.752-2135.885l7.4-4.5-.745-1.061-7.252,4.417Z" transform="translate(-3536.256 2153.474)" fill="#dad6f7"/>
        <path id="Trazado_101164" data-name="Trazado 101164" d="M3582.692-2147.6l-6.5,4.929.714,1.08,6.63-5.03Z" transform="translate(-3534.431 2157.274)" fill="#dad6f7"/>
        <path id="Trazado_101165" data-name="Trazado 101165" d="M3578.45-2153.189l-5.715,5.333.82,1,5.839-5.448Z" transform="translate(-3532.294 2160.722)" fill="#dad6f7"/>
        <path id="Trazado_101166" data-name="Trazado 101166" d="M3573.721-2158.155l-4.924,5.632.918.914,5.034-5.759Z" transform="translate(-3529.862 2163.788)" fill="#dad6f7"/>
        <path id="Trazado_101167" data-name="Trazado 101167" d="M3568.556-2162.458l-4.129,5.829,1.005.816,4.228-5.965Z" transform="translate(-3527.164 2166.445)" fill="#dad6f7"/>
        <path id="Trazado_101168" data-name="Trazado 101168" d="M3563-2166.055l-3.346,5.926,1.083.708,3.429-6.072Z" transform="translate(-3524.219 2168.666)" fill="#dad6f7"/>
        <path id="Trazado_101169" data-name="Trazado 101169" d="M3557.115-2168.918l-2.586,5.929,1.151.594,2.654-6.084Z" transform="translate(-3521.052 2170.434)" fill="#dad6f7"/>
        <path id="Trazado_101170" data-name="Trazado 101170" d="M3550.956-2171.02l-1.859,5.843,1.207.472,1.91-6Z" transform="translate(-3517.698 2171.732)" fill="#dad6f7"/>
        <path id="Trazado_101171" data-name="Trazado 101171" d="M3544.587-2172.342l-1.177,5.673,1.249.346,1.211-5.839Z" transform="translate(-3514.187 2172.548)" fill="#dad6f7"/>
        <path id="Trazado_101172" data-name="Trazado 101172" d="M3537.521-2167.451l1.278.215.571-5.6-1.294-.047Z" transform="translate(-3510.551 2172.881)" fill="#dad6f7"/>
        <path id="Trazado_101173" data-name="Trazado 101173" d="M3531.856-2172.817l-.174.009-.1.007-.2.017.091,5.121.2.01.1,0,.056,0c-.021,0,.082,0-.039,0l.028,0,.237.018.647.047.038-5.29-.646.037Z" transform="translate(-3506.76 2172.873)" fill="#dad6f7"/>
        <path id="Trazado_101174" data-name="Trazado 101174" d="M3524.129-2172.01l.483,4.758,1.3-.046-.5-4.926Z" transform="translate(-3502.281 2172.475)" fill="#dad6f7"/>
        <path id="Trazado_101175" data-name="Trazado 101175" d="M3516.929-2170.491l.9,4.354,1.283-.179-.935-4.519Z" transform="translate(-3497.836 2171.617)" fill="#dad6f7"/>
        <path id="Trazado_101176" data-name="Trazado 101176" d="M3509.989-2168.246l1.244,3.916,1.259-.311-1.294-4.076Z" transform="translate(-3493.551 2170.31)" fill="#dad6f7"/>
        <path id="Trazado_101177" data-name="Trazado 101177" d="M3503.385-2165.3l1.506,3.458,1.216-.438-1.574-3.613Z" transform="translate(-3489.473 2168.569)" fill="#dad6f7"/>
        <path id="Trazado_101178" data-name="Trazado 101178" d="M3497.179-2161.712l1.688,2.991,1.168-.561-1.771-3.138Z" transform="translate(-3485.641 2166.422)" fill="#dad6f7"/>
        <path id="Trazado_101179" data-name="Trazado 101179" d="M3491.433-2157.517l1.791,2.527,1.1-.677-1.888-2.667Z" transform="translate(-3482.093 2163.899)" fill="#dad6f7"/>
        <path id="Trazado_101180" data-name="Trazado 101180" d="M3486.2-2152.771l1.817,2.077,1.028-.786-1.928-2.205Z" transform="translate(-3478.862 2161.028)" fill="#dad6f7"/>
        <path id="Trazado_101181" data-name="Trazado 101181" d="M3481.527-2147.538l1.772,1.653.943-.887-1.9-1.768Z" transform="translate(-3475.977 2157.851)" fill="#dad6f7"/>
        <path id="Trazado_101182" data-name="Trazado 101182" d="M3477.452-2141.875l1.663,1.261.848-.979-1.8-1.362Z" transform="translate(-3473.46 2154.403)" fill="#dad6f7"/>
        <path id="Trazado_101183" data-name="Trazado 101183" d="M3474.012-2135.846l1.5.909.743-1.059-1.638-1Z" transform="translate(-3471.336 2150.721)" fill="#dad6f7"/>
        <path id="Trazado_101184" data-name="Trazado 101184" d="M3471.24-2129.521l1.274.608.632-1.13-1.427-.681Z" transform="translate(-3469.624 2146.85)" fill="#dad6f7"/>
        <path id="Trazado_101185" data-name="Trazado 101185" d="M3469.149-2122.965l1.012.361.515-1.189-1.171-.418Z" transform="translate(-3468.334 2142.829)" fill="#dad6f7"/>
        <path id="Trazado_101186" data-name="Trazado 101186" d="M3467.766-2116.25l.718.175.388-1.236-.881-.216Z" transform="translate(-3467.48 2138.702)" fill="#dad6f7"/>
        <path id="Trazado_101187" data-name="Trazado 101187" d="M3467.091-2109.452l.4.055.261-1.27-.564-.078Z" transform="translate(-3467.063 2134.514)" fill="#dad6f7"/>
        <path id="Trazado_101188" data-name="Trazado 101188" d="M3467.055-2102.644l.064,0,.13-1.287-.232-.008Z" transform="translate(-3467.018 2130.311)" fill="#dad6f7"/>
      </g>
      <circle id="Elipse_4739" data-name="Elipse 4739" cx="9.934" cy="9.934" r="9.934" transform="translate(3475.135 -2157.267)" fill="#dad6f7"/>
    </g>
  </g>
</svg>
