<svg xmlns="http://www.w3.org/2000/svg" width="525" height="360.7" viewBox="0 0 525 360.7">
  <g id="Organizing_projects-pana" data-name="Organizing projects-pana" transform="translate(-66.12 -48)">
    <g id="freepik--background-simple--inject-2" transform="translate(122.429 48)">
      <path id="Trazado_100844" data-name="Trazado 100844" d="M539.3,120.466c16.742,59.982-6.255,126.567-51.577,169.561S377.56,353.5,314,352.7c-45.373-.578-91.945-12-127.834-39.458s-59.234-72.594-52.69-116.31c2.473-16.512,9.62-33.144,23.337-42.994,21.9-15.765,52.563-10.139,79.206-3.79s57.271,12.051,79.248-3.62c16.886-12.051,23.388-33.237,34.546-50.506C368.789,66.7,403.778,47.923,439.531,48A105.083,105.083,0,0,1,537.6,115.988Z" transform="translate(-132.378 -48)" fill="#f5f5f5"/>
    </g>
    <g id="freepik--Floor--inject-2" transform="translate(66.12 408.258)">
      <path id="Trazado_100845" data-name="Trazado 100845" d="M591.12,472.131c0,.128-117.534.221-262.492.221s-262.509-.093-262.509-.221,117.508-.221,262.509-.221S591.12,471.987,591.12,472.131Z" transform="translate(-66.12 -471.91)" fill="#263238"/>
    </g>
    <g id="freepik--Whiteboard--inject-2" transform="translate(174.067 77.022)">
      <rect id="Rectángulo_33891" data-name="Rectángulo 33891" width="6.773" height="124.171" transform="translate(151.026 207.286)" fill="#263238"/>
      <path id="Trazado_100846" data-name="Trazado 100846" d="M317.12,464.138l47.268-45.458,3.391,3.025L323.74,464.138Z" transform="translate(-211.756 -132.682)" fill="#263238"/>
      <path id="Trazado_100847" data-name="Trazado 100847" d="M423.337,464.036,376.162,418.68l-3.382,3.025,44.03,42.433Z" transform="translate(-220.114 -132.682)" fill="#263238"/>
      <rect id="Rectángulo_33892" data-name="Rectángulo 33892" width="305.145" height="222.421" transform="translate(2.745 5.991)" fill="#fff"/>
      <path id="Trazado_100848" data-name="Trazado 100848" d="M501.491,311.566c0-1.487-.077-87.534-.187-222.413l.187.178H196.4l.221-.221V311.524l-.2-.2,305.145.2-305.145.2h-.2V88.89H501.729v.178C501.559,224.007,501.491,310.088,501.491,311.566Z" transform="translate(-193.601 -83.162)" fill="#263238"/>
      <path id="Trazado_100849" data-name="Trazado 100849" d="M241.8,116.391h-2.55v-.671H245.2v.671h-2.55v6.68h-.773Z" transform="translate(-200.064 -87.191)" fill="#263238"/>
      <path id="Trazado_100850" data-name="Trazado 100850" d="M246.77,119.3a3.858,3.858,0,1,1,3.858,3.739,3.7,3.7,0,0,1-3.858-3.739Zm6.935,0a3.085,3.085,0,1,0-3.076,3.042A2.983,2.983,0,0,0,253.7,119.3Z" transform="translate(-201.192 -87.131)" fill="#263238"/>
      <path id="Trazado_100851" data-name="Trazado 100851" d="M261.13,115.72h2.991a3.684,3.684,0,1,1,0,7.351H261.13Zm2.949,6.68a3.008,3.008,0,1,0,0-6.008h-2.21V122.4Z" transform="translate(-203.349 -87.191)" fill="#263238"/>
      <path id="Trazado_100852" data-name="Trazado 100852" d="M270.57,119.3a3.858,3.858,0,1,1,3.858,3.739,3.7,3.7,0,0,1-3.858-3.739Zm6.935,0a3.085,3.085,0,1,0-3.076,3.042A2.983,2.983,0,0,0,277.5,119.3Z" transform="translate(-204.766 -87.131)" fill="#263238"/>
      <path id="Trazado_100853" data-name="Trazado 100853" d="M367.069,115.72l-2.473,7.351h-.85l-2.15-6.263-2.176,6.263h-.807l-2.473-7.351h.8l2.116,6.323,2.193-6.323h.722l2.167,6.348,2.15-6.348Z" transform="translate(-217.615 -87.191)" fill="#263238"/>
      <path id="Trazado_100854" data-name="Trazado 100854" d="M369.8,119.3a3.858,3.858,0,1,1,3.858,3.739A3.7,3.7,0,0,1,369.8,119.3Zm6.935,0a3.085,3.085,0,1,0-3.076,3.042,2.974,2.974,0,0,0,3.11-3.042Z" transform="translate(-219.666 -87.131)" fill="#263238"/>
      <path id="Trazado_100855" data-name="Trazado 100855" d="M385.941,123.067l-1.7-2.363h-2.558v2.337h-.773V115.69h2.745c1.87,0,3,.943,3,2.55a2.278,2.278,0,0,1-1.7,2.3l1.793,2.55Zm-.042-4.827c0-1.181-.782-1.853-2.244-1.853H381.7v3.688h1.955C385.117,120.075,385.9,119.353,385.9,118.24Z" transform="translate(-221.335 -87.186)" fill="#263238"/>
      <path id="Trazado_100856" data-name="Trazado 100856" d="M392.129,119.612l-1.5,1.521v1.938h-.773V115.72h.773v4.487l4.309-4.445h.892l-3.178,3.331,3.4,4.02h-.918Z" transform="translate(-222.679 -87.191)" fill="#263238"/>
      <path id="Trazado_100857" data-name="Trazado 100857" d="M465.11,115.72H468.1a3.684,3.684,0,1,1,0,7.351H465.11Zm2.949,6.68a3.008,3.008,0,1,0,0-6.008h-2.193V122.4Z" transform="translate(-233.978 -87.191)" fill="#263238"/>
      <path id="Trazado_100858" data-name="Trazado 100858" d="M474.55,119.3a3.858,3.858,0,1,1,3.858,3.739,3.7,3.7,0,0,1-3.858-3.739Zm6.935,0a3.085,3.085,0,1,0-3.076,3.042,2.974,2.974,0,0,0,3.076-3.042Z" transform="translate(-235.395 -87.131)" fill="#263238"/>
      <path id="Trazado_100859" data-name="Trazado 100859" d="M491.816,115.72v7.351h-.637l-4.725-5.949v5.949h-.773V115.72h.637l4.734,5.949V115.72Z" transform="translate(-237.066 -87.191)" fill="#263238"/>
      <path id="Trazado_100860" data-name="Trazado 100860" d="M500.913,122.4v.671H495.72V115.72h5.04v.671H496.51v2.618h3.8v.663h-3.8V122.4Z" transform="translate(-238.574 -87.191)" fill="#263238"/>
      <path id="Trazado_100861" data-name="Trazado 100861" d="M493.261,148.5c0,.119-61.758.221-137.921.221s-137.93-.1-137.93-.221,61.741-.221,137.93-.221S493.261,148.382,493.261,148.5Z" transform="translate(-196.784 -92.08)" fill="#263238"/>
      <path id="Trazado_100862" data-name="Trazado 100862" d="M317.961,313.215c-.119,0-.221-47.761-.221-106.664s.1-106.681.221-106.681.221,47.753.221,106.681S318.08,313.215,317.961,313.215Z" transform="translate(-211.849 -84.811)" fill="#263238"/>
      <path id="Trazado_100863" data-name="Trazado 100863" d="M437.061,313.215c-.127,0-.221-47.761-.221-106.664s.093-106.681.221-106.681.221,47.753.221,106.681S437.18,313.215,437.061,313.215Z" transform="translate(-229.733 -84.811)" fill="#263238"/>
      <path id="Trazado_100864" data-name="Trazado 100864" d="M258.8,158.42s-2.133,19.453.6,30.1l25.988-1.139s-5.566-19.181-2.15-27.679Z" transform="translate(-202.88 -93.602)" fill="#e0e0e0"/>
      <path id="Trazado_100865" data-name="Trazado 100865" d="M218.4,171s-2.125,19.453.612,30.1l25.98-1.139s-5.566-19.189-2.142-27.688Z" transform="translate(-196.815 -95.491)" fill="#e0e0e0"/>
      <path id="Trazado_100866" data-name="Trazado 100866" d="M258.94,158.42s.178,21,1.241,27.407l26.345-1.249s-2.312-20.643-1.419-26.158Z" transform="translate(-203.02 -93.602)" fill="#455a64"/>
      <path id="Trazado_100867" data-name="Trazado 100867" d="M273.16,161.919h.382a6.136,6.136,0,0,1,1.1.06,5.95,5.95,0,0,1,1.7.493,5.524,5.524,0,0,1,1.827,1.445,6.39,6.39,0,0,1,1.258,2.55,6.084,6.084,0,0,1-.272,3.255,9.948,9.948,0,0,1-.739,1.632,16.568,16.568,0,0,0-.85,1.64,14.083,14.083,0,0,0-1.062,3.739v.085h-2.711l-2.728.042h-.1v-.093a7.742,7.742,0,0,0-1.266-3.6c-.314-.535-.663-1.045-.986-1.555a16.382,16.382,0,0,1-.926-1.513,5.1,5.1,0,0,1-.408-3.2,6.8,6.8,0,0,1,1.011-2.626,4.979,4.979,0,0,1,1.7-1.538,6.068,6.068,0,0,1,1.615-.629,8.139,8.139,0,0,1,1.079-.178h0a7.361,7.361,0,0,0-1.062.2,6.892,6.892,0,0,0-1.581.646,4.98,4.98,0,0,0-1.657,1.53,6.7,6.7,0,0,0-.969,2.55,4.886,4.886,0,0,0,.416,3.1,15.642,15.642,0,0,0,.918,1.487c.323.51.671,1.02.994,1.564a7.9,7.9,0,0,1,1.3,3.688l-.1-.093,2.728-.042,2.6-.042-.093.085a13.98,13.98,0,0,1,1.088-3.79,16,16,0,0,1,.85-1.657,9.506,9.506,0,0,0,.731-1.513,5.949,5.949,0,0,0,.289-3.17,6.119,6.119,0,0,0-1.215-2.482,5.312,5.312,0,0,0-1.759-1.436,6.28,6.28,0,0,0-1.64-.518,6.574,6.574,0,0,0-1.088-.085h-.382Z" transform="translate(-204.272 -94.127)" fill="#fff"/>
      <path id="Trazado_100868" data-name="Trazado 100868" d="M274.988,177.426a.556.556,0,0,1,0-.085V177.1c0-.221-.085-.535-.144-.943-.119-.85-.3-2-.416-3.476,0-.365-.051-.756-.068-1.156s0-.85,0-1.258a3.654,3.654,0,0,1,.3-1.317,1.972,1.972,0,0,1,1.011-1,1.317,1.317,0,0,1,1.428.272.969.969,0,0,1,.306.714,1.275,1.275,0,0,1-.263.756,1.7,1.7,0,0,1-.637.51,3.144,3.144,0,0,1-.782.263,9.7,9.7,0,0,1-1.7.2,9.858,9.858,0,0,1-1.7-.085,2.957,2.957,0,0,1-.8-.229,2.134,2.134,0,0,1-.663-.467,1.64,1.64,0,0,1-.382-.705,1.232,1.232,0,0,1,.093-.782,1.062,1.062,0,0,1,.552-.535.952.952,0,0,1,.748,0,1.462,1.462,0,0,1,.561.476,1.844,1.844,0,0,1,.28.654,8.362,8.362,0,0,1,.136,1.343c.042.85.085,1.7.127,2.414.068,1.47.127,2.669.17,3.493a5.847,5.847,0,0,0,.042.952.374.374,0,0,1,0,.246v.085a.3.3,0,0,1,0-.085v-.246a6.279,6.279,0,0,0-.059-.952c-.051-.85-.119-2.014-.2-3.484-.042-.739-.085-1.547-.136-2.414a9.108,9.108,0,0,0-.136-1.334,1.887,1.887,0,0,0-.272-.629,1.42,1.42,0,0,0-.527-.45.918.918,0,0,0-.688,0,.977.977,0,0,0-.51.5,1.139,1.139,0,0,0-.093.731,1.461,1.461,0,0,0,.365.663,2.38,2.38,0,0,0,1.411.68,9.721,9.721,0,0,0,1.657.076,9.6,9.6,0,0,0,1.649-.187,3.4,3.4,0,0,0,.765-.255,1.7,1.7,0,0,0,.6-.484,1.241,1.241,0,0,0,.255-.714.943.943,0,0,0-.28-.663,1.283,1.283,0,0,0-1.351-.255,1.92,1.92,0,0,0-.969.969,3.441,3.441,0,0,0-.3,1.283v1.258a7.31,7.31,0,0,0,.059,1.156c.111,1.47.28,2.651.382,3.476.059.4.1.722.136.935v.246a.7.7,0,0,1,.043.085Z" transform="translate(-204.748 -95.008)" fill="#fff"/>
      <path id="Trazado_100869" data-name="Trazado 100869" d="M271.709,179.246q.055.423.068.85c0,.637.076,1.4.119,2.286v-.059l1.768,2.048h-.094l2.057-.11-.094.042c.331-.408.671-.85,1.028-1.249l.51-.62v.076c0-1.2-.06-2.337-.085-3.4l.119.1-3.833.042h-1.1a2.429,2.429,0,0,1-.416,0,2.166,2.166,0,0,1,.365,0l1.079-.051,3.858-.2h.111v.11c0,1.037.068,2.176.1,3.4v.051h0l-.51.62-1.028,1.249h-.051l-2.048.1h-.06l-1.742-2.074h0v-2.346A3,3,0,0,1,271.709,179.246Z" transform="translate(-204.937 -96.693)" fill="#fff"/>
      <path id="Trazado_100870" data-name="Trazado 100870" d="M277.036,182.673l-.2-.085a4.983,4.983,0,0,0-.535-.212,5.311,5.311,0,0,0-1.853-.28,5.1,5.1,0,0,0-1.827.391,5.206,5.206,0,0,0-.518.246l-.187.093a1.466,1.466,0,0,1,.17-.119,4.29,4.29,0,0,1,.51-.272,4.963,4.963,0,0,1,1.853-.425,5.023,5.023,0,0,1,1.878.314c.221.085.4.17.527.229A.74.74,0,0,1,277.036,182.673Z" transform="translate(-204.969 -97.144)" fill="#fff"/>
      <path id="Trazado_100871" data-name="Trazado 100871" d="M277.036,181.7a.38.38,0,0,1-.2-.085,2.282,2.282,0,0,0-.535-.2,5.1,5.1,0,0,0-3.68.11l-.518.238-.187.093.17-.119a4.477,4.477,0,0,1,.51-.263,4.8,4.8,0,0,1,1.853-.425,4.954,4.954,0,0,1,1.87.306,3.644,3.644,0,0,1,.527.238Z" transform="translate(-204.969 -97)" fill="#fff"/>
      <path id="Trazado_100872" data-name="Trazado 100872" d="M276.976,180.784l-.2-.076a4.716,4.716,0,0,0-.527-.212,5.252,5.252,0,0,0-4.207.357l-.187.093.17-.127a5.6,5.6,0,0,1,.518-.263,4.912,4.912,0,0,1,1.844-.425,5.04,5.04,0,0,1,1.878.306c.229.093.408.178.527.238Z" transform="translate(-204.96 -96.862)" fill="#fff"/>
      <path id="Trazado_100873" data-name="Trazado 100873" d="M218.31,171s.178,21,1.241,27.407l26.345-1.249s-2.354-20.609-1.428-26.158Z" transform="translate(-196.919 -95.491)" fill="#3e2ea6"/>
      <path id="Trazado_100874" data-name="Trazado 100874" d="M241.3,181.412c0,.119-3.943.459-8.821.748s-8.847.433-8.855.314,3.943-.459,8.83-.756A87.462,87.462,0,0,1,241.3,181.412Z" transform="translate(-197.717 -97.048)" fill="#fff"/>
      <path id="Trazado_100875" data-name="Trazado 100875" d="M241.307,186.643a87.363,87.363,0,0,1-8.821.756,87.612,87.612,0,0,1-8.855.306c0-.119,3.943-.459,8.821-.748S241.3,186.524,241.307,186.643Z" transform="translate(-197.718 -97.834)" fill="#fff"/>
      <path id="Trazado_100876" data-name="Trazado 100876" d="M237.381,191.777a29.446,29.446,0,0,1-5.023.527,28.623,28.623,0,0,1-5.048.076,28.979,28.979,0,0,1,5.023-.518A29.176,29.176,0,0,1,237.381,191.777Z" transform="translate(-198.271 -98.6)" fill="#fff"/>
      <path id="Trazado_100877" data-name="Trazado 100877" d="M275.8,197.75s-2.125,19.453.612,30.1l25.988-1.139s-5.575-19.189-2.15-27.688Z" transform="translate(-205.434 -99.508)" fill="#ebebeb"/>
      <path id="Trazado_100878" data-name="Trazado 100878" d="M276.06,197s.178,21,1.249,27.408l26.345-1.241s-2.312-20.643-1.419-26.167Z" transform="translate(-205.591 -99.395)" fill="#3e2ea6"/>
      <path id="Trazado_100879" data-name="Trazado 100879" d="M299.048,207.383a87.365,87.365,0,0,1-8.821.756,87.427,87.427,0,0,1-8.847.306c0-.119,3.943-.459,8.821-.748S299.048,207.264,299.048,207.383Z" transform="translate(-206.39 -100.948)" fill="#fff"/>
      <path id="Trazado_100880" data-name="Trazado 100880" d="M299.058,212.628c0,.119-3.943.459-8.821.748s-8.838.433-8.847.314a87.36,87.36,0,0,1,8.821-.756,87.427,87.427,0,0,1,8.847-.306Z" transform="translate(-206.391 -101.74)" fill="#fff"/>
      <path id="Trazado_100881" data-name="Trazado 100881" d="M295.141,217.756a30.162,30.162,0,0,1-5.023.518,29.158,29.158,0,0,1-5.048.085,28.317,28.317,0,0,1,5.023-.527A27.681,27.681,0,0,1,295.141,217.756Z" transform="translate(-206.944 -102.5)" fill="#fff"/>
      <path id="Trazado_100882" data-name="Trazado 100882" d="M269.46,293.66s-2.133,19.453.6,30.1l25.988-1.139s-5.566-19.181-2.15-27.679Z" transform="translate(-204.481 -113.909)" fill="#ebebeb"/>
      <path id="Trazado_100883" data-name="Trazado 100883" d="M269.72,292.93s.178,21,1.249,27.4l26.345-1.241s-2.32-20.643-1.428-26.158Z" transform="translate(-204.639 -113.8)" fill="#3e2ea6"/>
      <path id="Trazado_100884" data-name="Trazado 100884" d="M292.707,303.308c0,.119-3.943.459-8.821.748s-8.847.433-8.855.314a87.709,87.709,0,0,1,8.83-.756A87.43,87.43,0,0,1,292.707,303.308Z" transform="translate(-205.436 -115.356)" fill="#fff"/>
      <path id="Trazado_100885" data-name="Trazado 100885" d="M292.717,308.533c0,.119-3.943.459-8.821.756a87.547,87.547,0,0,1-8.855.306c-.008-.119,3.943-.459,8.83-.748S292.708,308.414,292.717,308.533Z" transform="translate(-205.438 -116.136)" fill="#fff"/>
      <path id="Trazado_100886" data-name="Trazado 100886" d="M288.791,313.666a58.725,58.725,0,0,1-10.071.6,29.447,29.447,0,0,1,5.023-.527,28.624,28.624,0,0,1,5.048-.077Z" transform="translate(-205.99 -116.902)" fill="#fff"/>
      <path id="Trazado_100887" data-name="Trazado 100887" d="M226.471,275.15s-2.125,19.453.612,30.1l25.988-1.139s-5.566-19.181-2.15-27.679Z" transform="translate(-198.027 -111.13)" fill="#ebebeb"/>
      <path id="Trazado_100888" data-name="Trazado 100888" d="M226.74,274.42s.178,21,1.241,27.408l26.345-1.249s-2.312-20.643-1.419-26.158Z" transform="translate(-198.185 -111.02)" fill="#3e2ea6"/>
      <path id="Trazado_100889" data-name="Trazado 100889" d="M249.727,284.8c0,.119-3.943.459-8.83.748s-8.838.433-8.847.314a87.365,87.365,0,0,1,8.821-.756,87.6,87.6,0,0,1,8.855-.306Z" transform="translate(-198.983 -112.577)" fill="#fff"/>
      <path id="Trazado_100890" data-name="Trazado 100890" d="M249.737,289.994c0,.119-3.952.459-8.83.756a87.421,87.421,0,0,1-8.847.306c0-.119,3.943-.459,8.821-.748S249.728,289.9,249.737,289.994Z" transform="translate(-198.984 -113.354)" fill="#fff"/>
      <path id="Trazado_100891" data-name="Trazado 100891" d="M245.811,295.157a29.447,29.447,0,0,1-5.023.527,28.628,28.628,0,0,1-5.048.077,28.976,28.976,0,0,1,5.023-.518,29.174,29.174,0,0,1,5.048-.085Z" transform="translate(-199.537 -114.123)" fill="#fff"/>
      <path id="Trazado_100892" data-name="Trazado 100892" d="M385.921,278.56s-2.125,19.453.612,30.1l25.98-1.139s-5.566-19.181-2.142-27.688Z" transform="translate(-221.969 -111.642)" fill="#ebebeb"/>
      <path id="Trazado_100893" data-name="Trazado 100893" d="M386.18,277.83s.178,20.991,1.249,27.4l26.345-1.241s-2.312-20.643-1.428-26.158Z" transform="translate(-222.126 -111.532)" fill="#3e2ea6"/>
      <path id="Trazado_100894" data-name="Trazado 100894" d="M409.168,288.192a87.364,87.364,0,0,1-8.821.756c-4.878.3-8.838.433-8.847.314a87.374,87.374,0,0,1,8.821-.756C405.2,288.209,409.16,288.073,409.168,288.192Z" transform="translate(-222.925 -113.082)" fill="#fff"/>
      <path id="Trazado_100895" data-name="Trazado 100895" d="M409.177,293.438c0,.119-3.943.459-8.821.748s-8.847.433-8.855.314,3.943-.459,8.83-.756A87.44,87.44,0,0,1,409.177,293.438Z" transform="translate(-222.925 -113.874)" fill="#fff"/>
      <path id="Trazado_100896" data-name="Trazado 100896" d="M405.221,298.566a28.84,28.84,0,0,1-5.023.518,29.175,29.175,0,0,1-5.048.085,29.588,29.588,0,0,1,5.023-.527A28.6,28.6,0,0,1,405.221,298.566Z" transform="translate(-223.473 -114.635)" fill="#fff"/>
      <path id="Trazado_100897" data-name="Trazado 100897" d="M264.431,221.083s-2.652,19.393-7.878,29.056l-24.943-7.394s10.054-17.269,8.787-26.345Z" transform="translate(-198.916 -102.308)" fill="#ebebeb"/>
      <path id="Trazado_100898" data-name="Trazado 100898" d="M264.441,220.051s-5.261,20.328-7.844,26.286l-25.257-7.581s7.249-19.47,7.717-25.036Z" transform="translate(-198.876 -101.906)" fill="#455a64"/>
      <path id="Trazado_100899" data-name="Trazado 100899" d="M242.44,224.92a88.286,88.286,0,0,1,8.5,2.439,87.256,87.256,0,0,1,8.379,2.873c0,.11-3.841-.977-8.5-2.448a86.978,86.978,0,0,1-8.379-2.864Z" transform="translate(-200.543 -103.588)" fill="#fff"/>
      <path id="Trazado_100900" data-name="Trazado 100900" d="M241.16,230c.042-.11,3.85.977,8.5,2.448s8.413,2.753,8.379,2.864-3.85-.977-8.5-2.439S241.126,230.109,241.16,230Z" transform="translate(-200.35 -104.349)" fill="#fff"/>
      <path id="Trazado_100901" data-name="Trazado 100901" d="M245,236.26a28.046,28.046,0,0,1,4.878,1.3,27.867,27.867,0,0,1,4.742,1.7,29.579,29.579,0,0,1-4.878-1.309A30.023,30.023,0,0,1,245,236.26Z" transform="translate(-200.927 -105.29)" fill="#fff"/>
      <path id="Trazado_100902" data-name="Trazado 100902" d="M297.609,246s2.133,19.453-.6,30.1L271,274.895s5.566-19.189,2.15-27.688Z" transform="translate(-204.831 -106.753)" fill="#ebebeb"/>
      <path id="Trazado_100903" data-name="Trazado 100903" d="M270.434,240.6s-1.776,23.3-3.2,27.756l23.668,2.49,3.561-3.4s2.312-17.082,1.955-22.6Z" transform="translate(-204.265 -105.942)" fill="#455a64"/>
      <path id="Trazado_100904" data-name="Trazado 100904" d="M295.635,272l-.535,3.561,3.561-3.382Z" transform="translate(-208.45 -110.657)" fill="#263238"/>
      <path id="Trazado_100905" data-name="Trazado 100905" d="M292.811,254.752a18.515,18.515,0,0,1-2.651-.306l-6.374-.9-6.382-.8a18.051,18.051,0,0,1-2.643-.391,14.948,14.948,0,0,1,2.677.085c1.64.119,3.918.34,6.408.671s4.751.705,6.365,1.02A14.387,14.387,0,0,1,292.811,254.752Z" transform="translate(-205.396 -107.703)" fill="#fff"/>
      <path id="Trazado_100906" data-name="Trazado 100906" d="M291.773,260.514a13.657,13.657,0,0,1-2.55-.085c-1.581-.11-3.756-.323-6.144-.62s-4.555-.646-6.11-.926a15.147,15.147,0,0,1-2.5-.552,14.261,14.261,0,0,1,2.55.246l6.11.79,6.119.756A14.966,14.966,0,0,1,291.773,260.514Z" transform="translate(-205.352 -108.604)" fill="#fff"/>
      <path id="Trazado_100907" data-name="Trazado 100907" d="M290.288,265.783a70.407,70.407,0,0,1-7.954-.85,72.588,72.588,0,0,1-7.9-1.283,73.1,73.1,0,0,1,7.963.85,75.218,75.218,0,0,1,7.895,1.283Z" transform="translate(-205.346 -109.403)" fill="#fff"/>
      <path id="Trazado_100908" data-name="Trazado 100908" d="M523.392,275s2.133,19.444-.6,30.1L496.8,303.963s5.566-19.189,2.15-27.688Z" transform="translate(-238.736 -111.107)" fill="#ebebeb"/>
      <path id="Trazado_100909" data-name="Trazado 100909" d="M496.234,269.65s-1.776,23.3-3.2,27.747l23.668,2.49,3.561-3.4s2.312-17.09,1.955-22.606Z" transform="translate(-238.17 -110.304)" fill="#455a64"/>
      <path id="Trazado_100910" data-name="Trazado 100910" d="M521.415,301.05l-.535,3.561,3.561-3.382Z" transform="translate(-242.352 -115.019)" fill="#263238"/>
      <path id="Trazado_100911" data-name="Trazado 100911" d="M518.632,283.8a17.946,17.946,0,0,1-2.651-.314l-6.365-.892-6.391-.8a15.57,15.57,0,0,1-2.635-.4,14.839,14.839,0,0,1,2.669.085c1.649.119,3.918.34,6.408.671s4.751.714,6.365,1.028a14.137,14.137,0,0,1,2.6.62Z" transform="translate(-239.305 -112.064)" fill="#fff"/>
      <path id="Trazado_100912" data-name="Trazado 100912" d="M517.553,289.613a13.654,13.654,0,0,1-2.55-.085c-1.581-.119-3.748-.323-6.144-.629s-4.547-.637-6.11-.918a13.6,13.6,0,0,1-2.5-.561,16.5,16.5,0,0,1,2.549.246l6.119.8,6.119.748A14.331,14.331,0,0,1,517.553,289.613Z" transform="translate(-239.254 -112.972)" fill="#fff"/>
      <path id="Trazado_100913" data-name="Trazado 100913" d="M516.068,294.835a143.99,143.99,0,0,1-15.858-2.125,70.648,70.648,0,0,1,7.963.85,72.651,72.651,0,0,1,7.9,1.275Z" transform="translate(-239.248 -113.767)" fill="#fff"/>
      <path id="Trazado_100914" data-name="Trazado 100914" d="M486.82,158.37s2.125,19.444-.612,30.093l-25.988-1.13s5.566-19.189,2.15-27.688Z" transform="translate(-233.243 -93.595)" fill="#ebebeb"/>
      <path id="Trazado_100915" data-name="Trazado 100915" d="M459.655,153s-1.776,23.311-3.2,27.756l23.66,2.49,3.561-3.4s2.312-17.082,1.963-22.6Z" transform="translate(-232.679 -92.788)" fill="#455a64"/>
      <path id="Trazado_100916" data-name="Trazado 100916" d="M484.837,184.41l-.527,3.561,3.552-3.382Z" transform="translate(-236.861 -97.505)" fill="#263238"/>
      <path id="Trazado_100917" data-name="Trazado 100917" d="M482.061,167.17a15.827,15.827,0,0,1-2.66-.306l-6.365-.85-6.382-.8a16.75,16.75,0,0,1-2.643-.4,14.848,14.848,0,0,1,2.668.085c1.649.119,3.918.34,6.416.671s4.742.714,6.365,1.028A16.279,16.279,0,0,1,482.061,167.17Z" transform="translate(-233.813 -94.559)" fill="#fff"/>
      <path id="Trazado_100918" data-name="Trazado 100918" d="M480.944,172.924a14,14,0,0,1-2.55-.077c-1.572-.119-3.748-.331-6.144-.629s-4.547-.637-6.1-.918a13.368,13.368,0,0,1-2.5-.561,16.523,16.523,0,0,1,2.55.246l6.119.79,6.119.756a16.149,16.149,0,0,1,2.507.391Z" transform="translate(-233.758 -95.452)" fill="#fff"/>
      <path id="Trazado_100919" data-name="Trazado 100919" d="M479.49,178.2a71.954,71.954,0,0,1-7.954-.85,70.243,70.243,0,0,1-7.9-1.283,74.519,74.519,0,0,1,7.955.85,72.645,72.645,0,0,1,7.9,1.283Z" transform="translate(-233.757 -96.253)" fill="#fff"/>
      <path id="Trazado_100920" data-name="Trazado 100920" d="M369.13,168.34s2.125,19.453-.612,30.1L342.53,197.3s5.566-19.189,2.15-27.688Z" transform="translate(-215.572 -95.092)" fill="#ebebeb"/>
      <path id="Trazado_100921" data-name="Trazado 100921" d="M341.965,163s-1.776,23.3-3.2,27.747l23.66,2.5,3.561-3.4s2.32-17.082,1.963-22.606Z" transform="translate(-215.007 -94.29)" fill="#455a64"/>
      <path id="Trazado_100922" data-name="Trazado 100922" d="M367.147,194.39l-.527,3.561,3.552-3.382Z" transform="translate(-219.189 -99.003)" fill="#263238"/>
      <path id="Trazado_100923" data-name="Trazado 100923" d="M364.371,177.141a18.437,18.437,0,0,1-2.66-.306l-6.365-.9-6.382-.8a17.545,17.545,0,0,1-2.643-.391,13.91,13.91,0,0,1,2.669.085c1.649.119,3.918.34,6.416.671s4.742.705,6.365,1.02A14.641,14.641,0,0,1,364.371,177.141Z" transform="translate(-216.141 -96.049)" fill="#fff"/>
      <path id="Trazado_100924" data-name="Trazado 100924" d="M363.284,182.9a13.6,13.6,0,0,1-2.55-.085c-1.572-.11-3.748-.323-6.144-.629s-4.547-.637-6.1-.918a13.368,13.368,0,0,1-2.5-.561,16.022,16.022,0,0,1,2.55.255l6.119.79,6.119.748a14.326,14.326,0,0,1,2.507.4Z" transform="translate(-216.091 -96.949)" fill="#fff"/>
      <path id="Trazado_100925" data-name="Trazado 100925" d="M361.8,188.173a70.611,70.611,0,0,1-7.955-.85,72.649,72.649,0,0,1-7.9-1.283,73.088,73.088,0,0,1,7.955.85A72.637,72.637,0,0,1,361.8,188.173Z" transform="translate(-216.085 -97.75)" fill="#fff"/>
      <path id="Trazado_100926" data-name="Trazado 100926" d="M332.79,213.54l2.048,47.557,59.362.714-2.66-47.642Z" transform="translate(-214.109 -101.879)" fill="#ebebeb"/>
      <rect id="Rectángulo_33893" data-name="Rectángulo 33893" width="58.971" height="44.532" transform="translate(117.992 111.321)" fill="#fff"/>
      <path id="Trazado_100927" data-name="Trazado 100927" d="M390.909,257.608v-3.229c0-2.091,0-5.1-.042-9.008,0-7.768-.06-18.875-.093-32.294l.178.178-59,.051h0l.221-.221v44.523l-.2-.2,42.492.1,12.093.051H390.9a1.5,1.5,0,0,1-.263,0h-4.028l-12.051.051-42.662.1h-.2V212.77h59.4v.187c0,13.487-.068,24.646-.094,32.422,0,3.867,0,6.892-.042,8.974V256.7C390.926,257.353,390.909,257.608,390.909,257.608Z" transform="translate(-213.946 -101.763)" fill="#263238"/>
      <rect id="Rectángulo_33894" data-name="Rectángulo 33894" width="23.906" height="30.085" transform="translate(125.106 120.754)" fill="#fff"/>
      <path id="Trazado_100928" data-name="Trazado 100928" d="M364.238,254.258a1.375,1.375,0,0,1,0-.153v-2.074c0-1.462,0-3.544-.059-6.178,0-5.295-.06-12.79-.093-21.68l.2.2H340.375l.221-.221h0v30.076l-.187-.187,17.3.1h6.144a2.855,2.855,0,0,1,.459,0,2.087,2.087,0,0,1-.416,0h-1.258l-4.81.042-17.422.1h-.178V224.021h0l.221-.221h24.1v.2c0,8.949-.068,16.478-.093,21.807,0,2.618-.042,4.683-.059,6.136v1.606a4.079,4.079,0,0,1-.162.714Z" transform="translate(-215.226 -103.419)" fill="#263238"/>
      <rect id="Rectángulo_33895" data-name="Rectángulo 33895" width="45.815" height="4.334" transform="translate(126.023 113.871)" fill="#fff"/>
      <path id="Trazado_100929" data-name="Trazado 100929" d="M387.21,220.413a1.276,1.276,0,0,1,0-.3v-.85c0-.756,0-1.827-.051-3.2l.093.085c-7.734.076-25.342.136-45.815.136h0l.221-.221h0v4.317l-.221-.221,32.464.093,9.748.068h.111l-9.7.068-32.626.093h-.221v-4.538h0c.093-.1-.221.221.221-.221h0c20.473,0,38.082.051,45.815.127h.085v.093c0,1.394,0,2.473-.051,3.246v.85C387.218,220.328,387.21,220.421,387.21,220.413Z" transform="translate(-215.371 -102.208)" fill="#263238"/>
      <rect id="Rectángulo_33896" data-name="Rectángulo 33896" width="19.895" height="18.136" transform="translate(151.935 120.754)" fill="#fff"/>
      <path id="Trazado_100930" data-name="Trazado 100930" d="M391.8,242.335a1.851,1.851,0,0,1,0-.348V241c0-.892,0-2.133-.051-3.7,0-3.2-.06-7.7-.1-13.1l.2.187H371.946c-.051.042.416-.416.212-.221h0v18.11l-.2-.187,14.354.093,4.071.051h1.479a1.7,1.7,0,0,1-.348,0h-1.054l-4.028.051-14.447.093H371.8V224.25h0c-.2.2.272-.272.229-.221h20.082v.187c-.042,5.447-.076,9.994-.1,13.215,0,1.547,0,2.77-.042,3.654v.952C391.968,242.284,391.8,242.343,391.8,242.335Z" transform="translate(-219.96 -103.453)" fill="#263238"/>
      <rect id="Rectángulo_33897" data-name="Rectángulo 33897" width="19.895" height="9.11" transform="translate(151.935 141.729)" fill="#fff"/>
      <path id="Trazado_100931" data-name="Trazado 100931" d="M391.794,257.965a3.838,3.838,0,0,1,0-.663c0-.467,0-1.071-.042-1.836,0-1.606-.051-3.858-.085-6.612l.161.161-19.895.059c-.2.2.263-.272.212-.221h0v9.093l-.212-.212,14.226.1,4.147.059h1.53a1.794,1.794,0,0,1-.357,0H390.4l-4.1.06-14.371.1h-.2v-9.306h0c-.042.051.425-.416.229-.221l19.895.06h.161v.161c0,2.8-.068,5.1-.094,6.714v1.793A5.933,5.933,0,0,1,391.794,257.965Z" transform="translate(-219.956 -107.126)" fill="#263238"/>
      <path id="Trazado_100932" data-name="Trazado 100932" d="M363.661,224.3c-7.394,10.2-15.909,19.81-23.311,30.034" transform="translate(-215.244 -103.495)" fill="#fff"/>
      <path id="Trazado_100933" data-name="Trazado 100933" d="M340.35,254.334a9.009,9.009,0,0,1,.85-1.258c.544-.79,1.36-1.921,2.388-3.306,2.048-2.762,4.989-6.5,8.277-10.589s6.272-7.8,8.379-10.513l2.5-3.212a9.967,9.967,0,0,1,.952-1.156,9.353,9.353,0,0,1-.807,1.258c-.552.79-1.368,1.921-2.388,3.306-2.057,2.762-5,6.5-8.286,10.589s-6.263,7.793-8.379,10.513l-2.5,3.212A8.985,8.985,0,0,1,340.35,254.334Z" transform="translate(-215.244 -103.495)" fill="#263238"/>
      <line id="Línea_150" data-name="Línea 150" x2="23.906" y2="30.085" transform="translate(125.106 120.754)" fill="#fff"/>
      <path id="Trazado_100934" data-name="Trazado 100934" d="M364.256,254.324c-.093.076-5.524-6.595-12.127-14.906s-11.9-15.1-11.779-15.178,5.524,6.595,12.127,14.906S364.349,254.248,364.256,254.324Z" transform="translate(-215.244 -103.485)" fill="#263238"/>
      <circle id="Elipse_4734" data-name="Elipse 4734" cx="3.739" cy="3.739" r="3.739" transform="translate(113.25 117.075)" fill="#3e2ea6"/>
      <path id="Trazado_100935" data-name="Trazado 100935" d="M330.133,227.41a3.765,3.765,0,1,1,3.756-3.765,3.765,3.765,0,0,1-3.756,3.765Zm0-7.479a3.722,3.722,0,1,0,3.714,3.714,3.722,3.722,0,0,0-3.714-3.714Z" transform="translate(-213.144 -102.831)" fill="#263238"/>
      <circle id="Elipse_4735" data-name="Elipse 4735" cx="3.739" cy="3.739" r="3.739" transform="translate(174.414 107.998)" fill="#3e2ea6"/>
      <path id="Trazado_100936" data-name="Trazado 100936" d="M402.1,216.73a3.765,3.765,0,1,1,3.765-3.765,3.765,3.765,0,0,1-3.765,3.765Zm0-7.479a3.714,3.714,0,1,0,2.632,1.085,3.722,3.722,0,0,0-2.632-1.085Z" transform="translate(-223.952 -101.227)" fill="#263238"/>
      <path id="Trazado_100937" data-name="Trazado 100937" d="M422.646,191.9l-17.609,9.059-8.507-1.207,4.555-8.074,18.569-6.544Z" transform="translate(-223.68 -97.615)" fill="#ebebeb"/>
      <path id="Trazado_100938" data-name="Trazado 100938" d="M395.67,197.929l4.309-6.943,19.079-6.926,3.833,7.538L404.4,198.983Z" transform="translate(-223.551 -97.452)" fill="#455a64"/>
      <path id="Trazado_100939" data-name="Trazado 100939" d="M418.386,189.328a10.8,10.8,0,0,1-1.844.85c-1.164.467-2.77,1.1-4.555,1.785l-4.581,1.7c-1.164.425-1.929.68-1.887.654-.144-.178,2.754-1.419,6.306-2.779A44.7,44.7,0,0,1,418.386,189.328Z" transform="translate(-225.029 -98.241)" fill="#fff"/>
      <path id="Trazado_100940" data-name="Trazado 100940" d="M415.66,193.35a16.912,16.912,0,0,1-4.1,1.946,16.689,16.689,0,0,1-4.385,1.215q4.21-1.684,8.5-3.161Z" transform="translate(-225.278 -98.847)" fill="#fff"/>
      <path id="Trazado_100941" data-name="Trazado 100941" d="M457.69,199.256l6.442,34.019L528.448,221.1,517.273,187.97Z" transform="translate(-232.864 -98.039)" fill="#ebebeb"/>
      <rect id="Rectángulo_33898" data-name="Rectángulo 33898" width="62.005" height="30.679" transform="translate(223.485 101.463) rotate(-10.72)" fill="#fff"/>
      <path id="Trazado_100942" data-name="Trazado 100942" d="M522.7,218.09l-.119-.544c-.076-.374-.178-.9-.314-1.572-.272-1.394-.671-3.4-1.181-6.017-1-5.21-2.456-12.748-4.249-21.977l.2.127L456.12,199.7h0l.178-.263c2,10.632,3.926,20.83,5.685,30.178l-.246-.17,43.75-8.175,12.637-2.337,3.4-.62.85-.153.306-.042-.272.068-.85.17-3.331.663-12.569,2.439-43.852,8.4-.2.042v-.2l-5.72-30.144-.042-.212.221-.043h0l60.925-11.481h.161v.161c1.7,9.306,3.127,16.861,4.1,22.1.467,2.592.85,4.606,1.1,5.991.119.671.2,1.19.272,1.555S522.7,218.09,522.7,218.09Z" transform="translate(-232.586 -98.015)" fill="#263238"/>
      <rect id="Rectángulo_33899" data-name="Rectángulo 33899" width="17.141" height="17.141" transform="translate(230.811 106.966) rotate(-10.72)" fill="#fff"/>
      <path id="Trazado_100943" data-name="Trazado 100943" d="M484.737,221.065a2.193,2.193,0,0,1-.085-.323c-.051-.238-.11-.544-.2-.918-.17-.85-.4-1.989-.7-3.4l-2.4-12.127.221.153-16.835,3.212c0,.06.331-.484.178-.255h0v.272l.051.289.11.569c.077.382.145.765.221,1.147.136.756.28,1.5.425,2.252.272,1.479.552,2.94.85,4.351.527,2.83,1.028,5.5,1.479,7.946l-.221-.144,12.17-2.21,3.45-.6.926-.153h.331a.977.977,0,0,1-.28.076l-.85.2-3.4.688-12.255,2.422h-.187v-.187c-.467-2.448-.986-5.1-1.521-7.946q-.408-2.116-.85-4.351c-.145-.739-.289-1.5-.425-2.252-.077-.374-.145-.756-.221-1.139l-.11-.578-.051-.289v-.272h0l.178-.263L481.516,204h.187v.187c.918,5.057,1.7,9.28,2.227,12.289.255,1.436.45,2.55.595,3.4.06.357.111.654.145.85A1.106,1.106,0,0,1,484.737,221.065Z" transform="translate(-233.897 -100.446)" fill="#263238"/>
      <path id="Trazado_100944" data-name="Trazado 100944" d="M485.29,221.835s-.093-.433-.331-1.2a5.949,5.949,0,0,0-1.785-2.83h0a6.29,6.29,0,0,0-2.082-1.266,6.442,6.442,0,0,0-2.83-.323h-.4l.212-.34a4.249,4.249,0,0,0,.153-4.028,3.757,3.757,0,0,0-1.487-1.7,4.028,4.028,0,0,0-2.278-.535,4.249,4.249,0,0,0-2.465.918,3.689,3.689,0,0,0-1.309,2.116,4.317,4.317,0,0,0,1.385,4.2l.212.17-.229.144a7.283,7.283,0,0,0-2.55,2.55,7.871,7.871,0,0,0-.977,2.643,11.12,11.12,0,0,0-.068,2.482,2.464,2.464,0,0,1-.145-.637,6.739,6.739,0,0,1,0-1.87,7.65,7.65,0,0,1,.926-2.771,7.47,7.47,0,0,1,2.609-2.753v.306a4.649,4.649,0,0,1-1.564-4.581,4.045,4.045,0,0,1,1.445-2.371,4.683,4.683,0,0,1,2.711-1.02,4.4,4.4,0,0,1,2.55.595,4.309,4.309,0,0,1,1.657,1.861,4.674,4.674,0,0,1-.212,4.428l-.2-.2a6.8,6.8,0,0,1,2.991.382,6.5,6.5,0,0,1,2.159,1.377h0a5.771,5.771,0,0,1,1.768,3.017,7.218,7.218,0,0,1,.178.918C485.3,221.767,485.307,221.835,485.29,221.835Z" transform="translate(-234.45 -101.216)" fill="#263238"/>
      <path id="Trazado_100945" data-name="Trazado 100945" d="M492.11,203.081l14.609-2.771" transform="translate(-238.032 -99.892)" fill="#fff"/>
      <path id="Trazado_100946" data-name="Trazado 100946" d="M506.719,200.31a60.2,60.2,0,0,1-7.266,1.606,62.176,62.176,0,0,1-7.343,1.164,62.733,62.733,0,0,1,7.266-1.606A64.373,64.373,0,0,1,506.719,200.31Z" transform="translate(-238.032 -99.892)" fill="#263238"/>
      <path id="Trazado_100947" data-name="Trazado 100947" d="M492.87,207.461l2.949-.561" transform="translate(-238.146 -100.882)" fill="#fff"/>
      <path id="Trazado_100948" data-name="Trazado 100948" d="M495.819,206.887c0,.119-.62.348-1.436.5s-1.487.178-1.513.059.62-.34,1.436-.493S495.793,206.768,495.819,206.887Z" transform="translate(-238.146 -100.869)" fill="#263238"/>
      <path id="Trazado_100949" data-name="Trazado 100949" d="M520.3,208.688c0,.119-5.8,1.326-13.011,2.686s-13.079,2.38-13.1,2.252,5.8-1.275,13.02-2.686S520.27,208.569,520.3,208.688Z" transform="translate(-238.343 -101.149)" fill="#263238"/>
      <path id="Trazado_100950" data-name="Trazado 100950" d="M521.1,212.129c0,.119-5.838,1.326-13.088,2.7s-13.147,2.388-13.173,2.269,5.838-1.334,13.088-2.7S521.075,212.018,521.1,212.129Z" transform="translate(-238.442 -101.666)" fill="#263238"/>
      <path id="Trazado_100951" data-name="Trazado 100951" d="M521.438,216.22a5.174,5.174,0,0,1-1,.272l-2.754.595c-2.328.484-5.549,1.122-9.11,1.793s-6.8,1.258-9.144,1.7l-2.779.45a4.88,4.88,0,0,1-1.028.11,4.35,4.35,0,0,1,.994-.28l2.728-.578c2.329-.484,5.549-1.122,9.119-1.793s6.8-1.266,9.136-1.7l2.779-.459A4.461,4.461,0,0,1,521.438,216.22Z" transform="translate(-238.559 -102.281)" fill="#263238"/>
      <path id="Trazado_100952" data-name="Trazado 100952" d="M493.608,199.317a5.9,5.9,0,0,1,.646-.348,17.848,17.848,0,0,1,1.972-.79,18.1,18.1,0,0,1,7.734-.722,16.453,16.453,0,0,1,5.193,1.487,7.233,7.233,0,0,1,2.4,1.887,3.646,3.646,0,0,1,.731,3.153,5.371,5.371,0,0,1-2.006,2.754,16.792,16.792,0,0,1-3.025,1.793,28.435,28.435,0,0,1-6.952,2.38,16.7,16.7,0,0,1-7.343-.1,10.929,10.929,0,0,1-3.263-1.343,5.4,5.4,0,0,1-2.227-2.55,3.807,3.807,0,0,1,.357-3.221,7.9,7.9,0,0,1,2.074-2.227,20.683,20.683,0,0,1,4.751-2.55,20.99,20.99,0,0,1,7.649-1.36,19.1,19.1,0,0,1,2.108.161,4.649,4.649,0,0,1,.731.136,4.383,4.383,0,0,1-.739-.042c-.476,0-1.19-.085-2.1-.076a21.288,21.288,0,0,0-7.547,1.479,20.1,20.1,0,0,0-4.632,2.55,7.649,7.649,0,0,0-1.963,2.133,3.442,3.442,0,0,0-.314,2.889,5.006,5.006,0,0,0,2.074,2.363,10.547,10.547,0,0,0,3.136,1.283,16.665,16.665,0,0,0,7.164.085,28.249,28.249,0,0,0,6.841-2.337,16.208,16.208,0,0,0,2.949-1.7,4.887,4.887,0,0,0,1.87-2.55,3.212,3.212,0,0,0-.637-2.813,6.867,6.867,0,0,0-2.261-1.793,16.486,16.486,0,0,0-5.1-1.513,18.425,18.425,0,0,0-7.649.578c-.85.272-1.538.518-1.98.705A3.64,3.64,0,0,1,493.608,199.317Z" transform="translate(-237.304 -99.443)" fill="#3e2ea6"/>
      <path id="Trazado_100953" data-name="Trazado 100953" d="M515.29,197.869a37.17,37.17,0,0,1,4.317-3.79,37.9,37.9,0,0,1,4.6-3.459,37.656,37.656,0,0,1-4.317,3.8,37.247,37.247,0,0,1-4.6,3.45Z" transform="translate(-241.512 -98.437)" fill="#3e2ea6"/>
      <path id="Trazado_100954" data-name="Trazado 100954" d="M520.652,197.737a31.689,31.689,0,0,1-5.1,1.258l-.6.127-.34.068.077-.331a10.632,10.632,0,0,1,1.844-4.249c.11.051-.85,1.827-1.419,4.317l-.255-.272.612-.127a30.461,30.461,0,0,1,5.184-.79Z" transform="translate(-241.41 -99.036)" fill="#3e2ea6"/>
      <path id="Trazado_100955" data-name="Trazado 100955" d="M508.155,202.62a75.147,75.147,0,0,1-8.014,1.453,77.026,77.026,0,0,1-8.091,1.02,75.057,75.057,0,0,1,8.023-1.453A74.113,74.113,0,0,1,508.155,202.62Z" transform="translate(-238.023 -100.239)" fill="#3e2ea6"/>
      <path id="Trazado_100956" data-name="Trazado 100956" d="M488.23,194.463a3.739,3.739,0,1,1-4.368-2.974A3.739,3.739,0,0,1,488.23,194.463Z" transform="translate(-236.336 -98.558)" fill="#3e2ea6"/>
      <path id="Trazado_100957" data-name="Trazado 100957" d="M484.544,198.92a3.765,3.765,0,1,1,.705-.068A4.046,4.046,0,0,1,484.544,198.92Zm0-7.487a3.951,3.951,0,0,0-.7.068,3.7,3.7,0,1,0,.7-.068Z" transform="translate(-236.329 -98.553)" fill="#263238"/>
      <path id="Trazado_100958" data-name="Trazado 100958" d="M196.77,89.973,501,98.268l.187-9.068Z" transform="translate(-193.685 -83.209)" fill="#e0e0e0"/>
      <rect id="Rectángulo_33900" data-name="Rectángulo 33900" width="314.018" height="6.765" fill="#455a64"/>
    </g>
    <g id="freepik--character-2--inject-2" transform="translate(400.499 160.336)">
      <path id="Trazado_100959" data-name="Trazado 100959" d="M574.6,185.722a8.9,8.9,0,0,1,13.886,8.413c-.221,1.768-.969,3.544-.51,5.261.85,3.229,5.4,4.487,5.949,7.768a8.8,8.8,0,0,1-.569,3.858,5.081,5.081,0,0,0,.085,3.841,11.217,11.217,0,0,0,2.057,2.057c2.21,2.21,2.176,6.093.314,8.617a9.875,9.875,0,0,1-8.26,3.629,18.305,18.305,0,0,1-8.787-3" transform="translate(-476.849 -180.779)" fill="#263238"/>
      <path id="Trazado_100960" data-name="Trazado 100960" d="M572.061,187.149a9.178,9.178,0,0,0-6.714-5.949c-3.051-.739-6.8-1.7-9.637-.306a8.048,8.048,0,0,0-4.113,4.02c-.85,2.184.433,6.255,1.062,8.5s1.1,4.8-.144,6.8-3.646,2.669-5.167,4.343a6.06,6.06,0,0,0,.629,8.4c-2.7-.161-4.98,2.592-4.887,5.3a7.72,7.72,0,0,0,4.487,6.3,17.285,17.285,0,0,0,7.9,1.487,47.589,47.589,0,0,0,9.994-1.037c2.7-.569,5.524-1.479,7.283-3.612,1.623-1.963,2.065-4.64,2.074-7.181,0-8.991-4.708-17.906-2.66-26.668" transform="translate(-472.118 -180.184)" fill="#263238"/>
      <path id="Trazado_100961" data-name="Trazado 100961" d="M558.291,301.35s-17.583,57.059-16.47,75.492,14.5,64.282,14.5,64.282Z" transform="translate(-471.92 -198.378)" fill="#eb996e"/>
      <path id="Trazado_100962" data-name="Trazado 100962" d="M585,289.8c.391-.1,8.108,11.226,8.362,20.966a23.323,23.323,0,0,1-.11,2.864,35.794,35.794,0,0,1-2.422,9.926c-6.518,16.461-13.24,36.008-13.351,40.436-.349,13.7-6.272,75.22-6.272,75.22l-13,.34-3.892-75.186,6.442-75.186Z" transform="translate(-473.803 -196.55)" fill="#ffbe9d"/>
      <path id="Trazado_100963" data-name="Trazado 100963" d="M472.6,241.894c1.334-1.394,7.385,3.858,7.929,4.249s1.147-.374.637-.714c-.731-.484-8.337-5.821-7.045-7.2.714-.765,1.972.654,1.972.654s6.739,5.507,7.326,4.844-3.255-4.054-4.632-5.1-1.428-2.1-.467-2.32c.654-.153,4.955,2.94,6.289,4.011s4.963,4.045,4.377,1.122.059-5.388.705-5.949,1.632.153,1.419,1.054a10.83,10.83,0,0,0,0,3.008,7.19,7.19,0,0,0,.663,2.32c.408.85.79,1.555,1.13,2.142,4.045,2.448,15.7,8.915,27.569,10.292,2.142.246,10.436-12.748,10.436-12.748l12.926,10.513s.1.85-9.2,12.314c-12.654,15.629-49.5-11.048-49.5-11.048V253.3a88.721,88.721,0,0,1-8.626-4.249c-3.782-2.329-3.578-2.677-3.229-3.068.926-1.054,6.8,3.85,6.153,2.065S471.591,242.957,472.6,241.894Z" transform="translate(-461.519 -188.459)" fill="#ffbe9d"/>
      <path id="Trazado_100964" data-name="Trazado 100964" d="M460.37,232.07s-2.133,19.444.6,30.093l25.988-1.13s-5.566-19.19-2.15-27.688Z" transform="translate(-459.578 -187.975)" fill="#ebebeb"/>
      <path id="Trazado_100965" data-name="Trazado 100965" d="M460.63,231.33s.178,21,1.241,27.408l26.345-1.249S485.9,236.846,486.8,231.33Z" transform="translate(-459.736 -187.864)" fill="#3e2ea6"/>
      <path id="Trazado_100966" data-name="Trazado 100966" d="M483.617,241.7a173.7,173.7,0,0,1-17.677,1.062c0-.119,3.943-.459,8.821-.748S483.608,241.584,483.617,241.7Z" transform="translate(-460.534 -189.415)" fill="#fff"/>
      <path id="Trazado_100967" data-name="Trazado 100967" d="M483.627,247c0,.119-3.943.459-8.83.748s-8.838.433-8.847.314A173.693,173.693,0,0,1,483.627,247Z" transform="translate(-460.535 -190.215)" fill="#fff"/>
      <path id="Trazado_100968" data-name="Trazado 100968" d="M479.7,252.067a28.451,28.451,0,0,1-5.023.527,29.173,29.173,0,0,1-5.048.085,28.454,28.454,0,0,1,5.023-.527,29.171,29.171,0,0,1,5.048-.085Z" transform="translate(-461.088 -190.967)" fill="#fff"/>
      <path id="Trazado_100969" data-name="Trazado 100969" d="M595.251,354.52s2.55-54.526-5.3-59.285-44.132,2.906-44.132,2.906-11.294,51.475-10.819,51.9C538.754,353.3,595.251,354.52,595.251,354.52Z" transform="translate(-470.901 -197.225)" fill="#455a64"/>
      <path id="Trazado_100970" data-name="Trazado 100970" d="M603.842,359.531a50.148,50.148,0,0,1-6.544-.111,47.511,47.511,0,0,1-6.518-.561,49.287,49.287,0,0,1,6.544.119A48.211,48.211,0,0,1,603.842,359.531Z" transform="translate(-479.279 -207.004)" fill="#263238"/>
      <path id="Trazado_100971" data-name="Trazado 100971" d="M601.411,364.462a6.066,6.066,0,0,1-.1-2.244,5.951,5.951,0,0,1,.34-2.218,5.669,5.669,0,0,1,.1,2.244A5.6,5.6,0,0,1,601.411,364.462Z" transform="translate(-480.851 -207.184)" fill="#263238"/>
      <path id="Trazado_100972" data-name="Trazado 100972" d="M593.487,364.359a7.7,7.7,0,0,1-.416-2.55,7.285,7.285,0,0,1,0-2.549,7.7,7.7,0,0,1,.416,2.549A7.31,7.31,0,0,1,593.487,364.359Z" transform="translate(-479.606 -207.073)" fill="#263238"/>
      <path id="Trazado_100973" data-name="Trazado 100973" d="M556.954,467.235v-1.7l13.419-.255v5.235l-.85.059c-3.688.2-18.773.79-21.246.051C545.592,469.8,556.954,467.235,556.954,467.235Z" transform="translate(-472.835 -222.992)" fill="#3e2ea6"/>
      <g id="Grupo_87414" data-name="Grupo 87414" transform="translate(92.745 243.765)" opacity="0.6">
        <path id="Trazado_100974" data-name="Trazado 100974" d="M568.71,470.853a4.631,4.631,0,0,1,1.7-2.847,4.547,4.547,0,0,1,3.127-.977v3.739Z" transform="translate(-568.71 -467.018)" fill="#fff"/>
      </g>
      <g id="Grupo_87415" data-name="Grupo 87415" transform="translate(75.059 245.678)" opacity="0.6">
        <path id="Trazado_100975" data-name="Trazado 100975" d="M551.427,469.27s-3.986,1.156-3.484,1.81,15.765.637,22.5,0v-.3l-17.8.178S552.234,469.3,551.427,469.27Z" transform="translate(-547.899 -469.27)" fill="#fff"/>
      </g>
      <path id="Trazado_100976" data-name="Trazado 100976" d="M570.5,471h-.229l-.663.042-2.431.1c-2.048.076-4.887.144-8.022.153s-5.949-.051-8.023-.119l-2.431-.093-.663-.043a.8.8,0,0,1-.229,0h.892l2.431.051c2.057,0,4.887.076,8.023.068s5.949-.06,8.022-.1l2.431-.059h.663A.989.989,0,0,1,570.5,471Z" transform="translate(-472.827 -223.85)" fill="#263238"/>
      <path id="Trazado_100977" data-name="Trazado 100977" d="M553.21,471.231a5.6,5.6,0,0,0-.45-1.156,5.383,5.383,0,0,0-.85-.935,1.836,1.836,0,0,1,.969.85A1.767,1.767,0,0,1,553.21,471.231Z" transform="translate(-473.442 -223.572)" fill="#263238"/>
      <path id="Trazado_100978" data-name="Trazado 100978" d="M558.255,468.673a2.865,2.865,0,0,1-.416-.51,1.488,1.488,0,0,1-.289-.6,2.939,2.939,0,0,1,.425.518C558.17,468.384,558.3,468.648,558.255,468.673Z" transform="translate(-474.289 -223.335)" fill="#263238"/>
      <path id="Trazado_100979" data-name="Trazado 100979" d="M559.511,468.067a2.1,2.1,0,0,1-.476-.314c-.229-.2-.391-.4-.365-.433s.246.1.476.314S559.536,468.033,559.511,468.067Z" transform="translate(-474.457 -223.298)" fill="#263238"/>
      <path id="Trazado_100980" data-name="Trazado 100980" d="M560.212,466.7a2.934,2.934,0,0,1-1.4.017,1.606,1.606,0,0,1,.705-.085A1.582,1.582,0,0,1,560.212,466.7Z" transform="translate(-474.479 -223.193)" fill="#263238"/>
      <path id="Trazado_100981" data-name="Trazado 100981" d="M560.443,465.66a1.309,1.309,0,0,1-.773.229,1.394,1.394,0,0,1-.85-.1,3.688,3.688,0,0,1,.79-.059,4.408,4.408,0,0,1,.833-.068Z" transform="translate(-474.48 -223.049)" fill="#263238"/>
      <path id="Trazado_100982" data-name="Trazado 100982" d="M557.406,467.29a2.548,2.548,0,0,1-.85,0,4.912,4.912,0,0,1-.918-.2,2.632,2.632,0,0,1-.527-.212.467.467,0,0,1-.212-.272.34.34,0,0,1,.128-.34,1.581,1.581,0,0,1,1.955.459,1.447,1.447,0,0,1,.28.569.528.528,0,0,1,0,.229,2.668,2.668,0,0,0-.4-.731,1.547,1.547,0,0,0-.731-.476,1.352,1.352,0,0,0-1.028.076c-.136.1-.076.255.077.348a2.362,2.362,0,0,0,.476.2,5.763,5.763,0,0,0,.892.229C557.074,467.264,557.406,467.264,557.406,467.29Z" transform="translate(-473.89 -223.115)" fill="#263238"/>
      <path id="Trazado_100983" data-name="Trazado 100983" d="M557.56,467.256a.85.85,0,0,1-.094-.595,1.361,1.361,0,0,1,.229-.629.892.892,0,0,1,.714-.442.348.348,0,0,1,.272.4.85.85,0,0,1-.153.382,2.746,2.746,0,0,1-.4.518,1.258,1.258,0,0,1-.493.348,5.45,5.45,0,0,0,.408-.425,2.8,2.8,0,0,0,.357-.51c.119-.187.2-.51,0-.552s-.434.2-.561.365a1.454,1.454,0,0,0-.246.561A3.742,3.742,0,0,0,557.56,467.256Z" transform="translate(-474.274 -223.039)" fill="#263238"/>
      <path id="Trazado_100984" data-name="Trazado 100984" d="M573.774,466.977s-.382,0-.986.042a4.25,4.25,0,0,0-2.159.85,4.376,4.376,0,0,0-1.343,1.912,8.487,8.487,0,0,0-.247.952v-.272a4.263,4.263,0,0,1,.144-.722,4.071,4.071,0,0,1,3.6-2.872,3.848,3.848,0,0,1,.731,0A.909.909,0,0,1,573.774,466.977Z" transform="translate(-476.015 -223.228)" fill="#263238"/>
      <path id="Trazado_100985" data-name="Trazado 100985" d="M566.309,469.478a11.056,11.056,0,0,1-3.909.043h1.955C565.459,469.52,566.309,469.435,566.309,469.478Z" transform="translate(-475.018 -223.621)" fill="#263238"/>
      <path id="Trazado_100986" data-name="Trazado 100986" d="M570.043,469.469s-.068.187-.161.391-.136.374-.179.374-.068-.212,0-.442S570.017,469.444,570.043,469.469Z" transform="translate(-476.108 -223.621)" fill="#263238"/>
      <path id="Trazado_100987" data-name="Trazado 100987" d="M571.18,468a.816.816,0,0,1-.187.306c-.136.136-.281.229-.314.2s.059-.178.2-.314A.716.716,0,0,1,571.18,468Z" transform="translate(-476.26 -223.401)" fill="#263238"/>
      <path id="Trazado_100988" data-name="Trazado 100988" d="M572.805,467.348c0,.051-.187.051-.391.119s-.332.17-.365.144.076-.221.314-.3S572.856,467.314,572.805,467.348Z" transform="translate(-476.466 -223.293)" fill="#263238"/>
      <path id="Trazado_100989" data-name="Trazado 100989" d="M574.049,467.044c0,.042-.06.111-.17.153a.377.377,0,0,1-.229,0,.322.322,0,0,1,.17-.153C573.93,467,574.032,467,574.049,467.044Z" transform="translate(-476.707 -223.253)" fill="#263238"/>
      <path id="Trazado_100990" data-name="Trazado 100990" d="M531.65,251.321l14.966,8.413,1.037-1.054,1.1,2.074-1.02,27.883,40.6-7.649-3.314-4.768c-3.187-4.4-2.473-10.581-1.164-15.858l.45-1.8,8.566.136s.85-4.827,0-15.569v-.476a18.442,18.442,0,0,0-19.64-16.691l-14.8,1s-11.77-2.422-19.8,11.413Z" transform="translate(-470.4 -187.051)" fill="#3e2ea6"/>
      <path id="Trazado_100991" data-name="Trazado 100991" d="M552.37,250.49a11.533,11.533,0,0,1-.535,2.1c-.442,1.419-.969,3.093-1.547,4.955a6.476,6.476,0,0,0,.263,4.938,20.061,20.061,0,0,1,.85,1.963,7.226,7.226,0,0,1-1.164-1.836,6.974,6.974,0,0,1-.722-2.278,7.539,7.539,0,0,1,.306-2.906c.6-1.963,1.232-3.68,1.7-4.938a10.42,10.42,0,0,1,.85-2Z" transform="translate(-473.078 -190.741)" fill="#263238"/>
      <path id="Trazado_100992" data-name="Trazado 100992" d="M600.715,261.574a6.132,6.132,0,0,1-1.164,0l-3.153-.2c-2.651-.187-6.323-.476-10.377-.85l-1.929-.161h-.212v-.212c.229-3.595.221-6.8.365-9.085.06-1.147.144-2.074.212-2.7a4.52,4.52,0,0,1,.161-.969,4.168,4.168,0,0,1,0,.986c0,.714-.051,1.615-.085,2.694-.068,2.286,0,5.482-.212,9.11l-.2-.238,1.938.17c4.045.348,7.717.688,10.368.96l3.136.34A5.792,5.792,0,0,1,600.715,261.574Z" transform="translate(-478.243 -190.275)" fill="#263238"/>
      <path id="Trazado_100993" data-name="Trazado 100993" d="M593.74,244.665a2.44,2.44,0,0,1-.569-.1l-1.632-.365a50.912,50.912,0,0,0-6.042-1.062,22.214,22.214,0,0,0-4.249,0,20.726,20.726,0,0,0-4.708,1.011c-3.263,1.02-6.637,2.787-10.538,3.731a17.589,17.589,0,0,1-2.94.45,14.839,14.839,0,0,1-2.89-.161,18.05,18.05,0,0,1-5.1-1.836c-3.059-1.6-5.635-3.331-8.1-4.122a11.617,11.617,0,0,0-5.949-.663,13.028,13.028,0,0,0-2.125.68,5.813,5.813,0,0,1,2.091-.85,11.489,11.489,0,0,1,6.119.535c2.55.773,5.15,2.5,8.184,4.054a17.447,17.447,0,0,0,5,1.768,14.039,14.039,0,0,0,5.651-.28c3.824-.926,7.207-2.686,10.513-3.7a20.794,20.794,0,0,1,4.81-.986,21.864,21.864,0,0,1,4.249.1,44.282,44.282,0,0,1,6.051,1.2l1.606.45a2.744,2.744,0,0,1,.569.144Z" transform="translate(-471.489 -189.343)" fill="#fafafa"/>
      <path id="Trazado_100994" data-name="Trazado 100994" d="M578.463,272.22a9.143,9.143,0,0,1-1.113.068,18.981,18.981,0,0,0-3,.442,42.9,42.9,0,0,0-4.309,1.283c-1.606.561-3.4,1.207-5.286,1.7a15.885,15.885,0,0,1-5.566.484,10.087,10.087,0,0,1-4.3-1.538,7.266,7.266,0,0,1-2.159-2.2,4.442,4.442,0,0,1-.365-.748c-.077-.178-.1-.272-.085-.28s.187.357.595.935a7.555,7.555,0,0,0,2.184,2.031,10.07,10.07,0,0,0,4.173,1.394,15.924,15.924,0,0,0,5.413-.51c1.9-.467,3.646-1.1,5.269-1.64a34.845,34.845,0,0,1,4.377-1.207,14.882,14.882,0,0,1,3.051-.306A3.985,3.985,0,0,1,578.463,272.22Z" transform="translate(-473.497 -193.885)" fill="#fafafa"/>
      <g id="Grupo_87416" data-name="Grupo 87416" transform="translate(85.122 57.633)" opacity="0.3">
        <path id="Trazado_100995" data-name="Trazado 100995" d="M580.825,248c-1.827,4.521-2.048,9.5-2.677,14.337s-1.827,9.858-5.1,13.445-8.5,5.252-13.309,6.654l21.136-1.844Z" transform="translate(-559.74 -248)"/>
      </g>
      <path id="Trazado_100996" data-name="Trazado 100996" d="M576.4,374.425s7.589-32.294,14.371-51.96c6.8-19.852-2.966-32.456-2.966-32.456L549.394,294.5,542,322.9s-5.872,30.331-3.518,52.69Z" transform="translate(-471.343 -196.675)" fill="#3e2ea6"/>
      <path id="Trazado_100997" data-name="Trazado 100997" d="M588.385,335.246a16.144,16.144,0,0,0-1-1.589,10.121,10.121,0,0,0-4.011-3.068,14.983,14.983,0,0,0-7.4-1.122,66.389,66.389,0,0,0-9.187,1.7,26.075,26.075,0,0,1-9.348.637,20.117,20.117,0,0,1-7.113-2.881,45.677,45.677,0,0,0-4.53-2.448c-1.113-.484-1.768-.663-1.751-.705a1.7,1.7,0,0,1,.476.1,12.274,12.274,0,0,1,1.343.45,37.68,37.68,0,0,1,4.615,2.329,20.4,20.4,0,0,0,7.02,2.753,26.556,26.556,0,0,0,9.229-.671,64.039,64.039,0,0,1,9.255-1.657,15.094,15.094,0,0,1,7.564,1.249,9.935,9.935,0,0,1,4.02,3.246,5.1,5.1,0,0,1,.425.688,5.368,5.368,0,0,1,.272.535A1.968,1.968,0,0,1,588.385,335.246Z" transform="translate(-472.261 -202.044)" fill="#fafafa"/>
      <path id="Trazado_100998" data-name="Trazado 100998" d="M578.435,374.2a12.946,12.946,0,0,0-1.19-1.241A8.669,8.669,0,0,0,573,371.069a14.066,14.066,0,0,0-6.8.807c-2.5.85-5.1,2.193-7.971,3.255a17.652,17.652,0,0,1-8.558,1.037,18.11,18.11,0,0,1-6.688-2.252A16.5,16.5,0,0,1,539.223,371a11.213,11.213,0,0,1-.85-.977,1.7,1.7,0,0,1-.263-.374s.425.459,1.232,1.224a17.334,17.334,0,0,0,3.79,2.771,18.374,18.374,0,0,0,6.586,2.116,17.507,17.507,0,0,0,8.362-1.045c2.847-1.037,5.439-2.405,7.98-3.221a14.1,14.1,0,0,1,7.011-.731,8.568,8.568,0,0,1,4.249,2.057,6.133,6.133,0,0,1,.85.986A1.9,1.9,0,0,1,578.435,374.2Z" transform="translate(-471.37 -208.633)" fill="#fafafa"/>
      <g id="Grupo_87417" data-name="Grupo 87417" transform="translate(72.731 102.957)" opacity="0.2">
        <path id="Trazado_100999" data-name="Trazado 100999" d="M545.874,341.621a10.522,10.522,0,0,0-.289,4.674,3.6,3.6,0,0,0,3.255,2.906c.85,0,1.7-.425,2.439,0a2.83,2.83,0,0,1,.926,1.768,8.974,8.974,0,0,0,15.663,3.2c2.091-2.618,2.549-6.221,2.108-9.544s-1.759-6.45-2.855-9.578a122.681,122.681,0,0,1-4.938-20.031,6.985,6.985,0,0,1,.153-4.054c.96-2.082,3.569-2.686,5.821-3.076a215.21,215.21,0,0,0,25.41-6.034c-4.734-1.045-9.671-.323-14.447.552q-7.946,1.453-15.773,3.45a7.7,7.7,0,0,0-3.654,1.7,8.073,8.073,0,0,0-1.7,3.765,126.258,126.258,0,0,1-12.833,31.291" transform="translate(-545.16 -301.331)"/>
      </g>
      <path id="Trazado_101000" data-name="Trazado 101000" d="M559.407,305.373l36.79-5.949a44.829,44.829,0,0,0-1.7-5.218c-.739-1.853-2.787-3.3-3.722-4.249-2.184-2.21-32.855,11.32-32.855,11.32Z" transform="translate(-474.345 -196.63)" fill="#455a64"/>
      <path id="Trazado_101001" data-name="Trazado 101001" d="M557.877,306.052l-10.147-3.374,1.513-8.388,9.943,7.759Z" transform="translate(-472.815 -197.317)" fill="#455a64"/>
      <path id="Trazado_101002" data-name="Trazado 101002" d="M559.348,307.906s-2.813,10.113-2.728,16.8.348,20.66,1.275,25.589,14.311-.705,11.728-5.286-7.156-21.008-7.275-24.875.238-13.5.238-13.5Z" transform="translate(-474.149 -199.172)" fill="#455a64"/>
      <path id="Trazado_101003" data-name="Trazado 101003" d="M569.1,350.14a4.838,4.838,0,0,1-.994,1.606A11.838,11.838,0,0,1,560.225,356a4.937,4.937,0,0,1-1.9-.051,18.641,18.641,0,0,1,1.853-.263,13.247,13.247,0,0,0,7.649-4.13C568.6,350.7,569,350.106,569.1,350.14Z" transform="translate(-474.406 -205.703)" fill="#263238"/>
      <path id="Trazado_101004" data-name="Trazado 101004" d="M562.368,359.763c-.11.042-.45-.578-.756-1.385s-.467-1.5-.348-1.538.451.569.756,1.377S562.487,359.721,562.368,359.763Z" transform="translate(-474.841 -206.709)" fill="#263238"/>
      <path id="Trazado_101005" data-name="Trazado 101005" d="M567.226,357.932c-.11.051-.518-.535-.9-1.309s-.62-1.453-.51-1.5.51.527.9,1.309S567.336,357.873,567.226,357.932Z" transform="translate(-475.526 -206.451)" fill="#263238"/>
      <path id="Trazado_101006" data-name="Trazado 101006" d="M571.295,354.855c-.1.06-.544-.518-.986-1.292s-.714-1.445-.6-1.5.544.51.986,1.292S571.405,354.8,571.295,354.855Z" transform="translate(-476.111 -205.991)" fill="#263238"/>
      <path id="Trazado_101007" data-name="Trazado 101007" d="M554.942,305.717c-3.535,6.459-2.023,14.949-6.161,21.025-1.649,2.431-4.139,4.351-5.1,7.122a6.8,6.8,0,0,0,1.173,6.586,5.779,5.779,0,0,0,6.365,1.581,6.986,6.986,0,0,0,3.493-3.714,20.915,20.915,0,0,0,1.309-5.048q1.963-11.422,3.918-22.852c.255-1.521.5-3.178-.246-4.53s-2.932-1.946-3.824-.68" transform="translate(-472.149 -198.852)" fill="#455a64"/>
      <path id="Trazado_101008" data-name="Trazado 101008" d="M556.88,342.048a9.759,9.759,0,0,1-.17-1.36c-.085-.85-.187-2.159-.272-3.731-.187-3.153-.306-7.521-.2-12.34s.433-9.178.756-12.323c.161-1.572.314-2.838.442-3.714a9.086,9.086,0,0,1,.238-1.351,7.536,7.536,0,0,1-.06,1.368c-.085.96-.187,2.21-.306,3.722-.246,3.144-.518,7.5-.629,12.306s0,9.161.068,12.314c.051,1.521.093,2.771.128,3.731a7.16,7.16,0,0,1,0,1.377Z" transform="translate(-474.087 -199.26)" fill="#263238"/>
      <path id="Trazado_101009" data-name="Trazado 101009" d="M552.645,346.241a4.435,4.435,0,0,1-1.7-.2,10.87,10.87,0,0,1-6.5-4.674,4.019,4.019,0,0,1-.714-1.521,13.8,13.8,0,0,0,8.889,6.391Z" transform="translate(-472.214 -204.158)" fill="#263238"/>
      <path id="Trazado_101010" data-name="Trazado 101010" d="M548.71,345.6c.076.1-.4.586-1.054,1.088s-1.241.85-1.317.739.4-.586,1.054-1.088S548.6,345.5,548.71,345.6Z" transform="translate(-472.605 -205.019)" fill="#263238"/>
      <path id="Trazado_101011" data-name="Trazado 101011" d="M544.979,342.514c.06.1-.246.391-.569.765s-.586.705-.7.654,0-.518.365-.943S544.92,342.4,544.979,342.514Z" transform="translate(-472.206 -204.553)" fill="#263238"/>
      <path id="Trazado_101012" data-name="Trazado 101012" d="M562.721,302.331a1.562,1.562,0,0,1,.281.527,3.723,3.723,0,0,1,.119,1.623,4,4,0,0,1-1.062,2.184,3.839,3.839,0,0,1-6.544-2.235,3.647,3.647,0,0,1,.144-1.623,1.19,1.19,0,0,1,.281-.527,5.514,5.514,0,0,0-.119,2.1,3.858,3.858,0,0,0,1.02,1.963,3.646,3.646,0,0,0,4.929,0,3.773,3.773,0,0,0,1.045-1.946,5.236,5.236,0,0,0-.094-2.065Z" transform="translate(-473.979 -198.517)" fill="#263238"/>
      <path id="Trazado_101013" data-name="Trazado 101013" d="M561.254,307.17a22.873,22.873,0,0,0-.85-2.55,21.313,21.313,0,0,0-1.564-2.15,4.606,4.606,0,0,1,2.447,4.666Z" transform="translate(-474.483 -198.546)" fill="#263238"/>
      <path id="Trazado_101014" data-name="Trazado 101014" d="M526.134,293.17c.383-1.887,8.3-.654,8.983-.595s.773-.926.161-.943c-.85,0-10.2-.5-9.79-2.354.2-1.028,2.006-.493,2.006-.493s8.643,1.088,8.787.2-4.912-1.7-6.629-1.853-2.329-1.028-1.632-1.7c.476-.476,5.762-.127,7.462.059s6.357.8,4.3-1.368-2.8-4.6-2.549-5.4a.935.935,0,0,1,1.759.136,11.191,11.191,0,0,0,1.615,2.55,7.1,7.1,0,0,0,1.793,1.623c.8.5,1.5.85,2.1,1.215,4.725-.085,18.034-.79,28.818-5.949,1.946-.926,2.091-15.748,2.091-15.748l16.547,1.47s0,4.249-1.258,15.3c-2.32,19.98-47.821,16.929-47.821,16.929h0a88.808,88.808,0,0,1-9.561.994c-4.436,0-4.445-.365-4.36-.85.229-1.394,7.81-.348,6.306-1.521S525.836,294.606,526.134,293.17Z" transform="translate(-469.473 -192.551)" fill="#ffbe9d"/>
      <g id="Grupo_87418" data-name="Grupo 87418" transform="translate(71.745 59.885)" opacity="0.3">
        <path id="Trazado_101015" data-name="Trazado 101015" d="M544,261.2a36.478,36.478,0,0,0,7.5-10.547c-1.207,3.212-2.431,6.535-2.337,9.969,0,1.011.111,2.184-.637,2.872a16.469,16.469,0,0,0-4.436-2.269" transform="translate(-544 -250.65)"/>
      </g>
      <path id="Trazado_101016" data-name="Trazado 101016" d="M578.514,189.938l-.043,2.142-.425,32.014a6.875,6.875,0,0,1-7.266,6.552h0a7.263,7.263,0,0,1-7.3-6.952c0-3.943-.093-8.091-.093-8.091s-5.1-.85-6.127-7.47c-.527-3.3-.357-8.7-.085-13.113a7,7,0,0,1,7.717-6.527Z" transform="translate(-474.194 -181.426)" fill="#ffbe9d"/>
      <path id="Trazado_101017" data-name="Trazado 101017" d="M559,200.865a.852.852,0,1,0,.85-.765A.85.85,0,0,0,559,200.865Z" transform="translate(-474.507 -183.174)" fill="#263238"/>
      <path id="Trazado_101018" data-name="Trazado 101018" d="M558.6,199.331c.11.11.748-.365,1.7-.365s1.581.459,1.7.348-.059-.255-.348-.467a2.363,2.363,0,0,0-1.351-.416,2.252,2.252,0,0,0-1.326.433C558.64,199.076,558.547,199.28,558.6,199.331Z" transform="translate(-474.445 -182.924)" fill="#263238"/>
      <path id="Trazado_101019" data-name="Trazado 101019" d="M569.16,200.865a.852.852,0,1,0,.85-.765A.85.85,0,0,0,569.16,200.865Z" transform="translate(-476.033 -183.174)" fill="#263238"/>
      <path id="Trazado_101020" data-name="Trazado 101020" d="M569.178,199.531c.1.11.748-.365,1.7-.365s1.581.459,1.7.348-.059-.255-.357-.467a2.346,2.346,0,0,0-2.669,0C569.22,199.276,569.127,199.48,569.178,199.531Z" transform="translate(-476.033 -182.954)" fill="#263238"/>
      <path id="Trazado_101021" data-name="Trazado 101021" d="M564.86,206.315a6.22,6.22,0,0,0-1.479-.263c-.238,0-.459-.068-.5-.229a1.274,1.274,0,0,1,.161-.7c.221-.561.45-1.156.688-1.776a30.59,30.59,0,0,0,1.555-4.649,30.41,30.41,0,0,0-1.929,4.5c-.23.629-.451,1.224-.654,1.793a1.317,1.317,0,0,0-.127.918.62.62,0,0,0,.391.34,1.765,1.765,0,0,0,.391.051A5.406,5.406,0,0,0,564.86,206.315Z" transform="translate(-475.039 -182.964)" fill="#263238"/>
      <path id="Trazado_101022" data-name="Trazado 101022" d="M564.53,219.981a16.9,16.9,0,0,0,8.9-2.371s-2.15,4.555-8.779,3.935Z" transform="translate(-475.337 -185.804)" fill="#eb996e"/>
      <path id="Trazado_101023" data-name="Trazado 101023" d="M565.715,210.15a1.7,1.7,0,0,1,1.479-.612,1.5,1.5,0,0,1,1.037.552.96.96,0,0,1,.068,1.1,1.1,1.1,0,0,1-1.2.3,3.35,3.35,0,0,1-1.156-.705.85.85,0,0,1-.263-.272.306.306,0,0,1,0-.34" transform="translate(-475.503 -184.59)" fill="#3e2ea6"/>
      <path id="Trazado_101024" data-name="Trazado 101024" d="M567.925,208.41c-.153,0-.153.986-1,1.7s-1.9.595-1.912.731.238.2.68.2a2.481,2.481,0,0,0,1.6-.552,2.175,2.175,0,0,0,.782-1.419C568.1,208.648,567.993,208.4,567.925,208.41Z" transform="translate(-475.41 -184.422)" fill="#263238"/>
      <path id="Trazado_101025" data-name="Trazado 101025" d="M581.721,220.025c-1.955-.68-4.249-1.368-5.006-3.306a9.875,9.875,0,0,1-.144-6.11,4.068,4.068,0,0,0,.229-2.8,5.338,5.338,0,0,0-1.445-1.487,6.128,6.128,0,0,1-1.878-4.173,10.76,10.76,0,0,1,.85-4.581,3.637,3.637,0,0,0,.4-2.5,3.918,3.918,0,0,0-1.147-1.394,10.9,10.9,0,0,1-2.3-3.076,3.085,3.085,0,0,1-.314-2.626c.476-.994,1.7-1.309,2.83-1.394,2.626-.2,5.524.382,7.19,2.414,1.5,1.819,1.7,4.36,1.776,6.714.34,7.428.663,14.915-.62,22.232" transform="translate(-476.279 -181.139)" fill="#263238"/>
      <path id="Trazado_101026" data-name="Trazado 101026" d="M554.215,188.815a9.67,9.67,0,0,0,1.13.612,7.723,7.723,0,0,1,.96.85c.17.17.357.348.518.544,0,.042.068.093.119.144l.187.187.459.433a11.991,11.991,0,0,0,1.419,1.122,7.419,7.419,0,0,0,7.5.459,7.844,7.844,0,0,0,2.754-2.21c1.13-1.5,1.3-2.719.782-3.4s-1.827-.569-3.289-.2a19.859,19.859,0,0,1-2.167.425,5.3,5.3,0,0,1-1.7-.042,4.571,4.571,0,0,1-.8-.289c-.365-.161-.85-.416-1.368-.663-.263-.127-.552-.255-.85-.374l-.467-.17-.518-.153a5.8,5.8,0,0,0-1.989-.161,3.569,3.569,0,0,0-2.711,1.411A1.079,1.079,0,0,0,554.215,188.815Z" transform="translate(-473.742 -181.042)" fill="#263238"/>
      <path id="Trazado_101027" data-name="Trazado 101027" d="M568.9,195.349c.093.246,1,.127,2.074.263s1.946.416,2.082.2-.085-.34-.433-.578a3.4,3.4,0,0,0-1.547-.544,3.6,3.6,0,0,0-1.623.187C569.061,195.034,568.857,195.23,568.9,195.349Z" transform="translate(-475.993 -182.358)" fill="#263238"/>
      <path id="Trazado_101028" data-name="Trazado 101028" d="M559,196.206c.161.212.79,0,1.547,0s1.4.136,1.547-.076,0-.314-.314-.51a2.252,2.252,0,0,0-2.5.076C559,195.892,558.919,196.1,559,196.206Z" transform="translate(-474.502 -182.45)" fill="#263238"/>
    </g>
    <g id="freepik--character-1--inject-2" transform="translate(102.204 152.634)">
      <path id="Trazado_101029" data-name="Trazado 101029" d="M111.071,461.27l-1.921,7.776,13.232,1.487.476-7.708Z" transform="translate(-108.666 -214.688)" fill="#455a64"/>
      <path id="Trazado_101030" data-name="Trazado 101030" d="M118.216,461.72a32.133,32.133,0,0,1-1.266,7.079,32.132,32.132,0,0,1,1.266-7.079Z" transform="translate(-109.837 -214.756)" fill="#263238"/>
      <path id="Trazado_101031" data-name="Trazado 101031" d="M122.493,470.79a10.708,10.708,0,0,1-1.912-.212l-4.589-.68c-1.793-.272-3.4-.544-4.581-.782a8.673,8.673,0,0,1-1.861-.476,11.361,11.361,0,0,1,1.912.221l4.589.68c1.793.272,3.4.544,4.581.782A9.815,9.815,0,0,1,122.493,470.79Z" transform="translate(-108.726 -215.795)" fill="#263238"/>
      <path id="Trazado_101032" data-name="Trazado 101032" d="M180.044,466.547l-.136-4.827H165.58l.093,8.7h.85c3.969.136,20.184.391,22.818-.476C192.282,469.02,180.044,466.547,180.044,466.547Z" transform="translate(-117.139 -214.756)" fill="#455a64"/>
      <path id="Trazado_101033" data-name="Trazado 101033" d="M165.44,471.485h.952l2.618.059c2.2,0,5.252,0,8.617-.043s6.416-.2,8.617-.323l2.609-.17.705-.051h.246a.912.912,0,0,0-.246,0h-.714l-2.609.111c-2.2.093-5.244.212-8.609.28s-6.416.085-8.617.085h-3.323a.8.8,0,0,0-.246.051Z" transform="translate(-117.118 -216.142)" fill="#263238"/>
      <path id="Trazado_101034" data-name="Trazado 101034" d="M188.206,471.139a6.136,6.136,0,0,1,.459-1.258,6.417,6.417,0,0,1,.85-1.011,1.861,1.861,0,0,0-1.011.926A1.938,1.938,0,0,0,188.206,471.139Z" transform="translate(-120.533 -215.829)" fill="#263238"/>
      <path id="Trazado_101035" data-name="Trazado 101035" d="M183.169,468.906a1.753,1.753,0,0,0,.442-.561c.2-.34.331-.62.289-.646s-.238.221-.442.561S183.126,468.881,183.169,468.906Z" transform="translate(-119.779 -215.653)" fill="#263238"/>
      <path id="Trazado_101036" data-name="Trazado 101036" d="M181.789,468.284a2.042,2.042,0,0,0,.493-.348c.238-.229.416-.442.382-.476s-.255.119-.5.348S181.755,468.25,181.789,468.284Z" transform="translate(-119.572 -215.617)" fill="#263238"/>
      <path id="Trazado_101037" data-name="Trazado 101037" d="M180.89,466.835a3.042,3.042,0,0,0,1.5,0,3.332,3.332,0,0,0-1.5,0Z" transform="translate(-119.438 -215.511)" fill="#263238"/>
      <path id="Trazado_101038" data-name="Trazado 101038" d="M180.56,465.74a1.521,1.521,0,0,0,.85.221,1.5,1.5,0,0,0,.85-.136,4.7,4.7,0,0,0-.85,0A4.2,4.2,0,0,0,180.56,465.74Z" transform="translate(-119.388 -215.359)" fill="#263238"/>
      <path id="Trazado_101039" data-name="Trazado 101039" d="M183.71,467.41a2.916,2.916,0,0,0,.926,0,6.2,6.2,0,0,0,.977-.238,2.833,2.833,0,0,0,.552-.247.51.51,0,0,0,.221-.3.374.374,0,0,0-.144-.365,1.7,1.7,0,0,0-2.082.544,1.624,1.624,0,0,0-.289.62.536.536,0,0,0,0,.255,2.551,2.551,0,0,1,.4-.8,1.7,1.7,0,0,1,.782-.527,1.4,1.4,0,0,1,1.1.051c.153.1.1.272-.059.374a2.858,2.858,0,0,1-.518.238,5.762,5.762,0,0,1-.943.263A8.077,8.077,0,0,0,183.71,467.41Z" transform="translate(-119.861 -215.415)" fill="#263238"/>
      <path id="Trazado_101040" data-name="Trazado 101040" d="M183.782,467.369a.85.85,0,0,0,.093-.637,1.5,1.5,0,0,0-.263-.671.918.918,0,0,0-.782-.45.357.357,0,0,0-.272.433.977.977,0,0,0,.161.408,3.059,3.059,0,0,0,.45.544,1.342,1.342,0,0,0,.535.365,5.911,5.911,0,0,1-.45-.45,2.9,2.9,0,0,1-.391-.544c-.136-.2-.229-.544,0-.586s.476.2.62.374a1.7,1.7,0,0,1,.272.595,2.882,2.882,0,0,1,.025.62Z" transform="translate(-119.687 -215.34)" fill="#263238"/>
      <path id="Trazado_101041" data-name="Trazado 101041" d="M165.68,466.982a10.313,10.313,0,0,1,1.062,0,4.657,4.657,0,0,1,2.337.909,4.581,4.581,0,0,1,1.487,2.006c.238.612.263,1.028.3,1.02a.756.756,0,0,0,0-.289,3.816,3.816,0,0,0-.17-.773,4.47,4.47,0,0,0-1.5-2.108,4.411,4.411,0,0,0-2.431-.85,4.252,4.252,0,0,0-.79,0C165.782,466.9,165.68,466.922,165.68,466.982Z" transform="translate(-117.154 -215.53)" fill="#263238"/>
      <path id="Trazado_101042" data-name="Trazado 101042" d="M173.9,469.986a8.717,8.717,0,0,0,2.1.161,7.973,7.973,0,0,0,2.1-.221,17.4,17.4,0,0,0-2.1.042C174.843,470.011,173.9,469.935,173.9,469.986Z" transform="translate(-118.388 -215.985)" fill="#263238"/>
      <path id="Trazado_101043" data-name="Trazado 101043" d="M170.59,470.058s.077.2.178.416.153.4.2.391.068-.221-.051-.467S170.616,470.007,170.59,470.058Z" transform="translate(-117.891 -216.006)" fill="#263238"/>
      <path id="Trazado_101044" data-name="Trazado 101044" d="M169.3,468.539a.977.977,0,0,0,.221.323c.153.144.3.246.331.2s-.059-.178-.212-.323S169.334,468.5,169.3,468.539Z" transform="translate(-117.697 -215.779)" fill="#263238"/>
      <path id="Trazado_101045" data-name="Trazado 101045" d="M167.5,467.853c0,.043.2.043.416.111s.365.178.408.145-.093-.229-.357-.314S167.483,467.8,167.5,467.853Z" transform="translate(-117.427 -215.663)" fill="#263238"/>
      <path id="Trazado_101046" data-name="Trazado 101046" d="M166.22,467.554c0,.042.068.119.2.161s.229.042.246,0-.068-.119-.187-.161S166.237,467.512,166.22,467.554Z" transform="translate(-117.235 -215.627)" fill="#263238"/>
      <path id="Trazado_101047" data-name="Trazado 101047" d="M243,244.71l-4.079,1.946-3.756-5.889,2.2-4.547c.2-.425.433-.9.663-1.445a6.194,6.194,0,0,0,.484-2,9.287,9.287,0,0,0-.068-2.55c-.2-.756.6-1.385,1.147-.935s1.156,2.55.748,5.023,2.55-.153,3.595-1.1,4.555-3.722,5.1-3.62c.85.161.782,1.071-.323,2s-4.207,3.926-3.688,4.479h0a3.068,3.068,0,0,1,2.669,2.38c.272,1.232.5,2.932-.2,3.5A40.914,40.914,0,0,1,243,244.71Z" transform="translate(-127.587 -179.833)" fill="#b78876"/>
      <path id="Trazado_101048" data-name="Trazado 101048" d="M151.31,182.05l-.11,35.422,15.2.722.442-8.617s5.4,1.071,6.8-3.935c.85-3.2.671-27.951.671-27.951Z" transform="translate(-114.98 -172.107)" fill="#b78876"/>
      <path id="Trazado_101049" data-name="Trazado 101049" d="M176.728,180.2c-1.02,2.116-5.9,5.949-5.9,5.949l-2.2,5.9c-1.912-1.5-4.479-1.411-4.963,1.946-.348,2.431,2.669,2.923,2.669,2.923-1.759,2.991-2.949,5.413-5.507,8.26-2.77,3.076-4.326,3.4-7.334,3.4h-3.306s-6.8-5.66-5.439-20.583S159.5,177.426,162.7,173.7C167.881,167.7,180.144,173.126,176.728,180.2Z" transform="translate(-113.984 -171.121)" fill="#263238"/>
      <path id="Trazado_101050" data-name="Trazado 101050" d="M145.66,201.546h.425a7.284,7.284,0,0,0,1.2-.144,8.584,8.584,0,0,0,3.892-2.065,21.647,21.647,0,0,0,3.935-5.278c1.283-2.116,2.694-4.6,5.1-6.272a12.314,12.314,0,0,1,3.875-1.7c1.326-.34,2.618-.552,3.841-.79a14.5,14.5,0,0,0,6.136-2.286,6.663,6.663,0,0,0,2.482-3.578,5.446,5.446,0,0,0,.136-1.623,2.533,2.533,0,0,0,.051.416,4.7,4.7,0,0,1-.119,1.215,6.612,6.612,0,0,1-2.473,3.663,14.362,14.362,0,0,1-6.178,2.354c-2.422.493-5.252.85-7.649,2.431s-3.782,4.1-5.1,6.212a21.391,21.391,0,0,1-4,5.286,8.5,8.5,0,0,1-3.952,2.04A4.759,4.759,0,0,1,145.66,201.546Z" transform="translate(-114.148 -172.125)" fill="#455a64"/>
      <path id="Trazado_101051" data-name="Trazado 101051" d="M144.74,189.068s.238-.093.705-.246a9.926,9.926,0,0,1,2.082-.5,4.7,4.7,0,0,1,3.263.705,2.745,2.745,0,0,1,1.173,1.742,2.465,2.465,0,0,1-.671,2.227,1.929,1.929,0,0,1-1.2.484,2.456,2.456,0,0,1-1.309-.348,3.909,3.909,0,0,1-1.742-2.21,5.456,5.456,0,0,1,1.5-5.779,5.524,5.524,0,0,1,3.076-1.377,9.51,9.51,0,0,1,3.5.45,24.243,24.243,0,0,0,3.527.85,14.364,14.364,0,0,0,3.722,0,12.407,12.407,0,0,0,3.578-.986,4.249,4.249,0,0,0,2.388-2.507,3.255,3.255,0,0,0-.79-3.17,2.771,2.771,0,0,0-3.051-.45,2.278,2.278,0,0,0-1.13,1.054,2.55,2.55,0,0,0-.238,1.487,3.467,3.467,0,0,0,1.538,2.422,5.023,5.023,0,0,0,2.652.748,7.768,7.768,0,0,0,2.549-.382,9.17,9.17,0,0,0,3.773-2.295,9.9,9.9,0,0,0,2.66-4.734c.093-.476.153-.722.153-.722a3.457,3.457,0,0,1-.119.731,9.781,9.781,0,0,1-2.626,4.8,9.348,9.348,0,0,1-3.8,2.337,7.818,7.818,0,0,1-2.55.4,5.15,5.15,0,0,1-2.72-.756,3.612,3.612,0,0,1-1.615-2.55,2.643,2.643,0,0,1,.255-1.581,2.465,2.465,0,0,1,1.2-1.13,2.957,2.957,0,0,1,3.238.476,3.4,3.4,0,0,1,.85,3.34,4.36,4.36,0,0,1-2.482,2.618,12.56,12.56,0,0,1-3.637,1.011,14.311,14.311,0,0,1-3.765,0,24.054,24.054,0,0,1-3.552-.85,9.23,9.23,0,0,0-3.4-.45,5.286,5.286,0,0,0-4.462,6.943,3.816,3.816,0,0,0,1.7,2.133,2.388,2.388,0,0,0,1.232.34,1.836,1.836,0,0,0,1.122-.45,2.346,2.346,0,0,0,.646-2.116,2.626,2.626,0,0,0-1.113-1.7,4.674,4.674,0,0,0-3.2-.714,9.892,9.892,0,0,0-2.082.467Z" transform="translate(-114.01 -171.783)" fill="#455a64"/>
      <path id="Trazado_101052" data-name="Trazado 101052" d="M129.376,304.315,109.15,437.188l16.8,2.133,23.711-111.449,5.966,112.2,18.212-.314-3.1-138.865Z" transform="translate(-108.666 -190.606)" fill="#263238"/>
      <path id="Trazado_101053" data-name="Trazado 101053" d="M155.143,440.426v-.408l-5.8-108.984L126.2,439.712l-17.617-2.235,20.345-133.63h.331l41.812-3.467v.45l3.11,139.29Zm-5.32-115.859,6.119,114.993,17.379-.306-3.085-137.981-40.572,3.4L109.549,436.746l15.986,2.031Z" transform="translate(-108.58 -190.53)" fill="#263238"/>
      <path id="Trazado_101054" data-name="Trazado 101054" d="M178.861,442.978c-.119,0-.221-26.626-.221-59.489s.1-59.489.221-59.489.221,26.617.221,59.489S178.946,442.978,178.861,442.978Z" transform="translate(-119.1 -194.076)" fill="#455a64"/>
      <path id="Trazado_101055" data-name="Trazado 101055" d="M124.569,443.971a1.843,1.843,0,0,1,0-.3,7.752,7.752,0,0,1,.153-.85l.612-3.229c.569-2.83,1.377-6.875,2.371-11.9,2.031-10.011,4.921-23.8,8.235-39.05s6.442-29,8.762-38.94c1.164-4.955,2.116-8.966,2.779-11.779.34-1.36.595-2.431.782-3.187.093-.348.161-.62.221-.85a1.607,1.607,0,0,1,.085-.28,1.384,1.384,0,0,1,0,.289c-.042.212-.1.493-.17.85-.17.765-.408,1.836-.705,3.212-.629,2.813-1.53,6.8-2.643,11.8-2.244,9.969-5.312,23.736-8.634,38.965s-6.246,29.031-8.362,39.025c-1.054,4.972-1.9,9.008-2.55,11.83-.3,1.377-.527,2.456-.7,3.212l-.187.85a1.589,1.589,0,0,1-.051.323Z" transform="translate(-110.98 -195.519)" fill="#455a64"/>
      <path id="Trazado_101056" data-name="Trazado 101056" d="M160.389,332.488a17.954,17.954,0,0,1-2.864.28c-1.776.127-4.249.255-6.918.518s-5.1.62-6.875.85a17.477,17.477,0,0,1-2.872.28,19.265,19.265,0,0,1,2.821-.595c1.751-.3,4.181-.705,6.884-.977s5.167-.34,6.943-.382A18.523,18.523,0,0,1,160.389,332.488Z" transform="translate(-113.427 -195.34)" fill="#455a64"/>
      <path id="Trazado_101057" data-name="Trazado 101057" d="M180.374,321.089a4.487,4.487,0,0,1-1.989.229,8.5,8.5,0,0,1-7.53-5.414,4.249,4.249,0,0,1-.416-1.955c.076,0,.2.739.705,1.836a9.221,9.221,0,0,0,2.932,3.586A9.127,9.127,0,0,0,178.411,321C179.61,321.131,180.366,321.012,180.374,321.089Z" transform="translate(-117.868 -192.567)" fill="#455a64"/>
      <path id="Trazado_101058" data-name="Trazado 101058" d="M130.59,299.787h44.26l-1.7-35.779c-.289-7.028-.246-7.87-.416-14.354,0,0,6.6,7.989,11.8,13.6a10.581,10.581,0,0,0,12.289,2.354l27.2-18.969-5.1-13.028-24.714,15.127c-1.13-.7-10.759-14.447-17.4-21.127a23.566,23.566,0,0,0-16.028-6.935,119.388,119.388,0,0,0-15.017.6,15.714,15.714,0,0,0-13.972,14.311c-.476,5.745-.093,12.408-.093,23.745Z" transform="translate(-111.885 -178.557)" fill="#3e2ea6"/>
      <path id="Trazado_101059" data-name="Trazado 101059" d="M134.96,225.24c-4.173,1.853-21.6,24.187-22.835,38.685-.918,10.81,20.116,9.637,20.116,9.637s1.428-44.362.807-43.733" transform="translate(-109.108 -179.247)" fill="#3e2ea6"/>
      <path id="Trazado_101060" data-name="Trazado 101060" d="M133.631,229.69v.467c0,.306-.059.79-.1,1.326-.085,1.156-.2,2.821-.314,4.887-.238,4.13-.433,9.833-.629,16.147s-.374,12.025-.586,16.147c-.1,2.065-.212,3.731-.3,4.887-.042.535-.085.969-.11,1.326a3.351,3.351,0,0,1-.051.459v-.459c0-.3.043-.8.077-1.334.059-1.215.144-2.872.238-4.887.178-4.13.34-9.841.535-16.147s.416-12.017.68-16.147c.127-2.065.263-3.731.374-4.887.051-.527.1-.969.136-1.317S133.631,229.69,133.631,229.69Z" transform="translate(-112.028 -179.915)" fill="#263238"/>
      <path id="Trazado_101061" data-name="Trazado 101061" d="M131.107,263.18a5,5,0,0,1-.595.85c-.391.5-.943,1.173-1.589,1.887s-1.258,1.334-1.7,1.776a5.474,5.474,0,0,1-.773.671,6.389,6.389,0,0,1,.68-.765c.433-.459,1.037-1.088,1.7-1.8s1.215-1.368,1.632-1.844A5.658,5.658,0,0,1,131.107,263.18Z" transform="translate(-111.263 -184.944)" fill="#263238"/>
      <path id="Trazado_101062" data-name="Trazado 101062" d="M204.25,258.109a13.129,13.129,0,0,1,.416-2.176,15.367,15.367,0,0,1,.586-2.133,12.969,12.969,0,0,1-.416,2.176,13.31,13.31,0,0,1-.586,2.133Z" transform="translate(-122.945 -183.536)" fill="#263238"/>
      <path id="Trazado_101063" data-name="Trazado 101063" d="M206.97,258.449a18,18,0,0,1-.654-2.448,20.148,20.148,0,0,1-.476-2.482,17.639,17.639,0,0,1,.654,2.439A20.109,20.109,0,0,1,206.97,258.449Z" transform="translate(-123.184 -183.493)" fill="#263238"/>
      <path id="Trazado_101064" data-name="Trazado 101064" d="M179.538,251.057s-.093-.076-.255-.238-.442-.416-.714-.688c-.612-.595-1.5-1.47-2.55-2.592a29.838,29.838,0,0,1-6.637-9.943,16.36,16.36,0,0,1-1.045-6.518,13.538,13.538,0,0,1,1.181-5.269,7.649,7.649,0,0,1,2.295-2.8,7.306,7.306,0,0,1,.85-.544l.306-.17a10.114,10.114,0,0,0-1.088.765,7.81,7.81,0,0,0-2.227,2.813,13.445,13.445,0,0,0-1.122,5.21,16.147,16.147,0,0,0,1.037,6.45,30.88,30.88,0,0,0,6.569,9.926c1.037,1.13,1.912,2.014,2.55,2.635l.688.705Z" transform="translate(-117.55 -178.804)" fill="#263238"/>
      <path id="Trazado_101065" data-name="Trazado 101065" d="M145.4,240.61c-.093.076-.85-.68-1.632-1.7a6.154,6.154,0,0,1-1.283-1.98,6.663,6.663,0,0,1,1.632,1.7,6.544,6.544,0,0,1,1.283,1.98Z" transform="translate(-113.672 -181.002)" fill="#fafafa"/>
      <path id="Trazado_101066" data-name="Trazado 101066" d="M157.546,255.39a24.5,24.5,0,0,1-4.666,4.649,12.747,12.747,0,0,1,2.176-2.482,12.129,12.129,0,0,1,2.49-2.167Z" transform="translate(-115.232 -183.774)" fill="#fafafa"/>
      <path id="Trazado_101067" data-name="Trazado 101067" d="M169.969,274.9a20.011,20.011,0,0,1-1.2-2.167,19.7,19.7,0,0,1-1.3-2.108,4.5,4.5,0,0,1,1.7,1.887A4.555,4.555,0,0,1,169.969,274.9Z" transform="translate(-117.423 -186.063)" fill="#fafafa"/>
      <path id="Trazado_101068" data-name="Trazado 101068" d="M138.948,272.137a12.187,12.187,0,0,1-1.224-6.977c.136,0,.187,1.589.527,3.5S139.075,272.086,138.948,272.137Z" transform="translate(-112.943 -185.241)" fill="#fafafa"/>
      <path id="Trazado_101069" data-name="Trazado 101069" d="M155.607,281.26a5.694,5.694,0,0,1-.85-2.864,5.9,5.9,0,0,1,.289-2.966c.136,0,0,1.334.153,2.932S155.726,281.217,155.607,281.26Z" transform="translate(-115.503 -186.783)" fill="#fafafa"/>
      <path id="Trazado_101070" data-name="Trazado 101070" d="M148.114,294.575a14.913,14.913,0,0,1-3.221-1.751,15.128,15.128,0,0,1-2.983-2.125,15.619,15.619,0,0,1,3.221,1.751,15.459,15.459,0,0,1,2.983,2.125Z" transform="translate(-113.585 -189.076)" fill="#fafafa"/>
      <path id="Trazado_101071" data-name="Trazado 101071" d="M173.826,291.43a38.076,38.076,0,0,1-3.331,2.074,38.727,38.727,0,0,1-3.314,2.116,11.481,11.481,0,0,1,3.076-2.49,11.209,11.209,0,0,1,3.569-1.7Z" transform="translate(-117.379 -189.186)" fill="#fafafa"/>
      <path id="Trazado_101072" data-name="Trazado 101072" d="M141.359,305.85a13.689,13.689,0,0,1-3.4-.459,13.749,13.749,0,0,1-3.4-.9,14.05,14.05,0,0,1,3.442.467A13.839,13.839,0,0,1,141.359,305.85Z" transform="translate(-112.481 -191.147)" fill="#fafafa"/>
      <path id="Trazado_101073" data-name="Trazado 101073" d="M161.07,307.927a8.039,8.039,0,0,1-2.55-4.657,16.6,16.6,0,0,1,1.258,2.32,16.282,16.282,0,0,1,1.292,2.337Z" transform="translate(-116.079 -190.964)" fill="#fafafa"/>
      <path id="Trazado_101074" data-name="Trazado 101074" d="M178.876,304.629c.093.077-.365.782-1.02,1.572s-1.275,1.36-1.368,1.283.365-.782,1.028-1.572S178.782,304.552,178.876,304.629Z" transform="translate(-118.775 -191.167)" fill="#fafafa"/>
      <path id="Trazado_101075" data-name="Trazado 101075" d="M143.206,249.647c.068.1-.527.612-1.326,1.156a3.959,3.959,0,0,1-1.581.782c-.068-.068.527-.62,1.334-1.156S143.138,249.545,143.206,249.647Z" transform="translate(-113.342 -182.909)" fill="#fafafa"/>
      <path id="Trazado_101076" data-name="Trazado 101076" d="M156.882,233.309a12.91,12.91,0,0,1-1.266-3.484,12.61,12.61,0,0,1-.646-3.654,20.4,20.4,0,0,1,1.071,3.535A19.816,19.816,0,0,1,156.882,233.309Z" transform="translate(-115.546 -179.387)" fill="#fafafa"/>
      <path id="Trazado_101077" data-name="Trazado 101077" d="M169.359,248.119a17,17,0,0,1-2.312-.484,15.687,15.687,0,0,1-2.337-.408A6.077,6.077,0,0,1,169.359,248.119Z" transform="translate(-117.008 -182.528)" fill="#fafafa"/>
      <path id="Trazado_101078" data-name="Trazado 101078" d="M178.2,236.493a6.408,6.408,0,0,1-5.04-.773,24.446,24.446,0,0,1,2.55.467C177.044,236.408,178.191,236.366,178.2,236.493Z" transform="translate(-118.277 -180.821)" fill="#fafafa"/>
      <path id="Trazado_101079" data-name="Trazado 101079" d="M188.191,248.34a10.376,10.376,0,0,1,.145-3.756,10.521,10.521,0,0,1,1.045-3.6,33.058,33.058,0,0,1-.612,3.68A33.883,33.883,0,0,1,188.191,248.34Z" transform="translate(-120.518 -181.611)" fill="#fafafa"/>
      <path id="Trazado_101080" data-name="Trazado 101080" d="M198.111,264.165a24.789,24.789,0,0,1-4.581-4.725,24.789,24.789,0,0,1,4.581,4.725Z" transform="translate(-121.336 -184.382)" fill="#fafafa"/>
      <path id="Trazado_101081" data-name="Trazado 101081" d="M207.347,263.78a7.233,7.233,0,0,1-1.181,2.252,7.6,7.6,0,0,1-1.555,2.006,7.453,7.453,0,0,1,1.181-2.252A7.6,7.6,0,0,1,207.347,263.78Z" transform="translate(-122.999 -185.034)" fill="#fafafa"/>
      <path id="Trazado_101082" data-name="Trazado 101082" d="M217.709,257.8a10.479,10.479,0,0,1-1.5-2.6,10.2,10.2,0,0,1-1.1-2.787A20.091,20.091,0,0,1,217.709,257.8Z" transform="translate(-124.575 -183.327)" fill="#fafafa"/>
      <path id="Trazado_101083" data-name="Trazado 101083" d="M231.158,252.725a11.268,11.268,0,0,1-3.127-.331,11.464,11.464,0,0,1-3.051-.765,10.9,10.9,0,0,1,3.127.331,11.091,11.091,0,0,1,3.051.765Z" transform="translate(-126.058 -183.208)" fill="#fafafa"/>
      <path id="Trazado_101084" data-name="Trazado 101084" d="M120.43,266.832a25.2,25.2,0,0,1,2.847-6.042A25.613,25.613,0,0,1,120.43,266.832Z" transform="translate(-110.359 -184.585)" fill="#fafafa"/>
      <path id="Trazado_101085" data-name="Trazado 101085" d="M127.218,253.973a9.349,9.349,0,0,1-2.1-2,9.577,9.577,0,0,1-1.759-2.286,9.348,9.348,0,0,1,2.091,1.989,10.2,10.2,0,0,1,1.768,2.295Z" transform="translate(-110.799 -182.918)" fill="#fafafa"/>
      <path id="Trazado_101086" data-name="Trazado 101086" d="M126.867,275.877c.076.093-.382.6-1.028,1.139a3.126,3.126,0,0,1-1.3.79c-.076-.059.374-.6,1.02-1.139S126.791,275.784,126.867,275.877Z" transform="translate(-110.975 -186.848)" fill="#fafafa"/>
      <path id="Trazado_101087" data-name="Trazado 101087" d="M129.522,240.738c.093.076-.178.578-.6,1.113s-.85.9-.952.85.178-.569.6-1.1S129.428,240.662,129.522,240.738Z" transform="translate(-111.488 -181.573)" fill="#fafafa"/>
      <g id="Grupo_87419" data-name="Grupo 87419" transform="translate(53.557 62.259)" opacity="0.3">
        <path id="Trazado_101088" data-name="Trazado 101088" d="M171.6,244.38c2.872,9.034,5.1,18.518,7.972,27.543l-.688-18.7a44.608,44.608,0,0,1-7.283-8.847Z" transform="translate(-171.6 -244.38)"/>
      </g>
      <g id="Grupo_87420" data-name="Grupo 87420" transform="translate(17.967 64.384)" opacity="0.3">
        <path id="Trazado_101089" data-name="Trazado 101089" d="M131.088,276.846c-2.15-9.986-1.9-20.4,1.7-29.965Z" transform="translate(-129.721 -246.88)"/>
      </g>
    </g>
  </g>
</svg>
