<svg xmlns="http://www.w3.org/2000/svg" width="661.047" height="339.24" viewBox="0 0 661.047 339.24">
  <g id="Grupo_87475" data-name="Grupo 87475" transform="translate(-272.96 -249.021)">
    <path id="Trazado_101222" data-name="Trazado 101222" d="M284.69,690.513c35-81.849,166.117-52.091,313.4,7.278S766.658,609.364,854.3,619.308s134.711,175.5-30.261,203.259-217.035-40.578-342.244-.59C364.032,859.588,232.6,812.326,284.69,690.513Z" transform="translate(0 -324.984)" fill="#eeeef8"/>
    <path id="Trazado_101223" data-name="Trazado 101223" d="M4616.752,891.284l-6.326-.848c-.039-.184-.08-.367-.126-.549a15.74,15.74,0,0,0-1.736-4.218q-.144-.241-.3-.475l3.864-5.061a.521.521,0,0,0-.045-.686l-2.821-2.821a.522.522,0,0,0-.686-.046l-5.048,3.855c-.159-.1-.319-.2-.48-.3a15.738,15.738,0,0,0-4.229-1.757c-.182-.046-.366-.088-.55-.128l-.844-6.288a.522.522,0,0,0-.517-.453h-3.99a.523.523,0,0,0-.518.453l-.843,6.288c-.184.04-.368.082-.55.128a15.728,15.728,0,0,0-4.228,1.757c-.162.1-.322.2-.48.3l-5.048-3.855a.523.523,0,0,0-.687.046l-2.821,2.821a.524.524,0,0,0-.046.686l3.864,5.061c-.1.157-.2.315-.295.475a15.773,15.773,0,0,0-1.736,4.218c-.045.182-.086.365-.126.549l-6.325.848a.522.522,0,0,0-.453.517v3.989a.522.522,0,0,0,.453.517l6.345.851q.059.271.127.539a15.758,15.758,0,0,0,1.747,4.186c.1.16.2.317.3.473l-3.9,5.1a.523.523,0,0,0,.046.686l2.821,2.821a.523.523,0,0,0,.687.046l5.114-3.9c.154.1.309.2.467.29a15.766,15.766,0,0,0,4.175,1.726c.178.045.357.086.538.125l.856,6.383a.523.523,0,0,0,.518.453h3.99a.522.522,0,0,0,.517-.453l.856-6.383c.181-.039.36-.08.538-.125A15.736,15.736,0,0,0,4603,907.4c.158-.094.314-.191.468-.29l5.114,3.9a.522.522,0,0,0,.686-.046l2.821-2.821a.521.521,0,0,0,.045-.686l-3.9-5.1c.1-.156.2-.313.3-.473a15.773,15.773,0,0,0,1.746-4.186c.046-.178.087-.358.127-.539l6.346-.851a.521.521,0,0,0,.452-.517V891.8A.521.521,0,0,0,4616.752,891.284Zm-18.8,11.34a9.379,9.379,0,0,1-6.079,0,9.08,9.08,0,0,1-1.056-.438,9.373,9.373,0,0,1-4.3-4.3,9.132,9.132,0,0,1-.437-1.056,9.384,9.384,0,0,1,0-6.079,9.132,9.132,0,0,1,.438-1.056,9.372,9.372,0,0,1,4.3-4.3,9.081,9.081,0,0,1,1.056-.438,9.379,9.379,0,0,1,6.079,0,9.081,9.081,0,0,1,1.056.438,9.34,9.34,0,0,1,0,16.788A9.08,9.08,0,0,1,4597.957,902.625Z" transform="translate(-3778.54 -547.041)" fill="#ced2ea"/>
    <path id="Trazado_101224" data-name="Trazado 101224" d="M4405.6,780.74l-4.073-.546c-.025-.119-.052-.237-.081-.353a10.145,10.145,0,0,0-1.119-2.715q-.092-.155-.19-.306l2.487-3.258a.336.336,0,0,0-.029-.442l-1.816-1.816a.336.336,0,0,0-.442-.029l-3.251,2.482c-.1-.066-.2-.131-.308-.193a10.147,10.147,0,0,0-2.723-1.131c-.118-.03-.235-.057-.354-.082l-.543-4.049a.337.337,0,0,0-.333-.292h-2.569a.336.336,0,0,0-.333.292l-.542,4.049c-.119.026-.237.053-.354.082a10.137,10.137,0,0,0-2.723,1.131c-.1.063-.207.127-.308.193l-3.252-2.482a.335.335,0,0,0-.441.029l-1.816,1.816a.335.335,0,0,0-.03.442l2.488,3.258c-.066.1-.128.2-.19.306a10.1,10.1,0,0,0-1.119,2.715c-.03.117-.056.235-.081.353l-4.073.546a.337.337,0,0,0-.292.333v2.568a.337.337,0,0,0,.292.333l4.085.548c.026.116.052.232.083.347a10.142,10.142,0,0,0,1.124,2.695c.062.1.125.2.19.3l-2.508,3.285a.335.335,0,0,0,.03.442l1.816,1.816a.336.336,0,0,0,.441.03l3.293-2.514c.1.064.2.126.3.187a10.136,10.136,0,0,0,2.688,1.111c.114.029.23.056.346.081l.551,4.109a.336.336,0,0,0,.333.291h2.569a.337.337,0,0,0,.333-.291l.55-4.109c.117-.025.232-.052.347-.081a10.14,10.14,0,0,0,2.688-1.111c.1-.06.2-.123.3-.187l3.292,2.514a.337.337,0,0,0,.442-.03l1.816-1.816a.336.336,0,0,0,.029-.442l-2.507-3.285c.064-.1.128-.2.19-.3a10.175,10.175,0,0,0,1.125-2.695q.043-.172.081-.347l4.086-.548a.337.337,0,0,0,.292-.333v-2.568A.336.336,0,0,0,4405.6,780.74Zm-12.1,7.3a6.013,6.013,0,0,1-7.361-3.049,5.886,5.886,0,0,1-.282-.68,6.024,6.024,0,0,1,0-3.914,5.886,5.886,0,0,1,.282-.68,6.037,6.037,0,0,1,2.767-2.767,6.031,6.031,0,0,1,4.594-.282,5.86,5.86,0,0,1,.68.282,6.013,6.013,0,0,1,0,10.809A5.87,5.87,0,0,1,4393.5,788.041Z" transform="translate(-3606.79 -456.085)" fill="#ced2ea"/>
    <g id="Grupo_87429" data-name="Grupo 87429" transform="translate(396.7 346.453)">
      <path id="Trazado_101225" data-name="Trazado 101225" d="M1293.9,1227.329V1071.452h53.529q29.011,0,45.286,10.759t16.273,32.064a37.514,37.514,0,0,1-5.246,19.806q-5.247,8.671-16.166,13.061,13.7,3.106,20.234,12.472a36.8,36.8,0,0,1,6.53,21.572q0,22.8-15.309,34.472t-43.894,11.67Zm36.293-90.893h17.985q12.311-.213,18.414-4.764t6.1-13.329q0-9.957-6.209-14.506t-19.056-4.55h-17.236Zm0,23.981v39.076h24.945q11.562,0,17.343-4.55t5.781-13.971q0-10.169-4.978-15.363t-16.113-5.192Z" transform="translate(-1293.901 -1069.204)" fill="#3f478c"/>
      <path id="Trazado_101226" data-name="Trazado 101226" d="M2491.737,1173.907v53.422h-36.292V1071.452h63.271q27.727,0,44,14.185t16.273,37.1q0,23.02-16.273,37.1t-44,14.078Zm0-27.835h26.979q11.776,0,17.932-6.477t6.156-16.647q0-10.383-6.156-17.022t-17.932-6.638h-26.979Z" transform="translate(-2314.663 -1069.204)" fill="#3f478c"/>
      <path id="Trazado_101227" data-name="Trazado 101227" d="M3745.884,1147.115q0,28.8-18.254,47.48t-47.694,18.682q-29.656,0-48.07-18.682t-18.414-47.48v-28.049q0-28.69,18.361-47.427t47.909-18.735q29.332,0,47.748,18.735t18.415,47.427Zm-36.08-28.263q0-16.7-7.868-27.407t-22.214-10.706q-14.669,0-22.429,10.652t-7.761,27.46v28.263q0,16.917,7.868,27.621t22.536,10.706q14.238,0,22.054-10.706t7.815-27.621Z" transform="translate(-3332.317 -1052.904)" fill="#3f478c"/>
    </g>
    <g id="Grupo_87430" data-name="Grupo 87430" transform="translate(439.001 564.727)">
      <path id="Trazado_101228" data-name="Trazado 101228" d="M1642.913,2881.081v-17.157h5.7a7.422,7.422,0,0,1,4.454,1.172,4.063,4.063,0,0,1,1.6,3.506,3.448,3.448,0,0,1-.672,2.086,3.968,3.968,0,0,1-1.862,1.367,3.827,3.827,0,0,1,2.357,1.473,4.344,4.344,0,0,1,.825,2.628,4.411,4.411,0,0,1-1.579,3.671,6.835,6.835,0,0,1-4.36,1.254Zm2.864-9.934h3.158a3.228,3.228,0,0,0,2.1-.631,2.174,2.174,0,0,0,.772-1.786,2.226,2.226,0,0,0-.813-1.891,3.883,3.883,0,0,0-2.38-.619h-2.84Zm0,2.133v5.5h3.606a3.453,3.453,0,0,0,2.286-.676,2.418,2.418,0,0,0,.8-1.958,3.072,3.072,0,0,0-.672-2.117,2.674,2.674,0,0,0-2.1-.752Z" transform="translate(-1642.913 -2862.698)" fill="#0f0140"/>
      <path id="Trazado_101229" data-name="Trazado 101229" d="M1774.981,2911.176a4.359,4.359,0,0,1-1.52,1.561,4.5,4.5,0,0,1-5.327-.76,6.024,6.024,0,0,1-1.155-4.066v-7.624h2.852v7.648a3.824,3.824,0,0,0,.542,2.346,1.98,1.98,0,0,0,1.638.671,3.683,3.683,0,0,0,1.738-.371,2.7,2.7,0,0,0,1.1-1.078v-9.215h2.864v12.75h-2.5Z" transform="translate(-1751.942 -2894.654)" fill="#0f0140"/>
      <path id="Trazado_101230" data-name="Trazado 101230" d="M1883.974,2907.864a1.332,1.332,0,0,0-.565-1.1,5.637,5.637,0,0,0-2.11-.766,8.764,8.764,0,0,1-3.459-1.373,2.878,2.878,0,0,1-1.173-2.422,3.446,3.446,0,0,1,1.355-2.734,5.39,5.39,0,0,1,3.571-1.131,5.592,5.592,0,0,1,3.706,1.149,3.4,3.4,0,0,1,1.314,2.846l-.023.07h-2.746a1.8,1.8,0,0,0-.6-1.355,2.31,2.31,0,0,0-1.65-.566,2.362,2.362,0,0,0-1.579.466,1.446,1.446,0,0,0-.542,1.137,1.277,1.277,0,0,0,.512,1.067,5.49,5.49,0,0,0,2.08.7,8.77,8.77,0,0,1,3.565,1.4,2.943,2.943,0,0,1,1.161,2.457,3.342,3.342,0,0,1-1.42,2.793,6.049,6.049,0,0,1-3.741,1.072,5.709,5.709,0,0,1-3.924-1.273,3.6,3.6,0,0,1-1.367-2.922l.024-.07h2.663a1.909,1.909,0,0,0,.8,1.614,3.217,3.217,0,0,0,1.838.507,2.938,2.938,0,0,0,1.709-.424A1.332,1.332,0,0,0,1883.974,2907.864Z" transform="translate(-1848.043 -2892.944)" fill="#0f0140"/>
      <path id="Trazado_101231" data-name="Trazado 101231" d="M1988.22,2856.321h-2.864v-2.51h2.864Zm0,15.874h-2.864v-12.751h2.864Z" transform="translate(-1943.852 -2853.811)" fill="#0f0140"/>
      <path id="Trazado_101232" data-name="Trazado 101232" d="M2037.852,2898.578l.165,1.838a4.566,4.566,0,0,1,1.573-1.526,4.2,4.2,0,0,1,2.139-.548,4.013,4.013,0,0,1,3.105,1.208,5.419,5.419,0,0,1,1.114,3.765v8.013h-2.864v-7.99a2.866,2.866,0,0,0-.595-2.044,2.43,2.43,0,0,0-1.809-.607,3,3,0,0,0-1.5.371,3.094,3.094,0,0,0-1.084,1.019v9.251h-2.864v-12.751Z" transform="translate(-1987.685 -2892.944)" fill="#0f0140"/>
      <path id="Trazado_101233" data-name="Trazado 101233" d="M2150.353,2911.576a5.542,5.542,0,0,1-4.319-1.774,6.519,6.519,0,0,1-1.609-4.554v-.471a6.769,6.769,0,0,1,1.6-4.613,5.053,5.053,0,0,1,4-1.821,4.985,4.985,0,0,1,3.953,1.561,6.119,6.119,0,0,1,1.373,4.19v1.685h-7.955l-.023.058a3.988,3.988,0,0,0,.889,2.478,2.818,2.818,0,0,0,2.269.963,6.135,6.135,0,0,0,1.98-.283,6.5,6.5,0,0,0,1.591-.813l.92,1.878a5.931,5.931,0,0,1-1.909,1.078A7.963,7.963,0,0,1,2150.353,2911.576Zm-.33-10.936a2.148,2.148,0,0,0-1.744.842,4.146,4.146,0,0,0-.849,2.139l.024.059h5.055v-.294a3.055,3.055,0,0,0-.618-1.98A2.26,2.26,0,0,0,2150.023,2900.64Z" transform="translate(-2083.64 -2892.944)" fill="#0f0140"/>
      <path id="Trazado_101234" data-name="Trazado 101234" d="M2257.337,2907.864a1.332,1.332,0,0,0-.565-1.1,5.639,5.639,0,0,0-2.109-.766,8.763,8.763,0,0,1-3.459-1.373,2.878,2.878,0,0,1-1.173-2.422,3.447,3.447,0,0,1,1.355-2.734,5.39,5.39,0,0,1,3.571-1.131,5.592,5.592,0,0,1,3.706,1.149,3.4,3.4,0,0,1,1.314,2.846l-.024.07h-2.745a1.8,1.8,0,0,0-.6-1.355,2.311,2.311,0,0,0-1.65-.566,2.363,2.363,0,0,0-1.579.466,1.446,1.446,0,0,0-.542,1.137,1.277,1.277,0,0,0,.513,1.067,5.483,5.483,0,0,0,2.08.7,8.768,8.768,0,0,1,3.565,1.4,2.945,2.945,0,0,1,1.161,2.457,3.343,3.343,0,0,1-1.42,2.793,6.052,6.052,0,0,1-3.742,1.072,5.709,5.709,0,0,1-3.924-1.273,3.594,3.594,0,0,1-1.367-2.922l.023-.07h2.663a1.909,1.909,0,0,0,.8,1.614,3.218,3.218,0,0,0,1.838.507,2.936,2.936,0,0,0,1.709-.424A1.33,1.33,0,0,0,2257.337,2907.864Z" transform="translate(-2176.154 -2892.944)" fill="#0f0140"/>
      <path id="Trazado_101235" data-name="Trazado 101235" d="M2360.887,2907.864a1.33,1.33,0,0,0-.566-1.1,5.632,5.632,0,0,0-2.109-.766,8.759,8.759,0,0,1-3.458-1.373,2.878,2.878,0,0,1-1.172-2.422,3.447,3.447,0,0,1,1.355-2.734,5.391,5.391,0,0,1,3.571-1.131,5.592,5.592,0,0,1,3.707,1.149,3.4,3.4,0,0,1,1.314,2.846l-.023.07h-2.746a1.8,1.8,0,0,0-.6-1.355,2.31,2.31,0,0,0-1.65-.566,2.362,2.362,0,0,0-1.579.466,1.445,1.445,0,0,0-.542,1.137,1.277,1.277,0,0,0,.512,1.067,5.485,5.485,0,0,0,2.08.7,8.771,8.771,0,0,1,3.565,1.4,2.944,2.944,0,0,1,1.161,2.457,3.342,3.342,0,0,1-1.42,2.793,6.051,6.051,0,0,1-3.742,1.072,5.706,5.706,0,0,1-3.924-1.273,3.592,3.592,0,0,1-1.367-2.922l.024-.07h2.663a1.908,1.908,0,0,0,.8,1.614,3.219,3.219,0,0,0,1.839.507,2.938,2.938,0,0,0,1.708-.424A1.33,1.33,0,0,0,2360.887,2907.864Z" transform="translate(-2267.153 -2892.944)" fill="#0f0140"/>
      <path id="Trazado_101236" data-name="Trazado 101236" d="M2516.179,2874.576v6.5h-2.864v-17.157h6.706a6.355,6.355,0,0,1,4.448,1.467,5.448,5.448,0,0,1,0,7.731,6.391,6.391,0,0,1-4.448,1.455Zm0-2.3h3.842a3.136,3.136,0,0,0,2.392-.849,3.014,3.014,0,0,0,.8-2.156,2.893,2.893,0,0,0-3.194-3.052h-3.842Z" transform="translate(-2407.821 -2862.698)" fill="#0f0140"/>
      <path id="Trazado_101237" data-name="Trazado 101237" d="M2645.289,2901.158l-1.225-.047a2.57,2.57,0,0,0-1.4.353,2.327,2.327,0,0,0-.866,1v8.862h-2.864v-12.751h2.616l.188,1.85a4.092,4.092,0,0,1,1.243-1.531,2.893,2.893,0,0,1,1.75-.554,2.635,2.635,0,0,1,.483.042,3.619,3.619,0,0,1,.413.1Z" transform="translate(-2518.217 -2892.944)" fill="#0f0140"/>
      <path id="Trazado_101238" data-name="Trazado 101238" d="M2703.5,2904.835a6.945,6.945,0,0,1,1.556-4.667,5.949,5.949,0,0,1,8.579,0,6.885,6.885,0,0,1,1.567,4.667v.247a6.921,6.921,0,0,1-1.567,4.69,5.99,5.99,0,0,1-8.579-.012,6.935,6.935,0,0,1-1.556-4.679Zm2.864.241a5.679,5.679,0,0,0,.73,3.037,2.757,2.757,0,0,0,4.5,0,5.544,5.544,0,0,0,.754-3.037v-.247a5.467,5.467,0,0,0-.754-3,2.725,2.725,0,0,0-4.5,0,5.637,5.637,0,0,0-.73,3Z" transform="translate(-2574.953 -2892.944)" fill="#0f0140"/>
      <path id="Trazado_101239" data-name="Trazado 101239" d="M2821.911,2909.278a2.626,2.626,0,0,0,1.768-.615,1.945,1.945,0,0,0,.719-1.541h2.593l.023.07a3.768,3.768,0,0,1-1.455,3.088,5.422,5.422,0,0,1-3.647,1.3,5.288,5.288,0,0,1-4.319-1.815,6.967,6.967,0,0,1-1.5-4.6v-.412a6.972,6.972,0,0,1,1.5-4.59,5.958,5.958,0,0,1,8.049-.483,4.306,4.306,0,0,1,1.385,3.4l-.024.071h-2.6a2.5,2.5,0,0,0-.69-1.779,2.358,2.358,0,0,0-1.8-.731,2.418,2.418,0,0,0-2.286,1.171,5.831,5.831,0,0,0-.672,2.936v.412a5.841,5.841,0,0,0,.672,2.96A2.424,2.424,0,0,0,2821.911,2909.278Z" transform="translate(-2673.898 -2892.944)" fill="#0f0140"/>
      <path id="Trazado_101240" data-name="Trazado 101240" d="M2927.318,2911.576A5.541,5.541,0,0,1,2923,2909.8a6.518,6.518,0,0,1-1.609-4.554v-.471a6.768,6.768,0,0,1,1.6-4.613,5.053,5.053,0,0,1,4-1.821,4.986,4.986,0,0,1,3.954,1.561,6.12,6.12,0,0,1,1.373,4.19v1.685h-7.955l-.023.058a3.986,3.986,0,0,0,.89,2.478,2.817,2.817,0,0,0,2.268.963,6.13,6.13,0,0,0,1.979-.283,6.514,6.514,0,0,0,1.592-.813l.919,1.878a5.926,5.926,0,0,1-1.909,1.078A7.963,7.963,0,0,1,2927.318,2911.576Zm-.33-10.936a2.149,2.149,0,0,0-1.744.842,4.146,4.146,0,0,0-.849,2.139l.024.059h5.055v-.294a3.055,3.055,0,0,0-.618-1.98A2.26,2.26,0,0,0,2926.988,2900.64Z" transform="translate(-2766.435 -2892.944)" fill="#0f0140"/>
      <path id="Trazado_101241" data-name="Trazado 101241" d="M3034.3,2907.864a1.329,1.329,0,0,0-.566-1.1,5.634,5.634,0,0,0-2.109-.766,8.756,8.756,0,0,1-3.458-1.373,2.878,2.878,0,0,1-1.173-2.422,3.447,3.447,0,0,1,1.355-2.734,5.39,5.39,0,0,1,3.571-1.131,5.592,5.592,0,0,1,3.706,1.149,3.4,3.4,0,0,1,1.314,2.846l-.024.07h-2.746a1.8,1.8,0,0,0-.6-1.355,2.312,2.312,0,0,0-1.65-.566,2.362,2.362,0,0,0-1.579.466,1.444,1.444,0,0,0-.542,1.137,1.277,1.277,0,0,0,.512,1.067,5.491,5.491,0,0,0,2.08.7,8.767,8.767,0,0,1,3.565,1.4,2.943,2.943,0,0,1,1.161,2.457,3.341,3.341,0,0,1-1.42,2.793,6.053,6.053,0,0,1-3.742,1.072,5.71,5.71,0,0,1-3.924-1.273,3.593,3.593,0,0,1-1.367-2.922l.024-.07h2.663a1.909,1.909,0,0,0,.8,1.614,3.219,3.219,0,0,0,1.839.507,2.937,2.937,0,0,0,1.708-.424A1.33,1.33,0,0,0,3034.3,2907.864Z" transform="translate(-2858.948 -2892.944)" fill="#0f0140"/>
      <path id="Trazado_101242" data-name="Trazado 101242" d="M3137.851,2907.864a1.331,1.331,0,0,0-.565-1.1,5.636,5.636,0,0,0-2.109-.766,8.762,8.762,0,0,1-3.459-1.373,2.878,2.878,0,0,1-1.173-2.422,3.446,3.446,0,0,1,1.356-2.734,5.387,5.387,0,0,1,3.571-1.131,5.591,5.591,0,0,1,3.706,1.149,3.4,3.4,0,0,1,1.314,2.846l-.023.07h-2.746a1.8,1.8,0,0,0-.6-1.355,2.312,2.312,0,0,0-1.65-.566,2.363,2.363,0,0,0-1.579.466,1.445,1.445,0,0,0-.542,1.137,1.276,1.276,0,0,0,.512,1.067,5.486,5.486,0,0,0,2.08.7,8.771,8.771,0,0,1,3.565,1.4,2.944,2.944,0,0,1,1.161,2.457,3.343,3.343,0,0,1-1.42,2.793,6.049,6.049,0,0,1-3.741,1.072,5.707,5.707,0,0,1-3.924-1.273,3.593,3.593,0,0,1-1.367-2.922l.023-.07h2.664a1.909,1.909,0,0,0,.8,1.614,3.216,3.216,0,0,0,1.838.507,2.937,2.937,0,0,0,1.709-.424A1.33,1.33,0,0,0,3137.851,2907.864Z" transform="translate(-2949.948 -2892.944)" fill="#0f0140"/>
      <path id="Trazado_101243" data-name="Trazado 101243" d="M3298.871,2872.251a7.25,7.25,0,0,1-1.974,5.215,6.759,6.759,0,0,1-5.12,2.069,6.539,6.539,0,0,1-5.015-2.069,7.352,7.352,0,0,1-1.927-5.215v-3.088a7.358,7.358,0,0,1,1.927-5.208,6.516,6.516,0,0,1,5-2.074,6.77,6.77,0,0,1,5.126,2.074,7.246,7.246,0,0,1,1.98,5.208Zm-2.852-3.111a5.317,5.317,0,0,0-1.149-3.523,3.832,3.832,0,0,0-3.105-1.379,3.6,3.6,0,0,0-2.981,1.379,5.487,5.487,0,0,0-1.1,3.523v3.111a5.55,5.55,0,0,0,1.1,3.553,3.61,3.61,0,0,0,2.994,1.385,3.812,3.812,0,0,0,3.105-1.379,5.41,5.41,0,0,0,1.137-3.559Z" transform="translate(-3085.831 -2860.903)" fill="#0f0140"/>
      <path id="Trazado_101244" data-name="Trazado 101244" d="M3430.708,2911.176a4.365,4.365,0,0,1-1.52,1.561,4.5,4.5,0,0,1-5.326-.76,6.021,6.021,0,0,1-1.155-4.066v-7.624h2.852v7.648a3.825,3.825,0,0,0,.542,2.346,1.98,1.98,0,0,0,1.638.671,3.68,3.68,0,0,0,1.738-.371,2.7,2.7,0,0,0,1.1-1.078v-9.215h2.863v12.75h-2.5Z" transform="translate(-3206.991 -2894.654)" fill="#0f0140"/>
      <path id="Trazado_101245" data-name="Trazado 101245" d="M3530.567,2874.715v3.1h2.286v2.121h-2.286v7.047a1.534,1.534,0,0,0,.342,1.125,1.237,1.237,0,0,0,.907.336,2.5,2.5,0,0,0,.459-.042,2.789,2.789,0,0,0,.424-.112l.306,2.1a3.29,3.29,0,0,1-.872.312,4.869,4.869,0,0,1-1.049.112,3.282,3.282,0,0,1-2.475-.925,4.051,4.051,0,0,1-.9-2.9v-7.047h-1.945v-2.121h1.945v-3.1Z" transform="translate(-3297.564 -2872.181)" fill="#0f0140"/>
      <path id="Trazado_101246" data-name="Trazado 101246" d="M3608.932,2907.864a1.33,1.33,0,0,0-.566-1.1,5.631,5.631,0,0,0-2.109-.766,8.766,8.766,0,0,1-3.459-1.373,2.877,2.877,0,0,1-1.172-2.422,3.447,3.447,0,0,1,1.354-2.734,5.393,5.393,0,0,1,3.571-1.131,5.593,5.593,0,0,1,3.707,1.149,3.4,3.4,0,0,1,1.313,2.846l-.023.07H3608.8a1.8,1.8,0,0,0-.6-1.355,2.311,2.311,0,0,0-1.65-.566,2.364,2.364,0,0,0-1.58.466,1.447,1.447,0,0,0-.542,1.137,1.277,1.277,0,0,0,.513,1.067,5.478,5.478,0,0,0,2.079.7,8.771,8.771,0,0,1,3.565,1.4,2.944,2.944,0,0,1,1.161,2.457,3.342,3.342,0,0,1-1.42,2.793,6.05,6.05,0,0,1-3.741,1.072,5.707,5.707,0,0,1-3.924-1.273,3.591,3.591,0,0,1-1.367-2.922l.023-.07h2.663a1.908,1.908,0,0,0,.8,1.614,3.214,3.214,0,0,0,1.838.507,2.938,2.938,0,0,0,1.708-.424A1.331,1.331,0,0,0,3608.932,2907.864Z" transform="translate(-3363.932 -2892.944)" fill="#0f0140"/>
      <path id="Trazado_101247" data-name="Trazado 101247" d="M3704.382,2904.835a6.945,6.945,0,0,1,1.556-4.667,5.95,5.95,0,0,1,8.58,0,6.886,6.886,0,0,1,1.567,4.667v.247a6.922,6.922,0,0,1-1.567,4.69,5.991,5.991,0,0,1-8.58-.012,6.935,6.935,0,0,1-1.556-4.679Zm2.864.241a5.681,5.681,0,0,0,.731,3.037,2.756,2.756,0,0,0,4.5,0,5.544,5.544,0,0,0,.754-3.037v-.247a5.467,5.467,0,0,0-.754-3,2.724,2.724,0,0,0-4.5,0,5.639,5.639,0,0,0-.731,3Z" transform="translate(-3454.527 -2892.944)" fill="#0f0140"/>
      <path id="Trazado_101248" data-name="Trazado 101248" d="M3829.06,2911.176a4.357,4.357,0,0,1-1.52,1.561,4.5,4.5,0,0,1-5.326-.76,6.023,6.023,0,0,1-1.155-4.066v-7.624h2.852v7.648a3.818,3.818,0,0,0,.542,2.346,1.979,1.979,0,0,0,1.639.671,3.684,3.684,0,0,0,1.738-.371,2.7,2.7,0,0,0,1.1-1.078v-9.215h2.863v12.75h-2.5Z" transform="translate(-3557.063 -2894.654)" fill="#0f0140"/>
      <path id="Trazado_101249" data-name="Trazado 101249" d="M3940.683,2901.158l-1.225-.047a2.573,2.573,0,0,0-1.4.353,2.33,2.33,0,0,0-.866,1v8.862h-2.864v-12.751h2.616l.189,1.85a4.078,4.078,0,0,1,1.243-1.531,2.893,2.893,0,0,1,1.75-.554,2.636,2.636,0,0,1,.483.042,3.611,3.611,0,0,1,.413.1Z" transform="translate(-3656.607 -2892.944)" fill="#0f0140"/>
      <path id="Trazado_101250" data-name="Trazado 101250" d="M4004.518,2909.278a2.627,2.627,0,0,0,1.768-.615,1.946,1.946,0,0,0,.718-1.541h2.593l.024.07a3.767,3.767,0,0,1-1.456,3.088,5.418,5.418,0,0,1-3.647,1.3,5.286,5.286,0,0,1-4.319-1.815,6.962,6.962,0,0,1-1.5-4.6v-.412a6.967,6.967,0,0,1,1.5-4.59,5.957,5.957,0,0,1,8.049-.483,4.308,4.308,0,0,1,1.385,3.4l-.024.071H4007a2.5,2.5,0,0,0-.689-1.779,2.36,2.36,0,0,0-1.8-.731,2.419,2.419,0,0,0-2.287,1.171,5.844,5.844,0,0,0-.671,2.936v.412a5.854,5.854,0,0,0,.671,2.96A2.426,2.426,0,0,0,4004.518,2909.278Z" transform="translate(-3713.17 -2892.944)" fill="#0f0140"/>
      <path id="Trazado_101251" data-name="Trazado 101251" d="M4112.21,2856.321h-2.865v-2.51h2.865Zm0,15.874h-2.865v-12.751h2.865Z" transform="translate(-3810.408 -2853.811)" fill="#0f0140"/>
      <path id="Trazado_101252" data-name="Trazado 101252" d="M4161.839,2898.578l.166,1.838a4.558,4.558,0,0,1,1.573-1.526,4.2,4.2,0,0,1,2.138-.548,4.013,4.013,0,0,1,3.106,1.208,5.42,5.42,0,0,1,1.114,3.765v8.013h-2.864v-7.99a2.859,2.859,0,0,0-.6-2.044,2.428,2.428,0,0,0-1.809-.607,3.005,3.005,0,0,0-1.5.371,3.1,3.1,0,0,0-1.084,1.019v9.251h-2.864v-12.751Z" transform="translate(-3854.241 -2892.944)" fill="#0f0140"/>
      <path id="Trazado_101253" data-name="Trazado 101253" d="M4267.926,2905.13a8.3,8.3,0,0,1,1.332-4.914,4.285,4.285,0,0,1,3.7-1.874,4.009,4.009,0,0,1,2.008.489,4.242,4.242,0,0,1,1.468,1.408l.282-1.662h2.381v12.751a4.814,4.814,0,0,1-1.52,3.806,6.306,6.306,0,0,1-4.314,1.344,8.445,8.445,0,0,1-2.009-.265,9.338,9.338,0,0,1-1.951-.7l.614-2.25a6.957,6.957,0,0,0,1.562.572,7.5,7.5,0,0,0,1.762.206,3.272,3.272,0,0,0,2.275-.666,2.658,2.658,0,0,0,.719-2.044v-1.308a4,4,0,0,1-1.421,1.161,4.273,4.273,0,0,1-1.879.4,4.4,4.4,0,0,1-3.677-1.709,7.1,7.1,0,0,1-1.332-4.49Zm2.863.247a5.006,5.006,0,0,0,.7,2.811,2.428,2.428,0,0,0,2.175,1.055,2.934,2.934,0,0,0,1.549-.383,2.836,2.836,0,0,0,1.02-1.1v-5.586a3.067,3.067,0,0,0-1.032-1.09,2.8,2.8,0,0,0-1.514-.4,2.356,2.356,0,0,0-2.187,1.237,6.38,6.38,0,0,0-.713,3.206Z" transform="translate(-3949.768 -2892.944)" fill="#0f0140"/>
    </g>
    <g id="Grupo_87438" data-name="Grupo 87438" transform="translate(370.569 404.805)">
      <g id="Grupo_87431" data-name="Grupo 87431" transform="translate(18.037 114.132)">
        <path id="Trazado_101254" data-name="Trazado 101254" d="M1229.164,2476.465s-1.316,2.517-1.887,3.489.629,1.545.629,1.545c1.831.686,7.149.343,7.435.057s-1.107-4.99-1.107-4.99S1230.184,2475.384,1229.164,2476.465Z" transform="translate(-1227.122 -2476.009)" fill="#3f4040"/>
      </g>
      <g id="Grupo_87432" data-name="Grupo 87432" transform="translate(10.179 55.705)">
        <path id="Trazado_101255" data-name="Trazado 101255" d="M1162.891,1996.051c-.526,1.709-.847,15.105-.389,19.681s.915,11.21,2.631,13.726,6.005,11.038,6.005,11.038l-.172,4.232a23.776,23.776,0,0,0,1.258,8.121c.858-.515,4.118.8,4.862.286a4.346,4.346,0,0,0,1.087-2.173c3.889-9.608,4.788-55.435,4.788-55.435C1181,1992.592,1163.417,1994.342,1162.891,1996.051Zm10.134,31.062c-1.716-.114-2.517-4.632-2.974-6.692s2.116-12.41,2.4-13.84C1173.655,2008.868,1173.026,2027.112,1173.026,2027.112Z" transform="translate(-1162.283 -1993.95)" fill="#135587"/>
      </g>
      <g id="Grupo_87433" data-name="Grupo 87433" transform="translate(1.004 19.095)">
        <path id="Trazado_101256" data-name="Trazado 101256" d="M1110.051,1691.893s8.293,4.175,10.466,5.719,4.575,12.7,4.747,15.327,1.43,18.931.915,20.589c-.228.858-3.6,1.659-5.49.457-.4-.858-.171-5.833-.286-8.464s-1.429-11.724-1.429-13.326a14.484,14.484,0,0,1-.744-4.174s-1.715,17.786-.743,21.618c-.973,1.03-16.071,3.031-21.733.743a124.99,124.99,0,0,0,.686-14.012,54.559,54.559,0,0,1,.229-7.664s-1.759,9.821-1.973,11.88a28.64,28.64,0,0,1-1.759,7.378,20.765,20.765,0,0,0-1.415,6.005c-.987.257-4.5-.429-4.933-1.33a107,107,0,0,0,2.445-11.367c.3-2.445,1.244-8.15,1.373-9.78s1.373-8.793,1.673-9.865,2.041-8.838,10.693-9.137C1104.174,1692.749,1107.606,1693.654,1110.051,1691.893Z" transform="translate(-1086.588 -1691.893)" fill="#f79420"/>
      </g>
      <g id="Grupo_87434" data-name="Grupo 87434" transform="translate(34.483 61.218)">
        <path id="Trazado_101257" data-name="Trazado 101257" d="M1368.419,2039.453s.073,7.057-2.071,7.872c-.943.085-3-.386-3.517-1.458-.086-.944.049-4.963,1.076-6.214A24.349,24.349,0,0,1,1368.419,2039.453Z" transform="translate(-1362.809 -2039.435)" fill="#f9d6b0"/>
      </g>
      <g id="Grupo_87435" data-name="Grupo 87435" transform="translate(0 60.251)">
        <path id="Trazado_101258" data-name="Trazado 101258" d="M1083.667,2032.432s-1.257,4.307-1.486,5.393-.858,2.8-2.116,1.887-2.059-4.29-1.659-5.548a12.073,12.073,0,0,1,1.382-2.666S1082.809,2031.156,1083.667,2032.432Z" transform="translate(-1078.302 -2031.457)" fill="#f9d6b0"/>
      </g>
      <g id="Grupo_87436" data-name="Grupo 87436" transform="translate(14.233 0)">
        <path id="Trazado_101259" data-name="Trazado 101259" d="M1198.7,1554.241c.115,1.2,1.945,2.288,3.775,2.516s2.975-2.287,3.489-3.317c-.8-1.658.343-5.891.343-5.891s2.631-.686,3.089-1.6-.229-2.86-.229-2.86,1.315,0,1.029-1.772c.4-2.231-1.029-3.947-2.459-4.061.286-1.373-1.659-2.745-3.089-2.059-.8-.8-3.088-1.544-4.232.286-2.917-1.887-4.29.572-4.29,2-1.087,1.259.4,3.717.4,3.717-.572,1.773-.457,8.522,1.945,10.123Z" transform="translate(-1195.733 -1534.345)" fill="#f9d6b0"/>
      </g>
      <g id="Grupo_87437" data-name="Grupo 87437" transform="translate(14.233 0)">
        <path id="Trazado_101260" data-name="Trazado 101260" d="M1206.311,1547.549s2.631-.686,3.089-1.6-.229-2.86-.229-2.86,1.315,0,1.029-1.772c.4-2.231-1.029-3.947-2.459-4.061.286-1.373-1.659-2.745-3.089-2.059-.8-.8-3.088-1.544-4.232.286-2.917-1.887-4.29.572-4.29,2-1.087,1.259.4,3.717.4,3.717a10.72,10.72,0,0,1,1.373-2.115c.629-.63,3.145-.515,4.117.114a15.558,15.558,0,0,0,2.745,1.143c-.629,1.258.572,3.089.572,3.089,2.288-.8,1.258,2.116,1.258,2.116A7.537,7.537,0,0,0,1206.311,1547.549Z" transform="translate(-1195.733 -1534.345)" fill="#4f4f4f"/>
      </g>
      <path id="Trazado_101261" data-name="Trazado 101261" d="M1218.359,1667.191a2.458,2.458,0,0,1,.8-.009,7.705,7.705,0,0,0,.8.067c.147.007.3.007.452,0s.31-.021.466-.032.309-.048.462-.072c.148-.041.3-.07.438-.117s.275-.092.395-.154.238-.114.336-.179l.265-.185a2.066,2.066,0,0,0,.185-.167l.158-.15-.149.16a2.212,2.212,0,0,1-.176.18l-.257.2c-.1.072-.213.13-.331.2s-.257.118-.394.183-.29.1-.441.147c-.154.034-.311.077-.47.1s-.318.053-.476.063-.313.026-.465.029c-.3.011-.585,0-.826-.018a1.705,1.705,0,0,0-.745.078Z" transform="translate(-1201.384 -1650.213)" fill="#e4a565"/>
      <path id="Trazado_101262" data-name="Trazado 101262" d="M1237.233,2267.561s-.011.211-.03.582-.052.9-.107,1.53-.111,1.371-.194,2.16-.176,1.629-.278,2.469-.221,1.678-.346,2.462-.258,1.513-.378,2.137c-.055.313-.129.6-.186.848s-.125.468-.172.647a3.249,3.249,0,0,1-.142.408l-.055.141s.013-.052.039-.147.07-.233.1-.417.083-.4.116-.655.08-.541.126-.855c.093-.626.178-1.36.279-2.146s.2-1.624.308-2.462.215-1.676.316-2.462.208-1.518.293-2.146.17-1.151.221-1.517S1237.233,2267.561,1237.233,2267.561Z" transform="translate(-1216.312 -2178.693)" fill="#2b4d73"/>
    </g>
    <g id="Grupo_87440" data-name="Grupo 87440" transform="translate(583.027 461.464)">
      <path id="Trazado_101263" data-name="Trazado 101263" d="M2960.079,2170.145c1.035.347,2.41,1.329,1.286,4.605s-6.638,18.613-6.731,18.613-4.774-1.467-4.774-1.467,5.617-15.7,6.272-17.539S2957.941,2169.428,2960.079,2170.145Z" transform="translate(-2935.48 -2149.65)" fill="#ff808b"/>
      <path id="Trazado_101264" data-name="Trazado 101264" d="M2832.981,2397.284s.791-3.109,13.523-2.882,13.463.262,13.463.262l8.119-1.924-3.75,9.88s-21.852.079-25.2-1.276S2833.226,2401.1,2832.981,2397.284Z" transform="translate(-2832.768 -2345.36)" fill="#3a2914"/>
      <path id="Trazado_101265" data-name="Trazado 101265" d="M3079.109,2341.673s3.251,6.1-3.572,10.795-7.8,8.612-13.524,8.571-2.046-8.022-2.046-8.022S3073.178,2339.163,3079.109,2341.673Z" transform="translate(-3031.219 -2300.215)" fill="#3a2914"/>
      <path id="Trazado_101266" data-name="Trazado 101266" d="M3027,2010.432c-1.062-.285-3.577-.974-3.487-2.351s.613-.943.389-1.527-.853-1.812-.284-2.68a2.489,2.489,0,0,1,2.754-1.107,5.334,5.334,0,0,0,3.338-.823c.389-.284,2.2-.075,2.41.554s1.482.374,1.811.344a1.74,1.74,0,0,1,1.482,1.871c-.149,1.3,1.153.644,1.542,1.138s.495,1.736,0,2.081.42,1.631.554,1.841-.209,1.826-.928,2.065-.165,1.482-.3,1.751-1.362,2.829-4.655,1.3A10.04,10.04,0,0,1,3027,2010.432Z" transform="translate(-3000.099 -2001.819)"/>
      <path id="Trazado_101267" data-name="Trazado 101267" d="M3033.638,2023.752s-.22,6.576,1.369,8.651,2.692,3.045,4.9,2.913,4.988-4.06,3.751-9.886S3033.9,2022.075,3033.638,2023.752Z" transform="translate(-3009.096 -2019.351)" fill="#f0d6be"/>
      <path id="Trazado_101268" data-name="Trazado 101268" d="M3114.818,2061.328c-.044-.03.4-2.41,1.153-2.006s.877,3.368-1.156,3.249Z" transform="translate(-3080.443 -2052.311)" fill="#f0d6be"/>
      <path id="Trazado_101269" data-name="Trazado 101269" d="M3031.013,2017.725a4.055,4.055,0,0,0,2.9,1.093c1.781-.075,2.147-1.377,3.236-1.437s1.21.692,2.108.72,2.275-.406,2.051-1.065a3.868,3.868,0,0,0-4.012-2.919c-2.889.209-5.943.569-6.152,1.347A9.813,9.813,0,0,0,3031.013,2017.725Z" transform="translate(-3006.787 -2012.616)"/>
      <path id="Trazado_101270" data-name="Trazado 101270" d="M3068.4,2101.067l1.138,3.622s.7,1.108,2.724.614,2.709-3.144,2.709-3.144l-1.362-4.341Z" transform="translate(-3039.657 -2086.183)" fill="#f0d6be"/>
      <path id="Trazado_101271" data-name="Trazado 101271" d="M3026.076,2134.748s.2,2.251,2.211,2.155,3.667-3.271,3.667-3.271a6.368,6.368,0,0,0,2.709,1.138,23.317,23.317,0,0,1,4.521,1.732s1.6,21.981.839,26.674c0,0-10.49,4.348-16.425,3.381,0,0-5.825-16.7-3.672-28.365A65.634,65.634,0,0,0,3026.076,2134.748Z" transform="translate(-2996.635 -2117.656)" fill="#ff5967"/>
      <path id="Trazado_101272" data-name="Trazado 101272" d="M3090.492,2156.662c1.469-.336,3.7,2.05,4.35,8.05s1.15,13.75-.6,14.7-13.511,5.25-13.511,5.25.212-3.7-2.038-3.75c0,0,11.1-4.15,11.1-5.35s-1.4-10.9-1.4-12.25S3088.092,2157.212,3090.492,2156.662Z" transform="translate(-3048.699 -2137.867)" fill="#ff808b"/>
      <path id="Trazado_101273" data-name="Trazado 101273" d="M3039.859,2355.114s2.313-3.907-4.763-4.521c0,0-2.99,1.976-2.91,2.724s2.8,3.283,3.631,3.177S3039.256,2355.711,3039.859,2355.114Z" transform="translate(-3007.827 -2308.32)" fill="#f0d6be"/>
      <path id="Trazado_101274" data-name="Trazado 101274" d="M3047.8,2335.836c2.021,2.6-.591,6.377-5.019,8.917s-17.007,10.45-17.007,10.45-2.9-2.655-2.574-4.84c0,0,14.384-12.072,17.041-13.713S3046.146,2333.71,3047.8,2335.836Z" transform="translate(-2999.909 -2294.378)" fill="#503713"/>
      <path id="Trazado_101275" data-name="Trazado 101275" d="M3007.26,2463.73l-2.224,1.655s.3,3.563,2.6,4.21l2.2-1.025S3007.144,2466.267,3007.26,2463.73Z" transform="translate(-2983.97 -2407.745)" fill="#f0d6be"/>
      <path id="Trazado_101276" data-name="Trazado 101276" d="M2930.989,2474.633s-7.1-.585-8.262-.3-2,1.354-1.947,3.668a3.039,3.039,0,0,0,2.484,3.246c.9.113,7.378-.358,10.519-2.493Z" transform="translate(-2909.923 -2416.994)"/>
      <g id="Grupo_87439" data-name="Grupo 87439" transform="translate(0 49.304)">
        <path id="Trazado_101277" data-name="Trazado 101277" d="M2831.254,2411.879c.262-2.052,3.574-4.183,8.859-2.852s20.191,7,20.191,7-.152,4.224-1.369,5.135c0,0-20.609-3.424-22.321-4.07S2830.835,2415.149,2831.254,2411.879Z" transform="translate(-2831.224 -2408.614)" fill="#453015"/>
        <path id="Trazado_101278" data-name="Trazado 101278" d="M3059.864,2474.887l2.776.474a8.146,8.146,0,0,0,1.483-4.5l-2.89-1.105S3060.793,2473.426,3059.864,2474.887Z" transform="translate(-3032.152 -2462.342)" fill="#f0d6be"/>
        <path id="Trazado_101279" data-name="Trazado 101279" d="M3084.247,2477.768s6.481-.431,7.936.158,1.558,2.372,1.437,3.255a3.625,3.625,0,0,1-3.792,2.6,52.252,52.252,0,0,1-7.064-1.507A8.732,8.732,0,0,0,3084.247,2477.768Z" transform="translate(-3052.277 -2469.253)"/>
      </g>
      <path id="Trazado_101280" data-name="Trazado 101280" d="M2885.99,2285.637l-19.517,2.319a.711.711,0,0,1-.788-.621l-2.812-15.612a.712.712,0,0,1,.621-.788l19.517-2.319a.712.712,0,0,1,.788.621l2.812,15.612A.711.711,0,0,1,2885.99,2285.637Z" transform="translate(-2859.033 -2236.276)" fill="#888"/>
      <rect id="Rectángulo_33901" data-name="Rectángulo 33901" width="8.53" height="0.827" rx="0.413" transform="translate(26.629 48.594) rotate(-16.786)" fill="#888"/>
    </g>
    <g id="Grupo_87441" data-name="Grupo 87441" transform="translate(503.983 404.19)">
      <path id="Trazado_101281" data-name="Trazado 101281" d="M2398.559,2084.948c-1.961.032-4.813,3.931-3.387,11.3s1.666,8.086,1.5,9.156-1.814,3.477-2.171,6.508-.534,19.97-1.6,21.975a4.039,4.039,0,0,0,4.056,0s5.037-25.051,5.349-27.013S2406.672,2084.814,2398.559,2084.948Z" transform="translate(-2366.98 -2017.598)" fill="#fde3ca"/>
      <path id="Trazado_101282" data-name="Trazado 101282" d="M2503.228,2045.028c-3.115.611-4.2,8.906-.634,21.648a27.238,27.238,0,0,1,.839,4.025c.089,1.382-.891,5.081-.847,7s1.56,8.023,2.095,10.252,1.872,12.793,1.872,12.793,2.764.045,4.056-1.515c0,0-1.248-25.809-1.381-28.305s-1.249-18.767-1.561-20.371S2507.08,2044.273,2503.228,2045.028Z" transform="translate(-2461.422 -1982.446)" fill="#fde3ca"/>
      <path id="Trazado_101283" data-name="Trazado 101283" d="M2392.934,1927.356s-3.373,6.244-3.054,12.7,2.621,17.706,2.621,17.706,11.825.959,18.92-2.173c0,0,.21-20.158-1.716-28.232C2409.706,1927.356,2403.531,1929.869,2392.934,1927.356Z" transform="translate(-2364.309 -1879.107)" fill="#3b235f"/>
      <path id="Trazado_101284" data-name="Trazado 101284" d="M2647.073,1754.717s7.752-2.237,8.455-3.26.7-5.689,1.471-5.689.958,3.26.958,3.26a32.25,32.25,0,0,0,4.6-2.318c.895-.75.767,4.284,0,5.155s-4.091,2.787-5.433,2.852-8.217,4.762-8.217,4.762A5.442,5.442,0,0,1,2647.073,1754.717Z" transform="translate(-2590.327 -1719.529)" fill="#fde3ca"/>
      <path id="Trazado_101285" data-name="Trazado 101285" d="M2527.584,1707.174s7.241,13.339,8.664,14c.847.4,1.869.013,3.19-.379a6.618,6.618,0,0,0,1.836,4.762s-4.785,2.639-7.289.747-7.568-10.517-8.458-12.019S2523.195,1709.4,2527.584,1707.174Z" transform="translate(-2482.692 -1685.612)" fill="#00c099"/>
      <path id="Trazado_101286" data-name="Trazado 101286" d="M2191.216,1694.392l-6.312-6.167s.8-5.209-.08-5.765-1.669,2.624-1.669,2.624-1.312-4.693-2.028-4.3-3.737,1.736-.835,6.991a70.56,70.56,0,0,0,7.658,10.626A4.872,4.872,0,0,0,2191.216,1694.392Z" transform="translate(-2179.055 -1662.404)" fill="#fde3ca"/>
      <path id="Trazado_101287" data-name="Trazado 101287" d="M2373.792,1557.263c-2.3-.408-6.94-2.857-4.235-6.276s3.01-2.143,3.112-5.153,2.5-2.909,2.7-4.031a4.21,4.21,0,0,0-.306-3.209c-.664-1.23-.51-4.241.714-5.21s2.032-1.334,2.666-2.908c.324-.807,2.538-1.99,4.631-.459s2.923,0,4.472.408,2.824,2.245,2.366,3.623-1.021,1.786-.765,3.47.186,3.932-1.208,4.976-.221,3.188,1.31,3.749,2.4,7.756-.714,9.95S2373.792,1557.263,2373.792,1557.263Z" transform="translate(-2345.745 -1529.273)" fill="#714b43"/>
      <path id="Trazado_101288" data-name="Trazado 101288" d="M2464.854,1559.875s-.941,5.725,1.686,7.607,3.8,1.8,5.1,1.137.823-10.155.47-10.351S2466.657,1555.092,2464.854,1559.875Z" transform="translate(-2430.07 -1553.79)" fill="#fde3ca"/>
      <path id="Trazado_101289" data-name="Trazado 101289" d="M2448.611,1629.517s-2.74-.6-2.784-2.98,2.549-2.627,2.549-2.627a41.454,41.454,0,0,0-1.921-3.686c-.157,0-4.752-.136-4.752-.136s-.11,3.94-1.011,5.586a9.194,9.194,0,0,1-2.47,2.745s.253,5.26,5.45,6.038C2449.1,1635.27,2448.611,1629.517,2448.611,1629.517Z" transform="translate(-2406.81 -1609.081)" fill="#fde3ca"/>
      <path id="Trazado_101290" data-name="Trazado 101290" d="M2443.311,1555.692a2.665,2.665,0,0,0,2.75-1.136c.712-1.214-.379-2.992.757-3.276s1.08.019,2.254.095,2.765-.871,2.633-1.534-1.136-2.367-4.033-1.932-4.394.644-5.378,2.727-1.8,5.549-.436,5.7S2443.311,1555.692,2443.311,1555.692Z" transform="translate(-2409.371 -1545.589)" fill="#714b43"/>
      <path id="Trazado_101291" data-name="Trazado 101291" d="M2452.347,1596.428s-.589-1.5-1.722-1.539-.569,1.795-.068,2.267a18.313,18.313,0,0,0,2.146,1.427Z" transform="translate(-2417.129 -1586.936)" fill="#fde3ca"/>
      <path id="Trazado_101292" data-name="Trazado 101292" d="M2401.454,1688.794s1.471,5.746,6.027,6.017,4.364-4.919,4.364-4.919a8.461,8.461,0,0,0,2.709.734c.884-.068,2.62,8.811,2.075,10.546s-2.687,3.844-2.789,5.715,1.6,10.818,1.6,10.818a26.682,26.682,0,0,1-16.771,0s1.973-6.4.919-10.137-3.13-8.2-3.2-11.26S2396.893,1688.629,2401.454,1688.794Z" transform="translate(-2370.043 -1669.456)" fill="#00c099"/>
      <path id="Trazado_101293" data-name="Trazado 101293" d="M2271.569,1698.964s-9.467,10.843-11.406,11.659-2.382,1.02-4.457-.238a11.4,11.4,0,0,1-3.265,4.014s3.912,4.048,5.919,3.946,12.411-8.8,12.411-8.8l1.876-6.578Z" transform="translate(-2243.547 -1678.397)" fill="#00c099"/>
      <path id="Trazado_101294" data-name="Trazado 101294" d="M2548.868,2494.336s-.7,2.74-.116,3.108,2.056-.257,3.047.054a18.322,18.322,0,0,0,6.755.79c3.193-.239,3.356-.616,3.209-1.222s-4.019-1.9-6.083-2.89-2.755-1.355-2.755-1.355A8.62,8.62,0,0,1,2548.868,2494.336Z" transform="translate(-2503.738 -2376.037)" fill="#541b53"/>
      <path id="Trazado_101295" data-name="Trazado 101295" d="M2387.642,2488.776s-1.079,1.951-.6,3.247,2.9,1.555,4.191,2.463a8.541,8.541,0,0,0,5.746,1.6c2.247-.308,1.858-1.432.519-2.124a17.217,17.217,0,0,1-4.148-2.678c-.6-.778-1.647-2.513-1.647-2.513A7.486,7.486,0,0,1,2387.642,2488.776Z" transform="translate(-2361.724 -2372.482)" fill="#541b53"/>
    </g>
    <g id="Grupo_87442" data-name="Grupo 87442" transform="translate(789.028 396.376)">
      <path id="Trazado_101296" data-name="Trazado 101296" d="M4750.447,2332.629s-1.311,6.871-2.644,8.046-3.723,1.4-3.413,2.639c.292,1.165,7.927.445,14.4-6.381a1.96,1.96,0,0,0-.011-2.71l-3.815-3.944Z" transform="translate(-4718.487 -2225.381)" fill="#1b1c1c"/>
      <path id="Trazado_101297" data-name="Trazado 101297" d="M4666.765,1898.975s-7.92,26.009-7.231,29.28,12.577,18.81,15.745,26.4c0,0,4.313-1.051,6.067-3.622,0,0-6.522-10.981-7.573-14.37s-3.27-7.36-6.189-8.412c0,0,10.278-16.49,12.79-29.566Z" transform="translate(-4643.901 -1846.101)" fill="#383122"/>
      <path id="Trazado_101298" data-name="Trazado 101298" d="M4747.512,2408.446s1.026,3.977.385,4.618-5.2.115-6.478.667-7.762,1.514-9.687-.6c0,0,.064-.642,1.219-.962s6.355-2.373,8.023-5.2Z" transform="translate(-4707.388 -2292.778)" fill="#303030"/>
      <path id="Trazado_101299" data-name="Trazado 101299" d="M4788.8,1903.593a22.336,22.336,0,0,1,1.477,11.6c-1.053,5.944-3.715,19.745-3.715,19.745s1.894,4.61,1.415,7.391-.576,19.273.1,23.875a8.825,8.825,0,0,1-7.354-1.726s-1.333-26.369-1.879-30.683-1.506-30.73-1.506-30.73Z" transform="translate(-4747.458 -1849.948)" fill="#403827"/>
      <path id="Trazado_101300" data-name="Trazado 101300" d="M4587.793,1624.64s-1.323.671-4.011,7.7-3.117,7.7-3.117,7.7-2.872-3.3-10.022-8.066c0,0-1.1,2.627-2.5,2.811,0,0,10.755,12.221,13.261,10.816s6.9-6.233,8.555-13.5S4587.793,1624.64,4587.793,1624.64Z" transform="translate(-4563.621 -1605.267)" fill="#fff"/>
      <path id="Trazado_101301" data-name="Trazado 101301" d="M4537.89,1644.315s.146-5.263-.5-5.048-1.074,2.7-1.074,2.7-2.359-3.6-3.045-3.261-2.489,2.4-2.4,3.647,3.493,4.9,4.514,4.769C4535.384,1647.125,4536.671,1647.56,4537.89,1644.315Z" transform="translate(-4530.868 -1617.61)" fill="#ffc194"/>
      <path id="Trazado_101302" data-name="Trazado 101302" d="M4719.207,1599.134a20.59,20.59,0,0,1,11.757,5.193c4.509,4.086-2.8,8.541-3.579,13.167s-1.78,13.59.427,18.538-18.648,2.828-21,1.077a29.073,29.073,0,0,0,1-7.85c-.143-3.865-1.994-24.367,1.849-27.034C4709.661,1602.225,4716.163,1601.008,4719.207,1599.134Z" transform="translate(-4685.49 -1582.853)" fill="#fff"/>
      <path id="Trazado_101303" data-name="Trazado 101303" d="M4878.929,1643.183c-1.755,1.3-1.433,4.075,0,6.774s5.066,8.206,4.736,9.693-5.562,10.519-5.562,10.519a5.461,5.461,0,0,1,2.593,1.707s9.523-10.418,9.138-13.47-5.614-11.908-6.885-13.57S4880.415,1642.081,4878.929,1643.183Z" transform="translate(-4835.689 -1621.171)" fill="#fff"/>
      <path id="Trazado_101304" data-name="Trazado 101304" d="M4859.377,1870.763a2.293,2.293,0,0,1-.332,2.07c-.735,1.2-1.655,3.932-2.368,3.978s-3.38-3.127-3.2-4.185,3.3-3.57,3.3-3.57A3.914,3.914,0,0,1,4859.377,1870.763Z" transform="translate(-4814.372 -1820.059)" fill="#ffc194"/>
      <path id="Trazado_101305" data-name="Trazado 101305" d="M4872.909,1902.853s3.057-.483,3.266-1.333-1.633-2.9-2.208-2.828-2.07,1.148-2.024,2.08S4872.288,1902.784,4872.909,1902.853Z" transform="translate(-4830.602 -1846.101)" fill="#ffc194"/>
      <path id="Trazado_101306" data-name="Trazado 101306" d="M4781.048,1531.5a3.559,3.559,0,0,1,.43.513,4.578,4.578,0,0,1,.61,1.314,8.436,8.436,0,0,1,.238,3.144c4.318.51,5.057-.854,5.057-.854l.278-5.056.177-3.806-6.449-.682Z" transform="translate(-4750.726 -1518.65)" fill="#ffc194"/>
      <path id="Trazado_101307" data-name="Trazado 101307" d="M4787.647,1608.848l-.687,1.176a3.6,3.6,0,0,1-1.765-.176l-.253-.8.822-1.431,1.883.3Z" transform="translate(-4754.148 -1590.304)" fill="#9e005d"/>
      <path id="Trazado_101308" data-name="Trazado 101308" d="M4769.49,1626.23a84.818,84.818,0,0,0-1.265,10.322c-.193,4.666.448,13.935.448,13.935l-2.079,2.429-1.534-2.781s1.022-14.159,1.694-18.41.971-5.672.971-5.672Z" transform="translate(-4736.676 -1606.51)" fill="#9e005d"/>
      <path id="Trazado_101309" data-name="Trazado 101309" d="M4802,1590.2l-4.665,2.207a6.26,6.26,0,0,1,1.26,2.605l3.887-3.152Z" transform="translate(-4765.042 -1574.999)" fill="#f4f4f4"/>
      <path id="Trazado_101310" data-name="Trazado 101310" d="M4784,1600.42a4.033,4.033,0,0,0-1.533,1.968,3.283,3.283,0,0,1-.234-1.9l1.108-1.169S4783.362,1600.241,4784,1600.42Z" transform="translate(-4751.707 -1583.015)" fill="#f4f4f4"/>
      <path id="Trazado_101311" data-name="Trazado 101311" d="M4784.591,1566.116a4.6,4.6,0,0,1,.61,1.314c1.008-.158,3.045-.7,3.51-2.55Z" transform="translate(-4753.839 -1552.75)" opacity="0.1"/>
      <path id="Trazado_101312" data-name="Trazado 101312" d="M4775.708,1478.468c-2.512-.477-3.9-.045-4.346.7a18.439,18.439,0,0,0-1.6,6.058,35.474,35.474,0,0,0,.45,5.5s4.842.946,5.833-2.928,2.974-5.811,2.1-7.365A3.42,3.42,0,0,0,4775.708,1478.468Z" transform="translate(-4740.8 -1476.636)" fill="#ffc194"/>
      <path id="Trazado_101313" data-name="Trazado 101313" d="M4778.67,1476.718a6.561,6.561,0,0,1-1.573-5.054c.369-3.056-.485-2.338-1.106-3s-.679-1.436-2.153-1.067-2.833.039-3.007-1.164c-.165-1.135,1.171-2.115,3.7-1.375a2.057,2.057,0,0,0,.968.045c.869-.167,2.64-.424,3.486.049,1.145.641,1.532,1.4,1.1,2.93a3.569,3.569,0,0,1,1.049,3.58C4780.493,1473.807,4778.708,1475.825,4778.67,1476.718Z" transform="translate(-4741.735 -1464.802)" fill="#663212"/>
      <path id="Trazado_101314" data-name="Trazado 101314" d="M4818.447,1522.083s1.494-1.319,2.251-.252-.951,2.93-2.542,2.813Z" transform="translate(-4783.336 -1514.552)" fill="#ffc194"/>
    </g>
    <g id="Grupo_87443" data-name="Grupo 87443" transform="translate(659.778 406.675)">
      <path id="Trazado_101315" data-name="Trazado 101315" d="M3824.516,1946.034l.932.713a4.315,4.315,0,0,0-1.862,2.932l-1.16-.476S3823.05,1946.767,3824.516,1946.034Z" transform="translate(-3779.039 -1898.006)" fill="#f4f5f5"/>
      <path id="Trazado_101316" data-name="Trazado 101316" d="M3833.848,1949.985s5.017-.6,5.226,0-1.954,1.256-1.954,1.256,4.712,1.968,4.384,2.7-1.7,2.893-2.564,2.967a8.322,8.322,0,0,1-6.953-3.99A3.471,3.471,0,0,1,3833.848,1949.985Z" transform="translate(-3787.44 -1901.244)" fill="#ffc194"/>
      <path id="Trazado_101317" data-name="Trazado 101317" d="M3623.6,2473.7s-1.79,4.875-.4,6.8h5.234c1.3,0,7.917,2.192,9.17.313s-4.92-.805-8.231-5.144l-.537-1.656Z" transform="translate(-3603.496 -2361.72)" fill="#4e2714"/>
      <path id="Trazado_101318" data-name="Trazado 101318" d="M3594.121,1967.364a204.342,204.342,0,0,1,.355,33.771c-1.333,19.013-1.469,28.376-1.469,28.376s-1.947,1.01-6.3.383c0,0-1.975-25.028-1.367-30.27,0,0-4.9-28.964-3.746-33.229Z" transform="translate(-3567.242 -1915.9)" fill="#141717"/>
      <path id="Trazado_101319" data-name="Trazado 101319" d="M3537.866,2473.7s-1.789,4.875-.4,6.8h5.234c1.3,0,7.918,2.192,9.17.313s-4.921-.805-8.231-5.144l-.537-1.656Z" transform="translate(-3528.153 -2361.72)" fill="#5e2d15"/>
      <path id="Trazado_101320" data-name="Trazado 101320" d="M3535.794,1961.072s-1.431,28.9-1.975,35.74-3.219,28.361-3.219,28.361a10.848,10.848,0,0,1-6.7-.744s-.99-22.73.023-27.972c0,0-3.779-21.9-.45-35.384Z" transform="translate(-3515.116 -1911.222)" fill="#212526"/>
      <path id="Trazado_101321" data-name="Trazado 101321" d="M3506.068,1677.513l-2.339-.266s-4.663,3.453-8.2,4.4,1.5,10.68,1.646,12.037a99.682,99.682,0,0,1-1.132,29.882,39.945,39.945,0,0,0,12.778,2.11c.38-.009,2.634-12.4,3.011-12.421,0,0,1.1,11.589,1.358,11.589,0,0,5.485-1.074,6.577-1.4,0,0-2.811-20.4-2.516-24.094s1.417-13.812-1.594-17.648C3515.651,1681.7,3509.015,1678.56,3506.068,1677.513Z" transform="translate(-3490.653 -1661.797)" fill="#303030"/>
      <path id="Trazado_101322" data-name="Trazado 101322" d="M3564.084,1681.391l.469,7.337,2.349,1.135,1.053,4.411,4.418,11.423,1.271-7.851-.673-8.361-2.553-7.218-6-1.106C3564.315,1681.233,3564.2,1681.309,3564.084,1681.391Z" transform="translate(-3552.01 -1665.237)" fill="#303030"/>
      <path id="Trazado_101323" data-name="Trazado 101323" d="M3569.282,1627.158a5.422,5.422,0,0,0,4.924,2.389,16.434,16.434,0,0,1,.368-3.579,10.634,10.634,0,0,1,.58-1.859,4.727,4.727,0,0,1,.319-.644l-6.01-3.875Z" transform="translate(-3556.578 -1611.128)" fill="#ffc194"/>
      <path id="Trazado_101324" data-name="Trazado 101324" d="M3648.595,1713.908a14.2,14.2,0,0,1,2.758,3.765c.872,1.962,6.05,15.361,6.05,15.361s3.161,1.862,11.936,9.056a4.272,4.272,0,0,0-1.853,3.375s-11.5-5.991-14.007-9.207-5.985-11.228-7.353-15.751S3645.892,1713.686,3648.595,1713.908Z" transform="translate(-3623.596 -1694.002)" fill="#303030"/>
      <path id="Trazado_101325" data-name="Trazado 101325" d="M3563.922,1680.63l.02.293.469,7.338,2.349,1.135,1.052,4.411,4.418,11.423,1.271-7.851-.674-8.361-2.552-7.218-2.239-.074-3.764-1.032Z" transform="translate(-3551.867 -1664.77)" fill="#f4f5f5"/>
      <path id="Trazado_101326" data-name="Trazado 101326" d="M3567.538,1670.123a7.488,7.488,0,0,0-1.269,2.542,19.232,19.232,0,0,1-3.638-3.847l.806-1.391A8.451,8.451,0,0,0,3567.538,1670.123Z" transform="translate(-3550.733 -1653.167)" fill="#fff"/>
      <path id="Trazado_101327" data-name="Trazado 101327" d="M3596.877,1689.678h1.1l.615,1.133-.415,1.044-1.445.071-.714-.858Z" transform="translate(-3580.073 -1672.722)" fill="#b51e40"/>
      <path id="Trazado_101328" data-name="Trazado 101328" d="M3601.914,1707.707c.226,1.149,1.087,10.224,1.672,16.545l2.033,4.71.823-2.958c-.952-6.707-3.084-18.369-3.084-18.369Z" transform="translate(-3585.254 -1688.503)" fill="#b51e40"/>
      <path id="Trazado_101329" data-name="Trazado 101329" d="M3552.022,1680.632s7.154,14.031,8.362,25.053a60,60,0,0,0-7.058-13.211l1.245-2.416a20.216,20.216,0,0,0-3.523-.528l-.667-7.8Z" transform="translate(-3539.967 -1664.772)" fill="#484848"/>
      <path id="Trazado_101330" data-name="Trazado 101330" d="M3614.624,1688.381s3.164,5.027,2.163,23.661a47.758,47.758,0,0,0,2.166-13.384l-1.147-1.515,1.566-1.262a55.478,55.478,0,0,0-3.353-6.891Z" transform="translate(-3596.424 -1671.582)" fill="#484848"/>
      <path id="Trazado_101331" data-name="Trazado 101331" d="M3610.349,1683.829h.222a19.65,19.65,0,0,1,1.042,2.36,6.511,6.511,0,0,0-.268-2.439,2.774,2.774,0,0,0-.907-.728c-.02.125-.036.256-.05.392S3610.355,1683.714,3610.349,1683.829Z" transform="translate(-3592.667 -1666.872)" fill="#fff"/>
      <path id="Trazado_101332" data-name="Trazado 101332" d="M3492.163,2011.73l.078.793a10.442,10.442,0,0,0-4.106.727l-.168-.882A15,15,0,0,1,3492.163,2011.73Z" transform="translate(-3485.118 -1955.731)" fill="#f4f5f5"/>
      <path id="Trazado_101333" data-name="Trazado 101333" d="M3491.148,2018.166s1.976,1.936,1.647,3.3-.917,1.437-.917,1.437.467,1.557.112,2.06-4.958.225-5.2-1.73a15.857,15.857,0,0,1,.252-4.342S3488.082,2017.978,3491.148,2018.166Z" transform="translate(-3484.025 -1961.373)" fill="#ffc194"/>
      <path id="Trazado_101334" data-name="Trazado 101334" d="M3468.632,1717.015s-3.245,4.719-4.169,20.184a156.638,156.638,0,0,0,2.722,16.437,10.722,10.722,0,0,1,4.472-.632s-1.533-11.509-2.236-15.352c0,0,2.119-10.966,2.236-15.072S3469.492,1716.89,3468.632,1717.015Z" transform="translate(-3464.463 -1696.739)" fill="#303030"/>
      <path id="Trazado_101335" data-name="Trazado 101335" d="M3577.33,1641.871a4.98,4.98,0,0,0,4.316,3.678,10.654,10.654,0,0,1,.58-1.86Z" transform="translate(-3563.65 -1630.709)" opacity="0.1"/>
      <path id="Trazado_101336" data-name="Trazado 101336" d="M3571.564,1558.968c2.8-.378,4.722.552,5.212,1.717s.613,10.424-2.269,11.221-6.132-2.085-6.5-6.745S3569.3,1559.274,3571.564,1558.968Z" transform="translate(-3555.413 -1557.778)" fill="#ffc194"/>
      <path id="Trazado_101337" data-name="Trazado 101337" d="M3558.187,1556.328s1.349-.743,1.267-1.9-.193-1.845.8-2.2,6,2.292,7.077-1.346c0,0-6.885-1.655-8.427-.912s-5.2,4.213-1.239,11.125Z" transform="translate(-3544.799 -1549.776)" fill="#853f3e"/>
      <path id="Trazado_101338" data-name="Trazado 101338" d="M3565.921,1591.774s-.542-2.117-1.56-1.281-.367,3.439,1.028,3.578Z" transform="translate(-3551.817 -1585.387)" fill="#ffc194"/>
    </g>
    <g id="Grupo_87447" data-name="Grupo 87447" transform="translate(809.403 261.975)">
      <g id="Grupo_87444" data-name="Grupo 87444" transform="translate(0 15.144)">
        <ellipse id="Elipse_4741" data-name="Elipse 4741" cx="10.833" cy="3.786" rx="10.833" ry="3.786" transform="translate(0 4.602)" fill="#ced2ea"/>
        <rect id="Rectángulo_33902" data-name="Rectángulo 33902" width="21.666" height="4.602" transform="translate(0 3.786)" fill="#ced2ea"/>
        <ellipse id="Elipse_4742" data-name="Elipse 4742" cx="10.833" cy="3.786" rx="10.833" ry="3.786" fill="#c1c4da"/>
      </g>
      <g id="Grupo_87445" data-name="Grupo 87445" transform="translate(0 7.572)">
        <ellipse id="Elipse_4743" data-name="Elipse 4743" cx="10.833" cy="3.786" rx="10.833" ry="3.786" transform="translate(0 4.602)" fill="#ced2ea"/>
        <rect id="Rectángulo_33903" data-name="Rectángulo 33903" width="21.666" height="4.602" transform="translate(0 3.786)" fill="#ced2ea"/>
        <ellipse id="Elipse_4744" data-name="Elipse 4744" cx="10.833" cy="3.786" rx="10.833" ry="3.786" fill="#c1c4da"/>
      </g>
      <g id="Grupo_87446" data-name="Grupo 87446" transform="translate(0 0)">
        <ellipse id="Elipse_4745" data-name="Elipse 4745" cx="10.833" cy="3.786" rx="10.833" ry="3.786" transform="translate(0 4.602)" fill="#ced2ea"/>
        <rect id="Rectángulo_33904" data-name="Rectángulo 33904" width="21.666" height="4.602" transform="translate(0 3.786)" fill="#ced2ea"/>
        <ellipse id="Elipse_4746" data-name="Elipse 4746" cx="10.833" cy="3.786" rx="10.833" ry="3.786" fill="#c1c4da"/>
      </g>
    </g>
    <g id="Grupo_87451" data-name="Grupo 87451" transform="translate(509.599 308.206)">
      <g id="Grupo_87448" data-name="Grupo 87448" transform="translate(6.608 2.395)">
        <path id="Trazado_101339" data-name="Trazado 101339" d="M2280.506,790.832a.6.6,0,0,1-.6-.6V757.695a.6.6,0,1,1,1.191,0v32.542A.6.6,0,0,1,2280.506,790.832Z" transform="translate(-2279.91 -757.099)" fill="#ced2ea"/>
      </g>
      <g id="Grupo_87449" data-name="Grupo 87449" transform="translate(1.156 17.73)">
        <path id="Trazado_101340" data-name="Trazado 101340" d="M2240.976,896.551a.6.6,0,0,1-.421-.174l-5.451-5.452a.592.592,0,0,1-.175-.421v-6.29a.6.6,0,0,1,1.191,0v6.044l5.278,5.277a.6.6,0,0,1-.422,1.017Z" transform="translate(-2234.929 -883.617)" fill="#ced2ea"/>
      </g>
      <g id="Grupo_87450" data-name="Grupo 87450" transform="translate(6.608 5.77)">
        <path id="Trazado_101341" data-name="Trazado 101341" d="M2280.506,801.382a.6.6,0,0,1-.421-1.017l5.934-5.934v-8.892a.6.6,0,1,1,1.191,0v9.139a.594.594,0,0,1-.175.421l-6.108,6.109A.6.6,0,0,1,2280.506,801.382Z" transform="translate(-2279.91 -784.943)" fill="#ced2ea"/>
      </g>
      <circle id="Elipse_4747" data-name="Elipse 4747" cx="1.758" cy="1.758" r="1.758" transform="translate(0 15.672)" fill="#ced2ea"/>
      <circle id="Elipse_4748" data-name="Elipse 4748" cx="1.758" cy="1.758" r="1.758" transform="translate(5.446 0)" fill="#ced2ea"/>
      <circle id="Elipse_4749" data-name="Elipse 4749" cx="1.758" cy="1.758" r="1.758" transform="translate(11.568 3.516)" fill="#ced2ea"/>
    </g>
    <g id="Grupo_87453" data-name="Grupo 87453" transform="translate(552.969 278.299)">
      <g id="Grupo_87452" data-name="Grupo 87452" transform="translate(0 0)">
        <rect id="Rectángulo_33905" data-name="Rectángulo 33905" width="44.388" height="26.14" rx="6.03" fill="#ced2ea"/>
        <rect id="Rectángulo_33906" data-name="Rectángulo 33906" width="18.15" height="2.663" rx="1.332" transform="translate(13.119 34.573)" fill="#ced2ea"/>
        <rect id="Rectángulo_33907" data-name="Rectángulo 33907" width="8.187" height="12.852" transform="translate(18.101 21.721)" fill="#ced2ea"/>
      </g>
      <rect id="Rectángulo_33908" data-name="Rectángulo 33908" width="41.218" height="23.265" rx="4.501" transform="translate(1.507 1.438)" fill="#b8bddc"/>
    </g>
    <g id="Grupo_87454" data-name="Grupo 87454" transform="translate(708.116 249.021)">
      <rect id="Rectángulo_33909" data-name="Rectángulo 33909" width="7.964" height="19.599" rx="3.982" transform="translate(10.167 9.376)" fill="#ced2ea"/>
      <rect id="Rectángulo_33910" data-name="Rectángulo 33910" width="7.964" height="11.407" rx="3.982" transform="translate(0 17.568)" fill="#ced2ea"/>
      <rect id="Rectángulo_33911" data-name="Rectángulo 33911" width="7.964" height="28.975" rx="3.982" transform="translate(20.592)" fill="#ced2ea"/>
    </g>
    <g id="Grupo_87456" data-name="Grupo 87456" transform="translate(655.184 297.012)">
      <circle id="Elipse_4750" data-name="Elipse 4750" cx="17.298" cy="17.298" r="17.298" fill="#ced2ea"/>
      <g id="Grupo_87455" data-name="Grupo 87455" transform="translate(12.632 8.484)">
        <path id="Trazado_101342" data-name="Trazado 101342" d="M3534.418,732.41V730.38a8.6,8.6,0,0,1-3.632-.918l.641-2.5a7.543,7.543,0,0,0,3.547.94c1.218,0,2.051-.47,2.051-1.325,0-.812-.683-1.324-2.265-1.859-2.285-.769-3.845-1.837-3.845-3.91,0-1.88,1.324-3.354,3.61-3.8v-2.03h2.094v1.88a7.694,7.694,0,0,1,3.1.705l-.62,2.414a7.075,7.075,0,0,0-3.075-.726c-1.389,0-1.838.6-1.838,1.2,0,.705.748,1.154,2.564,1.837,2.542.9,3.568,2.072,3.568,3.995,0,1.9-1.346,3.525-3.8,3.952v2.179Z" transform="translate(-3530.787 -714.977)" fill="#fff"/>
      </g>
    </g>
    <g id="Grupo_87457" data-name="Grupo 87457" transform="translate(868.02 298.152)">
      <path id="Trazado_101343" data-name="Trazado 101343" d="M5331.545,683.438l-16.816-9.784v-9.488l16.816-9.784Z" transform="translate(-5298.716 -654.382)" fill="#ced2ea"/>
      <path id="Rectángulo_33912" data-name="Rectángulo 33912" d="M4.73,0H18.444a0,0,0,0,1,0,0V9.459a0,0,0,0,1,0,0H4.73A4.73,4.73,0,0,1,0,4.73v0A4.73,4.73,0,0,1,4.73,0Z" transform="translate(0 9.784)" fill="#ced2ea"/>
      <rect id="Rectángulo_33913" data-name="Rectángulo 33913" width="6.225" height="15.874" rx="3.112" transform="translate(5.257 16.65)" fill="#ced2ea"/>
    </g>
    <g id="Grupo_87462" data-name="Grupo 87462" transform="translate(312.248 258.091)">
      <g id="Grupo_87458" data-name="Grupo 87458" transform="translate(0 8.909)">
        <path id="Trazado_101344" data-name="Trazado 101344" d="M613.449,430.03A16.333,16.333,0,1,1,625,425.246,16.226,16.226,0,0,1,613.449,430.03Zm0-31.173a14.84,14.84,0,1,0,14.84,14.84A14.856,14.856,0,0,0,613.449,398.857Z" transform="translate(-597.115 -397.363)" fill="#ced2ea"/>
      </g>
      <g id="Grupo_87459" data-name="Grupo 87459" transform="translate(5.469 14.379)">
        <path id="Trazado_101345" data-name="Trazado 101345" d="M653.106,464.218a10.864,10.864,0,1,1,10.864-10.864A10.877,10.877,0,0,1,653.106,464.218Zm0-20.235a9.37,9.37,0,1,0,9.37,9.37A9.381,9.381,0,0,0,653.106,443.984Z" transform="translate(-642.242 -442.49)" fill="#ced2ea"/>
      </g>
      <g id="Grupo_87460" data-name="Grupo 87460" transform="translate(11.524 20.434)">
        <path id="Trazado_101346" data-name="Trazado 101346" d="M697.008,502.066a4.809,4.809,0,1,1,4.809-4.809A4.815,4.815,0,0,1,697.008,502.066Zm0-8.125a3.315,3.315,0,1,0,3.315,3.315A3.319,3.319,0,0,0,697.008,493.941Z" transform="translate(-692.199 -492.447)" fill="#ced2ea"/>
      </g>
      <g id="Grupo_87461" data-name="Grupo 87461" transform="translate(15.806)">
        <path id="Trazado_101347" data-name="Trazado 101347" d="M728.577,349.625l-1.056-1.056,13.691-13.691v-5.243l5.781-5.781.134,6.159h6.459l-6.031,5.921h-5.287Zm15.185-15.185h3.182l2.988-2.933H746.7Zm-1.056-4.187v3.13l2.936-2.936-.067-3.063Z" transform="translate(-727.521 -323.854)" fill="#ced2ea"/>
      </g>
    </g>
    <g id="Grupo_87469" data-name="Grupo 87469" transform="translate(465.888 260.244)">
      <g id="Grupo_87463" data-name="Grupo 87463">
        <path id="Trazado_101348" data-name="Trazado 101348" d="M1878.991,370.108a14.2,14.2,0,1,1,5.545-1.12A14.154,14.154,0,0,1,1878.991,370.108Zm0-26.979a12.735,12.735,0,1,0,12.735,12.735A12.749,12.749,0,0,0,1878.991,343.129Z" transform="translate(-1864.747 -341.619)" fill="#ced2ea"/>
      </g>
      <g id="Grupo_87464" data-name="Grupo 87464" transform="translate(6.683)">
        <path id="Trazado_101349" data-name="Trazado 101349" d="M1927.313,370.108c-2.084,0-4-1.552-5.394-4.371a24.994,24.994,0,0,1,0-19.746c1.394-2.819,3.31-4.371,5.394-4.371s4,1.552,5.395,4.371a25,25,0,0,1,0,19.746C1931.314,368.555,1929.4,370.108,1927.313,370.108Zm0-26.979a3.242,3.242,0,0,0-2.106.879,8.279,8.279,0,0,0-1.935,2.652,23.516,23.516,0,0,0,0,18.408,8.28,8.28,0,0,0,1.935,2.652,2.964,2.964,0,0,0,4.213,0,8.28,8.28,0,0,0,1.935-2.652,23.513,23.513,0,0,0,0-18.408,8.279,8.279,0,0,0-1.935-2.652A3.242,3.242,0,0,0,1927.313,343.129Z" transform="translate(-1919.887 -341.619)" fill="#ced2ea"/>
      </g>
      <g id="Grupo_87465" data-name="Grupo 87465" transform="translate(5.31 3.15)">
        <path id="Trazado_101350" data-name="Trazado 101350" d="M1917.49,371.937a14.191,14.191,0,0,1-8.935-3.15l.948-1.175a12.736,12.736,0,0,0,15.974,0l.948,1.175a14.188,14.188,0,0,1-8.935,3.15Z" transform="translate(-1908.556 -367.612)" fill="#ced2ea"/>
      </g>
      <g id="Grupo_87466" data-name="Grupo 87466" transform="translate(5.627 21.485)">
        <path id="Trazado_101351" data-name="Trazado 101351" d="M1927.495,522.987a12.736,12.736,0,0,0-15.406,0l-.914-1.2a14.247,14.247,0,0,1,17.234,0Z" transform="translate(-1911.175 -518.884)" fill="#ced2ea"/>
      </g>
      <g id="Grupo_87467" data-name="Grupo 87467" transform="translate(13.49 0.755)">
        <rect id="Rectángulo_33914" data-name="Rectángulo 33914" width="1.51" height="26.979" fill="#ced2ea"/>
      </g>
      <g id="Grupo_87468" data-name="Grupo 87468" transform="translate(0.765 14.013)">
        <rect id="Rectángulo_33915" data-name="Rectángulo 33915" width="26.959" height="1.51" fill="#ced2ea"/>
      </g>
    </g>
    <g id="Grupo_87470" data-name="Grupo 87470" transform="translate(369.265 303.928)">
      <path id="Trazado_101352" data-name="Trazado 101352" d="M1089.613,813.551H1067.54a11.037,11.037,0,0,1,11.037-11.036q.4,0,.793.028A11.037,11.037,0,0,1,1089.613,813.551Z" transform="translate(-1067.54 -790.338)" fill="#ced2ea"/>
      <path id="Trazado_101353" data-name="Trazado 101353" d="M1193.268,720.094a18.043,18.043,0,0,1-.75,5.165h-34.6a18.051,18.051,0,1,1,35.348-5.165Z" transform="translate(-1146.307 -702.045)" fill="#ced2ea"/>
      <path id="Trazado_101354" data-name="Trazado 101354" d="M1373.518,770.083q0,.779-.077,1.538h-30.41q-.076-.759-.077-1.538a15.282,15.282,0,0,1,30.563,0Z" transform="translate(-1309.574 -748.408)" fill="#ced2ea"/>
    </g>
    <g id="Grupo_87472" data-name="Grupo 87472" transform="translate(852.231 366.184)">
      <circle id="Elipse_4751" data-name="Elipse 4751" cx="3.635" cy="3.635" r="3.635" transform="translate(0 13.436)" fill="#ced2ea"/>
      <circle id="Elipse_4752" data-name="Elipse 4752" cx="3.635" cy="3.635" r="3.635" transform="translate(19.594)" fill="#ced2ea"/>
      <circle id="Elipse_4753" data-name="Elipse 4753" cx="3.635" cy="3.635" r="3.635" transform="translate(42.754 3.635)" fill="#ced2ea"/>
      <g id="Grupo_87471" data-name="Grupo 87471" transform="translate(1.231 2.477)">
        <path id="Trazado_101355" data-name="Trazado 101355" d="M5063.422,1252.172l-.933-1.4,21.972-14.64,22.023,3.69-.278,1.658-21.367-3.58Z" transform="translate(-5062.489 -1236.133)" fill="#ced2ea"/>
      </g>
    </g>
    <g id="Grupo_87474" data-name="Grupo 87474" transform="translate(302.664 377.037)">
      <path id="Rectángulo_33916" data-name="Rectángulo 33916" d="M0,0H32.009a0,0,0,0,1,0,0V20.1a9.31,9.31,0,0,1-9.31,9.31H0a0,0,0,0,1,0,0V0A0,0,0,0,1,0,0Z" transform="translate(0 1.245)" fill="#ced2ea"/>
      <path id="Trazado_101356" data-name="Trazado 101356" d="M519.422,1548.456v3.944a.785.785,0,0,0,.783.783H550.05v.275a1.249,1.249,0,0,1-1.245,1.245H519.286a1.249,1.249,0,0,1-1.245-1.245v-5.986a1.249,1.249,0,0,1,1.245-1.245H548.8c.517,0,1.251.292,1.151.77-.024.116-.335.069-.335.237l-.415.026-.126.413H520.2A.786.786,0,0,0,519.422,1548.456Z" transform="translate(-518.041 -1517.019)" fill="#ced2ea"/>
      <path id="Trazado_101357" data-name="Trazado 101357" d="M519.422,1307.469v3.944a.785.785,0,0,0,.783.783H550.05v.274a1.249,1.249,0,0,1-1.245,1.245H519.286a1.249,1.249,0,0,1-1.245-1.245v-5.985a1.249,1.249,0,0,1,1.245-1.245H548.8a1.249,1.249,0,0,1,1.245,1.245v.2H520.2A.785.785,0,0,0,519.422,1307.469Z" transform="translate(-518.041 -1305.24)" fill="#ced2ea"/>
      <path id="Trazado_101358" data-name="Trazado 101358" d="M558.571,1558.158v5.511H530.177a.767.767,0,0,1-.745-.783v-3.944a.767.767,0,0,1,.745-.783Z" transform="translate(-528.051 -1527.503)" fill="#fff"/>
      <g id="Grupo_87473" data-name="Grupo 87473" transform="translate(29.537 30.095)">
        <path id="Trazado_101359" data-name="Trazado 101359" d="M762.223,1560.036a11.709,11.709,0,0,1,.006-6.5l1.125.235a11.187,11.187,0,0,0,.007,6.064Z" transform="translate(-761.745 -1553.54)" fill="#ced2ea"/>
      </g>
      <rect id="Rectángulo_33917" data-name="Rectángulo 33917" width="22.267" height="8.468" rx="4.234" transform="translate(4.773 4.916)" fill="#b8bddc"/>
      <path id="Trazado_101360" data-name="Trazado 101360" d="M552.748,1580.337h4.411v5.336l-2.206-2.514-2.206,2.514Z" transform="translate(-548.541 -1546.994)" fill="#b8bddc"/>
    </g>
  </g>
</svg>
